<svg xmlns="http://www.w3.org/2000/svg" xml:space="preserve" viewBox="0 0 495.31 960.77" shape-rendering="geometricPrecision" text-rendering="geometricPrecision" image-rendering="optimizeQuality" fill-rule="evenodd" clip-rule="evenodd"><g fill="currentColor"><path d="M238.35 828.15v-58.62l-96.17 34.06zM139.12 747.35v44.56l86.56-30.65zM139.12 906.19c0 27.4 22.22 49.61 49.61 49.61 27.17 0 49.22-21.85 49.58-48.93l-99.2-33.07v32.39zM238.35 894.2v-49.42l-88.96 19.76zM139.12 815.23v39.26l82.2-18.27zM247.65 180.58c49.86 0 90.29-40.43 90.29-90.29C337.94 40.43 297.51 0 247.65 0c-49.86 0-90.29 40.43-90.29 90.29 0 49.86 40.43 90.29 90.29 90.29z"/><path d="M481.65 929.95 459.28 589c10.98-5.76 18.05-17.63 17.11-30.74 7.89-2.39 13.4-9.93 12.84-18.51l-3.71-56.57c-.65-9.99-9.29-17.56-19.29-16.91l-.17.01c-14.96-101.41-37.56-161.85-60.47-199.6-14.58-23.89-29.61-38.55-42.71-47.19-13.07-8.67-23.98-10.98-28.6-11.39-1.26-.13-2.5-.16-3.73-.14-1.75-.31-3.54-.5-5.38-.5H170.14c-1.84 0-3.63.19-5.38.5-1.23-.02-2.47.01-3.73.14-4.61.42-15.52 2.73-28.6 11.39-19.75 13.04-43.4 39.26-64.22 90.61-14.95 36.87-28.76 86.97-38.98 156.18l-.14-.01c-10-.65-18.63 6.92-19.29 16.91l-3.71 56.57c-.56 8.58 4.95 16.11 12.84 18.51-.94 13.12 6.13 24.99 17.11 30.75L13.67 929.95C6.45 930.47.53 936.18.04 943.6c-.53 8.11 5.61 15.11 13.72 15.65l22.69 1.49c8.11.53 15.11-5.61 15.64-13.72.49-7.43-4.64-13.86-11.73-15.32l22.39-341.28c11-4.36 19.15-14.66 20.18-27.25.02-.18.03-.36.05-.54 8.48-1.04 15.3-7.96 15.87-16.8l3.71-56.56c.47-7.23-3.38-13.69-9.31-16.99 12.66-83.66 30.46-133.86 45.87-162.68v425.56l99.23 15.93V543.93h18.6v362.26c0 27.4 22.22 49.61 49.61 49.61 27.4 0 49.62-22.21 49.62-49.61V309.65c5.78 10.82 11.91 24.57 17.99 42.07 10.11 29.07 19.97 68.36 27.87 120.58-5.91 3.31-9.76 9.76-9.28 16.97l3.71 56.56c.58 8.83 7.4 15.75 15.87 16.8.01.18.03.36.05.54 1.03 12.59 9.19 22.88 20.18 27.25l22.39 341.28c-7.09 1.46-12.22 7.89-11.73 15.32.53 8.11 7.54 14.25 15.65 13.72l22.69-1.49c8.11-.53 14.25-7.54 13.72-15.65-.49-7.42-6.41-13.13-13.63-13.65z"/></g></svg>