<svg xmlns="http://www.w3.org/2000/svg" xml:space="preserve" viewBox="0 0 33868.89 22382.07" shape-rendering="geometricPrecision" text-rendering="geometricPrecision" image-rendering="optimizeQuality" fill-rule="evenodd" clip-rule="evenodd"><g fill="currentColor"><path d="M7113.84 5836.29c1611.91 0 2918.2-1306.52 2918.2-2918.2 0-1611.68-1306.29-2918.2-2918.2-2918.2-1611.57 0-2918.2 1306.52-2918.2 2918.2 0 1611.68 1306.63 2918.2 2918.2 2918.2zM3181.09 16995.22c125.54-1.59 243.35-4.66 354.24-10.57L1762.1 18414.67c-697 562.03-806.41 1582.71-244.26 2279.6 320.27 397.41 789.48 603.73 1263.01 603.61 357.19 0 716.88-117.59 1016.7-359.24l4560.55-3677.91c-18.52-77.94-33.63-156.33-43.97-234.95-189.39-1439.22 559.08-1905.02 1219.04-2193.93-1426.72-396.27-2576.23-924.11-3501.02-1514.54l-1309.47 59.99c11.25-331.52 34.99-664.62 68.51-996.71-2348.44-2095.89-2558.51-4479.55-2569.42-4632.13-25.22-352.42 88.28-693.59 319.7-960.69 231.31-267.1 552.94-428.08 905.36-453.31 32.15-2.27 64.42-3.52 96.46-3.52 683.37 0 1261.76 534.42 1316.63 1216.66 5.68 58.4 72.6 644.74 506.48 1410.02 39.54-194.16 77.82-383.55 112.93-563.28 9.32-31.92 17.5-64.08 25.68-96.23l7290.39 4131.9c161.55 91.46 337.2 135.08 510.57 135.08 361.51 0 712.68-189.28 903.66-526.24 282.55-498.52 107.48-1131.67-391.16-1414.34L4588.41 5393.43c-132.58-75.21-274.6-116.91-417.06-129.97-1102.82-224.95-2642.69 393.09-3279.03 2243.58-882.53 2616.45-1072.26 4319.47-736.88 7200.75 405.82 2088.27 1837.08 2302.54 3025.68 2287.43zM33243.46 17352.64c24.09 3.75 47.94 5.57 71.46 5.57 219.5 0 412.41-159.4 447.85-383.09 318.56-2013.75-80.78-3485.23-1186.66-4373.55-2107.13-1692.46-6175.53-655.65-7939.33-87.48-206.43-49.88-410.93-113.27-612.36-196.66-244.94 288.57-653.26 751.42-1252.44 1237.1-29.54-4.77-59.08-9.54-89.98-9.77h-5.11c-320.04 0-580.78 258.01-583.5 578.62l-7.38 870.14c-414.34-809.36-805.27-1345.83-805.27-1345.83-991.71 1039.88-2576.46 1942.63-3091.11 2221.88-1095.21-302.77-1748.69 695.86-1748.69 695.86s536.58 19.43 1130.31 180.53c-656.78 472.51-657.01 1327.99-657.01 1327.99 0 .11 499.09-300.95 1119.18-490.68 51.12 146.22 117.81 282.21 206.09 378.32 320.15 348.67 884.12 596.34 758.92 1174.51-125.2 578.05 618.5 1045.33 618.5 1045.33s931.38-193.37 1314.13-756.42c382.75-562.94-276.3-1634.17-94.75-1827.65 126.22-134.4 604.18-207.11 1229.49-211.09l-24.43 2881.05c-2.5 298.68 220.86 551.12 517.84 584.75 22.27 2.61 44.31 3.86 66.23 3.86 270.62-.11 509.77-188.03 569.42-457.85l721.43-3264.71c40.22 15.91 80.44 28.29 120.43 36.24 426.27 84.19 1400.25-536.36 2600.89-1095.21-16.13-381.05-104.75-1240.4-548.74-2232.33 277.32 355.15 848.78 1143.49 973.19 2042.15 199.95-85.55 405.14-166.67 613.5-241.42-61.92-443.88-199.27-1059.19-502.27-1736.2 231.77 296.86 669.17 896.61 879.46 1610.2 181.66-55.78 365.26-104.52 550.22-145.31-78.62-395.36-212.79-873.89-443.19-1388.55 200.07 256.19 553.06 738.13 781.3 1323.68 254.37-40.67 510-63.17 764.94-62.6l1480.69 5137.69c81.12 281.53 338.33 468.98 622.59 468.98 36.24 0 72.82-3.07 109.52-9.32 325.49-55.44 557.26-346.63 538.4-676.32l-389.23-6802.77c785.84 678.03 1055.44 1844.24 798.11 3471.03-39.08 247.56 129.86 480.12 377.41 519.31zm-13789.36 320.5c-34.08 157.24-189.16 257.1-346.4 223.13-157.35-34.08-257.21-189.16-223.13-346.4 34.08-157.35 189.16-257.21 346.4-223.13 157.24 34.08 257.1 189.16 223.13 346.4z"/><path d="M16752.78 20730.97c-54.42 256.99 109.86 509.32 366.85 563.74 256.87 54.31 509.32-109.97 563.62-366.85 8.75-41.47 9.88-82.37 7.84-122.7L20475 21394c-18.29 36.13-33.74 73.96-42.49 115.31-54.31 256.99 109.97 509.32 366.85 563.62 256.99 54.42 509.43-109.86 563.74-366.85 28.63-135.2-4.54-268.35-78.73-372.87 110.2-65.55 194.39-173.82 223.02-309.13 54.31-256.99-109.97-509.32-366.85-563.62-256.99-54.42-509.43 109.86-563.74 366.85-8.75 41.35-9.88 82.25-7.84 122.59l-2783.91-588.84c18.29-36.01 33.74-73.85 42.49-115.31 54.31-256.87-109.86-509.32-366.85-563.62-256.99-54.31-509.32 109.86-563.74 366.85-28.63 135.2 4.54 268.46 78.73 372.87-110.09 65.55-194.39 173.82-222.9 309.13zM16235.28 20926.26l-108.15-345.83-345.83-280.96-864.69 345.83-280.96 518.75 1296.98 21.59zM16520.45 21553.17l-527.16 210.86-171.43 316.4 790.84 13.18 184.5-158.26-65.78-210.86zM23800.95 21877.41l-108.04-345.83-345.95-281.07-864.57 345.94 259.37 410.7 756.53 129.63zM18855.37 22239.15l-160.53-458.54-708.25-296.18-353.1 184.84 27.72 361.29 273.91 351.51zM9865.48 15000.91c-680.19 281.07-1451.03 599.75-1268.46 1987.62 161.44 1226.43 1519.65 2430.24 2742.1 2430.36h.11c376.39 0 897.18-123.84 1240.51-713.25 1239.49-2128.04 496.25-3369.8-349.47-4213.81-230.06 404.79-664.05 671.55-1148.72 671.55-86.57 0-173.48-8.63-258.58-25.56-289.03-57.26-567.26-120.09-837.31-187-39.65 16.7-79.75 33.29-120.2 50.1zm2482.73 424.9s1456.15 852.42-136.11 3225.97c988.41-2355.83 136.11-3225.97 136.11-3225.97z"/><path d="M4575.55 7570.55c-45.67-566.92-540.22-992.84-1108.27-951.49-571.69 40.9-1001.82 537.49-960.92 1109.07 16.25 226.54 488.07 5567.26 8372.41 7129.86 68.05 13.52 135.88 20 202.79 20 485.23 0 918.77-341.97 1016.59-836.06 111.57-562.14-253.92-1108.04-815.95-1219.5-6240.97-1236.88-6688.82-5066.23-6706.66-5251.87zM15287.77 14603.84l67.83-440.36-735.29-571.57-600.09 550.9 647.01 598.95 376.62 130.08z"/></g></svg>