<svg xmlns="http://www.w3.org/2000/svg" xml:space="preserve" viewBox="0 0 2509.11 1497" shape-rendering="geometricPrecision" text-rendering="geometricPrecision" image-rendering="optimizeQuality" fill-rule="evenodd" clip-rule="evenodd"><g fill="currentColor"><path d="M2380.75 965.01c3.56-6.44 5.2-14.02 4.17-21.87-35.1-266.21-121.78-365.18-179.24-401.94-23.47-15.02-42.08-19.67-50.29-21.06-9.4-2.35-49.14-11.64-89.48-11.64-40.51 0-80.4 9.37-89.6 11.68-7.91 1.39-26.58 6.13-50.26 21.41-17 10.97-36.56 27.38-56.62 51.97-18.28 22.42-36.95 51.66-54.41 89.67l-11.12-4.64c1.58-3.43 3.18-6.71 4.79-10.01-1 .08-1.98.26-2.99.27a48.948 48.948 0 0 1-12.24 9.12c-1.2.63-2.42 1.21-3.66 1.73-13.34 5.65-28.27 4.93-42.01-.78 1.74 10.12 5.27 29.61 9.79 49.47 10.33 45.38 20.85 80.3 53.72 82.82.74.06 1.65.1 2.71.1 9.66 0 31.26-3.67 41.2-34.48.01-.01.01-.02.01-.02 8.16-25.29 16.83-47.18 25.68-66.12 13.82-29.55 28.08-51.89 41.54-68.8l-94.25 463.21s82.36 49.37 237.71 49.37c155.36 0 237.72-49.37 237.72-49.37l-94.22-463.07c7.8 9.81 15.87 21.46 23.97 35.27 31.21 53.22 62.83 138.59 80.84 275.18.56 4.2 1.88 8.09 3.71 11.65l-18.65 37.06 8.84 43.45 31.56-62.69c3.16.92 6.43 1.54 9.85 1.54 1.55 0 3.12-.1 4.7-.31 1.54-.2 3.02-.53 4.48-.92l48.86 97.04h-92.4l6.91 33.95-9.99 5.99c-2.29 1.37-38.87 22.81-107.59 37.64l24.85 125.39h239.54l40.22-202.97h-70.84l-57.52-114.26z"/><path d="M1788.38 668.24c5-2.61 9.17-6.26 12.56-10.58 4.58.46 9.21.13 13.75-1.05 10.53-20.33 21.38-37.94 32.28-53.1a69.41 69.41 0 0 0-3.2-16.6c-9.66-29.93-37.23-47.55-61.56-39.38-6.19 2.09-11.53 5.71-15.95 10.35-10.73-18.01-36.78-31.9-36.78-31.9s-10.32 6.11-12.67 11.29c23.92 3.1 37.19 18.22 42.66 26.24-8.21-1.06-16.44.02-23.87 3.92-22.77 11.92-29.41 44.15-14.84 71.98 14.57 27.84 44.84 40.74 67.62 28.83z"/><path d="M1790.2 534.82c2.8-1.45 6-3.34 9.79-5.98 22.18-15.46 2.81-44.37 2.81-44.37.01 0-5.4 12.78-23.01 21.28-12.42 6-13.43 24.56-12.96 34.99.2 4.35.65 7.32.65 7.32 5.85-10.51 9.14-6.22 22.73-13.24zM2065.9 497.54c17.75 0 33.55.98 47.64 2.48 12.79-18.86 20.27-41.61 20.27-66.12.01-65.13-52.8-117.94-117.94-117.94-65.13 0-117.94 52.8-117.94 117.94 0 34.17 14.62 64.85 37.84 86.39l1.1-.56c1.79-.91 44.8-22.2 129.03-22.2zM1261.24 705.66c6.55-6.76 14.78-10.84 23.8-11.58.95-.08 1.89-.12 2.83-.12.41 0 .83.01 1.24.02-2.6-3.75-6.26-7.49-11.43-10.51l-9.24-5.4 7.87-7.26c4.38-4.04 12.58-5.53 15.9-5.97l4.42-.59 2.8 3.46c.5.62 10.3 12.83 15.01 26.64.06-.01.12-.01.19-.02l21.14-117.35 302.91 54.56 92.21-511.88-302.9-54.56 6.42-35.63-58.47-10.54-6.42 35.63L1066.61 0 974.4 511.89l302.91 54.56-23.93 132.84c2.84 1.74 5.47 3.86 7.87 6.37zm-254.99-215.91 82.49-457.89 610.3 109.94-82.5 457.9-610.29-109.95z"/><path d="M1154.22 172.99c21.82 3.93 38.35-7.77 43.39-35.72 5.63-31.26-8.29-45.28-26.68-48.6-17.53-3.16-38.5 4.33-44.17 35.84-5.01 27.83 5.52 44.53 27.46 48.48zm-11.91-46.31c2.63-14.59 10.38-28.12 25.46-25.41 16.31 2.94 16.58 21.09 14.33 33.59-2.65 14.71-9.43 28.42-24.63 25.68-17.4-3.14-17.68-19.89-15.16-33.87zM1230.06 175.01l-5.57-1.38 3.97-22.06 10.91 1.96c5.64 1.02 7 3.28 8.36 7.71l4.2 13.92c.73 2.29-.03 3.67-2.16 3.53l-4.35-.4-1.66 9.19 28.56 5.15 1.74-9.69-5.57-1.38-6.32-21.13c-1.26-4.28-2.73-7.33-7.23-9.79 9.32-1.1 18.09-5.6 20.46-18.72 2.94-16.3-7.65-24.28-25.67-27.53l-33.83-6.1-1.74 9.68 6.4 1.67-10.42 57.86c-.53 2.94-1.26 3.44-3.63 3.27l-3.88-.19-1.66 9.19 27.33 4.92 1.74-9.68zm5.33-61.94 8.46 1.52c12.01 2.16 17.91 5.25 15.9 16.4-1.76 9.81-8.33 13.94-17.53 12.28l-11.89-2.14 5.06-28.07zM1314.37 201.72c10.66 1.92 21.47.95 29.2-2.59l4.24-23.53c.44-2.45 1.57-3.14 3.7-3l3.38.23 1.66-9.2-28.56-5.14-1.73 9.56 7.88 1.93-3.51 19.49c-3.25 1.19-9.11 1.39-13.77.56-15.44-2.78-19.87-15.47-16.35-34.97 3.27-18.14 13.05-28.15 30.33-25.04 3.56.65 7.66 1.76 9.76 2.77 1.85.96 1.92 1.99 1.54 4.07l-1.52 8.46 12.05 1.28 3.51-19.49c-4.9-3.67-13.95-7.58-23.75-9.34-21.21-3.82-41.79 3.61-47.48 35.24-5.13 28.44 5.78 44.45 29.44 48.72zM1362.78 195.12c-1.11 1.95-1.96 3.19-4.85 3.04l-3.01-.16-1.65 9.19 26.47 4.77 1.75-9.69-6.19-1.49 6.78-12.32 27.94 5.04 1.69 10.3c.42 2.61-.52 3.58-2.89 3.41l-4.13-.24-1.66 9.19 29.17 5.25 1.74-9.68-6.16-1.62-12.52-75.92-26.72-4.81-1.74 9.68 6.24 1.88-30.26 54.16zm41.62-49.07 5.03 36.72-23.05-4.15 17.65-32.63.37.07zM1468.3 217.93l-6.68-1.59 8.86-49.15.24.04 25.37 65.7 14.22 2.56 12.28-68.16c.49-2.7 1.33-3.18 3.73-3.13l3.87.32 1.68-9.31-27.71-4.99-1.74 9.68 6.67 1.59-8.68 48.18-.25-.05-24.57-64.55-21.7-3.9-1.74 9.68 6.31 1.52-10.51 58.35c-.46 2.57-1.44 3.03-3.56 2.9l-4.01-.21-1.66 9.19 27.83 5.01 1.74-9.68zM1526.51 238.41l28.32 5.1 1.74-9.69-6.43-1.54 10.47-58.1c.49-2.7 1.48-3.28 3.73-3.13l3.86.31 1.68-9.31-28.32-5.1-1.74 9.68 6.43 1.54-10.42 57.86c-.55 3.06-1.64 3.5-3.89 3.35l-3.74-.29-1.68 9.31zM1626.53 196.82l12.05 1.28 3.53-19.62c-6.14-4.52-15.2-7.67-22.92-9.06-19.25-3.46-40.29 3.75-46.03 35.63-5.06 28.07 6.67 44.49 31.31 48.93 9.19 1.66 18.45 1.55 25.03-.55l3.58-19.86-11.74-3-1.59 8.83c-.38 2.08-.92 2.99-2.99 3.25-2.32.22-6.3-.12-9.01-.61-17.77-3.2-22.28-16.79-18.88-35.67 3.31-18.39 13.44-27.57 29.13-24.75 2.82.51 6.55 1.56 8.53 2.55 1.85.96 1.92 1.99 1.54 4.07l-1.54 8.58zM1211.84 306.63l31.59 2.99 8.68-48.15c-12.64-8.7-31.59-16.18-49.1-20.35l5.25-29.15-24.25-4.36-5.36 29.81c-37.2-1.96-64.74 15.74-70.7 48.82-7.2 39.97 21.47 57.31 49.27 70.1l-11.33 62.9c-8.84-1.59-18.5-4.34-22.79-6.81-4.62-2.52-5.19-4.99-4.24-10.23l3.72-20.64-31.87-3.37-8.97 49.79c15.03 10.49 37.42 17.57 58.66 21.73l-6.85 38 24.24 4.37 7.08-39.32c38.74.89 64.25-16.84 70.51-51.57 7.08-39.31-21.26-56.6-48.5-70.63l10.68-59.3c5.46 1.66 10.52 3.59 13.68 4.83 4.62 2.53 5.18 5 4.24 10.24l-3.66 20.31zM1164.12 318c-11.17-7.43-17.14-15.61-14.84-28.39 2.54-14.08 12.03-19.81 23.75-21.08l-8.91 49.47zm29.13 78.64c-2.71 15.07-11.34 21.63-22.53 23.67l9.33-51.76c9.87 7.19 15.45 15.63 13.2 28.08zM1303.65 452.38l69.19-55.52c21.35-17.12 36.18-33.73 40.43-57.32 6.2-34.4-14.39-62.8-58.62-70.76-25.88-4.67-50.53-3.02-67.52 3.06l-8.79 48.81 31.3 8.34 3.95-21.95c1.01-5.57 2.13-8.07 7.67-8.77 4.5-.54 11.99-.88 22.15.95 19.33 3.49 32.15 14.92 28.55 34.91-3.13 17.36-11.45 26.01-32.15 43.25l-84.59 69.66-4.54 25.22 144.14 25.97 5.14-28.5-96.31-17.35zM1516.82 297.99c-25.88-4.66-50.54-3.02-67.52 3.06l-8.79 48.81 31.3 8.34 3.96-21.95c1-5.57 2.13-8.08 7.66-8.77 4.5-.54 11.99-.88 22.15.95 19.33 3.49 32.15 14.92 28.55 34.91-3.13 17.37-11.45 26.02-32.15 43.26l-84.59 69.66-4.54 25.22 144.14 25.97 5.14-28.5-96.31-17.35 69.2-55.52c21.34-17.12 36.17-33.73 40.43-57.32 6.19-34.39-14.4-62.8-58.62-70.76zM406.98 664.25l2.8 3.46c.5.62 10.3 12.83 15.01 26.64 1.93-.32 3.87-.48 5.81-.48.87 0 1.74.03 2.62.1 9.01.69 17.42 4.83 24 11.69.71-.73 1.44-1.44 2.19-2.11l-18.4-121.43 304.3-46.13-77.96-514.26-304.3 46.14-5.42-35.79-58.74 8.9 5.43 35.79L.01 122.9l77.96 514.25 304.31-46.13 11.51 75.9c3.44-1.2 6.9-1.81 8.79-2.07l4.42-.59zm-306.01-58.34L31.23 145.89l613.11-92.94 69.74 460.02-613.11 92.94z"/><path d="M399.46 693.98c-.59-.86-1.26-1.71-1.98-2.56l.39 2.55c.12 0 .23-.01.34-.01.41 0 .83.01 1.24.02zM135.03 190.87l2.48-.62-.94-6.18-18.36 2.78.98 6.42 4.5-.43 4.83 31.91-.16.02-29.07-35.05-14.37 2.18.97 6.42 4.26-.4 5.86 38.65c.26 1.71-.25 2.2-1.6 2.57l-2.55.72.92 6.08 18.43-2.79-.97-6.42-4.5.44-4.94-32.56.17-.03 29.82 35.6 9.42-1.42-6.85-45.16c-.27-1.78.16-2.27 1.66-2.74zM174.31 234.68c14.45-2.19 22.28-13.01 19.48-31.52-3.14-20.71-14.82-26.5-27-24.65-11.61 1.76-23.1 10.89-19.94 31.76 2.8 18.43 12.92 26.62 27.46 24.41zm-6.8-47.64c10.8-1.64 14.83 9.63 16.08 17.91 1.48 9.74.17 19.75-9.9 21.27-11.53 1.75-15.27-8.65-16.67-17.9-1.46-9.66.49-19.77 10.48-21.28zM202.22 180.94l5.86 38.65c.26 1.71-.25 2.2-1.61 2.57l-2.55.72.92 6.09 18.43-2.8-.97-6.42-4.5.44-4.94-32.56.16-.02 29.82 35.6 9.42-1.43-6.85-45.15c-.27-1.79.16-2.27 1.66-2.75l2.48-.62-.94-6.17-18.35 2.78.97 6.42 4.5-.43 4.84 31.91-.17.03-29.07-35.06-14.37 2.18.97 6.42 4.26-.4zM280.07 197.46l-1.14-7.47-21.27 3.23 1.13 7.47zM312.44 213.74c14.45-2.19 22.28-13.02 19.48-31.53-3.14-20.7-14.82-26.5-27-24.65-11.6 1.76-23.1 10.9-19.94 31.77 2.8 18.43 12.92 26.61 27.46 24.41zm-6.81-47.65c10.8-1.63 14.84 9.63 16.09 17.91 1.48 9.75.17 19.75-9.9 21.27-11.53 1.75-15.27-8.65-16.67-17.91-1.46-9.66.49-19.76 10.48-21.28zM340.35 160.08l5.81 38.33c.3 1.95-.05 2.42-1.57 2.81l-2.46.71.92 6.09 18.11-2.75-.97-6.42-3.77.33-2.21-14.62 7.22-1.09c3.74-.57 5.07.56 6.85 3.03l5.59 7.79c.94 1.27.76 2.3-.59 2.67l-2.81.67.92 6.09 18.92-2.86-.98-6.42-3.77.32-8.44-11.84c-1.7-2.41-3.27-3.99-6.6-4.57 5.58-2.67 10.11-7.35 8.79-16.04-1.63-10.8-9.94-13.53-21.88-11.71l-22.41 3.39.98 6.42 4.35-.33zm15.58-1.87c7.96-1.2 12.3-.53 13.42 6.85.98 6.5-2.24 10.48-8.33 11.4l-7.87 1.19-2.82-18.59 5.61-.85zM418.47 197.59c7.07-1.08 13.6-3.97 17.67-7.83l-2.37-15.59c-.24-1.62.32-2.29 1.67-2.66l2.16-.58-.92-6.09-18.92 2.86.96 6.33 5.33-.48 1.96 12.91c-1.77 1.44-5.39 2.81-8.47 3.28-10.23 1.55-15.7-5.43-17.65-18.34-1.82-12.02 2.15-20.34 13.6-22.08 2.36-.35 5.15-.53 6.68-.35 1.37.22 1.62.84 1.83 2.21l.85 5.6 7.79-1.75-1.96-12.91c-3.84-1.24-10.32-1.76-16.81-.78-14.05 2.13-25.31 11.15-22.13 32.1 2.86 18.84 13.07 26.51 28.75 24.14zM461.44 190.07l-.98-6.42-4.18.38 1.61-9.13 18.51-2.81 3.25 6.07c.81 1.54.44 2.34-1.08 2.74l-2.63.73.92 6.1 19.33-2.93-.97-6.42-4.19.31-23.98-44.71-17.71 2.68.98 6.42 4.29-.15-7.36 40.24c-.28 1.45-.55 2.41-2.38 2.93l-1.91.55.92 6.09 17.54-2.66zm1.11-46.35.25-.04 10.95 21.85-15.27 2.31 4.06-24.12zM497.87 136.12l5.86 38.65c.26 1.71-.25 2.2-1.6 2.57l-2.55.72.92 6.09 18.43-2.8-.98-6.42-4.5.44-4.94-32.56.16-.02 29.82 35.6 9.42-1.43-6.85-45.15c-.27-1.79.15-2.27 1.66-2.75l2.48-.62-.94-6.17-18.35 2.78.97 6.42 4.51-.43 4.83 31.91-.16.03-29.07-35.05-14.37 2.17.97 6.42 4.26-.4zM556 127.31l5.81 38.32c.31 2.03-.28 2.53-1.71 2.92l-2.4.61.94 6.17 18.76-2.84-.98-6.42-4.33.41-5.83-38.49c-.27-1.78.22-2.36 1.66-2.74l2.48-.62-.94-6.17-18.76 2.84.98 6.42 4.33-.41zM616.14 150.26l.89 5.85c.21 1.38.06 2.06-1.17 2.67-1.4.63-3.96 1.27-5.75 1.54-11.78 1.78-17.49-5.74-19.38-18.25-1.85-12.18 2.52-20.07 12.92-21.65 1.87-.28 4.42-.42 5.86-.23 1.37.21 1.63.84 1.84 2.21l.86 5.69 7.79-1.77-1.97-12.99c-4.8-1.52-11.12-1.56-16.24-.78-12.75 1.94-24.35 10.92-21.15 32.03 2.82 18.6 13.63 26.35 29.95 23.87 6.08-.92 11.85-2.96 15.5-5.67l-1.99-13.16-7.97.63zM231.63 381.89l-9.03-59.57c5.69-.19 11.11-.01 14.5.16 5.18.9 6.52 3.05 7.32 8.32l3.09 20.41 30.87-7.37-7.33-48.38c-14.77-4.15-35.12-5.11-53.04-3.41l-4.44-29.29-24.35 3.7 4.54 29.95c-35.84 10.15-56.19 35.78-51.15 69.03 6.09 40.16 38.82 47.31 69.26 50.44l9.58 63.19c-8.88 1.35-18.91 1.86-23.77.91-5.18-.89-6.52-3.05-7.32-8.32l-3.14-20.73-31.25 7.1 7.59 50.03c17.6 5.07 41.09 4.54 62.53 1.63l5.79 38.18 24.35-3.7-5.99-39.49c36.95-11.66 55.38-36.68 50.09-71.57-5.99-39.49-38.39-46.7-68.7-51.2zm-48.81-26.6c-2.14-14.15 4.99-22.64 15.67-27.63l7.54 49.7c-12.98-3.42-21.26-9.23-23.21-22.07zm62.48 116.78-7.89-52c11.66 3.62 19.67 9.81 21.56 22.31 2.3 15.14-3.75 24.14-13.68 29.68zM423.17 454.87l-28.04-184.96-32.25 4.89-58.24 48.89 15.9 20.48 41.54-30.2 20.86 137.58c1.35 8.88-1.46 10.32-7.34 11.55l-30.03 6.24 3.7 24.35 115.19-17.46-3.84-25.35-37.44 3.99zM526.14 245.67c-47.06 7.14-73.19 45.77-61.72 121.47 11.63 76.69 42.34 106.04 92.69 98.4 50.03-7.58 72.63-45.02 60.8-123.02-11.77-77.67-45.71-103.84-91.78-96.86zm26.85 188.18c-23.37 3.54-39.89-12.14-48.57-69.4-9.43-62.2 1.55-83.05 25.57-86.7 22.38-3.39 39.73 11.15 48.86 71.37 9.48 62.54-3.49 81.33-25.87 84.73zM1014.75 755.14c1.93-.31 3.87-.48 5.81-.48.87 0 1.74.03 2.62.1 9.01.69 17.42 4.84 23.99 11.69 6.56-6.76 14.78-10.84 23.8-11.58.95-.08 1.89-.12 2.83-.12.41 0 .83.01 1.24.02-2.6-3.75-6.26-7.49-11.43-10.51l-9.23-5.4 7.86-7.26c4.38-4.04 12.58-5.53 15.9-5.98l.4-.05c1.46-4.93 3.59-9.57 6.39-13.74-5.17-5.7-11.91-9.4-19.54-9.99-4.71-.35-9.27.55-13.52 2.39-2.06-14.99-15.47-31.56-15.47-31.56s-8.58 1.16-11.6 3.95c15.03 8.79 19.6 22.58 20.98 29.45-5.16-3.02-10.94-4.61-16.97-4.11-13.72 1.13-24.67 12.19-28.65 27.05 1.82 2.32 10.3 13.5 14.6 26.12zM1085.77 729.02c1.82 2.32 10.3 13.5 14.6 26.12 1.93-.31 3.87-.48 5.81-.48.87 0 1.75.03 2.63.1 9.01.69 17.42 4.84 23.99 11.69 6.56-6.76 14.78-10.84 23.8-11.58.94-.08 1.89-.12 2.82-.12.42 0 .83.01 1.24.02-2.6-3.75-6.26-7.49-11.43-10.51l-9.23-5.4 7.86-7.26c4.38-4.04 12.58-5.53 15.9-5.98l.4-.05c1.46-4.93 3.59-9.57 6.4-13.74-5.17-5.7-11.91-9.4-19.54-9.99-4.71-.35-9.27.55-13.52 2.39-2.06-14.99-15.48-31.56-15.48-31.56.01 0-8.58 1.16-11.6 3.95 15.03 8.79 19.6 22.58 20.98 29.45-5.17-3.02-10.94-4.61-16.97-4.11-13.72 1.13-24.67 12.19-28.66 27.05zM1171.41 729.02c1.82 2.32 10.29 13.5 14.59 26.12 1.93-.31 3.87-.48 5.81-.48.87 0 1.74.03 2.62.1 9.01.69 17.42 4.84 24 11.69 6.55-6.76 14.78-10.84 23.8-11.58.95-.08 1.89-.12 2.83-.12.42 0 .83.01 1.24.02-2.6-3.75-6.26-7.49-11.43-10.51l-9.24-5.4 7.87-7.26c4.38-4.04 12.58-5.53 15.9-5.98l.4-.05c1.46-4.93 3.59-9.57 6.39-13.74-5.16-5.7-11.9-9.4-19.54-9.99-4.7-.35-9.27.55-13.52 2.39-2.06-14.99-15.47-31.56-15.47-31.56.01 0-8.58 1.16-11.6 3.95 15.03 8.79 19.6 22.58 20.98 29.45-5.17-3.02-10.94-4.61-16.98-4.11-13.71 1.13-24.66 12.19-28.65 27.05zM1257.03 729.02c1.82 2.32 10.3 13.5 14.6 26.12 1.92-.31 3.87-.48 5.81-.48.87 0 1.74.03 2.62.1 9.01.69 17.42 4.84 23.99 11.69 6.56-6.76 14.78-10.84 23.8-11.58.95-.08 1.89-.12 2.83-.12.41 0 .83.01 1.24.02-2.6-3.75-6.26-7.49-11.42-10.51l-9.24-5.4 7.87-7.26c4.38-4.04 12.57-5.53 15.9-5.98l.4-.05c1.46-4.93 3.59-9.57 6.39-13.74-5.17-5.7-11.91-9.4-19.54-9.99-4.71-.35-9.27.55-13.52 2.39-2.06-14.99-15.47-31.56-15.47-31.56s-8.58 1.16-11.6 3.95c15.04 8.79 19.61 22.58 20.98 29.45-5.16-3.02-10.94-4.61-16.97-4.11-13.71 1.13-24.67 12.19-28.65 27.05zM1342.66 729.02c1.82 2.32 10.29 13.5 14.6 26.12 1.92-.31 3.86-.48 5.81-.48.87 0 1.75.03 2.63.1 9 .69 17.42 4.84 23.99 11.69 6.55-6.76 14.78-10.84 23.8-11.58a33.596 33.596 0 0 1 4.06-.1c-2.6-3.75-6.26-7.49-11.43-10.51l-9.23-5.4 7.86-7.26c4.38-4.04 12.58-5.53 15.9-5.98l.4-.05c1.46-4.93 3.6-9.57 6.4-13.74-5.17-5.7-11.91-9.4-19.54-9.99-4.71-.35-9.27.55-13.52 2.39-2.06-14.99-15.48-31.56-15.48-31.56.01 0-8.58 1.16-11.6 3.95 15.03 8.79 19.6 22.58 20.98 29.45-5.17-3.02-10.94-4.61-16.97-4.11-13.72 1.13-24.67 12.19-28.65 27.05zM1428.29 729.02c1.82 2.32 10.29 13.5 14.59 26.12 1.93-.31 3.87-.48 5.81-.48.87 0 1.74.03 2.62.1 9.01.69 17.42 4.84 24 11.69 6.55-6.76 14.78-10.84 23.8-11.58.94-.08 1.88-.12 2.82-.12.41 0 .83.01 1.24.02-2.6-3.75-6.26-7.49-11.43-10.51l-9.23-5.4 7.86-7.26c4.38-4.04 12.58-5.53 15.9-5.98l4.42-.59 2.81 3.46c.35.44 5.37 6.75 9.95 15.28 1.25-21.93-11.88-40.54-29.93-41.92-4.71-.35-9.27.55-13.52 2.39-2.06-14.99-15.47-31.56-15.47-31.56s-8.58 1.16-11.6 3.95c15.03 8.79 19.6 22.58 20.98 29.45-5.17-3.02-10.94-4.61-16.97-4.11-13.72 1.13-24.67 12.19-28.65 27.05z"/><path d="M971.93 806.63c1.93-.32 3.87-.48 5.81-.48.87 0 1.74.03 2.62.1 9.01.69 17.42 4.84 23.99 11.69 6.56-6.76 14.78-10.84 23.8-11.58.95-.08 1.89-.12 2.83-.12.41.01.83.01 1.24.02-2.6-3.75-6.26-7.48-11.42-10.51l-9.23-5.4 7.86-7.26c4.38-4.04 12.59-5.53 15.9-5.97l4.42-.6.01.02c.73-1.34 1.52-2.64 2.36-3.9-5.17-5.7-11.91-9.41-19.54-9.99-4.71-.36-9.27.54-13.52 2.39-2.06-15-15.47-31.56-15.47-31.56s-8.58 1.16-11.6 3.94c15.03 8.79 19.6 22.58 20.98 29.45-5.17-3.01-10.94-4.61-16.97-4.11-11.69.96-21.37 9.14-26.44 20.73 3.35 4.67 9.09 13.46 12.38 23.13zM1045.17 783.5c3.35 4.67 9.09 13.46 12.39 23.13a35.4 35.4 0 0 1 8.44-.38c9 .69 17.42 4.84 23.99 11.69 6.56-6.76 14.78-10.84 23.8-11.58.94-.08 1.89-.12 2.82-.12.42.01.83.01 1.24.02-2.6-3.75-6.26-7.48-11.43-10.51l-9.23-5.4 7.86-7.26c4.38-4.04 12.58-5.53 15.9-5.97l4.42-.6.02.02a48.1 48.1 0 0 1 2.36-3.9c-5.17-5.7-11.91-9.41-19.54-9.99-4.71-.36-9.27.54-13.52 2.39-2.06-15-15.47-31.56-15.47-31.56s-8.59 1.16-11.6 3.94c15.03 8.79 19.6 22.58 20.98 29.45-5.17-3.01-10.94-4.61-16.97-4.11-11.69.96-21.37 9.14-26.45 20.73zM1130.8 783.5c3.35 4.67 9.09 13.46 12.38 23.13 1.93-.32 3.87-.48 5.81-.48.87 0 1.74.03 2.62.1 9.01.69 17.42 4.84 24 11.69 6.55-6.76 14.78-10.84 23.8-11.58.94-.08 1.88-.12 2.82-.12.42.01.83.01 1.24.02-2.6-3.75-6.26-7.48-11.43-10.51l-9.23-5.4 7.86-7.26c4.38-4.04 12.58-5.53 15.9-5.97l4.42-.6.02.02a48.1 48.1 0 0 1 2.36-3.9c-5.17-5.7-11.91-9.41-19.55-9.99-4.7-.36-9.27.54-13.52 2.39-2.06-15-15.47-31.56-15.47-31.56.01 0-8.58 1.16-11.6 3.94 15.03 8.79 19.6 22.58 20.98 29.45-5.17-3.01-10.94-4.61-16.97-4.11-11.69.96-21.37 9.14-26.45 20.73zM1216.43 783.5c3.35 4.67 9.09 13.46 12.38 23.13 1.93-.32 3.87-.48 5.81-.48.87 0 1.74.03 2.62.1 9.01.69 17.42 4.84 24 11.69 6.55-6.76 14.78-10.84 23.8-11.58.95-.08 1.89-.12 2.83-.12.41.01.83.01 1.24.02-2.6-3.75-6.26-7.48-11.43-10.51l-9.24-5.4 7.87-7.26c4.38-4.04 12.58-5.53 15.9-5.97l4.42-.6.02.02a48.1 48.1 0 0 1 2.36-3.9c-5.17-5.7-11.91-9.41-19.55-9.99-4.71-.36-9.27.54-13.52 2.39-2.06-15-15.47-31.56-15.47-31.56s-8.58 1.16-11.6 3.94c15.03 8.79 19.6 22.58 20.98 29.45-5.16-3.01-10.94-4.61-16.97-4.11-11.69.96-21.37 9.14-26.44 20.73zM1302.06 783.5c3.35 4.67 9.08 13.46 12.38 23.13a35.31 35.31 0 0 1 8.43-.38c9 .69 17.42 4.84 23.99 11.69 6.55-6.76 14.78-10.84 23.8-11.58.95-.08 1.89-.12 2.83-.12.41.01.83.01 1.24.02-2.6-3.75-6.26-7.48-11.43-10.51l-9.23-5.4 7.87-7.26c4.38-4.04 12.57-5.53 15.9-5.97l4.42-.6.02.02c.73-1.34 1.51-2.64 2.35-3.9-5.17-5.7-11.91-9.41-19.54-9.99-4.71-.36-9.27.54-13.52 2.39-2.06-15-15.47-31.56-15.47-31.56s-8.58 1.16-11.6 3.94c15.03 8.79 19.59 22.58 20.98 29.45-5.16-3.01-10.94-4.61-16.97-4.11-11.69.96-21.37 9.14-26.44 20.73zM1387.68 783.5c3.35 4.67 9.09 13.46 12.38 23.13 1.93-.32 3.87-.48 5.81-.48.88 0 1.74.03 2.63.1 9 .69 17.42 4.84 23.99 11.69 6.55-6.76 14.78-10.84 23.8-11.58.95-.08 1.88-.12 2.82-.12.41.01.83.01 1.24.02-2.6-3.75-6.26-7.48-11.43-10.51l-9.23-5.4 7.86-7.26c4.38-4.04 12.58-5.53 15.9-5.97l4.42-.6.02.02a48.1 48.1 0 0 1 2.36-3.9c-5.17-5.7-11.91-9.41-19.54-9.99-4.71-.36-9.27.54-13.53 2.39-2.06-15-15.47-31.56-15.47-31.56s-8.58 1.16-11.6 3.94c15.03 8.79 19.6 22.58 20.98 29.45-5.17-3.01-10.94-4.61-16.97-4.11-11.69.96-21.37 9.14-26.45 20.73zM1507.35 733.49s-8.58 1.16-11.6 3.94c15.03 8.79 19.6 22.58 20.98 29.45-5.17-3.01-10.94-4.61-16.98-4.11-11.69.96-21.36 9.14-26.44 20.73 3.35 4.67 9.09 13.46 12.38 23.13 1.93-.32 3.87-.48 5.81-.48.87 0 1.74.03 2.62.1 9.01.69 17.42 4.84 24 11.69 6.55-6.76 14.78-10.84 23.8-11.58.95-.08 1.89-.12 2.83-.12.41.01.83.01 1.24.02-2.6-3.75-6.26-7.48-11.43-10.51l-9.24-5.4 7.86-7.26c4.38-4.04 12.59-5.53 15.91-5.97l4.42-.6 2.8 3.46c.34.42 5.07 6.37 9.52 14.49-2.59-17.29-14.31-30.66-29.5-31.83-4.71-.36-9.27.54-13.52 2.39-2.06-15-15.47-31.56-15.47-31.56z"/><path d="M990.79 858.59c-1.03-12.56 2-24.77 8.52-34.45-5.17-5.7-11.91-9.41-19.55-9.99-4.7-.36-9.27.54-13.52 2.39-2.06-15-15.47-31.57-15.47-31.57 0 .01-8.58 1.16-11.6 3.95 15.03 8.79 19.6 22.58 20.98 29.45-5.17-3.01-10.94-4.61-16.98-4.11-18.49 1.52-31.98 21.08-30.12 43.69.46 5.72 1.88 11.08 4.02 15.88h77.15a56.538 56.538 0 0 1-3.43-15.23zM1076.42 858.59c-1.03-12.56 2-24.77 8.52-34.45-5.17-5.7-11.91-9.41-19.54-9.99-4.71-.36-9.27.54-13.52 2.39-2.06-15-15.47-31.57-15.47-31.57 0 .01-8.58 1.16-11.6 3.95 15.03 8.79 19.6 22.58 20.98 29.45-5.16-3.01-10.94-4.61-16.97-4.11-18.49 1.52-31.98 21.08-30.12 43.69.47 5.72 1.88 11.08 4.02 15.88h77.15c-1.78-4.75-3-9.86-3.43-15.23zM1162.05 858.59c-1.03-12.56 2-24.77 8.52-34.45-5.17-5.7-11.91-9.41-19.54-9.99-4.71-.36-9.27.54-13.52 2.39-2.06-15-15.48-31.57-15.48-31.57.01.01-8.58 1.16-11.6 3.95 15.03 8.79 19.6 22.58 20.98 29.45-5.17-3.01-10.94-4.61-16.97-4.11-18.5 1.52-31.98 21.08-30.12 43.69.47 5.72 1.88 11.08 4.02 15.88h77.15a56.538 56.538 0 0 1-3.43-15.23zM1247.67 858.59c-1.03-12.56 2-24.77 8.52-34.45-5.16-5.7-11.9-9.41-19.54-9.99-4.7-.36-9.27.54-13.52 2.39-2.06-15-15.47-31.57-15.47-31.57.01.01-8.58 1.16-11.6 3.95 15.03 8.79 19.6 22.58 20.98 29.45-5.17-3.01-10.94-4.61-16.98-4.11-18.49 1.52-31.98 21.08-30.12 43.69.48 5.72 1.88 11.08 4.02 15.88h77.15a56.538 56.538 0 0 1-3.43-15.23zM1333.3 858.59c-1.03-12.56 2-24.77 8.52-34.45-5.17-5.7-11.91-9.41-19.54-9.99-4.71-.36-9.27.54-13.52 2.39-2.06-15-15.47-31.57-15.47-31.57 0 .01-8.58 1.16-11.6 3.95 15.04 8.79 19.61 22.58 20.98 29.45-5.16-3.01-10.94-4.61-16.97-4.11-18.49 1.52-31.98 21.08-30.12 43.69.47 5.72 1.88 11.08 4.02 15.88h77.15c-1.78-4.75-3-9.86-3.43-15.23zM1418.93 858.59c-1.03-12.56 2-24.77 8.52-34.45-5.17-5.7-11.91-9.41-19.54-9.99-4.71-.36-9.27.54-13.52 2.39-2.06-15-15.48-31.57-15.48-31.57.01.01-8.58 1.16-11.6 3.95 15.03 8.79 19.6 22.58 20.98 29.45-5.17-3.01-10.94-4.61-16.97-4.11-18.49 1.52-31.98 21.08-30.12 43.69.47 5.72 1.88 11.08 4.02 15.88h77.15a56.538 56.538 0 0 1-3.43-15.23zM1504.55 858.59c-1.03-12.56 2-24.77 8.52-34.45-5.17-5.7-11.91-9.41-19.55-9.99-4.71-.36-9.27.54-13.52 2.39-2.06-15-15.47-31.57-15.47-31.57 0 .01-8.58 1.16-11.6 3.95 15.03 8.79 19.6 22.58 20.98 29.45-5.17-3.01-10.94-4.61-16.97-4.11-18.5 1.52-31.98 21.08-30.12 43.69.46 5.72 1.88 11.08 4.02 15.88h77.15a56.538 56.538 0 0 1-3.43-15.23zM1565.63 816.55c-2.06-15-15.47-31.57-15.47-31.57 0 .01-8.58 1.16-11.6 3.95 15.03 8.79 19.6 22.58 20.98 29.45-5.17-3.01-10.94-4.61-16.97-4.11-18.49 1.52-31.98 21.08-30.12 43.69.47 5.72 1.88 11.08 4.02 15.88h88.3a49.239 49.239 0 0 0 4.24-16.17c2-22.62-11.37-42.09-29.84-43.51-4.71-.36-9.27.54-13.52 2.39zM210.72 755.14c1.92-.31 3.86-.48 5.81-.48.88 0 1.75.03 2.63.1 9 .69 17.42 4.84 23.99 11.69 6.56-6.76 14.78-10.84 23.8-11.58.94-.08 1.89-.12 2.83-.12.41 0 .83.01 1.24.02-2.6-3.75-6.26-7.49-11.43-10.51l-9.23-5.4 7.86-7.26c4.38-4.04 12.58-5.53 15.9-5.98l.4-.05c1.47-4.93 3.6-9.57 6.4-13.74-5.17-5.7-11.91-9.4-19.54-9.99-4.71-.35-9.27.55-13.52 2.39-2.06-14.99-15.47-31.56-15.47-31.56s-8.58 1.16-11.6 3.95c15.04 8.79 19.6 22.58 20.98 29.45-5.17-3.02-10.94-4.61-16.97-4.11-13.72 1.13-24.67 12.19-28.65 27.05 1.82 2.32 10.29 13.5 14.6 26.12zM281.75 729.02c1.82 2.32 10.3 13.5 14.6 26.12 1.92-.31 3.86-.48 5.81-.48.87 0 1.74.03 2.62.1 9.01.69 17.42 4.84 24 11.69 6.55-6.76 14.78-10.84 23.8-11.58.94-.08 1.89-.12 2.82-.12.42 0 .83.01 1.24.02-2.6-3.75-6.26-7.49-11.43-10.51l-9.23-5.4 7.86-7.26c4.38-4.04 12.58-5.53 15.9-5.98l.4-.05c1.46-4.93 3.59-9.57 6.4-13.74-5.17-5.7-11.91-9.4-19.54-9.99-4.71-.35-9.27.55-13.53 2.39-2.06-14.99-15.47-31.56-15.47-31.56s-8.58 1.16-11.6 3.95c15.03 8.79 19.6 22.58 20.98 29.45-5.17-3.02-10.94-4.61-16.97-4.11-13.72 1.13-24.67 12.19-28.66 27.05zM367.38 729.02c1.82 2.32 10.3 13.5 14.6 26.12 1.93-.31 3.87-.48 5.81-.48.87 0 1.74.03 2.62.1 9.01.69 17.42 4.84 23.99 11.69 6.56-6.76 14.78-10.84 23.8-11.58.95-.08 1.89-.12 2.83-.12.41 0 .83.01 1.24.02-2.6-3.75-6.26-7.49-11.43-10.51l-9.24-5.4 7.86-7.26c4.38-4.04 12.59-5.53 15.9-5.98l.4-.05c1.46-4.93 3.59-9.57 6.39-13.74-5.17-5.7-11.9-9.4-19.54-9.99-4.71-.35-9.27.55-13.52 2.39-2.06-14.99-15.47-31.56-15.47-31.56s-8.58 1.16-11.6 3.95c15.03 8.79 19.6 22.58 20.98 29.45-5.16-3.02-10.94-4.61-16.97-4.11-13.71 1.13-24.66 12.19-28.65 27.05zM453.01 729.02c1.82 2.32 10.3 13.5 14.6 26.12 1.92-.31 3.86-.48 5.81-.48.87 0 1.74.03 2.62.1 9 .69 17.42 4.84 23.99 11.69 6.56-6.76 14.78-10.84 23.8-11.58a33.596 33.596 0 0 1 4.06-.1c-2.6-3.75-6.26-7.49-11.43-10.51l-9.23-5.4 7.86-7.26c4.38-4.04 12.58-5.53 15.9-5.98l.4-.05c1.47-4.93 3.6-9.57 6.4-13.74-5.17-5.7-11.91-9.4-19.54-9.99-4.71-.35-9.27.55-13.52 2.39-2.06-14.99-15.47-31.56-15.47-31.56s-8.59 1.16-11.6 3.95c15.03 8.79 19.61 22.58 20.98 29.45-5.17-3.02-10.94-4.61-16.97-4.11-13.72 1.13-24.67 12.19-28.65 27.05zM538.64 729.02c1.82 2.32 10.29 13.5 14.59 26.12 1.93-.31 3.87-.48 5.81-.48.87 0 1.74.03 2.63.1 9 .69 17.42 4.84 23.99 11.69 6.55-6.76 14.78-10.84 23.8-11.58.94-.08 1.88-.12 2.82-.12.42 0 .83.01 1.24.02-2.6-3.75-6.26-7.49-11.43-10.51l-9.23-5.4 7.86-7.26c4.38-4.04 12.58-5.53 15.9-5.98l.4-.05c1.46-4.93 3.59-9.57 6.4-13.74-5.17-5.7-11.91-9.4-19.55-9.99-4.71-.35-9.27.55-13.52 2.39-2.06-14.99-15.47-31.56-15.47-31.56.01 0-8.58 1.16-11.6 3.95 15.03 8.79 19.6 22.58 20.98 29.45-5.17-3.02-10.94-4.61-16.97-4.11-13.72 1.13-24.67 12.19-28.65 27.05zM624.26 729.02c1.82 2.32 10.3 13.5 14.6 26.12 1.93-.31 3.87-.48 5.81-.48.87 0 1.74.03 2.62.1 9.01.69 17.42 4.84 24 11.69 6.55-6.76 14.78-10.84 23.8-11.58.95-.08 1.89-.12 2.83-.12.41 0 .83.01 1.24.02-2.6-3.75-6.26-7.49-11.43-10.51l-9.24-5.4 7.86-7.26c4.38-4.04 12.59-5.53 15.9-5.98l4.42-.59 2.8 3.46c.35.44 5.38 6.75 9.95 15.28 1.24-21.93-11.88-40.54-29.93-41.92-4.71-.35-9.27.55-13.52 2.39-2.06-14.99-15.47-31.56-15.47-31.56s-8.58 1.16-11.6 3.95c15.03 8.79 19.6 22.58 20.98 29.45-5.17-3.02-10.94-4.61-16.98-4.11-13.71 1.13-24.66 12.19-28.65 27.05z"/><path d="M167.91 806.63a35.4 35.4 0 0 1 5.81-.48c.87 0 1.74.03 2.62.1 9 .69 17.42 4.84 23.99 11.69 6.56-6.76 14.78-10.84 23.8-11.58.94-.08 1.89-.12 2.83-.12.41.01.83.01 1.24.02-2.6-3.75-6.26-7.48-11.43-10.51l-9.23-5.4 7.86-7.26c4.38-4.04 12.59-5.53 15.9-5.97l4.42-.6.02.02a48.1 48.1 0 0 1 2.36-3.9c-5.17-5.7-11.91-9.41-19.54-9.99-4.71-.36-9.27.54-13.52 2.39-2.06-15-15.47-31.56-15.47-31.56s-8.58 1.16-11.6 3.94c15.03 8.79 19.59 22.58 20.98 29.45-5.17-3.01-10.94-4.61-16.97-4.11-11.69.96-21.37 9.14-26.45 20.73 3.35 4.67 9.09 13.46 12.39 23.13zM241.15 783.5c3.35 4.67 9.09 13.46 12.38 23.13 1.93-.32 3.87-.48 5.81-.48.87 0 1.74.03 2.63.1 9 .69 17.42 4.84 23.99 11.69 6.55-6.76 14.78-10.84 23.8-11.58.95-.08 1.89-.12 2.82-.12.42.01.83.01 1.24.02-2.6-3.75-6.26-7.48-11.43-10.51l-9.24-5.4 7.87-7.26c4.38-4.04 12.58-5.53 15.9-5.97l4.42-.6.02.02a48.1 48.1 0 0 1 2.36-3.9c-5.17-5.7-11.91-9.41-19.54-9.99-4.71-.36-9.27.54-13.52 2.39-2.06-15-15.48-31.56-15.48-31.56.01 0-8.58 1.16-11.6 3.94 15.03 8.79 19.6 22.58 20.98 29.45-5.17-3.01-10.94-4.61-16.97-4.11-11.69.96-21.37 9.14-26.45 20.73zM326.78 783.5c3.35 4.67 9.09 13.46 12.38 23.13 1.93-.32 3.87-.48 5.81-.48.87 0 1.74.03 2.62.1 9.01.69 17.42 4.84 24 11.69 6.55-6.76 14.78-10.84 23.8-11.58.95-.08 1.89-.12 2.83-.12.41.01.83.01 1.24.02-2.6-3.75-6.26-7.48-11.43-10.51l-9.24-5.4 7.87-7.26c4.38-4.04 12.58-5.53 15.9-5.97l4.42-.6.02.02a48.1 48.1 0 0 1 2.36-3.9c-5.17-5.7-11.91-9.41-19.55-9.99-4.71-.36-9.27.54-13.52 2.39-2.06-15-15.47-31.56-15.47-31.56s-8.58 1.16-11.6 3.94c15.03 8.79 19.6 22.58 20.98 29.45-5.17-3.01-10.94-4.61-16.98-4.11-11.69.96-21.36 9.14-26.44 20.73zM412.41 783.5c3.35 4.67 9.08 13.46 12.38 23.13 1.93-.32 3.87-.48 5.81-.48.87 0 1.74.03 2.62.1 9.01.69 17.42 4.84 24 11.69 6.55-6.76 14.78-10.84 23.8-11.58.95-.08 1.89-.12 2.83-.12.41.01.83.01 1.24.02-2.6-3.75-6.26-7.48-11.43-10.51l-9.23-5.4 7.86-7.26c4.38-4.04 12.58-5.53 15.9-5.97l4.42-.6.01.02c.73-1.34 1.52-2.64 2.36-3.9-5.17-5.7-11.91-9.41-19.54-9.99-4.71-.36-9.27.54-13.52 2.39-2.06-15-15.47-31.56-15.47-31.56s-8.58 1.16-11.6 3.94c15.04 8.79 19.61 22.58 20.98 29.45-5.16-3.01-10.94-4.61-16.97-4.11-11.69.96-21.37 9.14-26.44 20.73zM498.03 783.5c3.35 4.67 9.09 13.46 12.39 23.13a35.31 35.31 0 0 1 8.44-.38c9 .69 17.42 4.84 23.99 11.69 6.55-6.76 14.78-10.84 23.8-11.58.94-.08 1.89-.12 2.83-.12.41.01.83.01 1.24.02-2.6-3.75-6.26-7.48-11.43-10.51l-9.23-5.4 7.86-7.26c4.38-4.04 12.58-5.53 15.9-5.97l4.42-.6.02.02a48.1 48.1 0 0 1 2.36-3.9c-5.17-5.7-11.91-9.41-19.54-9.99-4.71-.36-9.27.54-13.52 2.39-2.06-15-15.48-31.56-15.48-31.56.01 0-8.58 1.16-11.6 3.94 15.03 8.79 19.6 22.58 20.98 29.45-5.17-3.01-10.94-4.61-16.97-4.11-11.69.96-21.37 9.14-26.45 20.73zM583.66 783.5c3.35 4.67 9.09 13.46 12.38 23.13 1.93-.32 3.87-.48 5.81-.48.87 0 1.74.03 2.62.1 9.01.69 17.42 4.84 24 11.69 6.55-6.76 14.78-10.84 23.8-11.58.94-.08 1.88-.12 2.82-.12.42.01.83.01 1.24.02-2.6-3.75-6.26-7.48-11.43-10.51l-9.24-5.4 7.87-7.26c4.38-4.04 12.58-5.53 15.9-5.97l4.42-.6.02.02a48.1 48.1 0 0 1 2.36-3.9c-5.17-5.7-11.91-9.41-19.54-9.99-4.71-.36-9.27.54-13.53 2.39-2.06-15-15.47-31.56-15.47-31.56s-8.58 1.16-11.6 3.94c15.03 8.79 19.6 22.58 20.98 29.45-5.17-3.01-10.94-4.61-16.98-4.11-11.69.96-21.36 9.14-26.44 20.73zM703.32 733.49s-8.58 1.16-11.6 3.94c15.03 8.79 19.6 22.58 20.98 29.45-5.17-3.01-10.94-4.61-16.97-4.11-11.69.96-21.37 9.14-26.45 20.73 3.35 4.67 9.09 13.46 12.39 23.13a35.4 35.4 0 0 1 5.81-.48c.87 0 1.74.03 2.62.1 9.01.69 17.42 4.84 23.99 11.69 6.56-6.76 14.78-10.84 23.8-11.58.95-.08 1.89-.12 2.83-.12.41.01.83.01 1.24.02-2.6-3.75-6.26-7.48-11.42-10.51l-9.24-5.4 7.86-7.26c4.38-4.04 12.59-5.53 15.9-5.97l4.42-.6 2.8 3.46c.34.42 5.07 6.37 9.52 14.49-2.59-17.29-14.3-30.66-29.49-31.83-4.71-.36-9.27.54-13.52 2.39-2.06-15-15.47-31.56-15.47-31.56z"/><path d="M186.77 858.59c-1.03-12.56 2-24.77 8.52-34.45-5.17-5.7-11.91-9.41-19.54-9.99-4.71-.36-9.27.54-13.52 2.39-2.06-15-15.47-31.57-15.47-31.57 0 .01-8.58 1.16-11.6 3.95 15.03 8.79 19.6 22.58 20.98 29.45-5.16-3.01-10.94-4.61-16.97-4.11-18.49 1.52-31.98 21.08-30.12 43.69.47 5.72 1.88 11.08 4.02 15.88h77.15a56.538 56.538 0 0 1-3.43-15.23zM272.4 858.59c-1.03-12.56 2-24.77 8.52-34.45-5.17-5.7-11.91-9.41-19.54-9.99-4.71-.36-9.27.54-13.52 2.39-2.06-15-15.47-31.57-15.47-31.57 0 .01-8.58 1.16-11.6 3.95 15.04 8.79 19.6 22.58 20.98 29.45-5.17-3.01-10.94-4.61-16.97-4.11-18.49 1.52-31.98 21.08-30.12 43.69.47 5.72 1.88 11.08 4.02 15.88h77.14a56.538 56.538 0 0 1-3.43-15.23zM358.02 858.59c-1.03-12.56 2-24.77 8.52-34.45-5.17-5.7-11.91-9.41-19.54-9.99-4.71-.36-9.27.54-13.53 2.39-2.06-15-15.47-31.57-15.47-31.57 0 .01-8.58 1.16-11.6 3.95 15.03 8.79 19.6 22.58 20.98 29.45-5.17-3.01-10.94-4.61-16.97-4.11-18.5 1.52-31.98 21.08-30.12 43.69.47 5.72 1.88 11.08 4.02 15.88h77.15a56.538 56.538 0 0 1-3.43-15.23zM443.65 858.59c-1.03-12.56 2-24.77 8.52-34.45-5.17-5.7-11.9-9.41-19.54-9.99-4.71-.36-9.27.54-13.52 2.39-2.06-15-15.47-31.57-15.47-31.57 0 .01-8.58 1.16-11.6 3.95 15.03 8.79 19.6 22.58 20.98 29.45-5.16-3.01-10.94-4.61-16.97-4.11-18.49 1.52-31.98 21.08-30.12 43.69.47 5.72 1.88 11.08 4.02 15.88h77.15a56.538 56.538 0 0 1-3.43-15.23zM529.28 858.59c-1.03-12.56 2-24.77 8.52-34.45-5.17-5.7-11.91-9.41-19.54-9.99-4.71-.36-9.27.54-13.52 2.39-2.06-15-15.47-31.57-15.47-31.57 0 .01-8.59 1.16-11.6 3.95 15.03 8.79 19.61 22.58 20.98 29.45-5.17-3.01-10.94-4.61-16.97-4.11-18.49 1.52-31.98 21.08-30.12 43.69.47 5.72 1.88 11.08 4.02 15.88h77.16c-1.78-4.75-3-9.86-3.43-15.23zM614.9 858.59c-1.03-12.56 2-24.77 8.52-34.45-5.17-5.7-11.91-9.41-19.55-9.99-4.71-.36-9.27.54-13.52 2.39-2.06-15-15.47-31.57-15.47-31.57.01.01-8.58 1.16-11.6 3.95 15.03 8.79 19.6 22.58 20.98 29.45-5.17-3.01-10.94-4.61-16.97-4.11-18.5 1.52-31.98 21.08-30.12 43.69.47 5.72 1.88 11.08 4.02 15.88h77.15a56.538 56.538 0 0 1-3.43-15.23zM700.53 858.59c-1.03-12.56 2-24.77 8.52-34.45-5.17-5.7-11.91-9.41-19.55-9.99-4.71-.36-9.27.54-13.52 2.39-2.06-15-15.47-31.57-15.47-31.57 0 .01-8.58 1.16-11.6 3.95 15.03 8.79 19.6 22.58 20.98 29.45-5.17-3.01-10.94-4.61-16.98-4.11-18.49 1.52-31.98 21.08-30.12 43.69.46 5.72 1.88 11.08 4.02 15.88h77.15a56.538 56.538 0 0 1-3.43-15.23zM761.61 816.55c-2.06-15-15.47-31.57-15.47-31.57 0 .01-8.58 1.16-11.6 3.95 15.03 8.79 19.6 22.58 20.98 29.45-5.17-3.01-10.94-4.61-16.97-4.11-18.49 1.52-31.98 21.08-30.12 43.69.47 5.72 1.88 11.08 4.02 15.88h88.29c2.24-4.88 3.74-10.34 4.25-16.17 2-22.62-11.37-42.09-29.84-43.51-4.71-.36-9.27.54-13.52 2.39zM880.28 683.05h-35.64v190.77h35.64zM212.6 1107.18H93.78v372.28H212.6zM1620.56 1107.18h-118.82v372.28h118.82zM21.62 892.96v188.14h1679.35V892.96zM1947.05 1442.14c0 30.3 24.56 54.85 54.85 54.85 30.29 0 54.85-24.56 54.85-54.85l.01-271.31c-42.02-.52-78.65-4.51-109.71-10.09v281.4zM2075.05 1442.14c0 30.3 24.55 54.85 54.85 54.85 30.28 0 54.85-24.56 54.85-54.85v-281.4c-31.07 5.58-67.69 9.57-109.71 10.08v271.32z"/></g></svg>