<svg xmlns="http://www.w3.org/2000/svg" xml:space="preserve" viewBox="0 0 655.97 542.07" shape-rendering="geometricPrecision" text-rendering="geometricPrecision" image-rendering="optimizeQuality" fill-rule="evenodd" clip-rule="evenodd"><g fill="currentColor"><path d="M179.65 134.89c-10.01-6.41-17.88-8.98-18.92-9.33-.77-.24-1.54-.42-2.31-.56-1.68-.54-3.46-.84-5.31-.84H66.53c-1.86 0-3.65.3-5.32.84-.77.14-1.54.31-2.3.55v-.01c-1.37.49-14.97 4.82-29.43 17.13-7.19 6.17-14.6 14.46-20.22 25.3-5.62 10.8-9.28 24.15-9.26 39.41.01 21.18 6.8 45.65 22.87 74.07 2.43 4.29 6.36 7.19 10.76 8.42v51.48h15.59v172.99c0 15.3 12.41 27.7 27.71 27.7s27.71-12.4 27.71-27.7V341.35h10.39v172.99c0 15.3 12.41 27.7 27.7 27.7 15.3 0 27.71-12.4 27.71-27.7V341.35h15.58v-51.48c4.4-1.24 8.33-4.13 10.76-8.42 16.06-28.42 22.86-52.89 22.87-74.07.02-15.26-3.64-28.61-9.27-39.41-8.46-16.29-20.78-26.7-30.72-33.1zm-2.6 197.52H42.59V162.1h134.46v170.31zM109.82 111.4c27.85 0 50.42-22.57 50.42-50.42s-22.57-50.42-50.42-50.42S59.4 33.13 59.4 60.98s22.57 50.42 50.42 50.42zM589.97 1.68c-8.97-4.19-19.64-.31-23.82 8.67-.32.67-.66 1.31-.98 1.98h-61.58v75.63a230.783 230.783 0 0 1-21.66 14.77c-14.35 8.62-27.37 14.33-36.65 17.82-4.51 1.7-8.12 2.87-10.58 3.61h-85.42c-1.9 0-3.73.32-5.44.89-3.8.54-8.58 1.78-13.78 4.4-12.06 5.97-25.05 19.06-34.14 42.22-9.2 23.26-15.38 56.89-15.41 107.66 0 13.13.42 27.4 1.34 42.94.56 9.52 8.46 16.88 17.88 16.88.35 0 .7-.01 1.06-.03 9.88-.58 17.43-9.06 16.84-18.95-.87-14.91-1.28-28.48-1.28-40.84-.07-54.25 7.84-84.74 15.61-100.65v335.68c0 15.3 12.41 27.7 27.7 27.7 15.3 0 27.71-12.4 27.71-27.7v-202.3h10.39v202.3c0 15.3 12.41 27.7 27.7 27.7 15.3 0 27.71-12.4 27.71-27.7V155.83c11.17-3.92 28.11-10.9 47.23-22.37 1.06-.63 2.13-1.32 3.2-1.98v69.09h152.38V12.33h-56.57c-1.5-4.53-4.77-8.47-9.43-10.65zM647 21.29V191.6H512.54V21.29H647z"/><path d="M392.55 111.4c27.85 0 50.42-22.57 50.42-50.42s-22.58-50.42-50.42-50.42c-27.85 0-50.42 22.57-50.42 50.42s22.57 50.42 50.42 50.42z"/></g></svg>