<svg xmlns="http://www.w3.org/2000/svg" xml:space="preserve" viewBox="0 0 740.31 477.8" shape-rendering="geometricPrecision" text-rendering="geometricPrecision" image-rendering="optimizeQuality" fill-rule="evenodd" clip-rule="evenodd"><g fill="currentColor"><path d="M243.15 329.03c-.05.56-.09 1.12-.09 1.69v6.13h11.37c-3.89-2.58-7.66-5.19-11.28-7.82zM313.94 336.68c-.04.06-.08.11-.12.17h64.12v-6.13c0-10.16-8.24-18.39-18.39-18.39h-42.86c.11.37.25.72.35 1.09 2.11 7.91 1 16.18-3.1 23.26zM520.47 330.72c0-10.16-8.24-18.39-18.39-18.39h-98.09c-10.16 0-18.39 8.24-18.39 18.39v6.13h134.88v-6.13z"/><path d="M385.6 342.98h-76.53c-5.69 5.66-13.47 8.98-21.69 8.98a30.61 30.61 0 0 1-15.34-4.13c-2.76-1.59-5.39-3.22-8.03-4.85h-39.34v104.73c0 10.16 8.24 18.39 18.39 18.39h294.27c10.16 0 18.39-8.23 18.39-18.39v-74.6c8.12 3.51 17.82.75 22.76-6.94L737.4 118.5c5.49-8.54 3.01-19.92-5.55-25.41l-27.51-17.66-171.68 267.54H385.59zM302.65 117.93c27.05-26.81 27.24-70.46.43-97.51-26.81-27.05-70.47-27.25-97.51-.44-27.05 26.8-27.24 70.47-.44 97.51 26.81 27.05 70.47 27.25 97.52.44z"/><path d="M276.04 342.98c3.62 1.9 7.5 2.86 11.35 2.86 3.99 0 7.91-1.01 11.43-2.86 2.84-1.49 5.41-3.55 7.52-6.13.83-1.01 1.61-2.08 2.29-3.25 3.91-6.74 4.23-14.55 1.58-21.28-1.96-4.97-5.52-9.35-10.51-12.23-27.87-16.18-48.32-34-63.43-51.2-11.46-13.04-19.87-25.72-26.08-37.05-2.03-3.71-3.79-7.25-5.36-10.63-3.99-8.57-6.61-15.97-8.28-21.53-1.16-3.88-1.86-6.88-2.26-8.76-.19-.94-.32-1.61-.37-1.97-.02-.13-.04-.22-.04-.27-1.55-11.26-10.53-19.66-21.33-20.97-2.01-.24-4.08-.27-6.18.01-13.43 1.78-22.87 14.11-21.09 27.53v-.01c.3 2.21 3.85 27.06 21.87 60.1.52.95 1.09 1.93 1.63 2.89 14.68 26.09 38.53 56.79 76.12 84.51 6.51 4.8 13.44 9.51 20.8 14.09 3.07 1.91 6.2 3.81 9.42 5.68.3.17.62.29.92.45z"/><path d="M200.38 291.41a38.358 38.358 0 0 0-22.2-6.73l-57.62.77c13.88-15.41 29.32-29.71 43.59-42.92-.82-1.43-1.64-2.87-2.39-4.24-17.82-32.66-21.91-57.55-22.56-62.2-1.08-8.14 1.07-16.19 6.05-22.69 4.98-6.5 12.19-10.67 20.31-11.74 1.34-.18 2.71-.27 4.06-.27 2.37 0 4.68.31 6.91.83 12.09 2.84 21.66 12.9 23.41 25.64.07.46.18 1.02.35 1.82.36 1.71 1.02 4.54 2.14 8.25 1.28 4.29 3.28 10.11 6.27 16.97 1.88 4.3 4.14 9.01 6.87 14.01 10.51 19.17 24.32 36.65 41.26 52.29 17.91 9.22 39.09 16.55 63.84 20.19 1.23.18 2.45.27 3.65.27 11.94 0 22.4-8.74 24.22-20.91 2-13.39-7.24-25.87-20.63-27.87-45.14-6.86-71.87-27.48-88.72-46.57-8.34-9.55-13.97-18.72-17.41-25.3-1.72-3.29-2.9-5.92-3.59-7.61-.35-.84-.58-1.44-.7-1.77-.05-.13-.08-.21-.1-.25-1.22-3.61-3.23-6.73-5.73-9.29-1.15-1.79-2.42-3.52-3.93-5.1-18.68-19.45-58.37-27.6-95.31 2.19-50.57 41.25-75.78 72.95-105.31 134.83-18.14 46.89 1.36 63.27 25.33 77.92 1.6.98 3.13 1.91 4.62 2.79 3.74 2.94 8.04 5.21 12.71 6.59 3.71 1.41 7.11 2.02 10.42 1.54.34.01.67.04 1.01.04l44.19-.6-38 55.54c-11.95 17.46-7.48 41.31 9.98 53.26 6.62 4.53 14.15 6.7 21.61 6.7 12.22 0 24.23-5.83 31.66-16.68l-.01-.01 79.7-116.48c8.07-11.81 8.9-27.14 2.14-39.74-.6-1.13-1.28-2.21-1.99-3.26a38.223 38.223 0 0 0-10.1-10.22z"/></g></svg>