<svg xmlns="http://www.w3.org/2000/svg" xml:space="preserve" viewBox="0 0 99.56 220.75" shape-rendering="geometricPrecision" text-rendering="geometricPrecision" image-rendering="optimizeQuality" fill-rule="evenodd" clip-rule="evenodd"><g fill="currentColor"><path d="M43.31 90.95a9.994 9.994 0 0 1 5.67-1.76c2.11 0 4.06.65 5.68 1.76 1.07-1.52 2.07-3.41 2.96-5.51 2.23-5.3 3.68-11.96 3.9-17.71H36.43c.3 8.04 3.11 17.87 6.88 23.22z"/><path d="M26.79 78.64v131.97c0 5.6 4.54 10.15 10.15 10.15 5.6 0 10.15-4.54 10.15-10.15v-74.07h3.8v74.07c0 5.6 4.54 10.15 10.14 10.15 5.6 0 10.15-4.54 10.15-10.15v-92.55c-1.16-2.45-3.3-3.37-7.51-3.82l-1.47-.16v-3.67l1.47-.16c4.21-.45 6.35-1.37 7.51-3.82V78.66c3.02-1.92 7.1-5.44 10.89-11.64 6.56-10.68 12.38-28.88 12.38-60.43 0-3.63-2.94-6.56-6.56-6.56-3.63 0-6.56 2.94-6.56 6.56.01 29.99-5.59 45.7-10.44 53.55-2.43 3.94-4.67 5.97-6.11 7.02-.3.22-.56.38-.79.52-.33 8.65-3.15 18.91-7.49 24.93 1.57 1.77 2.54 4.1 2.54 6.65 0 5.54-4.51 10.05-10.05 10.05-5.54 0-10.05-4.51-10.05-10.05 0-2.55.96-4.87 2.53-6.64-1.27-1.76-2.39-3.87-3.38-6.21-2.37-5.67-3.88-12.6-4.1-18.73-.43-.26-1-.65-1.68-1.23-2.4-2.04-6.22-6.36-9.56-15.56-3.33-9.19-6.09-23.24-6.09-44.31 0-3.62-2.94-6.56-6.56-6.56-3.63 0-6.56 2.94-6.56 6.56 0 31.56 5.82 49.75 12.38 60.43 3.79 6.2 7.87 9.72 10.89 11.64z"/><path d="M37.63 58.32a18.35 18.35 0 0 0 11.35 3.91c4.28 0 8.22-1.46 11.35-3.91.68-.53 1.33-1.11 1.93-1.74a18.38 18.38 0 0 0 5.18-12.82c0-10.2-8.27-18.46-18.46-18.46-10.2 0-18.46 8.27-18.46 18.46 0 4.98 1.98 9.5 5.18 12.82.6.62 1.25 1.2 1.93 1.74zM40.57 99.24a8.41 8.41 0 1 0 16.82 0 8.41 8.41 0 0 0-8.41-8.41 8.41 8.41 0 0 0-8.41 8.41zm12.72 0c0 2.37-1.93 4.31-4.31 4.31a4.31 4.31 0 1 1 4.31-4.31zM89.46 74.82h-.73c-.76 7.03-3.07 9.34-10.1 10.1v.73c7.03.75 9.34 3.07 10.1 10.1h.73c.76-7.03 3.07-9.34 10.1-10.09v-.73c-7.03-.75-9.34-3.07-10.1-10.09zM10.1 107.37h.73c.76-7.03 3.07-9.34 10.1-10.09v-.73c-7.03-.76-9.34-3.07-10.1-10.1h-.73c-.76 7.03-3.07 9.34-10.1 10.1v.73c7.03.75 9.34 3.07 10.1 10.09zM63.83 111.87v.73c7.03.76 9.34 3.07 10.1 10.1h.73c.76-7.03 3.07-9.34 10.1-10.1v-.73c-7.03-.76-9.34-3.07-10.1-10.1h-.73c-.76 7.03-3.07 9.34-10.1 10.1z"/></g></svg>