<svg xmlns="http://www.w3.org/2000/svg" xml:space="preserve" viewBox="0 0 1261.12 1080.22" shape-rendering="geometricPrecision" text-rendering="geometricPrecision" image-rendering="optimizeQuality" fill-rule="evenodd" clip-rule="evenodd"><g fill="currentColor"><path d="M387.53 466.38h267.2v-16.34h-267.2z"/><path d="M878.16 234.14H703.19c-3.72 0-7.29.59-10.65 1.66-12.64 2.19-52.07 9.82-101.33 27.5-58.91 21.3-132.27 56.67-189.37 117.33-13.69 14.59-12.95 37.53 1.66 51.22 6.99 6.55 15.89 9.79 24.77 9.79 9.67 0 19.3-3.84 26.44-11.45 44.8-48.03 108.42-79.92 161.01-98.69a599.57 599.57 0 0 1 52.46-16.18v151.06h93.87l18.37-135.39c5.87 2.2 12.06 3.35 18.23 3.35h.04c6.18 0 12.34-1.16 18.21-3.35l18.38 135.39h77.88V321.93c2.59 1.61 5.17 3.38 7.68 5.31 9.87 7.51 18.95 17.18 25.88 30.51 6.88 13.37 11.9 30.75 11.95 55.33.01 14.97-1.99 32.67-6.83 53.29h54.61v68.82c.3-.68.66-1.32.92-2.03 16.46-45.84 23.76-85.44 23.77-120.08.07-37.13-8.65-68.57-22.61-93.37-20.99-37.44-52.24-58.59-77.06-70.08-20.2-9.34-36.74-12.9-43.65-14.11-3.07-.88-6.29-1.38-9.65-1.38zm-54.99 77.73a38.27 38.27 0 0 1-24.51 8.89c-8.73-.01-17.41-2.97-24.49-8.86l-1.32-2.09 8.61-33.97h34.41l8.61 33.97-1.31 2.07zM790.67 203.8c56.28 0 101.9-45.62 101.9-101.9C892.57 45.63 846.94 0 790.67 0s-101.9 45.63-101.9 101.9 45.63 101.9 101.9 101.9zM254.68 467.2l8 7.53 7.86-8.35L647.48 65.74l-47.59-44.77-193.11 205.25-15.5-14.58-167.42 177.94 15.5 14.58-24.27 25.79z"/><path d="M263.73 776.33v256.79h43.76v47.11h646.12v-47.11h43.77V776.33l9.06-3.87 254.68-108.9-12.95-17.62-241.72 59.34-9.06 2.22V475.44H263.74v158.33l-9.06-2.59L63.1 576.37l-3.74 13.06 195.32 55.88 9.06 2.59v12.66l-9.06-2.59L63.1 603.16l-3.74 13.06 195.32 55.88 9.06 2.59v12.66l-9.06-2.59L63.1 629.94l-3.74 13.07 195.32 55.88 9.06 2.59v6.01l-9.06-2.22-241.72-59.34L.01 663.55l254.68 108.9 9.06 3.87zm44.52-262.11h82.3v88.96h-82.3v-88.96z"/></g></svg>