<svg xmlns="http://www.w3.org/2000/svg" xml:space="preserve" viewBox="0 0 15478.76 11653.52" shape-rendering="geometricPrecision" text-rendering="geometricPrecision" image-rendering="optimizeQuality" fill-rule="evenodd" clip-rule="evenodd"><g fill="currentColor"><path d="M11213.92 9439.49c-70.24-48.51-146.43-90.5-228.62-124.18-571.64-234.5-1219.15 2.49-1511.43 530.16l63.98 165.28 1676.07-571.26zM10070.06 11546.08c616 252.84 1320.2-41.74 1572.92-657.74 63.27-154.22 92.23-314.01 90.44-470.85l-2168.27 739.1c125.97 167.39 297.07 304.23 504.92 389.49zM8377.05 8526.35c63.4-24.54 129.74-37.01 197.3-37.01 224.02.06 428.93 140.42 509.9 349.42l257.96 666.56c51.58-73.18 87.31-155.44 102.33-245.88 77.34-465.16-223.19-1106.47-1026.97-1313.17-1106.79-277.39-1814.58-299.63-2990.4-66.73-846.86 235.91-888.08 832.54-842.77 1321.61 24.03 259.17 54.9 441.07 189.12 539.5 33.62 44.93 72.8 86.79 118.75 123.35l387.96 308.64-1486.89 144.13c-368.27 35.66-637.92 363.09-602.26 731.37 33.62 346.35 325.19 605.39 666.11 605.39 21.6.06 43.4-1.02 65.38-3.13l3135.35-303.78c271.7-26.33 500.25-214.88 577.78-476.67 77.46-261.73-11.63-544.42-225.23-714.43l-539.24-429.12c484.27 29.59 950.14 95.1 1331.64 138.63 37.39 7.61 75.1 13.36 112.94 17.58l-251.24-649.04c-108.85-281.16 31.38-598.42 312.47-707.21z"/><path d="M9217.51 11126.36c45.95 0 92.55-7.41 138.37-23.01l2358.23-803.84c224.08-76.38 343.92-320.02 267.48-544.16-76.38-224.15-320.08-343.79-544.16-267.48l-1968.67 671.03-494.5-1277.51c-85.52-220.82-333.69-330.56-554.64-245.11-220.82 85.52-330.56 333.82-245.11 554.64l643.16 1661.37c65.58 169.37 227.47 274.06 399.84 274.06zM558.73 5843.06c184.97 485.87 850.31 2521.85 12.4 4784.26-128.53 347.05 48.57 732.45 395.56 860.92 76.7 28.44 155.25 41.93 232.58 41.93 272.27 0 528.25-167.2 628.34-437.43 794.58-2145.39 475.84-4085.18 182.92-5123.2l1478.71-402.78 1439.08 1626.48c132.43 149.69 316.76 226.06 502.04 226 157.74 0 316.18-55.41 443.63-168.16 277.13-245.17 303.02-668.6 57.84-945.73L4216.77 4366.97c-169.05-190.97-431.87-269.46-677.87-202.48l-1436.14 391.22c221.65-457.56 496.48-891.66 735.78-1264.79l-660.04-341.68c-129.68-67.11-225.42-180.68-269.65-319.89-44.23-139.14-31.64-287.23 35.47-416.91 94.4-182.22 280.58-295.47 485.87-295.47 86.73 0 173.53 21.22 250.99 61.36l606.29 313.88c15.72-272.98-67.24-527.29-270.8-670.77-385.34-271.83-1093.56-279.88-1628.91 354.27C656.84 2851.9 329.35 3479.73 28.12 4639.95c-122.65 681.96 174.1 1010.41 530.61 1203.11zM3701.12 2158.62c526.2 408.22 1283.71 312.54 1691.92-213.66 408.28-526.33 312.6-1283.84-213.73-1692.05C4653.17-155.24 3895.6-59.56 3487.32 466.57c-408.22 526.27-312.41 1283.84 213.79 1692.05z"/><path d="M2049.07 2266.7c-108.91 210.28-26.65 469 183.62 577.84l1605.45 831.13a428.82 428.82 0 0 0 197.11 48c55.92 0 111.98-10.93 164.83-32.98l1957.61-815.41c218.59-91.01 322-342.07 230.92-560.65-91.08-218.65-342.26-322.06-560.65-230.92l-1773.1 738.52L2626.9 2083c-210.28-108.91-468.94-26.65-577.84 183.69zM13049.46 1917.03c101.62 0 201.14 28.44 287.8 82.32 256.04 158.83 335.1 496.55 176.21 752.65l-601.62 969.57c183.43 298.29 368.02 621.11 520.83 954.49l-1017.89-153.52-52.98 85.39c-84.62 136.39-224.21 228.36-382.97 252.33l-852.23 128.59-802.18 2790.22c-102.26 355.62 103.16 726.76 458.77 829.03 61.87 17.7 124.12 26.2 185.41 26.2 291.13 0 559.12-191.23 643.55-485.04l659.33-2293.29 1178.89 177.87c-287.48 1052.47-577.78 2956.91 200.75 5058.9 100.09 270.23 356.06 437.43 628.34 437.43 77.27 0 155.89-13.49 232.58-41.93 346.99-128.47 524.09-513.93 395.56-860.92-837.97-2262.61-172.5-4298.58 12.4-4784.26 356.51-192.7 653.26-521.15 530.61-1203.11-301.23-1160.23-628.72-1788.05-1359.64-2664.24-535.34-634.15-1243.57-626.1-1628.91-354.27-297.9 209.96-338.74 656.59-187.08 1052.72l309.41-498.66c100.47-161.83 274.25-258.47 465.04-258.47zM10085.72 1944.96c408.22 526.2 1165.72 621.88 1691.99 213.66 526.14-408.22 621.94-1165.79 213.73-1692.05-408.28-526.14-1165.85-621.82-1691.99-213.66-526.33 408.22-622.01 1165.72-213.73 1692.05z"/><path d="M9579.65 4669.48c32.02 212.45 214.88 364.82 423.43 364.82 21.22 0 42.76-1.6 64.49-4.86l1893.7-285.76c124.31-18.79 234.12-91.14 300.33-197.94l1151.73-1855.86c124.82-201.2 62.96-465.55-138.31-590.37-201.01-124.89-465.48-63.02-590.37 138.18l-1047.23 1687.58-1697.87 256.23c-234.12 35.34-395.24 253.8-359.9 487.98zM6559.28 7017.28l898.5-1836.18-325.58-123.6-755.27 1933.83zM12674.74 7260.73l-1311.83 1609.16 165.53 80.66 1418.25-1472.19zM9933.35 8630.98l151.03-105.4-596-1955.37L9166 6701.8zM6044.2 3859.94l117.47 2072.73 176.59-52.16L6391.7 3837zM4810.79 7625.17l-1695.7-1141.76-167.13 305.57 1812.08 1013.16zM4489.11 8604.52c25.5-15.02 34-47.87 18.98-73.37-14.96-25.57-47.74-34.07-73.31-19.05-109.68 64.43-177.17 147.64-200.69 247.22-36.3 153.78 48.77 287.42 52.41 292.98 10.23 15.85 27.36 24.42 44.87 24.42 9.97 0 20.01-2.75 29.02-8.5 24.8-15.98 32.02-49.09 16.17-74.01-.64-1.02-64.11-102.39-37.9-211.17 16.75-69.6 67.37-129.68 150.45-178.51z"/><path d="M4344.28 8414.05c26.08-14 35.86-46.47 21.86-72.54-14.06-26.08-46.53-35.92-72.54-21.86-166.94 89.67-272.53 208.68-313.88 353.7-63.02 220.69 48.32 418.19 53.11 426.43 9.91 17.26 27.93 26.91 46.47 26.91 9.08 0 18.28-2.3 26.65-7.09 25.69-14.76 34.51-47.55 19.75-73.18-.96-1.66-93.63-166.05-42.95-343.66 33.11-116.07 121.12-213.22 261.54-288.7zM8224.49 7639.42c-155.76-27.55-284.16 64.94-289.59 68.9-23.78 17.45-28.95 50.75-11.57 74.65 17.26 23.9 50.75 29.21 74.72 11.95 1.02-.7 98.49-69.99 208.68-49.79 70.5 12.78 133.32 59.95 186.82 140.1 10.35 15.47 27.29 23.84 44.68 23.84 10.16 0 20.52-2.88 29.66-8.95 24.61-16.43 31.25-49.72 14.83-74.33-70.56-105.84-157.42-168.54-258.21-186.37z"/><path d="M8621.2 7755.49c9.52 0 19.24-2.56 27.93-7.93 25.25-15.47 33.17-48.51 17.7-73.69-98.94-161.57-223.76-260.26-370.96-293.36-223.83-50.24-414.74 72.03-422.73 77.27-24.8 16.17-31.77 49.41-15.59 74.14 16.17 24.8 49.34 31.77 74.2 15.59 1.6-1.02 160.36-102.84 340.66-62.44 117.79 26.52 219.74 108.91 303.02 244.79 10.1 16.55 27.74 25.63 45.76 25.63zM4846.13 4343.64c-130.13-89.73-285.5-58.93-292.09-57.65-28.89 6.01-47.42 34.19-41.54 63.15 5.82 28.89 34.07 47.81 63.02 41.86 1.09-.13 118.62-22.5 210.53 41.42 58.8 40.9 96.38 109.87 111.72 205.04 4.28 26.27 27.04 45.06 52.86 45.06 2.81 0 5.69-.26 8.63-.7 29.21-4.73 49.09-32.28 44.36-61.42-20.26-125.59-73.25-218.65-157.48-276.75z"/><path d="M5180.91 4618.79c2.17 0 4.35-.13 6.58-.45 29.4-3.52 50.3-30.3 46.72-59.63-22.95-188.1-95.49-329.73-215.58-420.94-182.79-138.82-407.26-106.8-416.65-105.33-29.34 4.41-49.47 31.77-45 60.97 4.41 29.34 31.96 49.6 60.97 45 1.92-.38 188.74-26.97 335.8 84.69 96.19 73.05 154.74 190.34 174.04 348.59 3.32 27.16 26.4 47.1 53.11 47.1zM10643.94 6045.09c24.67-16.36 31.45-49.6 15.08-74.27-16.36-24.67-49.6-31.45-74.27-15.08-106.03 70.18-168.99 156.84-187.2 257.57-28.06 155.5 63.98 284.35 67.88 289.78 10.55 14.44 26.91 22.11 43.46 22.11 10.93 0 21.92-3.32 31.45-10.29 23.97-17.38 29.27-50.88 11.82-74.84-.7-.96-68.84-98.56-49.15-207.72 12.78-70.82 60.21-133.84 140.93-187.27z"/><path d="M10433.47 5771.03c-161.89 98.49-260.96 222.93-294.58 369.93-51.13 223.76 70.62 415.06 75.8 423.05 10.29 15.85 27.48 24.48 45 24.48 10.03 0 20.13-2.81 29.14-8.63 24.8-16.11 31.89-49.28 15.79-74.14-1.02-1.6-102.39-160.81-61.23-340.85 26.91-117.73 109.61-219.42 245.75-302.25 25.31-15.34 33.36-48.32 17.96-73.63-15.34-25.25-48.32-33.3-73.63-17.96z"/></g></svg>