<svg xmlns="http://www.w3.org/2000/svg" xml:space="preserve" viewBox="0 0 2057.96 2387.61" shape-rendering="geometricPrecision" text-rendering="geometricPrecision" image-rendering="optimizeQuality" fill-rule="evenodd" clip-rule="evenodd"><g fill="currentColor"><path d="m1156.75 1891.45-24.39-277.41-318.77-67.89a192.674 192.674 0 0 1-44.54-15.41 192.105 192.105 0 0 1-44.55 15.41l-224.3 47.76c-4.46 22.82-14.8 44.14-30.66 61.97-18.94 21.28-43.72 35.4-71.1 41.12l-37.24 423.59v149.95h836.09v-319.66c-24.24-14.4-38.35-34.43-40.55-59.44zM240.06 1576.18c-5.87-100.25-9.39-194.66-10.73-283.48l-37.48 7.98c-67.19 14.32-117.18 70.81-123.2 139.25L.58 2214.32c-7.55 86.02 56.04 161.88 142.08 169.44 4.65.42 9.28.61 13.86.61 80.18 0 148.44-61.31 155.59-142.69l47.68-542.27c-64.26-5.58-115.9-57.67-119.74-123.25zM845.65 574.41c158.63 0 287.2-128.57 287.2-287.2C1132.85 128.59 1004.29 0 845.65 0 687.04 0 558.44 128.59 558.44 287.21c0 158.62 128.6 287.2 287.21 287.2zm155.57-132.29c-3.56-2.26-88.86-54.2-246.78 54l-21.63-31.59c180.9-123.97 285.14-57.3 289.49-54.39l-21.08 31.97z"/><path d="M1997.98 110.92c-31.84 4.67-123.64 16.77-165.54 16.77-41.88 0-133.7-12.12-165.54-16.77-27.97-4.11-54.4 11.78-59.22 35.47-4.81 23.69 13.89 46.2 41.78 50.29 1.56.23 14.2 2.07 32.63 4.5v581.03l-282.95-10.62-261.98-361.04C1088.98 524 976.46 603.77 845.63 603.77c-155.54 0-285.14-112.79-311.55-260.84h-11.62c-23.54 0-45.13 8.26-62.08 22.02-40.23 26.34-91.92 84.83-132.42 214.22-10.95 35-20.6 73.62-28.98 115.67-41.63 208.69-51.63 503.62-29.64 879.62 3.19 54.28 48.18 96.17 101.84 96.16 2.01 0 4.04-.05 6.06-.17 56.31-3.29 99.27-51.61 95.98-107.9-25.11-429.36-2.85-683.32 27.1-831.4l29.03 5.23c-29 142.97-51.7 392.26-27.17 817.96l214.33-45.64c19.3-4.1 36.9-11.75 52.52-21.9 15.62 10.15 33.21 17.8 52.52 21.9l346.45 73.79 26.87 305.62c7.15 81.37 319.1 58.64 311.53-27.39l-37-420.79c-6.02-68.43-56.01-124.93-123.2-139.24l-231.95-49.4V726.77l148.74 204.98a102.023 102.023 0 0 0 78.83 42.07l340.25 12.76v526.95l106.77 190.01v523.09h87.13v-523.09l106.77-190.01V201.19c18.43-2.43 31.07-4.27 32.63-4.5 27.91-4.09 46.61-26.6 41.78-50.29-4.81-23.69-31.32-39.58-59.22-35.47zm-165.54 1569.09-99.09-176.33v-378.02h198.18v378.02l-99.09 176.33zm99.09-619.63h-198.18v-85.34c31.38-16.43 53.34-48.75 54.76-86.68 1.53-40.64-20.98-76.53-54.76-94.23V207.42c34.65 3.87 72.75 7.3 99.09 7.3 26.36 0 64.45-3.43 99.09-7.3v852.96zM1788.88 2387.63h87.13v-123.3h-87.13z"/></g></svg>