<svg xmlns="http://www.w3.org/2000/svg" xml:space="preserve" viewBox="0 0 1674.52 1450.11" shape-rendering="geometricPrecision" text-rendering="geometricPrecision" image-rendering="optimizeQuality" fill-rule="evenodd" clip-rule="evenodd"><g fill="currentColor"><path d="M1473.4 217.49c-39.25-63.49-109.48-105.8-189.61-105.8-4.77 0-9.5.21-14.19.5l22.05 207.1 181.75-101.8z"/><path d="M1206.11 368.2c20.76 0 40.17 11.1 50.7 28.97 7.98 13.53 10.22 29.36 6.29 44.58-3.94 15.21-13.55 28-27.1 35.97-27.33 16.14-54.09 29.02-79.88 39.28 36.17 25.34 80.16 40.26 127.67 40.26 123.05 0 222.79-99.74 222.79-222.79 0-36.2-8.69-70.34-24-100.56l-194.19 108.77a9.44 9.44 0 0 1-4.6 1.21c-1.48 0-2.95-.35-4.31-1.06-2.82-1.47-4.71-4.21-5.04-7.36l-23.56-221.35c-107.42 15.92-189.86 108.5-189.86 220.35 0 30.26 6.06 59.1 16.99 85.41 33.27-10.1 66.1-24.59 98.26-43.53a58.779 58.779 0 0 1 29.85-8.16z"/><path d="M662.57 18.83h993.11v611.88h-616.36v18.83h635.19V0H643.74v270.15h18.83zM715.7 1154.1h6.93c.97 0 1.91.04 2.85.1 11.8.25 29.84 2.77 50.24 13.07 4.97 2.47 9.84 5.33 14.6 8.52v-164.53c-10.54-.13-20.7-.52-30.42-1.14 3.86 12.49 5.95 25.76 5.95 39.5 0 42.19-19.6 79.87-50.15 104.48zM830.56 1214.81c19.04-25.63 39.24-39.83 55.04-47.64 5-2.53 9.87-4.57 14.55-6.24v-75.6a133.612 133.612 0 0 1 0-71.42v-11.59c-26.44 4.91-57.88 8.48-94.14 8.93v176.7c8.8 7.77 17.05 16.76 24.55 26.86z"/><path d="M830.36 416.93c32.13-10.82 58.08-37.52 66.34-72.97 12.67-54.42-21.17-108.81-75.59-121.48-54.42-12.67-108.81 21.18-121.48 75.59-11.95 51.27 17.41 102.51 66.36 118.86 3 1 6.07 1.89 9.23 2.62 18.97 4.42 37.94 3.17 55.14-2.63zM631.71 915.48c54.93 0 102.21 33.19 122.94 80.56 13.68.99 28.17 1.57 43.52 1.57 44.88 0 82.61-4.8 112.97-11.17 17.36-32.36 47.59-56.8 83.82-66.45l-74.77-367.5-5.9-29.01c14.48 1.71 31.43 2.92 50.57 2.93 66.09.05 157.93-14.65 256.83-73.02 14.55-8.57 19.38-27.33 10.8-41.89-8.57-14.55-27.33-19.39-41.88-10.81-88.49 52.12-168.49 64.48-225.75 64.53-27.44 0-49.58-2.89-64.57-5.69-7.49-1.41-13.2-2.8-16.89-3.77-1.85-.49-3.18-.89-4-1.13-.4-.12-.66-.2-.8-.25l-.95-.32-.94-.25c-.4-.08-3.74-.96-9.15-2.17l17.27 14.61 7.49 40.36-26.58 5.38 16.96 28.25s-60.42 106.29-77.37 129.16c-2.44 3.28-4.27 5.23-5.64 6.22-.33.6-.82.87-1.52.74-.69.13-1.18-.14-1.5-.74-1.38-.99-3.21-2.93-5.65-6.22-16.95-22.86-77.37-129.15-77.37-129.15L730.61 512l-26.58-5.38 7.49-40.36 17.28-14.61c-3.01.67-5.4 1.25-6.96 1.64-10.36 1.68-48.44 11.84-88.01 58.17-43.02 50.14-87.67 140.42-109.37 304.86-2.21 16.76 9.58 32.12 26.33 34.34 1.36.18 2.71.27 4.04.27 15.12 0 28.26-11.21 30.29-26.59 19.61-148.78 58.16-226.75 90.02-266.8l-18.23 89.58-55.3 271.85c9.68-2.23 19.76-3.45 30.11-3.45z"/><path d="m752.86 505.26 43.46 146.65s.9 3.13 1.83 7.15c.94-4.02 1.84-7.15 1.84-7.15l43.46-146.65 2.58-57.74c-13.55-2.18-30.36-4.09-47.88-4.15-17.51.06-34.33 1.97-47.88 4.15l2.58 57.74zM339.88 1049.62c0-58.49-47.41-105.9-105.9-105.9-58.48 0-105.9 47.41-105.9 105.9 0 52.6 38.36 96.23 88.63 104.48h34.55c50.27-8.25 88.63-51.88 88.63-104.48zM737.61 1049.62c0-58.49-47.41-105.9-105.91-105.9-58.48 0-105.9 47.41-105.9 105.9 0 52.6 38.36 96.23 88.63 104.48h34.55c50.27-8.25 88.63-51.88 88.63-104.48zM106.69 1295.86v154.25h254.6v-154.03c2.78 5.72 5.6 12.28 8.38 19.94 10.35 28.69 19.39 71.82 22.85 134.09h80.57c4.39-79 17.94-126.9 31.31-154.25v154.25H759v-154.04c2.79 5.73 5.61 12.29 8.39 19.95 10.35 28.69 19.39 71.82 22.85 134.09h80.58c4.39-79 17.94-126.9 31.31-154.25v154.25h254.6v-154.04c2.79 5.73 5.61 12.29 8.38 19.95 10.36 28.69 19.39 71.82 22.85 134.09h75.39c-5.43-106.71-25.88-170.27-52.38-210.77-15.46-23.47-33.55-38.52-50.27-46.85-16.08-8.12-30.21-9.94-38.7-10.05-.55-.02-1.09-.08-1.66-.08h-71.56a134.5 134.5 0 0 1-19.36 1.41c-6.58 0-13.04-.5-19.36-1.41H938.5c-.64 0-1.24.06-1.87.1-8.51.12-22.55 1.98-38.52 10.04-23.56 11.67-48.82 36.28-67.61 78.84-5.36-12.04-11.15-22.64-17.26-31.99-15.46-23.47-33.54-38.52-50.27-46.85-16.08-8.12-30.22-9.94-38.7-10.05-.55-.02-1.09-.08-1.65-.08H540.77c-.63 0-1.24.06-1.86.1-8.5.12-22.55 1.98-38.52 10.04-23.56 11.67-48.82 36.28-67.61 78.84-5.36-12.04-11.15-22.64-17.26-31.99-15.46-23.47-33.54-38.52-50.27-46.85-16.08-8.12-30.22-9.94-38.7-10.05-.55-.02-1.09-.08-1.65-.08H143.06c-.64 0-1.25.06-1.88.1-8.51.12-22.54 1.98-38.51 10.04-25.32 12.54-52.61 40.01-71.71 88.68-15.64 39.53-27.12 93.35-30.96 168.94h75.38c4.38-79 17.94-126.89 31.31-154.25zM923.53 1049.62c0 58.48 47.41 105.9 105.9 105.9 58.49 0 105.9-47.41 105.9-105.9 0-58.49-47.41-105.9-105.9-105.9-58.48 0-105.9 47.41-105.9 105.9zM1036.69 124.24H928.43v18.83h108.26zM1607.39 73.64h-108.26v18.82h108.26zM1607.39 530.2h-108.26v18.82h108.26zM1499.13 593.74h108.26v-18.83h-108.26zM1069.64 230.92v-9.41h-55l-30.13-67.8-8.59 3.82h-.01l32.6 73.39zM1522.34 150.12h-66.75v9.42h72.1l30.79-51.72-8.08-4.82h-.01z"/></g></svg>