<svg xmlns="http://www.w3.org/2000/svg" xml:space="preserve" viewBox="0 0 674.8 893.56" shape-rendering="geometricPrecision" text-rendering="geometricPrecision" image-rendering="optimizeQuality" fill-rule="evenodd" clip-rule="evenodd"><g fill="currentColor"><path d="M212.94 744.21h5.1l-2.77-10.98zM224.64 562.71V581l75.01 67.07c5.12 4.58 9.3 10 12.41 16V552.19l-49.45-6.09c-13.34-1.64-24.89-9.48-31.35-21.13l-9.97 37.74h3.35zM91.63 326.24c3.73-1.09 7.58-1.64 11.45-1.64 3.5 0 6.99.45 10.39 1.35l.66.17a87.973 87.973 0 0 1-.64-24.2c5.03-44.66 42.67-78.33 87.55-78.33 3.31 0 6.66.19 9.96.56 23.41 2.64 44.4 14.23 59.08 32.65 14.69 18.42 21.33 41.45 18.69 64.86-2.78 24.7-15.54 46.02-33.98 60.16l16.27 33.79c.47-.04.95-.07 1.43-.07 10.04 0 18.17 8.14 18.17 18.17 0 4.8-1.88 9.16-4.92 12.4l9.64 20.01 16.67 2.05V109.73H78.8v221.35c3.96-2.3 8.29-3.94 12.82-4.84zM78.81 686.25v57.96h19.37l7.26-34.15zM221.26 757.04h-11.05l-12.16 57.28h37.63z"/><path d="m77.45 841.81 18.01-84.77H65.98v-82.26l-32.07-28.67v130.67H0v37.55h33.91v75.37h34.74s.88-15.76 7.83-30.92a56.02 56.02 0 0 1 .97-16.96zM535.19 16.46 521.06 0v46.08H0v37.55h33.91v295.83l32.06-37.05V96.9H521.06v660.14H337.01l14.42 57.28h169.63v48.18l14.13-16.46zM550.11 0v862.49l25.6-29.81c32.85 9.21 35.48 57 35.48 57h34.74v-75.37h28.87v-37.55h-28.87V83.62h28.87V46.07h-85.11L550.12-.01zm33.52 433.71c0 10.04-3.59 18.17-8.02 18.17s-8.02-8.14-8.02-18.17c0-10.04 3.59-18.17 8.02-18.17s8.02 8.14 8.02 18.17z"/><path d="M512.83 431.07v-12.83H325.22v12.83zM325.22 560.43v12.82h187.61v-12.82zM348.48 410.05h143.91a8.02 8.02 0 0 0 8.02-8.02 8.02 8.02 0 0 0-8.02-8.02H348.48c-1.64 0-3.03-1.39-3.03-3.03s1.39-3.03 3.03-3.03h129.26a8.02 8.02 0 0 0 8.02-8.02 8.02 8.02 0 0 0-8.02-8.02H348.48c-10.51 0-19.07 8.55-19.07 19.07 0 10.51 8.55 19.07 19.07 19.07zM348.48 320.25h143.91a8.02 8.02 0 0 0 8.02-8.02 8.02 8.02 0 0 0-8.02-8.02H348.48c-1.64 0-3.03-1.39-3.03-3.03s1.39-3.03 3.03-3.03h129.26a8.02 8.02 0 0 0 8.02-8.02 8.02 8.02 0 0 0-8.02-8.02H348.48c-10.51 0-19.07 8.55-19.07 19.07 0 10.51 8.55 19.07 19.07 19.07zM348.48 365.15h143.91a8.02 8.02 0 0 0 8.02-8.02 8.02 8.02 0 0 0-8.02-8.02H348.48c-1.64 0-3.03-1.39-3.03-3.03s1.39-3.03 3.03-3.03h136.75a8.02 8.02 0 0 0 8.02-8.02 8.02 8.02 0 0 0-8.02-8.02H348.48c-10.51 0-19.07 8.55-19.07 19.07 0 10.51 8.55 19.06 19.07 19.07zM220.06 360.75c8.25 1.15 15.61 5.14 21.07 11.09 17.09-11.4 29.23-29.96 31.71-51.97 4.46-39.6-24.03-75.32-63.63-79.78-39.6-4.46-75.32 24.03-79.78 63.63-1.35 12.04.35 23.71 4.47 34.26l86.17 22.77z"/><path d="M124.02 892.68c2.81.6 5.61.88 8.37.88 18.53 0 35.17-12.92 39.18-31.77l33.79-159.08-83.06-74.27 7.12-3.53 96.94 86.68 38.16 151.65c4.58 18.19 20.91 30.31 38.85 30.31 3.24 0 6.53-.4 9.81-1.22 21.47-5.4 34.5-27.19 29.09-48.66l-41.16-163.56a40 40 0 0 0-12.16-20.1L200 580.47l26.82-101.51 17.76 36.88a25.683 25.683 0 0 0 19.98 14.33L368.79 543c1.07.13 2.12.19 3.17.19 12.77 0 23.84-9.53 25.43-22.52 1.73-14.06-8.27-26.87-22.33-28.6l-90.33-11.11-46.44-96.43c-3.95-8.2-11.69-13.32-20.1-14.33l-108.83-28.76a24.613 24.613 0 0 0-13.92.39c-5.68.95-11.07 3.81-15.13 8.5l-69.69 80.5a25.649 25.649 0 0 0-5.9 21.05 25.648 25.648 0 0 0 12.47 17.96l28.29 16.34-22.45 84.96a24.81 24.81 0 0 0-.79 5.41c-7.01 15.52-3.55 34.43 9.82 46.38l90.99 81.35-29.92 140.84c-4.6 21.66 9.23 42.94 30.88 47.55z"/></g></svg>