<svg xmlns="http://www.w3.org/2000/svg" xml:space="preserve" viewBox="0 0 250.68 305.91" shape-rendering="geometricPrecision" text-rendering="geometricPrecision" image-rendering="optimizeQuality" fill-rule="evenodd" clip-rule="evenodd"><g fill="currentColor"><path d="M39.8 93.8c13.71-3.19 22.24-16.9 19.05-30.61-3.19-13.71-16.9-22.24-30.62-19.05-13.71 3.19-22.24 16.9-19.05 30.61 3.19 13.71 16.9 22.24 30.62 19.05zM11.98 302.06c.74.11 1.48.17 2.2.17 6.86 0 12.89-4.99 13.98-11.98 4.74-30.26 13-51.09 20.53-64.83 3.31 19.89 12.9 45.82 36.5 72.28 2.8 3.15 6.69 4.76 10.59 4.76 3.35 0 6.71-1.18 9.41-3.58 5.85-5.2 6.38-14.15 1.18-20-26.8-30.28-30.76-56.78-30.86-71.57 0-4.05.33-7.19.63-9.2.15-1 .29-1.72.38-2.13.04-.21.07-.33.09-.37 0-.02 0-.03.01-.05 2.95-2.99 5.27-7.36 6.51-13.72 2.93-25.18 1.28-40.06-6.44-62.93-5.7-16.6-19.73-21.85-29.41-19.44s-13.93 15.91-10.68 27.19c1.22 6.24 2.81 13.55 4.13 21.3 2.26-7.87 2.81-15.09 2.8-20.2 0-4.74-.47-7.75-.49-7.88-.51-2.97.17-5.98 1.92-8.45a11.27 11.27 0 0 1 7.34-4.62c.64-.11 1.28-.16 1.93-.16 5.53 0 10.22 3.96 11.16 9.42.14.81.8 5.16.81 11.69-.01 12.31-2.24 24.1-6.63 35.03-5.67 14.18-15.17 26.47-27.62 35.85-1.4 2.01-2.83 4.18-4.3 6.57C17.41 221.88 6.08 247.9.15 285.88c-1.21 7.73 4.08 14.98 11.81 16.19z"/><path d="M57.48 161.93c5.33-13.28 6.45-25.71 6.46-34.19 0-6.66-.71-10.91-.78-11.3-.84-4.94-5.53-8.25-10.47-7.4-4.94.84-8.25 5.53-7.41 10.46v.02c.07.43.51 3.53.51 8.22.01 6.84-.96 17.03-5.15 27.42-4.22 10.42-11.45 21.06-24.66 29.77-4.18 2.75-5.34 8.38-2.59 12.56a9.063 9.063 0 0 0 7.58 4.09c1.71 0 3.44-.48 4.97-1.49 16.5-10.82 26.21-24.91 31.52-38.16zM214.2 297.06c1.33 5.1 5.93 8.47 10.96 8.47.95 0 1.91-.12 2.87-.37 6.06-1.58 9.68-7.78 8.1-13.83l-18.22-69.71c-7.75 3.1-14.93 5.48-21.52 7.3l17.82 68.15zM148.29 291c-1.97 5.94 1.25 12.35 7.19 14.32 1.18.39 2.39.58 3.57.58 4.75 0 9.18-3.01 10.76-7.77l22.62-68.19c-9.92 2.49-18.38 3.68-25.26 4.14l-18.88 56.91zM196.09 112.75c.45-.06.9-.09 1.35-.09 5.09 0 9.43 3.81 10.1 8.86l.04.24c.04.27.11.66.21 1.19.19.99.52 2.61 1.07 4.67.96 3.65 2.72 9.27 5.67 15.29 2.51 5.11 5.43 9.63 8.7 13.56-.46-2.68-.85-5.29-1.15-7.81-1.97-16.42-1.54-29.23-6.33-36.91-3.14-5.09-8.44-8.48-19.2-9.87-.97-.13-1.92-.18-2.84-.18-7.82.01-14.26 4.2-19.84 11.45-5.54 7.24-9.99 17.47-13.47 28.9-6.98 22.87-10.12 50.5-11.5 68.9-.7 9.29-.95 16.21-1.03 19.03.52.1 1.19.21 2.01.32 2.25.31 5.62.62 10.07.62 15.52 0 44.1-3.82 83.45-25.1-3.83-5.59-6.96-11.03-9.54-16.31-20.12-8.91-31.52-25.11-37.64-37.66-6.4-13.11-8.4-24.4-8.86-27.55v-.02l-.02-.11c-.36-2.7.36-5.38 2.02-7.54a10.13 10.13 0 0 1 6.76-3.91zM212.34 98.98c13.85-2.53 23.03-15.81 20.5-29.66-2.53-13.85-15.82-23.03-29.67-20.49-13.85 2.53-23.03 15.81-20.5 29.66 2.53 13.85 15.82 23.03 29.67 20.49z"/><path d="M245.35 174.63c-17.05-5.9-26.96-18.72-32.87-30.73-2.92-5.96-4.75-11.61-5.82-15.71-.54-2.05-.89-3.71-1.1-4.82-.1-.56-.18-.98-.22-1.24-.02-.13-.03-.23-.04-.28v-.03a7.947 7.947 0 0 0-8.91-6.83c-4.34.57-7.4 4.56-6.83 8.9.08.53 1.68 12.67 8.67 26.98 6.93 14.23 19.68 31.04 41.93 38.74a7.922 7.922 0 0 0 10.09-4.9c1.44-4.14-.76-8.66-4.9-10.09zM126.81 69.87l2.81-25.11-19.07-9.96L114 14.78c-3.55-2.01-9.49-3.89-17.35-1.02-12.63 4.62-37.21 36.67 30.16 56.11z"/><path d="m134.48 42.18-3.24 28.91c2.15.57 4.37 1.13 6.69 1.67 49.66-66.81 6.71-76.57-6.56-71.71-7.46 2.73-10.84 7.63-12.37 11.39l-3.42 19.86 18.89 9.87z"/></g></svg>