<svg xmlns="http://www.w3.org/2000/svg" xml:space="preserve" viewBox="0 0 1601.18 1239.74" shape-rendering="geometricPrecision" text-rendering="geometricPrecision" image-rendering="optimizeQuality" fill-rule="evenodd" clip-rule="evenodd"><g fill="currentColor"><path d="M105.35 1150.38c27.84 2.27 52.26-19.44 54.53-47.29l26.81-329.78h35.81l26.81 329.78c2.27 27.86 26.69 49.07 54.53 46.8 27.84-2.27 48.58-26.43 46.31-54.28l-33.41-409.49c-20.84 3.65-71.06 11.69-112.15 11.69-41.09.01-91.31-7.95-112.15-11.6l-33.41 409.63c-2.27 27.86 18.47 52.28 46.31 54.55z"/><path d="M204.6 685.59c40.41 0 91.97-8.2 111.73-11.66l.09-6.03V447.42l271.6-60.67c17.64-3.94 28.47-21.43 24.54-39.08-3.94-17.64-21.56-28.56-39.22-24.64l-293.87 65.66h-20.42c-2.64 16.37-26.01 30.98-54.46 30.98s-51.81-14.61-54.46-30.98h-24.58c-.7 0-1.38-.13-2.07-.09-11.54.29-33.92 3.94-56.82 25.46C13.92 463.62-7.71 576.35 2.41 749.21c1.02 17.4 15.44 30.8 32.65 30.8.64 0 1.29-.03 1.94-.07 18.04-1.05 32.59-16.54 31.53-34.59-8.41-143.78 6.48-220.42 26.94-258.46v181.02l-1.26 6.01c19.77 3.47 69.99 11.66 110.38 11.66zM238.93 358.37c33.84-13.61 57.73-46.71 57.73-85.42 0-50.85-41.21-92.06-92.06-92.06-50.84.01-92.06 41.21-92.06 92.06 0 38.7 23.9 71.81 57.73 85.42a91.72 91.72 0 0 0 34.32 6.64c12.14 0 23.72-2.37 34.33-6.64z"/><path d="M443.26 445.98v225.03h1157.91V0H443.26v306.87h20.46V20.46h1116.99v630.1H463.72V445.98zM778.63 891.14c0-50.85-41.21-92.07-92.06-92.07-50.84 0-92.06 41.22-92.06 92.07.01 45.73 33.35 82.65 77.05 90.83h30.04c43.69-8.19 77.04-45.11 77.04-90.83zM1124.37 891.14c0-50.85-41.21-92.07-92.06-92.07-50.84 0-92.06 41.22-92.06 92.07 0 45.73 33.35 82.65 77.04 90.83h30.04c43.7-8.19 77.04-45.11 77.04-90.83zM921.98 1105.17v134.57h220.95v-134.38c4.09 4.97 4.9 10.92 7.31 17.58 9 24.94 16.89 63.61 19.89 116.8h70.04c3.82-69.55 17.32-110.79 25.5-134.57v134.57h225.04v-134.38c0 4.97 3.88 10.92 6.29 17.58 8.99 24.94 15.86 63.61 18.87 116.8h65.54c-4.73-94.11-22.5-148.25-45.54-183.47-13.44-20.39-29.16-33.6-43.69-40.84-13.98-7.06-26.27-8.69-33.65-8.79-.48-.02-.95-.12-1.44-.12h-62.21c-5.5 0-11.11 1.23-16.83 1.23-5.72 0-11.34-1.23-16.83-1.23h-62.2c-.55 0-1.08.04-1.62.07-7.39.11-19.6 1.71-33.48 8.72-20.49 10.14-42.44 31.53-58.77 68.53-4.65-10.47-9.69-19.69-15.01-27.81-13.44-20.39-29.16-33.48-43.69-40.73-13.97-7.05-26.27-8.63-33.64-8.72-.48-.02-.96-.06-1.44-.06H953.3c-.55 0-1.08.04-1.63.07-7.39.11-19.6 1.71-33.48 8.72-20.48 10.14-42.43 31.53-58.77 68.53-4.66-10.47-9.7-19.69-15.02-27.81-13.44-20.39-29.16-33.48-43.69-40.73-13.98-7.05-26.27-8.63-33.65-8.72-.48-.02-.95-.06-1.44-.06H607.55c-.55 0-1.09.04-1.63.07-7.39.11-19.6 1.72-33.48 8.72-22.02 10.9-45.74 35.02-62.34 77.32-13.6 34.36-23.58 81.64-26.92 147.1h65.52c3.81-69.55 17.31-110.79 25.49-134.56v134.56h225.04v-134.38c0 4.97 3.88 10.91 6.29 17.57 9 24.94 15.86 63.61 18.87 116.8h70.05c3.81-69.55 15.26-110.79 27.54-134.57zM1470.1 891.12c0-50.85-41.21-92.06-92.06-92.06-50.84 0-92.06 41.21-92.06 92.06 0 50.84 41.22 92.06 92.06 92.06 50.85.01 92.06-41.22 92.06-92.06z"/></g></svg>