<svg xmlns="http://www.w3.org/2000/svg" xml:space="preserve" viewBox="0 0 137.06 285.96" shape-rendering="geometricPrecision" text-rendering="geometricPrecision" image-rendering="optimizeQuality" fill-rule="evenodd" clip-rule="evenodd"><g fill="currentColor"><path d="M98.08 12.48a9.892 9.892 0 0 0-5.77-2.82C95.9 14.86 98 21.16 98 27.95c0 3.87-.69 7.59-1.94 11.04 6.79 7.31 11.75 13.24 15.14 17.89 1.41 1.93 2.55 3.64 3.44 5.1-.56-.11-1.14-.24-1.72-.38-4.16-.99-8.83-2.59-12.35-3.93-1.77-.67-3.25-1.28-4.29-1.71-.51-.21-.91-.39-1.18-.5-.27-.11-.36-.16-.36-.16a9.889 9.889 0 0 0-3.09-.81c-.63-.13-1.28-.2-1.95-.2h-5.33c-5.28 3.75-11.72 5.97-18.67 5.97-6.95 0-13.39-2.22-18.67-5.97h-5.34c-.51 0-1.01.05-1.49.13-2.49-.01-6.87.67-11.56 3.63-7.15 4.5-14.29 13.46-19.59 30.1-5.31 16.72-9.06 41.53-9.07 79.65 0 5.49 4.45 9.94 9.94 9.94 5.49 0 9.94-4.45 9.94-9.94-.05-48.08 6.42-72.6 12.23-83.83v186.64c0 8.48 6.88 15.36 15.36 15.36s15.36-6.88 15.36-15.36V158.46h5.76v112.15c0 8.48 6.88 15.36 15.36 15.36s15.36-6.88 15.36-15.36V78.32c2.81.94 5.87 1.87 9.01 2.62 3.68.86 7.41 1.53 11.32 1.55 3.2-.05 6.76-.33 10.69-2.72 1.93-1.19 3.82-3.08 5.03-5.4 1.23-2.31 1.71-4.85 1.7-7.12-.04-3.92-1.17-7.24-2.79-10.73-4.98-10.25-15.57-23.31-36.19-44.03zM81.14 4.65A27.6 27.6 0 0 0 71.6.63c.79 2.02 1.67 4.33 2.54 6.72 2.74-.84 5.14-1.75 7-2.7zM68.87 8.78c.16-.04.3-.08.46-.12-.33-.9-.66-1.8-.99-2.67C67.5 3.76 66.69 1.7 66.01 0c-.1 0-.2-.01-.3-.01-2.6 0-5.12.36-7.51 1.03-.33 3.36-.6 6.82-.84 10.03 3.98-.66 7.9-1.41 11.51-2.28zM52.32 11.83c.19-2.77.42-5.78.69-8.78-4.52 2.31-8.32 5.8-11 10.08 3.27-.36 6.76-.79 10.31-1.3zM51.6 23.87c.06-1.22.19-3.73.39-6.96-.83.12-1.66.23-2.48.34-3.54.46-6.95.85-10.07 1.16-.78 2.14-1.3 4.41-1.54 6.77 2.62-.2 5.97-.49 9.74-.87 1.28-.13 2.61-.28 3.97-.43zM73.14 20.56c-.54-2.13-1.3-4.61-2.17-7.19l-.95.24c-4.12.99-8.56 1.83-13.02 2.54-.19 3.05-.33 5.57-.4 7.11 5.47-.7 11.2-1.59 16.54-2.69z"/><path d="M93.66 27.95c0-2.91-.44-5.71-1.27-8.34-3.69 2.01-8.52 3.54-13.98 4.87-6.45 1.55-13.7 2.73-20.53 3.62-7.93 1.04-15.27 1.69-20.04 2.05C38.97 44.55 51 55.9 65.7 55.9c15.44 0 27.95-12.52 27.95-27.95zM85.27 8c-2.55 1.6-5.79 2.91-9.49 4.05.87 2.6 1.65 5.15 2.22 7.42 5.17-1.27 9.66-2.83 12.48-4.46-1.36-2.6-3.12-4.97-5.2-7.01z"/></g></svg>