<svg xmlns="http://www.w3.org/2000/svg" xml:space="preserve" viewBox="0 0 21370.69 21293.29" shape-rendering="geometricPrecision" text-rendering="geometricPrecision" image-rendering="optimizeQuality" fill-rule="evenodd" clip-rule="evenodd"><g fill="currentColor"><path d="M5744.48 8803.05c-110.93-65.66-211.34-131.24-301.68-194.2 142.23 16.39 291.53 26.17 449.97 26.17h9.03c244.03-.09 507.9-21.14 791.89-65.66 42.84-180.6 89.6-353.84 141.76-517.86-347.42 68.09-658.04 98.26-933.65 98.26-961.87-2.51-1511.68-346.11-1844.57-681.7-81.5-83.18-149.12-166.44-204.63-244.4 512.93 168.68 1139.12 275.33 1902.22 275.33h12.02c220.93 0 453.23-8.66 697.81-27.01 133.66-9.87 233.88-126.3 224-259.86-9.97-133.66-126.39-233.88-259.96-224-233.32 17.32-453.6 25.61-661.86 25.61-1697.59-2.7-2583.46-533.98-3067.05-1040.76-97.8-103.2-178.37-205.94-245.8-304.39 582.88 358.31 1282.46 652.45 2110.3 796.82 132.07 23.1 257.63-65.39 280.73-197.27 23.01-132.07-65.29-257.72-197.37-280.82-1513.17-264.33-2555.42-1066.56-3227.25-1809.45-185.54-205.38-342.01-405.82-471.2-588.09 1505.07 854.76 3328.4 1541.67 4872.68 2042.21C6637.6 5895.94 7374.72 6107 7944.19 6260.5c120.52-96.68 246.27-178.74 376.76-243.47 80.47-40.52 157.97-72.18 232.01-98.08-83.27-21.42-172.78-44.61-269.18-70.14-1755.15-461.42-5578.32-1600.26-7904.99-3181.89-89.14-60.45-207.52-54.77-290.69 13.88-82.9 68.46-110.93 183.77-68.46 282.68 7.36 16.21 319.01 740.1 1040.57 1539.62 177.25 196.43 380.2 397.62 609.42 593.68 29.53 138.13 169.89 673.04 677.97 1210.09 206.12 218.7 474.18 433.67 814.61 620.04 1.68 8.94 2.61 17.88 5.31 26.82h-.19c7.73 23.29 134.4 435.81 543.48 853.92 190.57 196.06 446.71 389.89 775.12 540.87 3.91 53.56 24.4 106.18 63.89 148.37 15.37 13.97 726.41 774.28 1952.05 1183.64 19.93-168.68 42.75-331.68 68.37-489.18-315.47-112.7-592.47-250.08-825.79-388.31zM21282.48 2680.6c-82.9-68.46-201.56-74.05-290.69-13.6-1549.96 1052.59-3768.4 1913.68-5592.57 2503.26-912.32 295.26-1726.84 524.01-2312.42 678.63-96.59 25.43-186.28 48.71-269.74 70.14 74.51 25.99 152.57 58.03 233.41 98.82 107.76 53.84 237.42 131.79 376.38 242.54 569.37-153.5 1306.31-364.37 2121.85-628.42 1544.28-500.54 3367.61-1187.46 4872.87-2042.31-158.43 223.54-357.85 474.46-601.41 727.9-674.34 701.54-1678.4 1421.8-3097.41 1669.84-132.07 22.91-220.37 148.65-197.27 280.73 23.01 131.98 148.65 220.37 280.73 197.27 827.75-144.28 1527.33-438.42 2110.21-796.64-88.3 129-199.32 265.45-340.99 399.86-501.94 474.65-1380.17 943.15-2971.76 945.1-208.36 0-428.73-8.29-661.77-25.61-133.56-10.06-249.99 90.25-260.14 224-9.78 133.56 90.44 249.99 224 259.86 244.4 18.26 476.98 27.01 697.91 27.01h12.02c763.01 0 1389.01-106.55 1902.04-275.23-69.67 97.8-157.97 203.79-269.18 307.27-338.85 313.79-877.67 616.69-1779.56 618.74-276.35-.09-587.81-30.36-935.98-98.73 52.16 164.21 99.94 336.71 142.6 518.14 284.55 44.61 548.79 65.85 793.38 65.85h8.94c158.34 0 307.27-9.69 449.5-26.08-280.26 194.85-662.05 416.25-1129.06 583.16 25.61 157.5 48.34 320.59 68.27 489.18 1227.04-409.26 1938.92-1170.41 1954.1-1184.38 39.59-42.29 60.08-94.82 63.89-148.37 328.51-150.98 584.55-344.72 775.12-540.87 409.08-418.11 535.84-830.63 543.48-853.92 2.7-8.94 3.63-17.88 5.22-26.82 340.43-186.38 608.49-401.35 814.52-620.04 508.18-537.15 648.36-1071.96 677.97-1210.09 229.31-196.06 432.18-397.15 609.42-593.59 721.66-799.71 1033.4-1523.51 1040.67-1539.62 42.47-99.01 14.62-214.22-68.55-282.96zM13010.61 869.75c-1.02-169.7-103.29-303.92-232.76-403.39C12385.26 170.92 11605.67 4.66 10685.25.1c-611.94.28-1165.76 80.29-1580.05 215.44-207.43 68.18-380.2 149.12-512.46 250.64-129.37 99.66-231.55 233.88-232.67 403.58 1.12 169.52 103.29 303.64 232.67 403.39 392.78 295.16 1172.27 461.51 2092.51 466.08 612.22-.37 1166.13-80.29 1580.33-215.44 207.33-68.18 380.11-149.12 512.28-250.83 129.47-99.57 231.74-233.69 232.76-403.21zm-430.68 147.44c-264.33 212.64-1022.41 402.93-1894.68 398.36-582.69.28-1110.52-78.15-1479.36-199.23-184.33-59.89-328.14-131.52-415.22-199.14-89.32-69.76-108.32-121.64-107.11-147.44-1.21-25.99 17.79-77.77 107.11-147.63 264.43-212.64 1022.69-402.93 1894.58-398.36 582.97-.37 1110.99 78.15 1479.64 199.32 184.23 59.8 328.14 131.42 415.04 199.04 89.42 69.76 108.23 121.64 107.21 147.63 1.21 25.8-17.79 77.68-107.21 147.44z"/><path d="M12872.95 16164.56v-2216.57c-367.35-7.54-423.14-179.95-422.77-283.71.47-171.57 187.96-354.03 422.77-492.06V8014.81c47.87 98.36 96.12 211.06 143.9 342.67 227.82 631.78 419.6 1668.44 418.86 3286.86.09 445.87-14.16 935.98-45.64 1474.15-20.77 356.54 251.48 662.89 608.31 683.47 12.95.75 25.71 1.02 38.37 1.02 340.24 0 625.44-265.36 645.38-609.42 32.41-560.8 47.6-1075.5 47.78-1549.22-3.35-2441.23-393.15-3792.15-924.89-4604.53-265.73-403.39-576.45-661.95-863.61-805.3-279.98-141.11-525.78-171.66-670.99-172.78-7.54-.28-14.9-1.12-22.63-1.12h-528.39c-83.83 550.37-466.73 2875.08-1034.05 3442.31-567.23-567.23-950.13-2891.94-1033.96-3442.31h-528.3c-9.22 0-18.26.93-27.38 1.4-145.58 1.4-389.33 32.6-666.7 172.4-435.06 215.71-904.12 687.75-1232.16 1523.88-332.33 839.57-555.4 2053.2-556.43 3885.85.19 473.81 15.28 988.79 48.34 1549.68 20.21 343.78 305.32 609.14 645.38 609.14 12.76 0 25.52-.28 38.47-1.02 356.64-21.05 628.98-327.2 608.03-683.94-31.67-538.08-46.1-1028.09-46.1-1473.87-2.79-1959.13 282.87-3059.5 563.5-3633.62v12132.94c0 552.42 447.82 999.96 999.87 999.96 552.33 0 1000.15-447.54 1000.15-999.87V12842.3h374.8v7301.15c0 552.42 447.92 999.96 999.96 999.96 552.23 0 1000.15-447.54 1000.15-999.87v-1146.01c-266.66-778.29-330.74-1734.57 0-2832.98zM10685.34 1960.16c-1004.99 0-1819.79 814.71-1819.79 1819.79 0 1005.09 814.8 1819.79 1819.79 1819.79 1005.18 0 1819.79-814.71 1819.79-1819.79 0-1005.09-814.61-1819.79-1819.79-1819.79zM15369.41 17642.43c80.85 5.96 159.18 6.33 236.3 3.17-115.77-146.98-241.42-287.9-378.71-422.77-62.96 59.89-113.26 117.82-142.79 164.02-117.08 182.84 138.04 244.5 285.2 255.58zM16819.53 17819.31c-139.53-54.67-347.14 7.92-536.59 76.47 56.63 97.43 111.58 196.71 164.3 298.52 184.14-140.74 433.85-350.96 372.29-374.99z"/><path d="M14843.54 13202.86c-24.59 427.33-379.08 762.08-806.88 762.08-15.46 0-31.57-.84-47.69-1.77-215.44-12.2-413.17-107.86-556.98-269.36-129.84-145.58-200.72-329.63-203.98-522.99-468.59 167.1-969.51 612.31-364.37 616.04 1025.95 6.33 1376.91 839.3 1376.91 839.3-427.98 704.24-969.6 785.74-1169.11 1363.87-929.55 2693.83 604.21 4618.03 1749.19 5029.9 1390.69 500.73 2156.31 452.76 4012.99-1337.69 786.86-758.73-610.07-3665.94-1494.26-4374.56-653.2-523.36-2057.3-687.01-2247.03-739.35-446.52-123.51 137.76-713 383.09-1356.6 160.02-419.41-263.96-505.48-609.7-446.71-6.33 144.18-13.6 290.04-22.17 437.86zm-285.94 1792.6c-935.42 597.04-1012.17 1095.34-1348.4 2174.47-332.42-1504.51 1348.4-2174.47 1348.4-2174.47zm-1260.2 3365.66c254.83 1079.88 700.42 1316.74 1607.99 1989.78-1529.94-182-1607.99-1989.78-1607.99-1989.78zm2077.14-1622.15c246.82-167.28 708.8-443.54 960.38-191.41 135.89 136.17-140.18 519.82-258.93 400.88-115.68-115.96-300.66-81.96-481.63 10.15 182.18 194.29 343.41 400.13 489.27 617.81 99.57-23.29 199.42-50.39 301.59-80.38 157.04-46.48 536.12-205.28 693.06-77.77 170.73 138.5 63.34 388.12-25.52 545.16-115.59 204.26-274.21 381.51-459.84 527.74 69.76 148.19 137.2 299.82 203.05 456.21 71.44 169.14-178.64 567.6-273 343.97-85.22-202.4-172.5-396.97-264.61-584.65-312.49 161.88-665.87 249.25-1011.14 244.31-189.08-2.51 13.51-427.61 190.01-424.91 219.53 3.17 450.62-47.41 660.74-129.56-69.76-127.32-143.34-250.64-220.84-370.89-352.45 73.12-1137.16 163.37-1170.78-274.86-20.4-267.41 125.46-517.49 315.75-718.12-103.57-89.69-213.39-176.6-330.46-260.61-155.08-111.21 36.05-543.94 220.19-411.87 167.93 120.52 321.06 246.92 462.73 378.81zM10038.38 6832.19l566.12-323.48v-80.94l-566.12-323.58zM11332.4 6104.19l-566.12 323.58v80.94l566.12 323.48zM10685.34 6953.55c-89.42 0-161.69 72.28-161.69 161.69 0 89.23 72.28 161.79 161.69 161.79 89.32 0 161.79-72.46 161.79-161.79 0-89.42-72.56-161.69-161.79-161.69zM10685.34 7519.66c-89.42 0-161.69 72.37-161.69 161.79 0 89.14 72.28 161.79 161.69 161.79 89.32-.09 161.79-72.56 161.79-161.79 0-89.42-72.56-161.79-161.79-161.79zM10847.13 8328.41c0-89.32-72.56-161.69-161.79-161.69-89.42-.09-161.69 72.37-161.69 161.69s72.28 161.79 161.69 161.79c89.32 0 161.79-72.46 161.79-161.79z"/></g></svg>