<svg xmlns="http://www.w3.org/2000/svg" xml:space="preserve" viewBox="0 0 135.35 274.11" shape-rendering="geometricPrecision" text-rendering="geometricPrecision" image-rendering="optimizeQuality" fill-rule="evenodd" clip-rule="evenodd"><g fill="currentColor"><path d="M22.59 171.06a7.465 7.465 0 0 0 6.3 3.44c.43 0 .86-.05 1.3-.13l-7.11 87.24c-.52 6.37 4.22 11.94 10.58 12.46 6.36.52 11.94-4.22 12.46-10.58l6.95-85.17h6.55l6.95 85.17c.52 6.37 6.1 11.1 12.46 10.58 6.36-.52 11.1-6.1 10.58-12.46l-7.98-97.8v-48.79c11.5.96 20.72 4.95 20.81 4.99.98.44 2.01.65 3.04.65 2.12 0 4.19-.9 5.64-2.56a7.481 7.481 0 0 0 .72-8.86L85.11 66.15a7.472 7.472 0 0 0-9.59-2.8c6.97 5.5 10.45 14.79 8.09 23.92-.28 1.09-.64 2.13-1.06 3.14l6.49 10.46c-3.77-.61-7.9-1.01-12.21-1.01-.49 0-.97.05-1.43.14-.1-.01-.19-.03-.29-.04-5.42 4.06-12.57 5.73-19.63 3.91-3.05-.79-5.8-2.15-8.16-3.95h-9.04c-.12 0-.24.01-.36.02-.34-.05-.69-.08-1.04-.08-19.46 0-34.37 27.23-36.01 30.33a7.49 7.49 0 0 0 .32 7.53l21.41 33.35zm34.87-3.36-8.88-11.22 5.12-37.7c1.21.45 2.49.69 3.77.69h.01c1.27 0 2.55-.24 3.76-.69l5.12 37.71-8.88 11.22zm-3.55-60.32h7.1l1.78 7.01-.27.43a7.877 7.877 0 0 1-5.06 1.83c-1.8 0-3.59-.61-5.06-1.83l-.27-.43 1.78-7.01zm-22.86 9.5v39.66l-14.82-23.09c3.84-6.19 9.51-13.17 14.82-16.57z"/><path d="M81.62 86.74c2.9-11.25-3.87-22.72-15.12-25.63-11.25-2.9-22.73 3.87-25.63 15.12-2.9 11.25 3.87 22.73 15.12 25.63 11.25 2.9 22.73-3.87 25.63-15.12zm-31.58 2.2c12.74-4.68 19.69 5.79 19.75 5.9l-1.18.76-1.18.76C67.2 96 61.59 87.67 51 91.57l-.97-2.63zM125.46 10.08C118.29 3.31 107.95-2.14 97.9.83c-2.52.75-4.84 2.11-6.79 3.87-3.15-.32-6.32-.34-9.42.03-5.25.63-11.83 2.63-13.6 8.26-1.7 5.4.7 8.66 4.97 10.55.09 3.07 3.29 6.62 5.43 7.95.45.28.91.53 1.39.76.5 1.61 1.54 2.86 3 3.81-.27.53-.32 1.16-.03 1.94.14.38.36.72.6 1.06-2.16 1.11-3.66 2.75-.69 4.58 4.25 2.64 10.48 3.25 15.34 3.56 3.15.2 7.79.25 11.38-.98.06.42.09.86.06 1.32-.27 4.6-4.66 5.77-9.22 5.19-.5-3.22-6.53-4.24-10.06-4.08-.29.01-2.33.51-1.87.99 1.74 1.82 5.3 3.29 9.15 3.95 0 .45-.06.95-.25 1.51-.36 1.11-1.45 2.74-2.58 3.2-1.16.48-5.24-.68-1.9-1.11.69-.09 2.93-1.29 1.18-1.06-2.49.32-2.91-.03-5.11.99-.07.03-.72.34-.58.53 2.67 3.55 7.89 2.04 10.43-.99.86-1.03 1.34-1.94 1.52-2.75 6.29.41 12.41-1.58 12-7.91-.02-.37-.08-.73-.16-1.07.25-.18.49-.36.72-.56 1.48-1.34 1.19-2.66.16-3.83.1-.09.18-.18.27-.27 3.73-.96 7.32-2.4 10.46-4.42 1.4-.91 2.8-2.17 3.86-3.61 1.71-.34 3.37-.83 4.83-1.6 8.23-4.35-2.9-16.76-6.93-20.57zM97.13 52.07c-1.86-.55-3.59-1.34-4.89-2.24 2.01.23 4.03.84 4.89 2.24zm28.96-21.03c-.1.25-.22.49-.35.73-2.79.42-5.81.4-8.32.45-.36.01-.71.01-1.07.02.6-.17 1.19-.33 1.78-.51 2.78-.85 5.82-1.89 8.46-3.45.04.87-.11 1.8-.51 2.77zM83.3 25.72c1.19.09 2.4.14 3.6.15-1.93 1.61-3.2 3.64-3.16 6.07-.39-.16-.78-.33-1.16-.51-.68-1.88-.3-3.92.72-5.71zm25.93 3.76c-2.36-1.8-5.12-3.41-7.54-4.63.78-.12 1.47-.24 2.03-.35 2.91-.57 5.86-1.28 8.55-2.56.12-.06.82-.41.5-.62-.08-.05-.18-.1-.26-.15 1.71.07 3.47.19 5.22.41.44 5.16-3.95 7.28-8.49 7.91zm-12.08 4.43c-2.29-.37-4.61-.51-6.91-.38-1.23-.15-2.45-.37-3.64-.66-.06-.25-.12-.51-.16-.78-.41-2.65.48-4.67 2.14-6.21h.33c2.38 2.44 5.84 3.83 9.49 4.48 2.58 1.27 5.25 2.1 6.58 2.32 1.12.19 2.26.32 3.4.43-3.54.53-7.12.79-10.66.8h-.56zM108.1 21.1c.68.19 1.38.46 1.68.86-.06.04-.11.08-.19.14-.4.34-1.23.42-1.73.57-2.46.74-5.02 1.17-7.57 1.51-1.32-.62-2.48-1.11-3.32-1.4-.29-.1-.62-.22-.97-.35 4.09-1 8.68-1.28 12.09-1.32zm-16.63 3.76c-.19-.19-.38-.39-.56-.6.34-.18.69-.35 1.05-.51-.01.37.04.74.15 1.1-.22.01-.43 0-.65.01zm1.06.91c.02.03.04.07.06.1-.04-.03-.08-.07-.12-.1h.06zm2.29-1.94c.67.24 1.34.48 2 .74-.56.05-1.13.1-1.7.14a4.16 4.16 0 0 1-.3-.88zm-2.74-.85c-.44.18-.88.36-1.32.55-.11.05-.21.1-.31.15-.38-.51-.71-1.07-1.01-1.67.94.31 1.83.62 2.65.89-.01.02-.01.05-.02.07zm12.79 8.21c-.31-.08-.68-.19-1.1-.34 1.15.01 2.27-.03 3.34-.12.38.36.75.72 1.1 1.1-1.12-.16-2.24-.36-3.34-.63zm-1.14-1.58c-1.32-.12-2.65-.31-3.95-.6-1.64-.94-3.22-2.13-4.16-3.46 1.02-.09 2-.18 2.91-.29 2.1.91 4.12 1.99 6.04 3.37.47.34.94.7 1.38 1.07-.78 0-1.53-.04-2.22-.1zm8.74-9.58c-.81-.02-1.64-.02-2.46-.02-.84-.3-1.77-.57-2.76-.8.13.01.26.02.37.03 2.21.15 4.53.4 6.81.83-.68-.02-1.34-.03-1.96-.05zm-7.77.22c-3.32.27-6.63.81-9.78 1.75.05-.14.1-.27.17-.41.48-.99 1.48-1.62 2.7-2.01 2.35-.02 4.71.21 6.9.67zm-11.75 1.09v.01c-.75-.26-1.55-.52-2.38-.78 1.4-.4 2.88-.68 4.39-.83-.78.43-1.47.95-2.01 1.6zm-6.97-.37c-1.71.84-3.18 1.89-4.29 3.19-.39-.07-.78-.13-1.17-.21-1.5-.32-3.15-.77-4.68-1.44.08-1.12.76-1.99 2.4-2.31 2.29-.44 5.05.03 7.73.76v.01zm.52 1.35c.29.66.64 1.31 1.06 1.95.13.2.29.38.43.57-1.3-.05-2.6-.16-3.89-.32.67-.85 1.49-1.6 2.4-2.2zm.78 12.55c.43-.1.92-.16 1.46-.18 1.61.18 3.23.27 4.82.3 3.91.55 8.02 1.63 9.26 2.1.11.04.21.08.32.12l-.79.06-1.26.06c-.05-.01-.11-.03-.17-.04-3.43-.75-6.85-.88-10.22-.38-.9-.18-1.78-.42-2.61-.73-.3-.41-.57-.84-.8-1.31zm21.34 5.45c-1.25-.86-2.7-1.52-4.16-2.03.34-.04.67-.07 1-.11 1.27.57 2.5 1.25 3.56 2.08-.13.02-.27.05-.4.07zm-8.59-1.67c1.8.47 3.68 1.15 5.29 2.1-5.18.5-10.97.19-14.79-2.29 2.95.36 6.22.37 9.5.18zm1.88 3.24c1.51-.05 3.04-.17 4.58-.35.3.23.58.47.85.72-1.09.34-2.43.58-4.05.71-4.28.33-13.6-.02-16.9-4.3.18-.08.36-.15.54-.22 3.84 3.33 10.15 3.62 14.97 3.44zm7.71-.81c.07-.01.15-.03.22-.04-.04.03-.1.07-.14.1-.02-.02-.05-.04-.08-.06zm1.6-2c-.75-.51-1.57-.97-2.32-1.35.84-.12 1.65-.24 2.43-.37.08.6.05 1.18-.11 1.72zm-4.09-2.18c-1.89-.84-3.88-1.54-5.92-2.1 2.86-.2 5.72-.54 8.54-1.05.62.9 1.09 1.8 1.36 2.67-1.33.18-2.66.34-3.99.47zm15.12-14.37c2.02.99 3.56 2.54 4.12 4.45-2.15 1.87-5.31 2.93-7.92 3.79-1.74.57-3.52 1.05-5.31 1.46l-.89-.03a22.81 22.81 0 0 0-2-1.89c4.53-.93 9.95-3.5 10.23-8.27.47.1.93.2 1.39.32.13.06.27.11.4.18zm-13.66-4.41c-2.43-.13-6.07-.31-9.36.24-3.63-.01-7.38.47-10.61 1.54-1.49-5.25.14-10.4 3.49-13.97 6.55 1.08 13.07 3.59 18.05 6.61 2.48 1.51 5.42 3.62 6.8 6.39-2.96-.5-5.94-.68-8.36-.81zm-38.17-1.55c-.91-5.12 2.94-9.03 7.54-10.29 3.74-1.02 7.94-1.15 12.18-.64-3.51 3.66-5.48 8.7-4.59 13.62-4.76-.97-9.53-1.02-11.77 1.9-.04.05-.06.1-.09.15-1.64-1.12-2.9-2.65-3.27-4.75zm5.83 8.08c1.41.37 2.93.64 4.51.84a8.811 8.811 0 0 0-1.2 3.79v.19c-1.22-1.17-2.63-3.04-3.31-4.81zm9.74 12.86c.13.15.27.28.4.42-.14.04-.27.09-.41.14-.11-.19-.23-.37-.32-.57-.01-.03-.02-.06-.03-.1l.36.12zm17.36 8.68c-5.43.33-12.24-.62-17.17-3.01-1.86-.9-3.11-1.8-1.86-3.12 2.83 2.57 8.4 3.71 11.34 4 3.72.36 8.51.36 12.51-.89.44.56.78 1.18 1.02 1.86-1.69.74-4.17 1.07-5.83 1.17zm7.31-4.04c.03-.02.06-.03.09-.05.06.12.11.23.15.35l-.24-.3zm3.5-3.06c.41-.75.57-1.52.51-2.31 1.67-.31 3.06-.6 4.04-.8 1.05-.22 2.41-1.37.51-.97-1.56.33-3.12.62-4.69.89-.23-.85-.69-1.7-1.31-2.54 2.57.02 5.14-.1 7.67-.3 1.38-.11 2.85-.22 4.32-.41-2.37 3.43-7.15 5.32-11.05 6.43zm15.85-8.49c-.55.26-1.15.46-1.77.64.89-1.53 1.33-3.21.97-4.85.61-.53 1.18-1.09 1.68-1.73.05-.09.03-.16-.06-.21-1.66-1.53-3.84-2.52-6.23-3.16-1.34-.7-2.84-1.24-4.41-1.66-1.65-6.09-9.7-9.57-14.96-11.53-3.86-1.44-7.97-2.54-12.14-3.13 3.2-2.85 7.6-4.37 12.27-3.58 7.54 1.27 14.53 6.2 19.63 11.73 3.1 3.36 11.92 14.26 5.02 17.49z"/></g></svg>