<svg xmlns="http://www.w3.org/2000/svg" xml:space="preserve" viewBox="0 0 888.73 483.7" shape-rendering="geometricPrecision" text-rendering="geometricPrecision" image-rendering="optimizeQuality" fill-rule="evenodd" clip-rule="evenodd"><g fill="currentColor"><path d="M232.04 281.64c-1.84 1.56-3.66 3.14-5.45 4.76h-91.57c-16.43 0-29.74 13.32-29.74 29.74 0 16.43 13.32 29.74 29.74 29.74h50.8c-.46 1.57-.89 3.16-1.26 4.76l-.15.59c44.51 15.71 96.88 20.95 123.07 45.82 15.46 14.69 23.62-10.8 36.34-35.76.49 6.08.66 11.73.41 16.74-2.38 47.59 109.45-13.49 157.04 15.07 18.26 10.96 20.4-10.33 14.22-42.46-.3-1.56-.62-3.15-.96-4.76h92.38c9.39 0 17.17-6.8 18.73-15.75-1.63.35-3.3.56-5.03.56-1.38 0-2.78-.13-4.15-.36-34.36-6.11-61.7-13.5-83.36-22.52h-28.65c-.49-1.58-.99-3.17-1.5-4.76h19.58c-16.22-7.94-28.33-16.93-36.73-27.28 14.39 37.74 25.98 80.3 25.68 102.7-.1 7.39-1.5 9.83-1.9 10.38-.54-.03-1.97-.28-4.64-1.88-10.08-6.05-23.09-8.99-39.78-8.99-16.57 0-34.3 2.82-52.53 5.98l-3.54.61c-15.29 2.66-29.72 5.16-40.63 5.16-9.62 0-13.55-2.01-15.16-3.7-.55-.58-2.22-2.33-1.95-7.65 2.17-43.44-24.9-130.28-31.5-150.68 15.69-14.06 57.48-32.87 93.76-32.87 15.67 0 27.51 3.62 35.2 10.76 6.98 6.48 15.41 20.83 23.81 38.83-.13-1.55-.22-3.09-.21-4.62.08-9.95 2.64-19.43 7.75-28.76-4.43 2.3-9.02 4.41-13.72 6.34-4.5-7.47-8.83-13.36-12.77-17.02-33.31-30.93-120.56 1.59-141.97 25.38 0 0 .26.78.73 2.22l-40.93-6.95c-7.26-1.23-14.8.3-21.01 4.27l-88.08 56.35h69.61zm87.24-31.7c-4.9 2.31-29.69 14.71-37.54 32.77 23.18 4.76 41.9 13.56 51.49 18.69 3.83 15.99 7.23 32.53 9.24 47.42-3.97 6.88-7.44 14.07-10.65 20.76-4.13 8.62-11.83 24.66-15.69 24.66-.58 0-1.9-.62-3.73-2.36-19.11-18.16-49.66-26.18-82-34.67-12.41-3.26-25.18-6.61-37.37-10.6 16.61-53.74 86.91-91.48 122.9-107.67 1 3.2 2.13 6.9 3.35 10.99zM642.88 298.6c18.39-11.09 29.03-32.68 25.1-55.1-5.11-29.12-32.85-48.58-61.97-43.47-29.12 5.11-48.58 32.86-43.46 61.98.33 1.88.76 3.72 1.27 5.52 14.3 5.28 33.88 11.17 60.94 15.93 8.59 1.52 15.27 7.51 18.13 15.14zM75.35 154.26h76.46v-29.21h35.86V91.08H39.49v33.97h35.85v29.21zm71.71-4.76H80.11v-24.45h66.95v24.45zm-31.09-53.67h66.95v24.46h-66.95V95.83zm-71.7 0h66.95v24.46H44.27V95.83zM775.23 110.64V83.8h35.85V49.83h-76.46v29.21h-35.85v33.98h76.46v-2.38zm-35.85-56.05h66.94v24.45h-66.94V54.59zm-35.86 53.66V83.8h66.95v24.45h-66.95zM489.38 90.02V63.19h35.85V29.22h-35.85V.01h-76.46v33.98h35.85v24.45h-35.85v33.98h76.46v-2.38zm-71.7-85.26h66.95v24.45h-66.95V4.76zm35.85 29.22h66.95v24.45h-66.95V33.98zm-35.85 53.66V63.19h66.95v24.45h-66.95zM112.63 260.64H0v6.35h112.63zM888.73 260.64h-67.42v6.35h67.42z"/><path d="M477.18 239.83c-.05 8.84 2.57 18.59 8.22 27.33 8.52 13.21 22.63 24.11 43.56 33.67 21.03 9.55 49.38 17.88 88.32 24.8 1.12.2 2.24.3 3.34.3 9.06 0 17.09-6.49 18.72-15.72 1.83-10.35-5.07-20.23-15.42-22.07-49.12-8.64-78.21-19.76-93.14-29.42-7.51-4.8-11.38-9.05-13.3-12.06-1.89-3.06-2.18-4.87-2.23-6.84 0-.11.02-.24.02-.35 5.98 7.14 12.22 13.08 18.09 15.24 4.22 1.56 10.25 4.61 19.1 8.33-6.68-17.32-13.36-34.64-20.05-51.96-.06-.15-.15-.29-.21-.43 1.07-5.4-.2-11.22-3.97-15.8-6.68-8.12-18.68-9.28-26.79-2.59-.76.65-5.94 4.94-11.57 12.46-.11.15-.22.27-.33.42-5.62 7.75-12.23 19.31-12.35 34.69zM349.19 277.69c2.38 17.45 33.11-16.26 50.56-14.67 2.38-17.45-10.12-50.36-22.81-50.36s-41.24 9.52-46 23c0 0 15.87 24.59 18.24 42.04zM396.6 219.31c.01 0 1.86-.5 5.18-1.02 3.31-.53 7.99-1.05 13.42-1.05 11.23 0 25.55 2.26 37.66 11.21l2.83-3.83c-13.29-9.8-28.66-12.14-40.5-12.14-11.46 0-19.7 2.21-19.83 2.24l1.24 4.6v-.01zM409.22 234.35c1.85-.23 4.54-.47 7.84-.47 9.89 0 25.12 2.14 39.57 12.81l2.83-3.83c-15.53-11.46-31.86-13.75-42.4-13.74-7.04 0-11.56 1.01-11.69 1.04l1.05 4.64c0-.01.94-.22 2.8-.45zM410.52 246.82l1.06 4.64c0-.01.94-.22 2.79-.45 1.86-.24 4.55-.47 7.84-.47 9.89 0 25.12 2.14 39.57 12.81l2.83-3.83c-15.53-11.46-31.86-13.75-42.4-13.75-7.05 0-11.56 1.02-11.69 1.04zM356.71 292.29l2.4 4.11c0-.01 2.15-1.25 6.05-3.18 11.7-5.79 38.84-17.37 67.19-17.35 11.66 0 23.5 1.94 34.62 6.96l1.95-4.34c-11.87-5.36-24.4-7.38-36.58-7.38-39.49.04-75.46 21.1-75.64 21.18zM477.69 302.47l1.96-4.34c-11.87-5.36-24.41-7.38-36.59-7.38-39.49.04-75.46 21.1-75.64 21.18l2.39 4.11s2.15-1.25 6.05-3.18c11.7-5.79 38.84-17.37 67.19-17.35 11.66 0 23.5 1.94 34.62 6.96zM438.61 318.54s7.93 25.38 5.55 35.69c14.28 0 53.93 14.28 53.93 14.28s.79-25.38-8.72-41.24c-9.52-15.86-50.76-8.73-50.76-8.73zM424.08 320.14c-14.83 1.68-55.86 14.35-55.96 14.37l1.4 4.55c.23-.07 10.4-3.2 22.34-6.52 12.03-3.36 25.96-6.92 32.74-7.66l-.52-4.73zM369.52 339.06h-.01.01zM424.08 342.35c-14.83 1.68-55.86 14.35-55.96 14.37l1.4 4.55c.02 0 10.28-3.16 22.34-6.52 12.04-3.36 25.97-6.92 32.74-7.66l-.52-4.73zM259.47 299.02c.03 0 10.28 1.92 23.07 6.66 12.8 4.71 27.99 12.28 37.56 23.13l3.56-3.15c-21.03-23.57-63.13-31.2-63.32-31.31l-.88 4.68zM239.2 307.08l-.15 4.76s3.13.1 8.4.83c15.85 2.17 50.19 10.14 71.11 37.47l3.77-2.9c-29.77-38.58-82.9-40.08-83.13-40.15zM220.97 325.32l-.19 4.76h-.01c.02 0 3.65.15 9.68.95 18.12 2.38 56.98 10.89 77.78 38.13l3.78-2.9c-29.91-38.67-90.83-40.84-91.04-40.95zM737.05 335.83c-4.33 4.53-8.94 7.76-12.64 10.35-1.68 1.17-3.85 2.69-4.95 3.72.1.09.21.18.34.28.28.22 28.71 23.19 39.38 42.85 11.43 21.09 23.67 49.98 17.09 67.84-2.33 6.31-6.75 10.77-13.14 13.24-6.03 2.33-11.96 4.36-17.8 6.12 27.26 2.71 59.24-.67 95.3-14.61 30.58-11.82 8.04-64.47-8.15-94.35-11.96-22.07-48.87-42.93-53.5-46.59-10.9-8.61 12.1-18.1 26.38-33.04 14.28-14.93-18.62-24.19-24.55-18.7-5.2 4.81-16.89 7.92-23.56-3.37-6.66-11.29-54.34-2.53-30.78 7.57 28.29 12.12 28.29 39.23 28.29 39.23-4.89 3.53-9.52 5.95-13.93 7.81.72 2.75.65 7.01-3.79 11.64zm63.85-49.31c-6.37 11.88-20.17 18.67-20.37 14.53-.24-5.26 18.22-10.82 14.47-15.39-4.15-5.07-10.38-5.54-15.57-6.92 0 0 28.48-5.31 21.46 7.79z"/><path d="M679.63 326.02c22.3 9.55 14.09 26.02 14.09 26.02-15.78 11.41-31.19 12.42-40.84 23.19-44.97 50.17-46.13 91.18-18.45 99.02 32.6 9.22 70.1 17.42 126.98-4.55 24.11-9.31 6.34-50.82-6.42-74.37-9.43-17.4-34.5-38.5-38.15-41.39-8.6-6.79 5.51-9.61 16.77-21.39 11.26-11.77-14.68-19.07-19.36-14.74-4.1 3.79-13.32 6.24-18.57-2.66s-34.62 2.92-16.05 10.87zm84.03 121.65c7.41-21.47 1.98 40.27-28.26 11.2 0 0 20.86 10.26 28.26-11.2zm-60.63-78.9c-32.25 5.52-40.04 18.19-61.53 43.66 8.17-44.69 61.53-43.66 61.53-43.66zm27.06-40.26c-5.02 9.36-18.75 13.3-16.05 11.45 8.57-5.86 14.36-8.53 11.4-12.14-3.27-4-8.18-4.36-12.27-5.45 0 0 22.45-4.18 16.92 6.14zM551.34 455.38c15.54-2.62 25.49-6.63 25.49-11.13 0-7.88-30.54-14.28-68.21-14.28-37.67 0-68.21 6.39-68.21 14.28 0 4.5 9.95 8.51 25.49 11.13 3.03 6.71 20.98 11.88 42.73 11.88 21.75 0 39.69-5.16 42.72-11.88zm-42.92-17.47c23.66 0 42.83 2.49 42.83 5.55 0 3.07-19.18 5.55-42.83 5.55-23.66 0-42.83-2.49-42.83-5.55 0-3.07 19.18-5.55 42.83-5.55z"/></g></svg>