<svg xmlns="http://www.w3.org/2000/svg" xml:space="preserve" viewBox="0 0 4439.17 1332.78" shape-rendering="geometricPrecision" text-rendering="geometricPrecision" image-rendering="optimizeQuality" fill-rule="evenodd" clip-rule="evenodd"><g fill="currentColor"><path d="M376.26 1161.1c-7.39-7.91-11.26-18.22-10.89-29.04 1.43-42.17 6.98-75.78 14.62-102.63-25.02 3.9-53.71 6.55-85.89 6.95v242.94c0 27.13 22 49.12 49.12 49.12 27.13 0 49.12-21.99 49.12-49.12v-107.69a40.242 40.242 0 0 1-16.08-10.53zM277.72 1036.37c-37.62-.46-70.42-4.03-98.24-9.03v251.97c0 27.13 22.01 49.12 49.12 49.12 27.14 0 49.12-21.99 49.12-49.12v-242.94zM27.75 868.33c17.47 2.31 33.52-10 35.83-27.48 20.31-154.04 59.96-235.32 93.85-277.98L73.06 977.51s73.75 44.21 212.85 44.21c37.96 0 71.01-3.3 99.06-8.09 21.26-60.8 53.3-80.42 64.14-85.48 3.7-2.51 7.74-4.24 11.97-5.16-16.18-17.02-26.19-39.96-26.19-65.24 0-25.29 10.02-48.25 26.22-65.26l-46.68-229.41c28.1 35.54 60.29 97.79 81.99 206.01 7.61-2.86 15.65-4.86 24.04-5.67-.33-46.11 1.62-88.04 5.88-125.66-58.21-157.63-141.09-180.74-160.31-184.01-8.42-2.1-44-10.43-80.13-10.43-36.12 0-71.71 8.32-80.12 10.43C180.45 458.06 44.54 496.77.26 832.51c-2.3 17.48 10 33.52 27.48 35.83zM391.52 315.64c0-58.33-47.28-105.61-105.61-105.61-58.32 0-105.6 47.28-105.6 105.61 0 58.32 47.28 105.6 105.6 105.6 58.33 0 105.61-47.28 105.61-105.6zM2133.52 642.45c-8.48 7.79-18.15 14.3-28.7 19.23 11.34 1.72 20.5 3.97 27.89 6.39 0-.41-.03-.82-.03-1.23 0-8.1.31-16.24.84-24.39zM2161.99 517.36c2.31-5.88 4.72-11.73 7.28-17.52h16.27c-6.32 13.72-11.9 27.83-16.76 42.2.87 5.63 1.33 11.4 1.33 17.28 0 23.74-7.38 45.77-19.93 63.98-1.74 14.49-2.75 29.04-2.75 43.55 0 2.43.13 4.75.18 7.14 36.84 17.12 98.66 66.47 134.14 208.06 46.99 20.52 102.37 29.44 159.61 29.44 18.81 0 37.42-.98 55.6-3-16.21-11.37-26.64-30.4-26.03-51.65 5.67-197.49 44.3-330.53 114.84-395.43 31.7-29.17 62.14-37.53 80.46-39.72-20.07-23.52-32.23-53.97-32.23-87.24 0-22.87 5.75-44.4 15.85-63.28-29.75-19.15-56.95-28.01-74.95-32.08-29.26 42.46-78.2 70.36-133.54 70.36-55.35 0-104.29-27.9-133.55-70.36-30.59 6.9-87.76 27.58-138.74 89.25-28.92 34.99-51.3 77.49-67.11 127.31 27.25 11.83 48.93 34.09 60.03 61.72zM2298.37 970.25c3.17 23.49-13.35 45.17-36.84 48.35-1.92.26-3.87.39-5.79.39-9.14 0-17.71-2.94-24.76-7.95l52.18 263.1c0 32.39 32.44 58.65 72.44 58.65 40.02 0 72.47-26.26 72.47-58.65V926.03c-53.25-1.27-101.28-10.24-142.16-26.36 4.79 21.51 9.01 44.96 12.47 70.59zM2484.96 1177.73l45.25-258.26h-.23c-1.3-.04-2.57-.19-3.85-.31-22.55 3.95-46.44 6.27-71.5 6.87v348.11c0 32.39 32.45 58.65 72.46 58.65 40.01 0 72.45-26.26 72.45-58.65l9.16-46.19c-72.03-18.01-111.73-42.61-114.29-44.24l-9.45-5.98z"/><path d="M2441.35 294.71c81.38 0 147.35-65.97 147.35-147.36C2588.7 65.98 2522.72 0 2441.35 0c-81.38 0-147.36 65.98-147.36 147.35 0 81.38 65.98 147.36 147.36 147.36zM1858.29 137.89c0-61.04-49.48-110.52-110.52-110.52-61.03 0-110.52 49.48-110.52 110.52s49.49 110.52 110.52 110.52c61.05 0 110.52-49.48 110.52-110.52zM1578.07 803.75c2.44-3.97 4.17-8.41 5.08-13.13-9.29-51.48-20.91-92.85-33.39-126.03l28.32 139.16z"/><path d="M1591.45 535.24c6.07-48.7 14.56-84.47 23.47-110.63v151.1c29.31 57.6 55.6 139.15 70.84 254.74 3.43 26.05-14.97 50.04-41.01 53.47-2.07.28-4.18.41-6.27.41-8.52 0-16.57-2.32-23.57-6.33v106.86l.09.42-.09.05v282.53c0 33.55 27.2 60.73 60.73 60.73s60.73-27.18 60.73-60.73V773.7h22.77v494.16c0 33.55 27.19 60.73 60.73 60.73 33.54 0 60.74-27.18 60.74-60.73v-255.05a42.676 42.676 0 0 1-22.12 6.18c-1.92 0-3.86-.13-5.78-.38-23.5-3.18-40.02-24.87-36.85-48.35 13.4-99.16 37.95-166.13 64.74-211.37V423.58c17.46 51.08 33.4 139.35 32.47 291 22.88-24.93 44.82-37.37 60.49-43.56 4.82-2 10.67-3.98 17.78-5.76-.09-4.83-.19-9.64-.31-14.38-28.38-20.54-46.9-53.92-46.9-91.55 0-30.29 12-57.81 31.47-78.12-14.3-80.98-38.09-138.88-71.3-173.02-20.15-20.72-39.45-27.96-51.71-30.41-3.18-.86-6.5-1.37-9.96-1.37h-189.77c-3.48 0-6.83.51-10.03 1.38-12.28 2.44-31.46 9.64-51.64 30.39-30.68 31.54-53.32 83.34-67.87 154.89 20.8 14.4 44.73 36.94 68.11 72.19zM3844.33 137.89c0-61.04-49.48-110.52-110.52-110.52-61.03 0-110.52 49.48-110.52 110.52s49.49 110.52 110.52 110.52c61.05 0 110.52-49.48 110.52-110.52zM3542.41 521.84c0 39.81-20.1 75-50.67 96l-.27 6.16h8.25c1.44-.13 2.89-.21 4.36-.21 1.21 0 2.41.08 3.62.16l.85.05c1.77 0 3.5.12 5.21.32 19.9 1.87 38.87 9.98 55.51 23.48 3.4-110.66 16.97-179.99 31.68-223.19v260.1c35.5 57.75 50.86 154.25 44.53 282.37-1.21 24.37-20.51 43.63-44.53 45.14v255.63c0 33.55 27.2 60.73 60.73 60.73 33.54 0 60.74-27.18 60.74-60.73V773.69h22.76v494.16c0 33.55 27.2 60.73 60.73 60.73s60.74-27.18 60.74-60.73V894.02a55.734 55.734 0 0 1-21.92 5.89c-1.1.06-2.21.09-3.31.09-29.59 0-54.13-23.15-55.86-52.72-12.36-211.3 14.93-350.64 81.09-414.28v-9.45c.79 2.32 1.58 4.74 2.36 7.21 27.36-25.23 54.57-32.22 71.56-33.83-13.23-38.3-29.97-67.96-50.21-88.78-20.15-20.72-39.45-27.96-51.71-30.41-3.18-.86-6.5-1.37-9.96-1.37h-189.77c-3.47 0-6.83.51-10.03 1.38-12.28 2.44-31.47 9.64-51.64 30.39-28.03 28.82-49.34 74.59-63.91 136.84 18.07 20.52 29.06 47.41 29.06 76.84zM537.14 763.33c36.35 2.85 66.99 26.22 80.26 58.56-7.51-159.85 11.35-246.56 32.45-290.44v432.81c20.5 29.25 41.19 80.18 44.16 167.79.37 10.82-3.49 21.13-10.89 29.04-7.39 7.9-17.42 12.46-28.24 12.83l-1.38.02c-1.23 0-2.44-.07-3.65-.18v94.61c0 33.55 27.2 60.73 60.73 60.73s60.74-27.18 60.74-60.73v-443.4h22.77v443.4c0 33.55 27.2 60.73 60.73 60.73 33.54 0 60.74-27.18 60.74-60.73v-258.53c-18.08-6.09-31.38-22.68-32.37-42.77-5.55-112.41 5.58-200.51 32.37-259.43V531.45c12.49 25.97 24.19 66.97 30.11 129.22.59-.65 1.17-1.32 1.77-1.95 19.19-20.16 42.64-32.07 67.8-34.44 1.37-.16 3.11-.28 4.88-.28l.56-.03c-1.07-7.97-2.24-15.74-3.52-23.27-19.16-20.76-30.89-48.46-30.89-78.87 0-6.99.66-13.83 1.84-20.49-11.02-23.67-24.29-42.85-39.83-57.44-27.56-25.9-54.48-30.35-68.31-30.68-.79-.04-1.58-.12-2.39-.12H687.81c-.83 0-1.64.07-2.45.12-13.85.34-40.73 4.82-68.24 30.67-54.45 51.16-81.24 158.46-79.98 319.42zM893.21 274.61c0-61.04-49.48-110.52-110.52-110.52-61.03 0-110.52 49.48-110.52 110.52s49.49 110.52 110.52 110.52c61.05 0 110.52-49.48 110.52-110.52zM1392.73 1036.37v242.94c0 27.13 21.99 49.12 49.12 49.12s49.12-21.99 49.12-49.12v-251.97c-27.82 5-60.62 8.57-98.24 9.03zM1376.35 1036.37c-37.62-.46-70.41-4.03-98.24-9.03v251.97c0 27.13 22.01 49.12 49.12 49.12 27.13 0 49.12-21.99 49.12-49.12v-242.94zM1230.42 982.62v18.33c6.72 1.99 14 3.96 21.84 5.86-9.86-5.25-17.63-13.84-21.84-24.19z"/><path d="M1158.41 624.01h17.99c1.44-.13 2.89-.21 4.36-.21 1.21 0 2.41.08 3.62.16l.85.05c1.76 0 3.49.12 5.21.32 8.8.83 17.41 2.92 25.73 6.09 13.21-29.39 26.96-51.27 39.88-67.54l-16.32 80.21c6.37 4.5 12.48 9.66 18.17 15.64 49.43 51.93 71.65 158.56 64.25 308.36-1.2 24.37-20.5 43.62-44.51 45.14 29.67 5.53 65.33 9.49 106.89 9.49 139.11 0 212.85-44.21 212.85-44.21l-84.33-414.43c33.81 42.77 73.54 124.12 93.81 277.77 2.12 16.07 15.84 27.76 31.61 27.76 1.39 0 2.8-.09 4.21-.28 17.48-2.31 29.78-18.35 27.48-35.83-44.28-335.75-180.18-374.45-205.51-378.76-8.42-2.1-44.01-10.43-80.13-10.43-36.13 0-71.71 8.32-80.13 10.43-11.72 2-47.14 11.38-86.19 54.15.55 4.58.86 9.22.86 13.94 0 44.01-24.55 82.38-60.67 102.17zM1490.15 315.64c0-58.33-47.28-105.61-105.6-105.61-58.33 0-105.61 47.28-105.61 105.61 0 58.32 47.28 105.6 105.61 105.6 58.32 0 105.6-47.28 105.6-105.6z"/><path d="M990.64 735.29v187.89h224.06V735.29c15.52 30.8 34.49 96.2 27.99 227.86-.87 17.61 12.7 32.59 30.32 33.47.54.02 1.07.04 1.6.04 16.91 0 31.02-13.28 31.86-30.35 7.18-145.4-13.54-248-59.93-296.74-16.68-17.52-36.55-27.62-57.89-29.63a29.59 29.59 0 0 0-3.41-.21h-.55c-1.31-.06-2.61-.21-3.92-.21-1.21 0-2.39.08-3.57.21h-149.05c-1.17-.13-2.36-.21-3.56-.21-1.32 0-2.62.15-3.93.21h-.55c-1.15 0-2.29.08-3.41.21-21.33 2.01-41.21 12.11-57.88 29.63-46.39 48.74-67.12 151.34-59.94 296.74.84 17.07 14.95 30.35 31.86 30.35.53 0 1.06-.01 1.6-.04 17.62-.87 31.18-15.85 30.32-33.47-6.5-131.67 12.47-197.07 27.99-227.86z"/><path d="M1214.7 937.92H990.64v339.75c0 28.14 22.82 50.96 50.97 50.96 28.13 0 50.95-22.83 50.95-50.96v-242.73h20.2v242.73c0 28.14 22.82 50.96 50.97 50.96 28.14 0 50.96-22.83 50.96-50.96V937.92zM1102.67 622.54c55.62 0 100.7-45.09 100.7-100.7s-45.09-100.69-100.7-100.69-100.69 45.08-100.69 100.69 45.08 100.7 100.69 100.7zM2043.29 1136.62c-31.01-.95-57.81-5-79.9-10.06v160.88c0 22.06 17.88 39.95 39.95 39.95 22.06 0 39.95-17.89 39.95-39.96v-150.81zM2070.94 1136.62v150.82c0 22.06 17.89 39.95 39.96 39.95 22.06 0 39.95-17.89 39.95-39.96v-160.87c-22.09 5.06-48.9 9.11-79.91 10.06zM1958.88 559.31c0 54.26 43.98 98.24 98.24 98.24s98.24-43.98 98.24-98.24-43.98-98.24-98.24-98.24-98.24 43.98-98.24 98.24zM2132.14 683.46c-8.11-3.05-19.69-6.11-35.89-8.09-11.22-1.82-25.11-3.43-39.12-3.43-14.01 0-27.9 1.61-39.12 3.43-16.25 1.99-27.85 5.06-35.96 8.11-36.33 12.75-121.49 66.17-151.57 288.74-2.08 15.46 8.75 29.69 24.21 31.77 15.52 2.08 29.69-8.76 31.77-24.21 12.16-89.96 33.36-146.96 54.5-183.02-19.24 88.98-43.06 215-43.06 293.67 0 0 59.28 34.14 159.24 34.14 99.96 0 159.24-34.14 159.24-34.14 0-78.67-23.83-204.7-43.07-293.68 21.15 36.05 42.35 93.06 54.5 183.03 1.92 14.18 14.04 24.47 27.96 24.47 1.26 0 2.54-.08 3.82-.26 15.46-2.09 26.29-16.32 24.21-31.77-30.09-222.68-115.32-276.04-151.63-288.76zM653.49 1159.22c.29 0 .59 0 .89-.01 14.24-.48 25.38-12.41 24.9-26.64-5.32-156.78-69-188.4-76.23-191.49-.03-.01-.07-.02-.11-.03-3.31-2.53-7.39-4.1-11.85-4.1h-9.42c-14.94 9.84-32.79 15.61-51.98 15.61-19.18 0-37.03-5.77-51.97-15.61h-9.42c-4.5 0-8.62 1.6-11.94 4.17l-.02-.04c-7.24 3.09-70.92 34.71-76.23 191.49-.48 14.23 10.66 26.16 24.9 26.64.3.01.6.01.89.01 13.84 0 25.28-10.98 25.76-24.92 1.6-47.14 8.78-79.62 17-101.8v260.15c0 20.35 16.49 36.84 36.84 36.84 20.35 0 36.84-16.49 36.84-36.84v-117.88h14.74v117.88c0 20.35 16.49 36.84 36.84 36.84 20.35 0 36.84-16.49 36.84-36.84v-260.56c8.19 22.15 15.39 54.74 17 102.21.47 13.94 11.92 24.92 25.76 24.92zM529.69 932.89c41.5 0 75.14-33.64 75.14-75.14s-33.64-75.15-75.14-75.15-75.15 33.65-75.15 75.15c0 41.5 33.65 75.14 75.15 75.14zM2530.53 902.77c.43.01.86.02 1.29.02 1.13 0 2.23-.08 3.33-.17l36.53-208.5c-5.74-22.22-3.66-46.55 7.87-68.46 4.99-9.47 11.4-17.7 18.75-24.69-1.8 2.73-3.49 5.56-5.05 8.52-25.6 48.62-6.95 108.77 41.67 134.37 28.03 14.76 59.87 14.73 86.75 2.79-28.66 21.51-68.21 26.06-102.03 8.26-16.12-8.49-28.72-20.98-37.43-35.55l-78.88 450.24s95.74 60.58 265.24 60.58c87.85 0 155.83-16.27 200.99-31.95V859.14c-2.26 8.1-6.36 15.63-12.11 22.1-9.94 11.18-23.64 17.81-38.57 18.68-1.1.06-2.21.09-3.3.09-29.59 0-54.13-23.15-55.87-52.72-1.7-28.98-2.62-56.56-2.82-82.82a95.754 95.754 0 0 1-41.41-17.82 99.787 99.787 0 0 0 41.36 8.6c-.17-138.59 20.87-238.24 62.84-297.5-31.11-20.38-57.1-20.33-62.83-20.03-1.02.06-2.03.2-3.03.32-.25 0-.5-.04-.75-.04h-5.75c-21.88 16.68-49.17 26.61-78.74 26.61-29.58 0-56.86-9.93-78.74-26.61h-5.75c-.26 0-.5.03-.75.04-1-.12-2-.26-3.03-.32-6.98-.37-43.69-.43-83.25 35.97-67.09 61.73-103.92 190.8-109.45 383.62-.69 24.4 18.52 44.75 42.92 45.45zM2758.26 1244.8c-45.21-.65-85.06-5.42-119.16-12.1l6.58 52.69c0 25.17 25.2 45.56 56.28 45.56 31.09 0 56.3-20.4 56.3-45.56v-40.59zM2778.9 1244.8v40.59c0 25.17 25.21 45.56 56.3 45.56 31.09 0 56.3-20.4 56.3-45.56l6.58-52.69c-34.11 6.69-73.96 11.46-119.17 12.1z"/><path d="M2768.58 452.33c65.11 0 117.88-52.78 117.88-117.88 0-65.11-52.78-117.89-117.88-117.89-65.11 0-117.89 52.78-117.89 117.89 0 65.1 52.78 117.88 117.89 117.88zM2876.4 846.32c1.22 20.88 18.54 37 39.19 37 .77 0 1.55-.02 2.33-.06 21.66-1.27 38.2-19.86 36.93-41.52-10.1-172.6 9.46-264.61 31.42-310.28v736.93c0 33.55 27.2 60.73 60.73 60.73 33.54 0 60.74-27.18 60.74-60.73v-443.4h22.77v443.4c0 33.55 27.2 60.73 60.73 60.73 33.54 0 60.74-27.18 60.74-60.73v-256.1c-24.45-1.07-44.25-20.5-45.47-45.19-6.38-129.24 9.3-226.31 45.46-283.88V531.48c11.71 24.36 22.73 61.91 28.94 117.82 17.08-14.38 36.75-23.02 57.64-24.99 1.37-.16 3.11-.28 4.88-.28l.86-.05c1.2-.08 2.4-.16 3.62-.16 1.47 0 2.92.08 4.36.21h4.83c-.42-3.15-.85-6.3-1.3-9.38-28.05-21.27-46.21-54.95-46.21-92.79 0-13.1 2.21-25.69 6.22-37.45-9.11-16.03-19.47-29.55-31.1-40.48-27.56-25.9-54.49-30.35-68.31-30.68-.79-.04-1.58-.12-2.38-.12h-189.77c-.83 0-1.64.07-2.45.12-13.84.34-40.73 4.82-68.24 30.67-63.33 59.5-89.28 194.89-77.14 402.41zM3229.64 274.61c0-61.04-49.48-110.52-110.52-110.52s-110.52 49.48-110.52 110.52 49.48 110.52 110.52 110.52c61.05 0 110.52-49.48 110.52-110.52zM3947.63 413.24c-13.85.34-40.73 4.82-68.24 30.67-63.33 59.5-89.28 194.89-77.15 402.41 1.23 20.88 18.54 37 39.19 37 .77 0 1.55-.02 2.33-.06 21.67-1.27 38.2-19.86 36.93-41.52-10.1-172.6 9.46-264.61 31.42-310.28v736.93c0 33.55 27.2 60.73 60.73 60.73 33.54 0 60.74-27.18 60.74-60.73v-443.4h22.77v443.4c0 33.55 27.2 60.73 60.72 60.73 33.54 0 60.74-27.18 60.74-60.73v-96.25a41.029 41.029 0 0 1-12.06 1.82l-1.36-.02c-10.85-.37-20.87-4.93-28.27-12.83-7.39-7.91-11.26-18.22-10.89-29.04 3.38-99.68 29.69-151.87 52.58-178.66V531.48c20.33 42.29 38.59 124.36 33.16 273.32 17.05-25.22 45.91-41.83 78.58-41.83.33 0 .64.05.97.05 1.22-160.77-25.57-267.97-79.98-319.09-27.56-25.9-54.48-30.35-68.31-30.68-.79-.04-1.58-.12-2.39-.12h-189.77c-.83 0-1.64.07-2.45.12zM4155.49 274.61c0-61.04-49.48-110.52-110.52-110.52s-110.52 49.48-110.52 110.52 49.49 110.52 110.52 110.52c61.04 0 110.52-49.48 110.52-110.52zM3313.97 937.92v339.75c0 28.14 22.82 50.96 50.97 50.96 28.13 0 50.95-22.83 50.95-50.96v-242.73h20.2v242.73c0 28.14 22.82 50.96 50.97 50.96 28.14 0 50.96-22.83 50.96-50.96V937.92h-224.06z"/><path d="M3597.93 996.66c16.91 0 31.02-13.28 31.86-30.35 7.18-145.4-13.55-248-59.94-296.74-16.67-17.52-36.55-27.62-57.89-29.63-1.11-.13-2.25-.21-3.41-.21h-.54c-1.31-.06-2.61-.21-3.93-.21-1.21 0-2.39.08-3.57.21h-149.05c-1.17-.13-2.36-.21-3.56-.21-1.32 0-2.62.15-3.92.21h-.55c-1.15 0-2.29.08-3.41.21-21.33 2.01-41.22 12.11-57.89 29.63-46.39 48.74-67.11 151.34-59.93 296.74.85 17.07 14.95 30.35 31.86 30.35.53 0 1.06-.01 1.6-.04 17.62-.87 31.19-15.85 30.32-33.47-6.5-131.67 12.47-197.07 27.99-227.86v187.89h224.06V735.29c15.51 30.8 34.49 96.2 27.98 227.86-.86 17.61 12.7 32.59 30.32 33.47.54.02 1.07.04 1.6.04zM3325.31 521.84c0 55.61 45.08 100.7 100.69 100.7 55.62 0 100.7-45.09 100.7-100.7s-45.08-100.69-100.7-100.69c-55.61 0-100.69 45.08-100.69 100.69zM4341.54 936.93c-14.94 9.84-32.79 15.61-51.97 15.61s-37.03-5.77-51.97-15.61h-9.42c-4.51 0-8.62 1.6-11.95 4.17l-.01-.04c-7.25 3.09-70.93 34.71-76.24 191.49-.48 14.23 10.66 26.16 24.9 26.64.3.01.59.01.89.01 13.84 0 25.28-10.98 25.76-24.92 1.6-47.14 8.78-79.62 17-101.8v260.15c0 20.35 16.49 36.84 36.84 36.84 20.35 0 36.84-16.49 36.84-36.84v-117.88h14.73v117.88c0 20.35 16.49 36.84 36.84 36.84 20.35 0 36.84-16.49 36.84-36.84v-260.56c8.18 22.15 15.39 54.74 17 102.21.47 13.94 11.92 24.92 25.76 24.92.29 0 .59 0 .89-.01 14.24-.48 25.38-12.41 24.9-26.64-5.31-156.78-69-188.4-76.24-191.49l-.1-.03c-3.31-2.53-7.39-4.1-11.85-4.1h-9.43zM4289.57 782.6c-41.5 0-75.15 33.65-75.15 75.15 0 41.5 33.65 75.14 75.14 75.14 41.51 0 75.15-33.64 75.15-75.14s-33.64-75.15-75.14-75.15z"/></g></svg>