<svg xmlns="http://www.w3.org/2000/svg" xml:space="preserve" viewBox="0 0 3042.94 3024.33" shape-rendering="geometricPrecision" text-rendering="geometricPrecision" image-rendering="optimizeQuality" fill-rule="evenodd" clip-rule="evenodd"><g fill="currentColor"><path d="M1597.87 802.78c92.48-211.38 216.5-367.67 369.57-465.4 149.34-95.34 289.86-109.57 360.35-109.57 36.82 0 59.23 3.7 61.65 4.12l8.39 1.45 204.16 119.26-.05.81 255.28-235.04s-32.91-17.37-90.54-38.78l-157.93 161.46-21.63-21.16 148.15-151.47c-24.16-8.23-51.49-16.66-81.6-24.72l-100.19 116.99-22.98-19.68 90.46-105.64c-23.03-5.54-47.48-10.71-73.11-15.33l-64.81 94.3-24.93-17.13 56.83-82.69c-95.36-14.67-205.55-20.64-323.99-6.64-374.01 44.24-617.59 507.47-601.52 720.61 1.87 24.54 4.89 49.36 8.43 74.24zM476.87 1763.85l50.04 313.7-22.33 258.81H715.5v21.16H502.75l-4.43 51.4h-44.24v85.14H907.6v-85.14h-44.24l-28.73-333.05 31.86-325.54-127.2-.01v13.54H476.85zm199.21 373.34c-30.66 0-55.52-24.86-55.52-55.53s24.86-55.53 55.52-55.53c30.67 0 55.53 24.86 55.53 55.53s-24.86 55.53-55.53 55.53zM1945.02 1763.85h-216.71v-13.54h-173.77l52.21 327.24-22.33 258.81h202.06v21.16h-203.89l-4.44 51.4h-44.23v85.14h453.52v-85.14h-44.24l-28.73-333.05 30.54-312.01zm-187.89 373.34c-30.66 0-55.52-24.86-55.52-55.53s24.86-55.53 55.52-55.53c30.67 0 55.53 24.86 55.53 55.53.01 30.67-24.86 55.53-55.53 55.53zM25.31 2725.25H-.01v81.69h205.55c16.11-106.59 108.33-188.55 219.34-188.55 111.02 0 203.24 81.96 219.35 188.55h104.6c16.11-106.59 108.34-188.55 219.34-188.55 111.03 0 203.24 81.96 219.35 188.55h104.6c16.12-106.59 108.34-188.55 219.34-188.55 111.02 0 203.24 81.96 219.35 188.55h104.61c16.1-106.59 108.33-188.55 219.33-188.55 111.02 0 203.24 81.96 219.35 188.55h205.55V2541.9H-.03v128.09h188.62v15.24H-.03V2710h25.32v15.25zm27.88-81.94v-15.25h212.42v15.25H53.19zM58.5 2710h103.55v15.25H58.5V2710z"/><path d="M424.89 2656.15c-101.68 0-184.11 82.42-184.11 184.1.01 101.67 82.43 184.09 184.1 184.09 101.68 0 184.1-82.42 184.1-184.09 0-101.68-82.43-184.1-184.09-184.1zm53.4 184.1-53.4 53.4-53.41-53.4 53.41-53.4 53.4 53.4zM968.19 2656.15c-101.68 0-184.1 82.42-184.1 184.1 0 101.67 82.42 184.09 184.09 184.09 101.68 0 184.1-82.42 184.1-184.09 0-101.68-82.43-184.1-184.09-184.1zm53.4 184.1-53.4 53.4-53.41-53.4 53.41-53.4 53.4 53.4zM1511.48 2656.15c-101.67 0-184.1 82.42-184.1 184.1 0 101.67 82.42 184.09 184.09 184.09 101.68 0 184.1-82.42 184.1-184.09 0-101.68-82.43-184.1-184.09-184.1zm53.4 184.1-53.4 53.4-53.41-53.4 53.41-53.4 53.4 53.4zM2054.78 2656.15c-101.67 0-184.1 82.42-184.1 184.1 0 101.67 82.42 184.09 184.09 184.09 101.68 0 184.1-82.42 184.1-184.09.01-101.68-82.42-184.1-184.09-184.1zm53.4 184.1-53.4 53.4-53.41-53.4 53.41-53.4 53.4 53.4zM342.55 1597.35c-48.04-114.04-92.95-267.37-72.9-413.37 8.63-62.83 29.25-112.77 55.76-152.46l-46.96-30.82 11.61-17.68 47.7 31.3c3.2-4.18 6.48-8.22 9.81-12.15l-76.77-74.24 14.71-15.21 76.28 73.77c3.35-3.48 6.75-6.84 10.17-10.09l-34.23-42.75 16.51-13.23 33.54 41.89c24.9-20.79 50.81-36.39 74.83-48.01 80.25-38.85 155.66-41.7 158.83-41.8l1.51-.03h33.11C478.32 812.27 44.91 610.48 44.91 977.46c.01 454.82 129.42 497.22 129.42 941.13 0 394.13 137.41-186.13 168.23-321.24z"/><path d="m1961.84 1732.12 165.01-217.77 85.13-271.12-156.03-412.52 32.62-37.88 138.41 335.73 176.7 53.01 17.82-48.68-122.07-38.44 7.54-23.98 123.18 38.78 215.01-587.37-91.74-143.03-172.02-100.49s-514.4-89.13-779.45 641.23H622.94s-270.62 8.69-306.61 270.79c-30.79 224.19 106.51 474.08 146.9 541.72h276.08v17.84l988.99-.01v-17.83h233.53zM2424.3 548.39c34.16 0 61.84 27.7 61.84 61.85 0 34.16-27.69 61.85-61.85 61.85s-61.85-27.69-61.85-61.85c.01-34.15 27.69-61.85 61.86-61.85zM1503.28 1640.9H949.55v-27.49h495.05v-489.76h27.49v489.76h31.19v27.49zM1322.15 2495.33v-710.01h-23.81v36.36h-138.82v-36.36h-23.8v710.01h23.8v-64.12h138.82v64.12h23.81zm-23.81-454.61v73.83h-138.82v-73.83h138.82zm-138.82-23.8v-73.82h138.82v73.82h-138.82zm138.82 121.43v73.82h-138.82v-73.82h138.82zm0 97.62v73.83h-138.82v-73.83h138.82zm0-390.48v73.82h-138.82v-73.82h138.82zm-138.82 561.93v-73.83h138.82v73.83h-138.82zM2362.17 2141.43l19.07 43.5c1.72 3.93 4.47 7.31 7.95 9.81l97.19 69.42c4.19 2.99 9.01 4.43 13.8 4.43 7.43 0 14.74-3.47 19.39-9.97 7.64-10.69 5.16-25.56-5.54-33.21l-91.84-65.6-34.45-78.53c-.77-2.38-1.77-4.66-3.08-6.79-2.11-4.36-5.37-7.79-9.29-10.08-17.58-14.01-48.16-18.95-78.87 2.09-48.41 33.54-73.33 60.28-104.24 113.86-11.34 23.65-8.82 40.91-.73 54.16l-116.62 41.88-44.5 35.84 57-3.94 121.23-51.57 22.06 86.98-30.82 112.85c-4.61 16.91 5.34 34.35 22.25 38.97 16.9 4.62 34.35-5.34 38.97-22.25l33.02-120.92c1.44-5.28 1.49-10.85.14-16.16l-4.34-17.15 36.18 34.84 3.57 115.99c.53 17.18 14.62 30.75 31.69 30.75.32.01.66 0 .99-.01 17.53-.54 31.28-15.18 30.74-32.7l-3.96-128.91a31.855 31.855 0 0 0-9.72-21.9l-97.73-94.08c.22-.29.41-.6.64-.88l58.14-22.78 2.31 5.9 6.81-2.66-10.49-26.77-6.81 2.67 2.33 5.9-30.48 11.94c19.58-20.97 41.09-39.57 58.04-54.92zM2581.74 2018.83s-2.72-61.09-62.79-105.97c-60.06-44.88-109.1-14.15-136 18.83-26.88 32.98-43.76 80.98-95.69 65.91 23.93 19.58 42.69 26.72 57.44 27.14l30.77-19.24c4.25-9.07 16.08-33.4 26.44-46.31 17.04-21.23 51.8-34.44 93.72-1.82 2.24 1.74 4.37 3.57 6.34 5.45 18.78 17.83 22.78 39.2 21.24 56.31l58.53-.29z"/><path d="m2467.58 2097.67 38.22-60.69s19.95-40.32-17.85-69.74c-37.8-29.42-64.51-14.9-76.29-.23-11.77 14.68-26.41 47.12-26.41 47.12l-21.21 13.26 35.7 33.89 26.77 51.26 27.31-54.88-8.37-24.1 10.99-24.06 15.47 42.71-15.88 26.94 11.54 18.5zM2882.4 2594.47c-2.03-2.8-4.59-4.99-7.39-6.62-17.61-13.9-48.09-18.75-78.71 2.23-48.39 33.54-73.32 60.28-104.23 113.86-14.8 30.86-6.05 50.88 7.97 65.23l-104.18 37.41-44.5 35.84 57-3.94 103.66-44.09 16.68 65.83-88.78 112.6c-10.85 13.77-8.5 33.72 5.26 44.57 5.82 4.6 12.74 6.81 19.63 6.81 9.39 0 18.67-4.14 24.93-12.09l98.48-124.88a31.679 31.679 0 0 0 5.84-27.45l-8.75-34.54 24.21 19.05 49.9 152.18c5.46 16.65 23.38 25.72 40.04 20.27 16.66-5.46 25.72-23.39 20.27-40.04l-52.89-161.3a31.743 31.743 0 0 0-10.54-15.06l-55.92-43.97-.98-2.51 62.01-24.29 2.31 5.9 6.8-2.66-10.49-26.77-6.8 2.67 2.32 5.9-62 24.29-1.97-5.02c22.95-27.37 51.16-51.36 71.92-70.25 2.22-1.69 4.28-3.55 6.26-5.51l36.91 50.89c4.62 6.38 11.87 9.83 19.28 9.83 4.04 0 8.11-1.02 11.83-3.17l93.22-53.54c11.4-6.55 15.33-21.09 8.79-32.49-6.55-11.4-21.1-15.35-32.5-8.79l-74.65 42.89-50.23-69.27zM2770.64 2468.23c.34 42.55 17.99 90.28-31.61 111.81 30.91-.19 49.92-6.68 61.53-15.77l11.41-34.44c-2.5-9.7-8.93-35.97-9.2-52.54-.43-27.21 17.9-59.57 70.99-61.21 2.84-.09 5.65-.04 8.37.15 25.83 1.74 42.55 15.64 52.28 29.8l44.87-37.59s-41.08-45.29-115.97-41.51c-74.88 3.79-93.02 58.74-92.68 101.3z"/><path d="m2921.03 2535.12 20.69 6.87-9.32-71.11s-10.37-43.78-58.24-42.31c-47.87 1.48-59.18 29.7-58.87 48.51.29 18.82 9.73 53.13 9.73 53.13l-7.86 23.75 49.12 3.31 53.31 22.39-13.99-59.68-21.82-13.23-6.9-25.52 39.18 22.99 4.98 30.88zM806.29 342.1c12.61-12.61 22.89-26.63 31.15-41.46-71.16 61.4-178.66 58.51-246.19-9.02s-70.43-175.02-9.02-246.19c-14.84 8.27-28.86 18.55-41.46 31.15-73.31 73.32-73.32 192.2 0 265.52s192.2 73.32 265.52 0zM702.86 2081.65c0-14.79-11.99-26.77-26.77-26.77s-26.77 11.99-26.77 26.77c0 14.79 11.99 26.77 26.77 26.77 14.79 0 26.77-11.99 26.77-26.77zM1783.91 2081.65c0-14.79-11.99-26.77-26.77-26.77s-26.77 11.99-26.77 26.77c0 14.79 11.99 26.77 26.77 26.77 14.79 0 26.77-11.99 26.77-26.77z"/></g></svg>