<svg xmlns="http://www.w3.org/2000/svg" xml:space="preserve" viewBox="0 0 570.83 479.51" shape-rendering="geometricPrecision" text-rendering="geometricPrecision" image-rendering="optimizeQuality" fill-rule="evenodd" clip-rule="evenodd"><g fill="currentColor"><path d="m193.01 155.55.1-.13c28.06-37.98 50.09-57.18 90.68-79.01 9.17-4.86 18.49-7.52 27.76-7.92 3.6-.15 7.14.06 10.57.58-38.66-18.81-159.16-65.98-188.13 60.03-14.15 61.53 50.92 46.68 50.92 46.68s.83-.77 2.38-2.17c.52-6.33 2.22-12.47 5.64-17.93l.08-.13zM109.79 454.58c-46.87 0-84.87-38-84.87-84.87 0-46.87 38-84.87 84.87-84.87a84.59 84.59 0 0 1 31.86 6.21l13.62-21.26a109.367 109.367 0 0 0-45.49-9.87C49.14 259.92-.01 309.08-.01 369.71c0 60.64 49.16 109.79 109.79 109.79 56.32 0 102.72-42.43 109.03-97.07h-25.12c-6.14 40.83-41.37 72.14-83.91 72.14zM261.51 203.93c2.17 3.94 4.19 7.87 6.13 11.93 1.43 3 2.91 6.3 4.41 9.82h67.41l-67.27-32.76c-3.72 3.57-7.31 7.24-10.67 11.01zM357.15 84.42c20.27 16.86 50.35 14.09 67.21-6.17 16.86-20.26 14.09-50.36-6.17-67.21-20.26-16.86-50.35-14.09-67.21 6.17-16.86 20.26-14.09 50.36 6.17 67.22zM461.04 259.93c-12.38 0-24.26 2.08-35.36 5.85l10.8 22.69a84.803 84.803 0 0 1 24.57-3.62c46.87 0 84.87 38 84.87 84.87 0 46.87-37.99 84.87-84.87 84.87-46.87 0-84.87-38-84.87-84.87 0-29.25 14.8-55.04 37.32-70.3l-10.8-22.69c-30.89 19.43-51.45 53.8-51.45 92.99 0 60.64 49.16 109.79 109.79 109.79 60.63 0 109.79-49.16 109.79-109.79 0-60.64-49.16-109.79-109.79-109.79z"/><path d="m177.07 282.99-13.51 21.07c15.88 13.02 26.95 31.68 30.15 52.93h25.12c-3.47-30.04-19.05-56.37-41.75-74zM295.53 320.33c-2.43 11.28 2.73 22.4 12.01 28.13l52.69-76.73 2.62-12.2c.6-2.81.72-5.63.42-8.38h-82.03c.6 1.97 1.18 3.98 1.75 6.04l23.64 11.51-11.1 51.64z"/><path d="m159.14 271.65-13.54 21.12-46.38 72.37a8.444 8.444 0 0 0-.3 8.65 8.465 8.465 0 0 0 7.45 4.41H227.09c.05-.37.07-.74.14-1.11.71-3.89 1.3-7.76 1.83-11.62.2-1.42.38-2.83.55-4.24H121.88l38.32-59.78 13.46-21 21.5-33.54h19.4c-.66-1.48-1.3-2.9-1.95-4.24-1.86-3.9-3.63-7.22-5.22-9.98-.57-.99-1.12-1.91-1.63-2.75a91.878 91.878 0 0 0-2.73-4.24c-.48-.7-.89-1.28-1.2-1.72-2.63-3.62-6.33-10.38-9.36-18.62a97.77 97.77 0 0 0-5.74-.18c-21.87 0-39.6 6.65-39.6 14.85 0 7.06 13.16 12.96 30.78 14.47 1.58.13 3.19.25 4.84.31l-23.62 36.84zM470.31 190.21c1.66-3.09 3.29-6.31 4.88-9.74 1.98-4.25.15-9.3-4.1-11.28-4.11-1.92-8.96-.23-11.06 3.74 5.95 3.58 9.97 10 10.28 17.28zM461.04 378.21c1.22 0 2.47-.27 3.64-.82 4.23-2.01 6.03-7.08 4.02-11.31l-36.29-76.26-10.75-22.58-10.55-22.17c4.97-1.37 11.07-3.73 17.75-7.77 8.94-5.4 18.83-13.81 28.46-26.59-2.25.93-4.69 1.5-7.27 1.61-.63.03-1.27.03-1.92 0-4.62-.22-9.13-.62-13.53-1.17-5.16 5.19-10.1 8.93-14.54 11.62-11.53 6.98-20.03 7.16-21.08 7.17h-.09c-.06-.01-.13.01-.2 0-.05 0-.09-.01-.15-.01H273.79c1.59 3.95 3.16 8.22 4.7 12.73.48 1.39.95 2.8 1.41 4.24H382.41l-24.54 35.73-46.54 67.77-7.43 10.83h-12.41c-.14 1.41-.31 2.83-.46 4.24-.47 4.23-1.01 8.48-1.65 12.73h18.98c2.81 0 5.4-1.37 6.99-3.68l16.71-24.33 16.42-23.91 48.71-70.93 9.13 19.19 10.74 22.57 36.29 76.26c1.45 3.06 4.5 4.84 7.67 4.84z"/><path d="M286.78 365.47c.16-1.42.33-2.84.47-4.24.14-1.43.25-2.83.37-4.24 1.12-13.24 1.36-25.87.85-37.79-1.05-24.51-5.16-46.1-10.55-64.49-.35-1.21-.73-2.38-1.09-3.56-.44-1.43-.89-2.85-1.35-4.24-.47-1.43-.94-2.86-1.42-4.24a249.772 249.772 0 0 0-6.62-16.97c-1.2-2.78-2.41-5.46-3.62-7.99-2.54-5.32-5.07-10.07-7.47-14.3 3.69-4.29 7.65-8.43 11.79-12.44 16.46-15.99 35.72-29.82 52.01-41.41-12.06-13.13-18.92-23.82-20.54-26.46-3-5.02-3.84-10.73-2.46-16.22 1.38-5.5 4.81-10.12 9.68-13.03a21.215 21.215 0 0 1 29.1 7.31l.23.37c.33.5.71 1.09 1.22 1.84 1.07 1.59 2.87 4.15 5.41 7.38 2.05 2.62 4.74 5.87 7.99 9.44 4.75-9.89 5.5-20.6.08-28.97-4.07-6.28-10.67-11.77-18.99-15.11-12.43-4.98-28.69-5.16-46.07 4.07-39.79 21.39-61.09 39.62-89.28 77.79-2.19 3.5-3.59 7.33-4.39 11.33-1.72 8.63-.59 18.03 1.72 26.57.94 3.47 2.06 6.79 3.27 9.86 1.63 4.15 3.4 7.83 5.04 10.79 1.13 2.02 2.19 3.72 3.1 4.97a85.8 85.8 0 0 1 2.87 4.21 129.494 129.494 0 0 1 3.53 5.87c1.83 3.24 3.74 6.95 5.64 11.1.63 1.36 1.26 2.78 1.88 4.24.59 1.38 1.18 2.78 1.75 4.24 7.02 17.64 13.27 41.35 14.52 70.33.47 11.02.18 22.87-1.12 35.51-.14 1.4-.3 2.82-.47 4.24-.17 1.4-.36 2.82-.55 4.24-.55 4.05-1.17 8.16-1.94 12.38-.02.12-.03.24-.05.35-.24 1.42-.35 2.84-.36 4.24-.09 12.64 8.88 23.91 21.75 26.25 1.99.36 3.97.49 5.91.4 12.1-.52 22.67-9.33 24.93-21.75.3-1.65.55-3.27.82-4.9.24-1.41.5-2.84.71-4.24.66-4.31 1.19-8.54 1.66-12.73z"/><path d="M339.45 113.35c-2.52-3.21-4.38-5.84-5.58-7.61-.6-.88-1.03-1.55-1.3-1.96-.13-.21-.22-.35-.27-.43l-.01-.03c-4.81-8.04-15.24-10.66-23.28-5.85-8.04 4.81-10.67 15.23-5.85 23.28.46.74 7.22 11.99 20.47 26.32.94 1.02 1.93 2.06 2.94 3.11 3.92 4.08 8.32 8.34 13.24 12.65 21.29 18.65 52.61 38.17 93.3 43.8 1.7.23 3.4.46 5.12.64 3.31.35 6.67.64 10.11.8.52.02 1.03.02 1.54 0 8.68-.37 15.79-7.32 16.21-16.16.29-6.34-2.93-12.02-7.95-15.17-1.19-.75-2.48-1.34-3.84-1.78-1.39-.44-2.85-.73-4.37-.8-38.36-1.8-67.59-19.28-87.78-36.89-3.86-3.37-7.36-6.74-10.49-9.97a171.141 171.141 0 0 1-12.21-13.96z"/></g></svg>