<svg xmlns="http://www.w3.org/2000/svg" xml:space="preserve" viewBox="0 0 606.66 512.13" shape-rendering="geometricPrecision" text-rendering="geometricPrecision" image-rendering="optimizeQuality" fill-rule="evenodd" clip-rule="evenodd"><g fill="currentColor"><path d="M93.03 100.55c27.39 6.38 54.77-10.66 61.16-38.06 6.38-27.4-10.66-54.78-38.06-61.16-27.4-6.38-54.78 10.66-61.16 38.06-6.38 27.4 10.66 54.78 38.06 61.16zM46.81 301.4v182.74c0 15.46 12.54 27.99 27.99 27.99 15.46 0 28-12.53 28-27.99V306.91h10.49v177.23c0 15.46 12.54 27.99 27.99 27.99 15.46 0 28-12.53 28-27.99V153.16h126.8c10 0 18.11-8.11 18.11-18.11s-8.11-18.12-18.11-18.12H142.13c-.71 0-1.42.05-2.11.13H64.31c-.84 0-1.66.08-2.46.19A18 18 0 0 0 51 120.22v-.01c-.93.65-12.91 8.58-25.35 23.43C13.34 158.39.06 180.8 0 209.62c-.09 27.62 12.8 58.68 44.28 89.7.79.78 1.64 1.47 2.53 2.07zm0-125.47v68.88c-7.96-13.59-10.52-25.24-10.58-35.18-.04-12.75 4.49-24.18 10.58-33.7zM606.66 191.55H475.34v46.76c10.02 8.47 23.51 16.56 42.06 23.4 9.4 3.43 14.23 13.83 10.8 23.23-2.68 7.35-9.62 11.9-17.01 11.9-2.07 0-4.16-.36-6.21-1.11-11.01-3.99-20.83-8.58-29.64-13.58v40.73h131.32V191.55zM422.73 105.66c27.4 6.38 54.78-10.66 61.16-38.05 6.38-27.4-10.66-54.78-38.06-61.16-27.39-6.38-54.78 10.66-61.16 38.05-6.38 27.39 10.66 54.78 38.06 61.16zM395.9 318.12v165.7c0 15.63 12.67 28.3 28.3 28.3s28.3-12.67 28.3-28.3V303.27c.4-3.98.44-8.75.1-14.52-1.02-7.6-1.4-15.45-1.34-23.39-11.22-9.6-19.75-19.96-25.96-30.38-13.85-23.08-16.54-45.46-16.55-59.54 0-9.04 1.1-14.83 1.29-15.75 1.97-9.81 11.51-16.17 21.32-14.21 9.81 1.97 16.17 11.51 14.21 21.32-.01.03-.01.07-.02.11-.04.28-.12.83-.21 1.59-.17 1.51-.35 3.9-.35 6.94 0 9.51 1.84 24.92 11.22 40.61 2.67-15.79 5.91-30.69 8.4-43.37 6.5-22.53-2-49.51-21.33-54.32-19.32-4.82-47.35 5.68-58.75 38.83-15.41 45.68-18.72 75.41-12.86 125.71 3.9 20.05 13.21 30.19 24.25 35.23z"/><path d="m441.06 166.24.03-.22.02-.11c1.46-7.35-3.32-14.52-10.65-15.99-.89-.18-1.79-.27-2.69-.27-6.44 0-12.04 4.6-13.3 10.92-.2 1-1.19 6.4-1.2 14.87.01 14.02 2.77 35.33 15.91 57.22 4.78 8.02 11.86 17.4 22.2 26.77 6.58 5.96 14.48 11.91 23.96 17.5 8.93 5.27 19.25 10.22 31.19 14.55 1.5.54 3.07.82 4.66.82 5.68 0 10.81-3.59 12.76-8.93 2.57-7.03-1.06-14.85-8.11-17.42-16.13-5.93-29.55-13.16-40.5-21.78-8.07-6.36-14.8-13.47-20.23-21.43-.91-1.34-1.8-2.7-2.64-4.09-9.93-16.48-12.02-32.6-12.02-43.21 0-3.25.21-5.83.39-7.44.09-.85.18-1.45.23-1.76z"/></g></svg>