<svg xmlns="http://www.w3.org/2000/svg" xml:space="preserve" viewBox="0 0 1627.61 1445.63" shape-rendering="geometricPrecision" text-rendering="geometricPrecision" image-rendering="optimizeQuality" fill-rule="evenodd" clip-rule="evenodd"><g fill="currentColor"><path d="M802.22 413.01c-.09.19-9.61 19.19-90.67 41.09-55.21 14.92-121.89 25.55-175.47 34.09-31.34 5-57.19 9.14-76.36 13.32-28.96 3.82-60.68 10.68-89.75 20.35-30.95 6.95-70.7 24.23-116.14 44.02-40.83 17.78-83.07 36.17-119.67 47.19-43.41 13.06-57.67 9-60.26 7.96-11.29-18.53-35.4-24.65-54.2-13.62-19 11.14-25.37 35.56-14.23 54.56C21.1 688.63 47.68 702 84.83 702c16.46 0 34.99-2.63 55.56-7.89 45.38-11.61 98.46-34.73 145.29-55.12 17.66-7.69 35.55-15.48 52.02-22.18 12.76 61.53 83.16 453.41-128.38 716.45-21.56 26.82-17.3 66.03 9.51 87.61 11.51 9.25 25.3 13.75 39.01 13.75 18.23 0 36.28-7.95 48.6-23.26 117.08-145.59 161.52-319.03 174.04-469.84 18.93 2.71 38.11 4.98 55.91 6.63 14.29 141.23 15.47 298.86-26.08 411.02-11.95 32.27 4.52 68.12 36.78 80.07 7.14 2.64 14.45 3.9 21.63 3.9 25.33 0 49.13-15.55 58.44-40.68 107.2-289.4-21.95-795.91-27.5-817.33-2.41-9.31-6.86-17.52-12.67-24.42 156.29-26.06 273.85-55.08 292.35-127.52 5.45-21.33-7.36-43.28-28.7-48.72-21.34-5.47-42.98 7.21-48.43 28.54z"/><path d="M391.18 270.33c-61.84 3.62-109.03 56.67-105.4 118.51 3.61 61.84 56.67 109.02 118.5 105.41 61.83-3.62 109.03-56.68 105.41-118.52-3.62-61.83-56.69-109.03-118.51-105.4zm44.85 54.11c12.55 0 22.74 10.18 22.74 22.74 0 12.56-10.18 22.74-22.74 22.74-12.56 0-22.74-10.18-22.74-22.74 0-12.56 10.18-22.74 22.75-22.74zm-103.12 44.24c0-16.52 13.39-29.91 29.91-29.91s29.91 13.39 29.91 29.91-13.39 29.91-29.91 29.91c-16.51 0-29.91-13.39-29.91-29.91zm147.08 42.07c4.95 19.57-18.45 42.37-52.25 50.92-33.81 8.55-65.23-.39-70.17-19.96-4.96-19.57 27.4-6.92 61.2-15.47 33.81-8.55 56.26-35.05 61.21-15.49zM1609.85 530.2c-18.33-12.23-43.09-7.26-55.3 11.06l-84.8 127.2-155.98-81.44c-10.29-5.37-21.82-5.77-31.94-2.14l-183.24 48.42c-1.68.45-3.29 1.03-4.86 1.68-9.92 2.89-18.73 9.59-24 19.41l-68.55 127.72-141.3-68.14c-19.86-9.57-43.68-1.24-53.24 18.59-9.57 19.84-1.24 43.67 18.59 53.24l175.7 84.73a39.743 39.743 0 0 0 17.3 3.97c14.25 0 27.99-7.67 35.16-21.03l42.57-79.32L1144.81 959l-135.6 63.74c-22.67 10.66-36.76 33.87-35.75 58.9l12.04 297.55c1.36 33.52 28.96 59.79 62.21 59.78.85 0 1.71-.01 2.56-.05 34.38-1.39 61.13-30.4 59.74-64.78l-10.36-256.23 117.32-55.15-70.78 115.99c-17.54 28.75-9.07 66.23 19.14 84.63l263.75 172.11c10.51 6.85 22.31 10.13 33.99 10.13 20.35 0 40.29-9.95 52.24-28.26 18.8-28.81 10.68-67.42-18.13-86.23l-213.13-139.07 127.18-208.43c11.1-18.18 11.74-39.8 3.67-57.89l-60.07-227.34 109.78 57.32a39.803 39.803 0 0 0 18.43 4.53c12.95 0 25.57-6.32 33.2-17.76l104.67-157.01c12.22-18.33 7.26-43.08-11.06-55.3zM1166.35 580.5c61.55-6.93 105.83-62.45 98.89-124-6.93-61.55-62.45-105.83-123.99-98.89-61.56 6.93-105.83 62.44-98.9 123.99 6.93 61.55 62.44 105.83 124 98.9zm20.35-167.06c14.57 0 26.37 11.81 26.37 26.38 0 14.57-11.81 26.37-26.38 26.37-14.57 0-26.37-11.81-26.37-26.37 0-14.57 11.81-26.38 26.38-26.38zm-25.52 105.03c29.7-8.79 48.67-33.12 53.77-15.94 5.09 17.2-14.85 38.26-44.54 47.07-29.7 8.8-57.9 1.99-62.99-15.2-5.1-17.19 24.07-7.13 53.77-15.93zm-65.24-57.27c10.1 0 18.28 8.18 18.28 18.28 0 10.1-8.18 18.28-18.28 18.28-10.1 0-18.28-8.18-18.28-18.28 0-10.09 8.18-18.28 18.28-18.28zM499.47 82.38l-6.65 72.27 32.2-16.9c1.47 1.93 2.97 3.89 4.54 5.94 13.71 17.9 50.14 65.44 44.54 74.65-.3.49-3.35 1.99-12.66.34-15.98-2.84-24.99 3.2-29.77 8.75-22.37 26 1.16 98.39 3.91 106.56l14.17-4.78c-9.34-27.75-19.45-77.27-6.74-92.03 2.11-2.45 6.03-5.52 15.82-3.78 5.26.94 21.32 3.79 28.05-7.29 10.13-16.66-12.45-48.44-45.46-91.51-1.01-1.33-2-2.62-2.98-3.89l33.92-17.8-72.9-30.53zM89.94 350.33l13.2-31.93c15.46 13.38 23.83 36.66 31.34 57.64 8.19 22.9 15.28 42.67 30.97 46.86 9.53 2.55 20.24-1.38 32.71-12.02 10.67-9.09 14.42-8.13 14.8-8 4.62 1.63 7.94 19.25 10.37 32.13 5.99 31.75 14.18 75.23 55.38 83.38l2.9-14.68c-31.28-6.18-37.82-40.87-43.58-71.47-4.1-21.77-7.35-38.96-20.09-43.46-10.71-3.77-21.95 4.32-29.48 10.72-5.73 4.89-13.73 10.39-19.15 8.95-8.11-2.16-14.53-20.1-20.75-37.45-8.32-23.23-18.41-51.39-39.46-67.01l15.17-36.68-78.45 18.76 44.13 64.26zM667.97 374.97c-4.02 2.37-9.8 1.34-17.17-3.07-11.36-6.81-23.57-8.32-36.27-4.51C572.52 380 539 448.8 537.59 451.73l13.47 6.49c8.79-18.26 38.08-67.59 67.76-76.5 8.63-2.59 16.58-1.61 24.29 3.01 12.43 7.43 23.35 8.49 32.44 3.12 24.72-14.57 24.83-72.69 22.68-136.1l-.08-2.32 37.24-1.73-44.18-55.49-41.61 59.47 33.61-1.56.07 2.13c1.32 38.95 3.78 111.44-15.33 122.71zM282.33 0l7.91 72.15 28.49-23.23c18.68 20.88 53.89 67.38 31.63 100.76-10.95 16.43-14.41 32.48-10.27 47.69 7.05 25.88 33.7 39.06 34.83 39.61l6.54-13.45c-.22-.11-21.77-10.89-26.97-30.17-2.92-10.84-.13-22.75 8.3-35.39 27.93-41.9-11.29-94.87-32.44-118.55l29.5-24.05L282.33-.01zM112.49 99l21.43 69.34 25.07-30.01c13.22 5.24 31.9 20.87 41.57 66.47 7.24 34.12 20.41 57.44 39.16 69.31 10.64 6.74 20.72 8.13 27.24 8.13 4.38 0 7.16-.63 7.44-.7l-3.37-14.56c-.45.1-11.27 2.29-23.68-5.75-14.81-9.6-25.92-30.19-32.15-59.54-10.04-47.3-29.75-67.14-46.22-75.32l22.54-26.98-79.03-.41zM1237.58 87.28l34.2-15.49-66.88-42.58-14.94 79.65 33.98-15.39c25.54 59.39 44.79 122.09 35.57 131.58-.77.79-3.6.71-8.2-1.25-14.8-6.3-27.77-5.8-38.51 1.47-28.71 19.47-28.13 80.88-27.97 87.82l14.95-.35c-.37-16.6 2.75-62.46 21.42-75.11 6.35-4.3 14.27-4.32 24.26-.08 13.29 5.66 20.81 1.99 24.77-2.09 19.19-19.75-13.19-103.31-32.65-148.18zM964.62 564.68c5.51 3.54 8.37 8.49 9.01 15.57 1.44 15.82 7.75 27.03 18.76 33.32 6.88 3.93 14.87 5.36 22.85 5.36 20.7 0 41.36-9.61 42.55-10.17l-6.39-13.51c-9.29 4.38-36.64 13.89-51.6 5.34-6.6-3.78-10.29-10.87-11.27-21.69-1.05-11.55-6.53-20.82-15.83-26.8-26.62-17.11-79.49-4.48-103.97 2.79l-10.45-33.84-50.63 61.01 77.15 24.82-11.64-37.67c26.09-7.63 71.83-17.16 91.47-4.53zM948.69 149.05l47.82 65.43 12.63-37.02c14.42 4.46 38.47 15.19 43.74 32.39 3.88 12.64-2.61 27.98-19.27 45.58-23.88 25.24-33.52 48.45-28.65 69.02 6.52 27.5 36.49 38.64 37.77 39.1l5.11-14.05c-.24-.08-23.75-8.96-28.34-28.58-3.59-15.33 4.81-33.91 24.98-55.21 20.64-21.8 28.28-42.07 22.71-60.24-7.65-24.99-38.32-37.45-53.23-42.14l11.56-33.88-76.82 19.6zM1425.01 242.11l26.9-74.58-80.99 2.85 22.35 29.66c-13.31 13.46-37.71 53.64-13.88 156.92 9.12 39.49 5.45 72.4-10.89 97.81-23.29 36.22-65.13 45.12-65.55 45.2l1.48 7.33 1.46 7.33c1.96-.39 48.25-10.06 75.07-51.6 18.69-28.95 23.06-65.77 12.99-109.43-21.59-93.55-1.75-129.77 8.44-141.44l22.59 29.96zM172.08 544.41c-11.64 8.97-13.33 23.61-13.39 24.23a4.987 4.987 0 0 0 4.96 5.51c2.5 0 4.65-1.88 4.95-4.42.01-.11 1.37-11.15 9.64-17.47 5.3-4.04 12.47-5.41 21.33-4.07 2.72.42 5.26-1.46 5.67-4.18a4.991 4.991 0 0 0-4.18-5.68c-11.68-1.77-21.43.28-28.97 6.09z"/><path d="M202.14 516.15c-17.29-3.31-31.9-.91-43.39 7.14-17.49 12.24-21.02 33.03-21.16 33.91a4.983 4.983 0 0 0 4.11 5.71c.27.04.54.06.81.06 2.4 0 4.51-1.73 4.91-4.17.03-.17 3.09-17.63 17.12-27.4 9.19-6.4 21.19-8.24 35.72-5.46 2.69.49 5.31-1.26 5.83-3.96.52-2.7-1.26-5.31-3.96-5.83zM335.16 855.18a4.991 4.991 0 0 0-6.91 1.39c-6.55 9.85-8.82 19.55-6.73 28.84 3.21 14.34 15.75 22.06 16.29 22.39.8.48 1.69.71 2.57.71 1.68 0 3.32-.86 4.26-2.39 1.43-2.34.68-5.41-1.65-6.84-.1-.06-9.52-5.96-11.76-16.13-1.42-6.5.36-13.59 5.33-21.05 1.52-2.29.9-5.38-1.39-6.91z"/><path d="M315.57 845.1a4.969 4.969 0 0 0-6.96 1.12c-10.31 14.28-14.31 28.52-11.88 42.34 3.71 21.03 21.05 33.02 21.79 33.52.86.59 1.83.86 2.79.86a4.98 4.98 0 0 0 2.81-9.1c-.15-.1-14.58-10.08-17.57-27-1.95-11.06 1.46-22.76 10.14-34.78a4.99 4.99 0 0 0-1.12-6.96zM1027.08 908.65c14.6-1.67 23.61-13.34 23.99-13.83a4.987 4.987 0 0 0-.96-6.98 4.979 4.979 0 0 0-6.98.96c-.06.09-6.93 8.78-17.18 9.95-6.7.77-13.54-1.77-20.46-7.52a4.982 4.982 0 0 0-7.02.65 4.982 4.982 0 0 0 .65 7.02c7.97 6.62 16.17 9.95 24.43 9.95 1.18 0 2.35-.07 3.53-.2z"/><path d="M986.36 910.28a4.984 4.984 0 0 0 .38 7.04c12.14 10.89 24.82 16.4 37.74 16.4 1.04 0 2.07-.04 3.11-.11 21.3-1.46 35.06-17.43 35.63-18.11 1.78-2.1 1.52-5.25-.58-7.02a4.99 4.99 0 0 0-7.03.58c-.11.14-11.57 13.44-28.71 14.61-11.22.76-22.48-3.87-33.51-13.77-2.05-1.83-5.2-1.67-7.04.38zM637.41 609.71c-2.72.44-4.57 3-4.13 5.71.4 2.45 2.51 4.19 4.92 4.19.26 0 .53-.02.8-.06 11.68-1.88 20.33-6.81 25.73-14.64 8.35-12.1 5.49-26.55 5.37-27.16a4.972 4.972 0 0 0-5.87-3.87 4.997 4.997 0 0 0-3.9 5.86c.02.11 2.09 11.04-3.85 19.58-3.8 5.47-10.22 8.97-19.06 10.39z"/><path d="M644.13 641.03c.2 0 .4-.01.61-.04 17.49-2.13 30.65-8.88 39.14-20.05 12.92-17 9.94-37.87 9.8-38.75a4.967 4.967 0 0 0-5.67-4.18c-2.72.41-4.6 2.95-4.18 5.67.02.18 2.5 17.55-7.89 31.23-6.79 8.94-17.69 14.39-32.41 16.18-2.73.33-4.67 2.82-4.34 5.55a4.987 4.987 0 0 0 4.95 4.38zM833.66 677.27c-14.34 3.21-22.06 15.75-22.38 16.29-1.42 2.36-.67 5.42 1.68 6.84a4.972 4.972 0 0 0 6.84-1.69c.06-.09 5.96-9.46 16.03-11.71 6.54-1.47 13.64.33 21.14 5.31 2.29 1.52 5.38.9 6.91-1.39 1.53-2.29.9-5.38-1.39-6.91-9.85-6.55-19.55-8.81-28.84-6.74z"/><path d="M873.99 671.34a4.988 4.988 0 0 0-1.12-6.96c-14.28-10.32-28.53-14.32-42.34-11.89-21.02 3.7-33.02 21.03-33.52 21.77a4.995 4.995 0 0 0 1.32 6.93c.86.58 1.83.86 2.8.86 1.6 0 3.16-.76 4.13-2.18.1-.14 10.08-14.58 27-17.55 11.07-1.94 22.76 1.47 34.78 10.15a4.987 4.987 0 0 0 6.96-1.12zM1448.61 602.52c-14.44 2.75-22.56 15.04-22.9 15.57a4.978 4.978 0 0 0 1.47 6.89c.84.55 1.78.81 2.71.81 1.63 0 3.23-.8 4.18-2.28.06-.09 6.26-9.27 16.4-11.2 6.56-1.25 13.62.76 20.95 5.98 2.24 1.6 5.35 1.07 6.95-1.17a4.982 4.982 0 0 0-1.17-6.95c-9.62-6.86-19.25-9.45-28.6-7.66z"/><path d="M1489.1 597.87a4.993 4.993 0 0 0-.9-6.99c-13.95-10.77-28.07-15.21-41.94-13.23-21.13 3.03-33.68 19.98-34.2 20.69-1.62 2.23-1.13 5.35 1.1 6.96.89.65 1.91.96 2.93.96 1.54 0 3.06-.71 4.03-2.05.1-.14 10.55-14.25 27.55-16.69 11.11-1.59 22.7 2.19 34.43 11.25 2.18 1.68 5.31 1.27 7-.9zM1441.89 1000.98a4.994 4.994 0 0 0-2.17 6.71 4.966 4.966 0 0 0 4.44 2.71c.76 0 1.54-.17 2.26-.55 10.54-5.38 17.26-12.74 19.99-21.86 4.21-14.07-2.95-26.95-3.27-27.49-1.35-2.39-4.39-3.23-6.79-1.87a4.98 4.98 0 0 0-1.87 6.79c.05.1 5.33 9.82 2.38 19.71-1.92 6.41-6.96 11.74-14.97 15.84z"/><path d="M1456.4 1028.96c.7 0 1.41-.15 2.09-.46 15.99-7.41 26.44-17.88 31.08-31.12 7.06-20.15-2.21-39.09-2.6-39.88-1.22-2.46-4.21-3.46-6.68-2.23a4.968 4.968 0 0 0-2.23 6.68c.08.16 7.79 15.92 2.11 32.14-3.71 10.6-12.41 19.14-25.86 25.37a4.988 4.988 0 0 0-2.42 6.62 4.978 4.978 0 0 0 4.53 2.89z"/></g></svg>