<svg xmlns="http://www.w3.org/2000/svg" xml:space="preserve" viewBox="0 0 406.75 425.5" shape-rendering="geometricPrecision" text-rendering="geometricPrecision" image-rendering="optimizeQuality" fill-rule="evenodd" clip-rule="evenodd"><g fill="currentColor"><path d="M375.34 218.04h-80.79v28.72h80.79zM223.25 196.6l-34.43 6.17 8.2 43.99h35.61zM270.52 196.6l-34.42 6.17 8.2 43.99h35.61z"/><path d="m182.15 252.15-4.3-21.49v-16.22h-21.41c1.21 3.59 1.31 7.74.01 11.66-.54 1.61-1.29 4.5-2.21 4.5h4.14l32.53 150.81h189.82v-16.16H206.77l-2.33-10.42 180.21-26.92 22.11-75.77h-224.6zM228.98 408.12c0-9.59-7.78-17.38-17.37-17.38-9.6 0-17.38 7.78-17.38 17.38 0 9.6 7.78 17.38 17.38 17.38 9.59 0 17.37-7.78 17.37-17.38zM380.76 408.12c0-9.59-7.78-17.38-17.38-17.38-9.59 0-17.38 7.78-17.38 17.38 0 9.6 7.78 17.38 17.38 17.38 9.6 0 17.38-7.78 17.38-17.38zM78.57 79.72c21.72 5.06 43.43-8.45 48.49-30.17 5.06-21.72-8.45-43.43-30.17-48.49C75.17-4 53.45 9.51 48.39 31.23c-5.06 21.72 8.46 43.44 30.18 48.49zM35.82 106.39c2.89-4.01 7.17-6.65 12.04-7.43.98-.16 1.98-.24 2.97-.24 9.09 0 16.75 6.52 18.23 15.49.15.9 1.52 8.52 5.51 19.07.45-2.2.88-4.35 1.28-6.41C81 109 74.26 87.61 58.94 83.79c-15.33-3.82-37.55 4.5-46.59 30.79C.13 150.8-2.49 174.37 2.15 214.26c3.79 19.49 14.02 27.18 25.33 30.06 8.1 26.86 19.81 84.9-3.65 148.24-4.3 11.62 1.63 24.53 13.25 28.84 2.57.95 5.2 1.4 7.79 1.4 9.12 0 17.7-5.6 21.05-14.65 32.22-87 9.79-163.89.41-189.34-1.18-8.83-1.28-18.07-.75-27.37-26.48-33.06-32.66-68.95-33.03-71.29-.79-4.88.37-9.77 3.26-13.77z"/><path d="M138.9 235.19c6.01 0 11.62-3.81 13.62-9.82 2.51-7.52-1.56-15.66-9.08-18.17-65.9-21.97-77.96-89.39-78.46-92.31-1.28-7.81-8.64-13.11-16.46-11.85-7.83 1.26-13.15 8.64-11.89 16.47.57 3.55 15.02 87.37 97.72 114.94 1.51.5 3.04.74 4.55.74z"/></g></svg>