<svg xmlns="http://www.w3.org/2000/svg" xml:space="preserve" viewBox="0 0 106.55 229.48" shape-rendering="geometricPrecision" text-rendering="geometricPrecision" image-rendering="optimizeQuality" fill-rule="evenodd" clip-rule="evenodd"><g fill="currentColor"><path d="M76.9 144.08c-1.26 0-2.48-.24-3.63-.67-.18.71-.37 1.45-.56 2.26-.42 1.78-.84 3.71-1.25 5.75h8.58c-1.04-2.57-2.08-5.01-3.14-7.34zM51.56 192.3c0-.87.4-1.68 1.12-2.29l.53-.45-2.73-30.83c-.89-.6-1.47-1.52-1.47-2.56v-1.15c0-1.8 1.72-3.26 3.83-3.26l10.86-.33c.53-2.73 1.07-5.28 1.62-7.6.53-2.25 1.07-4.24 1.6-6.03-26.99-34.72-24.22-72.02-24.09-73.62.45-5.31 4.97-9.46 10.29-9.46.29 0 .57.01.86.04 5.66.48 9.89 5.47 9.43 11.13-.01.17-.64 10.13 2.76 23.84 1.18-6.95 2.6-13.51 3.7-19.09 2.88-9.98-.89-21.92-9.45-24.06-2.22-.55-4.69-.65-7.23-.23-.4.01-.81.05-1.22.12-1.71.32-42.04 8.55-51.86 66.36a8.02 8.02 0 0 0 7.92 9.36c3.84 0 7.23-2.77 7.9-6.68 2.68-15.78 7.92-26.96 13.72-34.86-2.58 12.16-2.75 23.26-.94 38.79 1.55 7.98 5.04 12.41 9.28 14.85 2.84 16.61 3.49 48.8-25.89 72.98-5.35 4.4-6.11 12.3-1.72 17.64 4.4 5.35 12.3 6.11 17.64 1.71 10.95-9.01 19.52-19.61 25.58-31.47a3.69 3.69 0 0 1-.93-.57c-.72-.61-1.11-1.42-1.11-2.29zM69.74 217.91c.51 6.58 6 11.57 12.48 11.57.32 0 .65-.01.98-.04 6.9-.53 12.07-6.56 11.54-13.46-.56-7.3-1.43-14.19-2.52-20.72H66.78c1.31 7 2.34 14.55 2.97 22.65zM77.24 45.13c12.46 0 22.56-10.1 22.56-22.56C99.8 10.11 89.7.01 77.24.01c-12.46 0-22.56 10.1-22.56 22.56 0 12.46 10.1 22.56 22.56 22.56z"/><path d="m105.39 154.03-13.02-.3c-.5-2.72-1.16-6.05-1.95-9.37-1.13-4.75-2.19-8.15-3.19-10.58 0 .33-.02.65-.05.98-.14 1.49-.61 2.9-1.34 4.16a99.93 99.93 0 0 1 1.67 6.22c.72 3.02 1.32 6.04 1.8 8.59H68.67c.47-2.54 1.08-5.57 1.8-8.59.24-1.01.47-1.94.7-2.81-.83-.56-1.59-1.22-2.24-2.01-.09-.1-.16-.21-.25-.31-.37 1.31-.74 2.75-1.12 4.35-.79 3.32-1.45 6.66-1.95 9.37l-12.77.3c-.64 0-1.16.44-1.16.99v1.15c0 .54.52.99 1.16.99h.17l2.94 33.28-1.4 1.19c-.44.38-.44.99 0 1.37.44.38 1.17.38 1.61 0h45.89c.44.38 1.17.38 1.61 0 .44-.38.44-.99 0-1.37l-1.4-1.19 2.94-33.28h.17c.64 0 1.16-.44 1.16-.99v-1.15c0-.54-.52-.99-1.16-.99zm-3.13 14.33h-46.3v-1.67h46.3v1.67z"/><path d="M70.71 138.85a7.994 7.994 0 0 0 6.2 2.92c1.79 0 3.6-.6 5.09-1.83 3.42-2.81 3.91-7.87 1.1-11.29-24.2-29.4-22.02-62.43-21.98-62.97.36-4.41-2.91-8.28-7.32-8.65-4.41-.37-8.3 2.91-8.67 7.32-.14 1.61-2.99 39.78 25.58 74.5z"/></g></svg>