<svg xmlns="http://www.w3.org/2000/svg" xml:space="preserve" viewBox="0 0 1899.27 2446.56" shape-rendering="geometricPrecision" text-rendering="geometricPrecision" image-rendering="optimizeQuality" fill-rule="evenodd" clip-rule="evenodd"><g fill="currentColor"><path d="M321.2 473.13c128.91-30.01 209.1-158.88 179.09-287.8C470.25 56.4 341.4-23.79 212.46 6.25 83.54 36.25 3.35 165.12 33.38 294.05 63.4 422.97 192.25 503.16 321.19 473.13zM359.51 692.77c-3.75-33.11 8.36-64.48 30.25-86.61 16.51-16.68 38.57-28.11 63.67-30.97 4.07-.47 8.1-.67 12.1-.67 54.17-.01 99.66 40.64 105.78 94.56.51 4.55 2.11 21.17 2.11 46.34-.02 4.85-.35 9.65-.48 14.48-2.54 99.53-27.07 195.43-71.83 278.19-23.73 44.5-67 107.94-140.31 165.26.63 38.36-.92 76.27-5.52 113.01C247.42 1449.1 73.1 1784.01 34.11 2290.5c-5.64 73.35 49.23 137.39 122.58 143.03 3.48.27 6.93.39 10.35.39 68.93 0 127.3-53.12 132.67-122.98 14.06-182.28 47.43-338.17 88.02-468.15 11.23 47.2 26.17 95.47 45.67 144.15 57.42 143.92 155.83 290.43 309.52 416.63 56.8 46.75 140.72 38.59 187.48-18.21 46.76-56.82 38.59-140.74-18.2-187.49-119.11-98.3-188.93-204.3-231.51-310.01-42.36-105.59-56.38-211.81-56.36-305.14-.03-60.93 5.97-116.06 13.47-160.78 44.72-26 81.46-73.07 97.85-157.37 17.38-149.41 17.54-260.27-2.91-375.78 60.77 82.54 113.73 190.89 138.69 334.23 7.16 41.49 43.19 70.76 83.91 70.77 1.09 0 2.18-.1 3.27-.13l112.41 267.01-34.36 14.46c-43.4 18.26-63.77 68.25-45.49 111.64l233.57 554.85c-16.24 21.44-26 48.08-26 77.06 0 70.61 57.23 127.86 127.86 127.86 60.21 0 110.56-41.68 124.14-97.73l396.32-166.84c43.39-18.26 63.76-68.24 45.49-111.63l-272.85-648.19c-18.27-43.39-68.26-63.75-111.65-45.49l-374.84 157.8-113.61-269.89c16.3-18.67 24.37-44.24 19.83-70.56-45.97-268.18-180.78-445.66-303.25-551.89-61.35-53.41-119.49-89.82-163.13-113.18-56.61-40.97-122.25-51.74-174.44-38.73-90.95 22.67-130.95 149.61-100.38 255.66 8.09 41.26 17.88 87.59 27.31 136.75 32.38-72.14 34.87-144.84 34.76-167.08.02-12.56-.61-20.61-.81-22.78zm906.65 1646.6c-2.22-6.49-3.48-13.43-3.48-20.68 0-35.33 28.63-63.93 63.94-63.93 35.29-.01 63.92 28.62 63.92 63.93 0 35.29-28.63 63.93-63.92 63.93-6.21 0-12.21-.93-17.88-2.58-19.98-5.83-35.87-21.1-42.58-40.68z"/><path d="M85.19 1270.71c6.41 0 12.92-.71 19.43-2.24 106.84-24.32 191.01-68.57 255.49-122.07 54.24-45.01 94.59-96.52 122.26-148.45 61.39-113.48 69.53-223.97 69.75-282.54v-.1c-.01-25.31-1.69-41.17-1.99-43.84-5.31-46.79-47.52-80.39-94.3-75.1-22.33 2.54-41.6 13.53-55.13 29.37-14.82 17.33-22.75 40.48-19.97 64.93l.02.23c.21 2.42.89 11.2.87 24.52.23 41.3-7.2 124.95-49 201.03-.18.32-.38.64-.56.96-42.7 75.62-113.09 148.16-266.21 185.04-45.84 10.67-74.34 56.53-63.63 102.38 9.18 39.32 44.24 65.88 82.96 65.88z"/></g></svg>