<svg xmlns="http://www.w3.org/2000/svg" xml:space="preserve" viewBox="0 0 396.63 406.3" shape-rendering="geometricPrecision" text-rendering="geometricPrecision" image-rendering="optimizeQuality" fill-rule="evenodd" clip-rule="evenodd"><g fill="currentColor"><path d="M173.9 162.42h18.02c.82 4.89 5.07 8.63 10.2 8.63 5.13 0 9.38-3.73 10.2-8.63h5.49c.82 4.89 5.07 8.63 10.19 8.63 5.13 0 9.38-3.73 10.2-8.63h5.49c.82 4.89 5.07 8.63 10.2 8.63 5.13 0 9.37-3.73 10.2-8.63h5.49c.82 4.89 5.07 8.63 10.2 8.63 5.72 0 10.35-4.63 10.35-10.35 0-5.71-4.64-10.35-10.35-10.35-5.13 0-9.37 3.73-10.2 8.63h-5.49c-.82-4.89-5.07-8.63-10.2-8.63-5.13 0-9.37 3.73-10.2 8.63h-5.49c-.83-4.89-5.07-8.63-10.2-8.63-5.13 0-9.37 3.73-10.2 8.63h-5.49c-.82-4.89-5.07-8.63-10.2-8.63-5.13 0-9.37 3.73-10.2 8.63h-18.2c.18 1.16.23 2.32.18 3.45zM309.24 201.67H164.08s12.96 29.81 19.44 37.59c1.35 1.62 4.46 3.02 8.52 4.21l-27.66 106.05c-1.06-.12-2.14-.2-3.23-.2-15.39 0-27.87 12.47-27.87 27.87 0 15.38 12.48 27.86 27.87 27.86s27.87-12.48 27.87-27.86c0-10.64-5.96-19.88-14.73-24.57l13.45-51.57h97.82l27.27 104.55h10.72l-42.28-162.12c4.06-1.2 7.18-2.59 8.53-4.21 6.48-7.78 19.44-37.59 19.44-37.59zM175.42 377.18c0 7.87-6.38 14.26-14.26 14.26-7.87 0-14.25-6.38-14.25-14.25 0-7.88 6.38-14.26 14.25-14.26 7.88 0 14.26 6.38 14.26 14.26zm107.45-86.52h-92.41l11.71-44.9c2.16.39 4.39.75 6.63 1.08v14.88c0 7.16 5.8 12.96 12.96 12.96h29.81c7.16 0 12.96-5.8 12.96-12.96v-14.88c2.24-.33 4.47-.68 6.63-1.08l11.71 44.9zM368.98 170.49c.11.04.21.09.31.13 1.36.48 2.79.71 4.2.71h.03c9.17-.23 17.09-8.38 21.01-19.36 1.41-4.05 2.08-8.1 2.09-11.9-.01-4.13-.8-7.99-2.46-11.25-1.65-3.24-4.31-5.93-7.83-7.15-.11-.04-.22-.05-.33-.09 2.39-11.82 4.02-24.19 1.53-28.32-5.21-8.68-29.11-30.72-29.11-30.72l-23.86 68.55-23.86 68.55s32.42-2.44 41.89-6.01c4.52-1.7 10.92-12.4 16.39-23.14zm19.05-38.52c1.05 2.03 1.7 4.86 1.69 8.09 0 2.97-.54 6.29-1.7 9.64-3.13 9.29-10.14 14.95-14.49 14.72-.51 0-.99-.08-1.46-.19 4.5-9.39 7.79-17.38 7.79-17.38s2.38-8.3 4.68-18.44c1.36.62 2.54 1.73 3.49 3.56zM178.34 190.87h116.65V180.5H178.34zM75.5 76.6c20.88 4.86 41.74-8.12 46.6-29 4.86-20.87-8.12-41.74-29-46.6-20.87-4.86-41.74 8.12-46.6 29-4.86 20.88 8.12 41.74 29 46.6zM24.52 234.26c3.72 9.29 12.16 34.16 12.13 67.95-.01 21.72-3.42 47.15-13.73 75.04-4.14 11.17 1.56 23.58 12.74 27.71 2.47.91 5 1.34 7.48 1.34 8.77 0 17.01-5.38 20.23-14.08 12.24-33.04 16.43-63.76 16.42-90.02-.04-42.57-10.8-73.34-15.85-85.5.02-1.92-.04-4.02-.17-6.34-2.19-16.32-.63-34.14 2-50.89-4.55-3.53-8.84-7.44-12.82-11.75-13.77-15-19.71-29.74-21.21-33.91l-.01-.03-.06-.17c-1.48-4.37-1.17-9.05.87-13.18 2.04-4.13 5.57-7.22 9.94-8.7 1.79-.61 3.66-.92 5.54-.92 7.4 0 13.96 4.71 16.34 11.72.03.07.09.25.2.5.25.63.65 1.59 1.23 2.81 1.11 2.35 3.03 6.01 5.87 10.13.62.89 1.29 1.83 2.03 2.8 3.36-16.44-3.19-34.8-17.02-38.25-14.73-3.67-36.08 4.33-44.77 29.59C.16 144.92-2.36 167.57 2.1 205.9c3.43 17.62 12.35 25.21 22.45 28.35z"/><path d="M68.79 117.93a78.09 78.09 0 0 1-6.15-10.61c-.62-1.32-1.06-2.34-1.31-2.99-.13-.32-.21-.55-.26-.67l-.01-.03c-2.45-7.22-10.28-11.09-17.5-8.64-7.22 2.45-11.09 10.28-8.65 17.5.42 1.12 5.72 16.73 20.55 32.88 7.42 8.05 17.29 16.2 30.06 22.31 12.72 6.1 28.28 10.09 46.5 10.09h.12c8.46 0 17.49-.84 27.1-2.66 7.49-1.42 12.41-8.63 11-16.12-1.42-7.49-8.63-12.41-16.12-11-8.05 1.52-15.35 2.18-21.98 2.18-14.33-.01-25.56-3.02-34.7-7.38-13.67-6.54-22.85-16.44-28.65-24.86zM207 92.21c2.66 6.89 3.01 14.54 2.01 21.8-.83 6.1-3.04 12.54-6.47 17.69-1.85 2.79 2.63 5.38 4.47 2.61 7.83-11.79 9.2-27.2 5.87-40.64-1.44-5.79-4.67-10.95-6.35-16.67-1.93-6.55-1.21-13.56.49-20.05 1.59-6.04 4.82-12.38 8.93-17.14 2.17-2.51-1.48-6.19-3.66-3.66-8.43 9.75-13.65 24.18-11.72 37.05 1.04 6.95 3.92 12.51 6.42 19.01zM236.18 92.21c2.66 6.89 3.01 14.54 2.02 21.8-.83 6.1-3.05 12.54-6.47 17.69-1.85 2.79 2.63 5.38 4.47 2.61 7.83-11.79 9.2-27.2 5.87-40.64-1.44-5.79-4.67-10.95-6.35-16.67-1.93-6.55-1.21-13.56.5-20.05 1.59-6.04 4.82-12.38 8.93-17.14 2.17-2.51-1.48-6.19-3.66-3.66-8.43 9.75-13.65 24.18-11.72 37.05 1.04 6.95 3.92 12.51 6.41 19.01zM265.37 92.21c2.66 6.89 3.01 14.54 2.02 21.8-.83 6.1-3.04 12.54-6.47 17.69-1.85 2.79 2.63 5.38 4.47 2.61 7.83-11.79 9.2-27.2 5.87-40.64-1.44-5.79-4.67-10.95-6.35-16.67-1.93-6.55-1.21-13.56.49-20.05 1.59-6.04 4.82-12.38 8.93-17.14 2.17-2.51-1.48-6.19-3.66-3.66-8.43 9.75-13.65 24.18-11.72 37.05 1.04 6.95 3.92 12.51 6.41 19.01z"/></g></svg>