<svg xmlns="http://www.w3.org/2000/svg" xml:space="preserve" viewBox="0 0 190.45 167.08" shape-rendering="geometricPrecision" text-rendering="geometricPrecision" image-rendering="optimizeQuality" fill-rule="evenodd" clip-rule="evenodd"><g fill="currentColor"><path d="M6.03 103c.11 0 .22 0 .33-.01 3.1-.18 5.47-2.84 5.29-5.95-.27-4.68-.4-8.94-.4-12.82-.02-17.03 2.46-26.6 4.9-31.6v105.51a8.7 8.7 0 1 0 17.4 0v-63.5h3.26v63.5a8.7 8.7 0 1 0 17.4 0V52.65c.42.85.84 1.84 1.25 2.98 1.98 5.49 3.65 14.51 3.64 28.59 0 3.88-.12 8.14-.4 12.82-.18 3.1 2.19 5.76 5.29 5.95.11.01.22.01.33.01 2.96 0 5.44-2.31 5.61-5.3.28-4.88.42-9.35.42-13.47-.03-21.23-3.42-32.98-8.04-40.05-2.31-3.51-5.01-5.76-7.51-7-2.41-1.21-4.52-1.49-5.79-1.5-.08 0-.16-.01-.25-.01H21.58c-.08 0-.17.01-.25.01-1.27.02-3.38.29-5.79 1.5-3.78 1.88-7.86 5.98-10.72 13.25-2.89 7.3-4.83 17.86-4.84 33.79 0 4.12.13 8.6.42 13.48.18 2.99 2.66 5.3 5.61 5.3zM35.18 31.65c8.74 0 15.83-7.09 15.83-15.83S43.92-.01 35.18-.01 19.35 7.08 19.35 15.82s7.09 15.83 15.83 15.83zM134.26 160.04c0 3.89 3.15 7.03 7.03 7.03 3.88 0 7.03-3.15 7.03-7.03V125.6c-5.42-.07-10.12-.6-14.07-1.34v35.77zM150.67 160.04c0 3.89 3.15 7.03 7.03 7.03 3.88 0 7.03-3.15 7.03-7.03v-35.77c-3.95.73-8.65 1.27-14.07 1.34v34.44zM146.07 36.77c8.13 1.89 16.26-3.16 18.15-11.3 1.89-8.13-3.16-16.26-11.3-18.16-8.13-1.89-16.26 3.17-18.15 11.3-1.9 8.13 3.16 16.26 11.3 18.16zM112.53 101.19a4.576 4.576 0 0 0 5.13-3.93c2.93-22.23 8.69-33.89 13.45-39.87l-12.09 59.44s.15.09.45.25c2.2 1.17 12.48 6.08 30.03 6.08s27.83-4.91 30.03-6.08c.3-.16.45-.25.45-.25L167.89 57.4c.06.07.11.13.17.21 4.72 6.04 10.39 17.69 13.28 39.66.33 2.5 2.63 4.26 5.13 3.94 2.5-.33 4.26-2.63 3.93-5.13-3.24-24.58-9.91-38.07-16.35-45.56-5.93-6.94-11.63-8.45-13.16-8.69-1.3-.32-6.14-1.46-11.4-1.48-5.26.02-10.1 1.16-11.4 1.48-1.53.25-7.23 1.76-13.16 8.69-6.43 7.49-13.1 20.99-16.35 45.56-.33 2.5 1.43 4.8 3.93 5.13z"/></g></svg>