<svg xmlns="http://www.w3.org/2000/svg" xml:space="preserve" viewBox="0 0 635.35 694.49" shape-rendering="geometricPrecision" text-rendering="geometricPrecision" image-rendering="optimizeQuality" fill-rule="evenodd" clip-rule="evenodd"><g fill="currentColor"><path d="M218.13 234.55c29.97 1.75 55.69-21.12 57.44-51.09 1.76-29.97-21.12-55.69-51.09-57.44-29.97-1.76-55.69 21.12-57.45 51.09-1.75 29.97 21.13 55.69 51.09 57.45zm-36.7-40.47c2.4-9.48 13.28 3.36 29.67 7.5 16.38 4.14 32.07-1.99 29.67 7.5-2.4 9.49-17.62 13.82-34.01 9.67-16.38-4.14-27.72-15.19-25.33-24.68zM241.52 360.98l-51.76-29.69c-5.76-3.31-9.9-8.66-11.64-15.08-1.74-6.41-.88-13.12 2.43-18.89 4.43-7.71 12.71-12.5 21.61-12.5 4.32 0 8.6 1.14 12.36 3.3l31.5 18.07 1.87 1.2c.41-2.42.8-4.62 1.17-6.57 2.55 3.5 4.6 7.36 6.27 11.35.99 2.39 1.86 4.81 2.59 7.25l-46.16-26.48c-9.26-5.31-21.07-2.11-26.38 7.15-5.31 9.26-2.11 21.07 7.15 26.38l79.33 45.5c2.97 1.71 6.29 2.56 9.61 2.56a19.33 19.33 0 0 0 19.3-18.25c.25-4.47.24-9.54-.1-14.96-2.12-34.11-17.45-82.79-65.91-93.39-22.8-7.58-48.97-11.6-67.35-11.58-44.65-1.57-75.43 27.45-92.06 53.58L30.8 257.1c-8.59-6.34-20.69-4.5-27.03 4.09-6.34 8.6-4.5 20.69 4.09 27.03l62.82 46.31c3.35 2.46 7.36 3.74 11.43 3.74 1.84 0 3.68-.26 5.48-.79 5.79-1.69 10.47-6.03 12.63-11.67.45-1.18 6.47-16.42 19.03-29.92-13.81 59.84-53.82 258.27-9.15 378.88 4.51 12.18 16.05 19.72 28.32 19.72 3.48 0 7.03-.61 10.49-1.89 15.64-5.79 23.62-23.17 17.83-38.81-20.11-54.3-19.53-130.74-12.6-199.23 8.62-.8 17.9-1.9 27.06-3.21 6.07 73.1 27.61 157.17 84.36 227.74 5.97 7.42 14.72 11.28 23.55 11.27 6.64 0 13.33-2.18 18.91-6.66 13-10.45 15.06-29.46 4.61-42.46-70.83-88.07-76.45-205.95-71.11-280.26zM160.91 120 80.17 35.81l-8.95 12.11L156.75 123zM180.19 108.49 151.7 0l-10.98.4 34.35 108.5zM34.08 115.37l110.23 28.32 2.36-4.55-107.1-33.3zM526.73 260.19c-.37-.37-.7-.77-1.04-1.16-3.28.56-6.65.87-10.09.87-15.68 0-29.96-6.06-40.65-15.95h-6.02c-.5 0-1 .03-1.49.07-6.19-.04-12.68 2.37-18.08 6.95-9.22 7.83-19.91 24.22-24.58 72.78-2.9 30.14-3.47 72.67.08 133.27.6 10.27 9.12 18.2 19.28 18.2.38 0 .76-.01 1.14-.03 10.66-.62 18.79-9.77 18.17-20.42-3.55-60.62-2.61-100.51-.15-126.63l5.53.63c-2.4 25.59-3.37 65.12.17 125.68.39 6.64-1.83 13.03-6.25 17.99a24.65 24.65 0 0 1-12.49 7.58v184.61c0 16.5 13.38 29.87 29.87 29.87 16.49 0 29.87-13.37 29.87-29.87v-218.1h11.2v218.1c0 16.5 13.38 29.87 29.87 29.87 16.5 0 29.87-13.37 29.87-29.87V314.66c-13.7-13.67-31.82-31.87-54.21-54.47z"/><path d="M519.63 240.75c-4.93-3.59-8.24-10.12-8.24-17.6 0-11.34 7.57-20.54 16.91-20.54 7.82 0 14.37 6.45 16.31 15.19 6.61.05 12.81 2.65 17.47 7.36l1.1 1.1a54.144 54.144 0 0 0 6.78-26.29c0-30.02-24.34-54.36-54.36-54.36s-54.36 24.34-54.36 54.36 24.34 54.36 54.36 54.36c2.25 0 4.45-.15 6.62-.42a24.895 24.895 0 0 1-2.59-13.17z"/><path d="M558.14 229.07c-7.51-7.58-19.75-7.64-27.34-.13-7.58 7.51-7.64 19.75-.13 27.34 33.1 33.41 56.89 57.24 70.81 70.93.33.32.68.67.99.98a19.27 19.27 0 0 0 13.54 5.54c5.01 0 10.01-1.93 13.79-5.78 7.48-7.61 7.37-19.85-.24-27.33-2.33-2.29-4.98-4.91-7.92-7.81-14.24-14.12-35.52-35.47-63.51-63.72zM566.96 78.99H459.45v4.83h107.51zM547.03 115.23H439.51v4.83h107.52zM581.45 97.11H473.94v4.83h107.51z"/></g></svg>