<svg xmlns="http://www.w3.org/2000/svg" xml:space="preserve" viewBox="0 0 299.54 175.29" shape-rendering="geometricPrecision" text-rendering="geometricPrecision" image-rendering="optimizeQuality" fill-rule="evenodd" clip-rule="evenodd"><g fill="currentColor"><path d="M138.16 81.96c-21.39-4.98-33.47-15.01-40.66-23.68-3.56-4.34-5.84-8.37-7.2-11.22-.45-.95-.79-1.74-1.05-2.39-.43-2.16-1.31-4.17-2.72-5.91-6.68-8.24-21.95-12.74-37.4-2.3C27.96 50.95 17.04 62.53 3.42 85.78c-8.66 17.77.77 27.35 9.67 33.88 3.25 2.39 5.94 4.17 8.49 4.78 1.15.49 2.36.87 3.65 1.07l21.37 3.32-29.19 18.72c-7 4.49-9.04 13.8-4.55 20.81a15.06 15.06 0 0 0 20.8 4.55l62.65-40.16c2.26-1.45 4.03-3.42 5.21-5.69-3.09-1.54-6.06-3.18-8.87-4.91-.93-.57-2.28-1.88-2.51-4.5-7.08-4.81-12.71-10.02-17.17-15.19l-25.74-4.01c4.36-5.08 9.12-9.87 13.86-14.34-1.54-3.33-2.63-6.32-3.38-8.79-3.39-10.93-3.19-19.17-3.05-21.44.38-5 3.69-9.16 8.44-10.64 1.45-.45 2.97-.62 4.5-.51 6.62.5 11.6 6.29 11.1 12.91v.41c0 .51.02 1.37.11 2.49.18 2.14.65 5.52 1.88 9.51.61.81 1.24 1.62 1.92 2.45 9.39 11.51 25.62 24.37 51.22 30.23.73.17 1.46.25 2.18.25 4.39 0 8.35-3.02 9.38-7.47 1.2-5.19-2.04-10.36-7.22-11.56zM102.1 6.31c-11.48 9.61-13 26.7-3.39 38.18 9.6 11.48 26.69 13 38.17 3.4s13-26.69 3.4-38.17-26.7-13.01-38.18-3.4zM284.98 71.17c-12.05-18.27-28.24-14.06-32.79-11.34-5.41 3.23 1.28 6.07 10.57 4.46-7.96 3.53-12.6 12.89-14.19 19.99 3.01 3.58 6.04 6.93 8.9 9.94 2.64 2.66 5.07 5.05 7.24 7.13 1.05 1.01 2.03 1.94 2.93 2.8 2.62-3.56 10.86-11.95 13.5-12.64 5.27-1.4 13.33.92 16.17-3.08 1.98-2.79 2.48-3.87 2.12-8.87-.37-4.94-12.16-4.9-14.44-8.36zm-9.87 8.6a3.916 3.916 0 0 1-4.28-3.51 3.916 3.916 0 0 1 3.51-4.28 3.916 3.916 0 0 1 4.28 3.51 3.91 3.91 0 0 1-3.52 4.28zM254.04 97.59c-3.09-3.12-6.46-6.6-9.97-10.38-36.28-14.54-56.77 19.7-62.79 32.02-.65-.35-1.31-.75-1.96-1.2-4.56-3.29-9.16-8.81-9.27-21.55 0-5.7 1.02-12.82 3.64-21.62.76-2.55-.7-5.24-3.25-5.99-2.55-.76-5.23.69-5.99 3.24-2.82 9.5-4.03 17.52-4.03 24.37-.12 15.8 6.9 25.36 14.08 29.91 5.04 3.27 9.86 4.37 12.43 4.75 3.21 1.98 6.99 3.84 10.48 5.01-3.99 1.21-9.31-.96-10.29 5.18-1.2 7.51 25.34 38.17 33.03 33.29 1.49-.95 2.79-3.85.44-7.67-4.19-6.82-14.05-16.88-11.75-16.57 3.6.48 29.06 5.15 27.89-9.94-.43-5.6-5.23-9.38-11.08-11.93 4.03.59 8.93 1.85 14.94 4.06 1.7.63 3.82.36 6.01-.39l-2.41 35.66c-.22 3.19 2.1 6 5.28 6.39.25.03.49.04.74.04 2.88 0 5.41-2.07 5.93-4.97l10.1-56.73c.21-1.2.05-2.38-.4-3.42-3.13-2.88-7.25-6.82-11.78-11.58zM187.64 163.18a4.668 4.668 0 0 0-4.58-3.75c-.04 0-.07.01-.11.01-1.34-2.81-4.96-4.83-9.22-4.83-4.32 0-7.98 2.07-9.28 4.94-3.14.46-5.49 2.23-5.62 4.37-2.77 1.16-4.53 2.9-4.53 4.85 0 3.49 5.66 6.33 12.65 6.33 2.76 0 5.3-.44 7.38-1.2 2.08.75 4.62 1.2 7.38 1.2 6.99 0 12.65-2.83 12.65-6.33 0-2.42-2.72-4.52-6.72-5.58zM172.55 146.35c-.44 2.23.42 4.27 1.92 4.57 1.5.29 3.07-1.27 3.5-3.5.44-2.23-.42-4.27-1.92-4.57-1.5-.29-3.06 1.27-3.5 3.5z"/><path d="M176.13 139.87c1.2.8 3.15-.01 4.33-1.79 1.19-1.79 1.18-3.89-.03-4.69-1.2-.8-3.14 0-4.33 1.79s-1.18 3.89.02 4.69zM76.4 58.75c-.1-1.21-.12-2.14-.12-2.71 0-.28.01-.48.01-.58h-.01c.4-5.31-3.58-9.93-8.88-10.33-5.31-.4-9.94 3.58-10.34 8.88-.05.85-.61 9.15 2.95 20.6 3.69 12.04 12.33 27.58 30.29 40.19.98-5.49 5.54-13.05 10.3-16.35-13.7-9.91-19.45-20.97-22.19-29.57-1.29-4.15-1.81-7.71-2.01-10.13z"/><path d="M93.93 120.09c7.66 4.72 16.68 8.92 27.28 12.33 2.46.79 4.98.75 7.27.04 3.61-1.13 6.64-3.93 7.89-7.81 2.04-6.33-1.44-13.12-7.77-15.16-8.91-2.87-16.13-6.28-22.02-9.91-5.66-3.49-18.31 17.01-12.65 20.51z"/></g></svg>