<svg xmlns="http://www.w3.org/2000/svg" xml:space="preserve" viewBox="0 0 789.46 393.97" shape-rendering="geometricPrecision" text-rendering="geometricPrecision" image-rendering="optimizeQuality" fill-rule="evenodd" clip-rule="evenodd"><g fill="currentColor"><path d="M593.63 260.41H173.93v8.58H784.3v-8.58H593.62zM767.52 81.97h-66.36V70.74H597.18v11.23H482.49V70.74H227.5v11.23h-57.25c3.78 5.66 7.34 13 10.4 22.47h19.42v67.14h-3.23c4.9 21.14 9.24 39.96 9.33 40.37 1.29 5.6.5 11.2-1.86 15.99l25.54 3.47h5.87c-.41-2.16-.64-4.38-.64-6.66 0-19.7 15.97-35.66 35.66-35.66 19.7 0 35.66 15.97 35.66 35.66 0 2.28-.23 4.5-.64 6.66h252.89c-.41-2.16-.64-4.38-.64-6.66 0-19.7 15.97-35.66 35.66-35.66 19.7 0 35.66 15.97 35.66 35.66 0 2.28-.23 4.5-.64 6.66h138.85c4.31 0 21.95-11.89 21.95-16.2L775.38 89.8c0-4.31-3.53-7.84-7.84-7.84zm-1.45 22.47 8.86 72.89h-23.09v-72.89h14.22zm-339.23 67.14v-67.14h105.55v67.14H426.84zm-5.23-67.14v67.14H316.06v-67.14h105.55zm-216.33 67.14v-67.14h105.55v67.14H205.28zm173.67 25.34h-17.64V193h17.64v3.92zm26.84 0h-17.64V193h17.64v3.92zm144.61 0H414.02V193H550.4v3.92zm-12.8-25.34v-67.14h105.55v67.14H537.6zm201.69 25.34h-91.18V193h91.18v3.92zm0-25.34h-90.92v-67.14h90.92v67.14zm12.54 24.3v-13.06h23.75l1.59 13.06h-25.34z"/><path d="M623.04 224.75c0-16.21-13.18-29.39-29.39-29.39-16.2 0-29.39 13.18-29.39 29.39s13.18 29.39 29.39 29.39 29.39-13.18 29.39-29.39zm-29.39 13.71c-7.56 0-13.72-6.15-13.72-13.71 0-7.56 6.15-13.72 13.72-13.72 7.56 0 13.72 6.15 13.72 13.72 0 7.56-6.15 13.71-13.72 13.71zM300.12 224.75c0-16.21-13.19-29.39-29.39-29.39-16.21 0-29.39 13.18-29.39 29.39s13.18 29.39 29.39 29.39 29.39-13.18 29.39-29.39zm-43.11 0c0-7.56 6.15-13.72 13.72-13.72 7.56 0 13.71 6.15 13.71 13.72 0 7.56-6.15 13.71-13.71 13.71-7.56 0-13.72-6.15-13.72-13.71zM704.32 123.3l-1.34-1.34-21.41 21.4 1.34 1.35zM687.54 149.33l1.34 1.34 21.41-21.41-1.34-1.34zM674.39 159.19l44.42-44.41-1.34-1.35-44.42 44.42zM599.3 123.3l-1.34-1.34-21.42 21.4 1.35 1.35zM582.51 149.33l1.34 1.34 21.41-21.41-1.34-1.34zM612.44 113.43l-44.42 44.42 1.34 1.34 44.42-44.41zM492.7 123.3l-1.34-1.34-21.41 21.4 1.34 1.35zM475.91 149.33l1.34 1.34 21.41-21.41-1.33-1.34zM505.85 113.43l-44.42 44.42 1.34 1.34 44.42-44.41zM376.7 123.3l-1.34-1.34-21.41 21.4 1.34 1.35zM359.91 149.33l1.34 1.34 21.41-21.41-1.34-1.34zM346.77 159.19l44.42-44.41-1.34-1.35-44.42 44.42zM269.32 123.3l-1.34-1.34-21.41 21.4 1.34 1.35zM252.53 149.33l1.34 1.34 21.42-21.41-1.34-1.34zM282.47 113.43l-44.42 44.42 1.34 1.34 44.42-44.41zM153.16 251.38c-9.35 9.82-19.99 17.13-28.95 17.13-3.43 0-6.47-1.01-9.03-3l-4.47-3.48v110.73c0 11.72 9.51 21.22 21.22 21.22 11.72 0 21.22-9.5 21.22-21.22V251.39zM92.45 69.74h45.73c9.55-7.03 15.76-18.35 15.76-31.12C153.94 17.29 136.65 0 115.32 0S76.7 17.29 76.7 38.62c0 12.77 6.2 24.09 15.76 31.12zM47.76 100.97c1.71 0 3.33.25 4.84.75 3-8.04 7.51-18.04 13.78-26.89-2.84.82-6.03 2.28-9.32 4.78-2.53 1.92-4.86 4.29-7.02 7.06-2.12 2.73-4.06 5.88-5.82 9.45-.92 1.86-1.8 3.8-2.63 5.9 2.12-.67 4.19-1.05 6.18-1.05zM196.12 214.26c-.84-3.64-20.6-89.28-22.87-98.26-9.73-38.45-26.09-42.62-34.05-42.13H82.82c-9.9 9.72-16.4 24.68-19.95 34.84l90.29 70.34v-47.76c1.17.67 2.45 1.15 3.78 1.45v34c1.45 6.24 2.92 12.58 4.31 18.62l10.19 7.94c4.28 3.33 8.36 10.27 3.52 24.38-.84 2.45-1.97 5.06-3.31 7.76a13.74 13.74 0 0 0 11.09 5.66c1.02 0 2.06-.12 3.1-.35 7.39-1.71 12-9.08 10.29-16.47zM102.75 255.83 60.3 222.76v149.99c0 11.72 9.51 21.22 21.22 21.22 9.07 0 16.79-5.69 19.83-13.7.89-2.34 1.4-4.87 1.4-7.53V255.82z"/><path d="M118.34 261.44c17.63 13.73 67.56-50.36 49.93-64.1l-33.39-26.01-26.95 32.18-6.58-5.51 26.76-31.94-36.66-28.56-26.95 33.62-6.7-5.37 26.87-33.52-31.06-24.19c-17.63-13.73-67.56 50.36-49.93 64.1l114.65 89.31z"/></g></svg>