<svg xmlns="http://www.w3.org/2000/svg" xml:space="preserve" viewBox="0 0 707.33 603.64" shape-rendering="geometricPrecision" text-rendering="geometricPrecision" image-rendering="optimizeQuality" fill-rule="evenodd" clip-rule="evenodd"><g fill="currentColor"><path d="M548.24 466.18v-38.91l-17.56 66.62c10.37-4.93 17.56-15.46 17.56-27.71zM496.96 582.84l4.82 1.22 14.18-53.81-6.16-1.09z"/><path d="M605.24 205.04c-.1-74.94-12.06-116.41-28.39-141.35-8.15-12.38-17.69-20.32-26.51-24.72-8.8-4.44-16.54-5.32-20.94-5.31-1.57 0-2.77.11-3.57.21h-5.98c-10.53 8.74-24.05 14-38.76 14-14.72 0-28.24-5.26-38.77-14h-6.14c-2.28-.28-4.65-.18-7.02.39-3.52.72-25.68 7.6-45.71 36.27-16.86 24.01-31.98 62.21-36.42 123.05 13.66 12.96 27 28.94 38.52 48.57-.07-3.68-.11-7.32-.11-10.86 0-74.26 14.96-114.12 28.5-134.95V433.3c0 16.96 13.75 30.7 30.7 30.7s30.7-13.74 30.7-30.7V242.04h11.51v224.13c0 15.24 11.11 27.84 25.66 30.25l35.73-149.52V93.62c1.47 3.01 2.95 6.47 4.41 10.5 6.99 19.4 12.89 51.23 12.86 100.9 0 13.7-.44 28.73-1.4 45.25-.29 4.95 1.27 9.56 4.06 13.21 1.17 1.54 2.57 2.9 4.15 4.03l-60.79 254.36 6.34 1.12 66.36-251.72c1.85-.02 3.64-.3 5.34-.8 2-.59 3.86-1.5 5.54-2.65 1.31 3.25 2.23 7.11 2.22 11.51 0 3.26-.5 6.86-1.74 10.79-1.97 6.25-2.67 13.22-2.67 20.2.01 20.91 6.36 41.97 6.39 42.09a2.49 2.49 0 0 0 2.38 1.77c.24 0 .48-.03.72-.11a2.476 2.476 0 0 0 1.66-3.09c0-.01-1.54-5.12-3.09-12.81-1.55-7.69-3.09-17.89-3.09-27.85 0-6.64.69-13.16 2.45-18.71 1.38-4.4 1.97-8.51 1.97-12.29a36.104 36.104 0 0 0-3.29-14.99c2.74-3.19 4.5-7.26 4.76-11.78 1-17.22 1.47-33.02 1.47-47.56z"/><path d="M349.66 269.43c3.62 6.58 10.41 10.3 17.43 10.3 3.24 0 6.51-.79 9.54-2.46 9.61-5.28 13.13-17.35 7.85-26.97-16.84-30.68-38.33-52.98-59.72-69.06a221.219 221.219 0 0 0-36.03-22.04c-31.14-15.18-55.47-18.36-56.95-18.57a20 20 0 0 0-4.89 0h-89.82c-.4-.05-.81-.1-1.22-.13-1.48-.02-27.11-2.5-50.26-18.03-11.65-7.75-22.8-18.48-31.32-34.15-8.48-15.69-14.52-36.61-14.55-65.65 0-.86.01-1.69.02-2.5C39.91 9.2 31.16.17 20.19 0 9.22-.17.19 8.58.02 19.55 0 20.62 0 21.66 0 22.66c-.03 35.7 7.91 64.42 20.52 86.7 18.94 33.54 47.53 51.4 70.52 60.5 8.91 3.54 17.06 5.85 23.81 7.38v395.7c0 16.96 13.75 30.7 30.7 30.7s30.7-13.74 30.7-30.7V348.81h11.51v192.08c0 16.96 13.75 30.7 30.7 30.7s30.7-13.74 30.7-30.7V185.8c7.16 2.41 15.56 5.73 24.56 10.3 11.52 5.86 23.93 13.65 36.04 24.03 14.41 12.35 28.38 28.37 39.9 49.3z"/><path d="M112.93 70.62c0 30.86 25.01 55.86 55.86 55.86 30.85 0 55.86-25.01 55.86-55.86 0-30.85-25.01-55.86-55.86-55.86-30.85 0-55.86 25.01-55.86 55.86zM637.82 268.57h69.51V254.6h-69.51z"/></g></svg>