<svg xmlns="http://www.w3.org/2000/svg" xml:space="preserve" viewBox="0 0 864.76 602.99" shape-rendering="geometricPrecision" text-rendering="geometricPrecision" image-rendering="optimizeQuality" fill-rule="evenodd" clip-rule="evenodd"><path fill="none" stroke="currentColor" stroke-width="48.91" stroke-linecap="round" stroke-linejoin="round" d="m666.5 536.77-68.47-58.05-30 99.13M702.37 536.77l11.74-54.79 56.08 96.52"/><path d="m253.93 138.16-17.12 5.31-.92-2.99a7.823 7.823 0 0 0-9.79-5.16l-59.8 18.53a7.823 7.823 0 0 0-5.16 9.79l15.06 48.59a7.823 7.823 0 0 0 9.79 5.16l59.8-18.54c4.13-1.28 6.43-5.66 5.16-9.79l-2.94-9.47 17.12-5.31c9.98-3.09-1.22-39.22-11.2-36.13zM230.05 122.19h-3.95V97.55h3.95zM241.07 124.4l-3.27-2.2 13.76-20.45 3.27 2.2zM250.93 132.34l-2.52-3.02 18.91-15.8 2.53 3.03zM215.08 124.4l3.27-2.2-13.75-20.45-3.28 2.2zM205.22 132.34l2.52-3.02-18.91-15.8-2.53 3.03z" fill="currentColor"/><path fill="currentColor" d="m254.08 187.6-3.42 1.04-14.86-48.89 3.42-1.04z"/><path d="M228.05 602.99c-13.94 0-25.6-10-27.74-23.8l-27.26-175.65h-7.2l-27.26 175.65c-2.14 13.79-13.81 23.8-27.75 23.8-1.44 0-2.91-.11-4.34-.33-15.31-2.38-25.83-16.77-23.46-32.07l29.58-190.56V266.85c-.98-.35-1.95-.72-2.91-1.11-6.23-2.62-14.17-6.68-20.79-15.02-5.1-6.41-7.99-14.81-7.93-23.02.07-11.26 4.7-22.6 14.16-34.65 9.1-11.53 22.55-23.68 41.12-37.14a19.38 19.38 0 0 1 11.46-3.73c6.26 0 12.19 3.03 15.86 8.09 6.33 8.74 4.36 21-4.37 27.33-19.22 13.89-28.72 23.78-33.31 29.64-4.27 5.41-5.4 8.66-5.69 9.87.3.26.77.62 1.39.98 2.34 1.46 6.01 2.54 6.79 2.7 1.1.21 2.15.51 3.17.89h75.67c2.48 0 4.89.47 7.17 1.4 2.09.49 4.06 1.29 5.86 2.39l.33.2c.35.21.82.48 1.42.83 1.16.66 3.02 1.7 5.25 2.85 2.54 1.31 9.09 4.54 15.15 6.39.31.1.63.19.94.28-.5-2.36-1.34-5.52-2.74-9.49-3.01-8.68-7.84-19.34-14.34-31.7-2.43-4.63-2.92-9.93-1.37-14.91 1.55-5 4.96-9.08 9.58-11.51 2.8-1.47 5.94-2.25 9.09-2.25 7.29 0 13.94 4.01 17.32 10.46 7.52 14.31 12.97 26.44 16.66 37.05 3.88 11.25 5.63 19.89 5.67 28.05 0 7.85-1.84 14.68-5.47 20.32-3.72 5.9-10.03 10.64-16.87 12.64-3.51 1.08-7.23 1.61-11.32 1.62-7.45-.04-13.86-1.7-18.63-3.14-1.53-.47-3.08-.99-4.67-1.57v98.47l29.57 190.54c2.38 15.31-8.15 29.7-23.46 32.07-1.43.22-2.89.33-4.34.33z" fill="currentColor"/><path d="M273.87 224.93c-3.56-10.23-8.89-22.17-16.43-36.51-4.02-7.65-13.48-10.59-21.14-6.57-7.65 4.02-10.6 13.49-6.57 21.14 7.03 13.36 11.73 24.06 14.57 32.23 2.62 7.46 3.58 12.83 3.7 15.75-1.73-.19-4.14-.69-6.73-1.5-5.3-1.61-11.32-4.35-15.8-6.65a133.99 133.99 0 0 1-7.26-4.01c-1.58-.97-3.28-1.62-5-1.98-1.83-.79-3.86-1.24-5.98-1.24h-75.59c-.25 0-.49.03-.74.04-1-.43-2.06-.77-3.18-.98l-.09-.01c-.75-.14-5.1-1.34-8.04-3.17-1.57-.93-2.63-1.95-3-2.5-.37-.61-.35-.46-.4-1.24-.06-1 .62-5.3 6.62-12.9 5.9-7.53 16.69-17.82 34.1-30.4 7-5.07 8.56-14.86 3.49-21.86s-14.86-8.56-21.86-3.49c-18.91 13.71-31.71 25.48-40.33 36.39-8.51 10.85-13.26 21.38-13.32 32.26-.07 8.05 3.01 15.45 7.07 20.56 6.16 7.76 13.55 11.45 19.2 13.83 2 .81 3.8 1.43 5.35 1.9v116.29L86.89 571.18c-2.05 13.2 6.99 25.56 20.19 27.61 13.2 2.05 25.56-6.99 27.62-20.19l27.77-178.97h13.9l27.77 178.97c2.05 13.2 14.41 22.24 27.62 20.19 13.2-2.05 22.24-14.41 20.19-27.61l-29.61-190.85V275.84c3.06 1.27 6.3 2.5 9.72 3.55 5.41 1.63 11.13 2.94 17.49 2.97 3.22 0 6.64-.36 10.22-1.46 5.34-1.56 11.15-5.39 14.69-11 3.59-5.58 4.84-11.92 4.84-18.18-.04-8.04-1.91-16.54-5.45-26.79z" fill="currentColor"/><path d="M169.45 228.34c-26.43 0-47.94-21.5-47.94-47.94 0-26.43 21.5-47.93 47.93-47.93s47.93 21.5 47.93 47.93-21.5 47.94-47.93 47.94z" fill="currentColor"/><path d="M213.47 180.41c0 24.31-19.71 44.02-44.02 44.02-24.31 0-44.02-19.71-44.02-44.02 0-24.31 19.71-44.02 44.02-44.02 24.31 0 44.02 19.71 44.02 44.02zM596.2 277.07l17.12 5.31.92-2.99a7.823 7.823 0 0 1 9.79-5.16l59.8 18.53a7.823 7.823 0 0 1 5.16 9.79l-15.06 48.59a7.823 7.823 0 0 1-9.79 5.16l-59.8-18.53c-4.13-1.28-6.43-5.66-5.16-9.79l2.93-9.47-17.12-5.31c-9.98-3.09 1.22-39.22 11.2-36.13zM620.08 261.1h3.95v-24.64h-3.95zM609.06 263.31l3.27-2.2-13.76-20.45-3.27 2.2zM599.2 271.25l2.52-3.02-18.91-15.8-2.53 3.03zM635.05 263.31l-3.27-2.2 13.76-20.45 3.27 2.2zM644.91 271.25l-2.52-3.02 18.91-15.8 2.53 3.03z" fill="currentColor"/><path fill="currentColor" d="m596.05 326.51 3.42 1.04 14.87-48.89-3.43-1.04z"/><path d="M623.85 462.44v-41.97c-1.59.57-3.13 1.09-4.66 1.56-4.79 1.45-11.22 3.11-18.62 3.15-4.12-.01-7.84-.54-11.39-1.64-6.8-1.99-13.11-6.72-16.85-12.66-3.6-5.61-5.45-12.44-5.45-20.26.04-8.18 1.78-16.83 5.66-28.06 3.71-10.65 9.16-22.77 16.66-37.05a19.512 19.512 0 0 1 17.33-10.47c3.15 0 6.29.78 9.09 2.25a19.45 19.45 0 0 1 9.58 11.51c1.55 4.99 1.07 10.29-1.36 14.91-6.5 12.36-11.33 23.02-14.34 31.69-1.4 3.99-2.24 7.14-2.75 9.51.31-.09.61-.18.91-.27 6.1-1.86 12.64-5.1 15.18-6.4 1.7-.87 3.42-1.8 5.27-2.85.61-.34 1.08-.63 1.38-.8l.28-.17c1.85-1.14 3.82-1.95 5.91-2.42 2.28-.94 4.7-1.41 7.18-1.41h75.68c1.02-.38 2.05-.67 3.08-.87.87-.18 4.53-1.25 6.8-2.66.68-.4 1.17-.78 1.48-1.05-.27-1.11-1.37-4.37-5.69-9.85-4.59-5.86-14.09-15.75-33.32-29.65a19.398 19.398 0 0 1-7.84-12.75c-.83-5.16.41-10.33 3.47-14.56 3.67-5.07 9.6-8.09 15.86-8.09 4.14 0 8.1 1.29 11.46 3.72 18.57 13.46 32.01 25.61 41.11 37.13 9.47 12.06 14.1 23.39 14.17 34.67.06 8.21-2.82 16.6-7.92 23.02-6.63 8.35-14.58 12.41-20.75 15-.98.4-1.97.78-2.95 1.13v56.67l-113.65.02z" fill="currentColor"/><path d="M576.25 363.84c3.56-10.23 8.89-22.17 16.43-36.51 4.03-7.65 13.49-10.59 21.14-6.57s10.59 13.49 6.57 21.14c-7.03 13.35-11.73 24.05-14.57 32.23-2.62 7.46-3.58 12.83-3.7 15.75 1.73-.19 4.14-.69 6.73-1.5 5.3-1.61 11.32-4.35 15.8-6.66 2.25-1.15 4.13-2.2 5.41-2.93.64-.37 1.13-.66 1.45-.84.32-.19.39-.24.39-.24 1.59-.98 3.28-1.62 5-1.98 1.83-.79 3.85-1.23 5.98-1.23h75.59c.25 0 .49.03.74.04 1-.43 2.06-.77 3.18-.98l.09-.01c.75-.14 5.1-1.34 8.04-3.17 1.57-.93 2.63-1.95 3-2.5.37-.61.34-.46.4-1.24.06-1-.62-5.31-6.62-12.9-5.9-7.53-16.69-17.82-34.09-30.4-7-5.07-8.56-14.86-3.5-21.86 5.07-7 14.86-8.56 21.86-3.49 18.91 13.71 31.71 25.48 40.33 36.39 8.52 10.85 13.26 21.38 13.33 32.26.07 8.05-3.01 15.45-7.07 20.56-6.16 7.76-13.55 11.45-19.2 13.83-1.99.81-3.8 1.43-5.35 1.9v128.61l-105.83.02v-116.8c-3.06 1.27-6.31 2.5-9.72 3.55-5.41 1.63-11.13 2.94-17.49 2.97-3.21 0-6.64-.36-10.22-1.46-5.33-1.56-11.15-5.39-14.68-11-3.59-5.58-4.85-11.92-4.85-18.18.04-8.04 1.91-16.54 5.45-26.79z" fill="currentColor"/><path d="M680.68 367.25c26.43 0 47.93-21.5 47.93-47.94 0-26.43-21.5-47.93-47.93-47.93s-47.93 21.5-47.93 47.93 21.5 47.94 47.93 47.94z" fill="currentColor"/><path d="M636.66 319.32c0 24.31 19.71 44.02 44.02 44.02 24.31 0 44.02-19.71 44.02-44.02 0-24.31-19.71-44.02-44.02-44.02-24.31 0-44.02 19.71-44.02 44.02zM504.86 439.23c0 13.36-10.83 24.19-24.19 24.19-13.36 0-24.19-10.83-24.19-24.19V192.28c0-13.36 10.83-24.19 24.19-24.19 13.36 0 24.19 10.83 24.19 24.19v246.95z" fill="currentColor"/><path d="M504.86 253.36c0 8.34-6.77 15.12-15.12 15.12h-75.59c-8.35 0-15.12-6.77-15.12-15.12V115.09c0-8.35 6.77-15.12 15.12-15.12h75.59c8.35 0 15.12 6.77 15.12 15.12v138.27z" fill="currentColor"/><path d="M408.82 115.86s-114.05 38.74-22.75-81.25M493.35 115.47s98.47 29.35 20.54 135.65" fill="none" stroke="currentColor" stroke-width="31.3" stroke-linecap="round"/><path d="M495.96 44.02c0 24.31-19.71 44.02-44.02 44.02-24.31 0-44.02-19.71-44.02-44.02C407.92 19.71 427.63 0 451.94 0c24.31 0 44.02 19.71 44.02 44.02zM477.38 95.87s-9.84 70.53-25.44 86.13c-15.59-15.59-25.43-86.13-25.43-86.13h50.87z" fill="currentColor"/><path fill="currentColor" d="m449.99 109.56-13.7 7.83V99.78l13.7 7.83zM453.9 107.61l13.69-7.83v17.61l-13.69-7.83zM455.85 124.24a3.91 3.91 0 1 1-7.82 0 3.91 3.91 0 1 1 7.82 0zM455.85 137.93a3.91 3.91 0 1 1-7.82 0 3.91 3.91 0 1 1 7.82 0zM455.85 153.58a3.91 3.91 0 1 1-7.82 0 3.91 3.91 0 1 1 7.82 0z"/><path fill="none" stroke="currentColor" stroke-width="48.91" stroke-linecap="round" stroke-linejoin="round" d="m426.51 248.51-46.31 78.26 49.57 99.13"/><path fill="currentColor" d="M332.46 309.16h-88.55v-7.82h88.55zM101.74 309.16H0v-7.82h101.74zM864.76 309.16H763.02v-7.82h101.74z"/></svg>