<svg xmlns="http://www.w3.org/2000/svg" xml:space="preserve" viewBox="0 0 171.71 237.81" shape-rendering="geometricPrecision" text-rendering="geometricPrecision" image-rendering="optimizeQuality" fill-rule="evenodd" clip-rule="evenodd"><g fill="currentColor"><path d="M169.18 1.96c-3.14-2.82-7.97-2.57-10.79.57-8.48 9.42-22.49 24.26-34.32 36.69-5.92 6.22-11.31 11.84-15.21 15.91L105 59.14H71.4c-.81 0-1.59.14-2.32.38-1.62.23-3.66.76-5.87 1.88-5.14 2.55-10.68 8.12-14.55 17.99-2.49 6.31-4.46 14.41-5.57 25.03H29.1c.1-17.94 4.22-28.21 8.17-33.98 1.21-1.76 2.4-3.1 3.48-4.12l9.05-5.35c2.31.93 5.02.76 7.26-.71a7.875 7.875 0 0 0 2.27-10.91 7.875 7.875 0 0 0-10.91-2.27 7.893 7.893 0 0 0-3.56 6.37l-24.79 17.9 3.4 5.19 8.76-5.18c-3.72 6.75-6.89 17.19-6.96 33.08H8.39v4.45H58c1.13-13.21 3.59-21.53 6.01-26.5v26.5h51.66V70.1c8.38-8.71 39.14-40.74 54.08-57.33 2.82-3.14 2.57-7.97-.57-10.79z"/><path d="M89.84 53.7c11.87 0 21.49-9.62 21.49-21.49s-9.62-21.49-21.49-21.49-21.49 9.62-21.49 21.49S77.97 53.7 89.84 53.7zM0 111.74v17.19h18.66v108.88h106.69V128.93H144v-17.19z"/></g></svg>