<svg xmlns="http://www.w3.org/2000/svg" xml:space="preserve" viewBox="0 0 21186.24 10109.12" shape-rendering="geometricPrecision" text-rendering="geometricPrecision" image-rendering="optimizeQuality" fill-rule="evenodd" clip-rule="evenodd"><g fill="currentColor"><path d="M3220.1 3328.45c474.85 19.67 875.68-349.41 895.28-824.27 19.49-474.82-349.6-875.61-824.38-895.21-474.71-19.56-875.54 349.52-895.21 824.3-19.49 474.85 349.52 875.61 824.3 895.17z"/><path d="M243.57 10078.03c196.85 76.75 418.61-20.62 495.32-217.47l1069.88-2744.23c8.94-23.02 15.31-46.36 19.63-69.77 61.88 7.67 123.73 15.38 185.58 22.47v2657.55c0 211.28 171.33 382.54 382.54 382.54 211.28-.04 382.5-171.22 382.5-382.54V7142.3c230.34 17.6 460.46 31.71 690.1 41.27-183.58-977.01-222.74-1966.61-123.19-2938.28 286.37 62.54 733.37 136.89 1244.77 137.29 333.49 0 694.76-31.85 1057.08-122.39 133.26-33.31 214.27-168.24 180.92-301.46-33.27-133.18-168.24-214.19-301.42-180.96-313.2 78.25-634.94 107.66-936.58 107.55-395.99.11-756.79-50.29-1016.43-100.72-97.12-18.87-180.12-37.7-245.57-53.74-128.82-38.18-392.57-120.57-622.84-221.87-134.89-59.37-285.39-136.6-414.21-205.87-67.12-62.76-222.48-223.87-376.28-497.03-199.61-355.41-398.79-898.22-399.15-1676.1 0-182.56 11.02-377.99 35.92-586.95 16.22-136.38-81.12-260.15-217.43-276.37-136.38-16.25-260.04 81.12-276.37 217.43-27.16 228.05-39.45 443.26-39.45 645.89-.44 891.9 239.9 1538.8 486.23 1960.36 91.84 157.44 184.12 283.6 264.73 380.83-589.6 990.54-1054.1 2117.57-1343.81 3351.98 210.63 41.16 421.26 78.14 631.96 112.53l-1031.88 2647c-76.72 196.85 20.69 418.61 217.43 495.32zM2777.02 1107.36c5.09 31.31 34.61 52.47 65.88 47.38 31.23-5.16 52.43-34.61 47.34-65.88l-67.63-412.43 342.51 252.15c14.18 10.47 32.54 13.82 49.56 9.05 16.98-4.73 30.87-17.16 37.56-33.45l274.4-669.67 151.4 547.9c5.24 18.83 19.6 33.63 38.25 39.49 18.69 5.82 38.83 1.82 53.88-10.76l502.01-419.77-105.81 591.24c-3.35 18.51 2.65 37.41 15.93 50.72 13.27 13.27 32.18 19.2 50.72 15.93l648.62-116.97-469.15 493.07c-13.45 14.03-18.76 34.07-14.29 52.9 4.47 18.87 18.36 34.29 36.69 40.76l488.31 173-411.63 163.91c-29.45 11.78-43.78 45.12-32 74.61 8.91 22.47 30.43 36.14 53.23 36.14 7.09 0 14.29-1.31 21.27-4.11l553.32-220.37c22.14-8.91 36.54-30.51 36.1-54.39-.44-23.92-15.71-45.01-38.18-52.98l-548.74-194.45 529.25-556.12c17.09-17.89 20.72-44.9 8.98-66.76-11.78-21.82-36.32-33.63-60.72-29.23L4293.87 921.6l119.04-665.3c4.25-23.71-6.84-47.63-27.6-59.74-20.91-12.14-47.16-9.85-65.67 5.64L3764.9 665.96 3592.56 42.07c-6.62-23.74-27.42-40.5-51.92-41.96-24.58-1.45-47.19 12.76-56.54 35.52L3173.88 792.6 2777.2 500.52c-18.8-13.85-43.99-14.91-63.96-2.73-19.96 12.22-30.43 35.12-26.65 58.21l90.39 551.35zM16531.69 3765.09c189.25 0 352 141.47 378.43 329.2 3.78 26.8 4.51 53.52 2.73 79.88h78.46l263.28 501.87h-2243.01l-9.78 22.83 1290.98 724.79c229.57 128.89 337.27 404.17 256.12 654.58l-586.48 1810.59c-74.39 229.65-286.37 383.92-527.43 383.92h-.15c-58.1 0-115.66-9.16-171.03-27.2-290.88-94.24-451-407.63-356.72-698.57l446.35-1377.7c-359.89-195.72-834.16-452.24-1070.46-576.84h-107.04c121.44 61.77 215.03 164.2 264.84 292.48 53.92 138.86 50.32 290.15-10.18 426.1l-377.37 849.17c168.53 240.15 302.91 518.27 359.27 832.45h-374.25c-31.71-158.27-84.75-308.73-155.62-448.64l-268.04 603.13c-88.9 200.2-287.97 329.53-507.11 329.53-77.74-.04-153.4-16.11-225.03-47.89-183.14-81.45-299.86-250.63-324.07-436.13h-296.04v698.17h1052.71c-145.18 418.32-541.36 719.04-1009.12 719.73-590.44-.87-1068.13-478.67-1069.33-1068.86 1.24-590.66 478.89-1068.09 1069.33-1069.33 157.4.36 306.29 35.27 440.64 96.5l284.04-639.16c-221.14-99.62-466.31-155.4-724.68-155.51-976.21.33-1767.4 791.25-1767.4 1767.5 0 701.3 409.33 1305.12 1001.34 1590.8 231.83 111.88 491.25 176.45 766.06 176.63 856.77-.36 1570.36-609.6 1732.31-1418.31h2452.99l1410.93-2779.61 512.27 977.27c-460.6 318.94-762.71 850.48-762.71 1453.21 0 976.14 791.18 1767.07 1767.43 1767.43 976.03-.36 1767.1-791.29 1767.1-1767.43 0-976.29-791.07-1767.18-1767.1-1767.5-186.45 0-365.92 29.27-534.56 82.83l-928.04-1769.94-648.51-1236.58h-1183.61v154.96c109.77-6.65 228.05-18.87 353.52-36.54 17.74-2.55 35.81-3.82 53.74-3.82zm2211.09 3749.35 531.68 1014.28 463.8-243.1-520.85-993.3c65.34-12.62 132.78-19.78 201.72-19.96 590.15 1.24 1068.17 478.67 1068.75 1069.33-.58 590.19-478.6 1067.99-1068.75 1068.86-590.51-.87-1068.17-478.67-1069.33-1068.86.69-333.74 153.62-631.2 392.97-827.25z"/><path d="M11672.07 5592.44h-369.85l-392.72 698.21 2019.15-34.14-1037.41-452.93c-106.21-46.39-171.47-124.71-219.17-211.14zM18709.98 5112.39V4043.24c-295.24 0-534.56 239.35-534.56 534.63 0 52.47 9.85 102.21 23.89 150.35 65.41 221.43 267.93 384.21 510.67 384.17zM15814.54 2228.11c417.59 226.85 939.96 72.17 1166.77-345.41 226.88-417.59 72.17-940.04-345.41-1166.77-417.59-226.88-940.04-72.17-1166.88 345.34-226.77 417.66-72.1 940.11 345.52 1166.85zM13483.6 4559.58c-48.14 625.56 342.03 798.63 681.16 887.42 42.4 11.09 1280.91 685.45 1280.91 685.45l-465.8 1438.05c-81.41 251.21 56.32 520.96 307.53 602.29 48.98 15.89 98.64 23.42 147.47 23.42 201.72 0 389.23-128.68 454.78-330.94l586.48-1810.63c70.28-217.03-21.96-452.64-220.81-564.3l-1413.84-793.76c30.43-116.17 67.99-232.08 109.77-346.69-193-119.22-342.83-296.77-416.61-497.14-46.07-121.59-69.59-255.5-69.59-397.37 1.67-161.11 31.09-410.79 162.38-689.23l4.58-9.85.95-2.22 1.82-3.78c65.56-129.11 196.3-209.25 341.2-209.25 59.63-.04 119.44 14.36 172.96 41.6 187.32 94.97 262.88 325.09 168.45 512.85-3.05 6.47-6.14 13.27-10.18 22.58-7.96 18.51-19.96 48.36-31.96 85.3-28.72 86.64-45.52 180.52-45.12 251.61-.07 48.61 6.76 92.17 19.89 126.42 5.45 14 11.82 27.2 20.43 40.47 78.32-158.67 155.07-307.2 221.47-440.49 206.89-337.92 189.47-815.32-103.7-980.5-293.2-165.18-796.71-119.91-1131.14 368.9-455.84 674.87-643.2 1144.27-773.47 1989.81z"/><path d="M15178.57 3608.78c-16.47-43.05-25.05-95.33-25.02-153.4-.44-93.12 23.27-198.27 48.98-275.68 12.62-38.8 25.38-70.79 34.36-91.73 4.51-10.51 8.04-18.14 10.18-22.65 1.02-2.22 1.71-3.64 1.96-4.18 75.7-150.53 15.63-334.03-134.71-410.35-150.64-76.57-334.87-16.51-411.41 134.17-8.44 22.22-157.65 299.06-161.36 670.43 0 115.8 16.33 242.84 64.87 370.94 70.97 192.67 225.86 380.1 451.95 496.56 226.08 118.13 511.9 176.74 878.84 177.14 188.49-.11 399.15-15.89 636.76-49.38 167.33-23.6 283.89-178.38 260.33-345.67-23.52-167.36-178.38-283.93-345.71-260.37-214.3 30.25-397.3 43.38-551.39 43.38-404.06.15-596.51-90.28-677.3-162.93-42-37.38-64.39-72.94-81.34-116.28zM12725.55 2207.64c468.27 81.77 914.15-231.5 995.96-699.74 81.81-468.31-231.54-914.15-699.77-995.92-468.24-81.81-914.15 231.5-995.96 699.74-81.74 468.24 231.54 914.11 699.77 995.92zM6813.1 3686.3l1193.43 1075.55c156.27 140.86 362.25 102.72 457.66-84.79l476.71-841.61c56.94-111.91 61.77-252.55 23.56-377.85 6.94-6.76 14-13.34 20.62-20.65l272.08-301.89c25.02-27.78 45.27-58.07 61.85-89.7 327.05 204.74 676.18 289.6 998.36 289.6 5.2 0 10.36 0 15.6-.07 358.1-.76 683.67-89.81 951.96-197.54-101.66 1108.56 292.66 2043.55 351.05 2180.55 3.56 8.29 6.98 16.69 10.44 25.05 63.67 155.22 112.02 319.16 275.5 390.57l1369.44 597.82-620.51 1396.35c-107.3 241.32 1.38 523.9 242.66 631.16 63.12 28 129.11 41.3 193.98 41.3 183.25.04 358.03-105.84 437.19-284.08l816.09-1836.12c51.85-116.71 54.98-248.23 8.76-367.34-46.29-119.08-137.29-213.98-254.44-265.02l-662.98-289.49c-13.96-40.14-31.12-81.81-46.9-121.59-16.58-41.92-31.63-81.66-39.7-115.15-323.6-911.42-179.29-1374.86 147.58-1927.34 75.95 28.54 158.38 63.05 239.35 103.12 79.92-177.07 175.14-352.5 290.98-538.66-91.23-45.78-180.85-84.46-264.04-117.88-151.58-59.63-282.37-99.33-361.74-121.37-18.11-9.16-36.21-16.25-53.88-20.36-469.18-104.28-938.26-208.67-1407.44-313.02-20.14-4.62-43.7-5.78-69.41-4.04-80.61-12.76-166.13 6.29-235.65 60.36l-.04-.07c-9.38 7.38-175.25 132.35-422.21 251.43-246.88 119.88-573.1 230.3-896.04 229.36-346.83-4.18-685.96-107.91-1024.97-486.27-111.84-126.71-305.27-138.86-431.91-26.94-.29.25-.51.55-.84.8-177.29-125.95-424.42-102.02-573.64 63.41l-272.08 301.89c-6.58 7.31-12.4 15.02-18.43 22.65-128.53-25.05-267.97-5.64-373.34 62.57l-787.69 561.32c-176.56 114.31-193.21 323.13-36.94 463.98zm1630.54-1284.4c87.74-97.04 235.54-106.75 335.42-24.22-18.58 90.86 3.85 189 69.96 263.9 98.82 113.3 203.21 209.94 310.87 292.88-10.33 25.89-25.09 50.58-44.83 72.57l-245.64 272.59c-12.29-14.54-25.16-28.54-39.2-41.2l-587.2-529.25c-14.07-12.62-29.31-23.96-45.05-34.69l245.68-272.59z"/></g></svg>