<svg xmlns="http://www.w3.org/2000/svg" xml:space="preserve" viewBox="0 0 6975.93 6958.89" shape-rendering="geometricPrecision" text-rendering="geometricPrecision" image-rendering="optimizeQuality" fill-rule="evenodd" clip-rule="evenodd"><g fill="currentColor"><path d="M1170.48 1364.02c-300.93 0-544.85 243.94-544.85 544.87 0 300.91 243.92 544.85 544.85 544.85 300.93 0 544.85-243.94 544.85-544.85 0-300.93-243.92-544.87-544.85-544.87z"/><path d="M388.14 3598.09c177.42 203.64 459.66 360.43 817.28 360.45 1.63 0 3.27 0 4.93-.02 136.08 0 282.08-21.54 437.01-67.53 102.57-30.41 161.03-138.27 130.6-240.83-30.43-102.54-138.22-161.01-240.79-130.58-123.21 36.51-231.65 51.54-326.83 51.54-249.67-1.45-413.97-98.47-531.66-229.32-116.7-129.89-172.88-303.28-171.23-410.17-.12-9.02.28-17.24.92-24.95l48.73-1.75c-.81 7.5-1.36 16.18-1.2 26.03-1.5 99.25 52.53 260.19 158.82 378.48 127.98 142.29 290.2 212.04 495.91 213.26 54.46 0 111.77-5.5 171.23-16.02 30.75-115.8 80.93-224.1 144.39-336.49 1.5.87 2.92 1.73 4.44 2.6 135.9 76.79 326.59 158.94 553.59 159.79h1.61c130.23 0 271.93-29.97 407.78-103.95 83.76-45.39 164.48-106.82 240.65-184.74l52.04 82.4 163.79-103.42-85.58-135.55c2.67-3.75 5.48-7.2 8.13-11 61.57-87.51 40.53-208.33-46.98-269.88-19.5-13.72-40.67-23.11-62.47-28.79l48.68-30.73-60.33-95.55-85.33 53.86-495.61-784.87-367.45-83.02 637.84 1010.12-85.33 53.86 60.35 95.57 46.79-29.55c-53.24 55.63-104.94 94.07-153.94 120.73-77.43 41.68-150.21 56.74-224.65 57.04-127.7.81-261.75-51.4-361.9-109.03-49.97-28.45-91.15-57.29-118.79-78.33-13.88-10.5-24.33-19.04-30.89-24.51-3.27-2.79-5.55-4.76-6.79-5.87-.39-.32-.64-.55-.85-.71-28.33-25.76-62.26-41.36-97.41-47.37-1.82-.53-3.71-1.31-5.52-1.73-296.99-66.04-593.97-132.14-891.01-198.18-10.5-2.44-22.74-3.15-35.86-2.85-7.02-1.04-14.13-1.77-21.38-2.05l-.05-.05c-3.64-.09-8.56-.3-14.71-.3-59.96-.25-121.88 14.57-174.68 44.24-80.35 44.49-133.46 116.49-163.03 188.21-28.63 69.1-39.96 140.77-41.2 213.99-.07 3.68-.23 7.37-.25 11.07 1.66 217.63 89.01 460.88 268.18 666.47zm1612.63-1777.66 35.84-22.6 455.77 721.74-35.84 22.65-455.77-721.78z"/><path d="M174.2 6930.15c41.57 19.5 85.3 28.75 128.37 28.75 113.73 0 222.74-64.43 274.23-174.24 329.54-702.72 412.04-1361.9 412.04-1845.86-.02-103.85-3.82-199.7-9.81-286.48 4.1 1.98 8.03 4.17 12.27 5.96 7.99 3.61 130.26 62.7 248.27 218.76 118.7 158.84 244.35 416.78 245.78 869.95 0 226.4-33.03 501.46-119.41 832.75-42.19 161.74 54.74 327.08 216.48 369.27 25.62 6.68 51.33 9.87 76.63 9.87 134.45.02 257.17-90.21 292.71-226.35 97.46-373.92 138.98-700.24 138.98-985.54 1.82-608.42-195.23-1030.4-408.35-1285.69-90.9-109.82-182.11-189.34-259.31-245.64-23.52-77.73-41.09-150.07-53.33-217.98-54.02 6.12-107.22 9.28-159.37 9.28l-4.93.05c-333.91-.05-645.06-137.51-853.79-377.12-82.31-94.44-148.19-200.34-195.51-310.94 7.73 307.95 72.11 590.12 157.81 946.87 1.04 4.79 1.77 9.55 3.04 14.34l.05.35h.05s0 .02.02.02c4.58 17.88 66.45 271.47 66.34 658.28 0 416.04-70.89 983.72-354.7 1588.78-71.01 151.32-5.89 331.57 145.47 402.58zM3175.14 912.18c-11.21-87.51-138.33-118.52-206.97-134.79-60.6-14.39-123.12-21.91-185.87-26.63-27.99-132.7-55.7-267.07-76.42-402.12 75.27.09 151.13 17.36 222.72 49.95 34.55 15.72 86.78-1.13 119.92-12.77 4.49-1.57 85.6-36.23 56.81-49.33-128.46-58.51-269.97-71.77-408.65-52.8-11.32-83.92-19.8-167.98-22.99-252-2.39-63.11-189.99-24.58-187.13 50.13 3.15 82.49 11.44 164.99 22.51 247.32-68.8 23.87-134.95 54.67-196.06 91.01-149.06 88.69-311.68 296.6-64.29 371.92 112.28 34.18 232.36 28.91 351.18 30.75 2.72 13.03 5.46 26.1 8.15 39.11 27.28 130.9 55.06 262.54 86.57 393.14-82.33 22.03-164.25 13.26-218.71-50.2-36.48-42.51-196.75 38.92-187.13 50.13 90.97 105.97 259.68 98.47 418.69 52.39 19.98 79.78 41.5 159.12 65.58 237.47 21.01 68.48 207.59 16.55 187.11-50.13-26.06-84.84-49.14-170.79-70.41-257.22 49.51-23.57 93.22-48.18 126.78-70.34 78.33-51.77 171.64-153.5 158.64-254.99zm-864.31-250.45c-57.77-91.63 81.62-200.16 144.3-240.42 20.16-12.94 40.93-23.89 62.08-33.31 17.95 118.72 41.52 236.94 65.85 354.08-96.12-.39-220.88 1.1-272.23-80.35zm560.61 499.55c-24.86-106.23-47.51-213-69.93-319.37 41.71 9.3 82.52 23.11 122.06 43.71 113.98 59.41 57.57 184.97-52.13 275.66zM4413.35 3141.82c60.86 42.74 134.51 62.47 199.06 62.47h3.13c88.39-.64 159.93-28.17 220.51-59.13 6.7-3.52 13.07-7.23 19.56-10.86 77.55 322.61 54.92 612.4-234.32 1058.18-3.66 7.16-8.22 14.87-13.1 22.74-96.24 95.78-218.6 239.68-339.05 442.53-241.98 406.21-471.49 1046.65-477.27 1984.17-1.17 167.18 133.41 303.62 300.63 304.8h2.14c166.14.02 301.46-134.19 302.63-300.65 6.26-842.28 207.07-1366.06 392.36-1679.15 92.97-156.5 182.97-260.37 246.1-323.17 31.53-31.33 56.35-52.34 71.33-64.29 7.55-5.96 12.57-9.67 14.73-11.23.23-.16.44-.28.58-.41 4.12-2.72 7.85-5.78 11.78-8.7 2.62.28 5.22.48 7.85.74-8.24 107.68-14.34 236.44-14.34 382.5.14 473.24 63.51 1128.39 331.13 1822.71 46.36 120.13 161.01 193.81 282.52 193.83 36.23 0 73.06-6.56 108.87-20.39 155.92-60.17 233.6-235.35 173.46-391.32-233.19-603.66-290.78-1185.74-290.6-1604.82 0-195.72 12.43-355.53 24.51-464.52 6.1-54.53 12.06-96.35 16.37-123.6.05-.16.05-.25.07-.41 192.54-379.67 331.59-670.8 399.24-1046.7 24.26 20.78 50.27 40.81 80.01 59.02 47.21 28.22 106.66 55.43 184.69 56.07h1.52c42.42 0 88.8-10.33 129.2-30.96 72.85-36.99 120.04-96.67 152.42-158.01 48.45-93.52 74.88-202.81 95.02-351.13 19.36-148.09 29.46-334.77 29.51-574.29 0-77.36-1.06-160.18-3.25-248.91-2.69-106.96-91.52-191.48-198.48-188.84-106.94 2.62-191.51 91.54-188.81 198.48 2.09 85.76 3.08 165.45 3.08 239.27.55 347.31-24.42 567.1-55.01 676.69-.62 2.3-1.27 4.56-1.89 6.74-4.49-4.35-9.09-8.93-13.74-13.74-46.86-47.42-100.08-113.31-151.87-173.67-26.31-30.43-52.09-59.59-82.08-87.7-15.21-14.09-31.46-28.06-52.43-42.28-8.84-5.8-18.58-11.88-29.81-17.77-53.15-38.28-110.02-63.6-150.7-63.9-304.24-4.76-608.47-9.44-912.67-14.2-2.03-.02-4.17.32-6.21.41-59.02-3.61-118.91 19.54-159.99 68.2l.02.02c-4.14 4.95-48.94 55.59-103.51 99.76-27.99 22.93-58.53 43.78-83.05 56.05-10.98 5.57-20.58 9.44-27.57 11.6-8.79-14.66-23.62-47.35-35.17-102.43-14.66-67.63-24.95-167.36-24.9-301.21.02-124.09 8.61-277.57 28.63-463.8 11.39-106.36-65.65-201.89-171.99-213.26-106.36-11.44-201.89 65.6-213.26 171.99-21.11 196.85-30.8 363.26-30.8 505.07.99 248.98 26.88 421.66 91.72 559.28 32.85 68.22 79.11 129.1 141.47 172.12z"/><path d="M5449.62 2453.36c292.69 69.9 586.62-110.69 656.5-403.4 69.9-292.69-110.71-586.6-403.4-656.5-292.69-69.9-586.6 110.71-656.5 403.4-69.88 292.69 110.71 586.62 403.4 656.5zM5037.56 1368.2c2.44.76 4.9 1.13 7.32 1.13 10.27 0 19.8-6.56 23.11-16.89h-.07c.07 0 2.07-6.49 7.48-17.77 17.1-34.89 59.13-99.83 143.24-99.44 1.22-.05 1.84-.05 2.09 0 13.35.6 24.65-9.78 25.25-23.13.6-13.35-9.78-24.65-23.13-25.25-1.96-.12-3.41-.07-4.21-.07-74.39-.18-125.35 38.97-154.88 76.07-29.99 37.31-41.36 73.24-41.96 74.92-4.03 12.75 3.02 26.38 15.77 30.43zM5208.85 1123.18c13.35.64 24.7-9.64 25.37-23.02.64-13.35-9.64-24.72-22.99-25.37-6.88-.35-13.49-.44-19.84-.44-129.89-.64-204.95 61.18-241.87 122.36-37.4 61.09-41.06 119.85-41.29 122.02-.9 13.35 9.25 24.86 22.58 25.73.55.05 1.1.07 1.63.07 12.64 0 23.27-9.85 24.12-22.65 0-.05.69-11.42 5.41-30.36 16.04-57.93 59.15-167.8 229.42-168.74 5.71 0 11.58.09 17.47.39zM4214.8 3255.34c37.5 29.97 73.63 41.22 75.34 41.82 2.42.78 4.86 1.1 7.27 1.1 10.29 0 19.82-6.61 23.09-16.96 3.98-12.77-3.13-26.36-15.86-30.31-.05-.02-6.56-2.05-17.88-7.46-35.06-17.01-100.33-58.92-99.94-143.42v-1.4c.55-13.37-9.78-24.65-23.11-25.25-13.37-.6-24.7 9.76-25.25 23.13-.09 1.73-.05 2.92-.05 3.52-.21 74.62 39.13 125.68 76.39 155.23zM4148.94 3369.71c61.3 37.45 120.34 40.83 122.52 41.09.53.05 1.04.05 1.54.05 12.66 0 23.32-9.92 24.12-22.72.78-13.33-9.35-24.81-22.67-25.62l-.07-.05c0 .05-11.37-.67-30.48-5.29-58.14-15.95-168.46-58.83-169.41-230.22 0-5.34.09-10.7.35-16.07.55-13.35-9.81-24.63-23.13-25.23-13.37-.6-24.67 9.74-25.27 23.09-.3 6.26-.39 12.34-.39 18.21-.64 130.6 61.43 205.85 122.89 242.77zM6619.8 3620.14c8.4.6 16.57.9 24.54.9h1.82c93.4 0 149.98-45.44 178.09-90.16 28.84-44.93 32.82-87.79 33.1-89.93 1.31-13.3-8.45-25.14-21.75-26.4-13.33-1.31-25.14 8.47-26.42 21.77 0 0-.64 7.41-4.35 20.51-12.71 40.19-43.46 115-160.48 115.75-6.72.05-13.74-.23-21.06-.76-13.4-.99-24.95 9.09-25.94 22.42-.92 13.35 9.11 24.9 22.47 25.89z"/><path d="M6578.16 3732.05c.44 13.12 11.19 23.43 24.19 23.43.28 0 .53 0 .83-.02 277.08-10.61 370.35-255.1 371.16-257.34 4.76-12.48-1.52-26.47-13.97-31.23-12.5-4.79-26.49 1.47-31.23 13.99h-.05s-4.74 12.54-16.39 33.21c-35.68 62.61-127.65 186.67-311.17 192.93-13.4.46-23.87 11.65-23.36 25.02z"/></g></svg>