<svg xmlns="http://www.w3.org/2000/svg" xml:space="preserve" viewBox="0 0 549.87 536.82" shape-rendering="geometricPrecision" text-rendering="geometricPrecision" image-rendering="optimizeQuality" fill-rule="evenodd" clip-rule="evenodd"><g fill="currentColor"><path d="m87.44 397.18 94.16 31.2c3.65 1.21 6.97 3.03 9.88 5.29l4.58-22.07c1.67-8.07-.22-16.45-5.21-23.01a28.42 28.42 0 0 0-20.77-11.19l-8.56-.57-12.76 13.87-3.27-14.94-57.15-3.83c-.74 8.47-1.12 16.95-.91 25.26zM141.13 536.22c1.95.4 3.9.6 5.82.6 13.21 0 25.06-9.25 27.85-22.7l4.62-22.29-60.72 20.24c1.54 11.67 10.25 21.63 22.43 24.16zM241.99 173.57c-4.68.55-9.14 2.9-12.26 6.92-14.45 18.67-33.86 31.84-54.49 40.99-4.28 10.77-11.66 19.72-20.98 25.87 31.42-10.1 55.59-25.83 71.87-46.88 4.36-5.61 10.91-8.81 18.01-8.81 5.1 0 9.93 1.65 13.97 4.79 4.81 3.73 7.87 9.12 8.63 15.15.75 6.03-.88 12.01-4.61 16.81-3.78 4.85-7.86 9.45-12.18 13.86l29.18 7.32 31.42-80.98-66.29-16.64-2.26 21.58zM173.37 212.36c6.42-27.57-10.72-55.11-38.29-61.53-27.57-6.42-55.12 10.72-61.54 38.28-6.42 27.56 10.73 55.11 38.29 61.53 27.57 6.42 55.11-10.72 61.53-38.29z"/><path d="M74.82 305.03h-.01c-3.6 0-7.07-.08-9.77-.22-6.23-.36-11.79-3.07-15.84-7.62-4.04-4.55-6.06-10.4-5.71-16.47.72-12.02 10.69-21.44 22.72-21.44.45 0 .91.01 1.37.04h-.09c.08 0 .2 0 .38.01.27.01.72.03 1.32.05 1.19.03 2.98.08 5.27.08h.65c7.39 0 22.9-.43 41.63-3.33-2-.24-3.99-.59-5.95-1.04-9.9-2.3-18.75-7.2-25.89-14.06-3.94.16-7.37.22-10.09.21-2.53 0-4.48-.04-5.76-.08-.64-.02-1.12-.04-1.41-.05-.29-.01-.33-.01-.33-.01-2.58-.15-5.06.24-7.34 1.08-16.95 2.13-35.53 14.3-44.31 39.83-3.31 9.81-6.03 18.87-8.26 27.58-8.21 32.08-9.31 59.1-4.68 98.9 6.09 31.33 25.31 38.65 43.81 39.94l34.39 11.39-20.43 6.81-2.09 16.72-12.01-12.01-14.03 4.68c-14.92 4.97-22.98 21.11-18.01 36.02 3.98 11.93 15.09 19.48 27.02 19.48 2.99 0 6.02-.47 9.01-1.47l129.85-43.29a28.415 28.415 0 0 0 19.47-27.05 28.405 28.405 0 0 0-19.52-27L83 400.51c-.72-16.7.93-34.1 3.44-50.79l-14.94-1.36 10.82-14.24-5.7-11.39 15.25-3.44c1.03-5.2 2.06-10.2 3.02-14.96-8.06.53-14.91.7-20.08.7z"/><path d="M255.3 200.06c-7.95-6.17-19.4-4.74-25.58 3.21-20.94 27.07-52.32 42.59-82.75 51.04-30.31 8.47-59.02 9.72-72.15 9.7-2.53 0-4.48-.04-5.76-.08-.64-.02-1.12-.04-1.41-.05-.29-.01-.33-.01-.33-.01-10.05-.6-18.68 7.06-19.27 17.12-.59 10.05 7.07 18.68 17.12 19.27.32.01 3.78.21 9.66.22 15.31-.02 46.89-1.3 81.94-11.04 34.92-9.75 73.98-28.14 101.76-63.8 6.18-7.95 4.74-19.4-3.21-25.57zM441.23 231.81c4.65 7.99 9.65 15.64 14.93 22.93 1.84-8.75 4.11-17.24 6.75-25.43a268.316 268.316 0 0 1-5.17-40.72c-5.05 1.49-10.15 2.62-15.29 3.44-1.24 14.94-1.74 29.32-1.22 39.78zM426.93 1.35c-27.57 6.42-44.71 33.97-38.29 61.53 6.42 27.57 33.97 44.71 61.53 38.29 27.57-6.42 44.71-33.97 38.29-61.53-6.42-27.56-33.97-44.71-61.54-38.28z"/><path d="M475.08 106.35c-8.93 2.23-15.56 9.16-19.49 18.21-.25.02-.46.12-.6.39-2.07 3.94-4.02 10.47-5.77 18.51 9.37-3.33 16.14-7.57 18.86-9.43 2.25-1.52 3.39-2.48 3.4-2.49a22.79 22.79 0 0 1 14.79-5.46c6.63 0 12.91 2.87 17.25 7.89 8.2 9.51 7.15 23.93-2.35 32.13-2.14 1.81-9.87 8.02-22.12 14.12-6.55 3.25-13.21 5.91-19.98 7.98 5.43 27.92 10.5 60.52 6.62 89.54-7.24 19.64-20.64 63.54-20.71 120.61-.01 35.78 5.38 76.77 21.23 119.56 4.25 11.49 15.13 18.6 26.71 18.6 3.29 0 6.62-.57 9.89-1.78 14.75-5.47 22.27-21.85 16.81-36.6-13.19-35.6-17.69-69.67-17.69-99.78-.01-32.18 5.19-59.78 10.35-79.07.89-3.33 1.78-6.4 2.63-9.22 14.38-3.64 27.41-13.39 32.23-38.17 5.89-50.61 2.56-80.52-12.94-126.48-11.47-33.36-39.66-43.92-59.11-39.07zM326.53 119.21c2.06-2.19 4.53-3.92 7.23-5.14l-2.1-6.46-57.77 18.79 10.1 31.05 38.73-12.6c-4.06-8.27-2.86-18.56 3.82-25.65z"/><path d="M500.07 136.95c-6.55-7.59-18-8.45-25.62-1.96-.01.01-1.31 1.1-3.81 2.8-7.57 5.17-25.31 14.87-47.15 14.79-18.74-.15-41.34-6.3-67.87-31.04-7.33-6.9-18.87-6.54-25.76.79-6.89 7.33-6.54 18.87.8 25.76 31.74 30.07 64.66 40.94 92.29 40.94h.55c22.3-.01 40.69-6.5 53.53-12.88 12.86-6.41 20.33-12.78 21.17-13.49 7.62-6.58 8.46-18.09 1.88-25.7zM37.7 89.18c1.73-.78 3.22-1.38 4.47-1.79 1.22-.4 2.19-.67 2.93-.83.73-.14 1.3-.27 1.7-.4.62-.2.75-.83.4-1.89-.08-.24-.27-.55-.58-.93-.31-.39-.61-.58-.91-.58-.3-.01-.78.05-1.44.17-.67.11-1.35.3-2.04.54-1.38.48-2.79 1.11-4.24 1.88-3.82 2.03-6.68 3.43-8.56 4.27-1.88.84-4.04 1.67-6.48 2.5-1.98.69-3.14 1.2-3.47 1.54-.33.33-.41.77-.23 1.33.12.37.29.66.5.86.53.3 1.46.24 2.79-.17.89-.28 2.35-.84 4.37-1.7 2.03-.85 3.41-1.4 4.15-1.63.46-.15.76.01.9.47 0 .01.05.26.14.73 1.57 8.89 2.1 14.82 2.66 17.83.57 3.17 1.05 5.07 1.6 5.71.54.63 1.14.91 1.81.82.44-.06.78-.36 1.01-.91.24-.55.31-1.13.22-1.76-.01-.06-.06-.22-.16-.5-.55-1.45-.93-2.74-1.14-3.89-.45-2.46-.93-6.24-1.75-11.32-.83-5.08-1.4-7.87-1.34-8.39.06-.52.94-1.16 2.67-1.95zM65.44 89.57c-.83-1.08-1.65-1.49-2.44-1.26-3.06.84-5.03 7.56-7.76 19.18-.02 0-.05.01-.08.01-.14.03-.23-.05-.26-.24-.17-.91-.28-3.32-.52-7.28-.25-3.95-.51-7.24-.67-9.86-.31-5.31-1.11-9.41-2.13-12.23-.34-.95-.84-1.61-1.46-1.99-.62-.37-1.2-.45-1.72-.25-.29.11-.51.61-.67 1.49-.16.88.07 2.44.63 4.69 2.37 9.64 3.59 19.61 3.6 29.61 0 1.26.01 2.1.08 2.53.08.59.35 1.05.78 1.4.44.35.95.49 1.51.41.47-.06.95-.53 1.41-1.4.46-.87 1.12-2.69 1.89-5.5 2.53-9.42 3.88-14.65 5.24-14.96.55-.14 1.08.29 1.57 1.28.49 1 1.26 3.19 2.18 6.62.95 3.63 1.86 6.13 2.86 7.5 1 1.36 1.99 1.98 2.99 1.84.44-.06.82-.31 1.14-.75.33-.44.46-.88.39-1.33-.08-.51-.49-1.24-1.24-2.2-1.47-1.87-2.77-5.02-4.09-9.46-1.27-4.17-2.41-6.75-3.23-7.83zM95.33 105.88c-1.33-.75-2.33-3.43-3.22-8.03-.46-2.3-.91-6.32-1.65-12.06-.13-1.05-.29-1.87-.44-2.45-.32-1.17-.98-1.61-1.98-1.34-.35.1-.69-.13-1.02-.68-1.01-1.64-2.06-2.29-3.1-1.98-2.89.86-4.91 4.48-6.49 10.59-1.6 6.11-2.09 11.3-1.3 15.92.31 1.79.89 3.2 1.78 4.25.88 1.05 1.81 1.51 2.8 1.38 1.46-.21 2.96-1.27 4.45-3.26 1.49-2 2.84-4.9 3.95-8.76.7 3.67 1.47 6.46 2.41 8.38.93 1.92 1.88 2.83 2.87 2.7.51-.07 1-.45 1.47-1.13.47-.68.66-1.33.57-1.94-.1-.68-.47-1.21-1.1-1.59zm-9.36-6.17c-1.7 4.57-3.36 6.88-4.75 7.11-.97.16-1.62-.8-1.98-2.85-.52-2.91-.11-6.75 1.05-11.71 1.14-4.96 2.4-7.75 4.06-8.2 1.17-.32 2.13.84 2.8 3.49.87 3.45.51 7.58-1.17 12.16zM99.53 101.26c.1 1.77.21 3.13.35 4.08.34 2.25 1.25 3.27 2.76 3.07.41-.06.87-.57 1.36-1.54.48-.98 1.38-4.81 2.24-11.68.65-5.13 1.08-8.53 1.53-10.1.44-1.58.97-2.45 1.63-2.62 1.11-.28 2.67 2.56 4.32 8.66 1.61 6.08 2.65 9.85 3.48 11.19.82 1.35 1.76 1.95 2.85 1.79 1.06-.16 1.9-.82 2.49-2.02.59-1.2.8-2.28.64-3.24-.18-1.1-.55-1.6-1.1-1.5-.05.01-.12.07-.21.17-.52.58-.98.9-1.37.97-.63.1-1.19-.47-1.71-1.72-.52-1.24-1.42-4.49-2.93-9.65-1.35-4.53-2.7-7.53-3.85-9.05-1.17-1.52-2.32-2.11-3.44-1.81-1.41.39-2.41 1.77-3.06 4.08-.65 2.32-1.13 6.12-1.66 11.34-.55 5.14-1.05 7.67-1.24 7.71-.1.02-.18-.13-.24-.45-.1-.56-.21-1.9-.37-4.02-.51-6.44-1.21-10.66-1.73-12.65-.5-1.92-.99-3.15-1.44-3.7-.45-.55-1-.73-1.65-.55-.36.1-.62.67-.77 1.68-.15 1.02-.13 1.89.06 2.63 1.73 6.51 2.72 12.86 3.05 18.93zM130.79 89.63c.25-.05.63.21 1.14.78.5.57 1.85 2.37 3.98 5.49 2.63 3.77 4.33 6.16 5.23 7.01.9.85 1.71 1.22 2.45 1.13 1.16-.15 2.01-.82 2.57-2.01s.75-2.32.59-3.38c-.12-.79-.41-1.13-.84-1.01-.21.04-.42.09-.63.13-1.04.16-2.22-.41-3.55-1.68-1.34-1.26-3.02-3.29-5.09-5.99-2.08-2.7-3.19-4.23-3.29-4.69-.24-1.12.41-3.25 1.87-6.46 1.45-3.22 2.62-5.62 3.55-7.14.72-1.18.81-2.78.25-4.76-.49-1.75-1.24-2.48-2.2-2.19-1.27.36-2.5 3.65-4.03 9.66-.41 1.61-1.21 4.22-2.48 7.76-1.36 3.72-2.14 5.73-2.22 6.15-1.11-7.4-2.36-15.02-3.82-22.88-1.47-7.85-2.79-12.63-3.42-14.36-.35-.96-.75-1.7-1.2-2.22-.44-.53-.82-.73-1.14-.6-.89.34-1.16 1.69-.85 4.02.24 2.34 3.27 11.81 6.44 28.82 1.3 7.21 1.9 13.02 2.13 17.38.15 3.03.23 4.93.35 5.73.08.58.32 1.12.69 1.62.38.51.84.72 1.38.65.52-.07.97-.46 1.33-1.17.36-.72.48-1.49.36-2.32-.08-.53-.15-1.06-.23-1.59-.61-4.03-1.01-6.34-1.04-6.96-.04-.62.21-1.58.74-2.89s.85-1.99.99-2.02zM175.36 116.77c-3.64.27-6.46-2.19-8.67-7.22-.23-.48-.42-.7-.58-.69-.31.04-.52.47-.63 1.32-.11.84-.13 1.7-.06 2.55.17 1.83 1.34 3.98 3.49 6.52 2.15 2.55 4.47 3.79 7 3.66 2.49-.13 4.34-2.75 5.37-7.95 1.01-5.19 1.46-11.66 1.1-19.35-.36-7.68-1.28-15.3-2.76-22.77-.28-1.44-.73-3.87-1.43-7.27-.55-2.69-1.08-4.92-1.56-6.69-.59-2.15-1.1-3.56-1.52-4.27-.42-.7-.97-.95-1.64-.75-1.14.34-.93 3.14.4 8.45 1.32 5.32 1.97 8.83 2.15 10.47.18 1.64.17 3.14 0 4.5-.18 1.35-.7 3.17-1.6 5.43-.89 2.27-1.79 3.92-2.66 4.98-.87 1.06-1.66 1.65-2.36 1.77-.66.11-1.26-.75-1.81-2.58s-.92-3.18-1.1-4.06c-.5-2.51-.83-5.22-1.02-8.17-.19-2.95-.34-4.56-.37-4.82-.04-.27 0-1.69.05-4.28.02-1.11-.06-1.98-.23-2.62-.29-1.08-.67-2.01-1.13-2.79-.46-.78-.87-1.12-1.22-1.02-.84.24-1.29.95-1.36 2.13-.08 1.19.31 4.76.91 10.71.6 5.95 1.18 10.88 1.91 14.82.52 2.82 1.27 5.23 2.28 7.26 1.01 2.02 2.13 2.95 3.4 2.77.95-.14 2.18-1.28 3.66-3.48s3.05-5.63 4.57-10.38c.14 1.17.3 2.34.48 3.5.93 6.03 1.2 12.61.69 19.63-.52 7.02-1.9 10.56-3.76 10.69zM190.36 48.67c-3.02.89-4.51 5.13-4.9 12.59-.4 7.47.04 14.67 1.35 21.81.78 4.24 1.91 7.72 3.48 10.46 1.57 2.75 3.2 4.03 4.96 3.8 2.84-.38 5.21-3.91 6.79-10.8 1.56-6.89 1.5-14.25-.26-21.81-1.15-4.94-2.88-9.03-5.09-12.2-2.21-3.18-4.35-4.43-6.33-3.85zm8.79 33.91c-1.08 5.05-2.66 7.67-4.56 7.97-.9.14-1.75-.66-2.59-2.37-.84-1.72-1.5-3.98-2.03-6.81-.94-5.01-1.31-10.39-1.19-16.25.12-5.85 1.06-9.09 3.08-9.63 1.21-.33 2.47.49 3.76 2.48 1.28 1.99 2.36 4.77 3.18 8.31 1.33 5.76 1.43 11.24.35 16.3zM214.85 85.08c-.98.15-1.83-2.24-2.74-7.16-1-5.41-1.73-11.95-2.41-19.72-.33-3.99-.83-7.04-1.4-9.12-.26-.95-.68-1.82-1.23-2.6-.56-.79-1.11-1.1-1.63-.95-.77.22-1.08 1.27-.94 3.13.7 2.52 1.59 7.01 2.42 13.46.99 7.72 1.68 13.53 2.39 17.42.86 4.76 1.85 8.23 3.07 10.42 1.22 2.18 2.23 3.24 3.08 3.12 1.47-.2 2.83-2.22 3.99-6.1 1.16-3.88 1.99-9.3 2.28-16.28.09.53.19 1.04.28 1.53.1.51.2 1.02.3 1.54 1.2 6.28 2.22 11.01 3.26 14.18 1.03 3.17 1.96 4.71 2.86 4.59.42-.06.85-.48 1.27-1.28.42-.8.57-1.64.44-2.53-.11-.73-.5-1.64-1.19-2.74-1.32-2.02-2.53-6.71-3.95-14.01-1.19-6.09-2.23-12.58-3.21-19.54-.25-1.98-.44-3.14-.53-3.48-.74-2.78-1.56-4.04-2.4-3.8-.56.16-.86.82-.89 2-.03 1.18.18 3.64.57 7.38.92 9.37.7 16.78-.27 22.17-.98 5.4-2.18 8.16-3.42 8.36zM236.67 75.67c-.14.02-.28.05-.42.08-.75.13-1.32.38-1.71.73-.39.36-.6.78-.63 1.28-.03.51.17 2.02.58 4.55.44 2.73.81 4.38 1.15 4.96.35.57.79.82 1.33.74.24-.04.58-.64 1.01-1.83.44-1.19.71-2.26.84-3.22.12-.95.03-2.4-.3-4.35-.16-.97-.46-1.71-.88-2.22-.42-.51-.74-.74-.97-.7zM246.49 73.91c-.14.02-.28.05-.42.08-.75.13-1.32.38-1.71.74-.39.36-.6.8-.63 1.31-.03.52.18 2.07.61 4.67.45 2.8.82 4.51 1.18 5.1.35.59.79.85 1.33.77.24-.04.58-.65 1.01-1.88.43-1.22.7-2.32.82-3.3s.02-2.47-.32-4.47c-.17-1-.47-1.76-.89-2.29-.42-.53-.74-.77-.98-.73zM256.31 72.16c-.14.02-.28.05-.42.07-.75.13-1.32.39-1.71.75-.39.37-.6.81-.63 1.34-.02.53.2 2.13.63 4.8.46 2.88.85 4.63 1.2 5.24.35.61.79.87 1.33.79.25-.04.58-.67 1.01-1.92.42-1.25.69-2.38.81-3.38.12-1 .02-2.53-.33-4.59-.17-1.02-.47-1.81-.9-2.35-.42-.55-.75-.79-.98-.75z"/></g></svg>