<svg xmlns="http://www.w3.org/2000/svg" xml:space="preserve" viewBox="0 0 732.05 989.07" shape-rendering="geometricPrecision" text-rendering="geometricPrecision" image-rendering="optimizeQuality" fill-rule="evenodd" clip-rule="evenodd"><g fill="currentColor"><path d="M304.62 184.85c-.79 4.6-1.23 9.32-1.23 14.15 0 45.55 36.93 82.48 82.48 82.48 45.55 0 82.48-36.93 82.48-82.48 0-4.82-.44-9.55-1.23-14.15 63.7-59.74 4.15-139.82 4.15-139.82s5 83.18-37.43 86.89c-13.52-9.68-30.07-15.4-47.96-15.4s-34.45 5.72-47.96 15.4c-42.43-3.71-37.44-86.89-37.44-86.89s-59.55 80.08 4.15 139.82z"/><path d="M77.14 184.39v254.93c-14.81-1.88-28.89 7.75-32.26 22.6-3.59 15.8 6.31 31.51 22.11 35.1 3.42.77 6.79 1.4 10.16 2.02v486.25h26.68V502.41c4.86.33 9.68.53 14.42.53h.17c37.71 0 70.94-10.16 98.48-25.06 29.1-15.76 52.08-36.41 69.83-56.49v522.35c0 25.03 20.29 45.32 45.32 45.32s45.32-20.28 45.32-45.32V613.33h17v330.41c0 25.03 20.29 45.32 45.32 45.32s45.32-20.28 45.32-45.32v-72.26c18.76 21.9 42.29 37.32 70.5 37.38 22.03 0 44.68-9.53 67.4-28.36 24.46-19.86 34.92-44.41 34.65-67.86-.17-27.78-12.21-53-22.89-76.28-10.96-23.17-20.41-44.64-20.16-60.27.07-7.87 1.8-14.19 6.64-21.01 4.22-5.86 11.3-12.2 22.66-18.48l3.07 50.6 85.17-121.86-141.17 16.14 39.03 29.28c-14.3 7.86-25.05 16.81-32.54 27.14-8.61 11.8-12.27 25.3-12.19 38.18.26 25.84 12.33 49.47 22.89 72.62 10.84 23.04 20.33 45.36 20.16 63.92-.27 15.58-5.08 29.22-24.01 45.26-19.36 15.97-35.38 21.63-48.71 21.63-18.33.05-35.79-10.93-52.73-32.64-6.24-8-12.17-17.32-17.77-27.62V381.02c7.51 5.66 15.32 13.19 22.47 23.24 14.31 20.29 26.95 51.51 27.04 102.93.01 24.37-2.94 53.2-10.13 87.09-3.36 15.84 6.76 31.41 22.6 34.78 2.05.43 4.09.64 6.11.64 13.56 0 25.74-9.45 28.66-23.25 7.91-37.31 11.4-70.18 11.4-99.27.42-84.2-30.72-137.42-64.19-165.98-24.3-20.98-48.06-29.38-60.41-32.62a28.125 28.125 0 0 0-11.89-2.64H315.04c-1.76 0-3.47.19-5.14.49-11.72-.46-23.06 6.15-28.04 17.54l-.03.05c-.96 2.25-15.9 34.13-43.86 63.77-13.94 14.85-31.01 29.11-50.85 39.45-19.9 10.35-42.39 16.99-68.89 17.02-4.66 0-9.49-.28-14.42-.72V184.71c44.85-6.26 79.46-46.58 79.46-95.41 0-29.21-12.39-55.35-31.94-73.01 7.72 14.23 12.22 31.37 12.22 49.81 0 44.68-26.42 81.7-60.91 88.28L90.57-.03h-.19l-12.04 153.9c-33.37-7.75-58.63-44.09-58.63-87.78 0-18.44 4.51-35.58 12.22-49.81C12.39 33.93-.01 60.09-.01 89.29c0 47.99 33.42 87.77 77.14 95.07z"/></g></svg>