<svg xmlns="http://www.w3.org/2000/svg" xml:space="preserve" viewBox="0 0 749.42 1899.22" shape-rendering="geometricPrecision" text-rendering="geometricPrecision" image-rendering="optimizeQuality" fill-rule="evenodd" clip-rule="evenodd"><g fill="currentColor"><path d="M374.71 208.6h113.43l65.1-10.15c.65-6.23 1-12.53 1-18.93C554.24 80.38 473.86 0 374.71 0c-99.14 0-179.52 80.38-179.52 179.52 0 6.39.35 12.7 1 18.93l65.11 10.15h113.42zM374.71 329.33c-72.24 0-90.33-29.47-101.1-43.47l-45.65-2.99c32.5 46.06 86.09 76.19 146.75 76.19s114.25-30.12 146.76-76.19l-45.65 2.99c-10.76 14-28.86 43.47-101.1 43.47zM483.43 269.7l54.55-15.51c5.39-11.77 9.57-24.22 12.32-37.19l-60.14 9.11c-1.23 13.16-3.38 30.88-6.73 43.59zM266.01 269.7c-3.35-12.72-5.5-30.43-6.73-43.58L199.14 217c2.75 12.97 6.93 25.42 12.33 37.19l54.54 15.51zM594.77 431.73c-19.46-11.2-37.87-16-51.99-17.71-4.48-1.04-9.13-1.64-13.93-1.64H220.57c-4.79 0-9.43.6-13.91 1.63-14.12 1.71-32.53 6.51-52.01 17.72-40.04 22.78-79.55 69.11-107.43 149.52C19.09 662.1.09 779.15-.01 956.72c0 48.56 1.46 101.68 4.62 159.8 1.83 34.01 30.01 60.38 63.67 60.38 1.17 0 2.35-.03 3.52-.09 35.19-1.92 62.18-32.01 60.27-67.2-3.04-56.06-4.42-106.85-4.41-152.89-.24-144.6 13.87-241.74 31.25-304.87v1148.72c0 54.5 44.17 98.65 98.65 98.65 54.48 0 98.65-44.15 98.65-98.65v-719.18h36.99v719.18c0 54.5 44.17 98.65 98.65 98.65 54.48 0 98.65-44.15 98.65-98.65V651.85c17.51 63.09 31.31 160.35 31.24 304.87 0 46.03-1.37 96.82-4.42 152.89-1.89 35.2 25.09 65.28 60.3 67.2 1.18.06 2.35.09 3.52.09 33.66 0 61.83-26.36 63.68-60.38 3.13-58.14 4.58-111.24 4.58-159.8-.36-236.62-33.33-366.23-78.57-444.9-22.66-39.09-49.65-65.07-76.08-80.09z"/></g></svg>