<svg xmlns="http://www.w3.org/2000/svg" xml:space="preserve" viewBox="0 0 446.59 466.27" shape-rendering="geometricPrecision" text-rendering="geometricPrecision" image-rendering="optimizeQuality" fill-rule="evenodd" clip-rule="evenodd"><g fill="currentColor"><path d="M86.65 87.91c23.96 5.58 47.9-9.32 53.48-33.28 5.58-23.96-9.32-47.9-33.28-53.47-23.96-5.58-47.9 9.32-53.48 33.27-5.58 23.96 9.32 47.9 33.28 53.48zM56.31 170.86c-13.58-16.19-18.76-31.85-20.35-37.83l-.02-.06-.06-.24c-2.57-10.61 3.96-21.34 14.57-23.92 1.54-.37 3.12-.56 4.69-.56 9.09 0 16.98 6.17 19.19 14.99l.15.52c.17.57.49 1.53.96 2.78.91 2.37 2.53 6.1 5.06 10.28a67.19 67.19 0 0 0 2.89 4.36c.08-.42.17-.86.26-1.28C89.33 120.19 81.9 96.61 65 92.39c-16.9-4.21-41.4 4.97-51.37 33.96C.16 166.29-2.74 192.29 2.38 236.28c3.93 20.23 14.17 28.93 25.76 32.54 4.27 10.65 13.96 39.21 13.92 77.98-.01 24.93-3.92 54.11-15.76 86.12-4.75 12.82 1.8 27.05 14.61 31.8 2.83 1.05 5.74 1.55 8.59 1.55 10.06 0 19.51-6.18 23.21-16.16 14.04-37.91 18.85-73.17 18.84-103.3-.05-48.85-12.39-84.16-18.19-98.12.02-2.2-.04-4.62-.2-7.27-2.3-17.15-.99-35.76 1.56-53.54a101.154 101.154 0 0 1-18.41-17.01zM235.25 151.81v-11.24h-19.14c.97-2.57 2.15-8.73-4.1-16.59-8.32-10.46-19.32 2.69-19.32 2.69s-11.01-13.15-19.32-2.69c-6.25 7.86-5.08 14.02-4.11 16.59h-19.14v11.24h85.14zm-29.66-22.6c3.3 2.2 4.54 7.26-5.53 9.51a43.84 43.84 0 0 0-1.69-1.65c1.48-3.42 4.6-9.61 7.22-7.86zm-25.81 0c2.62-1.75 5.74 4.44 7.22 7.86-.58.53-1.15 1.08-1.7 1.65-10.07-2.24-8.83-7.3-5.52-9.51zM197.3 161.05v32.34h-9.24v-32.34h-37.95v6.99c2.83-.2 5.72-.49 8.66-.88.87-.11 1.75-.18 2.62-.18 9.88 0 18.31 7.4 19.61 17.2 1.43 10.82-6.2 20.79-17.03 22.23-4.7.62-9.33 1.03-13.87 1.27v7.48h85.14v-54.12h-37.95z"/><path d="M177.08 184.71c-1.15-8.67-9.11-14.77-17.78-13.62-6.28.83-12.06 1.21-17.39 1.21-15.86-.02-27.74-3.24-37.06-7.77-13.91-6.81-22.48-16.95-27.74-25.64-2.61-4.32-4.34-8.23-5.37-10.93-.51-1.35-.85-2.4-1.05-3.04a18.993 18.993 0 0 1-.21-.71c-2.11-8.44-10.64-13.6-19.1-11.54-8.5 2.06-13.72 10.63-11.65 19.13.39 1.42 4.58 18.6 19.61 36.52 7.52 8.92 17.86 17.96 31.6 24.67 13.7 6.71 30.67 11 50.86 11h.12c6.82 0 13.99-.48 21.55-1.48 8.67-1.15 14.77-9.11 13.62-17.78zM288.8 25.18c-21.93 11.15-30.67 37.96-19.52 59.88 11.15 21.93 37.96 30.67 59.89 19.52 21.93-11.15 30.66-37.96 19.52-59.89-11.15-21.92-37.96-30.66-59.89-19.51zM409.27 124.45c-16.61-25.76-42.6-28.82-58.01-20.68-15.4 8.13-16.97 32.81-6.74 50.59.18.39.38.81.56 1.2 4.22-10.62 4.49-19.39 4.49-19.5v-.07l.01-.16c.21-5.67 1.96-8.56 2.9-10.1l.26-.44.09-.15.1-.14c1.04-1.52 1.81-2.32 2.32-2.84l.02-.02.12-.12c3.74-3.74 8.71-5.8 14-5.8 5.29 0 10.26 2.06 14 5.8 3.87 3.87 5.98 9.24 5.78 14.73-.09 4.15-.83 15.48-5.9 29.76-3.28 9.31-8.94 21.02-18.6 32.31 6.73 16.65 12.44 34.39 14.31 51.58.42 2.27.86 4.33 1.33 6.23-6.23 17.22-15.07 48.85-15.11 90.18-.01 30.13 4.79 65.39 18.85 103.3 3.7 9.99 13.15 16.16 23.21 16.16 2.86 0 5.76-.5 8.6-1.55 12.82-4.75 19.36-18.99 14.61-31.81-11.85-32-15.76-61.18-15.77-86.11 0-25.65 4.19-46.79 8.3-61.28 2.05-7.24 4.08-12.82 5.52-16.44.53-1.33.98-2.4 1.33-3.19 10.1-6.33 17.65-17.21 16.65-37.41-5.55-43.93-14.58-68.48-37.22-104.04z"/><path d="M380.58 124.82c-6.18-6.18-16.22-6.18-22.4 0-.47.48-1.08 1.08-1.98 2.42-.77 1.37-2.46 3.43-2.66 8.75v.04c.02 1.21-.78 16.56-9.97 31.38-4.66 7.56-11.32 15.12-21.49 21.52-10.18 6.37-24.04 11.65-43.54 13.8-8.7.95-14.98 8.77-14.02 17.47.89 8.11 7.75 14.12 15.73 14.12.58 0 1.16-.03 1.74-.1 24.3-2.65 43.54-9.74 58.32-19.35 22.25-14.4 33.72-34.06 39.23-49.68 5.11-14.41 5.61-25.67 5.67-28.58.16-4.25-1.39-8.55-4.63-11.79z"/></g></svg>