<svg xmlns="http://www.w3.org/2000/svg" xml:space="preserve" viewBox="0 0 128.04 167.72" shape-rendering="geometricPrecision" text-rendering="geometricPrecision" image-rendering="optimizeQuality" fill-rule="evenodd" clip-rule="evenodd"><g fill="currentColor"><path d="M98.97 44.54c9.97 0 18.05-8.08 18.05-18.05S108.94 8.44 98.97 8.44s-18.05 8.08-18.05 18.05 8.09 18.05 18.05 18.05zM95.99 99.74v3.94c0 3.73-3.04 6.77-6.77 6.77H73.16c-.27 3.68-.43 7.16-.43 10.29 0 1.21 3.65 2.1 9.03 2.67v36.97c0 4.05 3.28 7.33 7.33 7.33 4.05 0 7.33-3.28 7.33-7.33v-36.22c1.69.02 3.39.02 5.08 0v36.22c0 4.05 3.28 7.33 7.33 7.33 4.05 0 7.33-3.28 7.33-7.33V123.4c5.37-.57 9.03-1.46 9.03-2.67 0-9.95-1.57-23.45-3.42-35.9-5.51 5.05-13.65 9.83-24.89 14.59-.29.12-.6.23-.9.31zM89.22 60.81c3.73 0 6.77 3.04 6.77 6.77v14.96c8.33-3.92 12.79-7.18 15.12-9.35 1.53-1.44 3.37-3.49 3.39-5.05h2.26v.02c-.01 1.18-.47 3.26-4.11 6.68-3.6 3.35-10.23 7.56-21.02 12.11a5.631 5.631 0 0 0-3 7.39c.91 2.16 3 3.45 5.2 3.45.73 0 1.48-.14 2.19-.45 11.53-4.88 19.19-9.52 24.3-14.23 5.07-4.64 7.74-9.84 7.73-14.96 0-3.21-1.04-6.06-2.39-8.3-2.06-3.38-4.75-5.64-6.91-7.2-2.17-1.54-3.86-2.35-4.06-2.46-.4-.19-.8-.31-1.21-.41-2.35-1.01-6.73-2.17-14.49-2.17-6.43 0-10.52.79-13.08 1.64-1.7.46-7 2.45-12.42 9.05-.63.76-1.26 1.6-1.89 2.49h17.63zM31.92 39.49c10.91 0 19.75-8.84 19.75-19.74C51.67 8.84 42.83 0 31.92 0c-10.9 0-19.74 8.84-19.74 19.75 0 10.9 8.84 19.74 19.74 19.74zM39.58 110.45c-3.74 0-6.77-3.04-6.77-6.77v-7.34c-.26-.06-.53-.11-.79-.2-8.13-2.81-14.68-5.81-19.83-9.1v71.47c0 4.99 4.04 9.03 9.03 9.03 4.99 0 9.03-4.04 9.03-9.03v-46.26h3.39v46.26c0 4.99 4.04 9.03 9.03 9.03 4.99 0 9.03-4.04 9.03-9.03v-48.07H39.61z"/><path d="M39.58 108.2h49.64c2.49 0 4.51-2.02 4.51-4.51v-3.63a7.891 7.891 0 0 1-7.19-4.82 7.835 7.835 0 0 1-.04-6.05c.79-1.95 2.3-3.48 4.25-4.3 1.05-.44 2.03-.87 2.99-1.3v-16c0-2.49-2.02-4.51-4.51-4.51H39.59c-2.49 0-4.51 2.02-4.51 4.51v12.89c.68.25 1.37.49 2.09.74 2 .69 3.6 2.11 4.53 4 .93 1.9 1.06 4.04.37 6.03-1.04 3.03-3.82 5.1-6.99 5.29v7.15c0 2.49 2.02 4.51 4.51 4.51zm47.11-40.9h2.82v2.82h-2.82V67.3z"/><path d="M7.89 81.06c5.28 4.67 13.13 8.9 24.85 12.95a5.636 5.636 0 0 0 7.17-3.5c1.01-2.95-.55-6.16-3.5-7.17-10.87-3.73-17.49-7.55-21.03-10.72-3.56-3.25-4.05-5.32-4.1-6.97v-.02c-.03-.99.31-2.13.89-3.29v3.62c.57.72 2.15 2.63 4.73 4.99 1.95 1.74 6.49 5.03 15.9 8.67V67.57c0-3.73 3.04-6.77 6.77-6.77h23.94c-1.03-2.44-2.1-4.54-3.2-6.33-4.72-7.78-10.22-9.63-11.64-9.8-.57-.1-1.12-.08-1.67-.01-.32-.06-.64-.1-.98-.1H17.81c-.33 0-.66.04-.98.1-1.24-.16-2.54.07-3.69.78-.24.16-3.19 1.99-6.34 5.27C3.73 53.97.07 58.87-.01 65.63v.02c-.05 5.26 2.63 10.81 7.89 15.4z"/></g></svg>