<svg xmlns="http://www.w3.org/2000/svg" xml:space="preserve" viewBox="0 0 1643.44 883.38" shape-rendering="geometricPrecision" text-rendering="geometricPrecision" image-rendering="optimizeQuality" fill-rule="evenodd" clip-rule="evenodd"><g fill="currentColor"><path d="M1570.22 251.73c-50.04-23.8-95.19-24.41-95.19-24.41l-702.8 17.7-88.4-39.29L535.04 49.56l-68.86-2.46 34.23 86.81 15.66 6.6-6.75 16.01 29.89 75.81-55.77-14.42-5.45 12.92 169.09 59.59-10.67 7.47-130.54-46.01-34 34.01 358.8 80.54 168.48 1.37v9.01h8.54v19.27c-3.47-5-9.24-8.29-15.79-8.29-10.61.01-19.22 8.61-19.22 19.22 0 10.62 8.61 19.23 19.22 19.23 9.37 0 17.15-6.71 18.86-15.58h1.8c1.71 8.87 9.49 15.58 18.86 15.58 10.62 0 19.22-8.61 19.22-19.23 0-10.61-8.61-19.22-19.22-19.22-6.55.01-12.32 3.29-15.79 8.29v-19.27h8.54v-7.55L869.2 306.69l-22.26-31 8.71-1.88 6.24 5.55 15.24 21.23 172.14 69.51h12.05V393.08l93.6 11.19h41.03v-54.51h-41.03l-86.28 10.32v-6.24l93.6-11.19h41.02v27.46h77.78l150.04 1.22s10.31-.48 25.83-1.48v6.98h8.54v18.88c-6.66 1.76-11.59 7.77-11.59 14.98 0 8.6 6.96 15.56 15.56 15.56 8.6 0 15.56-6.97 15.56-15.56 0-7.21-4.94-13.22-11.6-14.98v-18.88h8.55v-8.77c38.65-3.03 88.7-8.29 110.24-16.25 37.42-13.83 51.25-43.94 51.25-43.94.01.01-23.18-32.34-73.22-56.14zm-428.58 4.07h18.27v15.05h-18.27V255.8zm-60.3 4.48h17.53v14.44h-17.53v-14.44zm-31.7 0h17.54v14.44h-17.54v-14.44zm-31.69 0h17.54v14.44h-17.54v-14.44zm-31.69 0h17.54v14.44h-17.54v-14.44zm206.68 10.58h-18.28v-15.05h18.28v15.05zm47.79-15.05h18.28v15.05h-18.28v-15.05zm-33.03 0h18.28v15.05h-18.28v-15.05zm120.07 13.02h-20.75v-17.08h20.75v17.08zm37.49 0h-20.75v-17.08h20.75v17.08zm37.49 0H1382v-17.08h20.75v17.08zm37.49 0h-20.74v-17.08h20.74v17.08zm70.15 1.41h-27.01V251l6.81-.53c3.69.13 39.74 1.87 80.05 19.77h-59.85zM822.98 443.94h796.26v-11.56H822.98zM370.08 443.94v-11.56h-85.12v11.56zM1080.1 92.07l15.67 39.4 4.02-.83 134.51-27.75s-7-18.95-17.66-16.74c-4.34.9-25.22 5.2-48.42 10-10.2-16.92-28.86-47.83-31.48-51.89-3.63-5.64-21.76-.76-21.76-.76l25.91 58.29c-11.59 2.39-22.32 4.6-30.43 6.28-2.51-4.56-4.98-8.87-6.64-11.36-4.84-7.26-23.73-4.61-23.73-4.61zM383.12 681.67h433.43v-17.18H383.12zM419.72 687.48c-12.13 0-21.96 9.83-21.96 21.96s9.83 21.96 21.96 21.96 21.96-9.83 21.96-21.96-9.83-21.96-21.96-21.96zm0 31.78c-5.42 0-9.83-4.4-9.83-9.83.01-5.42 4.4-9.82 9.83-9.82 5.42 0 9.82 4.4 9.82 9.82.01 5.43-4.4 9.83-9.82 9.83zM779.95 687.48c-12.13 0-21.96 9.83-21.96 21.96s9.83 21.96 21.96 21.96 21.96-9.83 21.96-21.96-9.83-21.96-21.96-21.96zm0 31.78c-5.42 0-9.83-4.4-9.83-9.83 0-5.42 4.4-9.82 9.83-9.82 5.42 0 9.82 4.4 9.82 9.82.01 5.43-4.4 9.83-9.82 9.83zM397.76 525.11v124.74h124.75V525.11zM397.76 511.1h124.75V386.36H412.45l-14.69 34.84zM537.78 649.85h124.75V525.11H537.78zM662.53 386.36H537.78V511.1h124.75zM676.53 649.85h124.74V525.11H676.53zM801.27 386.36H676.53V511.1h124.74z"/><path d="m485.72 152.88-170.8-71.99-35.33 83.83c3.06 2.22 6.15 4.84 9.24 7.9l32.27-76.56 149.45 62.99-69.99 166.05c3.33 2.68 6.23 5.85 8.62 9.39l76.55-181.61z"/><path d="m433.4 180.06-101.41-42.74-3.75 8.89 101.41 42.75zM312.06 184.61l101.4 42.75 3.75-8.9-101.4-42.74zM397.28 265.76l3.75-8.9-81.96-34.54c1.52 3.9 3 8 4.44 12.34l73.77 31.09zM336.08 285.18l45.02 18.97 3.75-8.9-51.04-21.51c.78 3.71 1.53 7.52 2.26 11.43zM265.25 80.27c-20.36.25-38.07-2.23-49.9-6.74 8.67-.21 17.9-.93 27.46-2.29 45.4-6.43 80.46-23.91 78.32-39.04-.47-3.34-2.8-6.26-6.51-8.75-13.07-8.81-44.2-12.02-79.57-7.01-1.55.22-3.06.48-4.59.73C212.75 4 190.05-2.47 166.47.87 118.96 7.6 85.9 51.57 92.63 99.08c3.08 21.76 13.99 40.47 29.45 53.73h113.15c20.38-17.52 32.22-44.14 30.03-72.54z"/><path d="M273.38 415.38V293.56c2.64 1.5 5.51 2.58 8.49 3.26v73.27l7.18 3.29c26.54 12.13 74.06 15.14 83.32 15.63.55.03 1.09.04 1.63.04 16.32 0 29.95-12.79 30.81-29.27.9-17.03-12.19-31.57-29.22-32.47-12.58-.66-31.24-2.68-45.44-5.63-3.14-23.52-7.03-44.48-11.59-62.51l-.01-.01c-21.88-86.49-58.69-95.86-76.6-94.77l-147.08.01c-8.55-.31-22.61 1.46-37.7 12.91-.34.27-.67.58-1.01.85C23.96 203.48 5.59 259.52.08 349.48c-.88 14.4 4.48 27.88 15.1 37.99 9.34 8.89 22.78 14.52 37.74 18.01 1.03.24 2.05.47 3.09.69V287.25h8.49v165.84l-3.02 30.36-34.51 347.47c-2.61 26.24 16.55 49.61 42.79 52.22 26.24 2.6 49.63-16.54 52.23-42.79l33.83-340.6 1.15-11.59h27.67l1.16 11.59 33.82 340.6c2.61 26.24 26 45.39 52.22 42.79 26.24-2.61 45.4-25.98 42.8-52.22l-35-352.37-6.27-63.17z"/></g></svg>