<svg xmlns="http://www.w3.org/2000/svg" xml:space="preserve" viewBox="0 0 495.02 477.83" shape-rendering="geometricPrecision" text-rendering="geometricPrecision" image-rendering="optimizeQuality" fill-rule="evenodd" clip-rule="evenodd"><g fill="currentColor"><path d="M140.91 325.3c1.53-6.38 2.83-12.58 3.99-18.58 5.97 12.25 11.72 26.78 16.48 43.94 2.12 7.65 4.03 15.84 5.69 24.56 3.52 18.51 5.82 39.5 6.29 63.23.06 2.81.12 5.59.13 8.48 0 17.06 13.84 30.9 30.9 30.9 14.36 0 26.4-9.82 29.87-23.09.18-.69.35-1.37.48-2.08.35-1.86.55-3.77.55-5.73.02-18.02-.94-34.92-2.66-50.76-.27-2.53-.57-5.05-.88-7.52-2.35-18.55-5.75-35.58-9.9-51.14-8.57-32.14-20.29-58.03-32.31-78.16-4.29-7.2-8.6-13.64-12.79-19.41 23.3-23.86 53.27-43.63 76.42-59.38 6.91 28.87 19.45 51.24 32.54 67.51a24.605 24.605 0 0 1 20.44-10.86c2.57 0 5.12.41 7.59 1.2 6.28 2.01 11.4 6.36 14.42 12.24 3.02 5.87 3.56 12.57 1.54 18.85-1.64 5.09-2.79 9.91-3.45 14.27 3.17 1.85 5.26 2.86 5.75 3.09a19.72 19.72 0 0 0 8.35 1.86c7.44 0 14.58-4.22 17.94-11.41 4.6-9.86.37-21.57-9.44-26.23 0 0-.01-.01-.12-.06-1.56-.77-16.71-8.78-31.26-26.57-14.28-17.56-28.45-44.07-30.1-85.07 1.45-7.63.56-15.17-3.41-21.61-5.61-9.1-15.69-16.9-28.55-20.46 2.77 4.97 5.42 9.4 7.47 12.73 1.78 2.89 3.12 4.96 3.65 5.77l.98 1.49c.05.07.1.15.16.24 7.61 11.3 4.61 26.69-6.68 34.31-3.59 2.43-7.73 3.79-12.03 4.1-.59.04-1.17.13-1.77.13a24.7 24.7 0 0 1-20.52-10.91l-.58-.88c-8.66-13.17-16.19-26.47-22.05-38.73-44.06 22.96-68.85 43.71-101.57 86.05-6.04 9.18-9.2 17.48-10.3 25.02-.09.27-.15.53-.23.8-.14.47-.26.95-.38 1.43-.12.51-.24 1.03-.34 1.55-.09.45-.16.91-.22 1.36-.08.56-.14 1.13-.19 1.69-.04.43-.06.86-.08 1.3-.03.6-.03 1.2-.02 1.8.01.24-.02.47-.01.71v.04c.01.35.04 1.64.04 3.74.02 10.65-.93 42.44-9.92 79.86-5.15 21.62-13 44.96-24.52 67.37 22.5-6.52 46.49-9.92 71.75-10.14 5.4-14.76 9.59-29.2 12.87-42.84zM30.93 462.59c-3.46 0-6.84-.5-10.05-1.43 1.61 2.78 3.67 5.37 6.2 7.63 5.89 5.23 13.22 7.8 20.52 7.81 8.52 0 17.01-3.51 23.11-10.38 6.37-7.18 12.17-14.57 17.57-22.08-14.65 3.13-28.33 7.95-40.94 14.45-5.07 2.61-10.74 4-16.41 4zM400.8 209.14c-22.1 21.32-22.74 56.52-1.42 78.63 21.32 22.1 56.52 22.74 78.63 1.42 22.11-21.32 22.74-56.52 1.42-78.63-21.32-22.11-56.53-22.74-78.63-1.42z"/><path d="M345.02 313.01c6.29 1.56 13.46 2.3 19.24 2.3l.8-.01c5.15 0 8.52-.38 8.56-.38a25.2 25.2 0 0 1 3.01-.18c12.45 0 22.98 9.33 24.51 21.7 1.66 13.53-7.99 25.9-21.51 27.57-1.98.23-7.18.74-14.5.75h-.02c-13.56-.04-25.58-1.68-36.75-5.02-8.76-2.65-16.49-6.3-23.18-10.89-19.43 16.49-41.3 32.75-64.19 42.72-1.33-.44-2.69-.88-4.09-1.32.13 1.08.27 2.15.39 3.24 1.88 16.53 2.95 34.33 2.93 53.45 0 3.33-.49 6.54-1.35 9.6-.03.12-.06.24-.09.35 11.34 10.65 27.43 16.59 52.29 7.62 50.42-22.68 76.44-42.43 110.62-82.46 24.69-29.25 18.83-61.39 3.5-76.8-14.59-14.67-42.45-8.9-60.18 7.79zM323.49 68.29c1.65 6.4.7 13.05-2.65 18.74-4.43 7.49-12.58 12.15-21.3 12.15-4.4 0-8.75-1.19-12.55-3.43-2.79-1.65-5.5-3.2-8.16-4.71 17.63 21.38 48.83 26.74 72.78 11.46 25.89-16.53 33.48-50.91 16.95-76.8-16.52-25.89-50.9-33.48-76.79-16.95-9.16 5.84-16.01 13.93-20.34 23.07 11.77 5.17 25.14 12.17 40.69 21.35 5.69 3.36 9.73 8.73 11.37 15.13z"/><path d="M247.16 151.12c.42 0 .84-.07 1.27-.09 3.38-.22 6.76-1.26 9.77-3.29 9.05-6.11 11.44-18.4 5.34-27.46h-.01c0-.01-.37-.56-1.17-1.78-.96-1.46-2.44-3.79-4.23-6.71-2.62-4.27-5.89-9.82-9.13-15.85-.98-1.83-1.96-3.7-2.92-5.59-3.13-6.19-6-12.62-7.94-18.19-.74-2.06-1.32-4.01-1.75-5.75 3.2.78 7.44 2.1 12.54 4.2 6.49 2.61 14.44 6.38 23.84 11.43 5.15 2.76 10.71 5.89 16.73 9.45 9.4 5.55 21.53 2.43 27.08-6.97 5.55-9.4 2.43-21.53-6.98-27.09-15.53-9.16-28.67-16.03-40.09-21.05-1.97-.86-3.9-1.69-5.77-2.45-12.75-5.08-23.11-7.94-33.53-8.02-4.46 0-9.02.59-13.57 2.25-6.84 2.35-13.29 7.86-16.58 14.14-3.38 6.26-4.21 12.44-4.23 17.87.1 10.29 2.85 19.34 6.21 28.42 1.9 4.96 4.07 9.91 6.35 14.69 9.99 20.94 22.07 38.59 22.36 39.13 3.82 5.67 10.06 8.72 16.42 8.72zM324.97 267.98c3.34-10.4-2.37-21.54-12.77-24.88-9.05-2.91-18.65 1.04-23.2 8.96-.68 1.18-1.25 2.45-1.69 3.81-4.15 12.92-6.2 24.66-6.21 35.52-.05 14.06 3.68 26.82 10.35 36.8 4.95 7.42 11.08 13.05 17.61 17.33 6.76 4.43 13.94 7.43 20.7 9.47 13.46 4.03 26.15 4.79 35.35 4.81 7.98 0 13.3-.64 13.9-.71 10.84-1.34 18.54-11.21 17.21-22.05-1.34-10.83-11.2-18.54-22.03-17.21v-.01c-.41.05-3.98.42-9.08.42-6.81.08-16.32-.82-24.28-3.24-2.49-.75-4.84-1.65-6.89-2.73-4.38-2.22-7.41-4.78-9.52-7.95-2.07-3.2-3.71-7.35-3.77-14.94 0-2.97.3-6.45 1.01-10.45.68-3.84 1.74-8.14 3.3-12.97zM138.18 373.16c-2.46-.07-4.94-.11-7.43-.11-1.52 0-3.06.03-4.59.06-23.33.36-48.18 3.52-73.11 11.3-12.14 3.79-24.3 8.68-36.3 14.86-15.17 7.82-21.13 26.46-13.3 41.63 3.31 6.43 8.58 11.18 14.69 13.95 8.31 3.77 18.19 3.86 26.94-.65 15.31-7.9 31.28-12.99 47.36-15.96 12.71-2.35 25.48-3.37 38.06-3.38h.25c12.98-.01 25.68 1.09 37.64 2.82-.48-22.32-2.62-43.36-6.46-63-7.69-.76-15.61-1.3-23.75-1.51z"/></g></svg>