<svg xmlns="http://www.w3.org/2000/svg" xml:space="preserve" viewBox="0 0 762.92 517.67" shape-rendering="geometricPrecision" text-rendering="geometricPrecision" image-rendering="optimizeQuality" fill-rule="evenodd" clip-rule="evenodd"><g fill="currentColor"><path d="M473.14 159.62c26.9-7.52 41.61-39.04 32.84-70.42-8.77-31.38-37.68-50.72-64.58-43.21-26.91 7.52-41.61 39.04-32.84 70.43 8.77 31.38 37.68 50.72 64.59 43.21zM428.5 95.77c5.31 0 9.61 4.3 9.61 9.61s-4.3 9.61-9.61 9.61-9.61-4.3-9.61-9.61 4.3-9.61 9.61-9.61zM609.29 233.21c-2.55-19.49-7.52-38.86-15.28-61.85-12.69-36.9-43.87-48.58-65.38-43.22-21.51 5.36-30.97 35.38-23.73 60.46 4.75 24.26 12.02 55.77 14.21 87.18 23.49-23.72 55.06-39.4 90.19-42.56zM426.02 298.54c-8.86 0-17.23 4.08-22.7 11.05a28.813 28.813 0 0 0-5.31 24.68l32.09 130.41c-2.18 4.63-3.43 9.77-3.43 15.22 0 19.79 16.04 35.83 35.83 35.83s35.83-16.04 35.83-35.83c0-10.41-4.47-19.75-11.56-26.3l-23.96-97.39h15.75c3.19-21.04 10.91-40.6 22.12-57.68h-74.67zm15.45 181.37c0-11.61 9.42-21.03 21.03-21.03 11.62 0 21.03 9.42 21.03 21.03 0 11.62-9.42 21.03-21.03 21.03-11.62 0-21.03-9.42-21.03-21.03zM698.17 195.25l56.54-12.57c5.65-1.26 9.22-6.86 7.96-12.51-1.25-5.65-6.84-9.22-12.51-7.96l-69.3 15.4-14.9 61.62c6.79 2.13 13.37 4.75 19.69 7.81l12.53-51.79z"/><path d="M462.51 469.37c-5.81 0-10.55 4.73-10.55 10.54 0 5.81 4.73 10.54 10.55 10.54 5.81 0 10.54-4.73 10.54-10.54 0-5.81-4.73-10.54-10.54-10.54zM622.44 239.52c-76.54 0-138.58 62.04-138.58 138.58 0 76.54 62.05 138.58 138.58 138.58 76.54 0 138.58-62.04 138.58-138.58 0-76.54-62.04-138.58-138.58-138.58zm92.94 78.25-77.17 44.55 44.55-77.17c13.01 8.48 24.14 19.6 32.61 32.61zm-185.88 0c8.48-13.01 19.6-24.14 32.61-32.61l44.55 77.17-77.17-44.55zm87.17 38.78-44.56-77.18c13.5-6.91 28.58-11.16 44.56-11.99v89.16zm0 132.26c-15.98-.82-31.06-5.07-44.56-11.98l44.56-77.18v89.16zm11.55-89.16 44.56 77.18c-13.5 6.91-28.58 11.16-44.56 11.98v-89.16zM644 372.33l77.18-44.56c6.91 13.5 11.16 28.58 11.99 44.56h-89.16zm89.16 11.55a109.98 109.98 0 0 1-11.99 44.56l-77.18-44.56h89.16zm-60.38-104.5-44.56 77.18V267.4c15.98.83 31.06 5.07 44.56 11.99zm-149.07 48.4 77.18 44.56h-89.17a109.98 109.98 0 0 1 11.99-44.56zm77.18 56.11-77.18 44.56c-6.91-13.5-11.16-28.58-11.99-44.56h89.17zm-71.39 54.55 77.17-44.55-44.55 77.17a111.81 111.81 0 0 1-32.62-32.62zm153.27 32.62-44.55-77.17 77.17 44.55a111.897 111.897 0 0 1-32.61 32.62zM2.03 514.82h29.3c2.11-12.21 3.94-24.45 5.59-36.71H144.2v36.71h28.84V413.44h6.12V384.6H45.1c.22-5.48.38-10.96.5-16.44-4.98-1.53-7.8-2.62-8.38-2.85l-3.1-1.24.72-3.26c.5-2.28 4.11-18.41 10.7-41.62-1.39-53.67-7.09-107.26-17.2-160.23l-28.33 5.4C22.09 280.1 22.72 398.87 2.04 514.81zM43.5 413.44h100.71v48.94H38.92c1.94-16.28 3.46-32.6 4.59-48.94zM228.74 497.21c2.75 12.19 13.56 20.46 25.55 20.46 1.91 0 3.85-.21 5.79-.65 14.13-3.18 23-17.21 19.81-31.34l-24.64-109.33c-18.66 2.54-36.23 4.28-52.56 5.29l26.05 115.57zM258.7 117.24c32.17 5.06 62.36-16.92 67.42-49.09 5.06-32.18-16.93-62.36-49.1-67.42-32.17-5.06-62.36 16.92-67.42 49.1-5.06 32.18 16.93 62.36 49.11 67.41zM318.55 244.41l-21.52-6.29-24.75 12.16c-3.33 1.64-7.05 2.5-10.75 2.5-6.55 0-12.93-2.7-17.5-7.4l-.04-.04 2.78 8.18A18.358 18.358 0 0 0 259 265.23l69.48 20.32c1.72.5 3.45.74 5.16.74 6.01 0 11.65-2.98 15.06-7.89-15.24-5.07-26.92-18.01-30.14-34z"/><path d="M246.93 139.86c-2.95-11.91-11.42-21.23-29.74-28.21-16.94-6.45-33.8-5.25-50.13 3.57C93.95 154.71 49.62 332.31 43.29 359.13c16.35 5.43 95.5 27.97 228.24 6.91-36.17-49.67-40.97-93.71-37.29-130.74l-55.11-56.78c-4.54-4.68-6.98-10.83-6.88-17.35.1-6.51 2.73-12.59 7.4-17.13 4.58-4.44 10.6-6.88 16.98-6.88 6.65 0 12.87 2.63 17.5 7.4l52.55 54.14.2-.1-11.71-34.49-8.24-24.24z"/><path d="m341.92 168.44-76.51 37.6-55.6-57.28c-7.06-7.27-18.68-7.45-25.95-.39-7.27 7.06-7.45 18.68-.39 25.95l64.89 66.86c3.54 3.65 8.32 5.57 13.17 5.57 2.74 0 5.51-.61 8.09-1.88l88.49-43.48c8.58-4.22 12.4-14.24 9.05-23H400.68c2.09 3.16 8.3 7.02 15.63 7.02 9.05 0 16.38-5.87 16.38-9.07s-7.34-5.79-16.38-5.79c-6.09 0-11.4 1.18-14.22 2.92h-37.73c-5.25-6.6-14.55-8.9-22.43-5.03zm74.39 4.43c6.79 0 12.29 1.21 12.29 2.7 0 1.49-5.5 2.7-12.29 2.7-6.79 0-12.29-1.21-12.29-2.7 0-1.49 5.5-2.7 12.29-2.7zM323.68 235.45c0 21.68 17.58 39.26 39.26 39.26s39.26-17.58 39.26-39.26-78.52-21.68-78.52 0zm39.26-9.95c17.08 0 30.93 3.72 30.93 8.32s-13.85 8.32-30.93 8.32-30.93-3.72-30.93-8.32 13.85-8.32 30.93-8.32z"/></g></svg>