<svg xmlns="http://www.w3.org/2000/svg" xml:space="preserve" viewBox="0 0 88.37 174.96" shape-rendering="geometricPrecision" text-rendering="geometricPrecision" image-rendering="optimizeQuality" fill-rule="evenodd" clip-rule="evenodd"><g fill="currentColor"><path d="M40.2 32.62c8.89 2.07 17.77-3.46 19.84-12.35C62.11 11.38 56.58 2.5 47.69.43 38.8-1.64 29.92 3.89 27.85 12.78c-2.07 8.89 3.46 17.77 12.35 19.84zM7.47 90.08c.45 0 .9-.05 1.36-.16.8-.19 1.52-.54 2.15-1l13.11 17.94v59.01a9.08 9.08 0 0 0 9.08 9.08c5.02 0 9.08-4.06 9.08-9.08V99.56h3.4v66.31a9.08 9.08 0 0 0 9.08 9.08c5.02 0 9.08-4.06 9.08-9.08v-58.36l13.58-18.59a5.902 5.902 0 0 0 3.5 1.16c2.66 0 5.08-1.82 5.71-4.53 1.2-5.09 1.76-9.72 1.76-13.95.01-6.39-1.29-11.86-3.47-16.36-3.27-6.77-8.45-11.13-13.32-13.68-4.72-2.44-9.01-3.38-12.35-3.49-.35-.07-.72-.11-1.09-.11H29.75c-.4 0-.8.04-1.18.12-2.06.12-4.39.56-7.03 1.44-4.56 1.54-9.94 4.47-14.26 9.72-4.33 5.23-7.33 12.77-7.3 22.34 0 4.23.56 8.86 1.76 13.95.64 2.7 3.05 4.53 5.72 4.53zM44 91.25l-1.76-2.22-5.22-6.6 1.34-9.89 2.68-19.73c.95.36 1.96.54 2.96.54s2-.19 2.95-.54l2.67 19.65 1.35 9.96-5.33 6.73-1.65 2.08zm27.98-34.54c2.57 3.18 4.6 7.63 4.63 14.89 0 3.19-.42 6.92-1.44 11.25-.28 1.2-.17 2.4.24 3.47l-11.6 5.54V50.95c2.75 1.04 5.81 2.87 8.17 5.76zM41.21 43.87h5.58l1.4 5.51-.21.33A6.19 6.19 0 0 1 44 51.15c-1.42 0-2.82-.48-3.97-1.44l-.21-.34 1.4-5.51zm-27.16 16.5c2.03-4.17 5.08-6.74 8.21-8.39.61-.33 1.22-.61 1.83-.85v40.5l-11.12-5.31c.41-1.07.52-2.27.24-3.47-1.02-4.32-1.44-8.05-1.44-11.25.01-4.84.95-8.43 2.3-11.23z"/></g></svg>