<svg xmlns="http://www.w3.org/2000/svg" xml:space="preserve" viewBox="0 0 759.85 278.62" shape-rendering="geometricPrecision" text-rendering="geometricPrecision" image-rendering="optimizeQuality" fill-rule="evenodd" clip-rule="evenodd"><g fill="currentColor"><path d="M166.97 258.69c3.72-10.79.15-22.8-8.84-29.83l-53.09-41.46c8.3-13.71 18.92-26.66 29.67-38.48l-19.56-45.48c-5.06-11.77.39-25.46 12.16-30.52 2.92-1.26 6-1.89 9.16-1.89 9.3 0 17.68 5.52 21.36 14.05l29.72 69.1 9.43 12.35c2.92 3.84 7.29 6.34 12.07 6.95l65.82 8.39c.78.1 1.55.15 2.31.15 8.96 0 16.73-6.66 17.89-15.78 1.26-9.9-5.74-18.94-15.63-20.21l-58.33-7.44-17.31-22.66a59.376 59.376 0 0 1-9.45-4.53c-18.11-10.82-28.32-29.88-28.75-49.56-2.25-1.5-4.71-2.85-7.34-4.01-2.84-1.93-6.13-3-9.49-3.13-14.59-3.32-32.3-.98-48.58 11.55-35.67 27.82-52.98 49.34-72.15 91.59-10.82 30.46 6.87 46.11 24.45 56.48l11.34 8.86H26.77c-14.79 0-26.79 11.99-26.79 26.79 0 14.79 11.99 26.79 26.79 26.79l114.87-.01c11.4 0 21.6-7.29 25.32-18.06z"/><path d="M153.09 87.13c-3.94-9.17-14.57-13.4-23.74-9.46-9.16 3.94-13.4 14.57-9.46 23.74l68.84 160.03c2.94 6.84 9.6 10.94 16.6 10.94 2.38 0 4.8-.47 7.13-1.48 9.17-3.94 13.4-14.57 9.46-23.74L153.09 87.12zM197.02 106.98c25.6 15.29 58.73 6.94 74.02-18.64 15.3-25.59 6.95-58.73-18.64-74.02s-58.72-6.95-74.02 18.64c-15.29 25.58-6.95 58.73 18.64 74.02zM733.07 223.19h-44.3l17.4-16.23c2.73-2.55 4.81-5.54 6.23-8.76 1.3-1.9 2.62-3.99 4.01-6.26 11.05-18.01 21.08-41.51-4.46-63.99-37.31-27.59-62.89-37.98-107.6-44.93-32.55-4.86-55.59 14.93-61.82 33.97-4.42 13.53 3.02 27.26 15.4 35.66 1.59-11.98 1.74-20.79 1.72-24.4 0-1.89-.05-3.04-.06-3.39-.71-12.79 9.12-23.78 21.91-24.49.44-.02.87-.04 1.31-.04 12.31 0 22.49 9.64 23.18 21.95.01.33.12 2.39.13 5.92-.04 8.84-.71 22.88-3.6 39.97 15.45 4.8 32.04 10.56 47.3 18.11l-47.28 44.1c-8.04 7.5-10.68 19.18-6.65 29.4 4.04 10.23 13.92 16.97 24.92 16.97H733.1c14.79 0 26.79-11.99 26.79-26.78 0-14.79-11.99-26.79-26.79-26.79z"/><path d="M600.81 122.58c-.55-9.97-9.08-17.6-19.04-17.04-9.97.55-17.59 9.08-17.04 19.04l-.01-.01s.01 0 .01.07c.02.37.06 1.6.06 3.58.1 14.7-2.87 69.97-37.48 118.63-5.77 8.15-3.83 19.42 4.32 25.19 3.17 2.24 6.81 3.32 10.42 3.32 5.67 0 11.25-2.66 14.77-7.64 41.2-58.53 44.03-120.83 44.12-139.5-.01-3.38-.11-5.34-.12-5.64zM551.98 80.98c14.92-25.81 6.09-58.82-19.72-73.74-25.81-14.92-58.82-6.09-73.74 19.71-14.92 25.81-6.09 58.82 19.72 73.74 25.81 14.92 58.82 6.1 73.74-19.71zM299.1 277.54h33.56v-33.56H299.1zM299.1 232.37h127.77v-33.56H299.1zM299.1 141.16h127.77v-33.55H299.1zM346.21 277.54h33.56v-33.56h-33.56zM426.87 243.98h-33.55v33.56h33.55zM299.1 186.34h33.56v-33.56H299.1zM379.77 186.34v-33.56h-33.56v33.56zM507.54 245.06h-33.56v33.56h33.56z"/></g></svg>