<svg xmlns="http://www.w3.org/2000/svg" xml:space="preserve" viewBox="0 0 1203.1 1109.38" shape-rendering="geometricPrecision" text-rendering="geometricPrecision" image-rendering="optimizeQuality" fill-rule="evenodd" clip-rule="evenodd"><g fill="currentColor"><path d="m397.08 1089.41 103.9-18.89c-1.35-13.85 3.12-27.45 11.88-37.77l-84.95-20.43c-9.28-2.23-17.3-6.94-23.65-13.19l-22.85 4.15c-23.79 4.33-39.56 27.11-35.23 50.89 3.84 21.14 22.26 35.95 43.01 35.95 2.6 0 5.23-.23 7.89-.72z"/><path d="m423.37 803.98-25.78 146.95c-.05.3-.07.6-.11.9-.08.3-.19.58-.26.89-5.65 23.5 8.82 47.14 32.32 52.79l89.08 21.42c4.81-4.09 10.44-7.38 16.79-9.49l56.9-18.97 3.08 6.35-57.76 19.26c-22.93 7.64-35.33 32.44-27.68 55.37 6.11 18.34 23.2 29.94 41.52 29.94 4.59 0 9.25-.73 13.84-2.26l68.64-22.88 41.06-13.69 16.36-5.45c16.01-5.33 26.85-19.02 29.36-34.6 1.09-6.75.64-13.84-1.67-20.77-.05-.14-.11-.26-.16-.4-3.82-15.34-15.8-28.08-32.23-32.03l-90.48-21.76-6.82-1.64 18.1-103.22 7.35-41.86c5.05 9.79 11.19 20.57 20 31 7.48 8.74 17.24 17.11 29.51 22.95 12.18 5.86 26.48 8.98 42.04 8.98h.22c9.71 0 19.93-1.15 30.86-3.4 15.16-3.12 24.91-17.94 21.79-33.08-.61-2.95-1.67-5.68-3.08-8.16l19.37-65.25-23.3-6.91v-16.14h-61.87v11.49l-29.45 9.79 12.78 38.47c-5.23-7.56-10.49-17.86-16.3-29.66-4.67-9.06-9.85-18.88-17.7-28.44-6.72-8.22-16.17-16.34-28.15-21.25-2.45-1.3-5.13-2.25-8-2.76l-133.25-23.37c-.24-.04-.48-.05-.73-.09-2.78-.49-5.45-.71-8-.72-11.76.14-21.56 3.56-31.38 8.52-14.53 7.56-28.7 19.42-40.03 35.89a109.835 109.835 0 0 0-19.26 62.33c-.02 27.09 9.69 56.38 31.07 86.45l14.59-83.2 6.81 1.73zm325.35-61.67v11.6l-32.51-9.64-20.87 70.3c-.51-.11-1.01-.24-1.49-.37v-71.89h54.86zm-22.58 71.18c-7.81 1.61-14.28 2.24-19.55 2.24-2.96-.05-5.49-.25-7.77-.56l19.76-66.56 52.59 15.61-17.55 59.16c-6.38-7.92-16.84-12.09-27.47-9.9zm-35.78-.45c-3.02-1.22-5.47-2.79-7.91-4.65-.86-.66-1.71-1.46-2.56-2.29l-14.55-43.8 25.02-8.32v59.06zM1049.87 503.57c42.37-9.86 68.72-52.21 58.85-94.57-9.86-42.36-52.21-68.71-94.58-58.84-42.37 9.86-68.72 52.2-58.85 94.57 9.87 42.37 52.21 68.72 94.57 58.85zM905.14 758.08c3 0 6.05-.49 9.06-1.51 149.31-51.26 215.37-157.71 217.26-160.58 8.15-13.16 4.07-30.41-9.09-38.55-13.15-8.15-30.4-4.08-38.54 9.08h-.01l-.01.01h.01c-1.97 3.25-61.13 93.97-187.75 137.03-14.63 5-22.45 20.92-17.45 35.56 3.98 11.64 14.86 18.96 26.51 18.96zM153.23 409.59c42.36 9.87 84.7-16.48 94.57-58.85 9.87-42.37-16.48-84.71-58.85-94.57-42.37-9.87-84.71 16.48-94.58 58.84-9.86 42.37 16.49 84.71 58.86 94.57zM85.88 733.76c2.34-.03 4.58-.08 6.72-.16h216.16c20.88 0 38.91-14.81 42.94-35.3 4.05-20.48-7-41.03-26.32-48.96l-168.65-69.22c-7.63-3.13-15.62-3.9-23.22-2.73a815.26 815.26 0 0 1 4.04-23.46c-13.42-5.65-24.67-12.54-33.41-18.89-17.95-13.08-28.86-25.95-32.72-30.88-5.86-7.69-8.28-16.9-7.02-26.17 1.27-9.27 6.06-17.49 13.51-23.15 6.14-4.67 13.46-7.14 21.16-7.14 11.04 0 21.2 5.03 27.88 13.81l.53.61c.7.82 1.85 2.14 3.43 3.77 3 3.1 7.91 7.79 14.39 12.48 15.82 11.49 32.4 17.31 49.29 17.31 25.99-.17 52.55-13.07 81.28-39.44 1.49-1.38 3.11-2.6 4.79-3.69-12.47 2.42-24.63 3.5-36.33 3.5-33 .03-62.58-8.34-83.7-16.81-10.55-4.23-18.96-8.44-24.58-11.52-2.81-1.54-4.92-2.79-6.25-3.59-.67-.41-1.13-.71-1.41-.87-.13-.09-.21-.15-.24-.16-2.04-1.36-4.21-2.38-6.42-3.14-2.15-1-4.4-1.82-6.76-2.41-29.89-7.46-73.22 8.78-90.86 60.05C.28 548.23-4.84 594.22 4.22 672c10.96 56.38 49.59 62.16 81.68 61.75zM730.03 344.96V209.72c20.9 29.63 46.24 74.47 69.59 128.24 8.98 5.38 16.27 13.53 20.51 23.63 1.95 4.63 3.13 9.38 3.64 14.13 3.54 1.57 7.39 2.44 11.34 2.44 3.5 0 7.06-.66 10.52-2.06 14.34-5.82 21.24-22.16 15.42-36.5-25.18-62.03-53.14-114.53-78.64-152.57-12.81-19.06-24.9-34.47-36.66-46.2-5.92-5.87-11.73-10.86-18.33-15.02-4.97-2.99-10.48-5.93-17.66-7.3-2.17-.56-4.45-.89-6.8-.89h-16.67c-12.48 24.49-36.38 42.21-64.65 46.12l-18.23-5.41v-1.05c2.12.17 4.26.28 6.43.28 43.52 0 78.78-35.27 78.78-78.78S653.36 0 609.84 0c-43.51 0-78.78 35.27-78.78 78.78 0 26.13 12.73 49.27 32.31 63.61h-11.03a86.603 86.603 0 0 1-14.2-16.59c-24.85 10.45-44.88 28.29-59.89 47.6-9.96 12.92-17.84 26.72-23.44 40.62-5.54 13.95-8.97 27.9-9.03 42.16 0 1.01.02 2.21.09 3.55 0 .04-.01.08 0 .12 0 .05.01.1.01.15.01.05.01.09.01.13.01.06.01.11.02.17.62 11.6 3.9 24.41 13.43 35.23 9.36 10.83 24.25 16.44 37.82 16.44.34 0 .68-.01 1.01-.01.3-.01.58-.03.87-.04 21.76-.6 42.73-9.77 68.85-26.41 12.98-8.41 16.68-25.76 8.26-38.74-8.41-12.98-25.76-16.68-38.73-8.27-14.18 9.39-25.32 14.1-32.19 16.14-1.27.38-2.44.69-3.41.9.07-4.59 1.57-12.26 4.99-20.65 1.42-3.57 3.19-7.27 5.2-10.99l5.96 17.93c1.01-.51 2.06-1.07 3.14-1.65l-20.34-61.17 40.79-13.56v63.43c1.15-.39 2.31-.69 3.49-.95v-82.04h54.86v11.4l-14.12-4.19-22.44 75.64c1.12.36 2.22.76 3.28 1.23l21.52-72.51 52.6 15.61-25.57 86.16-29.52-8.76c2.12 6 2.59 12.48 1.23 18.87-1.95 9.15-7.35 16.99-15.2 22.08-11.47 7.31-21.65 12.98-31.07 17.24v55.39l95.35 20.53 94.06-39.61zM670.12 487.65c22.14 4.76 43.92-8.32 50.45-29.56l-63.52 26.75 13.06 2.81zM467.96 444.14l65.12 14.01c1.21-18.42 12.48-35.51 30.61-43.14l61.03-25.7-138.54-29.82c-23.38-5.04-46.39 9.85-51.43 33.22-5.03 23.36 9.83 46.39 33.21 51.43z"/><path d="M566.4 421.46c-22.05 9.28-32.37 34.67-23.1 56.71 9.28 22.03 34.66 32.38 56.71 23.1l190.59-80.26c22.04-9.28 32.37-34.67 23.1-56.7-9.28-22.04-34.66-32.38-56.7-23.1l-190.59 80.25zM290.99 448.08l11.73-47.88 27.21 6.67-11.23 45.82c1.06.69 2.08 1.43 3.06 2.23l12.41-50.62-3.7-.91 5.78-10.48 24.53 13.53-31.46 57.03c.73 1.18 1.41 2.39 1.99 3.63l27.77-50.33 18.94 12.6-46.53 69.98-1.09-.73a38.52 38.52 0 0 1-1.81 3l3.89 2.59.97-1.46 49.44-74.36-22.1-14.69 4.76-8.63-30.66-16.91-7.93 14.37-26.79-6.56-13.07 53.32c1.27-.49 2.58-.87 3.91-1.21zM854.68 433.05l-32.87 12.06 5.65 15.41-22.52 15.92 39.27 55.55c-.46 9.36 3.75 18.74 12.02 24.47l107.67 74.4a27.977 27.977 0 0 0 15.92 4.98c5.11 0 10.22-1.4 14.76-4.21l54.94-34.05c18.84-19.91 28.09-34.32 28.3-34.68 6.46-10.45 17.6-16.66 29.83-16.66 6.49 0 12.85 1.81 18.4 5.24 16.41 10.16 21.5 31.78 11.35 48.2l-.25.4c-7.39 11.47-76.28 113.54-220.7 163.11-3.69 1.26-7.5 1.89-11.32 1.89-13.55 0-25.73-7.82-31.51-19.81-16.75 8.99-25.99 28.02-22.24 47.01 4.04 20.48 22.06 35.3 42.95 35.3h216.16c2.15.08 4.39.13 6.72.16 32.09.41 70.73-5.37 81.68-61.76 9.06-77.78 3.93-123.76-19.89-194.4-17.63-51.27-60.96-67.51-90.86-60.05-.56.14-1.1.32-1.65.48-4.04.44-8.04 1.73-11.72 4.01l-94.12 58.32-73.85-51.04 1.04-.28-.47-1.69-23.73-86.08-25.59 7.06-3.39-9.25zm28.34 93.18-3.7-5.24 6.71-2.46-.6-1.65-26.15-71.28 21.93-6.05 22.33 81.01-20.53 5.66zm-30.41-88.68 28.93 78.89-4.31 1.58-43.69-61.79-3.12 2.2-4.12-11.24 26.31-9.65zm-19.91 23.56 48.51 68.62-22.87 16.17-48.5-68.62 22.87-16.17z"/><path d="M141.17 484.05c-6.64-4.83-11.89-9.74-15.31-13.28-1.71-1.77-2.97-3.2-3.72-4.1-.39-.45-.64-.76-.77-.92h-.01c-9.36-12.3-26.92-14.68-39.23-5.33-12.32 9.36-14.72 26.93-5.35 39.25 1.14 1.43 11.76 15.34 31.47 29.7 19.58 14.24 49.09 29.3 86.47 29.34h.51c37.53 0 80.42-16.2 123.39-56.15 11.36-10.51 12.06-28.22 1.57-39.58-10.5-11.37-28.22-12.06-39.58-1.57-35.96 32.97-63.97 41.13-85.89 41.28-21.8.03-40.11-8.89-53.55-18.64zM540.37 685.11c42.86 7.52 83.69-21.13 91.2-63.99 7.52-42.85-21.12-83.69-63.98-91.21-42.86-7.52-83.69 21.13-91.21 63.99-7.52 42.86 21.13 83.69 63.99 91.21zM367.65 632.02c14.99 0 27.13-7.05 27.13-15.75s-12.15-15.76-27.14-15.76c-.24 0-.47.02-.7.02.45-1.13.7-2.31.7-3.52 0-8.7-12.15-15.76-27.13-15.76-14.98 0-27.13 7.06-27.13 15.76s12.15 15.76 27.13 15.76c.24 0 .47-.02.7-.02-.44 1.13-.7 2.31-.7 3.52 0 8.7 12.15 15.76 27.14 15.75zM372.03 574.24c0 8.7 12.15 15.76 27.13 15.76 14.99 0 27.14-7.05 27.14-15.76 0-8.7-12.15-15.76-27.14-15.76-14.98 0-27.13 7.06-27.13 15.76zM367.65 658.28c0 8.7 12.15 15.76 27.13 15.76 14.99 0 27.13-7.05 27.13-15.76 0-8.7-12.15-15.76-27.13-15.76-14.98 0-27.14 7.05-27.13 15.76zM821.97 658.28c0 8.7 12.15 15.76 27.14 15.76s27.13-7.05 27.13-15.76c0-.92-.16-1.82-.42-2.7 10.45-2.19 17.93-7.99 17.93-14.81 0-8.7-12.15-15.76-27.13-15.76-14.99 0-27.14 7.05-27.14 15.76 0 .92.16 1.82.43 2.7-10.45 2.19-17.94 7.99-17.94 14.81zM798.33 604.01c-14.98 0-27.13 7.05-27.13 15.76 0 8.7 12.15 15.76 27.13 15.76 14.99 0 27.14-7.05 27.14-15.76 0-8.7-12.15-15.76-27.14-15.76zM769.45 505.96c0-8.7-12.15-15.75-27.14-15.75-14.98 0-27.13 7.05-27.13 15.76 0 8.7 12.15 15.76 27.13 15.76 14.99 0 27.14-7.05 27.14-15.76zM737.93 905.14c-14.99 0-27.14 7.05-27.14 15.76 0 1.26.29 2.48.76 3.66-13.27 1.03-23.52 7.61-23.52 15.6 0 8.7 12.15 15.76 27.14 15.76s27.13-7.06 27.13-15.76c0-1.26-.28-2.48-.76-3.65 13.27-1.03 23.52-7.62 23.52-15.6 0-8.71-12.15-15.76-27.13-15.76zM627.64 912.14c0 8.7 12.15 15.76 27.13 15.76 14.99 0 27.13-7.06 27.13-15.76 0-8.71-12.15-15.76-27.13-15.76-14.98 0-27.13 7.05-27.13 15.76z"/></g></svg>