<svg xmlns="http://www.w3.org/2000/svg" xml:space="preserve" viewBox="0 0 955.19 738.6" shape-rendering="geometricPrecision" text-rendering="geometricPrecision" image-rendering="optimizeQuality" fill-rule="evenodd" clip-rule="evenodd"><g fill="currentColor"><path d="M269.59 273.23c1.87 2.32 3.81 4.65 5.82 6.97 4.25 4.91 8.81 9.81 13.72 14.63.05.05.09.1.14.15v-.01c13.5 13.18 29.97 25.76 49.31 35.28-2.76-9.5-4.16-19.03-4.14-28.4-.01-11.59 2.08-23 6.16-34.06-4.7-3.64-9.19-7.55-13.45-11.67l-.03-.03c-4.31-4.18-8.31-8.55-12.06-12.98-9.93-11.74-17.88-23.85-23.59-33.88-3.14-5.5-5.61-10.34-7.43-14.13-1.26-4.84-3.36-9.26-6.09-13.04-3.45-5.54-8.7-9.52-14.67-11.46a27.833 27.833 0 0 0-9.73-1.77H127.49l125.67 174.42 16.43-70.03zM107.85 43.96v28.38c-8.47 36.46 14.21 72.89 50.67 81.38 36.47 8.49 72.92-14.19 81.41-50.66 2.38-10.22 2.31-20.43.18-30.03h30.43l-30.22-29.08H107.86zM239.52 37.93 262.49 0 107.85 15.71v22.22zM30.62 427.49c1.11 0 2.22-.07 3.35-.21 14.87-1.84 25.45-15.37 23.61-30.24-2.32-18.87-3.32-35.76-3.32-50.87.07-46.29 9.22-75.38 19.05-93.79l27.01 115.08c-.43 1.48-.8 2.99-1.06 4.54L44.74 691.04c-3.78 22.15 11.1 43.18 33.26 46.97 2.32.39 4.62.59 6.9.59 19.46 0 36.67-14.01 40.06-33.84l46.81-273.97h4.24l46.82 273.97c3.39 19.83 20.59 33.84 40.05 33.84 2.28 0 4.58-.19 6.91-.59 22.15-3.78 37.05-24.81 33.25-46.96l-54.51-319.04c-.27-1.55-.63-3.05-1.06-4.52l.21-.89L105.2 168.84H94.25c-1.98 0-3.9.24-5.78.64-2.78.17-5.58.77-8.3 1.85-3.51 1.36-24.11 10.52-43.51 37.43C17.19 235.61-.09 279.4 0 346.19c0 17.49 1.15 36.6 3.73 57.5 1.69 13.74 13.39 23.81 26.89 23.81zM552.01 426.46c1.05 4.88-2.07 9.69-6.95 10.74-.64.13-1.27.2-1.9.2-4.17 0-7.93-2.9-8.83-7.15-.06-.31-.16-.61-.22-.91-.39.27-.76.55-1.15.82a29.999 29.999 0 0 1-17.31 5.48c-2.03 0-4.03-.25-5.98-.65-7.47 6.7-17.81 11.44-31.82 11.44h-.24c-14.13.05-24.54-4.7-32.06-11.44-1.95.4-3.94.65-5.98.65-6.23 0-12.22-1.9-17.32-5.48-.38-.27-.75-.54-1.12-.8-.07.3-.17.6-.23.9a9.047 9.047 0 0 1-8.82 7.15c-.63 0-1.27-.07-1.91-.2-4.89-1.05-8-5.85-6.95-10.74.65-2.95 1.5-5.82 2.41-8.65-3.3-2.59-6.48-5.19-9.54-7.78V697.37c0 20.59 16.69 37.26 37.26 37.26 20.58 0 37.27-16.68 37.27-37.26V452.09c2.16.23 4.38.38 6.74.38h.5c2.36 0 4.58-.15 6.73-.38v245.28c0 20.59 16.69 37.26 37.26 37.26 20.58 0 37.27-16.68 37.27-37.26V410.03c-3.05 2.59-6.24 5.19-9.53 7.78.92 2.84 1.76 5.71 2.42 8.66zM425.38 321.95c1.36-14.92-9.64-28.11-24.56-29.47-1.6-.15-3.17-.34-4.73-.56-.91 3.29-1.36 6.56-1.36 9.96.06 9.67 3.57 19.43 11.05 30.69 2.12 3.17 4.58 6.4 7.33 9.68 6.74-4.37 11.49-11.67 12.28-20.29zM707.52 366.59l.21.89c-.43 1.48-.8 2.98-1.06 4.54l-54.51 319.04c-3.79 22.15 11.1 43.17 33.25 46.96 2.32.4 4.63.59 6.9.59 19.46 0 36.67-14.01 40.06-33.84l46.81-273.97h4.24l46.82 273.97c3.39 19.83 20.59 33.84 40.05 33.84 2.28 0 4.59-.19 6.91-.59 22.15-3.78 37.03-24.8 33.25-46.96l-54.51-319.03c-.27-1.55-.64-3.06-1.06-4.53l27.01-115.06c9.81 18.4 18.99 47.49 19.05 93.77 0 15.1-1.01 32-3.31 50.89-1.83 14.86 8.76 28.4 23.63 30.22 1.12.14 2.23.21 3.33.21 13.51 0 25.21-10.09 26.89-23.84 2.56-20.88 3.72-39.98 3.72-57.48.09-66.79-17.18-110.58-36.65-137.42-19.4-26.91-40-36.07-43.51-37.43a26.853 26.853 0 0 0-8.28-1.85c-1.88-.4-3.81-.64-5.79-.64h-10.96L707.53 366.62zM715.09 73.03c-2.13 9.6-2.2 19.81.18 30.03 8.49 36.47 44.94 59.15 81.41 50.66 36.47-8.49 59.15-44.94 50.66-81.41V43.96H714.89l-30.22 29.08h30.42zM847.34 37.93V15.71L692.71 0l22.97 37.93zM549.44 332.56c7.48-11.26 10.99-21.02 11.05-30.69-.01-3.39-.48-6.67-1.38-9.96-1.57.21-3.14.41-4.74.56-14.92 1.35-25.92 14.55-24.56 29.47.79 8.63 5.54 15.93 12.28 20.3 2.75-3.28 5.21-6.51 7.34-9.68zM628.09 256.09l-.01.01c-4.26 4.13-8.76 8.04-13.46 11.68 4.08 11.06 6.17 22.47 6.16 34.07.03 9.36-1.37 18.89-4.13 28.39 19.29-9.5 35.73-22.05 49.21-35.21.02-.02.05-.04.07-.06l.02-.02c4.95-4.86 9.55-9.8 13.84-14.74a253.6 253.6 0 0 0 5.83-6.98l16.44 70.03 125.67-174.42H701.67c-3.38 0-6.64.62-9.7 1.76-6 1.93-11.28 5.94-14.72 11.51-2.72 3.76-4.8 8.16-6.05 12.98-5.17 10.68-15.59 29.82-30.97 48.01-3.75 4.44-7.78 8.82-12.12 13z"/><path d="M351.73 257.53c-6.57 12.44-11.28 27.52-11.26 44.34-.06 19.39 6.39 40.38 20.23 60.9 10.92 16.25 26.29 32.48 47.08 49.03 7.03-17.95 18.18-32.87 25.44-41.46-15.25-12.71-25.71-24.33-32.47-34.43-9.42-14.17-12-24.99-12.06-34.04.02-7.87 2.1-14.96 5.72-21.89 2.21-4.25 5.08-8.33 8.23-12.13-.92 7.48-1.92 13.07-2.87 14.91-.59 1.13-1.11 2.24-1.59 3.35 1.06.13 2.12.27 3.19.37 8.81.8 16.8 4.98 22.47 11.79 5.68 6.8 8.35 15.41 7.55 24.23-.93 10.25-6.37 18.96-14.25 24.36 5.68 6.21 12.41 12.57 20.07 18.95 1.87-2.05 3.04-3.25 3.12-3.37 3.53-3.53 9.26-3.53 12.79 0a9.035 9.035 0 0 1 0 12.78s-.32.31-1.02 1.06c-.16.17-.4.44-.6.66 1.78 1.3 3.59 2.61 5.44 3.91 13.59 9.56 16.87 28.39 7.32 41.98-3.07 4.37-7.22 7.73-11.93 9.93 6.18 4.59 14.33 7.61 25.29 7.65 11-.04 19.08-3.08 25.25-7.67-4.69-2.2-8.83-5.56-11.89-9.91-9.56-13.59-6.28-32.42 7.32-41.98 1.86-1.31 3.67-2.61 5.46-3.92-.21-.22-.44-.47-.61-.64-.71-.76-1.02-1.06-1.02-1.06-3.53-3.53-3.53-9.26 0-12.79 3.53-3.53 9.26-3.53 12.79 0 .08.12 1.25 1.31 3.12 3.36 7.66-6.38 14.38-12.73 20.05-18.94-7.88-5.39-13.32-14.11-14.25-24.36-.81-8.82 1.87-17.42 7.54-24.23 5.68-6.81 13.66-10.99 22.47-11.79 1.06-.1 2.11-.24 3.17-.36-.48-1.11-.95-2.22-1.55-3.35-.95-1.84-1.95-7.43-2.87-14.91 3.15 3.79 6.02 7.88 8.23 12.13 3.63 6.93 5.7 14.02 5.71 21.89-.05 9.05-2.63 19.87-12.06 34.04-6.76 10.11-17.21 21.72-32.46 34.43 7.27 8.58 18.42 23.51 25.45 41.46 20.78-16.55 36.14-32.78 47.06-49.02 13.84-20.52 20.29-41.5 20.24-60.9.01-16.82-4.7-31.9-11.27-44.34-6.58-12.49-14.95-22.56-23.03-30.59-13.94-13.78-27.16-21.75-31.39-24.17-.69-.4-1.16-.66-1.34-.76v.01c-.1-.06-.22-.1-.32-.15-2.36-1.36-4.98-2.3-7.76-2.76-13.25 20.62-36.23 33.72-61.97 33.72-5.63 0-11.28-.65-16.81-1.94-18.78-4.37-34.74-15.66-45.19-31.8-2.82.45-5.47 1.4-7.85 2.76-.11.06-.24.11-.35.17v-.01c-.17.1-.65.36-1.34.76-4.23 2.42-17.45 10.39-31.39 24.17-8.08 8.04-16.45 18.11-23.03 30.59z"/><path d="M439.57 429.62c7.58 0 15.05-3.57 19.74-10.24 7.66-10.9 5.04-25.93-5.85-33.6-2.06-1.44-4.04-2.88-5.98-4.3-2.35 2.77-5.19 6.31-8.2 10.51-6.16 8.56-12.7 19.7-16.43 31.18.95.68 1.89 1.37 2.87 2.05 4.21 2.97 9.05 4.39 13.84 4.39zM515.64 429.62c4.79 0 9.63-1.42 13.85-4.39.99-.69 1.94-1.38 2.9-2.08-5.55-17.09-17.49-33.23-24.64-41.69-1.95 1.43-3.93 2.87-6 4.32-10.89 7.67-13.51 22.7-5.85 33.6 4.69 6.68 12.16 10.24 19.74 10.24zM462.24 225.01c36.47 8.49 72.91-14.19 81.41-50.66 8.49-36.47-14.19-72.92-50.66-81.41-36.47-8.49-72.92 14.19-81.41 50.66-8.49 36.47 14.19 72.92 50.66 81.41z"/></g></svg>