<svg xmlns="http://www.w3.org/2000/svg" xml:space="preserve" viewBox="0 0 832.61 1938.33" shape-rendering="geometricPrecision" text-rendering="geometricPrecision" image-rendering="optimizeQuality" fill-rule="evenodd" clip-rule="evenodd"><g fill="currentColor"><path d="M507.8 625.12c10.49.62 20.52 3.08 29.74 7.14 71.36 16.28 110.46 18.79 127.69 18.79H667.7c2.66 0 5.06-.07 7.34-.17 3.48 5.42 6.43 10.61 8.77 15.27-4.76.44-10.4.74-16.99.71-22.69.17-55.35-3.36-98.4-11.83a86.789 86.789 0 0 1 19.78 41.59c4.09 22.86-1 45.99-14.3 65.04-10.19 14.61-24.31 25.47-40.64 31.58 52.76 10.74 96.42 15.82 133.57 16 43.74-.39 81.2-6.24 115.3-29.18.2-.14.41-.23.59-.35 15.78-10.95 29.62-26.62 38.09-44.26 3.29-6.72 5.79-13.57 7.62-20.4 2.98-11.06 4.21-22.03 4.18-32.19-.48-35.54-12.21-62.94-25.29-87.88-20.19-37.06-46.71-68.84-71.36-94.12-12.42-12.59-24.18-23.29-35.83-32.3-5.93-4.53-11.66-8.65-19.1-12.89-3.78-2.11-7.98-4.3-13.94-6.56-6.09-2.11-13.67-4.96-27.92-5.2-1.89 0-3.75.14-5.6.29-3.97-.68-8-1.14-12.13-1.14H290.6l109.03 151.33c41.48 12.94 77.31 22.95 108.17 30.7zM620.4 900.83l18.02-76.8c-24.39-1.53-51.12-4.85-80.59-10.04l62.57 86.84zM490.84 802.19c-96.86 16.27-176.86 24.25-243.78 24.28h-.02c-21.88-.02-42-.95-60.73-2.69l32.99 140.59c-1.13 3.88-2.1 7.84-2.79 11.93L73.43 1813.55c-9.93 58.14 29.13 113.31 87.27 123.24 6.08 1.04 12.14 1.54 18.11 1.54 51.09 0 96.25-36.75 105.14-88.8l122.87-719h11.13l122.86 719c8.89 52.04 54.05 88.8 105.14 88.8 5.97 0 12.03-.5 18.12-1.54 58.11-9.93 97.19-65.1 87.27-123.24L608.27 976.3c-.7-4.06-1.66-8.01-2.78-11.87l.55-2.35-115.19-159.89zM584.64 99.53 644.91 0 239.08 41.24v58.29zM239.08 115.35v74.46c-22.25 95.7 37.27 191.32 132.96 213.59 95.7 22.29 191.37-37.24 213.65-132.94 6.24-26.81 6.06-53.61.47-78.8H666l-79.3-76.31H239.09z"/><path d="M273.31 645.14a75.14 75.14 0 0 0-1.86 6.91c52.85-1.76 117.79-9.18 193.28-21.95-30.82-8.52-64.65-18.67-101.77-30.76-37.41-12.12-77.54 8.38-89.65 45.8z"/><path d="M37.84 750.92c.06.08.12.14.18.21 23.75 23.56 53.61 37.54 87.52 46.51 34.16 8.88 73.6 12.96 121.53 13.01 69.17-.04 156.19-8.79 267.95-28.67 38.71-6.9 64.5-43.86 57.61-82.57-6.9-38.72-43.87-64.49-82.58-57.59-106.12 18.94-185.98 26.5-242.98 26.47-39.42.05-67.81-3.69-85.42-8.37-8.25-2.15-13.99-4.44-17.63-6.24 1.36-3.63 3.69-8.58 7.14-14.1 2.09 1.01 6.67 2.99 14.48 5.03 11.1 2.94 36.21 7.85 80.69 7.85h1.1c2.56 0 5.35-.11 7.98-.13.69-4.04 1.58-8.07 2.87-12.07 10.64-32.86 39.29-55.83 72.95-59.61l-99.11-137.56h-28.75c-3.62 0-7.16.35-10.66.87-.17-.01-.32-.02-.49-.02-20.14.42-31.36 5.25-42.03 9.62-17.98 8.1-32.78 18.27-48.29 30.64-22.87 18.59-45.68 41.88-65.03 70C18.11 582.38.68 615.54.03 659.43c-.19 8.57.81 17.55 2.74 26.59 5 23.44 16.85 47.2 35.08 64.89z"/></g></svg>