<svg xmlns="http://www.w3.org/2000/svg" xml:space="preserve" viewBox="0 0 666.14 663.12" shape-rendering="geometricPrecision" text-rendering="geometricPrecision" image-rendering="optimizeQuality" fill-rule="evenodd" clip-rule="evenodd"><g fill="currentColor"><path d="m630.73 417.73 33.23-.13-76.01-59.81 5.28 92.29 19.63-23.29c8.23 7.84 16.24 18.09 22.34 29.15 7.36 13.25 11.92 27.63 11.87 39.93-.01 8.21-1.88 15.39-5.97 21.58-4.11 6.17-10.58 11.67-21.1 15.91-7.6 3.03-14.33 4.29-20.38 4.3-15.14-.04-27.48-7.81-38.73-21.53-16.71-20.45-28.28-53.35-35.08-80.88-.71-2.87-1.37-5.66-1.99-8.39 3.94-6.35 7.09-14.52 9.08-25.02 5.12-43.01 4.73-72.91-2.18-106.86l-12.79 38.62c-.83 25.77-5.67 54.2-14.5 84.7-2.58 8.92-10.17 15.46-19.14 16.91l-35.94 108.55v87.11c0 16.28 13.2 29.49 29.49 29.49 16.28 0 29.49-13.2 29.49-29.49V442.46c.18-.1.37-.18.55-.28 2.29 8.95 5.02 18.42 8.27 27.93 7.12 20.67 16.62 41.61 29.91 58.05 13.12 16.33 31.08 28.59 53.43 28.59h.11c8.74 0 17.94-1.85 27.46-5.66 13.43-5.35 23.48-13.33 29.92-23.1 6.47-9.75 9.16-20.96 9.14-32.11-.03-16.83-5.8-33.81-14.25-49.16-5.93-10.71-13.22-20.58-21.16-28.99zM459.85 423.49c-.06-.11-.14-.22-.2-.33-3.07-5.58-3.79-12.03-2.02-18.14 8.49-29.32 12.8-56.03 12.8-79.36-.06-33.72-8.7-50.01-12.4-55.46l-.17-.22c-8.34-9.65-7.43-24.57 2.1-33.2a23.788 23.788 0 0 1 16-6.17c6.73 0 13.17 2.86 17.68 7.84.08.08 9.59 10.14 16.73 32.45l7.46-22.52c-13.16-30.81-39.42-40.18-58.17-34.85-20.47 5.82-29.82 36.97-23.28 62.81.38 2.27.76 4.7 1.13 7.27-2.89 4.13-6.13 8.36-9.76 12.55-9.47 10.97-21.41 21.55-36.04 29.36-12.43 6.61-26.8 11.33-43.92 12.75 1.89 1.32 3.59 2.93 5.06 4.79 3.94 5 5.7 11.25 4.94 17.57-.77 6.47-4.1 12.06-8.89 15.85 24.15-1.69 45.16-8.63 62.67-18.34 12.09-6.7 22.5-14.62 31.47-22.96 2.64 31.33 4.33 62.79 4.33 74.55 0 4.04.32 8.03.97 11.82v36.63l11.48-34.69zM258.97 104.92c-28.86-6.72-57.7 11.23-64.42 40.08-6.72 28.85 11.23 57.7 40.09 64.41 28.86 6.72 57.69-11.23 64.41-40.08 6.72-28.85-11.23-57.69-40.08-64.41z"/><path d="M204.39 315.39c-19.43-26.15-24.1-50.21-25.06-56.96-.83-6.53.88-12.78 4.78-17.81 3.91-5.03 9.54-8.24 15.86-9.04 1-.13 2.01-.19 3.02-.19 11.87 0 22.03 8.89 23.61 20.68.08.45.18 1.03.36 1.83.36 1.65 1.03 4.3 2.17 7.6 1.8 5.25 5.04 12.86 10.52 21.11.33-2.2.65-4.31.98-6.29 6.54-25.84-2.81-56.99-23.28-62.81-6.52-1.85-13.94-1.92-21.41.06-.96-.84-2.43-2.12-4.41-3.87C165.77 187 59.04 89.33 13.66 3.78A7.146 7.146 0 0 0 5.9.13 7.142 7.142 0 0 0 .22 6.56C.21 6.73.01 9.28 0 13.7c.01 12.45 1.6 40.26 13.86 71.2-.67 2.35-2.2 8.74-2.21 17.88-.02 12.8 3.13 31.09 15.91 50.43-.07.24-.17.48-.22.73-.07.37-.69 3.65-.69 8.91-.01 10.11 2.32 27.85 15.57 45.33.08.11.18.22.26.32a7.133 7.133 0 0 0-.37 4.73c.18.6 6.96 25.34 28.31 50.77 15.51 18.55 39.12 37.35 73.06 46.72-4.12 27.9-3.7 54.85.61 91.1 4.33 22.78 14.07 34.58 25.57 40.61v188.41c0 16.28 13.21 29.49 29.49 29.49 16.28 0 29.49-13.2 29.49-29.49V421.5c.65-3.79.97-7.76.97-11.8 0-10.61 1.38-37.23 3.58-65.33-13.49-10.31-22.79-20.83-28.81-29zM81.38 254.81c-7.86-9.34-13.53-18.62-17.52-26.37 13.68 9.37 32.09 17.44 56.72 22.71.51.11 1.01.16 1.51.16 3.3 0 6.27-2.3 6.99-5.65.83-3.86-1.63-7.67-5.49-8.49-38.84-8.38-59.08-23.3-69.96-37.61-7.98-10.53-11.06-21.04-12.14-29.07 14.31 14.81 35.01 29.48 64.68 42.41.93.41 1.9.6 2.86.6 2.76 0 5.38-1.61 6.56-4.29 1.58-3.62-.08-7.84-3.7-9.42-38.33-16.73-59.65-35.81-71.5-53.11-9.24-13.52-12.82-26.06-13.96-36.09 10.25 17.35 24.42 34.65 44.05 49.89a7.152 7.152 0 1 0 8.76-11.31C33.53 113.89 19.78 65.76 15.83 35.68c51.82 81.11 141.49 162.82 165.84 184.4-10.71 7.11-20.26 19.22-25.77 37.31-4.21 14.1-7.49 26.87-9.93 39.15-30.13-8.6-50.6-25.19-64.58-41.71z"/><path d="M353.07 360.05c1.25-10.46-6.23-19.96-16.69-21.2-55.49-6.84-82.43-29.17-97.57-49.1-7.49-10.04-11.81-19.7-14.2-26.69-1.2-3.49-1.91-6.3-2.32-8.11-.2-.9-.32-1.55-.38-1.92-.03-.17-.05-.28-.05-.32-1.39-10.38-10.9-17.71-21.3-16.4-10.45 1.32-17.86 10.86-16.54 21.31.3 2.02 3.63 27.22 24.2 54.93 20.45 27.76 59.08 56.71 123.64 64.18.77.09 1.53.14 2.28.14 9.53 0 17.76-7.13 18.92-16.82zM388.25 123.74c-18.47 23.17-14.65 56.92 8.53 75.38 23.16 18.47 56.92 14.65 75.38-8.53 18.46-23.17 14.65-56.93-8.53-75.39-4.14-3.3-8.64-5.86-13.31-7.76-16.75-30.55-57.67-35.13-57.67-35.13s18.88 15.6 26.09 32.46c-11.63 2.53-22.5 8.92-30.49 18.96zM512.71 279.02c2.75 10.73 4.82 23.76 5.29 39.24l49.52-149.57c1.6.29 3.2.52 4.8.67 27.39 2.63 54.35-14.86 63.79-43.35 5.97-18.04 3.66-36.72-4.8-51.62 1.85 10.37 1.13 21.87-2.64 33.26-9.13 27.6-33.02 45.06-55.67 42.07l24.12-97.83-.12-.04-38.9 92.59c-19.02-11.61-27.19-39.22-18.26-66.2 3.78-11.39 10.07-21.06 17.74-28.27-15.69 6.91-28.7 20.52-34.67 38.57-9.26 27.96 1.35 57.48 23.99 72.04 1.36.87 2.76 1.7 4.21 2.46l-38.41 116zM479.21 435.42c-1.78-.1-3.56-.35-5.3-.85-4.1-1.19-7.71-3.41-10.58-6.42l-75.99 229.52 16.48 5.46 75.4-227.71zM475.23 429.98c1.78.52 3.56.76 5.31.76 8.28 0 15.9-5.43 18.32-13.77 10.63-36.71 14.5-66.87 14.49-91.3.14-55.62-20.49-81.19-23.24-84.02-7.07-7.81-19.14-8.41-26.95-1.33-7.7 6.97-8.39 18.79-1.63 26.62.01.01.02.03.04.05.06.07.18.23.39.54 2.28 3.34 13.15 20.08 13.23 58.15 0 20.4-3.22 46.96-12.99 80.68-2.93 10.12 2.9 20.7 13.02 23.63zm-13.41-162.72z"/></g></svg>