<svg xmlns="http://www.w3.org/2000/svg" xml:space="preserve" viewBox="0 0 224.49 333.41" shape-rendering="geometricPrecision" text-rendering="geometricPrecision" image-rendering="optimizeQuality" fill-rule="evenodd" clip-rule="evenodd"><g fill="currentColor"><path d="m204.38 221.32 3.23 3.06c-.02-1.95-.06-3.95-.11-6.01-1 .99-2.04 1.97-3.12 2.95zM203.68 232.68c-.96 0-1.85-.34-2.52-.97l-4.33-4.1a10.507 10.507 0 0 1-6.22 2.02c-3.33 0-6.42-1.51-8.45-4.14a10.647 10.647 0 0 1-2.16-7.89c.2-1.6.76-3.09 1.61-4.41l-59.62-56.51c-3.14 4.51-6.02 9.5-8.67 14.97-7.47 15.49-13.06 34.8-16.65 57.7-.71 4.53 2.39 8.79 6.92 9.5.43.07.87.1 1.3.1 4.02 0 7.56-2.93 8.2-7.03 4.07-26.09 10.91-46.56 19.3-60.7-8.69 36.3-4.68 83.7-4.68 83.7 0 2.83 5.31 4.92 13.17 6.28v60.81c0 5.94 4.81 10.74 10.75 10.74 5.93 0 10.75-4.81 10.75-10.74v-58.97c3.21.07 6.46.07 9.67 0v58.97c0 5.94 4.81 10.74 10.75 10.74 5.93 0 10.75-4.81 10.75-10.74V261.2c7.86-1.36 13.16-3.45 13.16-6.28 0 0 .84-9.96.92-24.23-.07.08-.12.17-.2.25-1.06 1.11-2.42 1.75-3.75 1.75z"/><path d="M188.82 206.58c5.09-4.44 9.08-8.88 11.87-13.23 1.69-2.65 3.02-6.6 3.83-9.47-1.32-8.35-3.17-16.48-5.71-23.78 2.16 2.1 4.01 4.36 5.44 6.7 2.35 3.87 3.61 7.87 3.61 12.22 0 .46-.01.92-.04 1.38-.27 4.15-1.69 8.83-5.13 14.22-3.44 5.37-8.95 11.38-17.16 17.74-3.63 2.81-4.29 8.03-1.48 11.66a8.308 8.308 0 0 0 6.58 3.22c1.78 0 3.57-.57 5.08-1.74 9.35-7.25 16.23-14.53 20.97-21.9 4.73-7.36 7.28-14.89 7.73-22.15.05-.81.08-1.62.07-2.43.01-7.71-2.35-14.84-6.05-20.88-5.58-9.09-13.99-15.96-23.06-20.73-8.23-4.29-17.03-6.91-25.45-7.4a26.373 26.373 0 0 1-20.09 9.21 26.788 26.788 0 0 1-8.8-1.5c-4.69 3.01-9.01 6.77-12.99 11.25l60.78 57.61zM221.83 25.12c-3.97-8.4-12.14-9.56-19.53-6.78C205.35 7.71 195.83.47 184.34.02c-5.77-.23-11.93 1.59-16 5.81-4.95 5.14-3.88 12.54-1.52 18.63-10.91-.66-18.65 6.56-16.13 18.35 2.53 11.82 14.62 16.96 25.29 12.44 1.71-.72-1.91-2.57-3.13-2.06-20.59 8.72-26.7-29.77-3.38-26.24.8.12 2.1-.04 1.64-1.12-5.02-11.65-.23-22.74 13.17-23.46 4.61-.25 9.85 1.01 12.9 4.71 3.63 4.39 1.69 10.24-.86 14.61-.77 1.33 3.03 2.01 3.83 1.45 7.51-5.35 16.4-5.58 18.76 4.73 1.66 7.24-3.07 13.1-10.46 12.71-2.56-.14-.32 2.07.98 2.3 7.43 1.38 9.31 7.79 6.13 13.98-3.97 7.71-13.24 8.31-20.01 4.25-.61-.36-1.71-.44-2.47-.28.86-1.44 1.63-2.94 2.27-4.5.43-1.05-2.49-3.84-2.93-2.76-3.26 8.03-10 14.61-17.62 18.88 3.62-6.53 7.14-14.39 5.33-20.77-.28-.97-3.34-3.57-2.76-1.5 1.37 4.83-1.9 11.15-3.8 15.43a102.61 102.61 0 0 1-4.98 9.74c-.52.89 1.49 3.61 2.51 3.23.07-.03.14-.06.2-.08v-.01c8.33-3.21 16.24-9 21.18-16.66.12.13.29.27.54.42 8.29 4.97 20.34 6.14 26.05-3.39 4.29-7.15 1.33-13.26-4.63-16.39 7.32-1.9 11.12-9.46 7.39-17.35z"/><path d="M179.26 44.57c5.44-5.82 14.85-5.02 19.39 1.65 1.62 2.39 1.11-.21.26-1.45-4.97-7.31-15.02-11.01-21.81-3.75-.69.74 1.87 3.86 2.16 3.55zM112.71 61.79c.23-.14.35-.29.4-.44 3.47 4.69 8.5 8.34 13.81 10.36.89.34.52-.91.32-1.26-2.05-3.52-5.74-9.25-5.32-13.72.15.1.33.19.56.29 7.28 3 14.7.38 16.28-7.85 1.33-6.95-3.74-10.95-9.65-11.55 2.54-8.42-3.02-14.41-11.98-15.03-7.66-.53-13.48 4.43-11.54 11.22-4.75-1.73-9.92-1.21-12.3 4.36-2.03 4.75.38 8.69 4.2 10.51-3.7 2.18-4.74 6.44-1.65 10.7 3.95 5.46 11.53 5.55 16.88 2.42zm-5.3-24.57c.6.42 4.1 1.12 3.14-.56-3.53-6.15-.03-11.37 6.82-11.75 8.2-.45 9.81 6.96 7.12 13.3-.55 1.3 2.49 1.84 3.18 1.74 12.14-1.73 7.41 19.96-3.54 15.43-.67-.28-1.43-.27-1.99-.1-.11-1.24-2.68-3.44-2.95-2.49-.9 3.18.86 6.97 2.08 9.83.77 1.8 1.66 3.57 2.6 5.3-4.72-2.12-9.22-5.9-11.1-10.54-.37-.91-3.55-3.45-2.76-1.5.62 1.51 1.4 2.96 2.31 4.33-.85-.52-2.14-.84-2.74-.48-4.34 2.54-9.31 2.58-11.32-2.7-1.46-3.86 1.35-6.63 4.94-7.34 2.27-.45-.86-2.36-1.93-2.31-7.63.32-4.79-17.82 6.14-10.17z"/><path d="M109.49 52.63c2.65-3.9 8.39-5.83 11.98-1.98.52.56.83.31.61-.37-.29-.93-.87-1.8-1.53-2.51-3.9-4.17-10.06-3.35-13.23 1.32-.64.94 2.03 3.74 2.16 3.55zM19.61 248.33a40.882 40.882 0 0 1-5.4-20.24c.01-6.29 1.4-10.73 2-12.35 1.26-3.24 4.37-5.37 7.78-5.37 1.03 0 2.04.19 3 .56 4.27 1.66 6.4 6.48 4.75 10.75l-.03.1c-.1.31-.22.73-.34 1.29-.24 1.11-.54 2.87-.53 5.02.01 3.73.85 7.3 2.5 10.66 1.21-6.54 2.82-12.77 4.02-17.95 2.64-7.89-.5-17.25-7.94-18.82-7.44-1.57-18.33 2.25-22.92 13.87-6.21 16.02-7.66 26.4-5.68 43.91 2.01 10.08 8.52 12.88 15.13 13.5a67.811 67.811 0 0 1 2.95 19.8c-.01 7.98-1.39 17.18-5.57 27.19-2.03 4.84.25 10.4 5.09 12.43 1.2.5 2.44.74 3.66.74 3.72 0 7.24-2.19 8.77-5.83 5.23-12.49 7.05-24.33 7.04-34.52-.02-13.42-3.06-23.99-5.45-30.26-5.47-4.27-9.79-9.1-12.84-14.47z"/><path d="M48.62 256.41c-8.95-4.94-13.83-10.26-16.63-15.14-2.78-4.89-3.52-9.49-3.53-13.19 0-2.3.3-4.23.59-5.53.14-.65.28-1.14.38-1.44.04-.14.08-.24.09-.29 1.18-3.06-.33-6.5-3.39-7.68-3.06-1.18-6.5.33-7.68 3.39-.17.46-1.86 4.89-1.87 11.56 0 5.32 1.13 12.13 5.09 19.06 3.95 6.95 10.68 13.88 21.22 19.66a5.949 5.949 0 0 0 8.06-2.34c1.58-2.87.53-6.48-2.34-8.06zM44.83 159.34c-11.47 0-20.78 9.3-20.78 20.78 0 11.47 9.3 20.78 20.78 20.78 11.47 0 20.77-9.3 20.77-20.78s-9.3-20.78-20.77-20.78zM202.8 229.99c.66.62 1.96.32 2.91-.69.95-1 1.19-2.32.53-2.95l-3.64-3.45c-1.24 1.08-2.54 2.16-3.87 3.22l4.07 3.86zM184.07 210.49c1.02-.79 1.99-1.57 2.94-2.36l-84.45-80.04c-.66-.62-1.96-.32-2.91.69-.95 1-1.19 2.32-.53 2.95l84 79.61c.3-.3.61-.58.95-.84zM144.32 136.21c13 3.03 26-5.06 29.03-18.06 3.03-13-5.06-26-18.06-29.02-13-3.03-26 5.06-29.03 18.06-3.03 13 5.06 26 18.06 29.03zM84.34 314.29l-10.39-2.37-3.22-8.58c-2.42 2.16-3.4 4.95-6.01 8.05-2.34 2.77-4.82 2.82-6.57 2.31l-.38-1.67a1.947 1.947 0 0 0-2.35-1.47 1.947 1.947 0 0 0-1.47 2.35l4.02 17.53a1.947 1.947 0 0 0 2.35 1.47 1.947 1.947 0 0 0 1.47-2.35l-.38-1.67c1.35-1.21 3.61-2.25 6.92-.78 5.98 2.66 7.75 6.5 16.46 4.5 4.38-1 7.15-3.61 8.58-7.02l-6.94-2.14-2.08-8.16zM109.15 320.44l-6.26-5.63-6.96 2.08c.69 3.58 2.9 7.09 5.98 9.99 6.18 5.84 14.57 8.07 20.71 1.57 2.34-2.47 3.43-4.51 3.93-6.45l-7.44-5.35-9.96 3.79z"/></g></svg>