<svg xmlns="http://www.w3.org/2000/svg" xml:space="preserve" viewBox="0 0 1774.66 1449.73" shape-rendering="geometricPrecision" text-rendering="geometricPrecision" image-rendering="optimizeQuality" fill-rule="evenodd" clip-rule="evenodd"><g fill="currentColor"><path d="M670.22 591.2c15.04 18.87 22.94 41.83 22.77 65.63l67.79-176.69c6.48-16.88-1.96-35.82-18.84-42.3-16.89-6.49-35.82 1.96-42.3 18.84l-45.42 118.41c5.83 4.73 11.21 10.1 16.01 16.12z"/><path d="M680.13 666.57c5.69-50.54-30.66-96.12-81.2-101.81-50.54-5.69-96.13 30.66-101.82 81.2-2.69 23.89 4.02 46.66 17.17 64.64l112.15 29.63c28.64-12.93 49.93-40.17 53.7-73.66z"/><path d="M643.24 826.24c1.22.16 2.45.28 3.71.28 1.79 0 3.53-.18 5.22-.51l100.39 29.95c3.09.93 6.24 1.37 9.35 1.37 10.93 0 21.4-5.49 27.54-15.03l50.73-78.85 2.83-10.71-15.79-53.19c-12.57-2.19-25.81 3.14-33.15 14.55l-46.37 72.07-113.51-33.86c-1.23-.5-2.48-.95-3.8-1.29L506.8 718.36c.19.72.42 1.42.58 2.16 3.02 13.89.44 28.12-7.25 40.07l-59.68 92.77c-8.92 13.87-23.53 22.59-39.73 24.11L370.61 991.4c-5.53 12.54-6.1 27.22-.27 40.81l6.32 14.73 68.6 159.95-63.54 166.16c-10.09 26.39 3.12 55.97 29.51 66.06 6.01 2.3 12.19 3.39 18.26 3.39 20.59 0 40-12.52 47.8-32.9l70.94-185.54a51.186 51.186 0 0 0-.77-38.44l-33.81-78.85 73.94 95.82 12.47 199.17c1.49 23.89 19.15 42.91 41.66 47.1 4.07.76 8.29 1.03 12.6.76 28.2-1.76 49.63-26.06 47.86-54.26l-13.45-214.82a51.13 51.13 0 0 0-10.56-28.05l-83-107.55-7.25-9.4 55.31-209.31zM1325.71 1146.89c-34.41 0-62.31 27.9-62.31 62.31 0 34.41 27.89 62.31 62.3 62.31 34.42 0 62.31-27.89 62.31-62.31 0-34.41-27.9-62.31-62.31-62.31zM1720.67 1112.91c-29.82 0-54 24.17-54 54s24.17 54 54 54c29.82 0 54-24.18 54-54s-24.18-54-54-54zM1523.05 1118.34c-27.1 0-49.06 21.96-49.06 49.06s21.97 49.06 49.06 49.06c27.1 0 49.06-21.96 49.06-49.06 0-27.09-21.96-49.06-49.06-49.06zM1405.85 976.5c-35.04 0-63.44 28.4-63.44 63.44 0 35.03 28.4 63.44 63.44 63.44s63.44-28.4 63.44-63.44-28.4-63.44-63.44-63.44zM1221.32 1018.25c-32.4 0-58.66 26.26-58.66 58.66 0 32.4 26.27 58.66 58.66 58.66 32.4 0 58.66-26.26 58.66-58.66 0-32.4-26.27-58.66-58.66-58.66zM1736.89 1010.47c0-31.14-25.25-56.39-56.39-56.39s-56.39 25.25-56.39 56.39c0 31.15 25.25 56.39 56.39 56.39s56.39-25.25 56.39-56.39zM1541.17 879.73c-24.52 0-44.4 19.88-44.4 44.4s19.88 44.4 44.4 44.4c24.53 0 44.4-19.88 44.4-44.4s-19.88-44.4-44.4-44.4zM1217.91 924.69c0 24.53 19.88 44.4 44.4 44.4s44.4-19.88 44.4-44.4-19.88-44.4-44.4-44.4-44.4 19.88-44.4 44.4zM1086.26 989.56c30.14 0 54.57-24.44 54.57-54.57 0-30.14-24.43-54.57-54.57-54.57-1.94 0-3.85.11-5.74.3l-26.04 98.57c8.96 6.43 19.91 10.26 31.78 10.27zM1444.89 834.03c-15.07 0-27.28 12.22-27.28 27.28 0 15.07 12.22 27.28 27.28 27.28s27.28-12.21 27.28-27.28c0-15.06-12.22-27.28-27.28-27.28zM1343.94 869.5c0 15.07 12.21 27.28 27.28 27.28 15.06 0 27.28-12.22 27.28-27.28 0-15.07-12.22-27.28-27.28-27.28-15.07 0-27.28 12.21-27.28 27.28zM1700.01 861.31c0 15.07 12.21 27.28 27.28 27.28 15.06 0 27.28-12.21 27.28-27.28 0-15.06-12.22-27.28-27.28-27.28s-27.28 12.22-27.28 27.28zM1669.99 861.31c0-15.06-12.22-27.28-27.28-27.28-15.07 0-27.28 12.22-27.28 27.28 0 15.07 12.21 27.28 27.28 27.28 15.06 0 27.28-12.21 27.28-27.28zM1551.5 1008.66c-15.07 0-27.28 12.21-27.28 27.28s12.22 27.28 27.28 27.28 27.28-12.22 27.28-27.28c0-15.07-12.22-27.28-27.28-27.28zM1130.98 668.87c-3.19 28.31-16.66 53.15-36.41 70.99l74.76 22.3 38.05-59.14c9.84-15.29 26.58-24.43 44.77-24.43 10.21 0 20.16 2.93 28.77 8.47 11.95 7.68 20.19 19.57 23.2 33.46 3.01 13.89.44 28.12-7.25 40.07l-24.86 38.65h496.39v-12.28h-38.2V641.67h-599.42c1.15 8.92 1.24 18.03.21 27.2zM1447.62 307.64c3.52-4.43 2.77-10.86-1.66-14.37s-10.87-2.77-14.37 1.66l-76.84 96.98-45.83 19.81c-.05.02-.08.05-.13.07-.38.18-.75.39-1.11.61-.29.18-.59.35-.86.55-.04.03-.09.05-.14.09l-20.28 16.01-8.7-17.41c-1.36-2.72-3.78-4.53-6.5-5.26l4.86-5.01c3.57 1.11 7.59.26 10.37-2.6 3.94-4.05 3.84-10.53-.21-14.47-4.05-3.94-10.53-3.85-14.47.21-2.78 2.86-3.51 6.91-2.3 10.44l-32.64 33.6 6.61 6.42 15.35-15.8c.16.55.35 1.09.62 1.63l14.32 28.65c1.38 2.76 3.92 4.74 6.93 5.41.73.16 1.48.25 2.23.25 2.28 0 4.52-.77 6.34-2.2l19.42-15.33 24.23 56.04-39.37 40.45a16.346 16.346 0 0 0-4.54 9.65l-7.5 68.9c-.98 8.98 5.51 17.06 14.5 18.04.6.07 1.2.1 1.79.1 8.25 0 15.34-6.21 16.26-14.6l6.89-63.29 36.93-37.94 23.42-10.13L1430 617.58c3.69 8.54 13.6 12.45 22.13 8.77 8.53-3.69 12.46-13.59 8.77-22.13l-53.41-123.54-34.23-79.18 74.37-93.86z"/><path d="M1305.67 337.95c-15.52 6.71-22.67 24.73-15.96 40.26 6.71 15.52 24.74 22.67 40.27 15.96 15.53-6.71 22.67-24.74 15.95-40.27-6.71-15.52-24.73-22.67-40.26-15.95zM1118.61 182.09l143.19 129.1 7.12-4.99-134.6-134.1zM1237.98 111.35l55.75 184.56 8.68-.57-45.81-184.41zM1239.55 340.96l-180.67-58.81-9.5 16.01 186.07 50.45zM932.9 253.06c-9.02.06-16.3 5.7-16.26 12.61.04 6.91 7.39 12.46 16.41 12.4 6.54-.04 12.13-3.02 14.72-7.27h.01l.06-.11c.12-.2.23-.41.34-.61l35.7-64.05-72.33-17.71-33.81 60.64c-2.97-3.24-7.89-5.35-13.46-5.31-9.02.06-16.3 5.7-16.26 12.61.04 6.91 7.39 12.46 16.42 12.4 7.12-.04 13.14-3.58 15.35-8.47l24.05-43.16 57.71 14.13-15.18 27.23c-2.97-3.25-7.9-5.38-13.48-5.34zm-25.37-42.6 7.68-13.78 57.71 14.13-7.68 13.77-57.7-14.13zM1226.36 67.4a7.37 7.37 0 0 0-.29-.64L1195.76 0l-57.21 47.67 28.7 63.22c-4.37.47-8.99 3.17-12.27 7.67-5.31 7.3-5.1 16.5.48 20.57s14.41 1.45 19.73-5.84c4.2-5.76 4.93-12.7 2.31-17.38l-20.42-44.99 45.64-38.03 12.89 28.39c-4.38.45-9.02 3.16-12.31 7.68-5.31 7.29-5.1 16.5.48 20.57s14.41 1.45 19.73-5.84c3.85-5.28 4.78-11.55 2.89-16.16h.01l-.05-.11zm-72.4-3.34-6.52-14.36 45.65-38.02 6.52 14.36-45.65 38.02zM1062.49 71.84l-24.98 68.38c-3.51-2.78-8.81-4.12-14.41-3.19-9.08 1.51-15.51 8.37-14.36 15.32 1.16 6.96 9.46 11.36 18.54 9.86 7.17-1.19 12.67-5.73 14.11-11l22.38-61.28 23.19 13.72 3.77-6.38-.16-.09 2.84-4.13-30.92-21.21zM1559.32 194.69l-.18.04-.74-4.96-37.09 5.58 28.38 67.04c-4.47.36-9.25 3-12.72 7.5-5.61 7.3-5.63 16.7-.05 20.99 5.59 4.3 14.66 1.86 20.28-5.44 4.43-5.76 5.36-12.83 2.81-17.67l-25.43-60.08 26.32-5.78-1.59-7.24zM1056.95 740.24c28.64-12.93 49.93-40.17 53.7-73.66 5.69-50.54-30.66-96.12-81.2-101.81-50.53-5.69-96.13 30.66-101.82 81.2-2.69 23.88 4.02 46.65 17.17 64.64l112.15 29.63z"/><path d="m1132.7 1395.37-13.45-214.82a51.038 51.038 0 0 0-10.56-28.06l-90.25-116.94 56.01-211.99 108.62 32.4c3.1.93 6.25 1.37 9.36 1.37 10.93 0 21.4-5.49 27.54-15.03l59.69-92.77c9.78-15.2 5.39-35.46-9.82-45.25-15.2-9.79-35.47-5.4-45.25 9.82l-46.37 72.07-113.51-33.86c-1.23-.5-2.48-.95-3.8-1.29l-139.7-36.91-36.87-124.19 105.03-143.8c10.67-14.6 7.47-35.09-7.13-45.76-14.59-10.67-35.09-7.47-45.75 7.13l-114.6 156.89a32.72 32.72 0 0 0-4.95 28.63l47.33 159.4-63.14 238.97c-5.54 12.54-6.11 27.24-.28 40.83l74.91 174.68-63.53 166.16c-10.1 26.39 3.12 55.97 29.52 66.06a50.96 50.96 0 0 0 18.25 3.39c20.6 0 40.01-12.52 47.8-32.9l70.94-185.54a51.236 51.236 0 0 0-.77-38.44l-33.81-78.85 73.94 95.82 12.47 199.17c1.5 23.89 19.15 42.91 41.66 47.1 4.07.76 8.29 1.03 12.6.76 28.2-1.76 49.63-26.06 47.86-54.26zM260.22 740.24c28.63-12.93 49.92-40.17 53.69-73.66 5.69-50.54-30.66-96.12-81.2-101.81-50.54-5.69-96.12 30.66-101.82 81.2-2.69 23.88 4.02 46.65 17.17 64.64l112.15 29.63z"/><path d="M473.11 704.27c-15.2-9.79-35.47-5.4-45.26 9.82l-46.37 72.07-113.51-33.86c-1.23-.5-2.48-.95-3.8-1.29l-139.7-36.91L87.6 589.91l105.03-143.8c10.67-14.6 7.47-35.09-7.13-45.76-14.59-10.67-35.08-7.47-45.75 7.13L25.15 564.37A32.72 32.72 0 0 0 20.2 593l47.32 159.4L4.38 991.37c-5.54 12.54-6.11 27.24-.28 40.83l74.91 174.68-63.53 166.16c-10.1 26.39 3.12 55.97 29.52 66.06 6.01 2.3 12.19 3.39 18.26 3.39 20.59 0 40-12.52 47.8-32.9L182 1224.05a51.188 51.188 0 0 0-.77-38.44l-33.81-78.85 73.94 95.82 12.47 199.17c1.5 23.89 19.15 42.91 41.66 47.1 4.06.76 8.29 1.03 12.59.76 28.2-1.76 49.63-26.06 47.86-54.26l-13.45-214.82a51.19 51.19 0 0 0-10.56-28.06l-90.25-116.94 56.01-211.99 108.62 32.4c3.09.93 6.24 1.37 9.35 1.37 10.93 0 21.4-5.49 27.54-15.03l59.69-92.77c9.78-15.2 5.39-35.46-9.82-45.25z"/></g></svg>