<svg xmlns="http://www.w3.org/2000/svg" xml:space="preserve" viewBox="0 0 65.02 184.78" shape-rendering="geometricPrecision" text-rendering="geometricPrecision" image-rendering="optimizeQuality" fill-rule="evenodd" clip-rule="evenodd"><g fill="currentColor"><path d="M56.14 116.91c-4.61-.39-8.04-4.44-7.65-9.04.54-6.41.94-12.43 1.2-18.03-.49.11-1 .19-1.53.21-1.2.05-5.36.2-10.75.2-.54 0-1.08 0-1.61-.01l-.91 1.14-.92-1.16c-3.76-.05-7.23-.18-10.33-.38-4.46-.3-7.96-.71-10.94-1.29v86.07c0 5.6 4.54 10.15 10.15 10.15 5.6 0 10.15-4.54 10.15-10.15v-74.07h3.8v74.07c0 5.6 4.54 10.15 10.15 10.15 5.6 0 10.15-4.54 10.15-10.15v-57.7c-.09 0-.18.01-.27.01-.23 0-.46-.01-.69-.03z"/><path d="M.01 75.7c0 .08-.01.19-.01.32-.04 2.75 1.45 5.19 2.88 6.47 2.56 2.29 4.98 2.98 7.64 3.73 3.96 1.01 8.52 1.51 13.26 1.83 4.72.31 9.54.4 13.65.4 6.1 0 10.61-.2 10.67-.2 3.62-.16 6.43-3.22 6.27-6.84-.16-3.62-3.22-6.43-6.84-6.27 0 0-1.04.05-2.85.09-1.8.05-4.35.1-7.25.09-5.95.01-13.49-.21-19.13-.98-2.03-.26-3.82-.63-5.04-.98.35-6.78 1.03-12.07 1.84-16.16l1.84.06c-.74 3.62-1.41 8.42-1.79 14.71 1.02.22 2.19.43 3.38.58 2.99.41 6.44.65 9.7.78l3.38-24.87c1.06.4 2.18.61 3.3.61 1.12 0 2.24-.21 3.3-.61l3.4 25.02c1.19-.02 2.22-.04 3.02-.06 1.67-.04 2.67-.09 2.8-.09.14 0 .26-.01.38-.01.79 0 1.55.12 2.28.32-.03-6.58-.32-11.68-.73-15.55l1.79-.22c.44 4.27.74 9.69.74 16.52a8.336 8.336 0 0 1 4.27 6.94c.15 3.4-1.77 6.42-4.63 7.85-.26 5.61-.66 11.87-1.24 18.84-.3 3.61 2.38 6.79 5.99 7.09.19.02.37.02.55.02a6.57 6.57 0 0 0 6.54-6.02c1.17-14.02 1.65-25.32 1.65-34.48-.01-7.43-.32-13.44-.83-18.36C63.42 49 62.18 44.1 60.7 40.5c-1.26-3-2.79-5.17-4.68-6.68a9.581 9.581 0 0 0-2.62-1.5c-.8-.37-1.7-.58-2.64-.58h-.57c-3.07 3.53-7.33 5.99-12.16 6.74l1.56 6.13-.24.37a6.936 6.936 0 0 1-4.44 1.61c-1.58 0-3.15-.54-4.44-1.61l-.24-.38 1.55-6.13c-4.82-.75-9.09-3.21-12.16-6.74h-.57c-.25 0-.49.02-.72.04-1.4.11-3.27.57-5.15 1.75-3.39 2.11-6.4 6.01-8.67 12.44-1.03 2.95-1.95 6.47-2.69 10.75C.93 61.84.29 68.05 0 75.68z"/><path d="M53.37 18.46C53.37 8.26 45.1 0 34.91 0c-10.2 0-18.46 8.27-18.46 18.46 0 10.2 8.27 18.46 18.46 18.46 10.2 0 18.46-8.27 18.46-18.46z"/></g></svg>