<svg xmlns="http://www.w3.org/2000/svg" xml:space="preserve" viewBox="0 0 6109.66 9305.65" shape-rendering="geometricPrecision" text-rendering="geometricPrecision" image-rendering="optimizeQuality" fill-rule="evenodd" clip-rule="evenodd"><g fill="currentColor"><path d="M3844.06 3571.16h145.46a1076.576 1076.576 0 0 0-61.29-47.98c-76.85-56.18-177.38-109.05-258.57-108.11-71.3 1.96-134.04 30.86-185.43 156.09h223.83v635.01h136v-635.01zM2503.61 3571.16h178.14c-18.06-15.16-38.51-31.48-61.36-47.98-76.88-56.18-177.38-109.05-258.54-108.11-71.26 1.96-134.11 30.86-185.43 156.09h191.08v635.01h136.11v-635.01zM3335.58 3571.16c-18.02-15.16-38.51-31.48-61.33-47.98-76.85-56.18-177.3-109.05-258.54-108.11-71.19 1.96-134 30.86-185.43 156.09h207.4v635.01h136.11v-635.01h161.78zM3844.06 5145.1v-690.46h-136v690.46h-534.27v-690.46h-136.11v690.46h-534.09v-690.46h-136.11v690.46h-299.92v3675.5c0 267.93 217.27 485.05 485.05 485.05 267.93 0 485.16-217.09 485.16-485.05V5739.53h181.84V8820.6c0 267.93 217.23 485.05 485.05 485.05 267.9 0 485.13-217.09 485.13-485.05l.04-3675.5h-345.79zM3128.68 1765.53c487.59 0 882.75-395.22 882.75-882.78C4011.43 395.19 3616.28 0 3128.68 0c-487.52-.04-882.78 395.19-882.78 882.75s395.26 882.78 882.78 882.78zm572.38-987.63c44.72 125.95-21.11 264.27-147.02 309.02-125.91 44.68-264.27-21.14-308.98-147.09-44.64-125.84 411.29-287.77 456.01-161.93zm-1144.73 0c44.68-125.84 500.65 36.08 455.93 161.93-44.68 125.95-183.03 191.77-308.91 147.09-125.95-44.75-191.77-183.07-147.02-309.02z"/><path d="M2281.23 5058.86v-604.23h-361.61v604.23zM2951.53 3657.48h-361.68v548.7h361.68zM2589.85 5058.86h361.68v-604.23h-361.68zM3621.72 3657.48h-361.54v548.7h361.54zM3260.18 4454.63v604.23h361.54v-604.23zM3930.38 3657.48v548.7h361.56v-548.7zM4291.94 5058.86v-604.23h-361.56v604.23z"/><path d="m302.6 3251.44 92.48-199.68c90.99 84.03 180.31 152.53 271.49 206.97 144.01 86.35 299.08 136.03 452.71 136.03.51-.04.94 0 1.41 0 12.29 0 24.04-1.27 36.08-1.85 21.61 124.75 53.02 238.81 101.47 332.41 68.9 136.14 184.23 231.77 345.72 231.77h2.94c68.11-.15 143.18-16.21 226.41-48.56 27.82-10.81 56.54-23.43 86.31-38.08v335.71h361.61l-.07-548.7h-361.53v115.98c-30.03 15.99-58.97 30.28-86.31 42.07-89.25 38.44-164.54 55.41-226.41 55.23-128.27-1.12-208.2-65.46-272.1-185.21-42.07-80.33-71.44-184.48-92.15-301.8 153.69-25.97 284.18-97.01 384.53-173.24 185.97-142.42 316.6-307.24 440.41-421.59v782.25h16.79l-.33-.11c54.98-169.8 164.94-244.4 277.8-242.26 159.68 3.16 314.71 121.89 394.9 193.15 58.97-134.98 157.76-195.07 258.97-193.15 159.71 3.16 314.71 121.85 394.93 193.12 58.97-134.94 157.79-195.04 259.01-193.12 212.63 4.24 417.27 213.35 447.41 242.36h72.79v-782c79.75 75.47 168.09 171.68 267.21 270.36 78.52 76.34 165.88 154.82 276.45 220.24 108.94 64.73 247.59 114.96 400.99 114.96.69-.04 1.38 0 2.18 0 154.06.36 309.56-49.36 454.08-135.96 145.53-87.04 286.46-209.62 437.11-374.7 116.7-128.13 107.42-326.61-20.71-443.35-128.13-116.74-326.65-107.53-443.35 20.67-121.93 134.11-222.42 215.53-294.04 257.81-72.79 42.72-110.5 47.33-133.1 47.73-28.29-.4-61.69-8.49-129.76-58.5-100.42-72.53-231.41-230.29-399.87-388.84-85.48-78.88-183.65-158.74-305.03-222.13-107.49-56.5-236.05-97.52-375.75-105.5-13.06-1.7-26.18-2.86-39.67-2.86l-1515.8-.04c-15.16 0-29.88 1.49-44.43 3.63-190.4 11.79-356.89 84.93-485.09 172.99-212.26 146.3-355.15 325.63-479.98 444.98-61.07 60.16-115.36 104.59-155.73 127.95-4.75 2.68-8.34 4.32-12.58 6.53-6.46-242.07-8.16-472.18-35.76-635.45-23.43-136.5-52.44-230.03-88.45-293.83-34.71-63.03-84.28-101.4-140.67-101.15-71.95 1.99-125.01 51.9-172.41 109.23-41.16 51.35-76.85 112.93-105.82 171.17l-109.45-50.74-204.14 440.77c-30.72 13.35-59.91 31.66-86.06 55.52-92.33 83.99-122.61 210.38-88.96 322.4L-.03 3111.25l302.64 140.13zm520.38-1373.35c40.22-51.53 83.38-78.99 105.13-77.06 15.56.22 36.52 7.69 65.64 57.41 27.89 48.85 56.18 134.87 78.37 265.68 26.8 155.76 28.11 391.67 35.07 641.9-23.54-2.36-59.55-11.57-119.71-46.82-71.66-42.25-172.01-123.59-293.93-257.81-5.48-6.06-11.31-11.53-17.15-17.01l166.64-359.83-114.78-53.17c26.76-53.64 59.77-109.96 94.73-153.3z"/></g></svg>