<svg xmlns="http://www.w3.org/2000/svg" xml:space="preserve" viewBox="0 0 185.65 142.86" shape-rendering="geometricPrecision" text-rendering="geometricPrecision" image-rendering="optimizeQuality" fill-rule="evenodd" clip-rule="evenodd"><g fill="currentColor"><path d="M163.27 88.55h-14.44c-.54-1.76-1.23-3.52-2.08-5.2-3.55-7.04-8.73-10.73-14.56-10.44-3.33.18-8.17-.29-13.41-1v1.75c5.24.71 10.09 1.16 13.5.98 6.91-.38 11.06 5.78 12.92 9.48 3.51 6.98 4 15.09 2.07 17.42-.5.61-1.13.78-1.99.53-4.3-1.23-8.38-1.49-12.32-1.75-5.06-.32-9.86-.64-14.18-3.1v14.72h44.48c1.28 0 2.31-1.04 2.31-2.31V90.85c0-1.28-1.04-2.31-2.31-2.31zM9.05 124.75c-.82 0-1.61.12-2.36.32V73.1c0-1.28-1.04-2.31-2.31-2.31H3.22c-1.28 0-2.31 1.03-2.31 2.31v56.75a8.981 8.981 0 0 0-.91 3.94c0 5 4.05 9.05 9.05 9.05 5 0 9.05-4.05 9.05-9.05 0-5-4.05-9.05-9.05-9.05zm0 13.38c-2.39 0-4.33-1.94-4.33-4.33s1.94-4.33 4.33-4.33 4.33 1.94 4.33 4.33-1.94 4.33-4.33 4.33zM176.6 124.75c-.41 0-.81.04-1.21.09v-39.6c0-1.28-1.04-2.31-2.31-2.31h-1.16c-1.28 0-2.31 1.04-2.31 2.31v42.8a9.015 9.015 0 0 0-2.07 5.76c0 5 4.05 9.05 9.05 9.05 5 0 9.05-4.05 9.05-9.05 0-5-4.05-9.05-9.05-9.05zm0 13.38c-2.39 0-4.33-1.94-4.33-4.33s1.94-4.33 4.33-4.33 4.33 1.94 4.33 4.33-1.94 4.33-4.33 4.33zM36.29 81.25c-.23.01-.45.02-.68.02-4.37 0-8.27-2.1-10.72-5.37H17.1c-1.59 0-2.89 1.3-2.89 2.89v4.62c0 1.59 1.3 2.89 2.89 2.89h28.31c1.59 0 2.89-1.3 2.89-2.89v-4.62c0-1.3-.88-2.4-2.07-2.76-2.31 3-5.88 5.01-9.95 5.22z"/><path d="M35.02 55.79c-6.66.33-11.8 6-11.46 12.67.33 6.66 6 11.8 12.67 11.46 6.66-.33 11.8-6 11.46-12.67-.33-6.66-6.01-11.8-12.67-11.46z"/><path d="M117.45 16.08h5.46a10.98 10.98 0 0 0 .11 3.85h-.81c-1.28 0-2.31 1.04-2.31 2.31v18.49c0 1.28 1.03 2.31 2.31 2.31h2.07V44h-.43c-.66 0-1.2.54-1.2 1.2 0 .66.54 1.2 1.2 1.2h3.66c.66 0 1.2-.54 1.2-1.2 0-.66-.54-1.2-1.2-1.2h-.43v-.96h2.07c1.28 0 2.31-1.03 2.31-2.31V22.24c0-1.28-1.04-2.31-2.31-2.31h-.81a10.907 10.907 0 0 0 .09-3.98c3.06-.59 5.38-3.29 5.38-6.52a.87.87 0 0 0-1.74 0c0 2.42-1.77 4.44-4.08 4.84-.48-1.26-1.26-2.14-2.32-2.14-1.08 0-1.87.92-2.35 2.22h-5.89V2.02a2.02 2.02 0 0 0-4.04 0v12.33h-5.89c-.48-1.3-1.26-2.22-2.35-2.22-1.06 0-1.84.88-2.32 2.14-2.31-.4-4.08-2.41-4.08-4.84a.87.87 0 0 0-1.74 0c0 3.23 2.32 5.93 5.38 6.52a10.98 10.98 0 0 0 .09 3.98h-.81c-1.28 0-2.31 1.04-2.31 2.31v18.49c0 1.28 1.03 2.31 2.31 2.31h2.07V44h-.43c-.66 0-1.2.54-1.2 1.2 0 .66.54 1.2 1.2 1.2h1.26c0 3.27-.07 12.79-.87 23.08-3.43-.66-6.77-1.4-9.81-2.08-6.43-1.43-11.52-2.56-14.61-2.35-3.09.21-7.09.38-10.96.55-10.97.48-14.04.68-14.77 1.2-.53.38-1.13 1.22-1.18 4.33-1.54.96-2.67 2.4-2.96 4.25-.55 3.47.91 8.07 4.92 11.04.15.71.32 1.42.49 2.12H11.31c-1.28 0-2.31 1.03-2.31 2.31v18.78c0 1.28 1.04 2.31 2.31 2.31h100.74v-16.9c-.78-.06-1.61-.08-2.48-.08-2.7 0-5.84.25-9.2.66 2.29-6.25 3.61-15.38 4.37-24.17.83.15 1.66.3 2.49.44 1.59.26 3.21.53 4.83.78v-1.75c-1.53-.24-3.05-.49-4.55-.74-.88-.15-1.75-.3-2.63-.46.81-10.38.87-19.96.86-23.3h1.24c.66 0 1.2-.54 1.2-1.2 0-.66-.54-1.2-1.2-1.2h-.43v-.96h2.07c1.28 0 2.31-1.03 2.31-2.31V22.26c0-1.28-1.03-2.31-2.31-2.31h-.81a10.907 10.907 0 0 0 .11-3.85h5.46v112.41c-.46.02-.9.05-1.33.09-9.21.79-11.8 4.68-12.09 5.16l-.24.41v2.21a3.423 3.423 0 0 0-1.91 3.07c0 1.89 1.53 3.42 3.42 3.42a3.418 3.418 0 0 0 1.95-6.23v-1.39c.71-.72 3.1-2.61 8.86-3.17.42-.04.87-.07 1.33-.1v4.6c-.5.33-.91.78-1.19 1.32a3.418 3.418 0 0 0 3.05 4.96 3.418 3.418 0 0 0 3.22-4.57 3.42 3.42 0 0 0-1.04-1.49v-4.83c.46.02.91.06 1.33.09 5.86.54 8.28 2.46 8.99 3.18v1.31c-.96.61-1.59 1.67-1.59 2.89 0 1.89 1.53 3.42 3.42 3.42s3.42-1.53 3.42-3.42c0-1.3-.72-2.43-1.79-3.01v-2.27l-.24-.41c-.29-.49-2.9-4.41-12.21-5.18-.43-.04-.87-.06-1.33-.08V16.08zm12.86 8.56v16.09c0 .64-.52 1.16-1.16 1.16h-6.93c-.64 0-1.16-.52-1.16-1.16V24.64s.86.52 4.04.57v1.56h-1.44v.67h1.44v1.83h-1.44v.67h1.44v1.83h-1.44v.67h1.44v1.83h-1.44v.67h1.44v1.83h-1.44v.67h1.44v1.68h1.16v-1.68h1.44v-.67h-1.44v-1.83h1.44v-.67h-1.44v-1.83h1.44v-.67h-1.44v-1.83h1.44v-.67h-1.44v-1.83h1.44v-.67h-1.44v-1.56c3.18-.06 4.05-.57 4.05-.57zm-5.5-4.7c-.16-.59-.28-1.34-.28-2.24 0-.61.05-1.14.14-1.61h2.04c.08.47.14 1.01.14 1.61 0 .9-.12 1.65-.28 2.24h-1.76zm.88-6.07c.1 0 .27.17.44.48h-.89c.18-.31.34-.48.44-.48zm-32.22 90.42c-.2.03-.4.04-.6.04-2.01 0-4.17-1.4-6.57-4.25l.88-.74c2.33 2.77 4.39 4.05 6.12 3.81 1.86-.26 3.54-2.21 5.29-6.14l1.06.47c-1.93 4.32-3.89 6.49-6.19 6.81zm5.63-8.5c-5.55.71-11.64 1.79-17.42 2.81-8.67 1.54-18.48 3.28-19.9 2.26-3.09-2.22-6.78-16.69-7.52-26.53-.36-4.75.2-5.89.33-6.08 1.15-.35 8.18-.66 13.85-.9 3.88-.17 7.89-.34 11-.55 2.85-.19 8.07.97 14.12 2.32 3.11.69 6.53 1.45 10.05 2.12-.77 9.04-2.12 18.44-4.49 24.55zm6.08-81.92c.1 0 .27.17.44.48h-.89c.18-.31.35-.48.44-.48zm4.62 15.99v10.88c0 .64-.52 1.16-1.16 1.16h-6.93c-.64 0-1.16-.52-1.16-1.16V29.86s.86.52 4.05.57v1.35h-1.44v.67h1.44v1.83h-1.44v.67h1.44v1.83h-1.44v.67h1.44v1.68h1.16v-1.68h1.44v-.67h-1.44v-1.83h1.44v-.67h-1.44v-1.83h1.44v-.67h-1.44v-1.35c3.18-.06 4.05-.57 4.05-.57zm-3.47-12.16c0 .9-.12 1.65-.28 2.24h-1.76c-.16-.59-.28-1.34-.28-2.24 0-.61.05-1.14.14-1.61h2.04c.08.47.14 1.01.14 1.61z"/></g></svg>