<svg xmlns="http://www.w3.org/2000/svg" xml:space="preserve" viewBox="0 0 462.92 374.79" shape-rendering="geometricPrecision" text-rendering="geometricPrecision" image-rendering="optimizeQuality" fill-rule="evenodd" clip-rule="evenodd"><g fill="currentColor"><path d="m397.26 226.16 65.66-9.72-54.35-36.14 52.37-56.8-61.8-4.15 9.4-66.05-60.92 37.78-17.47-71.63-43.38 60.31-58.41-33.29 21 72.08-62.71-.37a67.368 67.368 0 0 1-4.66 5.51l55.51 48.25-32.12 31.45 4.17 8.23a14.39 14.39 0 0 1 2.41 6.95c.58 2.32.73 4.71.52 7.08l46.77-4.28-14.65 76.08 71.23-43.57 16.72 58.96 25.72-60.35 55.96 38.36-16.97-64.71zm-21.52 5.64 1.82 6.97-6.72-4.61-22.4-15.35-10.64 24.98-1.03 2.42-7.54-26.59-25.01 15.3-28.25 17.28 5.13-26.61 5.59-29.06-29.47 2.69-17.42 1.6 13.26-12.99 17.23-16.87-18.19-15.82-16.61-14.44 13.75.08 29.84.18-8.35-28.65L265.1 93l10.67 6.08 17.39 9.91 11.69-16.25 15.16-21.08 6.02 24.68 7.27 29.8 26.07-16.17 20.46-12.69-2.69 18.92-3.38 23.72 23.91 1.61 15.42 1.03-20.87 22.63-17.67 19.17 21.71 14.43 6.15 4.09-8.39 1.24-24.56 3.64 6.3 24.01zM12.72 85.24c-.68.6-.93 1.54-.63 2.4.3.86 1.08 1.44 1.99 1.49l21.63 1.14h.12c1.17 0 2.15-.92 2.22-2.1.06-1.23-.88-2.28-2.1-2.34l-16.18-.85 12.39-10.89c.51-.45.79-1.12.75-1.8-.04-.68-.4-1.31-.96-1.7L8.86 54.65l22-1.2a2.23 2.23 0 0 0 1.82-1.12c.37-.66.39-1.46.04-2.13L20.97 27.71l21.51 8.9c.67.28 1.44.21 2.05-.18.61-.39 1-1.06 1.02-1.79L46.5 9.1l14.79 21.86c.42.62 1.14.99 1.89.98.75-.02 1.45-.41 1.85-1.05l10.6-17.07 2.8 16.95c.2 1.21 1.35 2.03 2.56 1.83 1.21-.2 2.03-1.34 1.83-2.56L79.05 7.26c-.15-.92-.85-1.64-1.76-1.82a2.21 2.21 0 0 0-2.32 1.01L63.06 25.63 46.38.98a2.232 2.232 0 0 0-2.46-.89c-.92.26-1.58 1.1-1.61 2.06l-1.08 29.14-24.22-10.02c-.86-.36-1.86-.14-2.49.55-.63.69-.77 1.7-.33 2.53L27.16 49.2 2.1 50.56c-.95.05-1.76.7-2.02 1.62-.26.92.09 1.89.88 2.44l26.1 18.02-14.35 12.61zM89.04 63.71c-17.12 6.82-25.47 26.21-18.66 43.34 6.81 17.12 26.21 25.47 43.33 18.66 17.12-6.81 25.48-26.21 18.66-43.33-6.81-17.12-26.21-25.47-43.33-18.66z"/><path d="m206.99 213.15-40.54-80.01c2.76-1.92 5.9-4.33 9.12-7.25 4.59-4.21 9.35-9.5 13.11-16.11 3.75-6.59 6.45-14.66 6.44-23.69.04-11.48-4.42-23.85-13.95-35.97-9.55-12.19-24.08-24.55-45.45-37.57-5.6-3.41-12.9-1.63-16.3 3.97-3.41 5.6-1.63 12.9 3.97 16.3 19.74 11.99 32.05 22.87 39.08 31.9 7.05 9.09 8.88 15.91 8.92 21.36-.01 4.32-1.23 8.19-3.36 11.99-3.17 5.66-8.61 10.81-13.31 14.28a68.387 68.387 0 0 1-5.96 3.96c-.69.4-1.22.69-1.59.9-.9.33-1.78.77-2.61 1.34l-47.05 32.71c-.78.55-1.47 1.18-2.07 1.87-2.11 1.74-7.59 6.1-13.92 10.09-3.64 2.31-7.57 4.47-11.08 5.94-3.49 1.5-6.58 2.15-7.95 2.1-.24 0-.44-.01-.57-.03-.14-.25-.35-.74-.58-1.57-.35-1.31-.65-3.43-.65-6.38 0-4.17.6-9.95 2.13-17.33 1.32-6.42-2.81-12.69-9.23-14.01-6.42-1.32-12.69 2.81-14.01 9.23-1.75 8.52-2.61 15.75-2.61 22.11.04 8.87 1.59 16.52 6.41 22.8 2.38 3.08 5.62 5.52 9.02 6.95 3.41 1.45 6.88 1.96 10.09 1.96 6.72-.06 12.61-2.01 18.17-4.4 8.14-3.61 15.76-8.55 21.44-12.66l39.96 57.47a138.6 138.6 0 0 0-18.48 15.04c-6.64 6.48-13.5 14.54-18.93 24.5-5.41 9.91-9.35 21.94-9.34 35.35-.08 18.81 7.95 39.06 25.07 58.24 3.66 4.14 8.76 6.25 13.89 6.25 4.37 0 8.75-1.54 12.28-4.66 7.67-6.79 8.38-18.5 1.59-26.17-12.66-14.46-15.67-25.13-15.75-33.66.01-6.18 1.74-11.93 4.83-17.64 4.58-8.52 12.43-16.42 19.21-21.81 3.38-2.71 6.44-4.81 8.58-6.17 1.07-.69 1.9-1.19 2.43-1.5.26-.16.45-.26.55-.32.02-.01.04-.02.05-.03.02-.01.03-.01.03-.01.67-.36 1.29-.77 1.89-1.2 1.14 16.11 5.21 35.23 16.13 53.79 13.28 22.78 37.36 43.56 74.33 54.51 1.78.53 3.57.79 5.34.79 7.97 0 15.34-5.18 17.75-13.2 2.95-9.81-2.61-20.14-12.42-23.09-29.4-8.99-44.14-22.99-53.08-37.86-8.84-14.89-11.37-31.8-11.35-45.34 0-6.92.65-12.87 1.27-16.95.31-2.04.62-3.62.83-4.61.1-.5.18-.85.24-1.05.02-.1.04-.16.04-.18.82-3.19.76-6.4-.03-9.37-.11-2.05-.76-4.1-2.02-5.91z"/></g></svg>