<svg xmlns="http://www.w3.org/2000/svg" xml:space="preserve" viewBox="0 0 452.04 410.25" shape-rendering="geometricPrecision" text-rendering="geometricPrecision" image-rendering="optimizeQuality" fill-rule="evenodd" clip-rule="evenodd"><g fill="currentColor"><path d="M312.67 173.72c-8.23 0-15.54-3.66-20.16-9.28-1.29 3.1-2.15 6.69-2.06 10.73v.11c.08 13.99-.84 70.9 6.68 71.11 4.49.13 7.36-20.68 9.06-39.41.71 13.77 2.41 40.51 8.71 39.76 4.42-.52 6.55-14.42 7.6-26.88 6.48 5.29 12.55 9.67 16.65 12.51 6.65-.8 14.14-.57 12.85-1.67-2.82-2.4-21.32-13.5-13.34-25.99 2.68-4.19 6.28-4.37 9.9-2.78-2.16.28-4.04 1.31-5.43 3.44-7.98 12.29 10.54 23.28 13.36 25.65 1.81 1.51-13.79 2.07-20.04 4.79-3.5 1.52-4.16 5.18-3.32 7.05 1.23 2.72 13.22 4.11 24.56 4.27 10.38.15 20.21-.74 20.74-2.6.19-.69.23-2.01.16-3.7 1.37.14 2.86.23 4.5.24h.37c11.32 0 28.68-4.73 42.87-24.91a4.854 4.854 0 0 0-1.15-6.77 4.854 4.854 0 0 0-6.77 1.15c-12.75 17.82-26.34 20.71-35.32 20.81-1.04 0-2-.05-2.9-.13 7.42-51.36-28.78-64.23-37.53-69-.68-3.91-2.55-6.81-4.87-9.02-1.53 11.54-12.2 20.51-25.12 20.51z"/><path d="M291.23 150.36c0 10.75 9.6 19.47 21.44 19.47 11.84 0 21.44-8.72 21.44-19.47 0-2.39-.5-4.67-1.37-6.79.47-1.83.97-3.68 1.45-5.46a799.37 799.37 0 0 1 3.12-11.16l-9.89 4.47-4.31 1.95a23.069 23.069 0 0 0-10.45-2.48c-3.8 0-7.36.9-10.45 2.48l-4.31-1.95-9.88-4.47s1.49 5.13 3.12 11.16c.48 1.78.98 3.63 1.45 5.46-.87 2.12-1.37 4.4-1.37 6.79zm12.69 1.16a3.72 3.72 0 1 1 0-7.44 3.72 3.72 0 1 1 0 7.44zm17.48 0a3.72 3.72 0 1 1 0-7.44 3.72 3.72 0 1 1 0 7.44zM46.63 302.2c0-.93.78-1.68 1.72-1.68h145.12c-.56-5.41-1.74-10.11-3.59-14.19-1.86-4.05-4.11-7.07-7.28-9.77-3.64-3.16-7.95-4.75-10.09-5.39-1.18.02-2.34.04-3.48.04h-.29c-13.73 0-26.14-1.91-36.9-5.67l-.25-.09c-6.29-2.23-11.91-5.08-16.89-8.44H48.35c-26.71.01-48.33 21.26-48.34 47.5v98.37h46.63V302.2zM249.98 300.52H403.7c.94 0 1.71.76 1.71 1.69v100.68h46.63v-98.37c-.02-26.24-21.64-47.49-48.34-47.5H238.16c.63 1.14 1.24 2.3 1.81 3.47 5.82 11.75 9.17 25.19 10.02 40.03zM185.4 90.08c24.55-5.71 39.82-30.25 34.1-54.8-5.72-24.55-30.26-39.81-54.81-34.1-24.54 5.71-39.81 30.25-34.1 54.8 5.72 24.55 30.25 39.81 54.8 34.1z"/><path d="M106.26 244.77c2.49 2.71 5.37 5.34 8.71 7.76 5.12 3.74 11.05 6.84 17.79 9.23.11.04.23.08.34.12 10.07 3.52 21.93 5.45 35.61 5.45h.29c1.3 0 2.64-.02 3.99-.06 2.47.69 7.72 2.53 12.1 6.33 3.04 2.58 5.9 5.9 8.31 11.12 2.37 5.23 4.33 12.58 4.34 23.56.03 15.31-4.07 37.72-16.68 68.46-5.09 12.41.86 26.59 13.27 31.68 3.01 1.23 6.13 1.82 9.2 1.82 9.57 0 18.63-5.69 22.49-15.09 14.26-34.87 20.28-63.11 20.31-86.87.03-18.06-3.63-33.54-9.85-46.09a79.11 79.11 0 0 0-4.28-7.61c-1.11.14-2.23.23-3.37.23-1.4 0-2.82-.11-4.2-.32l-112.68-16.84c-7.44-1.12-14.01-5.05-18.48-11.1-4.48-6.05-6.33-13.48-5.22-20.92 1.78-11.93 11.1-21.3 22.62-23.51 0-.35-.02-.72-.02-1.07.11-15.77 3.5-26.11 7.77-33.34a43.83 43.83 0 0 1 3.89-5.57v40.12l105.09 15.71v-55.83c1.33 1.63 2.64 3.47 3.89 5.58 4.27 7.23 7.68 17.56 7.77 33.33 0 5.59-.48 11.88-1.55 18.88 12.73 4.24 21.01 17.14 18.96 30.86-.78 5.23-3.02 9.97-6.25 13.83 5.23-1.25 9.68-5.13 11.32-10.66 6.02-20.3 8.6-37.77 8.6-52.92.17-31.29-11.63-52.65-24.21-64.68-6.72-6.51-13.34-10.49-18.3-12.87-4.28-2.05-7.32-2.91-8.06-3.13-1.52-.4-3.04-.56-4.53-.51-.86-.16-1.75-.25-2.65-.25h-75.07c-.91 0-1.79.1-2.65.25-1.49-.05-3.01.11-4.52.51-.74.21-3.79 1.07-8.07 3.12-4.95 2.37-11.58 6.35-18.3 12.86-12.59 12.03-24.38 33.39-24.22 64.69 0 15.15 2.58 32.62 8.61 52.92 1.8 6.07 7 10.19 12.9 10.96.66.09 1.33.16 2 .16.99 0 1.99-.13 2.99-.33z"/><path d="M252.83 230.23c1.98-13.27-7.17-25.62-20.44-27.61L119.7 185.78c-13.27-1.99-25.63 7.16-27.61 20.43-1.98 13.26 7.16 25.63 20.43 27.61l112.69 16.84c1.21.18 2.42.27 3.62.27 11.83 0 22.19-8.65 24-20.7z"/></g></svg>