<svg xmlns="http://www.w3.org/2000/svg" xml:space="preserve" viewBox="0 0 2440.66 1280.75" shape-rendering="geometricPrecision" text-rendering="geometricPrecision" image-rendering="optimizeQuality" fill-rule="evenodd" clip-rule="evenodd"><g fill="currentColor"><path d="M384.86 549.32c-.04 1.38-.17 2.73-.31 4.08l21.79 30.23 46.19-196.78h355.7c25.97 0 47.05-21.07 47.05-47.04s-21.08-47.03-47.05-47.03H410.78c-1.17 0-2.33.09-3.48.17-1-.06-1.99-.17-3-.17H196.78l143.44 199.09c26.1 5.96 45.32 29.67 44.64 57.45zM426.2 1155.53c-32.07 30.03-60.05 60.24-62.66 70.68 10.1 15.53 18.79 19.13 18.9 19.16 4.15 1.38 26.26 9.48 26.26 24.15 0 3.58-1.44 6.71-3.87 9.39 5.08 1.17 10.31 1.84 15.67 1.84 3.94 0 7.94-.33 11.97-1.02 21.81-3.73 39.53-17.1 49.6-34.98l-48-55.79c-8.14-9.46-10.93-22.66-7.86-33.43zM368.09 963.31c4.81-7.85 9.35-15.26 13.6-21.65 8.92-13.38 29.48-28.08 57.45-41.73l-40.02-234.21c7.25 8.14 14.76 16.34 22.58 24.54 58.72 61.51 133.82 123.53 221.83 159.47 18.61-1.3 35.95-2.65 52.08-4.07-102.87-29.26-191.42-99.14-258.77-169.83-14.86-15.58-28.57-31.14-41.28-46.29l1.28-5.45-27.09-37.6c-10.57 11.57-25.68 18.91-42.34 18.91l-1.47-.02c-83.56-2.09-149.36-10.84-201.09-26.73l13.74 58.54c-.75 2.57-1.39 5.19-1.85 7.89l-94.53 553.21c-6.56 38.42 19.26 74.87 57.66 81.44 4.02.69 8.02 1.02 11.97 1.02 33.75 0 63.58-24.29 69.45-58.69L262.48 747h7.37l48.55 284.17c19.33-18.29 35.76-45.1 49.69-67.86z"/><path d="m350.95 1096.11 2.09-9.02c-4.99 2.89-12.93 6.91-23.3 10.44l6.37 37.28 1.67-3.19c4.8-9.19 10.84-25.45 13.17-35.51zM381.34 76.23H151.66v49.19c-14.7 63.23 24.63 126.42 87.85 141.14 63.24 14.73 126.44-24.6 141.16-87.84 4.13-17.71 4.01-35.42.31-52.07h52.76l-52.41-50.42zM379.98 65.77 419.82 0 151.66 27.25v38.52z"/><path d="M914.48 803.35c-22.24 11.24-41.51 18.83-52.8 23.68-36.67 15.7-108.74 25.9-229.08 33.93-115.95 7.74-221.28 55.09-242.22 86.51-20.95 31.41-49.79 89.99-89.91 109.23-30.22 14.51-113.77 18.49-52.95 33.7 62.84 15.71 105.45-15.63 105.45-15.63 9.06-6.65 14.39-3.14 11.85 7.8l-3.68 15.89c-2.54 10.95-8.88 28.06-14.1 38l-64.35 122.81c-5.23 9.95-.3 18.1 10.94 18.1h84.17c11.24 0 20.43-3.53 20.43-7.85 0-4.33-8.72-10.76-19.39-14.32 0 0-12.03-4-25.13-24.96-10.95-17.53 94.48-108.56 94.48-108.56 8.5-7.34-3.73 23.87-9.35 31.37-5.61 7.49-4.2 20.59 3.13 29.11l68.61 79.73c7.33 8.52 22.52 15.49 33.76 15.49h31.23c11.23 0 17.93-4.36 14.89-9.71-3.03-5.34-10.56-13.45-16.72-18.02-6.17-4.57-17.84-14.68-25.96-22.47l-34.88-33.49c-8.12-7.77-14.74-14.14 59.92-114.56 9.39-12.62 11.43-16.26 11.43-16.26 5.5-9.81 18.94-15.74 29.88-13.18l149.62 40.85c11.23-.62 28.45 3.3 38.3 8.72l5.06 2.78c9.84 5.42 21.37 18.37 25.61 28.77l52 127.65c4.23 10.41 16.9 18.92 28.13 18.92h45.59c11.24 0 13.66-6.24 5.41-13.85l-29.57-27.28c-8.26-7.62-19.65-21.79-25.32-31.49 0 0-44.68-76.61 10.3-144.69 30.53-37.8 71.54-87.67 102-124.59-30.4-24.95-83.4-74.26-106.79-132.11zM1201.52 807.87l-49.21-24.19c-10.09-4.97-24.56-15.78-32.16-24.06l-32.56-35.39c-7.61-8.26-13.03-24.19-12.07-35.39 0 0 11.33-131.5-22.71-26.77-21.41 65.86-76.98 107.9-124.41 133.95 21.04 53.71 73.05 102.94 102.85 127.37 19.09-23.11 32.07-38.75 32.07-38.75 7.19-8.65 21.87-13.11 32.64-9.92l42.23 18.06c10.77 3.19 27.7-.52 30.58-5.56 2.88-5.04-18.72-21.02-27.87-27.55l-3.4-2.44c-9.14-6.53-7.43-11.53 3.78-11.1l37.21 1.41c11.22.43 25.12-6.29 30.88-14.94 5.77-8.64 2.22-19.76-7.86-24.73zm-115.97-19.24c-8.07 0-14.6-6.54-14.6-14.6 0-8.06 6.54-14.59 14.6-14.59 8.06 0 14.6 6.53 14.6 14.59 0 8.06-6.54 14.6-14.6 14.6zM0 435.1c-.17 21.83 6.72 45.86 21.37 66.14 22.14 30.72 57.43 52.13 106.03 67.27 48.91 15.1 112.88 24.27 198.83 26.42.39 0 .78.01 1.17.01 25.44 0 46.37-20.31 47-45.88.63-25.97-19.91-47.54-45.87-48.18-106.95-2.39-171.6-17.85-203.52-34.01-16.08-7.98-23.64-15.44-27.02-20.21-3.31-4.92-3.77-7.34-3.92-11.56-.03-3.85 1.11-9.42 4.06-15.83 4.14-9.33 12.27-19.82 19.6-26.55l11.93 3.58c-1.09.81-2.62 2.03-4.31 3.6-7.08 6.34-14.3 16.01-17.67 23.62-2.36 5.15-3.16 9.29-3.15 11.48.1 2.33.11 2.81 2.14 5.84 1.63 2.28 7.44 8.95 23 16.66 16.31 8.27 64 26.78 170.13 31.9L158.13 292.77h-30.07c-2.72 0-5.38.31-8 .75-1.23-.1-2.46-.19-3.71-.19-12.25.19-19.92 3.11-26.83 5.95-11.79 5.22-21.15 11.86-30.7 19.94-13.52 11.67-26.6 26.43-37.52 44.54-.43.71-.88 1.4-1.31 2.12C8.98 384.92.12 408.1.02 435.08zM2174.06 385.15c63.24 14.73 126.43-24.6 141.16-87.84 14.73-63.24-24.6-126.45-87.84-141.16-63.24-14.73-126.45 24.6-141.17 87.84-14.72 63.24 24.61 126.45 87.85 141.16zM2434.54 1052.46v-.02l-117.19-251.39c-8.96-19.2-26.81-32.95-47.66-36.7l-165.78-29.8c-.91-35.24 2.5-71.64 7.71-106.76-8.92-3.97-16.53-8.38-22.69-12.52-18.66-12.44-34.87-28.53-49.5-49.2-19.22-27.36-29.21-53.12-33.44-66.03l-.19-.59c-4.24-13.7-2.91-27.84 3.63-40.19 6.53-12.34 17.48-21.39 30.83-25.5 5-1.55 10.18-2.33 15.37-2.33 23.07 0 43.14 14.83 49.94 36.89l.28.82c.46 1.27 1.03 2.84 1.81 4.78 1.33 3.33 4.18 10.05 8.37 17.71 4.75 8.84 10.54 17.05 16.53 23.8.67-3.34 1.34-6.69 1.97-9.91 15-52.02-4.63-114.28-49.23-125.39-6.48-1.62-13.39-2.46-20.54-2.53-.03-.01-.07-.01-.1-.02l-.01-.01c-.95-.08-9.76-.75-24.32-.76-31.3.04-89.26 3.02-153.71 22.78-64.23 19.71-136.04 56.96-189.51 126.61-14.06 18.32-10.61 44.56 7.72 58.63 7.59 5.82 16.54 8.65 25.42 8.65 12.56 0 24.98-5.63 33.22-16.36 39.79-51.92 94.51-81.19 147.74-97.58 13.11-4.05 26.05-7.25 38.51-9.8 0 .01-.01.03-.01.04-35.56 105.44-43.21 174.07-29.69 290.17 7.9 40.63 25.43 63.62 46.84 76.5.32 5.2.53 10.88.53 17.03-.03 35.78-6.65 85.74-34.79 139.29-28.32 53.52-78.03 112.23-171.89 165.86-31.37 17.85-42.32 57.73-24.47 89.09 12.04 21.16 34.11 33.03 56.84 33.03 10.95 0 22.05-2.76 32.25-8.56 112.98-64.09 183.11-142.52 222.93-218.64 36.81-70.04 48.06-136.75 49.58-187.35l115.43 20.75 102.87 220.7c15.25 32.7 54.11 46.86 86.81 31.62 32.71-15.24 46.86-54.11 31.62-86.81z"/><path d="M2097.94 477.82c-.94-2.35-1.6-4.18-2-5.31-.18-.53-.31-.9-.37-1.1-6.8-22.07-30.19-34.45-52.26-27.65-22.08 6.8-34.46 30.19-27.66 52.26.86 2.45 9.72 31.86 32.3 64.02 11.37 16.04 26.38 32.96 46.8 46.57 20.18 13.54 46.43 23.3 75.95 23.3h.4c47.66-.16 98.21-23.44 153.09-73.48 17.06-15.55 18.29-42 2.74-59.06-15.55-17.07-42-18.29-59.07-2.74-46.22 42.09-78.14 51.8-96.76 51.65-11.99-.1-20.89-3.35-30.09-9.32-13.61-8.81-26.18-25.42-34.17-40.29-4.03-7.37-7.03-14.14-8.9-18.84zM1778.38 336.42h-574.91v27.88h574.91zM1273.15 437.47h268.29v-27.88h-268.29zM1426.46 291.12h268.29v-27.87h-268.29z"/></g></svg>