<svg xmlns="http://www.w3.org/2000/svg" xml:space="preserve" viewBox="0 0 265.82 236.85" shape-rendering="geometricPrecision" text-rendering="geometricPrecision" image-rendering="optimizeQuality" fill-rule="evenodd" clip-rule="evenodd"><g fill="currentColor"><path d="M205.81 75.49c1.15 5.85.7 11.93-1.37 17.68-.96 2.66-2.26 5.13-3.8 7.42l49.73-17.99-8.8-20.05-35.76 12.94zM251.18 59.07l-5.75 2.08 8.8 20.05 4.38-1.59c5.67-2.05 8.61-8.31 6.56-13.99-2.05-5.67-8.32-8.61-13.99-6.56zM142.71 96.13c-.51-1.09-.96-2.2-1.35-3.32-7.35-3.95-17.31-5.31-28.75-1.28-27.37 9.81-42.67 19.37-64.27 40.96-14.59 16.99-7.01 30.21.88 39.93 1.21 1.5 2.35 2.84 3.45 4.01l17.23 26.29H17.06c-9.43 0-17.07 7.64-17.07 17.07s7.64 17.07 17.07 17.07h84.43c6.26 0 12.04-3.45 15.02-8.96a17.088 17.088 0 0 0-.74-17.47l-30.24-46.15c10.91-8.66 23.77-15.78 35.36-21.77l-5.06-24a13.57 13.57 0 0 1 1.92-10.27c1.99-3.05 5.06-5.15 8.63-5.9.93-.2 1.89-.3 2.83-.3 6.41 0 12.02 4.56 13.34 10.84l3.25 15.42c3.22-3.08 5.73-6.7 7.16-10.45l10.69-3.87c-9.07-2.65-16.81-9.09-20.94-17.85z"/><path d="M200.74 68.77c-7.23-15.35-25.54-21.92-40.88-14.69-15.34 7.24-21.92 25.54-14.68 40.89 7.23 15.34 25.54 21.92 40.88 14.68 15.35-7.23 21.92-25.54 14.68-40.88zM141.56 227.27c1.08 5.14 5.62 8.67 10.68 8.67.75 0 1.51-.08 2.27-.24 5.9-1.24 9.68-7.04 8.43-12.94l-2.39-11.33-20.86 6.96 1.87 8.88zM139.88 113.44c-1.24-5.9-7.04-9.68-12.94-8.43-5.91 1.24-9.68 7.04-8.43 12.94l20.34 96.4 20.86-6.95-19.82-93.96zM173.02 18.56c-.7-.45-1.6-.44-2.29.04l-10.83 7.55-7.91-20.85a2.045 2.045 0 0 0-3.87.13l-5.07 16.65-14.64-12.91c-.64-.57-1.58-.67-2.34-.26-.75.41-1.17 1.26-1.05 2.11l2.74 18.05-19.97-4.14c-.87-.18-1.75.22-2.19.99-.44.77-.34 1.73.26 2.39l13.92 15.42-14.83 4.82c-.81.26-1.37 1-1.41 1.86-.04.85.45 1.64 1.24 1.97l12.21 5.24-13.78 11.27c-.69.56-.94 1.5-.61 2.34.31.79 1.07 1.3 1.91 1.3h.13l18.98-1.22a2.04 2.04 0 0 0 1.91-2.17 2.04 2.04 0 0 0-2.17-1.91l-12.62.81 11.45-9.37a2.05 2.05 0 0 0-.49-3.47l-10.3-4.42 12.65-4.11a2.05 2.05 0 0 0 1.35-1.42c.18-.67.01-1.39-.46-1.9L113.1 30.24l16.72 3.46c.66.14 1.34-.06 1.82-.52.49-.46.72-1.13.62-1.79L129.93 16l12.8 11.29c.52.46 1.24.63 1.91.44.67-.19 1.2-.71 1.4-1.37l4.25-13.96L157 30.1c.22.59.71 1.04 1.31 1.23.6.19 1.26.08 1.78-.28l8.86-6.17-1.98 10.41c-.21 1.11.52 2.18 1.63 2.39 1.11.21 2.19-.52 2.4-1.63l2.93-15.35c.15-.82-.2-1.65-.9-2.1zM199.27 27.09c.89-.81 1.54-1.86 1.98-3.15.56-1.71 1.66-3.89 3.3-6.53 1.57-2.55 3.22-5.35 4.96-8.42 1.74-3.06 2.69-4.85 2.84-5.36.2-.64.04-1.34-.47-2.08-.5-.74-1.12-1.22-1.85-1.45-.68-.2-1.61-.1-2.79.3s-2.07 1.24-2.66 2.51c-.59 1.27-.93 2.01-.99 2.21-.62 2.03-1.99 4.96-4.12 8.77-1.95 3.53-3.32 7.13-4.11 10.79.78 1.06 2.09 1.86 3.92 2.42zM191.54 38.56c.68.2 1.63.14 2.85-.2 1.23-.34 2.1-1.09 2.64-2.25l.79-1.62c.13-.42-.18-1.07-.94-1.96-.75-.89-1.44-1.42-2.06-1.61-.95-.29-2-.01-3.17.84-1.15.85-1.86 1.7-2.12 2.54-.68 2.24-.01 3.66 2.01 4.27zM211.1 39.47c-1.77.56-2.78 1.27-3.04 2.11-.31 1.02-.17 2 .41 2.92.58.92 1.45 1.55 2.6 1.9 1.1.33 2.41.28 3.93-.15 1.52-.42 2.46-1.21 2.8-2.34.44-1.45-.16-2.48-1.79-3.1-.7-.89-1.36-1.43-1.94-1.61-.84-.25-1.56-.26-2.15-.02-.21.1-.48.2-.81.3zM215.57 35.21c1.57.48 2.76.59 3.56.33.8-.26 1.43-.84 1.9-1.73.91-1.68 1.81-3.09 2.69-4.22 5.08-.2 8.47-.43 10.14-.67 1.67-.24 3.32-1.06 4.94-2.46 1.63-1.4 2.85-3.46 3.67-6.19l.01-.03c.71-2.49.97-4.39.77-5.71-.2-1.32-1.1-2.96-2.69-4.9-.96-1.21-2.47-2.08-4.55-2.61-1.07-.28-2.14-.58-3.21-.88-1.53-.42-3.11-.42-4.74 0l.03.01c-1.9.39-3.57 1.05-5.02 1.98-1.45.93-2.32 1.88-2.62 2.85-.49 1.61.11 2.67 1.79 3.19 2.59.79 4.24.4 4.98-1.16.24-.45.78-.82 1.63-1.1.86-.28 2.27-.12 4.26.48.68.2 1.32.52 1.93.94.61.42 1 .81 1.15 1.14.16.34.22 1.08.18 2.23-.04 1.15-.15 2.03-.34 2.65-.26.88-.75 1.7-1.46 2.47-.72.76-1.43 1.19-2.16 1.27l-4.15.33c-2.62.21-4.42.4-5.39.59-.96.19-2.08.55-3.35 1.09-1.8 1.93-2.95 3.23-3.44 3.89-.49.66-.87 1.43-1.13 2.28-.25.81-.33 1.63-.26 2.46.07.83.36 1.32.87 1.48z"/></g></svg>