<svg xmlns="http://www.w3.org/2000/svg" xml:space="preserve" viewBox="0 0 156.09 172.84" shape-rendering="geometricPrecision" text-rendering="geometricPrecision" image-rendering="optimizeQuality" fill-rule="evenodd" clip-rule="evenodd"><g fill="currentColor"><path d="M140.42 1.37c-12.26-4.36-25.73 2.04-30.09 14.29-3.93 11.05.88 23.08 10.85 28.54 1.32-3.15 2.69-6.68 4.09-10.63a8.375 8.375 0 0 1 10.71-5.07 8.37 8.37 0 0 1 5.06 10.71c-.9 2.53-1.8 4.91-2.68 7.17 7.33-1.88 13.62-7.26 16.35-14.93 4.36-12.26-2.04-25.73-14.3-30.09zM117.42 92.46c-1.01-5.47-5.77-9.45-11.33-9.45H70.33c5.27-7.43 11.45-14.19 18.41-20.09-.48-1.18-.92-2.37-1.34-3.54-3.23-9.18-4.68-17.83-4.74-18.09-.78-4.56 2.28-8.89 6.84-9.67 4.56-.78 8.89 2.28 9.67 6.84 0 0 .02.14.09.51.07.37.18.93.32 1.63.29 1.4.73 3.4 1.32 5.66.34 1.31.73 2.71 1.17 4.14 4.33-6.66 5.88-14.94 2.77-22.39-4.4-10.66-20.92-13.83-34.57-3.87a150.937 150.937 0 0 0-41.93 46.8c-8.41 14.66-3.45 30.74 7.63 33.94 1.75.51 3.51.76 5.27.82.87.21 1.77.33 2.7.33h52.53l10.49 57.33a11.522 11.522 0 0 0 13.41 9.26c6.26-1.14 10.4-7.15 9.26-13.4l-12.22-66.78z"/><path d="M9.84 112.52 0 170.12h77.29l-9.85-57.6zM138.84 33.72a6.25 6.25 0 0 0-3.56-3.23c-.69-.25-1.4-.37-2.12-.37-2.65 0-5.03 1.68-5.92 4.17-1.48 4.14-2.87 7.73-4.18 10.85-3.63 8.66-6.56 13.69-8.57 16.52-2.12 3.03-3.71 4.3-4.3 4.71l-1.49 1.04-1.24-1.2c-.86-.84-2.18-2.54-3.31-4.78-1.44-2.74-2.66-6.01-3.59-8.87-.78-2.4-1.35-4.5-1.67-5.74a118.222 118.222 0 0 1-1.68-7.43l-.1-.55a6.267 6.267 0 0 0-7.25-5.14c-1.65.28-3.1 1.2-4.07 2.56-.97 1.37-1.35 3.04-1.08 4.61l.04.22c.5 2.76 1.95 10.01 4.62 17.6.32.89.67 1.84 1.06 2.83 1.27 3.24 2.97 6.9 5.32 10.23 1.65 2.3 3.3 3.98 5.21 5.31 1.35.95 4.15 2.55 7.76 2.55h.11c2.9 0 5.98-1.07 8.68-3.02 3.8-2.76 7-6.71 10.71-13.19 2.56-4.52 5.1-9.99 7.71-16.51 1.04-2.62 2.09-5.38 3.16-8.36.57-1.58.48-3.29-.23-4.8z"/></g></svg>