<svg xmlns="http://www.w3.org/2000/svg" xml:space="preserve" viewBox="0 0 223.29 359.25" shape-rendering="geometricPrecision" text-rendering="geometricPrecision" image-rendering="optimizeQuality" fill-rule="evenodd" clip-rule="evenodd"><g fill="currentColor"><path d="M188.4 98.05c3.52-15.11-5.88-30.22-21-33.74-15.11-3.52-30.22 5.88-33.74 20.99-3.52 15.11 5.88 30.22 21 33.74 15.12 3.52 30.22-5.88 33.74-21zM141.52 189.76c-4.75-14.28-5.76-27.73-5.78-36.5 0-3.32.16-5.33.18-5.55.52-6.44 5.99-11.49 12.45-11.49a12.413 12.413 0 0 1 9.52 4.4 12.41 12.41 0 0 1 2.94 9.1v.09c-.01.16-.03.36-.04.64-.03.62-.05 1.58-.05 2.81-.01 4.19.35 14.62 3.62 25.79 1.02-8.51 2.21-16.63 3.42-22.82 3.58-12.43-1.1-27.31-11.77-29.97s-26.12 3.13-32.41 21.42c-6.88 20.4-9.39 35.04-8.38 54.6 3.51 1.12 7.19 2.1 11.06 2.92 3.26.68 6.06 2.59 7.89 5.39 1.75 2.67 2.38 5.83 1.84 8.96l13.53 3.12-3.65 15.82-27.39-6.32.68-2.95c-.82-.18-1.63-.37-2.43-.56l-.68 2.95-.56 2.44 2.43.56 11.95 2.76v105.41c0 8.62 6.99 15.62 15.62 15.62 8.62 0 15.62-6.99 15.62-15.62V227.76c0-.8-.08-1.57-.19-2.34.1-.96.17-1.97.2-3.04-10.52-10.58-16.38-22.94-19.59-32.61zM110.52 127.64c8.21-13.17 4.2-30.5-8.97-38.71-13.17-8.21-30.5-4.2-38.72 8.97-8.21 13.17-4.2 30.5 8.97 38.72 13.17 8.22 30.5 4.2 38.72-8.97zM42.73 161.55c-1.31-6.84 3.14-13.39 9.91-14.69.78-.15 1.57-.22 2.36-.22 5.95 0 11.11 4.25 12.25 10.1.06.26.14.58.27 1.03.25.88.69 2.33 1.41 4.15.6 1.54 1.46 3.48 2.59 5.65 4.33-9.96 3.39-21.83-4.39-26.85-9.23-5.96-25.74-5.47-37.6 9.81-16.19 21.1-23.21 36.04-29.12 63.34-1.81 13.15 2.75 20.47 9.15 24.96 2.98 8.6 7.26 24.55 7.24 45.05 0 15.73-2.47 34.14-9.94 54.34-3 8.09 1.14 17.07 9.22 20.06 1.79.66 3.62.98 5.42.98 6.35 0 12.31-3.9 14.64-10.2 8.86-23.92 11.89-46.16 11.89-65.18-.02-21.17-3.7-38.31-7.19-49.82.27-.85.54-1.74.8-2.7 2.68-13.49 9.23-27.19 15.94-39.35-.25-.33-.5-.65-.73-.97-10.58-14.25-13.6-27.06-14.1-29.48z"/><path d="M121.65 227.21c.69.14 1.38.21 2.06.21 4.63 0 8.78-3.24 9.77-7.94 1.13-5.41-2.33-10.7-7.73-11.83-27.65-5.86-42.36-18.74-50.87-30.04-4.22-5.66-6.79-10.98-8.27-14.78a43.88 43.88 0 0 1-1.49-4.4 15.202 15.202 0 0 1-.3-1.18c0-.02-.01-.03-.01-.04-1.06-5.4-6.28-8.93-11.69-7.9-5.42 1.04-8.97 6.27-7.94 11.69.2.97 2.75 13.82 13.67 28.53 10.86 14.71 30.5 30.98 62.8 37.67zM158.28 150.35c.01-.32.03-.56.04-.7l.01-.13c.44-5.5-3.66-10.32-9.16-10.76-5.5-.44-10.32 3.66-10.76 9.16-.02.23-.17 2.16-.17 5.34.02 7.21.71 20.84 5.65 35.72 4.91 14.8 14.39 31.21 32.06 41.98a9.96 9.96 0 0 0 5.19 1.46c3.37 0 6.66-1.7 8.54-4.79 2.87-4.71 1.39-10.86-3.33-13.74-12.53-7.65-19.51-19.32-23.51-31.24-3.97-11.85-4.64-23.58-4.62-29.39 0-1.28.03-2.27.06-2.91zM194.03.01c-8.77.35-17.1 5.71-20.28 14.03-3.77 9.86 3.15 17.42 11.97 20.72 3.86 1.44 11.32-4.1 5.65-6.22-18.26-6.83-2.66-30.94 9.52-17.37 5.27 5.87 8.55 16.82 4.15 23.81-3.45 5.48-10.3 12.43-4.01 18.48 2.99 2.87 12.12-1.01 8.87-4.15-4.26-4.09 1.84-9.8 4.32-13.43 3.18-4.65 2.99-9.71 1.99-15.06C214.16 9.88 205.96-.47 194.04.01zM207.96 66.01c-1.36 3.17.89 7.17 5.01 8.94 4.12 1.76 8.56.62 9.92-2.55 1.36-3.17-.88-7.17-5.01-8.94-4.12-1.76-8.56-.62-9.92 2.55z"/></g></svg>