<svg xmlns="http://www.w3.org/2000/svg" xml:space="preserve" viewBox="0 0 130.75 167.23" shape-rendering="geometricPrecision" text-rendering="geometricPrecision" image-rendering="optimizeQuality" fill-rule="evenodd" clip-rule="evenodd"><g fill="currentColor"><path d="M82.7 21.5h4.16a4.984 4.984 0 0 1 4.63-3.16c2.1 0 3.9 1.31 4.63 3.16h2.75a4.984 4.984 0 0 1 4.63-3.16c2.1 0 3.9 1.31 4.63 3.16h4.16c-.25-1.8-.82-3.49-1.65-5.02H84.33a14.84 14.84 0 0 0-1.65 5.02zM108.5 23.33c0 2.75-2.24 4.99-4.99 4.99s-4.99-2.24-4.99-4.99c0-.17.01-.33.02-.5h-2.1c.02.16.02.33.02.5 0 2.75-2.24 4.99-4.99 4.99s-4.99-2.24-4.99-4.99c0-.17.01-.33.02-.5h-3.97c-.01.26-.02.51-.02.77 0 8.26 6.7 14.96 14.96 14.96 8.26 0 14.96-6.7 14.96-14.96 0-.26-.01-.52-.02-.77h-3.97c.02.16.02.33.02.5zM121.61 15.15v-2.24h-10.03l-.78-9.36S106.15.01 97.43.01c-8.72 0-13.37 3.54-13.37 3.54l-.78 9.36H73.25v2.24h48.36z"/><path d="M91.5 19.57c-2.08 0-3.76 1.69-3.76 3.76a3.77 3.77 0 0 0 3.76 3.77 3.764 3.764 0 1 0 0-7.53zM103.52 19.57a3.77 3.77 0 0 0-3.77 3.76 3.764 3.764 0 1 0 7.53 0c0-2.08-1.69-3.76-3.76-3.76zM54.37 106.33 0 165.81l1.56 1.42 54.36-59.47zM57.27 106.29l1.16-1.27a5.255 5.255 0 0 0 3.07.98c2.72 0 5.04-2.08 5.29-4.84.19-2.08.39-4.06.62-5.96l.32-.35-.25-.23c.01-.1.02-.19.04-.29 1.82-1.4 3.31-1.72 4.5-.92-.15.97-.34 2.1-.55 3.29-1.12 6.51-2.65 15.43-.13 18.43.61.72 1.41 1.08 2.38 1.08.39 0 .81-.06 1.26-.18.4-.11.63-.54.86-1.58.89-4.13 1.27-17.7-2.75-21.46.19-1.46.07-2.38-.37-2.9-.24-.28-.57-.43-.96-.43-1.13 0-2.73 1.37-3.98 2.65 2.52-18.93 6.82-28.66 10.19-33.58.54-.78 1.06-1.45 1.56-2.03v101.41a8.22 8.22 0 0 0 8.22 8.22 8.22 8.22 0 0 0 8.22-8.22V98.1h3.08v60.01a8.22 8.22 0 0 0 8.22 8.22 8.22 8.22 0 0 0 8.22-8.22v-99.7c2.77 5.67 5.68 17.51 4.25 41.95a5.322 5.322 0 0 0 5.32 5.63c2.8 0 5.14-2.18 5.31-5.01 1.64-28.09-1.87-46.41-10.44-54.46-3.73-3.51-7.38-4.11-9.25-4.15-.11-.01-.21-.02-.32-.02H84.68c-.22 0-.44.02-.66.05-2.46.18-7.75 1.42-13.14 8.07-7.62 9.4-12.55 26.13-14.67 49.73-.11 1.19.19 2.33.78 3.27l-1.27 1.39 1.56 1.42zM72.9 94.25c3.54 4.58 2.59 19.36 1.72 20.84-.32.08-.62.12-.89.12-.67 0-1.2-.24-1.61-.73-2.23-2.65-.68-11.66.35-17.62.16-.92.31-1.8.44-2.61zm-1.14-3.59c.11 0 .16.03.21.08.1.11.28.48.19 1.59-.48-.24-.99-.36-1.53-.36-.41 0-.84.07-1.28.21.96-.87 1.87-1.53 2.41-1.53z"/></g></svg>