<svg xmlns="http://www.w3.org/2000/svg" xml:space="preserve" viewBox="0 0 1509.55 1137.56" shape-rendering="geometricPrecision" text-rendering="geometricPrecision" image-rendering="optimizeQuality" fill-rule="evenodd" clip-rule="evenodd"><g fill="currentColor"><path d="M1284.93 464.72c-1.08 0-2.15.08-3.2.2-4.44.19-8.78.73-12.99 1.54 0 .08.01.15.01.23-.04 19.78-4.23 38.22-12.42 54.91-9.88 20.12-25.09 35.78-43.96 45.32-2.84 1.44-5.89 2.59-8.99 3.61v8.26a85.73 85.73 0 0 0 5.48 14.33c6.13 12.5 16.15 24.28 30.38 31.45 5.81 2.97 12.32 4.26 17.87 4.26h.3c14.26-.42 22.28-5.29 30.03-9.09 22.37-12.18 43.43-27.28 77.66-27.44 5.43 0 11.18.4 17.39 1.34 15.78 2.37 30.49-8.5 32.87-24.28 2.37-15.79-8.49-30.49-24.28-32.87-9.03-1.36-17.68-1.98-25.98-1.98-35.16-.07-62.82 11.38-82.12 21.59-9.18 4.83-16.68 9.39-21.91 12.2-.13-.24-.26-.5-.4-.76-.87-1.74-1.64-3.96-2.18-6.46l7.28-4.56c3.87-2.21 8.47-4.82 13.5-7.46 28.62-15.15 56.61-22.51 85.53-22.51 9.2 0 18.34.69 27.45 2.07 9.48 1.42 17.55 6.4 23.15 13.34 9.26 4.09 17.37 8.43 24.79 12.62 1.2.68 2.34 1.34 3.45 1.97l7.29 4.56c-.55 2.49-1.32 4.7-2.2 6.44-.13.26-.26.51-.39.75-3.17-1.72-7.32-4.09-12.04-6.79-4.27-2.41-9.13-5.08-14.51-7.77 1.71 5.26 2.3 10.97 1.42 16.79-2.62 17.43-17.56 30.65-35.03 31.31 9.47 4.12 18.08 9.05 26.56 13.89 4.9 2.77 9.77 5.52 15.45 8.03 5.69 2.41 12.4 4.97 21.83 5.08h.24c5.59 0 12.11-1.29 17.93-4.25 14.25-7.2 24.24-18.96 30.38-31.46 6.18-12.6 8.98-26.24 9.01-40.03-.06-20.3-6.15-41.58-20.84-59.11-13.63-16.54-35.75-27.97-61.06-29.07-1.04-.12-2.11-.19-3.19-.19h-139.54z"/><path d="M1452.39 711.55v-74.78c-.05 0-.1.01-.15.01h-.33c-10.74-.13-18.44-3.01-24.84-5.71-6.29-2.78-11.59-5.78-16.27-8.44l-1.89-1.08c-8.79-5.02-17.88-10.21-27.84-14.12-4.26-1.68-8-4.09-11.2-7.01-1.6-.08-3.21-.18-4.8-.18-27.31.13-45.3 10.34-64.34 21.14-3.17 1.8-6.33 3.59-9.52 5.33l-2.74 1.38c-7.29 3.68-16.36 8.25-30.85 8.68h-.62v74.79l-24.19 296.6 5.7 69.95c1.07 13.06-1.52 25.56-6.79 36.6 7.02 12.54 19.95 21.47 35.35 22.73 24.58 2 46.13-16.29 48.13-40.88l26.83-328.98h25.29l26.83 328.98c1.99 24.59 23.56 42.88 48.13 40.88 24.58-2.01 42.88-23.55 40.88-48.14l-30.81-377.74zM1435.96 362.87c0-44.89-36.37-81.27-81.26-81.27-44.88 0-81.27 36.38-81.27 81.27 0 44.88 36.39 81.27 81.27 81.27 44.89 0 81.26-36.38 81.26-81.27zM1217.95 1079.78l-35.22-431.88v-85.48c-.05 0-.11.01-.17.01h-.37c-12.28-.14-21.09-3.44-28.39-6.53-7.21-3.18-13.27-6.61-18.61-9.65l-2.15-1.23c-10.07-5.73-20.45-11.68-31.83-16.15-4.87-1.92-9.14-4.68-12.81-8.01-1.83-.09-3.66-.21-5.48-.21-31.22.15-51.79 11.82-73.56 24.17-3.62 2.05-7.24 4.1-10.88 6.09l-3.13 1.57c-8.33 4.21-18.71 9.43-35.28 9.92h-.6c-.03 0-.07-.01-.1-.01v85.49l-22.49 275.76 11.61 142.32c1.51 18.55-3.32 36.14-12.55 50.79 8.47 10.08 20.79 16.91 34.94 18.06 28.1 2.28 52.74-18.62 55.04-46.74l30.67-376.12h28.92l30.68 376.12c2.29 28.11 26.94 49.02 55.03 46.74 28.11-2.29 49.04-26.93 46.74-55.04zM1163.95 249.27c0-51.31-41.59-92.91-92.91-92.91-51.32 0-92.91 41.6-92.91 92.91 0 51.32 41.59 92.91 92.91 92.91 51.32 0 92.91-41.6 92.91-92.91z"/><path d="M969.05 422.4c-11.43 23.26-29.01 41.37-50.84 52.4-3.3 1.67-6.8 3.08-10.4 4.26v39.85c7.1 11.84 17.4 22.61 31.22 29.57 6.65 3.39 14.08 4.86 20.43 4.86h.34c16.3-.48 25.48-6.05 34.34-10.4 25.57-13.92 49.64-31.19 88.78-31.37 6.2 0 12.78.46 19.88 1.52 18.04 2.71 34.86-9.71 37.57-27.75 2.71-18.06-9.71-34.86-27.76-37.57-10.32-1.55-20.21-2.26-29.69-2.26-40.2-.08-71.82 13.01-93.89 24.68-10.48 5.53-19.08 10.73-25.04 13.96-.16-.28-.31-.57-.47-.87-1-1.99-1.88-4.52-2.49-7.37l8.33-5.22c4.42-2.52 9.68-5.51 15.44-8.54 32.71-17.32 64.72-25.72 97.78-25.72 10.52 0 20.97.79 31.39 2.36 10.84 1.63 20.07 7.32 26.46 15.25 10.59 4.67 19.87 9.64 28.35 14.43 1.36.77 2.67 1.53 3.94 2.25l8.33 5.21c-.62 2.84-1.5 5.38-2.51 7.37-.15.3-.3.58-.45.86-3.63-1.97-8.37-4.68-13.77-7.77-4.89-2.76-10.44-5.81-16.59-8.88 1.96 6.01 2.63 12.54 1.63 19.2-3.01 19.93-20.09 35.04-40.07 35.8 10.83 4.71 20.67 10.34 30.37 15.88 5.6 3.16 11.16 6.31 17.66 9.18 6.51 2.75 14.18 5.69 24.96 5.82h.27c6.39 0 13.84-1.48 20.49-4.86 16.29-8.23 27.71-21.68 34.73-35.97 7.07-14.41 10.27-30 10.31-45.77-.07-23.21-7.03-47.54-23.83-67.58-15.57-18.9-40.87-31.97-69.81-33.22-1.2-.14-2.41-.22-3.64-.22H991.26c-1.23 0-2.44.09-3.64.23-1.49.06-2.96.18-4.42.31-.98 20.09-5.71 38.93-14.16 56.15zM271.03 1078.1l5.71-69.99-24.19-296.57v-74.78h-.63c-14.49-.43-23.57-5-30.85-8.68l-2.74-1.38c-3.18-1.74-6.35-3.53-9.52-5.33-19.05-10.81-37.04-21.01-64.34-21.14-1.59 0-3.2.11-4.8.18-3.2 2.91-6.94 5.33-11.19 7.01-9.96 3.91-19.05 9.1-27.84 14.12l-1.9 1.08c-4.66 2.65-9.96 5.66-16.27 8.44-6.38 2.7-14.09 5.58-24.83 5.71h-.32c-.05 0-.09-.01-.14-.01v74.76l-30.82 377.75c-2 24.59 16.31 46.14 40.89 48.14 24.58 2 46.13-16.29 48.13-40.88l26.84-328.98h25.29l26.84 328.98c2 24.59 23.56 42.88 48.13 40.88 15.4-1.25 28.33-10.18 35.35-22.72-5.28-11.04-7.86-23.54-6.79-36.6zM236.13 362.87c0-44.89-36.39-81.27-81.27-81.27-44.88 0-81.27 36.38-81.27 81.27 0 44.88 36.38 81.27 81.27 81.27 44.88 0 81.27-36.38 81.27-81.27z"/><path d="M0 553.09c.03 13.79 2.84 27.44 9.01 40.03 6.15 12.5 16.13 24.26 30.38 31.46 5.83 2.96 12.34 4.25 17.93 4.25h.24c9.43-.11 16.13-2.68 21.82-5.08 5.69-2.5 10.56-5.26 15.45-8.03 8.49-4.85 17.09-9.77 26.57-13.89-17.48-.66-32.42-13.88-35.03-31.31-.87-5.83-.29-11.54 1.42-16.8-5.38 2.69-10.23 5.36-14.52 7.77-4.71 2.7-8.86 5.07-12.04 6.79-.13-.24-.26-.49-.39-.75-.88-1.74-1.65-3.96-2.2-6.44l7.29-4.56c1.11-.63 2.25-1.29 3.44-1.97 7.43-4.18 15.55-8.53 24.81-12.62 5.6-6.94 13.66-11.91 23.14-13.34 9.1-1.37 18.26-2.07 27.45-2.07 28.92 0 56.9 7.36 85.52 22.51 5.04 2.64 9.64 5.26 13.5 7.46l7.29 4.57c-.54 2.49-1.3 4.71-2.18 6.45-.14.26-.27.52-.41.76-5.22-2.82-12.73-7.37-21.91-12.2-19.29-10.21-46.95-21.66-82.12-21.59-8.28 0-16.95.62-25.97 1.98-15.79 2.37-26.65 17.07-24.28 32.87 2.37 15.77 17.09 26.65 32.86 24.28 6.21-.93 11.97-1.34 17.39-1.34 34.24.16 55.29 15.26 77.67 27.44 7.73 3.8 15.76 8.67 30.03 9.09h.3c5.55 0 12.05-1.29 17.87-4.26 14.24-7.17 24.24-18.95 30.38-31.45 2.28-4.65 4.09-9.44 5.48-14.34v-8.25c-3.11-1.02-6.15-2.18-9-3.62-18.87-9.54-34.08-25.21-43.97-45.32-8.19-16.69-12.37-35.14-12.41-54.91 0-.08.01-.15.01-.23-4.22-.81-8.56-1.34-13-1.54-1.05-.12-2.12-.2-3.2-.2H85.09c-1.08 0-2.14.08-3.19.19-25.31 1.1-47.44 12.53-61.06 29.07C6.15 511.48.05 532.76-.01 553.06zM561.09 1065.98l11.61-142.35-22.49-275.74V562.4c-.03 0-.07.01-.1.01h-.61c-16.57-.49-26.95-5.72-35.28-9.92l-3.13-1.57c-3.64-1.99-7.26-4.03-10.89-6.09-21.77-12.36-42.34-24.03-73.55-24.17-1.82 0-3.66.13-5.49.21-3.66 3.32-7.94 6.09-12.8 8.01-11.38 4.47-21.77 10.42-31.82 16.15l-2.16 1.23c-5.34 3.04-11.4 6.47-18.6 9.65-7.3 3.09-16.12 6.38-28.4 6.53h-.53v85.47l-35.23 431.89c-2.28 28.11 18.65 52.74 46.74 55.04 28.11 2.28 52.76-18.62 55.04-46.74l30.68-376.12h28.91l30.68 376.12c2.29 28.11 26.93 49.02 55.03 46.74 14.16-1.16 26.48-7.98 34.94-18.06-9.23-14.65-14.05-32.23-12.54-50.78zM531.42 249.27c0-51.31-41.6-92.91-92.91-92.91-51.32 0-92.91 41.6-92.91 92.91 0 51.32 41.59 92.91 92.91 92.91 51.31 0 92.91-41.6 92.91-92.91z"/><path d="M261.47 466.74c.03 15.77 3.23 31.37 10.3 45.77 7.02 14.28 18.45 27.74 34.73 35.97 6.66 3.38 14.11 4.86 20.49 4.86h.27c10.78-.13 18.46-3.06 24.97-5.82 6.49-2.87 12.06-6.01 17.66-9.18 9.7-5.54 19.54-11.17 30.37-15.88-19.99-.76-37.06-15.87-40.07-35.8-1-6.66-.33-13.19 1.63-19.2-6.15 3.07-11.7 6.12-16.59 8.88-5.4 3.09-10.14 5.8-13.77 7.77-.16-.27-.3-.56-.46-.86-1-1.99-1.88-4.52-2.51-7.36l8.34-5.22c1.27-.72 2.56-1.47 3.93-2.24 8.49-4.78 17.77-9.76 28.35-14.43 6.39-7.93 15.62-13.62 26.46-15.25 10.41-1.57 20.87-2.36 31.38-2.36 33.07 0 65.07 8.41 97.79 25.72 5.75 3.03 11.01 6.02 15.43 8.54l8.34 5.22c-.62 2.85-1.5 5.39-2.5 7.37-.15.3-.31.59-.45.87-5.98-3.23-14.56-8.43-25.05-13.96-22.06-11.67-53.68-24.76-93.89-24.68-9.47 0-19.37.71-29.69 2.26-18.05 2.71-30.47 19.52-27.76 37.57 2.72 18.04 19.53 30.47 37.57 27.75 7.11-1.06 13.69-1.52 19.88-1.52 39.15.18 63.22 17.45 88.8 31.37 8.84 4.35 18.02 9.92 34.32 10.4h.34c6.34 0 13.79-1.47 20.43-4.86 13.81-6.96 24.11-17.73 31.21-29.57v-39.85c-3.63-1.19-7.16-2.61-10.48-4.31-21.76-10.97-39.34-29.08-50.76-52.35-8.46-17.24-13.19-36.11-14.15-56.15-1.47-.13-2.94-.25-4.42-.31-1.2-.14-2.41-.22-3.65-.22H358.72c-1.24 0-2.45.09-3.64.23-28.93 1.25-54.24 14.32-69.8 33.22-16.8 20.04-23.77 44.37-23.83 67.58zM924.67 1067.91l-40.73-499.42V469.6c-.06 0-.13.01-.2.01h-.42c-14.21-.17-24.39-3.98-32.84-7.55-8.33-3.68-15.34-7.65-21.51-11.16l-2.5-1.42c-11.63-6.64-23.63-13.51-36.8-18.67-5.63-2.22-10.57-5.42-14.81-9.26-2.11-.1-4.24-.25-6.35-.25-36.11.17-59.89 13.67-85.06 27.96-4.18 2.38-8.37 4.74-12.58 7.05l-3.63 1.81c-9.62 4.87-21.63 10.91-40.8 11.48H625.62v98.8l-40.74 499.54c-2.65 32.51 21.55 61 54.05 63.64 32.5 2.64 61-21.54 63.65-54.04l35.48-434.97h33.44l35.47 434.97c2.65 32.51 31.15 56.7 63.65 54.05 32.49-2.65 56.7-31.14 54.05-63.64zM862.22 107.45C862.22 48.11 814.12 0 754.77 0c-59.34 0-107.45 48.1-107.45 107.45 0 59.34 48.11 107.45 107.45 107.45 59.35 0 107.45-48.11 107.45-107.45z"/><path d="M550.03 358.95c.04 18.22 3.74 36.28 11.91 52.93 8.12 16.54 21.35 32.1 40.16 41.58 7.7 3.92 16.29 5.63 23.63 5.63.13 0 .26 0 .4-.01 18.85-.56 29.47-6.99 39.7-12.02 29.57-16.1 57.41-36.07 102.68-36.28 7.16 0 14.78.53 22.98 1.76 20.87 3.14 40.32-11.24 43.46-32.1 3.13-20.88-11.23-40.32-32.1-43.45-11.93-1.8-23.39-2.62-34.34-2.62-46.49-.09-83.07 15.04-108.58 28.54-12.14 6.4-22.06 12.41-28.97 16.14-.17-.32-.35-.65-.53-1-1.16-2.3-2.16-5.23-2.89-8.53l9.64-6.04c5.11-2.92 11.19-6.37 17.85-9.87 37.84-20.03 74.84-29.76 113.08-29.76 12.16 0 24.25.92 36.3 2.73 12.54 1.89 23.21 8.46 30.6 17.64 12.24 5.4 22.97 11.15 32.79 16.68 1.58.9 3.09 1.77 4.55 2.6l9.64 6.03c-.72 3.29-1.74 6.21-2.91 8.52-.17.34-.34.68-.52.99-4.2-2.28-9.68-5.41-15.92-8.98-5.65-3.19-12.07-6.72-19.18-10.27 2.26 6.95 3.04 14.5 1.88 22.21-3.47 23.04-23.22 40.52-46.33 41.4 12.52 5.44 23.91 11.96 35.12 18.36 6.47 3.66 12.91 7.3 20.42 10.61 7.52 3.18 16.4 6.57 28.87 6.72h.31c7.39 0 16.01-1.71 23.7-5.62 18.84-9.52 32.05-25.08 40.17-41.59 8.17-16.67 11.87-34.7 11.91-52.94-.08-26.84-8.14-54.98-27.55-78.15-18.01-21.86-47.27-36.97-80.72-38.43-1.38-.16-2.79-.26-4.22-.26h-184.5c-1.42 0-2.82.1-4.21.26-33.45 1.46-62.72 16.57-80.72 38.42-19.43 23.18-27.5 51.33-27.57 78.16z"/></g></svg>