<svg xmlns="http://www.w3.org/2000/svg" xml:space="preserve" viewBox="0 0 1742.14 1612.41" shape-rendering="geometricPrecision" text-rendering="geometricPrecision" image-rendering="optimizeQuality" fill-rule="evenodd" clip-rule="evenodd"><g fill="currentColor"><path d="M1254.71 1082.35h248.35v55.6h48.18v-55.6h25.94v-44.48h-25.94v-163.1h25.94v-44.48h-25.94v-163.1h25.94v-44.48h-396.61v44.48h25.94v163.1h-25.94v44.48h25.94v163.1h-25.94v44.48h25.94v55.6h48.19v-55.6zm0-415.15h248.35v163.1h-248.35V667.2zm0 207.57h248.35v163.1h-248.35v-163.1z"/><path d="M1432.63 700.56c-29.68 0-53.75 24.07-53.75 53.75 0 29.69 24.06 53.75 53.75 53.75 29.68 0 53.74-24.07 53.74-53.75s-24.06-53.75-53.74-53.75zM1336.26 745.04c-17.4 0-31.51 14.11-31.51 31.51 0 17.4 14.11 31.51 31.5 31.51 17.4 0 31.51-14.11 31.51-31.51 0-17.4-14.11-31.51-31.5-31.51zM1402.98 937.79v77.84h77.84v-77.84zM1347.38 1015.63h40.77v-77.84h-40.77zM1289.92 1015.63h40.78v-77.84h-40.78zM865.76 958v-67.83H776.8V958zM721.03 987.04v150.91h33.53V890.16h-4.88c-1.77 0-3.49.19-5.17.49-4.31.15-8.66 1.21-12.74 3.35-3.41 1.75-30.89 17.13-58.72 58.11-25.79 37.85-51.4 97.32-59.69 185.84h59.58c7.83-75.15 28.97-122.15 48.09-150.91zM888 1137.96h33.53V987.1c1.63 2.44 3.26 4.97 4.91 7.68 17.67 29.21 35.97 74.46 43.14 143.18h59.61c-8.29-88.53-33.91-148-59.69-185.84-27.84-40.98-55.31-56.36-58.72-58.11a29.44 29.44 0 0 0-12.76-3.35c-1.67-.3-3.39-.48-5.14-.48H888v247.79zM737.88 781.94c0 46.06 37.34 83.4 83.4 83.4s83.4-37.34 83.4-83.4-37.34-83.4-83.4-83.4-83.4 37.34-83.4 83.4z"/><path d="M0 452.22v77.84h53.75v1082.35H1688.4V530.06h53.75v-77.84L871.08 0 .01 452.22zm135.29 1067.53v-242.66l209.43-39.04v-14.83H135.29v-125.28l209.43-39.05v-14.83H135.29V918.77l209.43-39.04V864.9H135.29V739.62l209.43-39.05v-14.82H135.29V530.07H500.4v989.69H135.29zm1471.55-989.68v630.14H581.95V530.07H1606.84z"/><path d="M159.39 663.5h70.42v-70.43h-70.42zM255.76 663.5h70.43v-70.43h-70.43zM159.39 842.65h70.42v-70.42h-70.42zM255.76 842.65h70.43v-70.42h-70.43zM159.39 1021.81h70.42v-70.43h-70.42zM255.76 1021.81h70.43v-70.43h-70.43zM159.39 1200.97h70.42v-70.43h-70.42zM255.76 1200.97h70.43v-70.43h-70.43zM1032.31 752.46c48.1 0 87.1-39 87.1-87.11s-39-87.1-87.11-87.1c-48.1 0-87.1 39-87.1 87.1 0 48.11 39 87.11 87.11 87.11zm0-155.68c37.87 0 68.57 30.7 68.57 68.57 0 37.87-30.71 68.58-68.58 68.58s-68.57-30.7-68.57-68.58c0-37.87 30.7-68.57 68.58-68.57z"/><path d="M1082.35 670.91v-9.27h-46.33v-46.33h-9.27V670.91h9.27z"/></g></svg>