<svg xmlns="http://www.w3.org/2000/svg" xml:space="preserve" viewBox="0 0 620.39 615.28" shape-rendering="geometricPrecision" text-rendering="geometricPrecision" image-rendering="optimizeQuality" fill-rule="evenodd" clip-rule="evenodd"><g fill="currentColor"><path d="M54.27 144.2c-6.08 26.71 10.64 53.29 37.35 59.37 26.71 6.08 53.29-10.64 59.37-37.35 6.07-26.71-10.65-53.28-37.35-59.37-26.71-6.08-53.29 10.64-59.37 37.35zM56.17 308.15c-15.81-24.12-19.23-46.8-19.97-55.43l-.02-.25c-.38-6.05 1.57-11.71 5.47-16.12 3.9-4.41 9.29-7.04 15.17-7.41.46-.03.92-.04 1.38-.04 11.61 0 21.27 9.08 21.98 20.68.01.08.05.4.1.87.11.9.33 2.42.73 4.39.74 3.68 2.2 9.43 4.96 15.94 1.19 2.77 2.54 5.39 3.97 7.95 1.01-5.14 2-10.07 2.88-14.68 6.22-21.97-2.19-48.2-21.03-52.79-18.84-4.6-46.08 5.76-57.02 38.1C-.02 293.91-3.09 322.88 2.85 371.83c4.79 24 17.49 33.36 31.46 36.8 2.9 9.17 6.11 24.2 6.13 46.34 0 28.56-5.42 68.99-24.44 123.29-5.03 14.36 2.53 30.09 16.89 35.13 3.02 1.06 6.09 1.56 9.12 1.56 11.38 0 22.03-7.1 26.01-18.45 20.77-59.26 27.55-105.94 27.54-141.52.06-37.76-7.74-62.85-13.78-76.52-.02-.44-.04-.86-.07-1.31-1.86-13.36-1.73-27.51-.57-41.6a118.459 118.459 0 0 1-24.97-27.37z"/><path d="M173.36 325.91c-24.91-.77-42.73-6.32-55.91-13.64-13.58-7.59-22.62-17.31-28.8-26.98-2.77-4.34-4.97-8.68-6.74-12.8-2.81-6.62-4.38-12.6-5.22-16.77-.42-2.09-.66-3.72-.79-4.74-.06-.52-.1-.88-.11-1.07l-.01-.05c-.6-9.72-8.97-17.12-18.69-16.51-9.72.6-17.12 8.97-16.52 18.69.18 1.73 1.68 26.84 19.28 53.7 5.5 8.34 12.66 16.81 21.77 24.5 5.49 4.63 11.69 8.98 18.66 12.86 18.54 10.35 42.34 17.21 72 18.09.18 0 .36.01.54.01 9.5 0 17.34-7.55 17.63-17.11.29-9.74-7.36-17.87-17.09-18.16zM596.57 239.05l-41.84-8.27c-16.5-3.26-32.95 9.63-36.74 28.79l-30.92 156.55h-13.92c7.21-20.04 11.02-40.16 13.44-66.16 2.97-34.01-17.81-54.42-36.91-57.79-19.11-3.35-37.34 17.28-40.46 39.9-2.69 11.78-5.57 25.65-9.22 40.11 4.78-3.83 8.93-8.2 12.48-13.19 10.5-14.68 11.57-30 11.58-30.15.5-11.94 10.17-21.21 22.02-21.21.25 0 .5 0 .75.01 12.16.42 21.7 10.64 21.29 22.79-.17 3.72-1.24 16.79-8.02 33.03-6.45 15.56-19.75 37.06-46.38 52.64-1 .59-1.98 1.18-3.02 1.75-4.01 2.21-8.24 4.17-12.61 5.98-5.89 2.44-12.06 4.56-18.57 6.28-11.91 3.16-24.82 5.11-38.66 5.81-.39.02-.76.03-1.13.03-6.35 0-12.08-2.7-16.11-7.03-3.19-3.42-5.3-7.87-5.79-12.82H313c-18.71 0-33.98 14.54-35.23 32.93-16.21 10.37-31.8 24.8-43.89 44.18-13.93 22.23-22.92 50.55-24.65 84.8-.78 15.2 10.9 28.16 26.1 28.94.49.02.97.04 1.45.04 14.57 0 26.73-11.42 27.49-26.14 1.24-23.27 6.39-40.26 13.37-53.27v39.11c0 17.3 12.44 31.68 28.87 34.73v13.85h56.57v-13.23h129.63v13.23h56.57v-13.85c16.43-3.05 28.87-17.43 28.87-34.73v-77.2l41.45-209.88c3.78-19.15-6.54-37.33-23.04-40.59z"/><path d="M444.86 281.89c27.39-.19 49.44-22.55 49.25-49.94-.19-27.39-22.55-49.44-49.94-49.25-27.39.19-49.44 22.54-49.25 49.93.19 27.39 22.55 49.44 49.94 49.25zM328.65 427.61c3.04 2.47 6.91 3.95 11.09 3.95.3 0 .6-.01.91-.02 15.54-.78 29.31-3.13 41.48-6.69 3.03-.88 5.96-1.84 8.78-2.87 4.82-1.76 9.35-3.72 13.61-5.86 1.38-.69 2.74-1.39 4.06-2.12 26.25-14.35 40.45-35.33 47.45-52.22 7.09-16.97 7.61-30.06 7.68-31.49.33-9.73-7.29-17.9-17.03-18.23-9.68-.33-17.81 7.22-18.22 16.88 0 0 0 .02-.01.15-.09 1.72-1.71 17.54-12.39 32.47-4.29 6.04-9.98 12.05-17.84 17.43a82.806 82.806 0 0 1-7.79 4.72c-12.12 6.4-28.62 11.42-51.58 12.6-9.73.49-17.22 8.78-16.73 18.51.02.44.08.88.13 1.31.58 4.65 2.95 8.7 6.38 11.49zM394.4 80.47C394.4 36.03 348.01 0 290.78 0c-57.23 0-103.62 36.03-103.62 80.47 0 20.24 9.63 38.74 25.52 52.88 9.38 8.35 15.27 34.2-6.78 52.95 13.39 4.9 69.11-25.35 84.88-25.35 57.23 0 103.62-36.03 103.62-80.47zm-104.65 27.18c-9.97-.05-20.01-2.26-28.14-5.94-6.75-3.06-.18-6.87 4.7-4.66 6.09 2.76 14.75 4.22 23.03 3.84-.45-5.92-1.12-11.72-2.09-17.43-12.21-2.46-25.32-7.25-28.24-17.56-2.32-8.18 6.11-14.72 17.16-18.16-2-4.23-4.25-8.45-6.85-12.67-3.09-5.02 7.5-6.41 9.76-2.73 2.65 4.31 5.14 8.71 7.45 13.2 12.73-1.54 25.7.97 28.99 9.39 1.99 5.11-8.61 3.42-10.01-.16-1.64-4.19-8.44-3.92-15.52-2.05 3.71 8.26 6.62 16.85 8.23 25.86 2.71.41 4.92.69 6.18.84 12.14 1.45 31.97 7.35 15.01 19.84-5.29 3.89-11.7 6.28-18.52 7.48.2 6.21.23 12.43.23 18.67 0 4.63-10.99 3.93-10.99-.86 0-5.76-.11-11.38-.38-16.9z"/><path d="M272.3 60.69c-8.17 7.73 2.24 12.59 13.51 15.44-1.47-6.69-3.39-13.29-5.92-19.82-3.52 1.57-6.35 3.21-7.59 4.38zM315.32 87.65c-3.86-1.08-7.96-1.44-11.93-1.87-1.25-.13-2.64-.29-4.13-.46.6 4.56.99 9.13 1.27 13.71 2.29-.71 4.41-1.62 6.25-2.77.96-.6 11.69-7.73 8.54-8.61z"/></g></svg>