<svg xmlns="http://www.w3.org/2000/svg" xml:space="preserve" viewBox="0 0 389.9 285.61" shape-rendering="geometricPrecision" text-rendering="geometricPrecision" image-rendering="optimizeQuality" fill-rule="evenodd" clip-rule="evenodd"><g fill="currentColor"><path d="m261.04 268.02 19.33-119.91v-14.85c-8.32-1.72-20.38-3.93-27.43-3.93-12.25 0-17.24 1.68-17.24 5.78 0 1.35.42 3.02 1.23 4.98 2.45 5.88 5.27 13.54 5.27 20.57 0 5.88-1.97 10.53-5.84 13.81-4.31 3.65-10.7 5.42-19.55 5.42-20.98 0-25.38-10.46-25.38-19.23 0-7.03 2.82-14.69 5.27-20.57.82-1.96 1.23-3.63 1.23-4.98 0-4.11-5-5.78-17.24-5.78-8.92 0-25.87 3.54-33.1 5.14 1.66 7.44 5.32 24.95 5.32 34.67 0 8.74-.52 18.41-6.69 22.53-3.53 2.36-8.19 2.35-13.83-.01-7.67-3.19-18.54-6.97-24.46-3.03-3.71 2.47-5.59 8.07-5.59 16.63 0 8.56 1.88 14.16 5.59 16.63 5.92 3.95 16.79.16 24.45-3.03 5.66-2.36 10.31-2.36 13.84-.01 6.17 4.11 6.69 13.79 6.69 22.53 0 9.36-3.39 25.93-5.12 33.8h113.47c-.5-2.29-.61-4.71-.22-7.17z"/><path d="M104.01 182.77c8.63-5.76 21.14-1.75 31.08 2.38 2.3.96 5.41 1.85 7.22.65 3.55-2.37 3.55-12.75 3.55-16.66 0-9.51-4.01-28.1-5.43-34.38-6.28-1.42-24.88-5.43-34.39-5.43-12.25 0-17.24 1.68-17.24 5.78 0 1.35.41 3.02 1.23 4.98 2.45 5.88 5.28 13.54 5.28 20.57 0 5.88-1.97 10.53-5.84 13.81-4.31 3.65-10.7 5.42-19.54 5.42-20.98 0-25.39-10.46-25.39-19.23 0-7.03 2.82-14.69 5.27-20.57.81-1.96 1.23-3.63 1.23-4.98 0-4.11-4.99-5.78-17.24-5.78-9.23 0-27.02 3.78-33.8 5.3v140.56h140.56c1.52-6.78 5.3-24.57 5.3-33.8 0-3.91 0-14.3-3.55-16.66-1.8-1.2-4.92-.31-7.22.65-9.93 4.13-22.44 8.14-31.08 2.39-5.79-3.86-8.73-11.43-8.73-22.5 0-11.06 2.94-18.63 8.73-22.5zM368.04 268.76 348.65 148.5V85.19c4.18-.71 9.56-1.97 15.19-4.22 5.94-2.42 12.27-6.01 17.41-11.83 5.15-5.76 8.71-14 8.65-23.55-.04-11.84-4.83-25.2-15.48-41.37-2.86-4.33-8.7-5.53-13.03-2.66a9.398 9.398 0 0 0-2.66 13.03c9.49 14.33 12.41 24.57 12.36 31-.06 5.23-1.55 8.28-3.97 11.14-3.59 4.22-10.43 7.32-16.58 8.85-3.05.79-5.86 1.24-7.85 1.49-.99.12-1.78.2-2.3.23-.13.01-.24.02-.33.03-.17-.01-.33-.03-.5-.03h-45.41c-.18 0-.36.02-.54.03-1.8-.11-10.17-.94-17.45-4.11-3.99-1.7-7.52-4.02-9.81-6.76-2.28-2.79-3.68-5.8-3.74-10.87-.05-6.43 2.87-16.67 12.36-31 2.86-4.34 1.67-10.17-2.66-13.03-4.33-2.86-10.17-1.67-13.03 2.66-10.65 16.17-15.44 29.53-15.48 41.37-.06 9.55 3.5 17.79 8.65 23.56 7.76 8.7 17.96 12.51 26 14.64 2.4.62 4.63 1.07 6.6 1.41v63.3l-19.39 120.27c-1.28 7.92 4.11 15.38 12.03 16.66 7.92 1.28 15.38-4.11 16.66-12.03l17.34-107.54h10.29l17.34 107.54c1.28 7.93 8.74 13.31 16.66 12.03 7.92-1.28 13.31-8.73 12.03-16.66zM312.4 76.91h8.93l2.23 8.82-.34.54c-1.84 1.53-4.1 2.3-6.36 2.31-2.27 0-4.52-.77-6.36-2.3l-.34-.54 2.23-8.82zm4.47 75.81-11.17-14.1 6.43-47.39c1.52.57 3.13.87 4.73.87h.01c1.6 0 3.2-.3 4.73-.87l6.43 47.39-11.17 14.1z"/><path d="M290.41 34.15c0 14.61 11.84 26.45 26.45 26.45s26.44-11.84 26.44-26.44c0-14.61-11.84-26.45-26.44-26.45-14.61 0-26.45 11.84-26.45 26.44z"/></g></svg>