<svg xmlns="http://www.w3.org/2000/svg" xml:space="preserve" viewBox="0 0 270.07 298.78" shape-rendering="geometricPrecision" text-rendering="geometricPrecision" image-rendering="optimizeQuality" fill-rule="evenodd" clip-rule="evenodd"><g fill="currentColor"><path d="M118.6 68.61c-1.43-1.3-2.86-2.74-4.3-4.35-3.77-4.31-10.32-4.74-14.62-.97-1.87 1.64-3.01 3.8-3.39 6.07h-18.2c.42-1.14.78-2.31 1.06-3.52 3.65-15.67-6.1-31.34-21.77-34.99-15.68-3.65-31.34 6.1-34.99 21.77-3.65 15.67 6.1 31.34 21.77 34.99 12.85 2.99 25.7-3.03 31.92-13.93h20.4c.39 1.52 1.12 2.97 2.23 4.23 11.7 13.54 25.89 20.02 39.32 21.75a45.87 45.87 0 0 1-3.44-2.8c-7.47-6.76-12.82-16.24-15.99-28.25zM26.65 211.3c.92.16 1.85.26 2.81.26h41.73L57.28 261.4c-2.4 8.62 2.63 17.55 11.24 19.95 1.46.41 2.92.6 4.36.6 7.08 0 13.59-4.69 15.59-11.84l19.65-70.39c1.37-4.9.38-10.09-2.7-14.14-3.07-4.05-7.81-6.4-12.9-6.4h-50c-4.88-4.69-8.37-9.39-10.8-13.48-6.24-10.42-9.42-22.25-9.42-35.14.01-8.31 1.36-14.19 1.78-15.8 1.53-5.7 6.67-9.64 12.52-9.64 1.13 0 2.26.15 3.35.44 6.9 1.85 11 8.96 9.16 15.85-.01.05-.03.14-.05.27-.09.4-.21 1.01-.34 1.82-.24 1.55-.52 4.03-.52 7.06 0 4.01.51 9.42 2.54 15.05 1.34-7.27 2.8-14.11 3.97-20.09 3.72-12.89-1.15-28.33-12.2-31.08-11.06-2.76-27.09 3.25-33.61 22.22-8.81 26.13-10.71 43.14-7.36 71.92 3.48 17.92 14.53 22.02 25.1 22.73z"/><path d="M46.18 123.09c.14-.88.27-1.54.36-1.94.04-.2.07-.34.09-.41 1.48-5.52-1.81-11.2-7.33-12.68-5.53-1.48-11.21 1.8-12.69 7.33-.16.62-1.69 6.47-1.7 15.17 0 9.1 1.71 21.55 9.06 33.81 2.5 4.21 5.7 8.33 9.62 12.21h39.88c-.61-.37-1.27-.69-1.98-.94-16.52-5.83-24.87-13.92-29.75-21.94-4.84-8.04-6.1-16.59-6.1-23.15 0-3.1.28-5.71.55-7.46zM186.48 57.19c15.49-4.37 24.5-20.47 20.13-35.96-4.37-15.49-20.47-24.5-35.96-20.13-15.48 4.37-24.5 20.47-20.13 35.96 4.37 15.49 20.47 24.5 35.96 20.13zM195.58 286.24c1.74 7.48 8.4 12.54 15.76 12.54 1.21 0 2.44-.14 3.67-.42 8.71-2.02 14.13-10.73 12.11-19.44-4.43-19.08-6.47-35.48-7.06-49.35 24.65-2.32 49.41-7.66 49.7-13.56 3.53-72.59-23.33-156.32-61.86-156.32-13.38 0-15.86 1.25-18.47 3.37-.52.28-1.02.59-1.5.97-.28.22-5.59 4.25-13.45 8.07-5.96 2.92-13.35 5.64-20.99 6.78 3.44 2.5 7.57 3.65 13.14 3.69h.13c5.58 0 12.77-1.53 19.73-4.19 5.87-2.22 10-4.58 10.04-4.61 1.98-1.16 4.24-1.77 6.53-1.77 4.59 0 8.87 2.46 11.19 6.42 1.75 2.98 2.23 6.47 1.36 9.82-.88 3.34-3 6.15-5.99 7.9-1.37.79-6.22 3.48-13.19 6.18-6.23 2.39-12.12 4.05-17.8 5.05.03 14.84 1.34 29.89 2.2 39.18 1.97 21.37-17.17 69.98-9.25 79.98 1.8 2.28 7.86 3.55 16.12 4.04.66 16.04 2.98 34.58 7.88 55.68zm21.26-108.78-21.24 7.1-1.55-5.39 21.93-5.37.86 3.67zM117.4 49.38h-3.07v-1.62H103v10.36h11.33V56.5h1.94c-.31-2.47.09-4.92 1.13-7.12zM142.47 56.51h4.56v-7.12h-6.22c.56 1.18.96 2.46 1.14 3.81.15 1.14.33 2.24.52 3.32z"/><path d="M212 79.71c-2.89-4.94-9.24-6.6-14.18-3.71-.3.17-4.48 2.54-10.42 4.79-6 2.3-13.81 4.39-20.8 4.36-6.55-.04-11.9-1.56-16.36-5.58-4.45-4.03-8.9-11.52-10.86-26.03-.76-5.67-5.97-9.66-11.64-8.9-5.67.75-9.66 5.97-8.9 11.64 2.32 17.62 8.39 30.43 17.49 38.67 9.02 8.19 20.17 10.93 30.03 10.93h.24c11.18-.03 21.31-3.08 28.87-5.99 7.54-2.93 12.48-5.81 12.82-6 4.94-2.89 6.6-9.24 3.71-14.18zM99.54 52.3H88.53v1.29h11.01zM99.48 46.92l-9.88-4.87-.57 1.16 9.88 4.87zM89.6 63.84l9.88-4.86-.57-1.17-9.88 4.87z"/></g></svg>