<svg xmlns="http://www.w3.org/2000/svg" xml:space="preserve" viewBox="0 0 720.59 879.1" shape-rendering="geometricPrecision" text-rendering="geometricPrecision" image-rendering="optimizeQuality" fill-rule="evenodd" clip-rule="evenodd"><g fill="currentColor"><path d="M398.05 109.05c29.72-6.92 48.2-36.62 41.28-66.34-6.92-29.72-36.63-48.2-66.35-41.27-29.72 6.92-48.2 36.61-41.28 66.33 6.92 29.72 36.62 48.2 66.34 41.28zM442.7 135.9c4.61 23.57 11.67 54.16 13.83 84.67 4.7-13.68 7.09-27.64 7.18-41.98.05-26.39-8.78-43.97-8.88-44.15-6.44-12.17-1.82-27.33 10.27-33.82a25.027 25.027 0 0 1 33.92 10.22c3.53 6.81 14.73 31.31 14.79 67.77.16 34.81-10.7 87.77-63.36 142.29a24.75 24.75 0 0 1-11.8 6.87 398.097 398.097 0 0 0-5.28 64.02c-.01 38.57 5.8 82.77 22.89 128.91 4.59 12.38 16.32 20.04 28.79 20.04 3.54 0 7.15-.62 10.66-1.92 15.9-5.89 24.02-23.55 18.13-39.45-14.22-38.38-19.07-75.1-19.07-107.58-.01-34.69 5.6-64.45 11.16-85.25.96-3.59 1.91-6.9 2.84-9.94 15.51-3.93 29.56-14.44 34.75-41.15 6.35-54.56 2.76-86.81-13.96-136.36-12.37-35.96-42.76-47.35-63.73-42.12-20.96 5.22-30.18 34.48-23.13 58.93z"/><path d="M508.41 178.62c-.06-38.56-13.2-63.4-14.14-65.23-5.14-9.56-17.05-13.15-26.61-8.01-9.52 5.11-13.12 16.95-8.07 26.5l.05.11c.86 1.68 9.51 19.93 9.46 46.64-.18 28.82-9.22 67.69-50.87 111.3-7.52 7.82-7.27 20.26.55 27.78 3.81 3.66 8.71 5.48 13.61 5.48 5.16 0 10.31-2.02 14.17-6.03 48.33-50.05 62.01-100.76 61.84-138.53zM115.03 687.43v39.3H96.61v-74.91H22.93v117.07H0v14.74h459.3v-14.74h-27.83v-41.75H393.8v-53.21h-60.17v67.95h-26.61v27.01h-20.06v-63.04h-54.88v-53.53h-17.19v53.53h-26.17v-18.42z"/><path d="M425.85 547.52v19.65h31.93v311.92h262.81V547.52z"/></g></svg>