<svg xmlns="http://www.w3.org/2000/svg" xml:space="preserve" viewBox="0 0 673.1 528.48" shape-rendering="geometricPrecision" text-rendering="geometricPrecision" image-rendering="optimizeQuality" fill-rule="evenodd" clip-rule="evenodd"><g fill="currentColor"><path d="M540.36 245.63v-30.4H480.6v30.4h5.87zM437.87 182.7l-34.27 21.13 25.77 41.8h47.28zM378.09 428.7h239.66c2.76 0 5.02 2.26 5.03 5.03v93.93h50.33v-93.93c-.02-30.58-24.77-55.34-55.35-55.35H379.33c1.39 6.64 2.13 13.61 2.12 20.81-.08 9.43-1.19 19.21-3.35 29.52zM50.32 433.73c0-2.77 2.27-5.03 5.03-5.03h48.77c-2.15-10.29-3.26-20.05-3.33-29.46a100.6 100.6 0 0 1 2.11-20.86H55.35C24.77 378.4.01 403.15 0 433.74v93.93h50.32v-93.93zM303.75 392.36c-.11-.07-.22-.15-.35-.23l-.15-.1-.15-.1c-1.29-.8-7.24-2.39-13.72-2.39H288.29c-5.52 0-10.65.79-11.72 1-2.61.54-5.24.81-7.85.81-10.49 0-20.46-4.42-27.59-11.8-7.13 7.39-17.11 11.8-27.61 11.8-2.61 0-5.25-.27-7.82-.8l-.04-.01-.27-.06c-.49-.09-1.34-.22-2.45-.36-2.08-.27-5.41-.59-9.06-.59h-.56c-5.63 0-10.59.95-12.83 1.84-1.21.51-1.77.81-2 .96 0 .01-.01.02-.01.04-.6 1.31-.94 3.73-.95 6.83-.11 6.31 1.69 16.26 6.2 29.49h114.79c4.51-13.22 6.31-23.14 6.19-29.38-.01-3.21-.36-5.68-.95-6.96z"/><path d="M176.05 363.75c3.96 5.19 9.95 7.91 16.01 7.91 4.27 0 8.56-1.35 12.21-4.13 8.84-6.75 10.52-19.38 3.77-28.21-30.4-39.84-38.63-69.28-38.64-89.89.06-19.12 6.89-32.15 14.11-41.38l4.55 2.34c-9.12 11.35-13.58 24.13-13.64 39.06.02 24.91 12.66 54.12 37.62 86.81 4.07 5.34 5.83 11.95 4.94 18.61-.89 6.66-4.32 12.58-9.67 16.66-4.43 3.38-9.7 5.16-15.26 5.16-7.92 0-15.22-3.6-20.02-9.89-9.46-12.37-17.5-24.54-24.17-36.51a82.951 82.951 0 0 0-6.1 3.4c-9.37 5.83-18.4 14.74-24.43 26.23-6.09 11.48-9.04 24.95-9.01 39.24.25 30.52 11.82 65.63 37.92 113.35 5.61 10.2 16.15 15.96 27.02 15.96 5.03 0 10.13-1.23 14.85-3.83 14.91-8.22 20.33-26.97 12.13-41.87-23.7-42.65-30.52-70.47-30.27-83.6.02-6.24 1.15-9.04 1.86-10.41 1.09-1.83 1.85-2.72 5.87-4.4 3.84-1.52 10.22-2.42 16.06-2.37 3.97-.01 7.66.33 10.16.65 1.26.16 2.22.32 2.77.42.16.03.29.05.38.07l.15.03c14.03 2.92 27.82-4.24 33.89-16.56 6.06 12.32 19.85 19.47 33.89 16.56l.1-.02c.94-.19 6.73-1.16 13.36-1.14 7.88-.16 16.32 1.79 19.13 3.86 1.54 1.03 2.03 1.56 2.8 2.91.71 1.37 1.83 4.17 1.85 10.41.26 13.13-6.57 40.95-30.25 83.61-8.21 14.91-2.78 33.66 12.13 41.87 4.72 2.6 9.81 3.83 14.84 3.83 10.88 0 21.41-5.76 27.03-15.96 26.07-47.73 37.65-82.83 37.9-113.35.03-14.29-2.92-27.76-9.01-39.23-7.37-14.12-18.97-23.82-30.49-29.7-6.68 11.99-14.73 24.18-24.21 36.57-4.8 6.28-12.09 9.89-20.01 9.89-5.55 0-10.84-1.78-15.26-5.16-5.34-4.08-8.78-10-9.66-16.66-.89-6.66.86-13.27 4.94-18.61 24.95-32.69 37.6-61.91 37.61-86.81-.05-14.93-4.51-27.71-13.63-39.06l4.54-2.34c7.23 9.23 14.05 22.26 14.12 41.38-.01 20.61-8.24 50.05-38.65 89.89-6.75 8.83-5.06 21.46 3.78 28.21 3.65 2.79 7.95 4.13 12.21 4.13 6.06 0 12.05-2.72 16.01-7.91 34.01-44.45 46.91-82.56 46.9-114.33.06-25.46-8.43-45.68-18.15-60.04-1.86-2.75-3.75-5.3-5.66-7.61-11.88-14.5-23.43-21.28-24.82-22.12v.01c-.6-.35-1.22-.67-1.85-.95-1.88 28.3-22.93 51.43-50.27 56.48l12.68 93.42-23.9 30.19-23.9-30.19 12.68-93.42c-27.33-5.05-48.39-28.18-50.27-56.48-.62.28-1.24.6-1.85.95v-.01c-1.39.84-12.94 7.61-24.82 22.12-1.9 2.31-3.79 4.86-5.66 7.61-9.72 14.36-18.2 34.58-18.15 60.04-.01 31.76 12.89 69.87 46.9 114.32z"/><path d="M241.12 211.22c31.27 0 56.61-25.34 56.61-56.61S272.39 98 241.12 98c-31.26 0-56.61 25.35-56.61 56.61 0 31.27 25.35 56.61 56.61 56.61zM212.56 72.14c-2.22 2.76 1.11 7.18 3.32 4.42 6.18-7.68 8.87-18.8 6.84-29.7-2.03-10.86-9.77-16.08-5.59-28.46 1.63-4.81 4.79-9.34 8-12.42 2.44-2.33.09-7.77-2.37-5.41-6.14 5.9-10.78 14.3-11.78 24.41-1.08 10.9 6.96 17.9 7.87 28.13.61 6.89-2.61 14.43-6.29 19.02zM240.06 72.14c-2.22 2.76 1.11 7.18 3.32 4.42 6.18-7.68 8.87-18.8 6.84-29.7-2.02-10.86-9.77-16.08-5.58-28.46 1.63-4.81 4.79-9.34 8-12.42 2.43-2.33.09-7.77-2.37-5.41-6.14 5.9-10.78 14.3-11.78 24.41-1.08 10.9 6.97 17.9 7.87 28.13.61 6.89-2.61 14.43-6.29 19.02zM267.57 72.14c-2.22 2.76 1.11 7.18 3.32 4.42 6.17-7.68 8.87-18.8 6.84-29.7-2.03-10.86-9.77-16.08-5.59-28.46 1.63-4.81 4.79-9.34 8-12.42 2.43-2.33.09-7.77-2.37-5.41-6.14 5.9-10.77 14.3-11.78 24.41-1.08 10.9 6.97 17.9 7.87 28.13.61 6.89-2.61 14.43-6.3 19.02zM424.83 257.49v106.39h123.28V257.49l31.3 43.69 4.09-2.92-34.09-47.6H423.53l-34.09 47.6 4.1 2.93z"/></g></svg>