<svg xmlns="http://www.w3.org/2000/svg" xml:space="preserve" viewBox="0 0 1030.9 590.49" shape-rendering="geometricPrecision" text-rendering="geometricPrecision" image-rendering="optimizeQuality" fill-rule="evenodd" clip-rule="evenodd"><g fill="currentColor"><path d="M486.81 355.85h185.48v219.32h22.43V355.85h27.42v-29.91H441.52zM436.19 441.31c-.57 1.08-2.21 3.79-2.49 4.93.72.97 3.12 3 5.53 4.98l1.09.62c1.26 1.03 2.69 2.1 5.18 3.23v-22.74c-4.98 3.16-7.91 6.33-9.32 8.98zM381.97 466.92l-56.47-68.64 4.49-3.7-8.88-10.79-59.65 40.93a36.654 36.654 0 0 1-19.04 6.4l-28.26 23.25c-17.47-23.05-36.01-45.27-55.52-66.63-26.91-19.39-51.47-41.74-74.73-72.69-1.83.82-3.59 1.58-5.31 2.31-6.54 2.77-14.86 6.04-23.72 8.39a917.503 917.503 0 0 1 206.29 250.22l21.51-17.69c-5.82-10.23-11.87-20.32-18.06-30.32l78.76-64.79 18.43 22.4c6.38-7.49 13.5-13.32 20.15-18.65zm-125.38 48.29a947.225 947.225 0 0 0-26.18-38.7l73.92-60.82 29.56 35.93-77.3 63.59zM336.86 283.52a36.744 36.744 0 0 1 20.87-6.47c7.41 0 14.58 2.2 20.71 6.36l47.45 32.2 96.14-2.7c17.2-.48 30.75-14.82 30.27-32.02-.48-16.9-14.32-30.28-31.13-30.28-.29 0-.59 0-.89.01l-162.83 4.57c-7.49.21-14.66 3.12-20.18 8.18l-59.25 54.34c1.61.93 3.25 1.85 4.96 2.77l53.88-36.97z"/><path d="M473.76 581.48c-.34-3.76.81-7.42 3.22-10.31l4.09-4.89c-3.23-16.1-8.34-49.19.11-65.57.99-1.92 2.03-3.74 3.13-5.49-16.82-25.09-38.79-31.38-48.05-38.95-9.71-7.94-10.51-8.24-5.51-17.65 5-9.41 25.01-18.68 25.59-28.24.59-9.56-45.23-21.62-36.85-6.62 8.38 15.01-33.32-8.38-39.94-.44-6.62 7.95 30.01 24.27 35.3 36.19 5.3 11.91-8.16 14.12-20.52 24.71-12.36 10.59-27.95 20.3-37.65 39.13-8.45 16.38-1.09 54.77.97 64.49l-5.87 7.01c-2.96 3.54-2.49 8.85 1.05 11.81 3.54 2.96 8.85 2.49 11.81-1.05l5.61-6.71c10.47 5.86 27.95 12.35 53.2 11.52 23.28-.76 37.8-5.93 46.42-10.74l4.94 5.9c-.53-1.3-.93-2.66-1.06-4.1zm-55.67-23.76v-6.17c-7.48-.61-13.27-3.48-18.36-8.25l8.7-5.64c5.34 4.6 8.76 6.08 13.97 6.08 5.34 0 8.72-2.69 8.72-6.95 0-2.34-1.22-4.6-3.33-6.34-2.11-1.65-3.35-2.34-10.67-5.99-12.17-6.08-16.28-10.25-16.28-17.28 0-7.99 7.28-13.89 17.25-15.02v-6.71h7.48v6.71c4.98.52 11.73 2.61 16.57 6.42l-8.66 5.91c-3.35-3.21-6.75-4.52-11.22-4.52-5.59 0-9.09 2.52-9.09 6.6 0 2.26 1.11 4.34 3.22 5.91 1.86 1.39 2.73 1.82 9.8 5.21 13.29 6.51 17.57 10.94 17.57 18.67 0 8.6-5.73 14.16-18.19 15.2v6.17h-7.48z"/><path d="M509.15 403.32c-6.62 7.95 30.01 24.27 35.3 36.19 5.3 11.91-8.16 14.12-20.52 24.71-12.35 10.59-27.95 20.3-37.65 39.13-8.44 16.38-1.09 54.77.97 64.49l-5.87 7.01c-2.96 3.54-2.49 8.85 1.05 11.81 3.54 2.96 8.85 2.49 11.81-1.05l5.61-6.71c10.47 5.86 27.95 12.35 53.2 11.52 23.28-.76 37.81-5.93 46.42-10.74l6.07 7.25c2.96 3.54 8.27 4.01 11.81 1.05 3.54-2.96 4.01-8.27 1.05-11.81l-6.64-7.94c4.65-10.04 19.05-45.3 4.54-69.3-17.06-28.24-40.75-34.71-50.45-42.66-9.71-7.94-10.52-8.24-5.52-17.65 5-9.41 25.01-18.68 25.59-28.24.59-9.56-45.23-21.62-36.85-6.62 8.38 15.01-33.32-8.38-39.93-.44zm38.53 88.84v-6.71h7.48v6.71c4.98.52 11.73 2.61 16.58 6.42l-8.66 5.91c-3.35-3.21-6.75-4.52-11.22-4.52-5.59 0-9.09 2.52-9.09 6.6 0 2.26 1.11 4.34 3.22 5.91 1.86 1.39 2.73 1.82 9.8 5.21 13.29 6.51 17.57 10.94 17.57 18.67 0 8.6-5.73 14.16-18.19 15.2v6.17h-7.48v-6.17c-7.48-.61-13.27-3.48-18.36-8.25l8.7-5.64c5.34 4.6 8.76 6.08 13.97 6.08 5.34 0 8.73-2.69 8.73-6.95 0-2.34-1.23-4.6-3.34-6.34-2.11-1.65-3.35-2.34-10.67-5.99-12.17-6.08-16.28-10.25-16.28-17.28 0-7.99 7.28-13.89 17.25-15.02z"/><path d="M227.12 165.92c.02.85.08 1.71.21 2.58l7.29 47.02-47.13-4.35c-5-.46-9.74.99-13.52 3.74-.21.12-.45.23-.65.36-1 .67-2.06 1.35-3.09 2.03-2.09 12.01-7.69 23.13-16.33 32.11-11.76 12.24-27.59 18.98-44.57 18.98-8.33 0-16.43-1.67-23.92-4.81-15.56 8.36-31.89 15.32-42.59 18.28 2.87-6.71 8.66-17.59 20.15-34.44-11.77-13.34-16.81-30.64-15.05-47.39C1.47 261.42-9.43 292.89 7.48 312.44c6.78 7.85 16.06 10.7 26.14 10.7 14.21 0 30.02-5.67 42.74-11.05 3.21-1.36 6.35-2.77 9.38-4.17 37.99 51.91 78.9 79.66 136.16 113.21 4.13 2.43 8.56 3.63 12.77 3.76 7.9 1.53 16.38.02 23.54-4.89l99.61-68.35 60.15 40.82c2.06-1 4.66-1.52 7.83-1.52 10.08 0 26.72 5.23 33.06 11.99 2.84 3.02 3.3 5.91 3.19 7.8-.2 3.29-1.65 6.27-3.78 9.07l4.09 2.77a30.972 30.972 0 0 0 17.46 5.38c9.98 0 19.78-4.79 25.81-13.66.16-.24.29-.49.44-.73-1.92-2.3-3.08-4.55-3.38-6.94-.32-2.53.41-5 2.05-6.97 1.49-1.79 3.59-2.92 6.23-3.43-.19-9.77-4.93-19.3-13.63-25.2l-122.12-82.86a31.162 31.162 0 0 0-35.12.09l-56.74 38.93c-40.39-20.92-56.1-43.52-66.26-73.24l39.31 3.63c.61.06 1.22.08 1.83.08 5.47 0 10.74-2.25 14.53-6.28a19.89 19.89 0 0 0 5.17-16.71l-7.02-45.22 3.69-1.91.99-5.3 4.37-23.43-5.87.78-2.4-1.11-7.79-3.6c-4.08-6.5-11.73-10.32-19.78-9.14l-.61-.28 1.16-5.55.05-.23-1.94-1.52 4.82-22.95-14.15-9.7 8.65-41.19-17.99-3.78-20.98 99.92 2.92 1.75-1.72 2.95 4.25 2.49 1.69-2.9 1.5.89 7.49 4.26-1.62 7.71 4.82 1.01.35-1.66 2.28-10.87 2-.14zm5.49-56.25 10.63 7.28-3.88 18.49-10.45-8.16 3.7-17.61z"/><path d="M68.93 167.71c-21.46 22.33-20.76 57.82 1.57 79.28 22.33 21.46 57.82 20.76 79.29-1.57 21.46-22.33 20.76-57.82-1.57-79.29-22.33-21.46-57.82-20.76-79.28 1.57zM570.11 310.99h57.33v-14.95h-57.33zM627.44 271.11h-57.33v14.96h57.33zM642.39 310.99h59.81v-14.95h-59.81zM702.2 271.11h-59.81v14.96h59.81zM990.27 141.98c-9.81-9.22-19.37-13.07-26.69-14.61-2.78 18.96-9.67 82.69 10.27 123.77v-64.59c9.97 21.24 21.21 65.63 15.85 157.27-.64 10.99 7.7 20.42 18.69 21.07.4.03.77.03 1.16.03 10.48 0 19.25-8.18 19.87-18.77 6.16-105.29-7.02-173.99-39.15-204.17zM849.24 127.37c-7.32 1.54-17.07 5.39-26.89 14.61-32.13 30.19-45.35 98.88-39.19 204.17.62 10.6 9.38 18.78 19.86 18.77.39 0 .77-.01 1.17-.03 10.99-.64 19.58-10.08 18.94-21.07-5.12-87.57 3.68-134.25 16.15-157.42v64.74c19.94-41.08 12.75-104.81 9.97-123.77zM906.26 179.57c22.71 0 38.27-40.54 42.94-53h-85.89c4.68 12.46 20.24 53 42.94 53zM906.26 303.51h-66.99v3.95l-28.52 248.41c-1.93 16.91 10.12 32.17 27.03 34.1 16.9 1.93 32.12-9.92 34.05-26.83l25.87-227.23h17.11l25.93 227.23c1.93 16.91 17.2 28.9 34.1 26.98 16.91-1.93 29.15-17.27 27.23-34.18l-28.22-248.52v-3.91h-67.59zM906.26 112.15c30.97 0 56.07-25.1 56.07-56.08C962.33 25.1 937.22 0 906.26 0c-30.97 0-56.07 25.11-56.07 56.07 0 30.97 25.1 56.07 56.07 56.08z"/></g></svg>