<svg xmlns="http://www.w3.org/2000/svg" xml:space="preserve" viewBox="0 0 4598.84 2827.25" shape-rendering="geometricPrecision" text-rendering="geometricPrecision" image-rendering="optimizeQuality" fill-rule="evenodd" clip-rule="evenodd"><g fill="currentColor"><path d="M1542.72 127.31c0-44.93-36.42-81.35-81.34-81.35-44.93 0-81.35 36.42-81.35 81.35 0 44.93 36.42 81.35 81.35 81.35 44.92 0 81.34-36.42 81.34-81.35zM1900.17 2047.69l-7.78-65.64 48.76 44.61c47.97 43.88 83.43 86.75 109.55 127.2 25.51-10.79 47.28-28.59 63.17-50.86 1.55 2.18 3.13 4.32 4.8 6.41-9.22-37.99-24.42-75.17-45.76-111.33l-43.18-73.17 75.58 38.84c102.38 52.59 176.47 108.53 230.06 162.71 29.75-27.21 48.51-66.22 48.51-109.72 0-67.37-44.78-124.22-106.19-142.57 5.89-16.01 9.26-33.23 9.26-51.28 0-82.21-66.64-148.86-148.85-148.86-82.21.01-148.85 66.65-148.85 148.86 0 15.75 2.49 30.92 7.02 45.17-1.19-.02-2.37-.18-3.57-.18-82.21 0-148.85 66.65-148.85 148.86 0 51.52 26.18 96.91 65.95 123.63-1.89-27.11-5.38-56.6-9.24-89.18l-.42-3.5zM4080.08 2203.08v72.99c6.92 40.56 12.66 76.42 12.27 105.13 13.58-29.13 25.8-82.47 21.7-178.62-6.6.69-12.85 1.08-19.59 1.08-4.97 0-7.47-.21-14.38-.58zM4231.59 2100.45l10.08-15.74 12.12 14.23c37.36 43.83 91.72 68.97 149.16 68.97 108.01 0 195.88-87.88 195.88-195.88 0-80.9-50.84-154.53-126.52-183.2l-10-3.79 1.14-10.64c.64-5.94.96-11.83.96-17.48 0-88.73-72.2-160.92-160.94-160.92-10.04 0-20.25.97-30.33 2.89l-9.48 1.8-4.97-8.27c-43.18-71.84-118.91-114.72-202.59-114.72-24.48 0-48.1 3.74-70.31 10.69 1.34 10.17 2.09 20.5 2.09 30.96 0 11.46-.84 22.96-2.49 34.33 112.25 19.97 195.18 117.81 195.18 233.35 0 130.75-106.37 237.12-237.12 237.12-6.09 0-12.12-.31-18.13-.76 49.93 49.26 84.86 97.37 109.2 141.42 18.72 7.3 38.69 11.15 59.22 11.15 6.23 0 12.39-.4 18.49-1.09-.54-7.78-1.18-15.79-1.94-24.08l-6.64-72.87 53.57 49.88c8.24 7.67 16.01 15.4 23.51 23.17 20.11-12.65 37.54-29.75 50.85-50.54zM2832.55 1996.99c18.03-19.66 40.83-35.11 67.09-44.31-12.75-25.53-19.43-53.71-19.43-82.48.01-100.56 80.76-182.57 180.83-184.68 20.05-42.53 52.37-78.32 93.29-102.45-42.38-63.47-114.65-105.38-196.54-105.38-83.68 0-159.4 42.88-202.59 114.72l-4.97 8.27-9.49-1.8c-10.07-1.91-20.27-2.89-30.32-2.89-88.74 0-160.94 72.19-160.94 160.92 0 5.65.32 11.53.95 17.48l1.14 10.64-9.99 3.79c-75.68 28.68-126.52 102.29-126.52 183.2 0 96.8 70.6 177.38 162.99 193.07-1.01-33.68-5.44-71.14-10.52-113.9l-.42-3.5-7.78-65.64 48.76 44.61c43.04 39.37 76.02 77.93 101.21 114.66 18.96-11.04 36.18-25.27 50.77-42.39l12.12-14.24 10.08 15.75c.59.91 1.23 1.76 1.83 2.66-9.34-35.79-24.08-70.85-44.25-105.02l-43.18-73.17 75.58 38.84c21.31 10.95 41.36 22.04 60.29 33.24zM3592.95 2024.15c-4.05 0-8.53-.12-12.55-.32 43.18 57.41 70.43 111.4 84.28 159.1v-170.09c-20.76 7.42-46.69 11.31-71.73 11.31z"/><path d="M3943.46 1996.46c115.48 0 209.43-93.95 209.43-209.43 0-106.4-79.62-195.81-185.19-207.96l-15.08-1.74 3.11-14.85c2.96-14.18 4.46-28.69 4.46-43.13 0-84-49.93-159.62-127.2-192.65l-14.9-6.36 8.62-13.72c17.05-27.16 26.07-58.51 26.07-90.65 0-94.17-76.61-170.79-170.77-170.79-86.02 0-158.86 64.3-169.42 149.57l-1.93 15.58-15.22-3.87a238.15 238.15 0 0 0-58.53-7.29c-130.74 0-237.11 106.37-237.11 237.12 0 44.69 12.56 88.28 36.32 126.04l10.34 16.44-8.85 2.07c74.33 3.01 133.92 64.25 133.92 139.31 0 21.11-4.76 41.81-13.86 60.66 37.11 20.04 64.68 53.16 78.04 92.15l47.3 43.27c28.49 26.06 53.1 51.81 74.37 77.03 11.93 2.08 24.1 3.21 36.46 3.21 28.91 0 56.91-5.92 82.63-16.96-10.5-32.53-24.95-64.5-43.42-95.82l-49.19-83.31 86.07 44.2c91.02 46.76 162.38 95.84 218.36 144.48 17.75 4.83 36.27 7.4 55.18 7.4zM3102.1 1669.1c-4.01 5.9-7.7 12-11.1 18.3 1.69.24 3.39.36 5.07.64 1.53-6.53 3.62-12.83 6.03-18.94zM3131.59 2345.82c6.93 34.33 11.13 64.71 10.8 89.17 12.08-25.95 23.08-73.67 19.01-160.38-10.09-.59-22.89-2.08-29.81-4.43v75.63z"/><path d="m3426.03 1971.87-15.09-1.74 3.11-14.86a138.76 138.76 0 0 0 2.95-28.47c.01-55.45-32.95-105.36-83.95-127.16l-14.91-6.36 8.62-13.72c11.17-17.79 17.08-38.35 17.08-59.4 0-61.7-50.2-111.91-111.9-111.91-56.37 0-104.1 42.13-111.02 98l-1.93 15.57-15.22-3.85a157.949 157.949 0 0 0-38.79-4.84c-86.62 0-157.1 70.47-157.1 157.09.01 29.61 8.33 58.48 24.06 83.51l10.35 16.44-18.91 4.41c-26.11 6.09-48.86 19.3-66.63 37.19 98.61 61.98 163.22 126.32 205.45 185.41l1.21-1.23 9.88 10.05c23.44 23.86 53.93 38.04 86.82 40.79-.35-4.65-.7-9.26-1.14-14.11l-5.83-64 47.04 43.79c8.69 8.09 16.85 16.24 24.61 24.43 21.37-8.85 40.42-23.09 55.32-41.84l10.83-13.63 10.83 13.63c24.27 30.52 59.49 49.04 97.86 51.88 58.82-72.41 54.39-153.87 40.7-272.6-4.69-1.04-9.46-1.91-14.32-2.47z"/><path d="M3183.45 2230.45c24.21 266.07-72.65 262.11-72.65 262.11s88.79-281.65-349.77-506.95c137.22 232.5-5.38 438.64-5.38 438.64s56.5-177.66-164.13-379.45c10.89 91.83 19.81 164.24-3.12 227.51 38.35 48.92 62.12 98.81 75.82 146.95 36.84 23.81 108.09 81.36 109.59 171.08 96.86-26.24 149.17-136.39 167.49-264.36 185.64 195.74 33.63 398.2 33.63 398.2s149.54-83.34 213.14-178.54c.19-17.63 1.77-35.44 5.27-53.2 11.06-56.12 38.98-104.22 83.08-143.58-21.48-40.01-51.63-79.92-92.96-118.4z"/><path d="M4138.16 2146.75c27.56 302.98-82.73 299.24-82.73 299.24s101.11-320.33-398.3-576.89c156.26 264.76-6.12 499.68-6.12 499.68.01 0 64.33-202.21-186.9-432 21.45 180.78 36.4 294.09-131.75 402.96-196.93 127.51-94 349.06-50.21 425.21h-32.07c-11.05-20.76-23.91-47.3-35.09-78.14-8.11 37.2-22.29 71.22-39.68 78.14h-579.64c44.06-83.07 142.11-330.08-79.17-536.03 24.21 266.07-72.65 262.88-72.65 262.88.01 0 88.8-281.27-349.77-506.57 137.22 232.51-5.37 438.83-5.37 438.83s56.49-177.57-164.14-379.36c18.83 158.75 31.97 258.08-115.7 353.69-167.53 108.47-87.94 297.34-47.83 366.56h-27.95c-27.4-48.45-64.15-143.21-46.32-233.8 12.43-63.08 49.01-113.9 108.75-152.58 71.04-45.99 101.46-91.39 111.62-147.53-23.42-11.12-49.6-17.17-77.25-17.17-99.58 0-180.3 80.81-180.3 180.39 0 19.04 2.97 37.43 8.44 54.66-1.42-.03-2.83-.08-4.25-.08-99.58 0-180.3 79.21-180.3 178.78 0 55.85 25.41 109.64 65.28 137.33h-186.43v62.31h3205.45v-62.31H4224.3c47.7-83.07 172.87-377.13-86.13-618.19zm-781.99 484.05c3.67-18.1 12.79-42.65 51.13-67.47 58.61-37.95 138-126.76 115.02-214.07 0 0 147.08 71.08 149.37 208.96 110.29-29.87 169.86-155.39 190.73-301.1 211.4 222.9 38.29 453.4 38.29 453.4.01 0 193.79-106.84 255.84-224.02 50.55 68.93 20.67 257.67-32.06 278.44h-744.08c-17.54-41.54-32.68-92.56-24.24-134.14zm-1405.86-224.12s129.15 62.55 131.17 183.64c96.86-26.24 149.16-136.39 167.49-264.36 185.64 195.74 33.63 398.2 33.63 398.2s170.18-96.36 224.67-199.28c43.13 58.82 19.59 219.28-24.26 240.05h-658.13c-15.05-34.62-27.75-77.45-20.48-113.31 3.23-15.9 11.24-36.18 44.91-57.98 51.47-33.33 121.19-110.3 101.01-186.97zM1448.58 2145.57c0-56.31-45.65-101.97-101.97-101.97-56.3.01-101.96 45.66-101.96 101.97.01 56.32 45.66 101.97 101.96 101.97 56.32 0 101.96-45.65 101.97-101.97zM1468.41 2260.27c0 41.45 33.59 75.06 75.04 75.06s75.05-33.61 75.05-75.06c.01-41.44-33.61-75.04-75.05-75.04-41.45 0-75.05 33.61-75.04 75.04zM1414.59 1913.33c0-38.3-21.14-71.62-52.36-89.05-25.9 33.44-66.34 55.06-111.91 55.06-2.37.01-4.7-.24-7.05-.35 63.92-13.69 111.84-70.44 111.84-138.43 0-20.23-4.32-39.43-11.96-56.84 12.26-.53 24.2-2.29 35.69-5.18 77.49-19.45 134.87-89.54 134.87-173.05 0-13.47-1.54-26.58-4.37-39.2 76.5-14.82 140.22-65.4 173.05-133.68 8.63 1.89 17.57 2.95 26.76 2.95 61.43 0 112.34-44.48 122.61-102.97 1.24-7.04 2.01-14.25 2.01-21.66 0-68.82-55.8-124.61-124.62-124.61-51.05 0-94.86 30.71-114.12 74.64 6.34-36.13 28.2-66.82 58.5-85.06-44.62-56.18-113.48-92.25-190.79-92.25-37.27 0-72.57 8.4-104.15 23.37-28.62-58.68-88.86-99.12-158.53-99.12-4.77 0-9.49.24-14.16.61-90.75 7.22-162.15 83.1-162.15 175.69 0 92.61 71.4 168.47 162.15 175.69-4.67.38-9.39.62-14.16.62-97.37 0-176.31-78.93-176.31-176.31 0-38.92 12.64-74.87 34-104.03-6.89-5.22-14.13-10-21.64-14.37 13.76-28.3 21.48-60.08 21.48-93.66 0-118.53-96.09-214.61-214.62-214.61-88.9 0-165.17 54.04-197.76 131.07a214.554 214.554 0 0 0-60.71-8.76c-118.53 0-214.62 96.08-214.62 214.62 0 118.53 96.08 214.61 214.62 214.61 48.76 0 93.7-16.28 129.74-43.68 7.23 112 100.29 200.61 214.12 200.61 8.34 0 16.55-.53 24.65-1.45 3.82 21.2 11.35 41.09 21.95 58.97 31.07 52.45 88.2 87.64 153.6 87.64 82.46 0 151.8-55.94 172.27-131.93a240.33 240.33 0 0 0 13.17 15.14c-14.41 64.64-63.85 116.02-127.39 133.22 3.35 27.1 12.76 52.3 26.86 74.23-64.61 13.15-113.23 70.28-113.23 138.75 0 78.22 63.4 141.62 141.61 141.62.71 0 1.39-.1 2.1-.11-3.17 9.86-4.93 20.35-4.93 31.26 0 56.31 45.65 101.96 101.96 101.96 56.32 0 101.97-45.65 101.97-101.96z"/><path d="M1355.11 873.9c0 39.1 31.7 70.79 70.8 70.79 39.1 0 70.8-31.7 70.8-70.79.01-39.11-31.7-70.81-70.8-70.81-39.1 0-70.8 31.69-70.8 70.81zM1704.88 803.09c-55.52 0-100.54 45-100.54 100.55.01 55.53 45.01 100.53 100.54 100.53 55.53 0 100.56-45 100.56-100.53 0-55.54-45.03-100.55-100.56-100.55zM2045.44 1342.47c0 56.33 45.66 101.98 101.96 101.98 56.32 0 101.96-45.65 101.96-101.98 0-56.3-45.65-101.96-101.96-101.96-56.3 0-101.96 45.65-101.96 101.96zM2269.19 1457.18c0 41.45 33.6 75.05 75.05 75.05 41.45 0 75.05-33.61 75.05-75.06 0-41.43-33.61-75.04-75.05-75.04-41.45.01-75.05 33.61-75.05 75.05zM2509.94 283.22c-51.05 0-94.86 30.72-114.13 74.64 6.35-36.13 28.2-66.82 58.5-85.06-44.62-56.18-113.48-92.25-190.79-92.25-37.27 0-72.56 8.4-104.15 23.37-28.63-58.69-88.86-99.13-158.54-99.13-4.77 0-9.49.24-14.16.62-90.74 7.22-162.14 83.1-162.14 175.69 0 92.61 71.39 168.47 162.14 175.69-4.67.38-9.39.62-14.16.62-97.37 0-176.3-78.93-176.3-176.31 0-67.48 37.92-126.08 93.61-155.72-11.91-60.4-65.12-105.97-129.01-105.97-72.64 0-131.54 58.9-131.54 131.54 0 18.39 3.8 35.88 10.61 51.78-47.55 25.77-79.84 76.11-79.84 134 0 84.12 68.19 152.31 152.31 152.31 5.09 0 10.12-.26 15.09-.75-3.15 13.27-4.87 27.1-4.87 41.33 0 33.16 9.08 64.18 24.84 90.78 31.08 52.46 88.21 87.65 153.6 87.65 82.46 0 151.81-55.94 172.27-131.93 4.19 5.23 8.58 10.27 13.18 15.14-14.42 64.63-63.85 116.02-127.39 133.22 3.35 27.1 12.76 52.3 26.85 74.23-64.6 13.14-113.23 70.28-113.23 138.75 0 78.21 63.41 141.62 141.62 141.62.71 0 1.39-.1 2.09-.11-3.17 9.86-4.93 20.35-4.93 31.26 0 56.3 45.66 101.96 101.96 101.96 56.33 0 101.97-45.66 101.97-101.96.01-38.3-21.14-71.63-52.36-89.05-25.9 33.44-66.34 55.06-111.91 55.06-2.37 0-4.69-.24-7.04-.36 63.91-13.68 111.83-70.43 111.83-138.42.01-20.23-4.31-39.44-11.95-56.84 12.26-.53 24.2-2.3 35.69-5.19 77.49-19.44 134.87-89.53 134.87-173.05 0-13.48-1.54-26.58-4.37-39.2 76.49-14.83 140.22-65.41 173.05-133.68 8.62 1.88 17.57 2.95 26.76 2.95 61.42.01 112.34-44.47 122.61-102.96 1.24-7.05 2-14.26 2-21.66.01-68.82-55.79-124.62-124.61-124.62zM2297.5 70.81c0-39.12-31.7-70.82-70.8-70.82-39.1 0-70.81 31.7-70.81 70.82.01 39.1 31.7 70.79 70.81 70.79 39.1 0 70.8-31.7 70.8-70.79zM2405.13 100.55c0 55.52 45.01 100.53 100.54 100.53 55.53 0 100.55-45.01 100.55-100.53 0-55.54-45.02-100.56-100.55-100.56-55.53 0-100.54 45.01-100.54 100.56zM258.46 701.36c0-71.38-57.86-129.23-129.23-129.23C57.86 572.13 0 629.98 0 701.36c0 71.37 57.86 129.23 129.23 129.23 71.37 0 129.23-57.86 129.23-129.23zM2646.98 1379.84c-39.51 0-71.54 32.02-71.54 71.54 0 39.51 32.03 71.54 71.54 71.54 39.51 0 71.54-32.03 71.54-71.54 0-39.51-32.03-71.54-71.54-71.54zM1721.57 1589.84c0 39.51 32.02 71.54 71.54 71.54 39.51 0 71.54-32.02 71.54-71.54 0-39.51-32.03-71.54-71.54-71.54-39.5 0-71.54 32.03-71.54 71.54zM549.23 334.42c0 36.97 29.97 66.93 66.93 66.93 36.96 0 66.93-29.96 66.93-66.93 0-36.96-29.97-66.92-66.93-66.92-36.96 0-66.93 29.96-66.93 66.92zM987.72 433.66c0 58.63 47.52 106.16 106.15 106.16s106.15-47.53 106.15-106.16c0-58.63-47.53-106.15-106.15-106.15-58.63 0-106.16 47.52-106.15 106.15z"/></g></svg>