<svg xmlns="http://www.w3.org/2000/svg" xml:space="preserve" viewBox="0 0 530.27 470.74" shape-rendering="geometricPrecision" text-rendering="geometricPrecision" image-rendering="optimizeQuality" fill-rule="evenodd" clip-rule="evenodd"><g fill="currentColor"><path d="M377.47 135.04v310.8c0 13.54 10.98 24.52 24.52 24.52s24.52-10.97 24.52-24.52V266.82h9.19v179.02c0 13.54 10.98 24.52 24.52 24.52s24.52-10.97 24.52-24.52V148.32c8.87 18.44 16.76 55.58 12.68 125.27-.51 8.75 6.17 16.25 14.91 16.76.32.02.63.03.94.03 8.34 0 15.33-6.51 15.82-14.94 4.9-83.78-5.58-138.44-31.15-162.47-11.16-10.48-22.06-12.26-27.63-12.39-.3-.02-.61-.05-.92-.05h-76.62c-1.17 0-2.3.14-3.39.39-6.22.71-22.79 3.06-45.41 9.69 5.66 7.38 10.32 17.07 14.01 29.08a289.51 289.51 0 0 1 19.46-4.66zM386.49 44.62c0 24.64 19.98 44.62 44.62 44.62 24.65 0 44.62-19.98 44.62-44.62C475.73 19.98 455.76 0 431.11 0c-24.64 0-44.62 19.98-44.62 44.62zm21.4 24.5s27.95 1.39 43.45-11.76c0 0-12.47 38.8-43.45 11.76zM15.02 185.02c2.92 10.97 6.55 24.58 20.23 24.58.19 0 .39 0 .59-.01 1.48-.04 14.47-.87 16.43-16.89 2.57-21.04 6.88-35.12 11.39-44.35v297.48c0 13.54 10.98 24.52 24.52 24.52s24.52-10.97 24.52-24.52V266.81h9.19v179.02c0 13.54 10.98 24.52 24.52 24.52s24.52-10.97 24.52-24.52V134.99c5.44 1.09 12.02 2.6 19.48 4.65 3.68-11.99 8.34-21.66 13.99-29.03-22.62-6.63-39.19-8.98-45.41-9.69a15.12 15.12 0 0 0-3.39-.39H78.98c-.19 0-.38.02-.57.03-7.92.07-27.66 3.38-42.39 32.27-1.59-8.07-3.14-16.32-4.55-24.17-1.55-8.62-9.79-14.36-18.42-12.81-8.62 1.55-14.36 9.8-12.81 18.42.04.21 3.79 21.05 8.08 41.61 2.55 12.23 4.81 22.03 6.7 29.13zM117.3 0C92.65 0 72.68 19.98 72.68 44.62c0 24.64 19.97 44.62 44.62 44.62 24.64 0 44.62-19.98 44.62-44.62C161.92 19.98 141.94 0 117.3 0zM97.08 57.36c15.5 13.15 43.45 11.76 43.45 11.76-30.98 27.04-43.45-11.76-43.45-11.76z"/><path d="M327.84 287.58c-3.13-3.87-4.72-8.68-4.47-13.68 2.51-50.58.29-82.89-3.17-103.4l4.26-1.11c3.6 21.06 5.8 53.85 3.27 104.73-.44 8.75 6.3 16.2 15.06 16.63.27.01.54.02.8.02 8.4 0 15.41-6.59 15.83-15.08 4.48-90.17-4.71-146.14-27.33-166.36-6.53-5.84-12.85-7.73-17.36-8.22-.18-.03-.36-.06-.55-.08-8.88 12.53-23.48 20.73-39.98 20.73-16.49 0-31.1-8.2-39.98-20.73-.19.02-.37.06-.55.08-4.5.49-10.82 2.38-17.36 8.22-22.62 20.22-31.81 76.19-27.33 166.36.42 8.48 7.43 15.08 15.83 15.08.27 0 .53-.01.8-.02 8.75-.44 15.49-7.88 15.06-16.63-2.53-50.88-.33-83.67 3.27-104.73l4.26 1.11c-3.47 20.51-5.69 52.82-3.17 103.4.25 5.01-1.35 9.82-4.47 13.69v158.64c0 13.55 10.98 24.52 24.52 24.52s24.52-10.97 24.52-24.52V267.21h9.19v179.02c0 13.55 10.98 24.52 24.52 24.52s24.52-10.97 24.52-24.52V287.58z"/><path d="M274.2 117.39c24.65 0 44.62-19.98 44.62-44.62 0-24.64-19.97-44.62-44.62-44.62-24.64 0-44.62 19.98-44.62 44.62 0 24.64 19.98 44.62 44.62 44.62zm14.02-17.75-3.77 4.6c-20.88-17.13-33.02-11.6-33.14-11.54l-2.7-5.3c.62-.32 15.4-7.61 39.61 12.24z"/></g></svg>