<svg xmlns="http://www.w3.org/2000/svg" xml:space="preserve" viewBox="0 0 101.95 153.78" shape-rendering="geometricPrecision" text-rendering="geometricPrecision" image-rendering="optimizeQuality" fill-rule="evenodd" clip-rule="evenodd"><g fill="currentColor" fill-rule="nonzero"><path d="m27.61 19.81.37 1.15 6.86-.95c.09-.71.21-1.43.35-2.14l-7.58 1.95zM41.42 136.97v-6.89h2.17V96.25h16.55v33.83h2.17v6.89c0 1.2.97 2.17 2.17 2.17h22.51c1.2 0 2.17-.97 2.17-2.17v-31.73c0-1.2-.97-2.17-2.17-2.17h-3.47l-1.71 21.37c-.32 4.06-3.76 7.24-7.83 7.24-.21 0-.42-.01-.64-.03-3.65-.29-6.52-3.05-7.11-6.51.38.13.77.23 1.17.3.68 2.75 3.06 4.89 6.04 5.12.18.02.37.02.55.02 3.5 0 6.47-2.69 6.75-6.24l2.3-28.88a6.754 6.754 0 0 0-3.27-6.35l-3.33-1.99a53.029 53.029 0 0 1-16.08 5.65h-.22v.04c-2.69.46-5.45.73-8.27.73-2.82 0-5.59-.26-8.27-.73v-.04h-.22a53.118 53.118 0 0 1-16.36-5.81l-3.59 2.15a6.764 6.764 0 0 0-3.27 6.35l2.31 28.89a6.776 6.776 0 0 0 6.75 6.24c.18 0 .36-.01.55-.02 2.95-.23 5.3-2.33 6.01-5.04.4-.04.78-.12 1.16-.22-.66 3.38-3.49 6.05-7.09 6.34-.21.02-.42.03-.63.03-4.07 0-7.51-3.18-7.83-7.24l-1.71-21.37h-2.93c-1.2 0-2.17.97-2.17 2.17v31.73c0 1.2.97 2.17 2.17 2.17h22.51c1.2 0 2.17-.97 2.17-2.17zm33.59-19.26c0 3.44-2.8 6.24-6.24 6.24-3.44 0-6.24-2.8-6.24-6.24 0-3.44 2.8-6.24 6.24-6.24 3.44 0 6.24 2.8 6.24 6.24zm-6.73-7.84c-.37.02-.74.06-1.1.14l.55-6.94h-3.26c-.08 0-.15.02-.23.02v-6.84h1.05l3.89 2.33-.9 11.29zm-33.32 1.6c3.44 0 6.24 2.8 6.24 6.24 0 3.44-2.8 6.24-6.24 6.24-3.44 0-6.24-2.8-6.24-6.24 0-3.44 2.8-6.24 6.24-6.24zm-.95-12.89 3.89-2.33h1.59v6.84c-.08-.01-.15-.02-.23-.02h-3.8l.55 6.86a8.93 8.93 0 0 0-1.04-.08h-.05l-.9-11.27zM36.68 26.15c0 1.56.78 2.86 2.09 3.91-.13-.73-.2-1.48-.2-2.25 0-4.24 6.67-6.14 13.29-6.14 6.62 0 13.29 1.9 13.29 6.14 0 .57-.04 1.13-.11 1.69.93-.94 1.47-2.06 1.47-3.35 0-9.62-1.81-19.1-14.92-19.1s-14.92 9.47-14.92 19.1zM51.6 12.99c1.33 0 2.41 1.07 2.44 2.4 1.36-.19 2.99-.45 2.99-.45s-1.88 1.53-3.57 2.07c-.45.53-1.11.87-1.85.87-.75 0-1.4-.34-1.85-.87-1.69-.54-3.57-2.07-3.57-2.07s1.63.26 2.99.45c.02-1.33 1.1-2.4 2.44-2.4zM31.45 57.28c1.46-2.41 3.67-3.78 5.75-4.57v4.92c4.51-.66 9.45-1.03 14.67-1.03 1.74 0 3.45.04 5.13.12l1.54-2.47 1.67 2.67c1.14.09 2.27.19 3.38.32l.15.01-.01.01c.96.11 1.9.23 2.82.37v-4.92c.74.28 1.52.64 2.26 1.11 1.37.85 2.63 1.99 3.58 3.63.25.43.48.9.69 1.42 3.66.86 6.88 1.95 9.54 3.21-.33-3.65-1.37-6.77-2.9-9.29-2.83-4.66-7.02-7.06-10.3-8.27-3.31-1.22-5.86-1.36-6.14-1.38-.16-.01-.32-.01-.47 0-.15-.02-.3-.02-.45-.02H59.7l-1.22 9.55-5.29-6.37 2.86-3.17H47.7l2.86 3.17-5.29 6.37-1.22-9.55h-2.66c-.15 0-.3.01-.45.02-.15-.01-.31-.01-.47 0-.38.04-4.79.23-9.64 3.03-2.41 1.4-4.93 3.53-6.8 6.62-1.53 2.52-2.57 5.64-2.9 9.29 2.67-1.26 5.89-2.34 9.55-3.21.23-.58.49-1.11.78-1.58z"/><path d="M64.07 27.81c0-6.74-24.41-6.74-24.41 0s5.47 12.21 12.21 12.21c6.74 0 12.2-5.46 12.2-12.21zM55.87 26c2.31-.44 4.44.55 4.76 2.22.32 1.67-1.3 3.38-3.61 3.82-2.31.44-4.44-.55-4.76-2.22-.32-1.67 1.3-3.38 3.61-3.82zm-13.3 2.22c.32-1.67 2.45-2.66 4.76-2.22 2.31.44 3.93 2.15 3.61 3.82-.32 1.67-2.45 2.66-4.76 2.22-2.31-.44-3.93-2.15-3.61-3.82zM51.87 92.45c20.97 0 37.97-13.92 37.97-21.34s-17-13.44-37.97-13.44S13.9 63.69 13.9 71.11s17 21.34 37.97 21.34zm0-6.26c-5.24 0-9.48-4.25-9.48-9.48 0-5.24 4.25-9.48 9.48-9.48 5.24 0 9.48 4.25 9.48 9.48 0 5.24-4.25 9.48-9.48 9.48zM70.1 70.22c2.21 0 4 1.79 4 4s-1.79 4.01-4 4.01a4.01 4.01 0 0 1-4.01-4.01c0-2.21 1.79-4 4.01-4zm-36.46 0c2.21 0 4.01 1.79 4.01 4a4.01 4.01 0 0 1-4.01 4.01c-2.21 0-4-1.79-4-4.01 0-2.21 1.79-4 4-4z"/><path d="M46.94 81.48a7.08 7.08 0 0 1-.94-3.51c0-3.9 3.16-7.06 7.06-7.06.99 0 1.93.2 2.78.57a6.658 6.658 0 0 0-4.64-1.87c-3.7 0-6.7 3-6.7 6.7 0 2.08.95 3.93 2.43 5.17zM58.1 150.96v-49.15c0-1.56-1.26-2.82-2.82-2.82h-6.82c-1.56 0-2.82 1.26-2.82 2.82v49.15c0 1.56 1.26 2.82 2.82 2.82h6.82c1.56 0 2.82-1.26 2.82-2.82zM3.68 55.06c-1.2 0-2.17.97-2.17 2.17v5.06c0 1.2.97 2.17 2.17 2.17h11.21c1.2 0 2.17-.97 2.17-2.17v-5.06c0-1.2-.97-2.17-2.17-2.17H3.68zM99.78 55.06H88.57c-1.2 0-2.17.97-2.17 2.17v5.06c0 1.2.97 2.17 2.17 2.17h11.21c1.2 0 2.17-.97 2.17-2.17v-5.06c0-1.2-.97-2.17-2.17-2.17zM24.74 16.82c0-1.2-.97-2.17-2.17-2.17H16.6c-1.2 0-2.17.97-2.17 2.17v10.31h10.31V16.82zM18.03 52.75h3.12V28.61h-3.12zM19.59 11.93 20.2 0l-2.51.54.7 11.26zM13.62 13 6.96 3.08 5.28 5.02l7.3 8.59zM11.2 20.96l.37-1.15L0 16.84l.03 2.57zM33.91 5.02l-1.69-1.94L25.56 13l1.04.61z"/></g></svg>