<svg xmlns="http://www.w3.org/2000/svg" xml:space="preserve" viewBox="0 0 2422.57 1686.82" shape-rendering="geometricPrecision" text-rendering="geometricPrecision" image-rendering="optimizeQuality" fill-rule="evenodd" clip-rule="evenodd"><g fill="currentColor"><path d="M306.29 1347.81c.44 0 .88 0 1.32.03.43.02.97.06 1.55.1 15.16-15.94 24.48-37.49 24.48-61.23 0-49.08-39.79-88.88-88.88-88.88-49.08 0-88.88 39.8-88.88 88.88 0 23.81 9.38 45.41 24.61 61.36h121.36c1.56-.17 3.02-.26 4.44-.26zM375.56 1398.13c-14.06-18.48-29.57-29.52-42.35-35.39-12.8-5.94-22.58-6.87-25.89-7-1.71-.07-3.38.03-5.03.23H159.55c-1.64-.19-3.29-.29-4.99-.23-3.3.13-13.1 1.06-25.89 6.99-19.32 8.75-44.15 29.39-62.21 68.81-1.61 3.5-3.18 7.21-4.71 11.01h338.4c-7.27-18.06-15.65-32.61-24.6-44.42zM693.43 1347.81c.44 0 .87 0 1.32.03.43.02.97.06 1.55.1 15.16-15.94 24.48-37.49 24.48-61.23 0-49.08-39.79-88.88-88.89-88.88-49.08 0-88.88 39.8-88.88 88.88 0 23.81 9.38 45.41 24.62 61.36h121.36c1.57-.17 3.02-.26 4.44-.26zM762.69 1398.13c-14.06-18.48-29.57-29.52-42.35-35.39-12.8-5.94-22.58-6.87-25.89-7-1.71-.07-3.38.03-5.02.23H546.69c-1.63-.19-3.29-.29-4.99-.23-3.3.13-13.1 1.06-25.89 6.99-19.31 8.75-44.15 29.39-62.2 68.81-1.62 3.5-3.18 7.21-4.71 11.01h338.4c-7.27-18.06-15.65-32.61-24.6-44.42zM1087.81 1347.81c.44 0 .88 0 1.32.03.43.02.97.06 1.55.1 15.16-15.94 24.48-37.49 24.48-61.23 0-49.08-39.79-88.88-88.88-88.88-49.09 0-88.88 39.8-88.88 88.88 0 23.81 9.37 45.41 24.61 61.36h121.36c1.56-.17 3.02-.26 4.44-.26zM1157.08 1398.13c-14.06-18.48-29.57-29.52-42.35-35.39-12.8-5.94-22.58-6.87-25.89-7-1.7-.07-3.38.03-5.02.23H941.08c-1.63-.19-3.29-.29-4.98-.23-3.3.13-13.1 1.06-25.9 6.99-19.31 8.75-44.15 29.39-62.2 68.81-1.62 3.5-3.18 7.21-4.71 11.01h338.4c-7.27-18.06-15.65-32.61-24.6-44.42zM2116.27 1347.81c1.42 0 2.88.09 4.44.26h121.36c15.24-15.96 24.61-37.55 24.61-61.36 0-49.08-39.8-88.88-88.88-88.88-49.09 0-88.88 39.8-88.88 88.88 0 23.74 9.32 45.29 24.48 61.23.58-.04 1.12-.08 1.55-.1.44-.02.88-.03 1.32-.03zM2356.11 1431.55c-18.06-39.41-42.89-60.05-62.21-68.81-12.79-5.94-22.59-6.86-25.89-6.99-1.69-.07-3.35.04-4.99.23h-142.74c-1.65-.2-3.32-.3-5.03-.23-3.3.13-13.09 1.06-25.89 7-12.78 5.87-28.3 16.92-42.35 35.39-8.95 11.82-17.32 26.37-24.6 44.42h338.4c-1.53-3.8-3.09-7.51-4.71-11.01zM1729.14 1347.81c1.42 0 2.87.09 4.44.26h121.36c15.24-15.96 24.62-37.55 24.62-61.36 0-49.08-39.8-88.88-88.88-88.88-49.09 0-88.89 39.8-88.89 88.88 0 23.74 9.33 45.29 24.48 61.23.58-.04 1.13-.08 1.55-.1.44-.02.88-.03 1.32-.03zM1968.97 1431.55c-18.06-39.41-42.89-60.05-62.21-68.81-12.79-5.94-22.59-6.86-25.89-6.99-1.69-.07-3.35.04-4.99.23h-142.74c-1.65-.2-3.32-.3-5.02-.23-3.31.13-13.1 1.06-25.89 7-12.78 5.87-28.3 16.92-42.35 35.39-8.95 11.82-17.32 26.37-24.6 44.42h338.4c-1.53-3.8-3.09-7.51-4.71-11.01zM1334.76 1347.81c1.42 0 2.87.09 4.44.26h121.36c15.24-15.96 24.61-37.55 24.61-61.36 0-49.08-39.79-88.88-88.88-88.88-49.09 0-88.88 39.8-88.88 88.88 0 23.74 9.32 45.29 24.48 61.23.58-.04 1.13-.08 1.55-.1.44-.02.88-.03 1.32-.03zM1574.59 1431.55c-18.05-39.41-42.89-60.05-62.2-68.81-12.8-5.94-22.59-6.86-25.9-6.99-1.69-.07-3.35.04-4.98.23h-142.74c-1.65-.2-3.32-.3-5.02-.23-3.3.13-13.1 1.06-25.89 7-12.78 5.87-28.3 16.92-42.35 35.39-8.95 11.82-17.32 26.37-24.6 44.42h338.4c-1.53-3.8-3.09-7.51-4.71-11.01zM312.57 1185.5c18.04 0 34.53-6.57 47.28-17.41a92.03 92.03 0 0 1 16.77-20.5 72.787 72.787 0 0 0 9.03-35.18c0-40.36-32.72-73.08-73.08-73.08s-73.08 32.72-73.08 73.08 32.72 73.09 73.08 73.09zM524.45 1184.15c4.49.86 9.12 1.35 13.86 1.35 40.36 0 73.08-32.72 73.08-73.09 0-40.36-32.72-73.08-73.08-73.08s-73.08 32.72-73.08 73.08c0 5.43.64 10.71 1.76 15.81 26.67 8.82 47.95 29.57 57.46 55.92zM824.81 1123.61c3.82 0 7.57.26 11.26.71.64-3.88 1.05-7.84 1.05-11.91 0-40.36-32.72-73.08-73.08-73.08s-73.08 32.72-73.08 73.08c0 31.85 20.41 58.87 48.83 68.88 13.49-33.76 46.5-57.69 85.01-57.69zM916.7 1112.42c0 40.36 32.72 73.09 73.08 73.09s73.08-32.72 73.08-73.09c0-40.36-32.72-73.08-73.08-73.08s-73.08 32.72-73.08 73.08zM1277.12 1151.64c7.24-11.34 11.48-24.77 11.48-39.22 0-40.36-32.72-73.08-73.08-73.08s-73.08 32.72-73.08 73.08c0 12.3 3.07 23.87 8.44 34.05 16.13-14.21 37.27-22.86 60.41-22.86 25.83 0 49.17 10.77 65.83 28.03zM1441.26 1039.33c-40.36 0-73.08 32.72-73.08 73.08s32.72 73.09 73.08 73.09 73.08-32.72 73.08-73.09c0-40.36-32.72-73.08-73.08-73.08zM1740.07 1112.42c0-40.36-32.72-73.08-73.08-73.08s-73.08 32.72-73.08 73.08c0 3.84.39 7.58.96 11.26.97-.03 1.93-.07 2.91-.07 39.36 0 72.99 24.98 85.88 59.91 32.32-7.55 56.42-36.48 56.42-71.1zM1964.54 1125.77c.8-4.33 1.27-8.78 1.27-13.35 0-40.36-32.72-73.08-73.08-73.08s-73.08 32.72-73.08 73.08 32.72 73.09 73.08 73.09c1.7 0 3.36-.14 5.03-.26 10.31-29.77 35.58-52.6 66.78-59.48zM2036.91 1112.42c0 12.76 3.28 24.74 9.03 35.18a92.074 92.074 0 0 1 16.78 20.5c12.75 10.84 29.23 17.4 47.27 17.4 40.36 0 73.08-32.72 73.08-73.09 0-40.36-32.72-73.08-73.08-73.08s-73.08 32.72-73.08 73.08z"/><path d="M438.33 1298.74c46.18 0 83.61-37.44 83.61-83.62 0-46.18-37.44-83.62-83.61-83.62-46.18 0-83.62 37.44-83.62 83.62 0 46.18 37.44 83.62 83.62 83.62zM741.19 1215.12c0 46.19 37.44 83.62 83.62 83.62 46.18 0 83.61-37.44 83.61-83.62 0-46.18-37.44-83.62-83.61-83.62-46.18 0-83.62 37.44-83.62 83.61zM1127.67 1215.12c0 46.19 37.44 83.62 83.61 83.62 46.18 0 83.62-37.44 83.62-83.62 0-46.18-37.44-83.62-83.62-83.62-46.18 0-83.61 37.44-83.61 83.61zM1597.77 1131.51c-46.19 0-83.62 37.44-83.62 83.62 0 46.18 37.44 83.62 83.62 83.62 46.18 0 83.61-37.44 83.61-83.62 0-46.18-37.43-83.62-83.61-83.62zM1984.24 1131.51c-46.18 0-83.62 37.44-83.62 83.62 0 46.18 37.44 83.62 83.62 83.62 46.18 0 83.61-37.44 83.61-83.62 0-46.18-37.43-83.62-83.61-83.62zM0 1454.4v232.42h2422.57V1454.4zM648.99 807.03v-32.75H388.67V39.5h1645.24v734.78H765.34v39.5h1308.07V0H349.16v813.78h299.83z"/><path d="M757.43 771.83v-78.64c9.22-1.57 22.44-4.28 37.37-8.77 28.07-8.51 62.48-22.97 87.41-49.82 5.56-6.05 5.18-15.44-.86-21-6.03-5.57-15.44-5.18-21.01.86-18.75 20.53-48.7 33.96-74.08 41.49-12.66 3.8-24.12 6.23-32.33 7.67-4.1.72-7.39 1.2-9.61 1.5-1.11.14-1.96.25-2.51.32-.55.06-.72.08-.72.08-.11.01-.22.04-.33.05H673.6c-.59-.08-1.2-.13-1.81-.13-7.63.15-13.44 2.61-19.6 5.7-9.05 4.76-18.11 11.72-25.69 20.19-3.77 4.26-7.16 8.9-9.8 14.12-2.6 5.2-4.54 11.09-4.56 17.73 0 2.46.28 5.02.92 7.56 1.35 5.5 4.47 10.76 8.7 14.82 6.4 6.13 14.7 9.9 24.87 12.44 10.22 2.5 22.59 3.76 38.03 3.76 8.89 0 18.8-.43 29.86-1.32 8.18-.67 14.27-7.85 13.61-16.03-.67-8.19-7.84-14.27-16.02-13.61-10.39.84-19.51 1.22-27.44 1.22-18.36.04-30.42-2.17-36.72-4.71-3.16-1.23-4.81-2.45-5.47-3.11-.67-.69-.52-.67-.56-.72v-.01c0-.03-.02-.09-.03-.3-.07-.68.55-3.39 2.76-6.77 2.62-4.2 7.3-9.05 12.26-12.97v22.58c5.68 1.19 14.42 2.3 27.27 2.3h.47c4.83 0 10.05-.16 15.54-.45v-17.4c-6.55-2.73-11.15-9.19-11.15-16.73 0-10.01 8.12-18.11 18.12-18.11 10.01 0 18.12 8.11 18.12 18.11 0 7.54-4.6 14-11.15 16.73v16.65c9.23.41 16.94 7.7 17.7 16.99.83 10.22-6.8 19.21-17.02 20.04-.23.02-.45.03-.68.05v12.71h-13.94v-11.82c-5.45.26-10.66.4-15.53.4-10.5-.01-19.66-.6-27.76-1.76V989.14c0 12.7 10.28 22.98 22.97 22.98s22.98-10.28 22.98-22.98V821.38h8.61v167.76c0 12.7 10.29 22.98 22.97 22.98 12.69 0 22.98-10.28 22.98-22.98V771.82z"/><path d="M707.16 654.98c23.1 0 41.82-18.72 41.82-41.82s-18.72-41.81-41.82-41.81c-23.09 0-41.82 18.72-41.82 41.81 0 23.1 18.73 41.82 41.82 41.82zM953.06 421.08h-7.73c-2.12 3.46-6.14 8.83-12.07 16.1-5.94 7.27-11.02 12.68-15.26 16.2-2.33 1.84-5.83 3.2-10.49 4.08-4.66.88-12.08 1.32-22.24 1.32-7.98 0-13.45-.58-16.41-1.74-2.97-1.17-4.45-4-4.45-8.53 0-1.06.21-2.83.63-5.29.43-2.47.88-4.77 1.38-6.89l9.68-41.83h14.43c3.89 0 7.36.44 10.41 1.32 3.04.88 5.48 2.66 7.32 5.35.92 1.34 1.71 3.69 2.39 7.04.67 3.36 1.01 6.62 1.01 9.8v3.92h7.95l14.51-62.7h-7.94c-1.14 2.96-3.03 6.55-5.68 10.75s-4.97 7.12-6.95 8.74c-2.61 2.12-5.42 3.76-8.43 4.93-3.01 1.16-7.17 1.74-12.47 1.74h-14.43l13.56-58.67h20.79c2.47 0 5.58.06 9.33.16s6.61.4 8.59.89c4.17.91 8.15 4.17 11.93 9.76 3.78 5.59 6.17 11.73 7.16 18.41h7.95l8.79-38.33H834.18l-1.8 7.72c6.77 1 11.67 2.32 14.67 3.98 3 1.66 4.5 3.97 4.5 6.94 0 .49-.07 1.23-.21 2.22-.14.99-.39 2.23-.74 3.71l-24.29 105.06c-.56 2.47-1.57 4.66-3.02 6.56-1.44 1.91-3.54 3.32-6.29 4.24-1.7.57-4.28 1.04-7.79 1.43-3.5.39-6.12.61-7.89.69l-1.8 7.73h139.9l13.66-46.81zM1152.05 376.5h-113.31v17.37h113.31zM1152.05 420.34h-113.31v17.37h113.31zM1240.5 376.5c4.6 0 7.67.76 9.23 2.28 1.55 1.52 2.32 4.29 2.32 8.31 0 1.98-.33 4.59-1 7.84-.68 3.25-1.22 5.85-1.64 7.83l-15.05 65.14h35l17.56-76.46c5.85-5.29 10.71-8.83 14.6-10.59 3.88-1.76 6.9-2.64 9.09-2.64 3.88 0 6.67.95 8.36 2.85 1.69 1.9 2.54 4.56 2.54 7.95 0 1.62-.19 3.53-.57 5.71-.39 2.19-.98 5.05-1.75 8.58l-14.83 64.6h35l17.56-76.46c4.23-4.03 8.4-7.24 12.53-9.64 4.12-2.4 7.52-3.6 10.19-3.6 3.81 0 6.55.95 8.25 2.85 1.69 1.9 2.54 4.56 2.54 7.95 0 1.55-.2 3.55-.59 5.98-.38 2.43-.97 5.17-1.75 8.21l-7.68 28.17c-1 3.96-1.59 7.26-1.76 9.91-.17 2.65-.27 4.82-.27 6.51 0 6.21 2.33 11.42 7 15.62 4.67 4.2 11.21 6.3 19.62 6.3 5.52 0 10.36-.72 14.54-2.17 4.17-1.45 9.76-3.55 16.76-6.3l2.33-9.53c-1.19.56-3.14 1.21-5.81 1.96-2.67.74-5.07 1.11-7.18 1.11-4.5 0-7.66-.74-9.44-2.22-1.79-1.48-2.7-4.27-2.7-8.37 0-1.62.28-4.02.84-7.2.57-3.18 1.19-6 1.89-8.47l7.98-29.76c.92-3.32 1.5-6.44 1.75-9.38.25-2.93.38-5.21.38-6.83 0-6.14-2.23-11.37-6.68-15.68-4.44-4.3-10.57-6.46-18.41-6.46-8.33 0-15.74 1.75-22.23 5.25-6.49 3.49-13.51 8.48-21.06 14.98h-.74c-.49-5.72-3.07-10.52-7.73-14.4-4.67-3.88-10.64-5.83-17.91-5.83-8.55 0-16.11 1.7-22.67 5.09-6.57 3.39-13.39 8.33-20.45 14.83h-.74c-1.55-5.51-4.23-10.01-8.05-13.51-3.81-3.5-10.03-5.24-18.65-5.24-4.66 0-9.6.83-14.83 2.49-5.23 1.66-10.7 3.65-16.42 5.98l-2.33 9.53c1.7-.63 3.72-1.3 6.09-2 2.37-.71 4.69-1.06 6.94-1.06zM1462.73 459.21c9.07 8.12 21.73 12.18 37.96 12.18 10.6 0 20.65-2.72 30.19-8.16 9.53-5.43 17.19-12.63 22.98-21.6l-7.63-6.46c-5.43 7.27-10.75 12.41-15.94 15.41-5.19 2.99-11.67 4.5-19.43 4.5-7.63 0-13.51-2.89-17.63-8.69-4.13-5.79-6.2-14.29-6.2-25.52 0-14.76 2.72-27.13 8.16-37.12 5.43-9.99 12.28-14.98 20.54-14.98 3.1 0 5.62.57 7.56 1.7 1.94 1.13 3.24 2.08 3.86 2.86-2.26 3.81-4.13 7.45-5.61 10.9-1.48 3.46-2.23 6.96-2.23 10.49 0 2.97 1.54 5.81 4.61 8.53 3.07 2.72 7.36 4.08 12.87 4.08 4.16 0 7.29-.59 9.38-1.8 2.08-1.2 4-2.93 5.77-5.18 1.41-1.84 2.47-4.1 3.18-6.78.71-2.68 1.06-5.12 1.06-7.3 0-8.05-3.3-14.37-9.9-18.96-6.6-4.59-16.15-6.88-28.65-6.88-10.8 0-20.59 1.87-29.33 5.62-8.76 3.74-15.93 8.57-21.5 14.51-6 6.28-10.45 13.26-13.35 20.92-2.89 7.66-4.34 15.76-4.34 24.3 0 14.19 4.53 25.35 13.61 33.46zM1641.31 352.38h-49.79l.23-.94c2.51-1.18 5.26-2.25 8.26-3.23a88.44 88.44 0 0 1 9.55-2.53c5.99-1.25 11.25-2.51 15.75-3.79 4.51-1.28 8.27-2.71 11.29-4.32 3.45-1.84 6-4.05 7.68-6.64 1.67-2.59 2.49-5.76 2.49-9.53 0-6.07-2.64-10.65-7.91-13.73s-12.39-4.61-21.37-4.61c-4.59 0-8.8.51-12.64 1.53s-7.03 2.38-9.58 4.06c-2.67 1.76-4.69 3.74-6.08 5.93-1.39 2.2-2.09 4.38-2.09 6.53 0 2.75.87 5.08 2.62 7 1.74 1.92 4.09 2.88 7.02 2.88 3.1 0 5.61-.91 7.53-2.73 1.92-1.83 2.88-4.13 2.88-6.91 0-2.03-.29-3.96-.88-5.76-.59-1.81-1.16-3.47-1.71-5 1.18-.47 2.47-.92 3.91-1.35 1.43-.43 3.28-.65 5.56-.65 3.25 0 5.84.92 7.76 2.76 1.92 1.84 2.88 4.56 2.88 8.17 0 2.35-.34 4.56-1.03 6.64-.68 2.08-1.99 4.1-3.91 6.05-1.64 1.69-3.83 3.28-6.56 4.76-2.72 1.49-6.62 3.35-11.67 5.58-2 .9-4.32 1.98-6.96 3.21a91.668 91.668 0 0 0-7.79 4.08c-1.84 1.06-3.65 2.16-5.41 3.29a67.821 67.821 0 0 0-4.76 3.35l-2.65 11.76h63.73l3.65-15.87z"/></g></svg>