<svg xmlns="http://www.w3.org/2000/svg" xml:space="preserve" viewBox="0 0 356.04 358.32" shape-rendering="geometricPrecision" text-rendering="geometricPrecision" image-rendering="optimizeQuality" fill-rule="evenodd" clip-rule="evenodd"><g fill="currentColor"><path d="M317.27 239.37c21.47-.06 38.83-17.51 38.77-38.98-.05-21.47-17.5-38.82-38.97-38.77-21.47.06-38.82 17.5-38.77 38.97.06 21.47 17.5 38.82 38.97 38.77zM8.29 251.78c9.4 7.35 22.97 5.68 30.32-3.71 10.52-13.46 20.02-21.59 27.88-26.19 7.92-4.59 14.05-5.9 19.63-5.95 5.97.01 11.76 1.71 17.66 4.87 8.35 4.43 16.34 11.98 22.09 18.77-.78 12.43 3.24 25.39 22.66 34.02 31.48 11.21 52.72 14.68 81.56 13.06-10.42 7.82-25.24 14.99-46.92 19.2-7.5 1.44-12.42 8.68-10.98 16.18 1.26 6.62 7.06 11.23 13.56 11.23.56 0 1.13-.05 1.7-.12 1.33-1.53 2.95-2.87 4.84-3.88 17.53-9.46 29.64-21.99 37.02-38.28.66-1.47 1.24-2.93 1.78-4.37.13-.34.26-.67.37-1.01 4.18-11.66 4.67-21.91 4.66-26.15 0-2.16-.11-3.49-.13-3.73-.53-4.52.75-9.05 3.61-12.67 2.86-3.62 6.96-5.91 11.54-6.45a17.149 17.149 0 0 1 10.04 1.87c4.9 2.58 8.45 7.44 9.13 13.28.09.74.36 3.47.36 7.68 0 4.5-.32 10.02-1.25 16.24-.64 4.23-1.56 8.78-2.89 13.56.6-.8 1.19-1.59 1.76-2.39 13.08-18.37 14.86-34.5 15.03-36.04.17-1.67.01-3.29-.39-4.82-2.13-13.88-19.65-23.58-36.53-22.66-18.55-.61-43.36-.54-66.47-4.96.46-5.46.75-11.55.76-18.2 0-20.9-2.93-47.31-13.12-76.04-10.16-28.72-27.66-59.69-56.11-89.23-8.27-8.6-21.95-8.86-30.54-.59s-8.86 21.95-.58 30.54c24.14 25.11 38.23 50.4 46.52 73.72 6.85 19.32 9.65 37.34 10.41 52.56-3.96-2.97-8.29-5.8-13-8.35-10.7-5.78-23.67-10.05-38.15-10.04-13.43-.04-27.77 3.79-41.48 11.88-13.76 8.08-27.02 20.17-40.06 36.84-7.35 9.4-5.69 22.97 3.71 30.32z"/><path d="M266.87 252.16c-.6-5.09-3.89-9.2-8.29-11.09-2.15-.92-4.56-1.32-7.05-1.03-7.58.89-13.01 7.75-12.12 15.34v.02c.04.39.15 1.81.15 4.04.01 4.63-.52 12.65-3.13 21.9a89.1 89.1 0 0 1-1.58 5 76.26 76.26 0 0 1-2.41 6.06c-6.07 13.41-16.66 27.71-37.25 39.17-.43.24-.84.49-1.29.73-6.73 3.61-9.26 11.98-5.65 18.72a13.833 13.833 0 0 0 18.72 5.65c26.94-14.38 42.53-34.52 50.71-52.98 1.13-2.53 2.12-5.03 3-7.47 2.27-6.3 3.77-12.27 4.76-17.67 1.42-7.83 1.77-14.46 1.77-19.1 0-4.22-.29-6.82-.34-7.28zM190.37 67.69c18.7 0 33.85-15.15 33.85-33.85 0-18.69-15.15-33.85-33.85-33.85-18.69 0-33.85 15.15-33.85 33.85 0 18.69 15.15 33.85 33.85 33.85z"/></g></svg>