<svg xmlns="http://www.w3.org/2000/svg" xml:space="preserve" viewBox="0 0 584.01 849.25" shape-rendering="geometricPrecision" text-rendering="geometricPrecision" image-rendering="optimizeQuality" fill-rule="evenodd" clip-rule="evenodd"><g fill="currentColor"><path d="M277.38 823.02c0 14.07 11.41 25.47 25.47 25.47 14.07 0 25.48-11.4 25.48-25.47V707.93h-50.95v115.09zM267.83 637.04h9.55v62.65h50.95V491.3c21.55-19.68 64.27-71.26 61.75-169.57-.23-9.1-7.74-16.28-16.9-16.05-9.1.23-16.29 7.8-16.05 16.9 2.1 81.71-30.61 124.68-48.08 141.71h-72.82c-17.37-17.01-50.23-60.14-48.14-141.71.23-9.1-6.95-16.67-16.05-16.9-.14 0-.29-.01-.43-.01-8.91 0-16.24 7.1-16.47 16.06-2.52 98.31 40.19 149.89 61.75 169.57v208.39h50.95v-62.65zm7.2-73.13 5.6-7.15c7.23-9.21 13.18-16.88 13.18-24.88 0-4.48-2.5-7.66-7.15-7.66-3.53 0-6.37 1.55-8.44 2.84l-1.98-8.78c2.58-1.64 7.41-3.44 12.49-3.44 12.23 0 16.19 8.18 16.19 16.19 0 10.5-6.54 18.94-13 26.43l-3.36 3.96v.18h17.14v9.9h-30.65v-7.58zm-23.34 7.58v-45.38h-.17l-9.47 4.91-1.89-8.87 12.83-6.63h9.9v55.97H251.7zM216.89 823.02c0 14.07 11.41 25.47 25.47 25.47 14.07 0 25.48-11.4 25.48-25.47V707.93h-50.95v115.09z"/><path d="M272.61 452.55c25.6 0 46.36-20.75 46.36-46.36 0-25.6-20.75-46.36-46.36-46.36-25.6 0-46.36 20.75-46.36 46.36 0 25.6 20.76 46.36 46.36 46.36zM50.34 357.18c-25.6 0-46.36 20.75-46.36 46.36 0 25.6 20.75 46.36 46.36 46.36 7.41 0 14.4-1.75 20.61-4.83 7.78-14.78 15.69-34.81 21.35-61.23-7.4-15.75-23.41-26.65-41.96-26.65zM68.01 515.32c-3.48 2.35-7.55 3.6-11.74 3.6-7 0-13.52-3.46-17.43-9.26-6.41-9.51-3.95-22.54 5.48-29.05.16-.12 8.22-6.25 18.18-21.24-17.1-1.55-38.92 8.86-48.32 36.19C.16 537.13-2.85 564.18 2.48 609.94c4.35 22.36 16.09 31.19 29.07 34.5 4 13.27 8.77 33.18 10.75 57.35l51.05-9.37c-3.5-35.81-12.07-63.29-17.23-77.25-4.71-35.4 5.28-76.71 10.92-105.51 1.43-4.95 2.05-10.14 1.94-15.22-11.23 14.09-20.02 20.23-20.98 20.88zM27.36 814.55c-4.94 13.34 1.87 28.16 15.21 33.09 2.95 1.09 5.97 1.61 8.94 1.61 10.47 0 20.31-6.43 24.15-16.81 17.95-48.46 21.12-94.19 18.39-131.76l-51.2 9.4c1.6 30.37-1.47 66.59-15.5 104.48z"/><path d="M121.45 316.01c-9.07-.61-16.92 6.3-17.51 15.39C96.47 447.11 48 483.53 46.89 484.34c-7.42 5.12-9.36 15.28-4.3 22.78 3.18 4.72 8.38 7.27 13.68 7.27 3.17 0 6.38-.91 9.2-2.82 2.56-1.72 62.7-43.78 71.36-178.05.59-9.08-6.3-16.92-15.39-17.51zM494.87 449.89c25.6 0 46.36-20.75 46.36-46.36 0-25.6-20.75-46.36-46.36-46.36-18.56 0-34.56 10.9-41.96 26.65 5.66 26.42 13.57 46.45 21.36 61.23a46.11 46.11 0 0 0 20.61 4.83zM482.72 459.37c9.96 14.98 18.02 21.12 18.18 21.24 9.44 6.51 11.9 19.54 5.48 29.05a20.991 20.991 0 0 1-17.43 9.26c-4.19 0-8.25-1.24-11.74-3.6-.96-.64-9.75-6.78-20.98-20.88-.11 5.08.52 10.27 1.94 15.22 5.64 28.81 15.64 70.12 10.92 105.52-5.15 13.97-13.73 41.45-17.22 77.25l51.05 9.37c1.99-24.17 6.75-44.08 10.76-57.35 12.98-3.31 24.72-12.14 29.07-34.5 5.33-45.77 2.31-72.82-11.7-114.38-9.4-27.34-31.22-37.75-48.32-36.19zM469.56 832.44c3.85 10.39 13.69 16.81 24.15 16.81 2.97 0 5.99-.52 8.94-1.61 13.34-4.94 20.14-19.76 15.21-33.09-14.03-37.88-17.09-74.1-15.5-104.48l-51.2-9.4c-2.72 37.57.45 83.3 18.39 131.76z"/><path d="M479.74 511.56a16.39 16.39 0 0 0 9.21 2.82c5.29 0 10.49-2.55 13.68-7.27 5.06-7.5 3.13-17.66-4.3-22.78-1.11-.81-49.58-37.23-57.05-152.94-.59-9.08-8.44-16-17.51-15.39-9.08.59-15.97 8.42-15.39 17.51 8.66 134.27 68.81 176.32 71.36 178.05zM94.59 163.12c-13.46 4.61-20.62 19.26-16.01 32.71 4.61 13.46 19.26 20.63 32.71 16.01 29.46-10.09 52.27-13.99 69.88-14.36l9.23-51.41c-27.71-.99-59.72 4.68-95.8 17.04zM54.88 262.42c-12.9 6-18.49 21.31-12.49 34.21 4.58 9.85 14.61 15.44 24.83 14.86 3.16-.18 6.33-.95 9.38-2.37 34.02-15.81 64-23.58 89.59-26.79l-5.56-51.21c-31.1 3.8-66.72 13.13-105.75 31.29z"/><path d="M576.5 99.49c-7.64-4.96-17.84-2.79-22.8 4.85-55.8 85.94-87.11 92.9-98 91.9-10.07-.92-13.95-9.62-13.99-9.7-.41-.99-.91-1.9-1.47-2.76-.74-3.08-1.78-5.97-3.03-8.34-4.63.79-9.32.93-13.93.44-.53.41-1.05.82-1.61 1.19-12.22 7.99-29.11 3.79-37.73-9.38-5.27-8.06-6.2-17.6-3.35-25.63a50.415 50.415 0 0 1-2.57-21.75c-2.97-5.44-6.96-14.4-8.44-25.39-3.18-23.55 6.42-45.87 28.54-66.34 6.68-6.18 7.08-16.61.9-23.29s-16.61-7.08-23.29-.9c-38.66 35.78-42.3 72.37-38.55 96.77 1.46 9.51 4.12 17.84 6.96 24.68-12.35 31.84-23.62 53.89-59.97 70.18-6.57-11.19-17.48-24.37-35.32-34.54-14.51-8.28-31.27-13.23-50.17-14.88l-9.16 50.99c14.9.69 25.45 4.1 32.77 8.05 16.87 9.12 20.7 23.45 20.86 24.06-.09-.34-.12-.53-.12-.53l2.13-.44c.76 1.88 1.53 3.75 2.29 5.63-8.16-1.75-17.32-3.24-27.44-4.2-12.22-1.16-25.81-1.57-40.69-.72-3.43.2-6.95.48-10.51.81l5.56 51.21c2.68-.24 5.33-.46 7.9-.6 12.85-.73 24.37-.32 34.52.73 12.29 1.28 22.55 3.49 30.59 5.77 7.33 2.08 12.8 4.22 16.26 5.73 1.73.76 2.95 1.36 3.65 1.71.34.17.56.29.64.34l.02.01c6.31 3.58 13.5 4.19 19.96 2.3 1.93-.28 3.89-.81 5.81-1.64 47.75-20.49 94.78-42.45 131.79-77.96 7.16 5.85 16.37 10.23 27.16 11.22 1.61.15 3.23.22 4.86.22 36.05 0 77.66-35.96 123.8-107 4.96-7.64 2.79-17.84-4.85-22.8zM324.61 231.33l-6.06-9.41 38.14-24.58-.09-.15-9.26-5.3 6.43-6.4 12.52 7.19 5.36 8.32-47.04 30.32z"/><path d="M390.09 151.1c14.24 21.26 43.03 26.96 64.29 12.71 21.26-14.24 26.95-43.03 12.71-64.3-14.24-21.26-43.03-26.96-64.3-12.72-21.26 14.24-26.96 43.03-12.71 64.3z"/></g></svg>