<svg xmlns="http://www.w3.org/2000/svg" xml:space="preserve" viewBox="0 0 256.32 297.53" shape-rendering="geometricPrecision" text-rendering="geometricPrecision" image-rendering="optimizeQuality" fill-rule="evenodd" clip-rule="evenodd"><g fill="currentColor"><path d="M106.49 71.76c-5.19-2.74-11.62-.75-14.36 4.45-2.74 5.19-.75 11.62 4.45 14.36 17.37 9.16 32.93 12.47 46.36 12.47 1.5 0 2.97-.05 4.42-.13l-22.08-23.63c-5.9-1.59-12.16-4.02-18.79-7.52zM55.03 293.13h6.09c-1.32-1.81-2.37-3.82-3.05-6.01-.68 2.19-1.72 4.2-3.05 6.01zM94.05 293.13h13.82v-65.77H98v53.75c0 4.5-1.48 8.64-3.95 12.02zM18.16 227.36H8.29v65.77h13.82c-2.47-3.38-3.95-7.53-3.95-12.02v-53.75zM28.19 56.95c0 16.51 13.38 29.89 29.89 29.89 16.51 0 29.89-13.38 29.89-29.89 0-16.51-13.38-29.9-29.89-29.9-16.51 0-29.89 13.38-29.89 29.9zM1.03 213.74c.33 5.65 5.01 10.01 10.6 10.01.21 0 .42-.01.63-.02 2.23-.13 4.26-.94 5.9-2.22v-21.9c0-3.99 1.17-7.71 3.16-10.86-.45-25.03 1.16-41.64 3.33-52.62l3.02.61c-1.99 10.09-3.56 25.37-3.34 48.28 3.68-3.59 8.7-5.82 14.24-5.82 9.16 0 16.93 6.07 19.51 14.4 2.57-8.33 10.34-14.4 19.51-14.4 5.54 0 10.56 2.23 14.25 5.82.23-22.91-1.34-38.19-3.34-48.28l3.02-.61c2.16 10.98 3.78 27.59 3.33 52.62 1.99 3.15 3.16 6.87 3.16 10.86v21.9c1.64 1.27 3.67 2.09 5.89 2.22.21.01.42.02.63.02 5.59 0 10.27-4.36 10.6-10.01 2.03-34.77 1.06-62.09-2.87-81.79-2.95-14.77-7.56-25.25-13.83-31.36-5.74-5.59-11.35-6.18-13.75-6.13-.31-.03-.62-.05-.94-.05H32.41c-.32 0-.63.02-.94.05-2.39-.05-8 .54-13.75 6.13-6.27 6.1-10.88 16.59-13.83 31.36-3.93 19.7-4.9 47.02-2.87 81.79z"/><path d="M55 281.11v-81.49c0-9.07-7.36-16.43-16.43-16.43s-16.43 7.35-16.43 16.43v81.49c0 9.08 7.36 16.43 16.43 16.43S55 290.19 55 281.11zM94.02 199.62c0-9.07-7.36-16.43-16.43-16.43s-16.43 7.35-16.43 16.43v81.49c0 9.08 7.36 16.43 16.43 16.43s16.43-7.35 16.43-16.43v-81.49zM186.65 133.78c3.5 4.62 7.18 9 11.02 13.15.49-5.58 1.26-11.04 2.3-16.33-3.15-9.4-5.43-19.06-6.87-28.86l-8.73 5.24c.31 10.09 1.11 19.89 2.29 26.81z"/><path d="M256.32 140.35c-2.57-29.6-7.98-46.31-22.22-70.74-9.52-16.11-24.73-19.82-35.34-16.56-2.88.35-5.61 1.84-7.42 4.39-.06.08-.17.24-.35.47-.26.3-.5.62-.73.93-3.12 3.85-12.71 14.37-28.22 19.69l5.94 6.36 32.59-19.55c2.13-1.28 4.56-1.95 7.03-1.95 4.78 0 9.29 2.55 11.74 6.65 3.88 6.47 1.78 14.89-4.69 18.78l-19.45 11.67c5.98 14.21 12.53 31.02 14.7 47.3l-45.16 32.26a16.603 16.603 0 0 0-6.57 17.05l18.44 84.59c1.69 7.77 8.57 13.08 16.21 13.08 1.17 0 2.36-.13 3.55-.39 8.96-1.95 14.64-10.8 12.69-19.76l-16.11-73.9 47.42-33.88c8.69-3.51 16.11-10.51 15.95-26.47zM139.41 35.91c3.32 16.17 19.12 26.59 35.29 23.27 16.17-3.32 26.59-19.12 23.27-35.29C194.65 7.72 178.85-2.7 162.68.61 146.5 3.93 136.09 19.73 139.4 35.9zM115.47 55.92H94.89v6.31h19.22c-.01-.26-.02-.53-.01-.8.07-1.95.54-3.81 1.37-5.51zM148.04 62.23v-6.31h-7.12l5.89 6.31z"/><path d="M216.72 71.6c-3.02-5.03-9.55-6.67-14.58-3.65l-34.7 20.82-31.89-34.13c-4.01-4.29-10.73-4.52-15.02-.51-4.29 4.01-4.52 10.73-.51 15.02l37.76 40.41c2.07 2.22 4.9 3.37 7.77 3.37 1.88 0 3.77-.5 5.47-1.52l42.07-25.24c5.03-3.02 6.67-9.55 3.65-14.58z"/></g></svg>