<svg xmlns="http://www.w3.org/2000/svg" xml:space="preserve" viewBox="0 0 1623.07 1121.32" shape-rendering="geometricPrecision" text-rendering="geometricPrecision" image-rendering="optimizeQuality" fill-rule="evenodd" clip-rule="evenodd"><g fill="currentColor"><path d="M124.49 236.61c-13.6 2.87-31.04 10.01-49.27 27.14-59.69 56.08-83.91 183.7-72.47 379.3 1.15 19.69 17.6 34.88 37.06 34.88.73 0 1.53-.02 2.26-.06 20.42-1.19 35.06-18.72 33.87-39.13-9.51-162.68 10.15-249.4 28.67-292.44v120.27c41.67-76.31 25.05-194.71 19.88-229.94zM357.44 465.17c.22-.21-2.82-.4 1.81-.6v-118.3c9.26 22.19 19.61 55.99 25.56 105.84 2.42-.34 4.32-.58 6.84-.58l1.17.01.84.02 3.25 1.18c3.01.05 7.28 1.2 12.66 1.2h2.24c13.91 0 30.07-1.51 46.34-2.39-9.72-89.29-33.2-152.37-70.3-187.23-18.23-17.13-35.6-24.56-49.19-27.43-5.13 35.01-17.95 151.93 18.78 228.29zM231.79 334.8c42.19 0 71.09-75.31 79.77-98.46H152.01c8.69 23.15 37.59 98.46 79.78 98.46zM396.29 931.96l-17.43-161c-59.14-14.75-102.64-67.92-102.64-131.56 0-27.59 8.74-55.83 22.92-74.35H104.61v6.13L53 1032.65c-3.58 31.42 19.47 59.78 50.88 63.35 31.4 3.58 60.02-17.82 63.6-49.24l48.41-421.53h31.78l48.17 421.53c3.58 31.42 31.95 53.39 63.35 49.81 27.45-3.12 47.24-25.47 49.63-51.95-7.45-12-12.53-26.26-12.53-40.49v-72.18zM231.78 208.34c57.53 0 104.17-46.63 104.17-104.17C335.95 46.64 289.31 0 231.78 0c-57.54 0-104.17 46.64-104.17 104.17 0 57.54 46.63 104.17 104.17 104.17zM1547.62 263.75c-18.23-17.13-36.19-24.28-49.79-27.15-5.16 35.22-18.17 153.62 18.87 229.94V346.27c18.52 43.04 39.16 129.76 29.65 292.46-1.19 20.42 14.4 37.94 34.83 39.13.74.05 1.47.06 2.21.06 19.46 0 35.79-15.19 36.94-34.88 11.45-195.6-13.02-323.21-72.71-379.29zM1226.49 451.61l3.32-.06 1.31-.02 1.12-.01c2.52 0 5.17.24 7.6.59 5.95-49.84 17.61-83.64 26.86-105.83v118.29c0 .21.28.4.5.6 36.74-76.35 23.27-193.55 18.13-228.57-13.6 2.87-31.57 10.01-49.81 27.14-37.11 34.87-60.62 97.4-70.33 186.71 19.85 1.05 37.84 1.26 48.58 1.26 5.37-.01 9.74-.05 12.72-.1zM1391.55 334.8c42.19 0 71.09-75.31 79.77-98.46h-159.55c8.69 23.15 37.59 98.46 79.78 98.46zM1391.55 565.05h-67.37c14.18 18.52 22.46 46.76 22.46 74.35 0 63.64-44.03 117-103.16 131.75l-18.46 161.04v71.94c0 14.22-4.07 27.25-11.5 39.25.73 8.1 3.29 17.05 7.11 21.68h11.2-11.2c8.68 18.52 24.45 27.83 43.51 30.01 31.4 3.58 59.77-17.36 63.35-48.77l48.17-421.07h31.78l48.16 421.53c3.58 31.42 31.95 53.39 63.35 49.81 31.41-3.58 53.95-32.22 50.37-63.64L1516.7 571.1v-6.05h-125.15zM1391.55 208.34c57.53 0 104.17-46.63 104.17-104.17C1495.72 46.64 1449.08 0 1391.55 0c-57.54 0-104.17 46.64-104.17 104.17 0 57.54 46.63 104.17 104.17 104.17zM577.4 787.28h158.66c-10.09 0-19.77-3.96-28.94-7.16 0 0-.43.22-.84.06-17.18-6.1-32.64-13.94-46-23.69-39.07-28.27-52.28-65.52-56.15-80.27-3.01-11.05-4.64-22.31-4.67-32.49-.02-6.64.95-13.5 2.79-19.87 8.73-30.59 37.84-52 69.67-52 .46 0 2.16.01 2.16.03v-16.11H529.05c-3.22 0-6.37-.32-9.42.28-4.71.93-9.17 2.22-13.28 4.41 13.98 16.5 22.87 36.55 26.51 58.9 2.15 6.44 2.33 12.93 2.33 19.63v301.05h308.8c1.37-4.63 2.52-9.26 3.49-13.89H577.41c-10.67 0-19.07-10.84-19.07-21.51v-96.6c0-10.67 8.39-20.79 19.06-20.79zM990.13 940.07h96V639.02c0-6.66 1.2-13.31 3.34-19.76 3.62-22.37 13.45-42.59 27.44-59.1-4.11-2.19-8.54-3.15-13.24-4.08-3.05-.6-6.17-.28-9.4-.28h-142.4v61.81c37.04 6 60.24 39.85 54.83 76.09-3.72 24.95-21.58 45.16-44.36 53.32 3.03 5.01 5.72 9.4 8.29 14.62 4.18 8.44 7.7 16.38 10.83 25.64h64.45c10.66 0 17.06 10.12 17.06 20.79v96.61c0 10.67-6.4 21.5-17.06 21.5h-53.37c-.68 4.63-1.5 9.26-2.42 13.89z"/><path d="M1197.25 1004.14V746.37c4.63.53 8.85.84 13.34.84 59.75 0 108.24-48.44 108.24-108.2 0-41.2-23.01-77.01-56.89-95.28-8 5.79-17.74 9.32-28.32 9.61-.49.03-8.27.21-19.86.21-11.72-.03-37.27-.13-66.57-2.15-22.94 16.65-39.08 42.14-43.49 71.42-1.81 5.09-2.85 11.67-2.85 16.3h-.82v314.83H987.59c-5.75 32.41-14.73 64.82-27 97.22h188.53c12.72 0 25.09-4.52 34.07-13.51 9-9 14.06-20.82 14.06-33.53zM813.16 1034.63c12.73-31.01 21.41-57.53 27.3-80.68H521.29V639.01c0-5.72-.44-11.19-2.27-16.28-4.42-29.29-20.28-54.72-43.23-71.37-25.55 1.75-49.45 2.18-66.38 2.18-11.72 0-19.47-.19-20.16-.22-10.07-.27-19.76-3.63-27.96-9.58-33.87 18.28-56.86 54.08-56.86 95.27 0 59.75 48.45 108.2 108.2 108.2 4.49 0 8.9-.31 13.25-.83l-.01 257.76c0 12.73 5.16 24.54 14.16 33.53 9 8.99 21.44 13.51 34.15 13.51h334.5c.86-4.63 2.29-11.27 4.46-16.55zM525.93 1065.07h-55.56v23.15h55.56v-8zM1155.58 1065.07h-60.18v23.15h60.18v-21.3zM787 114.85c-58.49 13.62-94.87 72.08-81.25 130.58 13.62 58.49 72.09 94.87 130.57 81.25 58.51-13.61 94.88-72.08 81.27-130.58-13.62-58.5-72.1-94.88-130.59-81.25z"/><path d="M354.11 501.41c-.58 20.46 15.55 37.49 36 38.05.27.01 7.63.2 19.46.2 19.38 0 50.56-.53 82.53-3.49 16.02-1.48 32.25-3.57 47.66-6.7 15.45-3.19 30.73-7.13 44.62-13.98 54.19-26.84 85.07-52.91 103.59-69.92v132.46l250.01 37.43v-169.9c4.63 6.39 15.22 14.18 26.17 22.76 18.14 14.2 42.01 30.28 75.84 47.18 13.89 6.85 28.27 10.79 43.74 13.98 45.9 9.19 100.86 10.09 130.1 10.18 11.81 0 19.15-.19 19.44-.21 20.44-.55 36.53-17.58 35.98-38.03-.56-20.45-17.61-36.56-38.06-36 0 0-1.48.03-4.49.07-3.03.05-7.46.09-12.94.11-17.92 0-47.35-.53-75.7-3.17-14.16-1.31-28.05-3.16-39.76-5.54-11.64-2.3-21.2-5.42-25.47-7.65-53.1-26.81-72.38-46.26-91.97-63.78-9.81-8.78-20.62-18.45-36.09-25.87-15.46-7.44-33.6-11.79-53.62-11.68-2.05 0-4.06-.46-6.02-.46H738.21c-1.96 0-3.96.46-6.02.46-20.02-.1-38.17 3.76-53.63 11.19-11.54 5.48-20.66 12.72-28.48 19.4-11.77 10.12-21.42 19.99-35.97 31.35-14.49 11.32-33.85 24.45-63.61 39.33-4.27 2.22-13.83 5.39-25.47 7.69-35.42 7.31-88.73 8.8-115.45 8.71a811.457 811.457 0 0 1-17.41-.17c-20.46-.56-37.49 15.56-38.05 36.01zM981.52 878.34c.05-43.04-8.67-79.94-23.48-109.83a188.92 188.92 0 0 0-10.19-18.13c-2.64.32-5.31.55-8.02.55-3.35 0-6.72-.26-10-.76l-268.52-40.12c-14.16-2.12-26.94-8.6-36.96-18.44 8.01 17.67 21.85 37.73 44.15 53.86 12.19 8.91 26.34 16.29 42.4 21.99.27.09.54 1.16.82 1.24 23.99 8.39 52.25 13.95 84.86 13.95h.7c3.12 0 6.29-1.01 9.52-1.1 5.87 1.64 18.38 5.55 28.83 14.61 7.24 6.15 14.07 13.83 19.8 26.26 5.64 12.47 10.32 29.86 10.36 56.03.07 36.5-9.71 89.82-39.76 163.08-12.12 29.58 2.04 63.34 31.62 75.46a57.704 57.704 0 0 0 21.91 4.32c22.8 0 44.4-13.56 53.58-35.96 33.98-83.09 48.33-150.4 48.4-207.02z"/><path d="m662.69 700.89 268.52 40.13c2.89.43 5.78.64 8.61.64 28.18 0 52.88-20.61 57.18-49.33 4.72-31.61-17.08-61.07-48.69-65.8l-268.52-40.12c-31.6-4.73-61.06 17.07-65.78 48.69-4.73 31.6 17.07 61.06 48.69 65.79z"/></g></svg>