<svg xmlns="http://www.w3.org/2000/svg" xml:space="preserve" viewBox="0 0 386.55 379.65" shape-rendering="geometricPrecision" text-rendering="geometricPrecision" image-rendering="optimizeQuality" fill-rule="evenodd" clip-rule="evenodd"><g fill="currentColor"><path d="m89.12 327.19 6.43-32.13v-21.29H0v95.55h95.55v-19.53c-.94-1.01-1.82-2.08-2.6-3.25-3.82-5.73-5.18-12.6-3.83-19.35zM362.88 273.77h-95.55v95.55h95.55z"/><path d="m257.63 354.09-.52-88.96h87.26c8.61 0 16.2-4.29 20.8-10.84 13.97-7.86 25.88-20.84 19.71-47.62-13.55-43.4-27.12-66.59-56.42-98.43-21.45-23.04-48.27-21.42-62.37-10.42-7.53 5.88-10.18 15.82-8.98 26.25l25.74-15.98c3.32-2.06 7.14-3.15 11.03-3.15 7.3 0 13.96 3.7 17.8 9.89 6.09 9.81 3.07 22.74-6.74 28.83l-28.55 17.73c10.99 15.43 23.75 33.66 33.42 52.91h-32.82c.35-1.31.68-2.61 1.05-3.9-3.67-15.02-5.94-30.34-6.85-45.78l-13.97 8.68c-.76 15.1-.78 29.76.12 40.25.16.25.33.5.49.75h-26.27c-6.77 0-13.25 2.7-18.02 7.5s-7.43 11.3-7.39 18.07l.68 114.52c.08 13.98 11.44 25.26 25.41 25.26h.16c14.03-.08 25.34-11.53 25.26-25.56zM94.75 122.76c-14.72-5.66-38.27-1.43-51.49 20.87-17.98 30.76-24.36 51.55-26.06 88.06.89 23.25 15.58 30.5 30.24 33.45 2.6 1.15 5.48 1.8 8.51 1.8h4.52c2.3.18 4.38.2 6.24 0H105.95l-12.24 61.17c-2.28 11.42 5.12 22.53 16.55 24.82 1.4.28 2.79.41 4.16.41 9.85 0 18.66-6.93 20.66-16.96l17.28-86.4c1.24-6.2-.36-12.62-4.37-17.51a21.083 21.083 0 0 0-16.31-7.72H79.51c-19.85-35.27-19.68-70.91-19.65-73.04a17.9 17.9 0 0 1 13.63-17.12c1.47-.36 2.99-.53 4.52-.51 9.84.14 17.75 8.26 17.63 18.1 0 .23.07 10.83 3.61 25.18 1.97-4.76 3.88-9.28 5.58-13.45 7.99-15.3 4.65-35.49-10.07-41.16z"/><path d="M77.93 138.76c-7.3-.1-13.3 5.73-13.4 13.02-.03 2.02-.17 34.98 17.72 68.29h31.3c-22.51-30.73-22.6-67.28-22.6-67.95.09-7.28-5.73-13.27-13.02-13.37zM170.33 89.59c3.72-23.18-12.05-44.99-35.23-48.71-23.18-3.72-44.99 12.05-48.71 35.23-3.72 23.18 12.05 44.99 35.23 48.71 23.18 3.72 44.99-12.06 48.71-35.23zM232.37 120.69c4.99-4.6 9.91-13.04 14.63-25.06l-5.68-2.23c-1.87 4.77-3.74 8.86-5.61 12.34-1.27-5.61-2.14-10.96-2.71-16.01 2.97.84 6.02 1.39 9.12 1.62 6.12-16.2 10.4-34.72 12.01-42.22-2.14-1.37-3.58-3.76-3.58-6.49 0-4.26 3.45-7.71 7.71-7.71s7.71 3.45 7.71 7.71c0 3.59-2.47 6.59-5.8 7.44-1.52 7.14-5.57 24.86-11.56 41.28 5.19-.36 10.42-1.62 15.45-3.86 23.07-10.28 33.44-37.31 23.16-60.38-10.28-23.07-37.31-33.44-60.38-23.16-23.07 10.28-33.44 37.31-23.16 60.38 4.75 10.65 13.06 18.58 22.91 23.04.74 7.8 2.17 16.35 4.62 25.5-.99 1.29-1.98 2.42-2.97 3.33-7.72 7.13-19.33 17.83-34.87 26.38l10.85.69c12.17-7.83 21.54-16.47 28.17-22.58zM128.96 155.45c-1.01-.12-2.05-.28-3.08-.43.48-8.73-2.28-15.88-6.48-16.3-4.47-.45-7.96 33.93-3.49 34.38 3.76.38 7.46-4.75 9.12-12.04 1.09.16 2.18.32 3.25.45-.02-.68-.02-1.36.03-2.05.09-1.38.31-2.71.65-4.01z"/><path d="M302.47 139.69c7.63-4.74 9.97-14.77 5.23-22.4-4.74-7.63-14.76-9.97-22.4-5.23l-59.96 37.24-75.11-4.75c-8.98-.59-16.69 6.24-17.26 15.2-.57 8.97 6.24 16.69 15.21 17.26l80.3 5.08c.34.02.68.03 1.03.03 3.03 0 6-.84 8.58-2.45l64.38-39.98z"/></g></svg>