<svg xmlns="http://www.w3.org/2000/svg" xml:space="preserve" viewBox="0 0 399.02 474.78" shape-rendering="geometricPrecision" text-rendering="geometricPrecision" image-rendering="optimizeQuality" fill-rule="evenodd" clip-rule="evenodd"><g fill="currentColor"><path d="M211.05 50.99c7.98-6.91 18-10.95 28.48-11.61L183.48-.01l-1.08.75L199.41 66c2.8-5.66 6.73-10.75 11.64-15.01z"/><path d="M222.23 48.18c8.06 6.27 33.88 29.21 47.1 74.31.73-.55 1.46-1.08 2.16-1.68 18.45-15.98 20.47-43.89 4.49-62.35-13.65-15.77-36.02-19.49-53.75-10.27z"/><path d="M219.02 50.67c-.18-.14-.33-.24-.47-.35-1.69 1.1-3.35 2.28-4.92 3.64-18.46 15.97-20.47 43.89-4.49 62.35 14.45 16.69 38.63 19.88 56.78 8.53-13.28-46.62-40.37-69.27-46.89-74.17zM393.61 263.91c5.36-8.15 7.53-19.16 2.84-34.72-15.84-40.99-30.41-62.48-60.71-91.32-22.16-20.85-47.92-17.57-60.82-6.06-9.2 8.22-9.57 22.88-3.91 35.94l9.74-17.59a19.66 19.66 0 0 1 17.2-10.13c3.31 0 6.59.85 9.5 2.47a19.53 19.53 0 0 1 9.37 11.76c1.45 5.04.84 10.35-1.7 14.94l-18.85 34.03c15.64 22.03 32.95 49.1 40.38 63.19 2.59 4.92 5.13 8.82 7.74 11.77l-1.06 171.87c-.09 13.56 10.84 24.63 24.41 24.71h.16c13.49 0 24.47-10.9 24.55-24.41l1.15-186.46z"/><path d="M305.55 145.93c-7.59-4.2-17.16-1.46-21.37 6.14L221.95 264.4c-4.2 7.59-1.46 17.16 6.14 21.37 2.41 1.34 5.03 1.97 7.6 1.97 5.53 0 10.9-2.92 13.77-8.1l62.22-112.33c4.2-7.6 1.46-17.16-6.14-21.37zM0 306.08h13.56v168.7h29.37V333.69h158.81v141.09h29.37l.01-168.7h13.55v-12.59H0zM45.7 283.97h153.27v-5.89H45.7zM55.53 270.05h133.62v-55.02h-23.71v-29.8h-7.86v29.8h-31.31v-29.8h-7.86v29.8H87.09v-29.8h-7.86v29.8h-23.7zM83.16 178.35c2.71 0 4.91-5.28 4.91-11.79 0-6.51-2.2-11.79-4.91-11.79s-4.91 5.28-4.91 11.79c0 6.51 2.2 11.79 4.91 11.79zM122.34 178.35c2.71 0 4.91-5.28 4.91-11.79 0-6.51-2.2-11.79-4.91-11.79s-4.91 5.28-4.91 11.79c0 6.51 2.2 11.79 4.91 11.79zM161.51 178.35c2.71 0 4.91-5.28 4.91-11.79 0-6.51-2.2-11.79-4.91-11.79s-4.91 5.28-4.91 11.79c0 6.51 2.2 11.79 4.91 11.79z"/></g></svg>