<svg xmlns="http://www.w3.org/2000/svg" xml:space="preserve" viewBox="0 0 151.3 184.02" shape-rendering="geometricPrecision" text-rendering="geometricPrecision" image-rendering="optimizeQuality" fill-rule="evenodd" clip-rule="evenodd"><g fill="currentColor" fill-rule="nonzero"><path d="M25.82 18.84c.06.44.29.86.68 1.27-.68 1.8-1.06 3.74-1.06 5.78 0 8.98 7.28 16.27 16.27 16.27 8.98 0 16.27-7.28 16.27-16.27 0-2.03-.38-3.98-1.06-5.78.39-.4.62-.83.68-1.27 1.89.07 3.35-.24 3.99-1.25C63.75 14.19 58.22 0 41.71 0 25.2 0 19.68 14.19 21.83 17.59c.64 1.01 2.1 1.32 3.99 1.25zM41.71 2.96c1.53 0 2.81 1.06 3.15 2.49 1.82-.25 4.08-.62 4.08-.62s-2.11 1.72-4.2 2.56a3.26 3.26 0 0 1-3.03 2.08c-1.38 0-2.55-.86-3.03-2.08-2.09-.84-4.2-2.56-4.2-2.56s2.25.36 4.08.62c.35-1.42 1.62-2.49 3.15-2.49zm0 8.19c8.78 0 15.9 2.27 15.9 5.06 0 .42-.16.82-.46 1.2-1.7-2.21-7.97-3.85-15.45-3.85-7.48 0-13.75 1.64-15.45 3.85-.3-.39-.46-.79-.46-1.2 0-2.79 7.12-5.06 15.9-5.06zM25.23 47.3H22.6c-.48 0-.94.06-1.39.15-.66.04-1.33.19-1.98.45-.84.33-5.78 2.53-10.43 8.98C4.13 63.32-.02 73.82.01 89.84c0 4.2.28 8.78.89 13.79.41 3.3 3.21 5.71 6.45 5.71a6.503 6.503 0 0 0 6.46-7.3c-.56-4.52-.8-8.58-.8-12.2.02-11.1 2.21-18.08 4.57-22.49l6.48 27.6c-.1.36-.19.72-.26 1.09l-13.08 76.52c-.91 5.31 2.66 10.36 7.97 11.27.56.09 1.11.14 1.66.14 4.67 0 8.79-3.36 9.61-8.12l11.23-65.71h1.02l11.23 65.71c.81 4.76 4.94 8.12 9.61 8.12.54 0 1.1-.05 1.65-.14 5.31-.91 8.88-5.95 7.98-11.27L59.6 96.04c-.06-.37-.15-.73-.25-1.08l.05-.22-34.17-47.43zM84.41 76.23c-.23-.2-.46-.39-.69-.59-5.19-4.61-9.45-10.74-12.29-15.68a80.07 80.07 0 0 1-3.22-6.16c-.03-.06-.05-.11-.08-.17-.3-1.18-.81-2.26-1.48-3.18a6.47 6.47 0 0 0-3.53-2.74c-.73-.27-1.51-.42-2.32-.42H30.56L60.7 89.12l3.74-15.93c2.85 4.07 6.35 8.34 10.61 12.15 3.66 3.26 7.91 6.18 12.79 8.19-2.5-4.35-3.81-8.92-3.8-13.32 0-1.34.12-2.67.35-3.99zM136.24 110.11c.25 1.17-.5 2.32-1.67 2.57-.15.03-.31.05-.46.05-1 0-1.9-.7-2.12-1.71-.02-.07-.04-.14-.05-.22-.09.06-.18.13-.27.19a7.182 7.182 0 0 1-4.15 1.32c-.49 0-.96-.06-1.43-.16-1.8 1.62-4.3 2.76-7.69 2.74h-.06c-3.36 0-5.84-1.14-7.63-2.74-.47.09-.95.16-1.43.16-1.49 0-2.93-.46-4.15-1.32-.09-.07-.18-.13-.27-.2-.02.07-.04.14-.06.22a2.167 2.167 0 0 1-2.58 1.66 2.168 2.168 0 0 1-1.67-2.57c.16-.71.36-1.4.58-2.08-.79-.62-1.55-1.24-2.29-1.86v68.92c0 4.94 4 8.94 8.94 8.94 4.94 0 8.94-4 8.94-8.94v-58.83c.52.05 1.05.09 1.62.09h.12c.57 0 1.1-.04 1.62-.09v58.83c0 4.94 4 8.94 8.94 8.94 4.94 0 8.94-4 8.94-8.94v-68.92c-.73.62-1.5 1.25-2.29 1.87.22.68.42 1.37.58 2.07z"/><path d="M125.63 99.32c-.47.34-.94.69-1.44 1.03a5.785 5.785 0 0 0-1.4 8.06 5.794 5.794 0 0 0 4.74 2.46c1.15 0 2.31-.34 3.32-1.05.23-.17.46-.33.69-.5-1.33-4.1-4.2-7.97-5.91-10z"/><path d="M88.21 69.59c-1.58 2.98-2.71 6.6-2.7 10.64-.01 4.65 1.53 9.68 4.85 14.61 2.62 3.9 6.3 7.79 11.28 11.76 1.69-4.31 4.36-7.89 6.1-9.94-3.66-3.05-6.16-5.83-7.78-8.26-2.26-3.4-2.88-5.99-2.89-8.16 0-1.89.5-3.59 1.37-5.25.53-1.02 1.22-2 1.97-2.91-.22 1.79-.46 3.13-.69 3.57-.39.75-.68 1.48-.88 2.21v4.83c.39 1.55 1.15 3.16 2.32 4.92 1.69 2.53 4.26 5.24 7.54 7.97.45-.49.73-.78.75-.81.85-.85 2.22-.85 3.07 0 .85.85.85 2.22 0 3.07 0 0-.07.07-.24.26-.04.04-.1.1-.14.15.43.31.86.63 1.31.94 3.26 2.29 4.05 6.81 1.75 10.07-.73 1.05-1.73 1.85-2.85 2.38 1.48 1.1 3.42 1.83 6.06 1.84 2.63-.01 4.58-.73 6.07-1.83a7.23 7.23 0 0 1-2.86-2.38c-2.29-3.26-1.5-7.78 1.75-10.07.45-.31.88-.62 1.3-.94-.05-.05-.11-.11-.15-.16-.17-.18-.24-.25-.25-.25-.85-.85-.85-2.22 0-3.07.85-.85 2.22-.85 3.07 0 .02.03.3.32.75.81 3.28-2.73 5.84-5.44 7.54-7.97 1.17-1.76 1.93-3.37 2.32-4.91v-4.84c-.2-.72-.49-1.44-.88-2.19-.23-.44-.47-1.78-.69-3.57.75.91 1.44 1.89 1.97 2.91.87 1.66 1.37 3.36 1.37 5.25-.01 2.17-.63 4.77-2.89 8.16-1.62 2.42-4.13 5.21-7.79 8.26 1.74 2.06 4.42 5.64 6.1 9.94 4.99-3.97 8.67-7.86 11.29-11.76 3.32-4.92 4.87-9.95 4.85-14.61 0-4.03-1.13-7.65-2.7-10.64-1.58-2.99-3.59-5.41-5.52-7.34-3.34-3.31-6.51-5.22-7.53-5.8-.16-.09-.28-.16-.32-.18-.03-.01-.06-.03-.08-.04-.57-.33-1.21-.55-1.88-.66-2.51 3.87-6.33 6.58-10.84 7.63-1.33.31-2.68.47-4.03.47-6.17 0-11.69-3.14-14.86-8.09-.67.11-1.3.34-1.86.66a.3.3 0 0 0-.08.04c-.04.02-.16.09-.32.18-1.01.58-4.19 2.49-7.53 5.8-1.94 1.93-3.94 4.34-5.52 7.34z"/><path d="M114.01 108.41a5.786 5.786 0 0 0-1.4-8.06c-.49-.35-.97-.69-1.44-1.03-.56.66-1.25 1.52-1.97 2.52-1.48 2.05-3.04 4.72-3.94 7.48.23.16.46.33.69.49 1.01.71 2.17 1.05 3.32 1.05 1.82 0 3.61-.86 4.73-2.46zM122.09 61.79c8.75-2.04 14.19-10.78 12.15-19.53-2.04-8.75-10.78-14.19-19.53-12.15-8.75 2.04-14.19 10.78-12.15 19.53 2.04 8.75 10.78 14.19 19.53 12.15z"/></g></svg>