<svg xmlns="http://www.w3.org/2000/svg" xml:space="preserve" viewBox="0 0 65.36 76.62" shape-rendering="geometricPrecision" text-rendering="geometricPrecision" image-rendering="optimizeQuality" fill-rule="evenodd" clip-rule="evenodd"><g fill="currentColor"><path d="M42.69 38.46c0 1.79-.06 3.75-.18 5.9a2.601 2.601 0 0 0 2.44 2.74h.15c1.36 0 2.51-1.06 2.59-2.44.13-2.25.19-4.31.19-6.21 0-2.61-.12-4.9-.32-6.93-1.53.67-3.21 1.37-5.02 2.09.1 1.45.16 3.05.16 4.84zM37.01 35.7a3.24 3.24 0 0 1-3.02 2.05c-.63 0-1.24-.18-1.76-.52-.49-.32-.97-.63-1.43-.94-.07 0-.14.01-.2.01-.36 0-.72-.06-1.06-.18-2.36-.82-4.57-1.64-6.61-2.45v38.84c0 2.21 1.79 4 4 4s4.01-1.79 4.01-4V43.27h1.5v29.24c0 2.21 1.79 4 4 4s4.01-1.79 4.01-4V34.44c-1.1.42-2.25.84-3.43 1.26zM32.65 14.58c4.02 0 7.29-3.26 7.29-7.29 0-4.02-3.26-7.29-7.29-7.29-4.02 0-7.29 3.26-7.29 7.29s3.26 7.29 7.29 7.29zM18.11 24.58c3.35 1.54 7.98 3.49 13.54 5.41.38.13.73.33 1.03.59.01-.01.02-.02.04-.03-3.99-2.72-6.67-4.88-8.32-6.5-1-.98-1.62-1.76-1.93-2.28-.05-.08-.09-.15-.13-.22.17-.05.37-.1.6-.14.36.46 1.27 1.55 1.92 2.18 1.82 1.79 4.72 4.04 8.46 6.58.13-.07.26-.13.4-.17 2.42-.84 4.67-1.68 6.73-2.5v-3.56c.19.39.39.85.58 1.37.18.51.36 1.09.53 1.74 1.76-.72 3.37-1.41 4.81-2.06-.6-2.07-1.35-3.68-2.18-4.96-1.06-1.62-2.31-2.65-3.46-3.22-1.09-.55-2.05-.68-2.63-.69-.05 0-.1-.01-.14-.01H25.43c-.18-.01-.43-.02-.74-.02-.97.01-2.42.05-3.95.53-.77.25-1.6.61-2.37 1.34-.78.71-1.39 1.94-1.36 3.19v.02c.01 1.19.43 2.26 1.06 3.29.02.04.05.08.08.12z"/><path d="M34.77 36.29c-.78 0-1.52-.28-2.09-.76-.29.25-.63.44-.99.57.29.19.59.39.89.58a2.575 2.575 0 0 0 3.51-.66l-.27.09c-.34.12-.7.18-1.06.18zM11.48 15.85c3.92.91 7.84-1.52 8.75-5.44.91-3.92-1.53-7.84-5.44-8.75C10.87.75 6.95 3.18 6.04 7.1c-.91 3.92 1.53 7.84 5.44 8.75zM4.68 47c.73 2.79 1.59 7.22 1.58 12.58 0 3.64-.39 7.7-1.47 12a4.051 4.051 0 0 0 3.93 5.03c1.81 0 3.47-1.23 3.93-3.07 1.25-5.02 1.71-9.75 1.71-13.97-.01-8.58-1.85-15.01-2.73-17.6-.41-4.14.5-8.77 1.33-12.67-3.68-1.78-5.79-3.01-5.96-3.11a3.192 3.192 0 0 1-1.49-1.99c-.21-.84-.09-1.71.35-2.45.58-.98 1.65-1.59 2.79-1.59.58 0 1.15.16 1.65.45l.06.03c.07.04.15.09.27.16.23.13.59.33 1.07.59.71.38 1.45.77 2.21 1.15-.3-2.13-1.45-3.98-3.28-4.44-2.76-.69-6.77.81-8.4 5.56C.02 30.19-.45 34.45.39 41.64c.65 3.35 2.36 4.77 4.29 5.35z"/><path d="M10.31 21.37c-.12-.07-.21-.12-.27-.15l-.08-.04a2.593 2.593 0 0 0-2.64 4.46c.11.07 8.59 5.09 22.42 9.86.28.1.57.14.85.14.6 0 1.17-.22 1.63-.59-.22-.28-.4-.6-.52-.95-.28-.82-.23-1.7.15-2.47.1-.21.23-.41.37-.59a2.44 2.44 0 0 0-.79-.44c-6.69-2.31-12.09-4.68-15.8-6.47-1.85-.89-3.29-1.64-4.25-2.16a42.5 42.5 0 0 1-1.08-.6zM53.88 15.85a7.277 7.277 0 0 0 5.44-8.75 7.277 7.277 0 0 0-8.75-5.44 7.277 7.277 0 0 0-5.44 8.75 7.277 7.277 0 0 0 8.75 5.44zM55.07 20.61c.49-.29 1.06-.45 1.64-.45 1.14 0 2.21.61 2.79 1.59.44.74.57 1.62.35 2.45-.21.84-.74 1.54-1.49 1.98-.18.1-2.29 1.34-5.97 3.11.84 3.9 1.75 8.54 1.33 12.67-.88 2.59-2.73 9.02-2.73 17.6 0 4.21.45 8.95 1.71 13.97a4.053 4.053 0 0 0 4.91 2.95 4.051 4.051 0 0 0 2.95-4.91c-1.08-4.3-1.47-8.36-1.47-12 0-4.75.67-8.78 1.33-11.57.08-.36.17-.7.25-1.01 1.93-.58 3.64-1.99 4.29-5.35.84-7.2.37-11.45-1.84-17.98-1.63-4.74-5.64-6.24-8.4-5.56-1.83.46-2.98 2.31-3.28 4.44 2.01-1.02 3.24-1.72 3.55-1.9.06-.04.08-.05.08-.05z"/><path d="M32.32 33.89a2.595 2.595 0 0 0 3.3 1.61c13.83-4.77 22.31-9.8 22.42-9.86a2.593 2.593 0 0 0-2.64-4.46s-.02.01-.08.05c-.86.5-8.85 5.04-21.39 9.38a2.593 2.593 0 0 0-1.6 3.3z"/></g></svg>