<svg xmlns="http://www.w3.org/2000/svg" xml:space="preserve" viewBox="0 0 4749.78 1518.29" shape-rendering="geometricPrecision" text-rendering="geometricPrecision" image-rendering="optimizeQuality" fill-rule="evenodd" clip-rule="evenodd"><g fill="currentColor"><path d="M3691.86 520.16s-231.42-366.06-267.23-409.31c-35.83-43.23-380.77-83.81-716.64-83.71-335.91.1-478.96 40.83-561.73 76.49-82.75 35.65-971.27 519.26-1009.93 542.15-38.66 22.91-106.71 229-106.71 229l2.48 175.51-65.2.02c-33.71.01-73.83 27.38-89.53 61.09l-21.35 45.82c-15.71 33.72-1.1 61.05 32.61 61.03l264.93-.08c95.89-177.79 309.52-318.09 490.71-318.15 181.16-.05 264.09 140.15 194.25 317.94l1516.68-.46c95.9-177.8 309.54-318.1 490.69-318.15 181.18-.06 264.11 140.15 194.29 317.94l387.8-.12c33.74-.02 73.84-27.35 89.55-61.08l21.35-45.81c15.71-33.71 1.1-61.07-32.64-61.06l-74.81.02c86.41-99.44 181.28-212.07 196.27-244.25 77.19-165.64-935.88-284.83-935.88-284.82zm-2011.34-5.46c206.09-151.28 422.18-304.46 471.75-330.39 62.8-21.39 118.46-60.2 447.42-65.09l-184.18 395.25-734.99.23zm832.23-.26 184.35-395.61c316.3 2.35 595.26 40.1 639.18 66.51 18.85 26.69 111.63 169.8 185.37 328.78l-1008.9.32z"/><path d="M1612.28 968.73c-143.22.04-311.81 109.59-389.82 249.42-4.68 8.39-9.08 16.87-13.08 25.45-70.71 151.76-5.02 274.74 146.8 274.7 151.77-.05 332.12-123.11 402.84-274.86 4-8.58 7.52-17.07 10.65-25.45 52.31-139.82-14.22-249.29-157.39-249.25zm-22.07 264.56a124.86 124.86 0 0 1-4.23 10.17c-26.18 56.21-93 101.8-149.2 101.81-56.22.02-80.55-45.55-54.35-101.75 1.6-3.43 3.35-6.83 5.25-10.18 29.07-51.43 91.18-91.61 143.96-91.62 52.77-.02 77.45 40.12 58.57 91.56zM3813.9 968.04c-143.22.05-311.79 109.59-389.79 249.42-4.66 8.38-9.09 16.87-13.08 25.45-70.72 151.76-5.01 274.74 146.77 274.7 105.23-.03 224.11-59.24 310.75-146.07l52.7-62.31c15.25-21.32 28.71-43.51 39.42-66.48 4-8.58 7.51-17.07 10.66-25.46 52.3-139.82-14.25-249.28-157.43-249.25zm-22.05 264.57c-1.22 3.35-2.6 6.74-4.2 10.17-26.2 56.22-93.01 101.8-149.23 101.81-56.22.02-80.55-45.53-54.35-101.75 1.6-3.43 3.36-6.82 5.27-10.17 29.07-51.43 91.17-91.61 143.94-91.62 52.78-.01 77.43 40.12 58.57 91.57zM3198.37 201.15c-79.34 0-173.67 64.32-210.66 143.66-36.99 79.35-2.67 143.67 76.68 143.67 79.34 0 173.66-64.32 210.66-143.67 37-79.34 2.67-143.66-76.67-143.66zM1708.38 167.78H487.1v29.51h1221.28zM1994.37 48.53H773.09v29.5h1221.28zM1462.84 287.04H29.28v29.5h1433.56zM1227.87 435.81V406.3H296.3v29.51zM931.56 525.56H0v29.51h931.56zM454.84 1130.85l6.73 43.75 81.52-12.98c17.29 72.61-23.12 147.83-95.18 172.42-73.55 25.09-153.12-11.75-182.46-82.56 1.72-.53 3.45-1.03 5.16-1.62 35.78-12.21 65.22-34.54 86.26-62.69-14 11.86-30.31 21.45-48.72 27.74-78.87 26.93-164.61-15.18-191.54-94.05-26.9-78.86 15.22-164.61 94.07-191.52 37.45-12.78 76.39-9.84 109.91 5.07a181.723 181.723 0 0 0-53.76-27.63c15.66-37.2 46.38-67.87 87.57-81.93 76.55-26.14 159.8 14.75 185.93 91.3 9.09 26.6 9.91 53.97 4.12 79.5l-82.68-13.32-6.83 43.75 151.01 16.44 194.96 21.22 2.84-26.3-215.36-34.71c10.89-35.81 11.08-75.24-1.93-113.37-33-96.69-138.15-148.34-234.86-115.34-60 20.47-102.61 68.72-118.46 125.49-25.9-3.03-52.87-.49-79.2 8.5-94.4 32.22-144.82 134.85-112.61 229.24 28.52 83.6 112.24 132.64 196.58 120.44 1.38 6.11 3.08 12.19 5.15 18.24 31.43 92.1 131.55 141.28 223.67 109.86 92.09-31.44 141.28-131.58 109.85-223.69-.63-1.86-1.34-3.67-2.03-5.49l229.09-36.45-2.79-26.26-190.48 20.34-155.54 16.62zM3507.87 114.34c.15.01.31.02.47.02 3.76 0 6.93-2.93 7.17-6.74 1.33-20.47-3.63-36.98-14.73-49.09-17.16-18.7-42.62-19.45-43.7-19.47-4.16.1-7.25 3.07-7.35 7.05a7.197 7.197 0 0 0 7.05 7.35c.2 0 20.32.58 33.38 14.8 8.34 9.1 12.03 22.02 10.97 38.42-.26 3.97 2.75 7.4 6.72 7.65zM3546.99 112.55c.25.02.5.02.74.02 3.64.01 6.77-2.75 7.16-6.46 3.17-30.63-3.18-55.67-18.84-74.41C3512.19 3.17 3475.57.13 3474.02.02c-3.92-.32-7.42 2.68-7.72 6.64-.3 3.97 2.68 7.42 6.64 7.72.32.03 32.05 2.65 52.06 26.56 13.08 15.64 18.31 37.07 15.55 63.7-.41 3.95 2.47 7.48 6.43 7.91zM4651.17 696.54c-4.16-.1-7.26 3.07-7.35 7.05a7.203 7.203 0 0 0 7.05 7.35c.2 0 20.33.58 33.39 14.81 8.34 9.09 12.03 22.01 10.97 38.42a7.204 7.204 0 0 0 6.72 7.65c.16.01.32.02.47.02 3.77 0 6.93-2.93 7.18-6.74 1.33-20.48-3.63-36.99-14.74-49.09-17.16-18.71-42.63-19.46-43.7-19.48zM4668.11 657.5c-3.98-.32-7.41 2.67-7.71 6.63-.3 3.96 2.66 7.41 6.62 7.73.32.02 32.29 2.81 52.16 26.66 13.02 15.63 18.21 37.02 15.47 63.58-.41 3.95 2.47 7.49 6.43 7.91.25.02.5.04.74.04 3.64 0 6.77-2.76 7.16-6.47 3.18-30.63-3.17-55.67-18.84-74.41-23.87-28.53-60.48-31.57-62.03-31.68zM3326.2 1330.43c-.2-.02-20.49-1.95-32.56-16.87-7.72-9.56-10.61-22.65-8.6-38.9.49-3.95-2.31-7.54-6.26-8.04-3.96-.53-7.55 2.31-8.04 6.26-2.53 20.36 1.44 37.13 11.81 49.87 16.03 19.69 41.41 21.93 42.47 22.02.2.02.39.02.58.02 3.71 0 6.84-2.84 7.16-6.6.33-3.95-2.62-7.44-6.57-7.77zM3307.75 1368.48c-.33-.04-32.08-4.71-50.5-29.7-12.06-16.38-15.99-38.04-11.68-64.39.64-3.92-2.02-7.62-5.95-8.27a7.195 7.195 0 0 0-8.28 5.95c-4.96 30.4-.12 55.77 14.42 75.4 22.14 29.89 58.51 35.09 60.05 35.29.32.05.65.06.96.06 3.55 0 6.63-2.62 7.12-6.23.54-3.93-2.22-7.56-6.15-8.11zM1119.35 1330.43c-.2-.02-20.49-1.95-32.56-16.87-7.72-9.56-10.62-22.64-8.6-38.9a7.21 7.21 0 0 0-6.25-8.04c-3.98-.53-7.56 2.31-8.04 6.25-2.54 20.36 1.43 37.14 11.8 49.88 16.03 19.69 41.4 21.93 42.47 22.02.2.02.4.02.58.02 3.71 0 6.84-2.84 7.16-6.6.33-3.95-2.62-7.44-6.57-7.77zM1100.88 1368.48c-.31-.04-31.83-4.54-50.38-29.59-12.14-16.38-16.09-38.09-11.77-64.5.64-3.92-2.02-7.62-5.95-8.27a7.17 7.17 0 0 0-8.27 5.95c-4.97 30.4-.13 55.77 14.41 75.4 22.14 29.89 58.51 35.09 60.04 35.29.33.05.65.06.97.06 3.55 0 6.64-2.62 7.12-6.24a7.192 7.192 0 0 0-6.18-8.09z"/></g></svg>