<svg xmlns="http://www.w3.org/2000/svg" xml:space="preserve" viewBox="0 0 458.31 511.93" shape-rendering="geometricPrecision" text-rendering="geometricPrecision" image-rendering="optimizeQuality" fill-rule="evenodd" clip-rule="evenodd"><g fill="currentColor"><path d="M359.03 48.6c0-26.84-21.76-48.6-48.6-48.6s-48.6 21.76-48.6 48.6c0 26.85 21.76 48.6 48.6 48.6 26.85 0 48.6-21.76 48.6-48.6zM110.86 103.02h.76l.38.01h28.48a54.696 54.696 0 0 1-21.07-7.97c-6.84.92-13.86 2.03-21.08 3.39-2.54.48-4.84 1.51-6.81 2.92 10.66 1.62 18.84 1.65 18.97 1.65h.37zM197.54 48.6c0-26.84-21.76-48.6-48.6-48.6s-48.6 21.76-48.6 48.6c0 26.85 21.76 48.6 48.6 48.6 26.85 0 48.6-21.76 48.6-48.6z"/><path d="M426.85 9.14c-8.89 3.46-13.3 13.47-9.84 22.37 4.93 12.68 6.75 22.83 6.74 30.72-.13 11.84-3.55 18.82-9.05 25.09-8.19 9.3-23.51 15.71-37.98 18.79-14.37 3.19-27.26 3.4-29.43 3.38h-.59c-.14 0-.28.02-.42.02h-75.16c-14.83-6.05-44.97-15.79-88.25-17.58-7.26 5.7-15.97 9.62-25.48 11.1h33.27c3.37 0 6.63.73 9.72 2.15.88.28 1.68.59 2.45.88l.09.03.18.07c2.16.9 4.18 1.98 6.38 3.39 3.74 2.44 7.35 5.48 11.08 9.3 4.08 4.2 8 9.05 11.72 14.51 3.29.8 6.35 1.61 9.15 2.43 4.03 1.17 7.55 2.33 10.57 3.41v33.68c12.19 33.16 18.97 74.54 20.17 123.42a23.58 23.58 0 0 1-6.55 16.97c-4.38 4.59-10.28 7.21-16.63 7.36h-.58c-.53 0-1.06-.04-1.58-.08l-13.25 162.48c-1.2 14.71 9.75 27.59 24.45 28.79 14.7 1.2 27.59-9.74 28.79-24.45l16.05-196.75H318l16.05 196.75c1.2 14.71 14.09 25.65 28.79 24.45 14.7-1.2 25.65-14.08 24.45-28.79L368.86 257.1V142.51c9.84-1.28 21.91-3.66 34.26-8.15 12.92-4.78 26.4-11.99 37.2-23.84 10.83-11.75 18.14-28.6 18-48.3 0-13.15-2.97-27.48-9.09-43.25-3.46-8.9-13.47-13.3-22.37-9.84z"/><path d="M265.7 296.47c-1.68-68.36-14.32-113.17-28.47-141.69-7.08-14.26-14.51-24.4-21.31-31.4-3.43-3.51-6.66-6.22-9.96-8.38-1.67-1.08-3.35-2.02-5.35-2.85-.81-.31-1.64-.63-2.6-.92-2.22-1.09-4.7-1.72-7.34-1.72h-78.81c-.14 0-.28-.02-.42-.02h-.41c-2.88.07-24.92-.48-43.89-7.55-9.52-3.48-17.99-8.45-23.52-14.62-5.49-6.26-8.91-13.25-9.05-25.09-.01-7.89 1.81-18.04 6.75-30.72 3.46-8.89-.94-18.91-9.84-22.37-8.89-3.47-18.91.94-22.37 9.83C2.97 34.74.01 49.08 0 62.23c-.14 19.7 7.17 36.55 18 48.3 16.32 17.72 38.12 25.23 56.14 29.32 5.89 1.29 11.43 2.18 16.38 2.8v114.46L72.09 483.04c-1.2 14.71 9.75 27.59 24.45 28.79 14.7 1.2 27.59-9.74 28.79-24.45l16.05-196.75h15.12l16.05 196.75c1.2 14.71 14.09 25.65 28.79 24.45 14.7-1.2 25.65-14.08 24.45-28.79l-18.43-225.93v-84.76c1.34 2.82 2.67 5.83 3.98 9.13 9.62 23.89 18.46 60.91 19.8 115.82.23 9.4 7.92 16.86 17.27 16.86h.43c9.54-.24 17.09-8.16 16.86-17.7z"/></g></svg>