<svg xmlns="http://www.w3.org/2000/svg" xml:space="preserve" viewBox="0 0 6741 6840.71" shape-rendering="geometricPrecision" text-rendering="geometricPrecision" image-rendering="optimizeQuality" fill-rule="evenodd" clip-rule="evenodd"><g fill="currentColor"><path d="M1150.61 1340.85c-295.82 0-535.59 239.8-535.59 535.62 0 295.8 239.77 535.59 535.59 535.59 295.82 0 535.59-239.8 535.59-535.59 0-295.82-239.77-535.62-535.59-535.62z"/><path d="M381.55 3536.98c174.41 200.18 451.85 354.31 803.4 354.33 1.61 0 3.21 0 4.84-.02 133.77 0 277.29-21.18 429.59-66.39 100.82-29.89 158.3-135.92 128.38-236.74-29.91-100.8-135.87-158.27-236.7-128.36-121.12 35.89-227.71 50.66-321.27 50.66-245.43-1.43-406.94-96.8-522.63-225.43-114.72-127.68-169.95-298.13-168.32-403.21-.11-8.87.27-16.95.91-24.53l47.9-1.72c-.79 7.38-1.33 15.91-1.18 25.59-1.47 97.57 51.63 255.77 156.12 372.05 125.8 139.88 285.28 208.44 487.49 209.64 53.53 0 109.87-5.41 168.32-15.75 30.23-113.83 79.56-220.29 141.94-330.78 1.47.86 2.87 1.7 4.37 2.56 133.59 75.48 321.05 156.24 544.19 157.07h1.58c128.02 0 267.31-29.46 400.85-102.18 82.34-44.62 161.69-105.01 236.56-181.6l51.16 81 161.01-101.66-84.13-133.25c2.62-3.69 5.39-7.08 7.99-10.82 60.53-86.03 39.85-204.79-46.18-265.3-19.16-13.49-39.98-22.72-61.41-28.31l47.86-30.21-59.3-93.92-83.88 52.95-487.2-771.54-361.21-81.61 627 992.97-83.88 52.95 59.33 93.95 46-29.05c-52.34 54.69-103.15 92.47-151.33 118.68-76.12 40.98-147.66 55.77-220.84 56.07-125.53.79-257.31-50.53-355.76-107.18-49.12-27.97-89.6-56.32-116.78-77-13.64-10.32-23.92-18.71-30.36-24.1-3.21-2.74-5.45-4.68-6.67-5.77-.38-.32-.63-.54-.84-.7-27.85-25.32-61.2-40.66-95.76-46.57-1.79-.52-3.64-1.29-5.43-1.7-291.95-64.92-583.88-129.9-875.87-194.81-10.32-2.4-22.36-3.1-35.25-2.81-6.9-1.02-13.89-1.74-21.02-2.01l-.05-.05c-3.57-.09-8.42-.29-14.46-.29-58.94-.25-119.81 14.32-171.71 43.49-78.99 43.74-131.19 114.51-160.26 185.02-28.15 67.92-39.28 138.38-40.5 210.36-.07 3.62-.23 7.24-.25 10.88 1.63 213.93 87.5 453.05 263.62 655.15zm1585.24-1747.47 35.23-22.22 448.03 709.48-35.23 22.26-448.03-709.52z"/><path d="M171.24 6812.45c40.86 19.16 83.85 28.26 126.19 28.26 111.8 0 218.96-63.33 269.57-171.28 323.94-690.79 405.04-1338.77 405.04-1814.51-.02-102.09-3.76-196.31-9.64-281.61 4.03 1.95 7.9 4.1 12.06 5.86 7.85 3.55 128.04 61.63 244.05 215.04 116.69 156.15 240.2 409.7 241.61 855.17 0 222.55-32.47 492.94-117.39 818.61-41.47 159 53.81 321.52 212.8 363 25.18 6.56 50.46 9.71 75.32 9.71 132.16.02 252.81-88.67 287.74-222.51 95.8-367.57 136.62-688.35 136.62-968.8 1.79-598.09-191.92-1012.9-401.42-1263.85-89.35-107.95-179.02-186.13-254.91-241.47-23.12-76.41-40.39-147.53-52.43-214.27-53.1 6.02-105.39 9.12-156.67 9.12l-4.84.05c-328.24-.05-634.11-135.17-839.29-370.71-80.91-92.84-145.67-196.94-192.19-305.66 7.6 302.72 70.89 580.1 155.13 930.79 1.02 4.71 1.74 9.39 2.99 14.1l.05.34h.05s0 .02.02.02c4.5 17.58 65.32 266.86 65.21 647.1 0 408.98-69.69 967.01-348.68 1561.8-69.8 148.75-5.79 325.94 143 395.74zM3121.22 896.69c-11.02-86.03-135.99-116.5-203.46-132.5-59.58-14.14-121.03-21.54-182.71-26.18-27.51-130.44-54.76-262.54-75.12-395.29 73.99.09 148.57 17.06 218.93 49.1 33.96 15.45 85.3-1.11 117.88-12.56 4.41-1.54 84.15-35.61 55.84-48.49-126.28-57.52-265.39-70.55-401.71-51.91-11.13-82.5-19.46-165.13-22.6-247.72-2.35-62.04-186.76-24.17-183.95 49.28 3.1 81.09 11.25 162.19 22.13 243.12-67.63 23.46-132.66 53.74-192.73 89.47-146.53 87.18-306.39 291.57-63.2 365.6 110.37 33.6 228.42 28.42 345.21 30.23 2.67 12.81 5.36 25.66 8.01 38.44 26.81 128.68 54.12 258.08 85.1 386.46-80.94 21.65-161.46 13.03-215-49.35-35.86-41.79-193.41 38.26-183.95 49.28 89.42 104.17 255.27 96.8 411.58 51.5 19.64 78.42 40.8 156.42 64.46 233.44 20.66 67.31 204.07 16.27 183.93-49.28-25.61-83.4-48.31-167.89-69.21-252.85 48.67-23.17 91.64-47.36 124.63-69.15 77-50.89 168.73-150.9 155.94-250.66zm-849.63-246.2c-56.79-90.08 80.23-196.76 141.85-236.33 19.82-12.72 40.23-23.49 61.02-32.74 17.65 116.71 40.82 232.92 64.73 348.06-94.49-.38-217.12 1.09-267.6-78.99zm551.09 491.06c-24.44-104.42-46.7-209.39-68.74-313.94 41 9.14 81.12 22.72 119.99 42.97 112.05 58.4 56.59 181.83-51.25 270.98zM4338.4 3088.46c59.82 42.02 132.23 61.41 195.67 61.41h3.08c86.89-.63 157.21-27.69 216.76-58.13 6.58-3.46 12.85-7.1 19.23-10.68 76.23 317.13 53.99 602-230.34 1040.21-3.6 7.04-8.08 14.62-12.87 22.36-94.6 94.15-214.88 235.61-333.29 435.02-237.87 399.31-463.48 1028.88-469.16 1950.48-1.15 164.34 131.14 298.47 295.53 299.62h2.1c163.32.02 296.34-131.91 297.49-295.55 6.15-827.97 203.55-1342.86 385.69-1650.63 91.39-153.84 179.86-255.95 241.92-317.68 31-30.79 55.39-51.45 70.12-63.2 7.42-5.86 12.35-9.5 14.48-11.04.23-.16.43-.27.57-.41 4.05-2.67 7.72-5.68 11.58-8.55 2.58.27 5.14.48 7.72.72-8.1 105.85-14.1 232.42-14.1 376.01.14 465.2 62.43 1109.22 325.51 1791.75 45.57 118.09 158.27 190.52 277.72 190.54 35.61 0 71.82-6.45 107.02-20.05 153.27-59.15 229.64-231.36 170.51-384.67-229.23-593.4-285.84-1165.61-285.66-1577.57 0-192.39 12.22-349.49 24.1-456.63 6-53.6 11.86-94.71 16.09-121.5.05-.16.05-.25.07-.41 189.27-373.23 325.96-659.41 392.46-1028.92 23.85 20.43 49.42 40.12 78.65 58.01 46.41 27.74 104.85 54.48 181.56 55.12h1.49c41.7 0 87.29-10.16 127-30.43 71.61-36.36 118-95.03 149.83-155.33 47.63-91.93 73.6-199.36 93.4-345.17 19.03-145.58 28.96-329.08 29.01-564.53 0-76.05-1.04-157.46-3.19-244.68-2.65-105.15-89.96-188.23-195.11-185.63-105.12 2.58-188.25 89.99-185.61 195.11 2.06 84.31 3.03 162.64 3.03 235.2.54 341.41-24.01 557.47-54.08 665.2-.61 2.26-1.24 4.48-1.86 6.63-4.41-4.28-8.94-8.78-13.51-13.51-46.07-46.61-98.38-111.39-149.29-170.72-25.86-29.91-51.2-58.58-80.69-86.21-14.96-13.85-30.93-27.58-51.54-41.57-8.69-5.7-18.26-11.68-29.3-17.47-52.24-37.63-108.15-62.52-148.14-62.81-299.08-4.68-598.13-9.28-897.17-13.96-1.99-.02-4.1.32-6.11.41-58.01-3.55-116.89 19.21-157.28 67.04l.02.02c-4.07 4.86-48.1 54.64-101.75 98.06-27.51 22.54-57.54 43.04-81.64 55.1-10.79 5.48-20.23 9.28-27.11 11.4-8.64-14.41-23.21-46.54-34.57-100.69-14.41-66.48-24.53-164.52-24.48-296.09.02-121.98 8.46-272.85 28.15-455.93 11.2-104.56-64.53-198.46-169.07-209.64-104.56-11.25-198.46 64.49-209.64 169.07-20.75 193.5-30.27 357.09-30.27 496.49.97 244.75 26.43 414.5 90.17 549.78 32.29 67.07 77.77 126.91 139.06 169.2z"/><path d="M5357.07 2411.7c287.72 68.72 576.66-108.81 645.35-396.55 68.72-287.72-108.83-576.64-396.55-645.35-287.72-68.72-576.64 108.83-645.35 396.55-68.69 287.72 108.83 576.66 396.55 645.35zM4952.01 1344.97c2.4.75 4.82 1.11 7.2 1.11 10.09 0 19.46-6.45 22.72-16.61h-.07c.07 0 2.04-6.38 7.35-17.47 16.81-34.3 58.13-98.13 140.81-97.75 1.2-.05 1.81-.05 2.06 0 13.12.59 24.23-9.62 24.82-22.74.59-13.12-9.62-24.23-22.74-24.82-1.92-.11-3.35-.07-4.14-.07-73.13-.18-123.22 38.31-152.25 74.78-29.48 36.68-40.66 72-41.25 73.65-3.96 12.54 2.96 25.93 15.5 29.91zM5120.39 1104.11c13.12.63 24.28-9.48 24.93-22.63.63-13.12-9.48-24.3-22.6-24.93-6.77-.34-13.26-.43-19.5-.43-127.68-.63-201.47 60.14-237.76 120.28-36.77 60.05-40.37 117.82-40.59 119.94-.88 13.12 9.1 24.44 22.2 25.3.54.05 1.09.07 1.61.07 12.42 0 22.88-9.68 23.71-22.26 0-.05.68-11.22 5.32-29.84 15.77-56.95 58.15-164.95 225.52-165.88 5.61 0 11.38.09 17.17.38zM4143.22 3200.05c36.86 29.46 72.38 40.52 74.06 41.11 2.38.77 4.77 1.09 7.15 1.09 10.11 0 19.48-6.49 22.69-16.68 3.91-12.56-3.08-25.91-15.59-29.8-.05-.02-6.45-2.01-17.58-7.33-34.46-16.72-98.63-57.92-98.24-140.99v-1.38c.54-13.15-9.62-24.23-22.72-24.82-13.15-.59-24.28 9.59-24.82 22.74-.09 1.7-.05 2.87-.05 3.46-.2 73.36 38.47 123.54 75.1 152.59zM4078.48 3312.48c60.25 36.81 118.29 40.14 120.44 40.39.52.05 1.02.05 1.52.05 12.44 0 22.92-9.75 23.71-22.33.77-13.1-9.19-24.39-22.29-25.18l-.07-.05c0 .05-11.18-.66-29.96-5.2-57.15-15.68-165.6-57.83-166.53-226.31 0-5.25.09-10.52.34-15.79.54-13.12-9.64-24.21-22.74-24.8-13.15-.59-24.26 9.57-24.84 22.69-.29 6.15-.38 12.13-.38 17.9-.63 128.38 60.39 202.35 120.8 238.64zM6507.38 3558.66c8.26.59 16.29.88 24.12.88h1.79c91.82 0 147.43-44.66 175.06-88.63 28.35-44.17 32.27-86.3 32.54-88.4 1.29-13.08-8.3-24.71-21.38-25.95-13.1-1.29-24.71 8.33-25.98 21.4 0 0-.63 7.29-4.28 20.16-12.49 39.51-42.72 113.04-157.75 113.79-6.61.05-13.51-.23-20.7-.75-13.17-.97-24.53 8.94-25.5 22.04-.91 13.12 8.96 24.48 22.08 25.45z"/></g></svg>