<svg xmlns="http://www.w3.org/2000/svg" xml:space="preserve" viewBox="0 0 492.4 424.9" shape-rendering="geometricPrecision" text-rendering="geometricPrecision" image-rendering="optimizeQuality" fill-rule="evenodd" clip-rule="evenodd"><g fill="currentColor"><path d="M250.44 222.95c-2.25 10.14-9.26 18.11-18.45 22.49 12.26.19 25.6-1.39 35.25-4.98-8.58-7.39-13.02-18.51-10.56-29.58a28.19 28.19 0 0 1 3.33-8.36c-5.85-3.77-12.35-7.16-18.68-9.86 7.78 8.08 11.57 19.21 9.11 30.29z"/><path d="M206.68 197.88c6.44 0 11.67 5.22 11.67 11.67 0 4.24-2.27 7.95-5.66 9.99 2.92 4.66 3.96 10.17 2.89 15.59-.19.95-.46 1.87-.76 2.77l2.91 5.78c13.3-.87 24.69-9.42 27.46-21.89 3.44-15.48-7.7-31.13-24.88-34.94-9.64-2.14-19.14-.09-26.22 4.85l5.68 8.48c1.94-1.43 4.33-2.29 6.93-2.29zm17.95 22.14c3.47 0 6.28 2.81 6.28 6.28s-2.81 6.28-6.28 6.28-6.28-2.81-6.28-6.28 2.81-6.28 6.28-6.28zM322.41 225.47c-2.03 9.17-8.37 16.37-16.68 20.33 10.81.17 22.54-1.18 31.2-4.26-5.55-5.47-8.29-13.19-6.58-20.86.89-4 2.88-7.49 5.62-10.29-6.4-4.75-14.22-9.08-21.79-12.3 7.03 7.3 10.46 17.37 8.23 27.38z"/><path d="M283.92 243.51c15.53 3.45 30.64-5.1 33.74-19.1 3.11-14-6.96-28.14-22.49-31.58-15.53-3.45-30.63 5.11-33.74 19.1-3.11 14 6.96 28.14 22.49 31.58zM288 202.8c6.87 0 12.44 5.57 12.44 12.44 0 2.99-1.06 5.74-2.82 7.88 2.26.75 3.9 2.86 3.9 5.37 0 3.14-2.54 5.68-5.68 5.68-3.14 0-5.68-2.54-5.68-5.68 0-.35.04-.69.1-1.03-.73.14-1.49.22-2.27.22-6.87 0-12.44-5.57-12.44-12.44 0-6.87 5.57-12.44 12.44-12.44zM379.26 231.53c-1.51 6.82-6.22 12.18-12.4 15.12 12.3.19 26.21-2.26 31.07-7.9-5.95-5.45-9.91-12.57-11.11-20.23-4.22-2.83-9.01-5.38-13.68-7.37 5.23 5.43 7.78 12.92 6.13 20.38z"/><path d="M333.89 221.46c-2.31 10.41 5.18 20.93 16.73 23.5 11.55 2.57 22.79-3.8 25.1-14.21 2.31-10.42-5.18-20.94-16.73-23.5-11.55-2.56-22.79 3.8-25.1 14.22zm22.33 20.17c-1.92 0-3.47-1.55-3.47-3.47 0-1.92 1.55-3.47 3.47-3.47 1.92 0 3.47 1.55 3.47 3.47 0 1.92-1.55 3.47-3.47 3.47zm-4.98-28.57c5.11 0 9.26 4.14 9.26 9.26 0 5.11-4.14 9.25-9.26 9.25-5.11 0-9.26-4.14-9.26-9.25s4.14-9.26 9.26-9.26zM459.84 222.95c-2.25 10.14-9.26 18.11-18.45 22.49 21.38.33 46.06-4.7 48.65-16.39 2.69-12.13-19.17-27.81-39.32-36.39 7.78 8.08 11.57 19.21 9.11 30.29z"/><path d="M417.26 242.92c17.18 3.81 33.89-5.65 37.32-21.13 3.44-15.48-7.7-31.13-24.88-34.94-17.18-3.81-33.89 5.65-37.32 21.14-3.44 15.48 7.7 31.13 24.88 34.94zm8.32-4.95a5.16 5.16 0 1 1 0-10.32 5.16 5.16 0 0 1 0 10.32zm-7.4-42.48c7.6 0 13.76 6.16 13.76 13.76s-6.16 13.76-13.76 13.76-13.76-6.16-13.76-13.76 6.16-13.76 13.76-13.76zM492.4 150.77v-8.37H161.06l5.61 8.37zM193.41 260.26h6.54l-3.27-6.49zM492.4 260.26v-8.37H221.85l4.22 8.37zM171.5 251.89h-35.43l7.57 8.37h23.65zM144.88 26.37c3.74 4.69 6.5 9.95 8.24 15.51h339.29V0H119.07v9.85c10.17 2.48 19.18 8.21 25.82 16.52z"/><path d="M209.01 242.33a18.625 18.625 0 0 1-4.27 3.98c-.95.63-1.95 1.14-2.98 1.58l14.05 27.9h-38.25l13.45-26.72c-3-.57-5.79-1.86-8.15-3.77l-15.35 30.49h-13.93l12.41 13.72a26.549 26.549 0 0 1 6.85 17.06l1.03 35.64h62l13.16-66.41h-23.18L209 242.34zM147.82 60.55c2.5-22.17-13.45-42.16-35.61-44.65-22.16-2.49-42.15 13.45-44.65 35.61s13.45 42.15 35.61 44.65c22.17 2.5 42.16-13.45 44.65-35.61z"/><path d="m27.21 171.3-11.4 43.16c-2.44 5.53-2.67 12.02-.07 18.01l34.16 78.47-37.96 82.1c-5.2 11.25-.3 24.58 10.95 29.78 3.05 1.41 6.25 2.08 9.4 2.08 8.48 0 16.59-4.83 20.38-13.03l42.18-91.24a22.45 22.45 0 0 0 .21-18.37l-15.2-34.92 44.24 48.91 2.45 85.06c.35 12.17 10.32 21.79 22.41 21.79.22 0 .44 0 .66-.01 12.39-.36 22.14-10.69 21.78-23.07l-2.69-93.34a22.458 22.458 0 0 0-5.79-14.41l-52.05-57.54 19.47-73.69 52.17 77.89a14.352 14.352 0 0 0 19.92 3.94c6.59-4.41 8.35-13.33 3.94-19.92l-73.29-109.41a14.296 14.296 0 0 0-10.79-6.31L58.15 92.72c-1.15-.42-2.34-.69-3.56-.8l-.46-.1c-.05.02-.09.04-.13.06-3.36-.18-6.79.8-9.64 3.04L5.47 125.51a14.38 14.38 0 0 0-5.45 10.23c-.3 4.02 1.11 7.99 3.88 10.92l23.29 24.66zM482.05 135.06v-26.93H344.44v26.93zM470.47 103.2c6.23-7.53 8.72-14.96 5.66-19.37-4.36-6.29-18.46-4.19-32.5 4.48-.01-1.69-.43-3.21-1.31-4.48-4.36-6.29-18.46-4.19-32.5 4.48-.01-1.69-.43-3.21-1.31-4.48-4.71-6.79-20.74-3.82-35.81 6.63-5.68 3.94-10.41 8.37-13.85 12.74h111.6zM180.13 124.53c-1.65.94-2.59 1.96-2.59 3.04 0 4.47 15.79 8.1 35.26 8.1s35.26-3.63 35.26-8.1c0-1.08-.93-2.1-2.59-3.04-5.23 2.97-17.88 5.06-32.67 5.06-14.8 0-27.44-2.1-32.67-5.06zM212.81 118.51c-14.8 0-27.44-2.1-32.67-5.06-1.65.94-2.59 1.96-2.59 3.04 0 .87.62 1.71 1.73 2.5 4.59 3.25 17.86 5.6 33.53 5.6 15.67 0 28.94-2.35 33.53-5.6 1.11-.79 1.73-1.63 1.73-2.5 0-1.07-.93-2.1-2.59-3.04-5.23 2.97-17.88 5.06-32.67 5.06z"/><path d="M212.81 107.55c-14.89 0-27.6-2.12-32.77-5.12-1.59.92-2.49 1.92-2.49 2.98 0 .87.62 1.71 1.73 2.5 4.59 3.25 17.86 5.6 33.53 5.6 15.67 0 28.94-2.35 33.53-5.6 1.11-.79 1.73-1.63 1.73-2.5 0-1.05-.9-2.05-2.49-2.98-5.17 3-17.88 5.12-32.77 5.12z"/><path d="M248.07 94.45c0-4.47-15.79-8.1-35.26-8.1-19.48 0-35.26 3.63-35.26 8.1 0 .87.62 1.71 1.73 2.5 4.59 3.25 17.86 5.6 33.53 5.6 15.67 0 28.94-2.35 33.53-5.6 1.11-.79 1.73-1.63 1.73-2.5zM259.7 124.53c-1.65.94-2.59 1.96-2.59 3.04 0 4.47 15.79 8.1 35.26 8.1s35.26-3.63 35.26-8.1c0-1.08-.93-2.1-2.59-3.04-5.23 2.97-17.88 5.06-32.67 5.06-14.8 0-27.44-2.1-32.68-5.06z"/><path d="M292.38 118.51c-14.8 0-27.44-2.1-32.68-5.06-1.65.94-2.59 1.96-2.59 3.04 0 .87.62 1.71 1.73 2.5 4.59 3.25 17.86 5.6 33.53 5.6 15.67 0 28.94-2.35 33.53-5.6 1.11-.79 1.73-1.63 1.73-2.5 0-1.07-.93-2.1-2.59-3.04-5.23 2.97-17.88 5.06-32.67 5.06z"/><path d="M292.38 107.55c-14.89 0-27.6-2.12-32.77-5.12-1.59.92-2.49 1.92-2.49 2.98 0 .87.62 1.71 1.73 2.5 4.59 3.25 17.86 5.6 33.53 5.6 15.67 0 28.94-2.35 33.53-5.6 1.11-.79 1.73-1.63 1.73-2.5 0-1.05-.9-2.05-2.49-2.98-5.17 3-17.88 5.12-32.77 5.12z"/><path d="M327.64 94.45c0-4.47-15.79-8.1-35.26-8.1s-35.26 3.63-35.26 8.1c0 .87.62 1.71 1.73 2.5 4.59 3.25 17.86 5.6 33.53 5.6 15.67 0 28.94-2.35 33.53-5.6 1.11-.79 1.73-1.63 1.73-2.5z"/></g></svg>