<svg xmlns="http://www.w3.org/2000/svg" xml:space="preserve" viewBox="0 0 530.75 388.96" shape-rendering="geometricPrecision" text-rendering="geometricPrecision" image-rendering="optimizeQuality" fill-rule="evenodd" clip-rule="evenodd"><g fill="currentColor"><path d="m452.8 246.17-7.18-1.34-10.77.89-5.12-7.8-36.18 1.84 1.49 21.45 48.6-2.47 4.01-.2-.24 4.01-2.93 48.85h30.25l4.55-75.99-26.22 1.33zM320.24 371.39c12.05 2.27 23.66-5.65 25.93-17.7.08-.43.12-.85.18-1.27l-63.33 11.95 37.23 7.02zM201.02 335.04c3.88-5.69 9.74-9.53 16.52-10.81l46.11-8.7-64.74-12.22c-12.05-2.27-23.66 5.65-25.93 17.7-2.27 12.04 5.65 23.65 17.7 25.93l5.92 1.12c.26-4.62 1.74-9.1 4.42-13.02z"/><path d="M218.2 327.77c-12.05 2.27-19.97 13.88-17.7 25.92 2.27 12.04 13.88 19.97 25.93 17.7l129.56-24.45c12.05-2.28 19.97-13.88 17.7-25.93-2.27-12.05-13.87-19.97-25.93-17.7L218.2 327.76zM84.74 160.69v-22.04h27.05v-25.63H0v25.63h27.05v22.04h57.69zm-3.59-3.59H30.64v-18.45H81.15v18.45zm-23.46-40.49h50.51v18.45H57.69v-18.45zm-54.1 0H54.1v18.45H3.59v-18.45zM434.35 121.86v25.63h57.69v-22.04h27.05V99.81h-27.05V77.77h-57.69v25.63h27.05v18.45h-27.05zm54.1 22.04h-50.51v-18.45H488.45v18.45zm-50.51-44.08V81.37h50.51v18.45H437.94zm27.05 3.59H515.51v18.45H465v-18.45zM183.54 285.84H72.48v4.79h111.06zM333.6 290.63h40.36v-4.79H333.6zM530.75 285.84H490.4v4.79h40.35z"/><path d="m396.02 0-42.85.73-39.63 4.32-39.65 3.27-39.78-4.92-39.69.41-42.34.7 4.13 51.54-.91 49.5-.91 51.83 36.93-3.46c-6 10.87-10.39 20.23-13.45 28.48-3.45 9.37-5.28 17.32-5.32 24.89 0 4.44.69 8.83 2.39 12.94 2.47 6.24 7.65 11.3 13.02 13.78 5.39 2.57 10.67 3.21 15.55 3.23 7.69-.06 14.9-1.67 21.27-3.59v25.76l14.82-.65-14.82 13.47v32.34l48.55 9.16 48.56-9.16V280l-14.97 7.48 8.08-17.95-12.57-9.87 19.45-4.86v-21.99c6.98 2.28 15.15 4.36 23.94 4.44 6.41-.04 13.93-1.14 20.76-6.52 3.34-2.66 6.13-6.39 7.81-10.5 1.7-4.12 2.39-8.5 2.39-12.94-.03-7.57-1.87-15.52-5.31-24.89-3.47-9.35-8.65-20.13-15.94-32.92-.43-.75-.92-1.44-1.46-2.08l1.56-.23 37.12 1.78-2.54-47.46 3.39-49.42L396.01.03zm-65.43 163.69c3.99 7 7.19 13.18 9.7 18.59l13.76-.29-9.75 9.75c.08.2.16.42.24.62 2.73 7.3 3.55 12.39 3.52 14.91 0 .45-.02.8-.05 1.07-.52.09-1.27.16-2.18.16-4.54.09-12.49-1.93-18.64-4.24-3.1-1.14-5.83-2.29-7.74-3.14a171.502 171.502 0 0 1-2.72-1.26l-.11-.05c-1.11-.56-2.26-.94-3.42-1.19-7.01 15.02-22.24 25.45-39.88 25.45-17.35 0-32.39-10.11-39.54-24.74-.37.15-.73.3-1.09.48l-.11.05c-.81.4-5.65 2.72-11.64 4.82-5.92 2.14-13.22 3.89-17.45 3.81-.92 0-1.67-.07-2.2-.16-.02-.28-.04-.63-.04-1.07-.03-2.52.8-7.61 3.52-14.91 2.71-7.32 7.21-16.85 13.96-28.66 1.63-2.85 2.15-6.03 1.74-9.05l16.19.87.19.01 4.27.18a40.242 40.242 0 0 0-8.2 24.39c0 22.31 18.09 40.39 40.39 40.39 22.31 0 40.39-18.09 40.39-40.39 0-9.84-3.52-18.86-9.37-25.87l4.2-.45 7.48-.79 13.83-2.04c-1.7 3.99-1.59 8.69.73 12.74zm55.84-111.98-3.38 49.26-.03.44.02.44 2.12 39.52-29.18-1.4-.69-.03-.69.1-39.51 5.82-38.9 4.12-39.2-1.65-39.66-2.13-.53-.03-.53.05-34.56 3.24.77-43.81.91-49.49.01-.35-.02-.35-3.52-43.91 34.68-.57 39.19-.4 39.29 4.86.73.09.74-.06 39.65-3.27.09-.01.09-.01 39.34-4.28 34.83-.59-2.06 44.4z"/><path d="M223.54 42.15c-1.02-3.31-6.21-1.9-5.19 1.43 1.42 4.63 2.21 9.42-.07 13.91-3.72 7.32-9.69-2.82-11.17-6.11-.55-1.23-2.6-1.79-3.68-.97-5.24 3.98-4.83 9.82-8.57 14.58-2.73 3.48-6.79-9.19-7.1-10.4-.83-3.21-1.31-6.5-1.92-9.76-.64-3.41-5.83-1.96-5.19 1.43 1.32 7.02 2.1 20.2 9.96 23.42 9.59 3.94 9.72-6.58 13.53-12.4 3.05 5.11 8.25 10.49 14.31 7.18 7.99-4.37 7.4-14.83 5.1-22.33zM232.91 44.66c.61 7.92 1.29 15.84 3.69 23.46 1.04 3.3 6.24 1.89 5.19-1.43-2.25-7.17-2.92-14.56-3.5-22.03-.27-3.44-5.65-3.46-5.39 0zM232.02 33.59c3.47 0 3.47-5.39 0-5.39s-3.47 5.39 0 5.39zM250.36 61.54c.98 3.32 6.18 1.91 5.19-1.43-2.92-9.92-3.83-20.3-7.78-29.92-1.3-3.17-6.51-1.78-5.19 1.43 3.94 9.62 4.86 20 7.78 29.92zM262.34 61.54c1.22 3.21 6.43 1.82 5.19-1.43-3.48-9.17-4.9-18.95-8.38-28.13-1.22-3.21-6.43-1.82-5.19 1.43 3.48 9.17 4.9 18.95 8.38 28.13zM293.82 61.97c4.58 1.8 7.65-2 9.47-6.49.52 1.27 1.09 2.52 1.81 3.71.7 1.17 2.48 1.83 3.68.97 5.88-4.22 8.19-10.95 9.12-17.88.46-3.43-4.93-3.39-5.39 0-.52 3.86-1.72 8.1-4.29 11.17-1.18-2.74-2.03-5.61-3.26-8.34-1.17-2.59-4.94-1.11-5.02 1.36-.05 1.43-2.99 13.19-5.4 9.91-2.41-3.27-1.78-9.63-1.78-13.5 0-3.47-5.39-3.47-5.39 0 .01 6.37-.61 16.32 6.44 19.1zM332.06 39.65c-.21-.01-.43-.01-.66.03-9.95 1.55-17.71 11.08-7.55 18.82 2.64 2.02 7.18 3.48 9.86.6 4.3-4.62 2.34-12.14 1.01-17.54-.36-1.44-1.51-2-2.65-1.91zm-5.58 14.05c-4.64-4.17-.57-6.92 3.58-8.19.88 4.75 1.74 12.98-3.58 8.19zM344.13 53.52c-.64-2.55-1.85-5.66-1.37-8.33.47-2.62 4.03-3.86 6.12-4.78 3.17-1.4.43-6.04-2.72-4.65-3.64 1.61-7.09 3.6-8.47 7.53-1.27 3.61.37 8.16 1.25 11.67.84 3.37 6.04 1.94 5.19-1.43zM352.6 26.41c-.42 10.82 2.3 21.56 6.95 31.28 1.5 3.13 6.14.4 4.65-2.72-.94-1.96-1.77-3.98-2.51-6.03 3.03 1.19 6.21 2.04 9.15 3.43 3.12 1.47 5.86-3.17 2.72-4.65-3.22-1.52-6.72-2.4-10-3.78 2.17-2.42 5.25-4.59 7.76-5.94 3.06-1.64.34-6.29-2.72-4.65-3.1 1.66-6.73 4.33-9.31 7.3-1.01-4.68-1.48-9.46-1.3-14.25.13-3.47-5.25-3.46-5.39 0zM216.89 104.58a48.886 48.886 0 0 1-8.18 3.01c-1.07-3.13-1.9-6.36-2.15-9.67-.33-4.24 3.94-11.24 6.7-4.06 1.23 3.2 6.44 1.81 5.19-1.43-3.99-10.37-13.81-8.97-16.89 1.06-1.43 4.66-.49 9.97 1.32 15.24-3.44.42-6.91.42-10.24-.23-3.39-.66-4.84 4.53-1.43 5.19 4.5.88 9.12.83 13.66.13 1.93 4.5 4.15 8.79 5.68 12.39 1.35 3.19 5.99.44 4.65-2.72-1.54-3.64-3.14-7.25-4.6-10.91 3.11-.87 6.14-1.99 9.02-3.35 3.14-1.49.4-6.13-2.72-4.65zM225.92 92.94c-1.46.21-2.23 2.04-1.88 3.31.13.48.38.83.68 1.13-.65.33-1.17.89-1.28 1.63-.41 2.73-.85 5.79 0 8.49.66 2.1 2.34 3.8 4.66 3.77 3.65-.05 6.67-3.77 8.1-6.78 1.25-2.62 1.98-5.94.32-8.57-2.26-3.58-6.9-3.51-10.6-2.99zm5.7 8.66c-.1.2-.29.64-.38.8-.2.38-.43.75-.66 1.1-.11.16-.22.32-.33.47-.26.32-.53.62-.82.9-.17.17-.35.32-.53.47-.1.07-.25.17-.39.27v-.01c-.02-.09-.05-.26-.08-.41-.02-.21-.04-.41-.05-.62-.03-.66-.01-1.32.03-1.98.02-.42.06-.84.11-1.26.01-.1.02-.2.04-.29.01-.05.07-.5.08-.6.13-.88-.06-1.72-.55-2.37.25-.02.51-.04.76-.04.3-.01.59-.01.89 0 .11 0 .35.03.54.04.38.06.75.14 1.12.27.14.07.27.15.4.24.02.02.04.03.05.05.02.01.03.03.05.05.04.07.08.13.12.2l.09.34c.01.25 0 .5-.02.74-.04.22-.1.59-.15.75-.08.3-.19.59-.31.88zM244.79 111.57c-2.49-7.32 1.3-13.81 8.89-15.24 3.41-.64 1.96-5.83-1.43-5.19-10.34 1.95-16.03 11.93-12.65 21.86 1.11 3.27 6.31 1.87 5.19-1.43zM262.97 103.84a31.6 31.6 0 0 0 12.57 3.27c.5 8.78 1.59 16.9 1.66 20.14.08 3.47 5.46 3.47 5.39 0-.15-6.79-1.22-13.56-1.82-20.34 4.15-.53 8.19-1.92 11.86-4.26 2.92-1.86.22-6.53-2.72-4.65-2.94 1.88-6.18 3.02-9.51 3.51-.39-7.22-1.01-23.06 8.91-16.82 2.95 1.85 5.65-2.81 2.72-4.65-14.47-9.1-17.04 5.98-16.7 21.7-3.3-.2-6.57-1.03-9.63-2.55-3.1-1.54-5.83 3.11-2.72 4.65zM322.86 90.54c-.36.07-.65.21-.91.37-.55-.38-1.26-.55-2.08-.37-3.14.69-5.34 2.53-6.66 4.83-1.59-2.82-4.95-4.22-8.19-4.33-3.47-.11-3.46 5.27 0 5.39 4.93.16 4.34 4.84 2.26 7.99-.65.98-1.86 2.07-2.96 2.53-.8.33-.88.25-1.23-.34-1.1-1.82.32-4.61 1.27-6.13 1.84-2.96-2.82-5.66-4.65-2.72-2.19 3.5-3.52 8.72-.76 12.32 3.04 3.96 7.71 2.26 10.89-.53 1.23-1.08 2.23-2.4 2.97-3.84 1.53 3.17 4.7 5.42 9.44 4.91 6.28-.67 10.62-5.44 11.26-11.62.66-6.41-4.98-9.62-10.64-8.45zm5.23 8.69c-.52 3.36-3.09 5.7-6.44 6.06-6.48.7-5.79-8.37-.35-9.56.36-.08.66-.22.91-.39.55.37 1.26.56 2.08.39 2.68-.55 4.23.72 3.8 3.5z"/><path d="M353.8 71.59c.33-3.46-5.06-3.43-5.39 0-.49 5.25-.94 10.52-1.12 15.78-.41-.31-.93-.5-1.57-.52-13.3-.26-11.76 23.8 1.2 22.74.74-.06 1.31-.37 1.74-.8.15.8.27 1.61.45 2.41.76 3.39 5.95 1.95 5.19-1.43-2.82-12.58-1.7-25.47-.5-38.18zm-6.88 32.62c-6.2.51-7.26-12.09-1.2-11.97.6.01 1.09-.15 1.48-.4-.01 4.17.22 8.34.74 12.48-.3-.09-.64-.14-1.03-.11zM381.88 265.47l2.2 31.69c3.11-.26 7.68-.72 7.68-.72l-7 10.5.72 10.3h55.06l3.29-54.91-61.94 3.14zM379.64 375.44l8.53 10.32 16.16-6.28 11.22 3.14s7.18-17.05 1.8-18.85c-5.39-1.8-5.39-9.87-5.39-9.87l-16.16 4.49.9 6.28-11.67.9-5.39 9.87zM118.87 350.3l26.03.45s-11.22-12.12-12.57-12.57c-1.35-.45 4.04-13.02 4.04-13.02l-2.24-12.12-16.61 2.24 2.69 14.36-13.02 2.69 11.67 17.95zM166.39 369.39c-.93-.08-13.4.84-13.4.84l-3.33-7.35-10.21 4.03 3.96 8.71-7.85 3.75 10.23 9.59 16.62-3.79s4.9-15.7 3.97-15.77z"/></g></svg>