<svg xmlns="http://www.w3.org/2000/svg" xml:space="preserve" viewBox="0 0 1705.03 1189.98" shape-rendering="geometricPrecision" text-rendering="geometricPrecision" image-rendering="optimizeQuality" fill-rule="evenodd" clip-rule="evenodd"><g fill="currentColor"><path d="M1588.69 688.49h-49.91v-28.53c-20.91-14.6-38.51-30.54-53.14-46.15v76.86c2.95 2.2 5.83 4.48 8.62 6.86 18.32 15.59 33.49 35.87 43.82 58.66.25.54.46 1.12.7 1.67V730h81.11c-2.53-10.93-4.33-21.28-5.44-31.02a319 319 0 0 1-25.76-10.5zM1012.25 708.38c-2.93.73-5.81 1.5-8.81 2.16-3.57.8-7.21 1.2-10.84 1.2-13.32 0-25.72-5.46-34.82-14.39v32.64h49.81c1.95-7.58 3.49-14.78 4.65-21.62zM1665.22 711.74c-3.63 0-7.27-.4-10.84-1.2-2.85-.63-5.59-1.36-8.37-2.06 1.16 6.81 2.69 13.98 4.64 21.52h51.07v-34.36c-9.22 9.94-22.35 16.1-36.5 16.1zM1538.78 1053.16v-56.61c-3.82 15.69-8.26 32.07-13.27 49.15 4.8 2.54 9.23 5.06 13.27 7.46zM1125.77 744.91c11.14-20.85 27.54-39.5 46.85-54.06v-77.51c-14.63 15.66-32.23 31.66-53.14 46.31v28.84h-50.34c-8.1 3.72-16.54 7.19-25.34 10.36-1.11 9.77-2.9 20.17-5.45 31.16h81.13v27.73c1.96-4.37 4.03-8.66 6.29-12.83zM1536.05 1086.73a287.04 287.04 0 0 0-19.44-11.8c-6.68 21.05-14.19 43.13-22.57 66.38a74.01 74.01 0 0 1-8.39 16.38v32.28h53.14v-101.41c-.85-.59-1.75-1.19-2.73-1.85zM1119.48 996.67v58.58c4.1-2.51 8.7-5.19 13.72-7.93-5.19-17.62-9.78-34.51-13.72-50.65zM1142.15 1076.61c-10.38 5.89-18.24 11.15-22.67 14.36v99.02h53.14v-32.25c-3.41-5.03-6.28-10.51-8.41-16.4-8.16-22.64-15.51-44.18-22.07-64.73zM1408.71 376.3h76.93v34.81c2.92 4.65 5.11 9.84 6.41 15.46l.18.69c.24.92.63 2.42 1.22 4.41 1.14 3.88 3.13 10.14 6.06 17.84 5.32 14.09 14.74 35.62 29.41 58.31 3.2 4.9 6.51 9.57 9.86 14.14V289.94h-53.14v49.81h-45.98c-.88 1.55-1.77 3.09-2.72 4.61-7.68 12.34-17.24 23.07-28.23 31.93zM1165.74 426.76c.04-.17.08-.35.12-.51a50.217 50.217 0 0 1 6.76-15.77V376.3h76.76c-12.39-9.99-22.84-22.37-30.79-36.54h-45.97v-49.81h-53.14v231.52c2.28-3.12 4.54-6.3 6.74-9.56 28.49-42.34 38.93-82.77 39.52-85.14z"/><path d="M1044.78 687.88c65.49-24.59 112.12-67.07 143.66-108.78v112.8c-21.17 13.54-40.73 33.09-53.89 57.76-17.03 31.43-24.3 68.23-24.31 109.82.19 50.33 10.32 109.45 31.94 183.15 26.46-13.3 62.15-26.39 100.81-26.65 8.89 0 17.95.72 27.05 2.36-22-72.44-30.48-124.82-30.27-158.85-.01-10.41.74-18.88 1.86-25.85h175c1.11 6.94 1.84 15.45 1.83 25.85.21 34.15-8.34 86.79-30.5 159.61 10.35-2.14 20.66-3.12 30.76-3.12 37.2.25 71.66 12.39 97.78 25.15 21.33-72.99 31.29-131.64 31.48-181.64-.02-37.04-5.72-70.06-18.98-99.18-9.86-21.75-24.28-40.79-41.22-55.18-5.81-4.96-11.84-9.29-17.97-13.18V579.66c31.59 41.62 78.23 83.93 143.64 108.39-.34-5.02-.52-9.9-.52-14.58-.04-28.6 5.95-50.53 13-66.51-49.39-22.56-82.51-58.63-105.4-93.7-14.59-22.57-24.38-44.36-30.36-60.19-3-7.9-5.04-14.32-6.3-18.58-.62-2.13-1.06-3.74-1.31-4.7-.12-.47-.2-.8-.25-.96-4.68-20.34-24.16-33.41-44.46-30.49-2.67-.56-5.43-.86-8.26-.86h-59.43c-4 1.36-8.09 2.53-12.26 3.5-9.5 2.21-19.23 3.35-28.9 3.35-14.38 0-28.25-2.42-41.22-6.85h-59.17c-2.89 0-5.72.32-8.44.9-20.38-3.05-39.99 10.02-44.69 30.44v-.01c-.55 2.57-11.51 44.84-41.01 88.69-22.78 33.68-55.04 67.67-102.24 89.32 7.07 15.99 13.09 37.97 13.05 66.65 0 4.63-.18 9.46-.51 14.42zm130.72-259.07v.01-.01zM1642.84 673.45c0 7.48.51 15.61 1.59 24.37 3.99 1.05 7.98 2.09 12.09 3 2.92.64 5.83.96 8.69.96 18.27 0 34.74-12.64 38.86-31.22 4.78-21.48-8.76-42.76-30.25-47.54-6.92-1.55-13.52-3.42-19.96-5.43-5.7 12.44-11.02 30.59-11.03 55.86zM992.6 701.77c2.87 0 5.77-.31 8.69-.96 4.26-.95 8.39-2.03 12.52-3.11 1.07-8.71 1.58-16.81 1.58-24.25-.04-25.27-5.36-43.53-11.09-55.98-6.54 2.05-13.25 3.95-20.3 5.53-21.49 4.77-35.04 26.05-30.25 47.55 4.12 18.58 20.59 31.21 38.86 31.21z"/><path d="M1355.66 391.25c62.95-14.65 102.1-77.57 87.44-140.51-14.66-62.95-77.58-102.09-140.52-87.42-62.94 14.65-102.08 77.55-87.43 140.5 14.66 62.94 77.57 102.09 140.5 87.43zM1256.53 1176.75c33.63-12.17 51.01-49.32 38.82-82.94a1602.48 1602.48 0 0 1-14.64-41.95c-12.38-4.21-25.03-5.99-37.72-6-33.76-.22-67.57 13.16-91.93 25.91 6.65 20.91 14.13 42.91 22.52 66.18 12.18 33.62 49.32 51 82.95 38.81zM1484.67 1137.93c8.6-23.86 16.24-46.37 23-67.75-.16-.08-.3-.16-.46-.24-24.03-12.26-56.38-24.15-88.49-24.08-14.06 0-28.05 2.22-41.68 7.46-4.32 12.94-9.03 26.43-14.15 40.48-12.18 33.62 5.2 70.77 38.82 82.94 7.29 2.64 14.74 3.9 22.07 3.9 26.5 0 51.34-16.37 60.89-42.71v-.01zM356.18 101.27c-3.31 33.78 8.95 66.15 31.47 89.19 10.74-1.12 22.13 9.87 31.2 22.47A112.31 112.31 0 0 0 446 222c60.72 12 119.66-27.51 131.66-88.23 11.98-60.71-27.52-119.66-88.24-131.65-52.46-10.36-103.56 17.74-124.23 64.73.69 13.5-.8 28.18-9.02 34.43z"/><path d="M361.7 267.8c-3.26-2.32-6.69-5.78-10.18-10.01-.01-.02-.03-.03-.04-.05-3.52-4.28-7.11-9.35-10.65-14.89h-14.16c-7.95-1.37-16.38-.39-24.18 3.41 0 0-1.16.56-3.58 1.7-7.77 3.67-27.38 12.71-48.86 21.12 16.84-17.88 39.52-40.06 68.65-66.74 2.53-2.32 5.02-4.61 7.66-7 12.02 25.24 29.09 55.79 41.12 64.35 18.22 12.97 57.72-3.19 59.26-9.66 1.55-6.46-25.83-52.31-38.5-49.63-10.53 2.22-19.79 15.39-23.17 10.89-3.05-4.02-11.73-19.68-18.85-34.56 2.6-3.23 4.65-6.77 6.1-10.5 5.27-13.53 2.96-29.44-7.37-41.01-2.06-2.31-4.35-4.28-6.77-5.99-3.49-2.47-7.3-4.3-11.27-5.52-1.18-6.19-1.95-11.11-2.06-13.42-.26-5.62 15.26-1.43 24.79-6.47 11.45-6.05 3.1-58.8-2.23-62.77-5.33-3.98-46.01 8.91-51.7 30.54-2.76 10.51.02 31.93 4.44 53.32a39.47 39.47 0 0 0-9.1 5.21c-.81.62-1.61 1.24-2.39 1.92-54.64 48.83-91.55 85.4-116.01 113.86-12.25 14.31-21.41 26.52-28.35 38.31-6.65 11.95-12.35 23.16-12.77 40.31-.04 7.44 1.61 16.28 5.99 24.36 6.55 12.44 18.23 20.26 27.35 23.46 9.37 3.4 17.17 3.97 24.33 4.03 17.08-.18 32.25-3.96 48.36-8.58 14.38-4.29 29.15-9.61 42.78-14.97v61.76c52.29-52.21 84.34-104.5 98.51-130.47-6.05-.77-12-2.63-17.17-6.31z"/><path d="m280.35 604.65-58.14 516.85c-3.81 33.8 20.51 64.29 54.32 68.09 33.8 3.8 64.3-20.52 68.09-54.32l53.4-474.71h34.12l53.39 474.71c3.8 33.8 34.29 58.13 68.09 54.32 33.8-3.81 58.13-34.29 54.32-68.09l-58.13-516.81V360.11c54.72 36.75 144.48 89.14 267.05 135.01l-2.15 5.47 46.35 18.26 2.77-7.05c1.11.37 2.19.76 3.31 1.14 4.18 1.39 8.43 2.05 12.61 2.05 16.69 0 32.24-10.55 37.81-27.25 6.88-20.64-4.08-42.9-24.49-50.14l2.08-5.27 162.22 63.92 23.74-60.25-228.65-90.1-23.74 60.25 20.08 7.92-2.71 6.89c-93.8-35-167.09-73.99-218.47-105.59-29.77-18.31-52.19-34.12-66.98-45.21-7.4-5.54-12.89-9.89-16.45-12.79-1.77-1.45-3.06-2.53-3.86-3.22-.4-.34-.68-.58-.84-.71l-.1-.08c-4.68-4.12-10.07-6.89-15.7-8.45a38.204 38.204 0 0 0-12.39-2.07h-75.86c.37 1.02.65 1.9.81 2.56.61 2.6.66 4.88.16 6.97-.55 2.29-2.23 9.34-21.24 16.46-2.6.98-7.29 2.56-13.03 3.82-11.19 22.15-49.73 92.12-121.17 159.06l-.63-.68-12.98-13.86C204.97 475.57 117.2 531.02 0 547.07l2.71 19.76c121.71-16.66 213.17-74.3 277.64-134.53v172.35z"/></g></svg>