<svg xmlns="http://www.w3.org/2000/svg" xml:space="preserve" viewBox="0 0 4538.36 6062.88" shape-rendering="geometricPrecision" text-rendering="geometricPrecision" image-rendering="optimizeQuality" fill-rule="evenodd" clip-rule="evenodd"><g fill="currentColor"><path d="M2269.19 1726.21c279.18 0 505.5-226.32 505.5-505.5 0-279.16-226.32-505.48-505.5-505.48-279.16-.02-505.5 226.32-505.5 505.48 0 279.18 226.35 505.5 505.5 505.5z"/><path d="M131.9 947.24c-.19 121.12 30 301.28 161.78 490.04.21.29.46.6.66.91-.62 2.26-1.45 4.45-1.85 6.84l-.06-.02c-.48 3.05-4.43 27.78-4.47 67.75-.04 89.4 20.01 258.46 146.88 425.02 4.36 5.75 9.16 11.45 13.79 17.16-5.61 13.79-6.98 29.38-2.33 44.71l-.06-.02c1.93 5.67 71.86 236.96 279.16 471.16 101.99 115.63 238.96 231.46 416.58 319.04-152.14 166.87-335.96 312.35-543.62 384.44-93.63 33.03-142.73 135.7-109.69 229.3 26.05 73.81 95.42 119.96 169.48 119.96 19.84 0 40.03-3.3 59.81-10.28 340.48-121.74 599.24-359.89 792.39-601.9 48.43 9.08 98.81 16.12 151.24 20.86v2852.91c0 153.42 124.34 277.76 277.74 277.76s277.76-124.32 277.76-277.76v-2025h104.17v2025c0 153.42 124.36 277.76 277.76 277.76 153.4 0 277.76-124.32 277.76-277.76V2932.21c52.42-4.72 102.77-11.78 151.18-20.86 193.17 242.01 451.92 480.18 792.41 601.92 19.8 6.96 39.95 10.28 59.81 10.28 74.08-.02 143.43-46.14 169.48-119.98 33.05-93.61-16.04-196.26-109.65-229.3-207.69-72.01-391.49-217.58-543.62-384.44 177.63-87.59 314.6-203.41 416.56-319.04 207.29-234.2 277.24-465.51 279.14-471.16 4.63-15.35 3.26-30.93-2.35-44.71 4.59-5.71 9.37-11.38 13.73-17.12 126.87-166.58 146.96-335.6 146.88-425.04 0-39.97-3.95-64.63-4.45-67.69-.39-2.43-1.25-4.63-1.89-6.94.21-.29.44-.56.62-.85 131.8-188.76 161.96-368.95 161.78-490.07.02-76.35-11.45-129.12-16.62-149.19 136.1-318.65 148.4-604.58 148.54-699.65 0-21.38-.64-33.45-.69-34.57-1.6-29.87-22.77-55.18-51.88-62.06-29.15-6.81-59.33 6.38-74.08 32.45-256.1 453.09-702.18 940.99-1083.57 1312.58-190.7 185.98-365.21 343.25-491.98 453.94-33.95 29.65-64.32 55.84-90.81 78.47-3.74-.1-7.48-.06-11.26.06-10.03-1.83-20.32-2.91-30.89-2.91l-868.03-.02c-10.6 0-20.92 1.12-31 2.93-3.76-.12-7.54-.17-11.28-.04C1469.85 1603.7 545.27 775.89 126.65 34.22c-14.73-26.09-44.87-39.27-74-32.45C23.5 8.58 2.35 33.78.67 63.66.63 64.8.01 76.94-.04 98.38c.15 95.07 12.42 381.02 148.52 699.71-5.24 20.44-16.6 73.5-16.62 149.15zm1470.65 1841.89c20.48-28.73 40.32-57.28 59.04-85.39v92.57c-20.11-1.99-39.68-4.49-59.04-7.19zm1274.25 7.42v-92.74c18.74 28.13 38.56 56.72 59.08 85.49-19.42 2.66-38.93 5.28-59.08 7.25zM4383.52 333.86c-44.69 282.31-186.15 732.49-625.19 1053.14-30.02 22.02-36.52 64.22-14.52 94.26 22.02 30 64.2 36.52 94.24 14.5 188.49-138.67 326.29-297.94 427.12-458.67-12.74 90.77-47.55 203.12-131.05 323.14-114.08 163.48-320.75 343.31-695.7 495.47-34.49 13.96-51.13 53.29-37.13 87.78 10.64 26.22 35.86 42.11 62.51 42.11 8.41 0 16.99-1.6 25.28-4.94 282.69-114.58 481.22-247.74 619.56-383.76-11.63 72.34-41.26 165.97-112.35 259.23-103.9 135.85-298.6 277.31-677.27 348.67-36.61 6.86-60.68 42.07-53.83 78.65 6.09 32.41 34.36 54.99 66.17 54.99 4.11 0 8.31-.37 12.51-1.16 233.28-43.48 408.73-115.01 539.91-199.92-45.6 82.98-113.12 185.11-208.33 283.69-94.53 97.46-215.17 191.88-369.49 262.72-48.18-60.31-92.51-121.83-132.23-182.51-88.94-134.87-156.19-263.16-200.61-356.71-22.23-46.74-38.7-84.83-49.51-110.69-5.38-12.94-9.33-22.79-11.82-29.21a655.49 655.49 0 0 1-2.7-6.94c-.52-1.35-.5-1.35-.54-1.35-7.38-19.96-18.12-37.67-31.06-53.08 322.64-278.45 1054.88-942.38 1506.03-1609.39zM1660.89 1943.23c-12.96 15.42-23.68 33.14-31.1 53.12v-.04l-.52 1.37c-8.08 21.67-103.79 266.15-281.55 528.94-35.15 52.35-73.65 105.1-114.99 156.94-175.24-80.4-307.26-191.01-406.47-302.2-76.22-85.97-131.98-172-171.5-243.92 131.17 84.87 306.54 156.35 539.74 199.84 4.18.77 8.33 1.16 12.44 1.16 31.81 0 60.16-22.6 66.25-54.99 6.84-36.61-17.28-71.8-53.87-78.65-378.67-71.38-573.37-212.82-677.25-348.71-71.11-93.22-100.76-186.83-112.37-259.19 138.34 136.02 336.89 269.18 619.6 383.7 8.31 3.37 16.87 4.97 25.28 4.97 26.63 0 51.85-15.89 62.49-42.09 14.02-34.51-2.6-73.79-37.13-87.75-375.01-152.2-581.66-332.01-695.72-495.49-83.5-120.04-118.29-232.35-131.05-323.12 100.84 160.74 238.67 319.98 427.16 458.63 30.02 22 72.17 15.54 94.22-14.48 22-30.06 15.48-72.19-14.52-94.22-439.1-320.66-580.52-770.86-625.21-1053.16 451.2 666.99 1183.42 1330.92 1506.06 1609.35z"/></g></svg>