<svg xmlns="http://www.w3.org/2000/svg" xml:space="preserve" viewBox="0 0 387.63 534.7" shape-rendering="geometricPrecision" text-rendering="geometricPrecision" image-rendering="optimizeQuality" fill-rule="evenodd" clip-rule="evenodd"><g fill="currentColor"><path d="m235.78 288.2-20.44-95.11 49.92 19.9c1.99.79 4.08 1.18 6.16 1.18 3.11 0 6.2-.87 8.89-2.58l70.26-44.44c7.77-4.91 10.08-15.19 5.17-22.96-4.91-7.76-15.19-10.08-22.96-5.17l-63.09 39.91-69.48-27.69c-.87-.35-1.75-.59-2.63-.79-2.49-.74-5.21-.88-7.93-.3l-11.67 2.51c-6.97 12.62-19.13 22.28-34.3 25.55-3.58.77-7.25 1.16-10.88 1.16-13.69 0-26.43-5.53-35.82-14.62-.36.11-.74.15-1.12.04l-28.43-7.86c-1.1-.3-1.76-1.46-1.45-2.56l14.76-53.43c.3-1.1 1.46-1.76 2.56-1.45l5.47 1.51c.25-.41.49-.83.75-1.23a52.1 52.1 0 0 1 4.74-6.25l-9.94-2.75c-3.31-.91-6.76 1.04-7.68 4.35l-5.6 20.28a16.486 16.486 0 0 0-4.57 5.15l-46.19 81.44a16.64 16.64 0 0 0 1.72 18.9 16.66 16.66 0 0 0 12.76 5.95c1.86 0 3.73-.31 5.55-.96l62.25-22.03 19.14 89.05L105.25 507c-1.09 14.17 9.51 26.52 23.67 27.61 14.16 1.09 26.53-9.51 27.62-23.67l13.69-178.23 21.5-4.62 39.46 183.58c2.98 13.89 16.66 22.72 30.55 19.74 13.89-2.98 22.73-16.66 19.74-30.55l-45.71-212.67zM77.45 168.7l13.9 3.84-20.11 7.12 6.21-10.96z"/><path d="M87.1 137.61c5.43 25.27 30.32 41.35 55.59 35.92 25.27-5.43 41.35-30.32 35.92-55.59-5.43-25.27-30.32-41.35-55.59-35.92-25.27 5.43-41.35 30.32-35.92 55.59zm46.46-1.19c13.76-4.74 27.14-2.13 29.88 5.84 2.75 7.97-11.15 3.84-24.91 8.58s-22.16 16.55-24.91 8.59c-2.75-7.97 6.18-18.27 19.94-23.01zM0 115.7l1.55 2.27c6.76-4.61 10.17-9.71 10.12-15.14-.08-8.95-9.54-15.26-9.94-15.53L.22 89.6c.09.06 8.64 5.75 8.7 13.25.04 4.46-2.96 8.78-8.92 12.84zM20.57 96.63c2.24.38 4.52.16 6.82-.66 3.27-1.16 6.6-3.53 9.94-7.09L35.32 87c-5.02 5.35-9.83 7.67-14.28 6.92-7.52-1.27-11.9-10.94-11.94-11.04l-2.52 1.11c.2.45 5.01 11.1 13.99 12.63zM41.6 96.43l-1.36-2.4c-7.28 4.13-11.06 8.92-11.24 14.25-.31 9.12 10.15 16.12 10.59 16.42l1.52-2.3c-.1-.06-9.62-6.46-9.36-14.03.15-4.3 3.46-8.32 9.85-11.94zM20.26 117.19c7.48 1.15 11.92 11.78 11.96 11.89l2.55-1.04c-.2-.5-5.07-12.18-14.08-13.57-5.34-.82-10.85 2.13-16.37 8.78l2.12 1.76c4.86-5.85 9.51-8.48 13.82-7.82zM94.96 41.75c6.46-10.18 3.45-23.67-6.73-30.14-6.32-4.01-13.92-4.37-20.32-1.62a21.134 21.134 0 0 0-6.61-6.67C51.36-2.99 38.19-.05 31.88 9.89c-5.59 8.8-3.91 20.12 3.44 26.98-.46.58-.9 1.18-1.31 1.82-6.16 9.7-3.29 22.54 6.41 28.7 9.7 6.15 22.55 3.28 28.7-6.41.13-.2.23-.4.34-.61l20.29 18.41 2.21-2.2-15.94-16.03L63 47.46l-3.53 3.85 7.22 6.54c-5.41 6.95-15.31 8.79-22.9 3.97-7.75-4.92-10.23-14.97-5.87-22.91.18.12.34.25.52.37a21.21 21.21 0 0 0 12.13 3.31 17.81 17.81 0 0 1-6.14-2.43c-8.3-5.27-10.76-16.27-5.49-24.58 5.27-8.3 16.27-10.76 24.58-5.49 3.94 2.5 6.54 6.29 7.65 10.47-.08-2.39-.58-4.74-1.44-6.97 4.59-1.31 9.69-.75 14.03 2 8.06 5.12 10.45 15.8 5.33 23.86-1.78 2.8-4.23 4.9-7.01 6.25l-4.88-8.59-4.53 2.6 9.64 15.11 12.45 19.51 2.63-1.68-12.72-22.4c4.1-1.64 7.75-4.52 10.3-8.54z"/><path d="m160.51 29.04-5.76 19.39-19.5-18.84a3.122 3.122 0 0 0-3.64-.51 3.135 3.135 0 0 0-1.6 3.31l5.21 28.5c.31 1.7 1.95 2.82 3.63 2.51 1.7-.31 2.82-1.93 2.51-3.63l-3.46-18.95 16.21 15.67c.78.76 1.9 1.05 2.96.77a3.127 3.127 0 0 0 2.2-2.13l4.86-16.36 8.46 18.41a3.11 3.11 0 0 0 2.39 1.78c1.05.15 2.1-.24 2.79-1.03l17.75-20.24-2.28 25.9c-.09 1.02.32 2.02 1.11 2.67.78.65 1.84.88 2.82.61l22.87-6.26-14.82 21.37c-.61.87-.73 1.99-.32 2.97a3.13 3.13 0 0 0 2.33 1.88l21.87 3.96-25.58 13.29c-.85.44-1.45 1.26-1.63 2.2-.18.95.1 1.92.73 2.64l10.91 12.31-16.1-1.16c-1.65-.1-3.21 1.16-3.34 2.89a3.13 3.13 0 0 0 2.89 3.34l23.73 1.71a3.128 3.128 0 0 0 3.02-1.73c.56-1.14.38-2.5-.46-3.45l-13.34-15.05 30.14-15.66a3.138 3.138 0 0 0 1.65-3.24 3.123 3.123 0 0 0-2.53-2.6l-26.09-4.73 16.95-24.44c.75-1.08.74-2.51-.02-3.58a3.131 3.131 0 0 0-3.37-1.21l-26.82 7.34 2.72-30.94c.12-1.34-.64-2.61-1.88-3.14a3.11 3.11 0 0 0-3.57.81l-20.86 23.79-9.92-21.58a3.115 3.115 0 0 0-3.06-1.81c-1.29.09-2.4.98-2.77 2.22zM280.16 109.88c-.46.27-.77.28-.93.01-.55-.92-.94-2.1-1.16-3.56-.3-2.42-.58-3.85-.85-4.28-.85-1.42-2.08-1.64-3.71-.66-.25.15-.44.31-.57.49l-.16-.27c-.4-.67-1.32-1.03-2.75-1.09-1.43-.06-3.17.54-5.24 1.77-2.19 1.32-3.63 4.41-4.31 9.26-.68 4.86-.19 8.66 1.47 11.42.71 1.18 2.04 1.98 4 2.38 1.96.4 3.68.15 5.17-.74.97-.58 2.12-1.73 3.46-3.43 1.33-1.7 2.35-3.29 3.05-4.77 2.11.47 3.92.24 5.44-.67.55-.33 1.59-1.42 3.13-3.25 1.55-1.84 2.33-4.26 2.37-7.26.04-3.01-.67-5.72-2.12-8.14-1.26-2.1-3.27-4.13-6.01-6.08-2.75-1.95-5.92-3.1-9.52-3.46-3.61-.36-6.88.34-9.81 2.1-4.44 2.66-7.71 6.77-9.83 12.32-2.11 5.55-2.67 11.25-1.66 17.1 1.01 5.85 2.2 9.9 3.55 12.16 2.39 3.98 6.17 6.13 11.36 6.46 5.18.33 9.95-.82 14.3-3.43 3.8-2.28 7.39-5.19 10.78-8.71 3.39-3.53 5.47-6.84 6.23-9.94-.07-1-.4-1.99-.99-2.98-.21-.35-.69-.58-1.43-.7s-1.43.01-2.04.38c-.65.39-1.28 1.58-1.86 3.57-1.23 2.35-3.02 4.78-5.37 7.28s-4.46 4.31-6.33 5.44c-3.74 2.25-7.59 3.22-11.52 2.9-3.93-.32-6.51-1.51-7.74-3.56-1.24-2.07-2.29-5.58-3.14-10.52-.85-4.95-.28-9.69 1.74-14.23 2.01-4.54 4.33-7.6 6.94-9.17.83-.5 2.3-.8 4.42-.9 2.11-.1 3.98.32 5.61 1.27.5.3 1.19.7 2.09 1.19 2.52 1.4 4.3 2.97 5.36 4.72.93 1.54 1.19 3.36.79 5.46-.4 2.1-1.13 3.47-2.19 4.11zm-8.18 5.82c-.86 1.56-1.57 2.51-2.16 2.86-.6.36-1.08.57-1.44.61-.36.05-.67-.16-.95-.62-.51-.85-.7-2.81-.57-5.88.13-3.06.92-5.17 2.38-6.31.21-.01.43.02.66.07.21.07.41.11.6.11-.05.03-.03.54.06 1.51.1.97.31 1.71.66 2.2l1.64 2.44c.27.44-.03 1.45-.89 3zM328.85 85.48c.17-.1.65-.22 1.42-.34.77-.12 1.27-.26 1.52-.41.78-.46 1.33-1.1 1.65-1.91.32-.81.31-1.49-.03-2.06-.41-.69-1.06-1.31-1.94-1.88-.88-.56-2.39-.2-4.53 1.08-.3.19-2.32 2.01-6.05 5.48-.12-.41-.27-.92-.42-1.55-.69-2.66-1.21-4.58-1.57-5.74 1.75-1.77 5.05-4.11 9.92-7.03.51-.3.79-.79.84-1.46.05-.67-.07-1.24-.36-1.72-.52-.86-1.11-1.37-1.76-1.51-.65-.14-1.76.27-3.33 1.21-1.77 1.06-4.07 2.77-6.92 5.12-.08-.41-.24-1.02-.49-1.83-.12-.67-.25-1.23-.39-1.68-.26-.71-.47-1.54-.63-2.5-.52-2.87-.98-4.63-1.38-5.31-.37-.62-.91-1.03-1.62-1.25-.7-.21-1.41-.1-2.11.32-1.03.62-1.58 1.54-1.69 2.78-.09.56.78 3.48 2.62 8.74.72 2.07 1.15 3.46 1.3 4.16-3.39 2.64-5.29 4.14-5.7 4.5-.07-.32-.13-.72-.17-1.19-.29-3.41-.76-5.66-1.42-6.76-.76-1.27-1.72-1.57-2.87-.87-.99.59-1.6 1.36-1.83 2.3-.23.94-.15 2.39.23 4.35.54 2.97.64 5.07.32 6.3-.95.62-2.35 1.76-4.22 3.43-.72.65-1.49 1.3-2.33 1.94-3.09 2.46-4.24 4.36-3.43 5.7.83 1.37 2.62 1.23 5.38-.41.94-.57 2.11-1.45 3.53-2.67 1.59-1.36 2.67-2.25 3.23-2.66.13.74.45 1.92.97 3.53.41 1.08.71 2.16.93 3.23-.25.16-1.19.63-2.84 1.46-1.65.84-2.79 1.46-3.41 1.83-.92.55-1.7 1.46-2.34 2.72-.63 1.26-.75 2.23-.35 2.9.87 1.44 2.79 1.28 5.76-.5l3.75-2.4.79-.43c.28 2.55.99 4.77 2.12 6.66.31.51.77.84 1.4.98.63.15 1.25.02 1.87-.35 1.47-.88 1.42-4.38-.14-10.52l5.24-4.3c.08.14.15.37.19.68.2 1.49.79 3.05 1.76 4.68.35.58 1 1.1 1.97 1.56.96.45 1.76.49 2.39.11.83-.5 1.31-1.25 1.44-2.26.13-1-.06-1.93-.57-2.77l-.95-1.34c-.28-.46-.48-1.1-.62-1.93-.16-.82-.37-1.86-.64-3.12 1.11-.67 2.27-1.56 3.47-2.69 1.19-1.1 2.21-1.91 3.06-2.42zm-17.03 6.9c-.43.28-.99.67-1.68 1.16-.85-2.45-1.44-4.78-1.78-6.98 1.07-1.1 3.02-2.69 5.83-4.76.25.65.47 1.44.67 2.38l1.05 4.63c-.55.96-1.92 2.15-4.1 3.58zM371.6 57.03c-2.54-.12-5.03.55-7.45 2-1.66 1-2.61 3.06-2.84 6.21-.23 3.14.25 5.69 1.42 7.66.65 1.08 1.73 2.07 3.25 2.97 1.51.9 3.41.67 5.69-.7 1.1-.66 2.05-1.37 2.85-2.16.8-.78 1.5-1.79 2.11-3.03.6-1.24 1.11-2.42 1.52-3.55.41-1.12.47-2.25.19-3.38-.28-1.13-.67-2.1-1.17-2.94-1.16-1.95-3.02-2.97-5.58-3.09zm-.7 12.24-1.54.78-.39.27c-1.1-1.36-1.76-2.81-1.97-4.36-.2-1.55.02-2.52.68-2.91.39.05.8.04 1.24-.03 1.77-.24 2.83-.09 3.17.48.46.76.68 1.53.67 2.3-.92 2.12-1.54 3.27-1.86 3.46zM351.21 76.1c.65 4.25 1.23 6.8 1.74 7.65 1 1.68 2.29 2.05 3.84 1.11.76-.46 1.24-1.6 1.44-3.43-.15-1.86-.39-4.07-.7-6.65-.61-4.85-.8-9.86-.58-15.02.12-2.89.16-4.48.13-4.76l-.01.04c.26-4.41.32-8.06.18-10.93.74-1.3.82-2.41.27-3.34-.24-.41-.84-.8-1.78-1.17-7.31 3.69-11.93 5.95-13.86 6.77-1.56-.35-2.82-.22-3.79.36-2.21 1.33-3.85 3.23-4.92 5.71-1.07 2.48-1.34 5.09-.81 7.82.53 2.73 1.03 4.47 1.47 5.21 1.15 1.91 2.5 3.15 4.07 3.71 1.56.56 3.16.36 4.79-.62 1.38-.83 2.65-2.21 3.8-4.15 1.15-1.94 1.72-4.1 1.7-6.47-.02-2.37-.48-4.32-1.41-5.86-.34-.57-.76-1.11-1.28-1.65 1.45-.87 2.26-1.36 2.42-1.49.17-.12 1.23-.51 3.2-1.16-.18 9.68-.3 14.83-.36 15.44-.36 4.33-.22 8.62.43 12.87zm-9.09-13.33c-.55.32-1.23.52-2.06.58-.63-.13-1.1-.45-1.41-.96-.7-1.17-1.06-2.77-1.1-4.81-.03-2.04.53-3.4 1.7-4.1l.47-.29c1.36 1.35 2.24 2.34 2.62 2.97.61 1.03.9 2.29.84 3.78-.05 1.49-.41 2.42-1.07 2.82zM387.63 50.38c-.01-1.3-.37-2.58-1.09-3.86-.96-1.69-1.9-4.14-2.83-7.36-.9-3.09-1.94-6.44-3.13-10.05-1.19-3.6-1.93-5.65-2.23-6.15-.37-.62-1.03-1-1.99-1.13-.95-.14-1.79.01-2.5.43-.65.39-1.25 1.21-1.78 2.44-.53 1.24-.51 2.55.08 3.94.58 1.39.93 2.19 1.05 2.39 1.18 1.96 2.52 5.17 4.02 9.63 1.41 4.11 3.29 7.8 5.64 11.08 1.41.14 2.99-.32 4.76-1.38z"/></g></svg>