<svg xmlns="http://www.w3.org/2000/svg" xml:space="preserve" viewBox="0 0 710.09 745.77" shape-rendering="geometricPrecision" text-rendering="geometricPrecision" image-rendering="optimizeQuality" fill-rule="evenodd" clip-rule="evenodd"><g fill="currentColor"><path d="M338.76 698.61c-3.68 0-7.35-.52-10.9-1.53-21-6-33.21-27.97-27.21-48.98 4.15-14.53 6.61-28.65 7.4-42.13-33.67 6.3-59.59 16.45-70.39 31.16-5.72 7.79 35.52 8.02 20.95 23.35-7.28 8.18-36.43 12.27-52.82 14.31-25.5 3.06-67.86 2.39-85.6 16.98-65.57 53.89 152.96 53.99 188.48 53.99 35.52 0 118.38-4.8 136.6-15.02 30.96-18.4-35.52-25.42-37.34-38.71 0-17.37 71.98-18.77 98.39-18.26 26.42.51-3.64-22.48 23.68-22.48s113.74 2.4 98.36-13.29c-25.74-26.25-141.12-42.96-240.78-39.86-.15 23.17-3.74 47.29-10.73 71.73-4.84 16.92-20.49 28.74-38.07 28.74zM100.83 256.74c26.06-21.75 29.55-60.5 7.81-86.57-21.75-26.06-60.51-29.55-86.56-7.8-26.06 21.75-29.56 60.5-7.81 86.56 21.75 26.06 60.5 29.55 86.56 7.81z"/><path d="M132.7 271.46c-2.98.95-5.34 1.62-6.89 2.03-.41.11-.76.2-1.05.27-6.93.32-13.43 2.46-18.81 6.81-11.29 9.13-19.48 25.37-19.01 44.53 13.05-10.32 25.01-16.42 29.85-18.69l.07-.04.33-.15c3.55-1.59 7.31-2.4 11.17-2.4 10.75 0 20.54 6.33 24.94 16.14 6.17 13.75.01 29.94-13.74 36.11l-.53.26c-.63.31-1.57.78-2.78 1.43-2.29 1.25-5.89 3.33-9.97 6.14-6.38 4.35-12.12 9.48-16.47 14.54 28.83 39.73 54.84 62.72 102.55 90.71 11.36 5.56 21.25 7.84 29.93 7.8 2.93-.01 5.71-.29 8.38-.79 7.48 5.48 17.34 13.69 26.84 24.59 18.81 21.73 36.2 52.1 36.32 95.9 0 15.61-2.26 33.14-7.92 52.96-5.18 18.14 5.32 37.03 23.46 42.22 3.14.9 6.29 1.32 9.4 1.32 14.86 0 28.53-9.77 32.82-24.77v-.01c7.28-25.48 10.55-49.46 10.54-71.72.12-65.27-28.34-113.74-55.83-143.81a239.876 239.876 0 0 0-18.24-18.03c5.27-4.19 11.12-8.56 17.42-12.86 13.27-9.1 28.52-17.85 44.22-24.1 15.72-6.28 31.73-9.98 46.89-9.97 11.28.02 22.12 1.93 33.14 6.49 11.01 4.59 22.37 11.88 34.24 23.73 13.33 13.35 34.95 13.36 48.3.03 13.34-13.32 13.35-34.95.03-48.3-17.51-17.56-36.63-30.38-56.41-38.56-19.77-8.21-40-11.71-59.31-11.69-26.95.02-52.01 6.57-74.28 15.67-33.42 13.74-61.07 33.3-80.91 49.44-.21.17-.41.34-.61.51-1.53-1.08-3.05-2.2-4.56-3.33-31.75-23.61-59.43-56.55-80.79-80.49 7.53-3.62 15.58-8 23.73-13.26 16.51-10.73 33.55-25.28 46.72-45.09 13.18-19.74 22.08-44.95 22.01-74.44 0-2.63-.07-5.27-.2-7.93-.6-12.06-10.87-21.34-22.92-20.73-12.06.6-21.34 10.86-20.74 22.92.1 1.98.15 3.9.15 5.75-.07 20.94-5.86 36.8-14.73 50.28-13.23 20.11-34.64 34.44-53.19 43.24-9.23 4.41-17.62 7.46-23.57 9.35z"/><path d="M133.65 352.95c1.31-.71 2.33-1.22 2.97-1.54.32-.16.55-.26.67-.32l.03-.02c11.01-4.94 15.93-17.88 10.99-28.89-4.94-11.01-17.88-15.93-28.89-10.99-1.12.54-16.54 7.4-33.05 21.4-8.23 7.03-16.82 15.92-23.67 27.25-6.83 11.27-11.86 25.32-11.84 41.12-.06 17.43 6.17 36.03 19 54.08 12.85 18.15 32.13 36.31 59.81 55.31a21.79 21.79 0 0 0 12.33 3.82c6.97 0 13.82-3.32 18.05-9.5 6.83-9.96 4.28-23.56-5.67-30.39-24.74-16.92-40.11-32.09-48.81-44.46-8.73-12.46-10.95-21.59-10.99-28.87.02-6.62 1.95-12.51 5.55-18.54 5.32-8.97 14.8-17.4 23.05-23.03 4.11-2.84 7.85-5.03 10.47-6.44zM147.5 103.82 139.31 0 98.32 5.46l21.86 101.09zM122.91 133.87c0 7.54 7.95 13.66 17.76 13.66 9.81 0 17.76-6.11 17.76-13.66 0-7.54-7.95-13.66-17.76-13.66-9.81 0-17.76 6.11-17.76 13.66zM495.76 478.65c-27.69 6.87-47.73 69.54-47.73 69.54 31.96-15.75 75.41-76.41 47.73-69.54zM619.32 497.24c-22.8-17.15-72.93 40.98-72.93 40.98s98.36-21.85 72.93-40.98zM709.17 589.52c-10.14-26.66-83.55-4.23-83.55-4.23s94.85 33.96 83.55 4.23z"/></g></svg>