<svg xmlns="http://www.w3.org/2000/svg" xml:space="preserve" viewBox="0 0 370.12 335.89" shape-rendering="geometricPrecision" text-rendering="geometricPrecision" image-rendering="optimizeQuality" fill-rule="evenodd" clip-rule="evenodd"><g fill="currentColor"><path d="M128.06 87.22c1.38 2.11 2.67 4.37 3.88 6.78h14.83v224.38c0 9.67 7.84 17.51 17.51 17.51 9.67 0 17.51-7.84 17.51-17.51V190.54h6.56v127.84c0 9.67 7.84 17.51 17.51 17.51 9.67 0 17.51-7.84 17.51-17.51V94h14.81c5.2-10.3 12.23-17.98 20.24-21.95.52-.26 1.02-.48 1.53-.71H110.19c.51.23 1.02.45 1.55.72 4.3 2.14 10.62 6.53 16.32 15.16zM185.06 63.73c17.6 0 31.86-14.27 31.86-31.86 0-17.6-14.27-31.87-31.86-31.87-17.6 0-31.87 14.27-31.87 31.87s14.27 31.86 31.87 31.86zm17.38-18.97c-8.81 17.71-28.95 11.39-32.72 1.34 11.31 6.23 32.72-1.34 32.72-1.34z"/><path d="M238.22 101.52c-5.82 14.7-9.72 35.95-9.74 68.04 0 8.3.27 17.32.85 27.14.36 6.02 5.35 10.67 11.3 10.67.22 0 .45-.01.67-.02 6.25-.37 11.01-5.73 10.65-11.98-.55-9.42-.81-18-.81-25.81-.05-34.3 4.96-53.57 9.87-63.62v212.44c0 9.67 7.84 17.51 17.51 17.51 9.67 0 17.51-7.84 17.51-17.51V190.54h6.56v127.84c0 9.67 7.84 17.51 17.51 17.51 9.67 0 17.51-7.84 17.51-17.51V106.01c.84 1.72 1.68 3.7 2.52 6 3.99 11.07 7.35 29.22 7.33 57.55 0 7.81-.25 16.39-.8 25.81-.37 6.25 4.4 11.61 10.65 11.97.23.01.45.02.67.02 5.96 0 10.95-4.65 11.3-10.67.57-9.82.83-18.83.84-27.13-.06-42.75-6.89-66.4-16.2-80.62-4.65-7.06-10.1-11.59-15.12-14.1-4.87-2.46-9.15-2.99-11.7-3.02-.15 0-.3-.02-.45-.02h-54.71c-.15 0-.29.02-.44.02-2.55.02-6.83.56-11.71 3.02-7.62 3.78-15.83 12.04-21.58 26.68zM299.31 63.73c17.6 0 31.86-14.27 31.86-31.86 0-17.6-14.26-31.87-31.86-31.87s-31.86 14.27-31.86 31.87 14.27 31.86 31.86 31.86zm18.06-18.97c-8.81 17.71-28.95 11.39-32.72 1.34 11.31 6.23 32.72-1.34 32.72-1.34zM12.15 207.37c.22 0 .45-.01.67-.02 6.25-.37 11.01-5.73 10.65-11.98-.55-9.42-.8-18-.8-25.81-.05-34.3 4.96-53.57 9.87-63.62v212.44c0 9.67 7.84 17.51 17.51 17.51 9.67 0 17.51-7.84 17.51-17.51V190.54h6.56v127.84c0 9.67 7.84 17.51 17.51 17.51 9.67 0 17.51-7.84 17.51-17.51V106.01c.84 1.72 1.68 3.7 2.52 6 3.99 11.07 7.35 29.22 7.34 57.55 0 7.81-.25 16.39-.8 25.81-.36 6.25 4.4 11.61 10.65 11.97.22.01.45.02.67.02 5.96 0 10.95-4.65 11.3-10.67.57-9.82.83-18.83.83-27.13-.06-42.75-6.89-66.4-16.19-80.62-4.65-7.06-10.1-11.59-15.12-14.1-4.87-2.46-9.15-2.99-11.7-3.02-.15 0-.3-.02-.45-.02H43.48c-.15 0-.29.02-.44.02-2.55.02-6.83.56-11.71 3.02-7.62 3.78-15.83 12.04-21.58 26.68-5.82 14.7-9.72 35.95-9.74 68.04 0 8.3.27 17.32.85 27.14.35 6.02 5.35 10.67 11.3 10.67zM70.83 63.73c17.6 0 31.86-14.27 31.86-31.86C102.69 14.27 88.43 0 70.83 0S38.97 14.27 38.97 31.87s14.27 31.86 31.86 31.86zM88.89 46.1c-3.77 10.05-23.91 16.37-32.72-1.34 0 0 21.41 7.57 32.72 1.34z"/></g></svg>