<svg xmlns="http://www.w3.org/2000/svg" xml:space="preserve" viewBox="0 0 67.46 149.09" shape-rendering="geometricPrecision" text-rendering="geometricPrecision" image-rendering="optimizeQuality" fill-rule="evenodd" clip-rule="evenodd"><g fill="currentColor"><path d="M8.35 94.56c.35 0 .7-.04 1.05-.11 2.7-.58 4.43-3.24 3.85-5.95-2.34-10.88-3.24-19.32-3.23-25.75 0-5.54.66-9.59 1.58-12.46 1.16-3.58 2.58-5.33 3.81-6.34v97.41a7.74 7.74 0 1 0 15.48 0V84.85h2.9v56.51a7.74 7.74 0 1 0 15.48 0V43.31c1.31.14 2.76.25 4.26.25 2.64-.03 5.48-.25 8.36-1.63 1.42-.7 2.88-1.8 3.95-3.39 1.08-1.59 1.63-3.59 1.62-5.53-.03-3.07-1.11-6.02-2.98-9.36-1.84-3.23-4.52-6.87-8.29-11.18l1.39-3.24c.54-1.27-.04-2.74-1.31-3.29l-5.75-2.47c-1.27-.55-2.74.04-3.29 1.31l-1.11 2.58c.24.49.46 1 .65 1.52l.78-1.83 8.16 3.5-4.53 10.57-4.39-1.88c-.16.44-.34.88-.54 1.3l1.25.54-.82 1.92-1.44-.62c-.22.34-.46.68-.7 1l3.59 1.54c1.27.55 2.74-.04 3.29-1.31l.35-.82c1.8 2.28 3.11 4.22 4 5.8 1.36 2.36 1.68 3.89 1.68 4.37-.2.1-.6.25-1.15.36-.73.15-1.72.23-2.76.23-1.81 0-3.8-.23-5.29-.48-.74-.12-1.36-.25-1.79-.34-.21-.04-.37-.08-.47-.1-.03-.01-.04-.01-.06-.01-.47-.15-.97-.24-1.49-.24H20.26c-.2 0-.4.02-.6.04-.09 0-.18-.01-.28-.01-1.2 0-3.03.15-5.18.9-3.22 1.09-7.09 3.72-9.79 8.51C1.69 46.6.01 53.27.01 62.76c0 7.36 1.01 16.46 3.46 27.85.5 2.35 2.58 3.96 4.89 3.96zM53.79 7.93l-3.02-1.3.43-1.01 3.02 1.3-.43 1.01z"/><path d="M46.42 14.08C46.42 6.3 40.11 0 32.34 0c-7.78 0-14.08 6.31-14.08 14.08 0 7.78 6.31 14.08 14.08 14.08 7.78 0 14.08-6.31 14.08-14.08z"/></g></svg>