<svg xmlns="http://www.w3.org/2000/svg" xml:space="preserve" viewBox="0 0 400.54 430.19" shape-rendering="geometricPrecision" text-rendering="geometricPrecision" image-rendering="optimizeQuality" fill-rule="evenodd" clip-rule="evenodd"><g fill="currentColor"><path d="M289.95 83.06c21.46 2.79 41.11-12.34 43.9-33.79 2.79-21.45-12.34-41.11-33.79-43.9-21.46-2.79-41.11 12.34-43.9 33.79-2.79 21.46 12.34 41.11 33.79 43.9zM196.85 94.74c-.35.07-.7.16-1.05.23.29.09.58.19.87.3l.18-.54zM277.48 122.52c-4.44 12.5-14.07 21.65-25.63 25.85 4.95 5.86 9.01 10.99 12.3 15.55l2.51 1.49c.11.84.21 1.69.29 2.55 3.42 5.15 5.44 8.99 6.8 12.86 1.11 3.54 2.13 7.67.57 13.16-1.1 3.91-4.07 7.74-7.57 9.77a18.33 18.33 0 0 1-5.85 2.29c-1.38 3.69-3 7.53-4.9 11.57-.89 2.58-2.51 5.91-3.71 9.16L165 374.86c-6.1 10.35-2.66 23.69 7.7 29.8a21.73 21.73 0 0 0 11.03 3.02c7.46 0 14.71-3.83 18.77-10.72l93.38-158.42c2.14-.05 4.3.01 6.47.21l37.75 59.5-4.84 88.21c-.66 12 8.54 22.26 20.54 22.92.41.02.81.03 1.21.03 11.48 0 21.08-8.97 21.72-20.57l5.22-95.18c.25-4.54-.92-9.01-3.36-12.85l-43.2-68.1c1.17-3.41 2.29-6.73 3.36-9.98-4.72 1.21-9.7 2.38-15.05 3.49a17.5 17.5 0 0 1-3.54.36c-8.21 0-15.38-5.84-17.04-13.89-.94-4.55-.05-9.2 2.5-13.09.79-1.2 1.72-2.27 2.75-3.22l-27.99-40.48.78-21.04 37.8 56.75c12.13-2.6 22.32-5.52 30.37-8.7 1.75-9.99 2.71-20.25 2.72-31.51 3.4 2.27 6.69 4.73 9.49 7.26 3.26 2.9 5.84 5.86 7.31 8.26.9 1.44 1.37 2.58 1.61 3.44.16.59.22 1.06.22 1.36-.11.82.09 1.6-2.64 4.48-2.47 2.47-7.53 5.92-15.86 9.33-8.31 3.43-19.79 6.88-34.83 9.98-7.53 1.56-12.38 8.92-10.82 16.46 1.36 6.58 7.16 11.11 13.63 11.11.94 0 1.88-.09 2.83-.29 16.26-3.37 29.28-7.18 39.8-11.51 10.43-4.32 18.49-9.12 24.64-15.09.05-.05.1-.09.15-.14 3.14-3.02 5.73-6.54 7.6-10.33 2.2-4.44 3.41-9.23 3.35-14-.09-10.41-4.84-18.73-10.27-25.39-8.31-10.03-19.26-17.58-29.18-23.34-4.96-2.85-9.65-5.18-13.72-6.94-2.04-.88-3.92-1.61-5.71-2.22-1.23-.4-2.34-.75-3.65-1.04-3.4-1.5-6.72-2.29-9.1-1.98l-50.53 6.12a42.442 42.442 0 0 1-.91 25.57z"/><path d="M8.19 376.36c1.3.81 2.68 1.43 4.08 1.87 7.37 2.28 15.63-.57 19.9-7.42 29.7-47.59 54.88-73.38 71.92-87.07 6.44 3 12.91 5.89 19.4 8.73-1.62 4.36-3.36 9.41-5.13 15.13-7.62 24.61-15.63 61.27-14.84 105.5.14 7.71 5.27 14.16 12.25 16.32 1.73.53 3.56.81 5.47.77 9.61-.17 17.26-8.1 17.09-17.71-.72-39.66 6.51-72.72 13.29-94.58 1.4-4.52 2.77-8.55 4.05-12.07 9.11 3.58 18.24 7.03 27.42 10.3a466.438 466.438 0 0 1 34.19-129.39c.74.43 1.49.87 2.27 1.32 8.67 4.96 18.88 10.5 27.93 13.37 3.19.93 6.21 1.74 10.29 1.54 2.03-.14 4.53-.58 7.22-2.21 2.69-1.57 5.11-4.69 5.97-7.71 1.33-4.69.42-8.1-.52-11.07-1.55-4.46-4.04-8.68-7.75-14.07-3.56-5.1-8.29-11.13-14.46-18.39a42.31 42.31 0 0 1-19.22.59c-2.38 4.05-2.08 9.33 1.15 13.1 2.84 3.31 5.33 6.32 7.49 9.04-2.33-1.25-4.64-2.54-6.8-3.8-3.12-1.8-5.99-3.52-8.33-4.96-2.09-1.4-4.84-3.29-7.9-5.49-.07.08-.13.17-.2.24a17.47 17.47 0 0 1-12.8 5.6c-4.39 0-8.58-1.64-11.8-4.61-7.17-6.64-12.27-12.39-16.06-18.12-2.93-4.52-6.82-11.52-6.9-20.34-.02-2.37.32-4.77.95-7.1-1-1.17-1.99-2.34-2.97-3.53 1.11.57 2.28 1.19 3.49 1.83.81-2.36 1.93-4.61 3.35-6.59 2.6-3.69 6-6.68 10.39-9.1.84-.47 1.73-.83 2.63-1.15-12.99-7.25-22.3-11.59-29.55-13.88-3.91-1.15-7.25-1.95-11.55-1.56-2.13.23-4.69.89-7.18 2.64-2.5 1.7-4.46 4.58-5.22 7.21-1.51 5.67-.1 9.09.93 12.1 2.09 5.18 5.24 9.82 8.91 14.84 4.63 6.22 10.17 12.71 15.04 18.14-37.75 34.59-72.01 76.41-100.45 124.86 4.82 2.59 9.66 5.13 14.5 7.62-18.84 17.49-41.93 44.28-67.51 85.27-5.09 8.15-2.61 18.9 5.55 23.99z"/><path d="M215.48 144.89c-15.78-9.38-23.94-28.13-19.73-46.26a13.902 13.902 0 0 0-11.98.7c-3.28 1.82-6.61 4.35-9.24 8.08-2.65 3.69-4.22 8.63-4.17 13.32.06 6.95 2.68 12.84 6.33 18.46 3.73 5.63 8.78 11.24 15.51 17.48 2.68 2.47 6.07 3.69 9.44 3.69 3.75 0 7.49-1.51 10.24-4.48 2.85-3.09 4.02-7.11 3.6-10.98z"/><path d="M224.17 145.14c20.38 7.25 42.78-3.41 50.02-23.79 7.24-20.38-3.41-42.77-23.79-50.02-20.38-7.24-42.77 3.41-50.02 23.79-7.24 20.38 3.41 42.77 23.79 50.02zM156.29 62.05l17.03 8.9c.39.2.8.3 1.21.3.94 0 1.85-.51 2.32-1.4a2.61 2.61 0 0 0-1.1-3.52L164.4 60.4l12.51-3.76c.77-.23 1.39-.81 1.68-1.56.29-.75.22-1.6-.19-2.28l-11.79-19.77 16.45 6.46a2.608 2.608 0 0 0 3.56-2.57l-1.08-20.72 12.88 13.83c.58.63 1.43.93 2.28.81a2.63 2.63 0 0 0 1.97-1.41l9.3-18.51 3.54 21.16c.15.87.72 1.61 1.53 1.96.81.35 1.75.27 2.49-.22l13.43-8.92-3.55 13.07c-.38 1.39.44 2.83 1.84 3.2 1.4.38 2.83-.44 3.21-1.84l5.37-19.77a2.62 2.62 0 0 0-.99-2.8 2.62 2.62 0 0 0-2.98-.06L220 27.23l-4.2-25.06a2.622 2.622 0 0 0-2.18-2.15c-1.12-.17-2.22.4-2.72 1.41l-11.21 22.29-15.21-16.34c-.75-.8-1.92-1.05-2.93-.63a2.631 2.631 0 0 0-1.59 2.54l1.24 23.84-19.79-7.77a2.604 2.604 0 0 0-2.95.74c-.72.85-.83 2.06-.25 3.03l13.99 23.46-15.44 4.64c-1.02.31-1.74 1.2-1.85 2.25-.09 1.06.45 2.07 1.4 2.56z"/></g></svg>