<svg xmlns="http://www.w3.org/2000/svg" xml:space="preserve" viewBox="0 0 2393.58 1235.85" shape-rendering="geometricPrecision" text-rendering="geometricPrecision" image-rendering="optimizeQuality" fill-rule="evenodd" clip-rule="evenodd"><g fill="currentColor"><path d="m1830.36 573.91-40.41-47.49v41.64a3606.8 3606.8 0 0 1 40.41 5.86zM1995.17 795.02l7.54 2.51V939.95l212.89 295.91h177.98l-448.55-527.18 30.09 80.26c12.68 3.63 19.72 5.96 20.05 6.08zM1343.78 2.04l-19.19-.15 22.22 30.73c6.29-.95 13.46-1.98 20.51-2.91l-23.54-27.67zM1224.16 4.6l-16.94-.13-.84 13.22 18.41.15zM1225.54 33.47l-20.16-.16-1.22 19.06 22.3.17zM1227.57 75.92l-24.9-.2-1.9 29.79 28.24.23zM1230.86 144.44l-32.56-.26-3.39 53.11 38.49.3zM1237.05 273.76l-47-.37-7.68 120.41 60.45.48zM1253.12 609.27l-84.47-.67-32.18 504.02 140.8 1.11zM1106.86.15l-19.2-.15-27.96 31.82c8.8 1.29 16.56 2.52 21.06 3.25L1106.85.16zM622.01 529.95l-38.35 43.64c12.11-1.81 25.14-3.71 38.35-5.54v-38.1zM409.24 926.3V797.53l7.53-2.51c.33-.1 7.36-2.44 20.04-6.07l31.53-84.12L-.01 1235.85H196.4L409.23 933.6V926.29zM1053.01 167.15l6.12 1.02 2.24 5.96.75 2.02h15.14v23.5c0 4.32 3.5 7.83 7.83 7.83h15.66c4.33 0 7.84-3.5 7.84-7.82v-23.5h7.83v-9h-63.41zM976.32 156.14h140.1v-39.89s-2.95-.98-8.23-2.45l-25.18-67.19s-52.28-8.7-68.4-8.7c-16.13 0-68.41 8.7-68.41 8.7l-25.19 67.19c-5.28 1.47-8.23 2.45-8.23 2.45v39.89h11.13c10.65-1.2 20.05-1.99 26.21-1.99s15.55.79 26.2 1.99zm-33.54-35.12c7.29 0 13.2 5.91 13.2 13.2 0 7.29-5.91 13.2-13.2 13.2-7.3 0-13.2-5.91-13.2-13.2 0-7.3 5.9-13.2 13.2-13.2zm14.91-60.43c11.99-1.93 44.83-7.01 56.93-7.01 12.09 0 44.93 5.08 56.91 6.99l17.93 47.82s-47.49-7.81-74.85-7.81c-27.36 0-74.88 7.81-74.88 7.81l17.96-47.8zm128.74 86.83c-7.29 0-13.19-5.91-13.19-13.2 0-7.3 5.91-13.2 13.19-13.2 7.3 0 13.2 5.91 13.2 13.2 0 7.29-5.91 13.2-13.2 13.2z"/><path d="M1029.82 76.82c-2.28 9.8 3.81 19.6 13.62 21.88 9.8 2.28 19.59-3.81 21.88-13.61 2.28-9.81-3.82-19.6-13.61-21.88-9.81-2.29-19.61 3.81-21.88 13.61zM1352.82 168.17l6.09-1.02h-63.39v9h7.82v23.5c0 4.32 3.51 7.82 7.83 7.82h15.67c4.33 0 7.82-3.49 7.82-7.82v-23.5h15.14l.76-2.03 2.24-5.96zM1295.52 156.14h140.09c10.65-1.2 20.04-1.99 26.2-1.99 6.17 0 15.56.79 26.22 1.99h11.12v-39.89s-2.95-.98-8.22-2.45l-25.2-67.2s-52.28-8.7-68.41-8.7c-16.12 0-68.4 8.7-68.4 8.7l-25.19 67.19c-5.28 1.47-8.22 2.45-8.22 2.45v39.89zm9.46-30.13h10.51v18.59h-10.51v-18.59zm169.36 18.59h-21.02v-18.59h21.02v18.59zm-2.12-36.22s-47.51-7.8-74.88-7.8c-27.36 0-74.85 7.81-74.85 7.81l17.93-47.83c11.98-1.91 44.82-6.99 56.91-6.99 12.11 0 44.95 5.08 56.93 7.01l17.96 47.8zm-130.86 17.63v18.59h-21.02v-18.59h21.02zm148.34 18.59h-10.51v-18.59h10.51v18.59z"/><path d="M1382.12 76.82c-2.28-9.81-12.08-15.9-21.89-13.62-9.8 2.28-15.89 12.08-13.61 21.88 2.29 9.8 12.08 15.9 21.88 13.62 9.81-2.28 15.9-12.08 13.62-21.88zM1027.26 350.64l6.94 18.52h8.36v22.3l8.83 23.56c.88.21 1.78.36 2.72.36h23.11c6.38 0 11.56-5.16 11.56-11.54v-34.67h11.55v-18.52h-73.08zM826.38 315.19c-1.08-2.43-1.71-5.09-1.71-7.91 0-10.75 8.72-19.47 19.48-19.47 10.75 0 19.47 8.72 19.47 19.47 0 1.95-.37 3.79-.9 5.56 38.85.79 147.12 18.74 151.82 19.52l6.27 1.04 2.24 5.96.1.26h77.21v-58.86s-4.35-1.45-12.14-3.62L1051.07 178s-77.15-12.83-100.92-12.83c-23.79 0-100.93 12.84-100.93 12.84l-37.17 99.13c-7.79 2.17-12.14 3.62-12.14 3.62v37.58c9.18-1.18 18.16-2.26 26.5-3.15zm13.26-46.02 26.5-70.53c17.67-2.84 66.13-10.34 83.99-10.34 17.83 0 66.3 7.5 83.97 10.32l26.45 70.56s-70.07-11.52-110.43-11.52c-40.37 0-110.47 11.52-110.47 11.52zm235.91 38.1c0 10.76-8.72 19.47-19.47 19.47-10.75 0-19.47-8.72-19.47-19.47 0-10.75 8.71-19.47 19.47-19.47 10.76 0 19.47 8.72 19.47 19.47z"/><path d="M1024.94 234.78c3.37-14.46-5.63-28.91-20.09-32.29-14.46-3.37-28.92 5.63-32.29 20.09-3.37 14.46 5.63 28.92 20.09 32.29 14.46 3.37 28.91-5.63 32.29-20.09zM1369.39 369.15h8.35l6.94-18.52h-73.07v18.52h11.55v34.67c0 6.38 5.17 11.54 11.56 11.54h23.11c.94 0 1.85-.14 2.72-.35l8.83-23.57v-22.29zM1461.82 165.17c-23.78 0-100.93 12.84-100.93 12.84l-37.15 99.13c-7.79 2.17-12.14 3.63-12.14 3.63v58.85h77.2l.1-.27 2.24-5.95 6.27-1.04c4.52-.75 104.73-17.36 147.01-19.35v-17.83h31.01v19.01c2.31.21 4.7.45 7.15.7v-19.71h15.5v21.43c4.56.54 9.24 1.13 13.96 1.74v-37.58s-4.35-1.45-12.14-3.62l-37.17-99.14s-77.15-12.83-100.94-12.83zm-113.59 130h31.01v27.43h-31.01v-27.43zm-22.66 0h15.5v27.43h-15.5v-27.43zm136.27-37.52c-40.36 0-110.43 11.52-110.43 11.52l26.45-70.56c17.67-2.81 66.14-10.31 83.97-10.31 17.86 0 66.31 7.5 84 10.34l26.5 70.53s-70.1-11.52-110.47-11.52z"/><path d="M1439.38 222.59c-3.36-14.46-17.82-23.46-32.29-20.09-14.45 3.37-23.46 17.83-20.08 32.29 3.37 14.46 17.82 23.45 32.28 20.09 14.46-3.37 23.46-17.83 20.09-32.29zM961.75 632.19h38.14v52.41c0 9.65 7.81 17.46 17.46 17.46h34.93c9.66 0 17.49-7.8 17.49-17.45V632.2h17.46v-33.63H949.14l12.61 33.63zM680.44 560.67c-6.09-5.39-9.95-13.25-9.95-22.03 0-16.26 13.17-29.44 29.45-29.44 16.25 0 29.44 13.18 29.44 29.44 0 7.06-2.49 13.54-6.64 18.61 2.11-.07 4.11-.1 5.95-.1 49.15 0 202.48 25.43 208.98 26.51l6.28 1.04 1.07 2.83h142.22v-88.97s-6.57-2.19-18.35-5.48l-56.17-149.86s-116.62-19.41-152.57-19.41c-35.96 0-152.59 19.41-152.59 19.41l-56.19 149.86c-11.78 3.28-18.35 5.48-18.35 5.48v67.97c16.31-2.2 32.57-4.24 47.42-5.86zm12.68-79.63 40.07-106.61c26.72-4.31 99.97-15.64 126.96-15.64 26.96 0 100.23 11.34 126.94 15.59l39.98 106.66s-105.93-17.41-166.94-17.41c-61.04 0-167.01 17.41-167.01 17.41zm356.64 57.61c0 16.26-13.19 29.44-29.45 29.44-16.25 0-29.43-13.18-29.43-29.44s13.18-29.44 29.43-29.44c16.26 0 29.45 13.18 29.45 29.44z"/><path d="M973.25 429.06c5.1-21.87-8.51-43.72-30.37-48.81-21.86-5.09-43.72 8.51-48.8 30.37-5.09 21.87 8.51 43.72 30.37 48.81 21.87 5.09 43.71-8.51 48.8-30.37zM1324.72 598.56v33.62h17.46v52.41c0 9.65 7.83 17.46 17.48 17.46h34.94c9.66 0 17.47-7.81 17.47-17.46v-52.41h38.14l12.6-33.62h-138.09zM1551.8 323.81c-35.95 0-152.57 19.41-152.57 19.41l-56.17 149.86c-11.78 3.28-18.35 5.48-18.35 5.48v88.98h142.22l1.06-2.84 6.28-1.05c6.23-1.03 147.45-24.44 202.4-26.37v-36.94h46.88v39.5c3.51.36 7.13.74 10.82 1.15v-40.65h23.43v41.47h-16.19c11.98 1.4 24.62 3.01 37.3 4.72v-67.98s-6.57-2.19-18.35-5.48l-56.19-149.86s-116.62-19.4-152.58-19.41zm-171.72 196.53h46.88v41.47h-46.88v-41.47zm-34.26 0h23.45v41.47h-23.45v-41.47zm206-56.72c-61.01 0-166.94 17.42-166.94 17.42l39.98-106.66c26.71-4.26 99.97-15.59 126.94-15.59 26.98 0 100.24 11.33 126.96 15.64l40.06 106.62s-105.96-17.42-167-17.42z"/><path d="M1517.88 410.62c-5.09-21.86-26.95-35.46-48.81-30.36-21.86 5.08-35.46 26.94-30.37 48.8 5.1 21.86 26.94 35.46 48.81 30.37s35.46-26.95 30.37-48.81zM420.25 986.93h23.72v71.16c0 13.1 10.6 23.7 23.74 23.7h47.42c13.11 0 23.74-10.6 23.74-23.7v-71.16h379.57v71.16c0 13.1 10.61 23.7 23.72 23.7h47.44c13.11 0 23.74-10.6 23.74-23.7v-71.16h23.71v-47.46h-616.8v47.46zM445.18 798.03c-15.99 4.46-24.93 7.44-24.93 7.44V926.3h616.8V805.47s-8.92-2.98-24.92-7.44l-76.27-203.51s-158.37-26.35-207.18-26.35c-48.84 0-207.21 26.35-207.21 26.35l-76.3 203.51zm455.88-161.19 54.29 144.84s-143.85-23.65-226.7-23.65c-82.88 0-226.78 23.65-226.78 23.65l54.4-144.78c36.28-5.84 135.75-21.24 172.41-21.24 36.61 0 136.09 15.39 172.38 21.18zM511.11 819.93c22.08 0 39.98 17.89 39.98 39.97s-17.9 39.98-39.98 39.98-39.98-17.9-39.98-39.98 17.89-39.97 39.98-39.97zm435.08 79.95c-22.07 0-39.97-17.89-39.97-39.98 0-22.08 17.89-39.97 39.97-39.97s39.98 17.89 39.98 39.97-17.9 39.98-39.98 39.98z"/><path d="M882.26 711.09c6.92-29.69-11.56-59.36-41.24-66.27-29.68-6.92-59.37 11.55-66.28 41.24-6.91 29.69 11.55 59.37 41.24 66.28 29.69 6.91 59.36-11.55 66.27-41.24zM1374.89 986.93h23.71v71.16c0 13.1 10.63 23.7 23.74 23.7h47.44c13.11 0 23.72-10.6 23.72-23.7v-71.16h379.56v71.16c0 13.1 10.63 23.7 23.74 23.7h47.42c13.14 0 23.74-10.6 23.74-23.7v-71.16h23.71v-47.46h-616.8v47.46zM1683.26 568.18c-48.81 0-207.18 26.35-207.18 26.35l-76.27 203.51c-15.99 4.46-24.92 7.44-24.92 7.44v120.83h616.8V805.48s-8.93-2.98-24.93-7.44l-76.3-203.51s-158.37-26.35-207.21-26.35zm-279.7 266.88h31.83v56.32h-31.83v-56.32zm46.52 0h63.66v56.32h-63.66v-56.32zm466.43 56.32h-63.66v-56.32h63.66v56.32zM1683.3 758.04c-82.86 0-226.7 23.65-226.7 23.65l54.29-144.84c36.28-5.78 135.77-21.18 172.38-21.18 36.66 0 136.13 15.39 172.41 21.24l54.4 144.78s-143.89-23.65-226.78-23.65zm279.73 133.34h-31.83v-56.32h31.83v56.32z"/><path d="M1637.2 686.06c-6.91-29.69-36.6-48.15-66.28-41.24-29.68 6.91-48.15 36.59-41.24 66.27 6.92 29.69 36.58 48.15 66.27 41.24 29.69-6.91 48.15-36.59 41.24-66.28z"/></g></svg>