<svg xmlns="http://www.w3.org/2000/svg" xml:space="preserve" viewBox="0 0 611.7 469.01" shape-rendering="geometricPrecision" text-rendering="geometricPrecision" image-rendering="optimizeQuality" fill-rule="evenodd" clip-rule="evenodd"><g fill="currentColor"><path d="m372.2 329.61-2.13-1.4-15.8 4.23-7.3 26.75-9.24-1.9L322 337.33l-27.83 26.61-12.1 36.3 90.13-3.1zM377.76 395.71l220.23-17.27c.05 3.73 3.11 6.77 6.85 6.77 3.77 0 6.86-3.09 6.86-6.86V237.18c0-3.77-3.08-6.86-6.86-6.86-3.74 0-6.8 3.04-6.85 6.77l-220.23-17.27v175.89zM7.69 446.06l46.44-3.07.32 3.84c.54 6.42 3.56 12.26 8.51 16.44 4.42 3.74 9.89 5.74 15.58 5.74.68 0 1.36-.03 2.05-.08l38.24-3.21c6.42-.54 12.26-3.56 16.44-8.51 4.18-4.95 6.19-11.21 5.65-17.63l-.19-2.32 45.45-3c3.76-.25 6.64-3.53 6.39-7.29l-.38-5.76c-.25-3.76-3.53-6.64-7.29-6.39L6.42 426.62c-3.76.25-6.64 3.53-6.39 7.29l.38 5.76c.25 3.76 3.53 6.64 7.3 6.39zm123.58-5.67c.32 3.84-.89 7.6-3.4 10.57-2.51 2.97-6.02 4.79-9.86 5.11l-38.23 3.21c-3.84.32-7.6-.88-10.57-3.4-2.97-2.51-4.79-6.01-5.11-9.86l-.31-3.67 67.27-4.45.21 2.49zM295.33 221.26c2.08-21.61-24.37-46.11-36.25-31.51-11.17 13.74 12.31 13.03 36.25 31.51zM317.74 189.93c-13.99 1.07-.78 14.18 1.65 38.01 13.56-10.59 13.21-39.15-1.65-38.01zM282.57 250.22c-1.35-14.98-22.51-28.27-28.72-16.8-5.84 10.79 10.05 7.29 28.72 16.8zM285.05 438.93l-10.89-10.53-8.34-10.16-13.08 6.17v18.15l16.34 1.81zM303.2 451.89l-5.29-5.12-4.06-4.94-6.35 3-6.18 9.18 14.12.53zM228.21 436.07l-5.29-5.11-4.06-4.95-6.35 3-6.18 9.18 14.12.53zM310.36 451.33l8.07.3 4.44-1.51-3.03-2.92-2.32-2.83-3.63 1.72zM341.51 423.68l-6.05-9.07-13.92 2.42-4.23 10.28 13.91 3.63zM379.02 436.99l-4.84-13.31-12.71-1.81-5.44 18.15 14.52 5.44zM416.55 172.23c-.2-.34-19.69-34.32-8.59-52.08 5.19-8.29 16.38-11.87 33.27-10.63 19.92 1.45 32.14-2.9 36.3-12.94 8.45-20.39-19.4-56.89-41.88-76.3l-1.58 1.83c25.39 21.93 48.37 56.28 41.22 73.54-3.72 8.97-15.1 12.84-33.89 11.46-17.87-1.31-29.8 2.65-35.5 11.77-11.88 19 7.71 53.14 8.55 54.58l2.09-1.22zM421.67 19.98c3.9.41 7.33-.69 8.72-2.57 2.13-.97 3.93-4.09 4.34-7.99.52-4.89-1.34-9.1-4.14-9.4-2.8-.3-5.49 3.43-6.01 8.32-.06.61-.09 1.2-.08 1.78-.56-.13-1.15-.22-1.76-.29-4.89-.52-9.1 1.33-9.4 4.14-.29 2.8 3.43 5.49 8.33 6.01zM346.2 91.02c3.75 1.15 7.32.71 9.05-.86 2.28-.55 4.64-3.27 5.78-7.02 1.44-4.71.42-9.19-2.27-10.01-2.69-.82-6.05 2.32-7.49 7.03-.18.58-.32 1.16-.42 1.73-.53-.23-1.09-.44-1.67-.62-4.71-1.44-9.19-.42-10.01 2.27-.82 2.69 2.32 6.04 7.03 7.49zM563.18 129.34c2.09 1.05 5.65.49 8.94-1.64 4.14-2.67 6.25-6.75 4.72-9.12-1.53-2.37-6.12-2.12-10.25.55-.51.33-.99.68-1.44 1.05-.26-.52-.55-1.04-.88-1.55-2.67-4.13-6.75-6.25-9.12-4.72-2.37 1.53-2.12 6.12.55 10.25 2.13 3.29 5.14 5.27 7.48 5.17zM432.2 190.81l2.12 1.17c.21-.39 21.48-38.55 45.56-38.55h.39c11.78.2 22.47 9.63 31.77 28.02 7.88 15.58 15.27 23.2 22.53 23.2.59 0 1.17-.05 1.76-.15 19.87-3.38 28.45-66.73 28.81-69.42l-2.4-.32c-.08.64-8.69 64.27-26.81 67.35-6.54 1.12-13.86-6.21-21.73-21.76-9.74-19.25-21.14-29.13-33.89-29.35h-.44c-25.49 0-46.77 38.17-47.68 39.8zM359.37 161.18c1.37 13.15 1.26 27.64.88 35.39l2.42.12c.06-1.26.85-18.23-.75-34.59 3.14 1.02 6.13 1.56 8.65 1.44 4.75-.21 7.74-2.65 8.42-6.85 3.06-18.97-21.49-60.75-22.54-62.52l-2.08 1.23c.25.43 25.15 42.79 22.23 60.9-.49 3.08-2.5 4.65-6.14 4.81-2.6.12-5.65-.51-8.82-1.65-1.39-12.15-4.2-23.45-9.73-27.1-2.56-1.69-5.5-1.74-8.73-.15-4.62 2.27-6.57 5.85-5.49 10.08 1.88 7.32 12.07 15.08 21.68 18.88zm-15.12-26.79c1.22-.6 2.34-.9 3.39-.9 1.05 0 2.02.3 2.94.9 4.54 2.99 7.1 12.79 8.48 24.04-8.74-3.82-17.55-10.97-19.03-16.74-.8-3.13.58-5.52 4.22-7.31zM29.29 337.85c.32 0 .64-.02.96-.06 4.65-.52 7.99-4.72 7.47-9.37-3.54-31.32 2.83-53.18 18.92-64.97.36-.27.74-.51 1.11-.77L39.41 393.27c-.86 6.11 3.01 11.89 8.99 13.41 1 .25 2.01.38 3 .38 4.93 0 9.51-3.03 11.32-7.84l36.76-97.72c4.24.26 8.47.85 12.68 1.71 4.74-10.73 11.72-19.42 15.66-24.03-4.72 9.4-7.62 18.21-9.41 25.51 3.42.92 6.8 1.98 10.14 3.17 4.51-13.13 13.16-23.95 17.73-29.29-6.21 12.37-9.28 23.72-10.8 31.95 3.82 1.57 7.58 3.25 11.24 5.01 3.06-16.65 14.37-30.87 19.84-37.26-9.1 18.12-11.46 34.07-12.08 41.15 21.92 11.42 39.56 23.79 47.57 22.57 1.49-.23 3.01-.77 4.53-1.55l10.91 62.43c.91 5.24 5.47 9.01 10.72 9.01.25 0 .5-.01.75-.03 5.56-.38 9.94-4.9 10.14-10.47l2.94-81.75c7.26-1.65 12.76-2.05 14.97-.78 4.29 2.47-1.63 25.17 8.26 33.14 9.9 7.96 27.57 6.34 27.57 6.34s10.73-12.39 5.34-22.03c-5.38-9.63 3.33-17.13 7.15-25.09 1.05-2.19 1.5-4.99 1.62-7.88 12.1.01 22.64 2.66 22.64 2.66s-4.66-15.27-18.96-20.12c9.72-6.11 19.19-9.38 19.19-9.38s-17.1-14.26-35-2.89c-10.71-2.18-43.9-9.66-67.27-22.82 0 0-2 5.78-4.23 15.01-4.37-7.77-6.77-14.99-9.87-19-8.46 3.07-17.34 4.58-26.4 5.16-35.4-12.3-102.66-29.85-140.41-2.2-21.35 15.64-30.01 42.74-25.75 80.54a8.467 8.467 0 0 0 8.41 7.52zm257.15-33.34a5.444 5.444 0 0 1 7.4 2.09c1.46 2.62.53 5.93-2.09 7.4a5.444 5.444 0 0 1-7.4-2.09 5.439 5.439 0 0 1 2.1-7.4z"/></g></svg>