<svg xmlns="http://www.w3.org/2000/svg" xml:space="preserve" viewBox="0 0 318.72 240.19" shape-rendering="geometricPrecision" text-rendering="geometricPrecision" image-rendering="optimizeQuality" fill-rule="evenodd" clip-rule="evenodd"><g fill="currentColor"><path d="M169.21 86.59v32.71c1.16 11.44.64 24.47-.19 38.67-.08 1.32-.31 2.8-.73 3.96h135.35v4.64H165.57c-2.55 2.32-6.28 4.5-10.4 4.5-.28 0-.56-.1-.84-.12-3.69-.22-7.1-1.72-9.57-4.5-.01-.01-.01.12-.02.12h-1.05v13.91h159.94v53.31h15.07V66.89h-15.07v4.64H158.37c2.24 4.64 4.15 9.27 5.73 15.07h5.09zm8.11 0h19.7v60.27h-19.7V86.59zm75.34 60.27H231.8V86.59h20.86v60.27zm6.95-60.27h20.86v60.27h-20.86V86.59zm-34.77 60.27h-20.86V86.59h20.86v60.27zm78.81 0h-16.23V86.59h16.23v60.27zM72.73 150.19c.03-.07.07-.14.1-.21l-.12-.21c.01.14.01.28.02.42zM141.6 150.19c.01-.14.01-.29.02-.42l-.12.21c.03.07.07.14.1.21zM0 66.88v166.9h15.07v-53.31H70.7v-13.91h-1.14c-.01 0-.01-.17-.02-.17-2.47 2.78-5.87 4.49-9.58 4.71-.26.02-.54.09-.82.09-4.12 0-7.84-2.32-10.4-4.64H15.07v-4.64h30.95c-.41-1.16-.68-2.65-.76-3.96-.22-3.74-.38-7.63-.49-11.1h-6.52V86.58H50.2c1.58-5.8 3.49-10.43 5.73-15.07H15.06v-4.64H-.01zm31.29 19.7v60.27H15.06V86.58h16.23z"/><path d="M49.89 157.5a9.269 9.269 0 0 0 9.25 8.73c.18 0 .37 0 .55-.01 5.11-.3 8.77-4.69 8.48-9.8-2.38-40.73 2.54-62.44 7.17-73.21v60.3c0 1.37.56 2.67 1.11 3.83 3.11-4.04 8.1-6.56 13.58-6.56 7.55 0 14.09 4.92 16.29 11.87h1.69c2.21-6.95 8.62-11.88 16.17-11.88 5.48 0 10.64 2.57 13.75 6.61.55-1.16 1.16-2.51 1.16-3.88V83.2c4.64 10.78 9.51 32.49 7.13 73.21-.3 5.11 3.46 9.5 8.57 9.8.19.01.29.01.48.01 4.87 0 8.92-3.8 9.21-8.73 2.87-48.96-3.28-80.91-18.22-94.95-6.49-6.1-12.85-7.15-16.11-7.23-.19-.01-.39-.02-.59-.02H84.78c-.2 0-.4.01-.59.02-3.27.08-9.61 1.14-16.09 7.23-14.94 14.04-21.07 45.98-18.2 94.95z"/><path d="M75.34 157.68v68.19c0 7.92 6.57 14.33 14.49 14.33 7.91 0 14.49-6.41 14.49-14.33v-68.19c0-7.92-6.57-14.33-14.49-14.33-7.91 0-14.49 6.41-14.49 14.33zM110.11 157.68v68.19c0 7.92 6.58 14.33 14.49 14.33s14.49-6.41 14.49-14.33v-68.19c0-7.92-6.58-14.33-14.49-14.33s-14.49 6.41-14.49 14.33zM115.91 50.65c10.1-3.6 17.33-13.24 17.33-24.57 0-14.4-11.67-26.08-26.08-26.08-14.4 0-26.08 11.67-26.08 26.08 0 11.33 7.23 20.97 17.33 24.57 2.74.97 5.68 1.51 8.75 1.51 3.07 0 6.01-.53 8.75-1.51z"/></g></svg>