<svg xmlns="http://www.w3.org/2000/svg" xml:space="preserve" viewBox="0 0 681.71 672.83" shape-rendering="geometricPrecision" text-rendering="geometricPrecision" image-rendering="optimizeQuality" fill-rule="evenodd" clip-rule="evenodd"><g fill="currentColor"><path d="M656.36 326.08c-9.8-54.86-39.36-90.93-67.27-111.58-30.84-23.06-59.18-29.31-61.12-29.79a22.51 22.51 0 0 0-10.56.22c-.5-.06-1.01-.1-1.52-.13-12.36 14.33-30.55 23.12-50.6 23.12-5.1 0-10.24-.59-15.25-1.76-14.57-3.39-27.27-11.41-36.58-22.81-.12.01-.23 0-.35.01-2.23.27-31.23 2.67-62.48 23.77-15.56 10.55-31.52 26.02-43.71 47.77-.56.99-1.06 2.06-1.6 3.07-13.48-34.96-30.82-59.79-47.73-76.9-19.61-19.91-38.11-29.23-48.32-33.25-3.57-2.51-7.91-4-12.6-4H87.07c-2.41 0-4.72.4-6.89 1.12-4.81.69-10.86 2.25-17.45 5.57-15.26 7.57-31.71 24.12-43.22 53.44C7.86 233.39.03 275.97 0 340.25c0 16.62.54 34.68 1.69 54.35.71 12.06 10.71 21.37 22.63 21.37.45 0 .9-.01 1.35-.04 12.51-.73 22.06-11.47 21.33-23.98-1.11-18.87-1.61-36.05-1.61-51.7-.1-68.7 9.92-107.29 19.76-127.42v424.93c0 19.38 15.71 35.07 35.07 35.07 19.37 0 35.08-15.69 35.08-35.07V381.68h13.15v256.08c0 19.38 15.71 35.07 35.07 35.07 19.37 0 35.08-15.69 35.08-35.07V206.64c5.14 4.51 10.65 10.12 16.22 17.09 17.95 22.5 37.02 59.48 45.62 121.07 1.57 11.35 11.3 19.57 22.44 19.57 1.04 0 2.09-.07 3.16-.22 2.83-.39 5.45-1.31 7.82-2.62 9.08-2.63 15.89-10.8 16.34-20.76 1.3-28.28 7.85-48.55 16.3-63.65 11.68-20.72 27.45-32.39 41.58-39.38-11.49 57.73-34 178.98-32.97 238.51.27 15.59 2.14 26.98 6.27 31.85 12.1 14.28 57.7 25.3 103.86 27.9 46.16-2.6 91.77-13.62 103.86-27.9 4.12-4.87 5.99-16.25 6.26-31.85 1.03-59.2-21.22-179.42-32.77-237.54 6.66 3.44 14.05 7.93 21.43 13.73 18.56 14.8 37.17 36.65 45.76 72.59-16.2 8.17-27.33 24.92-27.34 44.3 0 7.03 5.7 12.73 12.73 12.73s12.73-5.7 12.73-12.73h-.01c.01-6.47 2.57-12.32 6.7-16.66 2.91 9.36 11.64 15.93 21.63 15.93.72 0 1.45-.03 2.19-.11 6.53-.63 12.13-3.98 15.83-8.81 1.29 2.96 2.01 6.21 2.02 9.64v288.95c0 7.02 5.69 12.73 12.73 12.73 7.03 0 12.73-5.71 12.73-12.73l-.01-288.95c0-18.59-10.23-34.76-25.34-43.27z"/><path d="M381.72 638.61c0 18.02 14.6 32.62 32.63 32.62 18.02 0 32.62-14.61 32.62-32.62 0-36.28.74-67.92 1.93-95.37-24.59-2.44-47.89-7.16-64.7-13.33-1.52 30.85-2.48 66.88-2.48 108.7zM483.49 638.61c0 18.02 14.6 32.62 32.62 32.62 18.02 0 32.63-14.61 32.63-32.62-.01-41.82-.97-77.85-2.48-108.7-16.81 6.18-40.1 10.89-64.69 13.33 1.19 27.45 1.93 59.1 1.93 95.37zM480.42 75.69a66.563 66.563 0 0 1 18.6 7.4c-1.31-17.54-15.93-31.37-33.8-31.37-17.85 0-32.46 13.8-33.8 31.32 9.96-5.81 21.5-9.11 33.74-9.11 5.11 0 10.24.59 15.25 1.76z"/><path d="M451.32 200.63c32.98 7.68 65.94-12.83 73.62-45.81 7.68-32.98-12.83-65.94-45.81-73.62-32.98-7.68-65.94 12.83-73.62 45.81-7.68 32.98 12.83 65.94 45.81 73.62zM141.87 0c-35.25 0-63.83 28.58-63.83 63.83s28.58 63.83 63.83 63.83 63.83-28.57 63.83-63.83C205.7 28.58 177.13 0 141.87 0z"/></g></svg>