<svg xmlns="http://www.w3.org/2000/svg" xml:space="preserve" viewBox="0 0 1228.39 741.73" shape-rendering="geometricPrecision" text-rendering="geometricPrecision" image-rendering="optimizeQuality" fill-rule="evenodd" clip-rule="evenodd"><g fill="currentColor"><path d="M226.72 433.98H0v10.99h226.72zM1040.77 444.97h187.62v-10.99h-187.62zM451.47 586.56c-3.61-3.08-7.09-6.21-10.53-9.37-9.77-5.07-17.71-9.76-23.85-13.97a120.33 120.33 0 0 1-5.49-3.89 98.22 98.22 0 0 1 6.68-3.44c.3-.15.63-.29.93-.43-24.77-26.97-43.72-56.26-56.34-86.86-6.32 3.47-12.57 7.26-18.68 11.56-10.3 7.38-20.49 16.2-29.3 28.65-8.73 12.23-15.86 29.43-15.77 48.38-.09 20.25 7.97 39.18 18.84 53.59 16.58 21.86 38.82 37.85 69.07 54.47 30.33 16.41 69.23 32.77 120.01 50.09 5.5 1.87 11.1 2.76 16.62 2.76 21.45 0 41.47-13.49 48.77-34.92 9.18-26.94-5.22-56.21-32.15-65.39-22.03-7.47-41.2-14.69-57.76-21.53-1.4.14-2.8.23-4.22.23-9.82 0-19.34-3.53-26.82-9.93zM924.51 689.78c5.74-3.1 11.02-7.27 15.41-12.63 18.03-22.01 14.81-54.47-7.2-72.51-10.17-8.34-20.17-16.21-30.06-23.83l27.05 58.98c7.76 16.91 5.12 35.97-5.19 49.99z"/><path d="M352.65 376.76c-.38 63.83 27.74 138.5 104.19 203.54a32.916 32.916 0 0 0 21.45 7.95c9.29 0 18.52-3.9 25.05-11.51 11.86-13.82 10.26-34.64-3.56-46.5-63.82-55.27-80.79-108.04-81.17-153.47-.05-26.15 6.33-50.25 14.84-69.5l7.55 3.27c-9.12 20.64-14.18 44.02-14.13 66.22.46 53.83 26.07 102.02 78.32 147.26 1.56 1.34 2.96 2.81 4.27 4.32 7.19-1.3 13.74-4.04 19.46-7.86 24.26 4.01 48.78 10.59 72.61 10.59 20.22 6.3 46.54 16.06 77.94 31.08l-6.57-14.33c-10.33-22.52-2.21-48.82 17.94-61.97-11.33-10.3-21.14-20.89-29.32-31.74a174.55 174.55 0 0 1-10.24-15.1c-17.61-6.17-32.84-10.61-45.37-13.81-13.24-63.83 9.22-84.63 44.79-139.35.4-.17.8-.34 1.21-.51-.23-.55-.5-1.09-.71-1.64-18 27.84-49.3 46.32-84.85 46.32-55.68 0-100.99-45.29-100.99-100.98 0-10.55 1.64-20.73 4.65-30.29-.07-.02-.13-.03-.19-.04-6.77-1.57-17.22.4-27.56 4.65-5.86 1.44-10.32 3.81-14.35 6.09-10.49 6.41-18.62 14.54-26.97 24.74-9.95 12.44-19.8 28.29-28.01 46.9-11.76 26.68-20.1 59.08-20.25 95.69z"/><path d="M473.57 229.02c0 51.23 41.52 92.75 92.75 92.75 35.16 0 65.75-19.56 81.48-48.4-3.86-14.7-4.14-30.22-.59-45.45a95.63 95.63 0 0 1 8.64-23.12c-10.65-39.47-46.69-68.52-89.53-68.52-51.22 0-92.75 41.52-92.75 92.74zM956.37 109.47h53.86v50.61h132.47v-50.61h62.1V50.61H1018.47V0H886.01v50.61h-62.1v58.85h132.45zm178.09 42.36h-115.98v-42.36H1134.46l.01 42.35zm62.1-92.97v42.37h-115.97V58.86h115.97zm-124.21 42.37H956.38V58.87h115.97v42.36zM894.26 8.25h115.98v42.37H894.27V8.25zm-62.11 92.98V58.86h115.98v42.37H832.15zM120.14 202.27h132.45V143.4h-62.1V92.8H58.03v58.85h62.11v50.61zm124.21-8.25H128.37v-42.36H244.35v42.37zM66.27 143.41v-42.36h115.98v42.35H66.27zM376.82 96.93V42.2H244.36v58.85h132.46v-4.12zM252.6 92.81V50.44h115.97l.01 42.37H252.6zM891.64 499.18c-5.84 3.93-12.61 6.01-19.59 6.01-1.41 0-2.81-.09-4.19-.26l26.04 56.78c89.19-8.36 98.38-29.72 98.38-29.72l-31.23-95.67c-16.71 21.96-39.44 42.59-69.41 62.86z"/><path d="M831.85 270.91c-10.05 43.18-47.98 73.33-92.24 73.33-7.22 0-14.48-.84-21.58-2.49-23.54-5.48-43.63-19.47-57.04-39.42-9.58 13.38-16.62 28.5-20.03 45.18h.01c-.01.05-.03.1-.04.16h-.01c-1.4 6.98-2.13 14.19-2.13 21.5-.04 26.66 9.84 54.25 29.28 79.97 8.37 11.1 18.48 21.96 30.43 32.59 20.93-8.91 44.81-2.24 58.31 15.07-2.32-11.62-.32-23.49 5.23-33.56-23.69-16.11-40.32-31.9-51.15-46.32-13.83-18.51-18.46-34.2-18.5-47.75 0-3.75.37-7.4 1.09-10.97.08-.43.12-.86.19-1.29l8.16 1.46c-.08.48-.17.97-.26 1.45-.62 3.1-.93 6.16-.93 9.36.04 13.67 5.55 27.68 16.87 42.81 3.06 4.08 6.65 8.19 10.55 12.3 2.17-.78 4.52-1.16 6.97-1.03l40.44 2.02c1.73-2.05 3.69-3.97 5.95-5.63l21.94-16.1-11.01-7.22c-8.34-5.47-10.67-16.65-5.2-24.98 5.47-8.33 16.65-10.66 24.98-5.19l37.97 24.9c.74.49 1.38 1.07 2.01 1.64 4.07 2.3 7.75 5.45 10.7 9.47 5.95 8.1 7.74 17.95 5.84 27.07 16.83-13.29 29.95-26.97 39.57-39.26 17.31-22.13 14.73-42.06 14.48-43.78l6.72 2.41c.27 1.99.42 4.02.43 6.09-.03 10.76-3.69 23.94-14.86 39.98-11.12 15.95-29.79 34.26-57.95 53.27-4.76 3.21-8.14 7.7-10.03 12.69 1.18 1.86 2.28 3.79 3.23 5.85l13.32 29.04c2.74.92 5.61 1.42 8.5 1.42 5.16 0 10.37-1.49 14.97-4.59v-.01c32.15-21.74 55.78-43.97 71.89-66.96 13.15-18.75 21.11-38.35 23.6-57.79.55-4.31.93-8.62.92-12.9a100 100 0 0 0-1.01-14.16c-.02-.12-.05-.23-.07-.35-2.06-13.67-6.91-26.2-13.81-37.47-7.78 8.3-18.67 13.09-30.09 13.09-10.12 0-19.85-3.72-27.41-10.45-11.01-9.79-22.78-17.74-35.68-24.06l3.59-7.38c13.04 6.4 25.59 14.63 37.58 25.29a32.87 32.87 0 0 0 21.93 8.36c9.08 0 18.11-3.73 24.63-11.03 12.12-13.59 10.92-34.44-2.67-46.57-16.58-14.79-34.37-26.41-52.64-35.36-7.7-3.77-15.48-7.12-23.3-9.96-23.82-8.65-47.92-13.16-71.34-14.86 17.75 21.96 25.61 51.56 18.72 81.11zm58.48 105.28c-17.11 12.55-41.16 8.86-53.7-8.24-12.55-17.12-8.87-41.16 8.25-53.71 17.11-12.55 41.14-8.85 53.71 8.25 12.55 17.1 8.85 41.15-8.26 53.71z"/><path d="M655.24 229.8c-10.85 46.55 18.11 93.08 64.67 103.92 46.55 10.84 93.07-18.11 103.92-64.67 10.83-46.55-18.12-93.07-64.66-103.91-46.55-10.84-93.08 18.11-103.92 64.66zM755.31 510.02c-9.49-20.7-33.96-29.78-54.65-20.29-20.7 9.49-29.78 33.95-20.29 54.65l79.46 173.29c9.49 20.7 33.95 29.78 54.65 20.29 20.69-9.48 29.78-33.96 20.29-54.65l-79.46-173.3zM842.74 469.93c-9.49-20.7-33.96-29.78-54.65-20.29-20.7 9.49-29.78 33.95-20.29 54.65l79.46 173.3c9.49 20.69 33.95 29.78 54.65 20.29 20.69-9.49 29.78-33.96 20.29-54.65l-79.46-173.3zM151.5 542.87c-52.39 12.37-47.26 47.41-89.67 84.51-42.41 37.1 1.64 101.39 146.33 93.78 78.32-4.13 128.12-35.52 88.97-99.62-43.63-71.45-114.45-60.11-84.52-84.85 29.94-24.73 29.94-59.77 9.98-65.95s-35.56-6.53-40.55 18.21c-4.99 24.73-60.49-29.54-61.73 8.59-1.25 38.13 83.57 32.98 31.18 45.34zm-8.39-41.98s41.95 17.43 61.37-5.72c19.43-23.15-6.74 47.72-61.37 5.72zm27.44 59.5c-53.07 39.16-69.56 54.11-88.11 81.41 12.36-60.8 88.11-81.41 88.11-81.41z"/></g></svg>