<svg xmlns="http://www.w3.org/2000/svg" xml:space="preserve" viewBox="0 0 1771.99 1204.13" shape-rendering="geometricPrecision" text-rendering="geometricPrecision" image-rendering="optimizeQuality" fill-rule="evenodd" clip-rule="evenodd"><g fill="currentColor"><path d="m982.76 808.57-.96 5.57 4.87-3.24 6.84-2.81 7.52-1.11 4.85-8.01 11.87 10.14 5.37-6.69 4.07-10.06 7.52 7.39 9.67-2.22 5.21 5.19-.57 9.59 8.07 6.4-11.68-1.3-5.77 4.83-7.31 1.67-4.01 8.55-6.14 4.14-10.34-4.68-7.04 2.2-2.33 12.16-7.91.46-8.17 1.32 2.19 9.07-3.52 5.8-8.88 3.39 4.25 6.87 3.08 2.38 5.55 3.22 2.34 5.34 6.86 5.28 7.26 1.54 5.79-8.36 6.48-3.6 7.86 5.64 6.59-2.97 6.03-6.84 7.5 3.12 7.75 4.92 5.04-13.75 8.18 7.65 5.99-1.58 1.16 4.98-7.25 9.22 12.44-3.07 4.3 6.33 11.26 1.88-10.79 3.3-9.25-6.58-6.7 2.33-3.1 15.04-9.47-7.36-6.63 2.68-6.91 1.7-3.28 6.68-10.11 2.05 4.82 8.29.69 2.88 3.05-.96 7.8 7 6.76-4.11 6.49-7.2 7.33 1.95 7.1-.57 8.08 10.06 6.18-10.52 7.67 5.51 7.44 3.03 5.79-14.55 7.9 7.94 6.3-9.12 7.2.37 7.88 7.71 6.09-7.78 6.18-.96v37.95h-130.31v45.1h16.02l35.97 205.48h188.44l35.96-205.48h14.29v-45.1h-130.31v-40.5l6.89 4.38 6.9 5.46 7.13 1.77 6.95 2.89 7.45-2.87 6.57 6.52 7.26-1 7.65-5.3 6.84 3.19 7.09.79 7.87-7.71 6.53 6.73 6.82 3.86 7.03 1.34 7.59-4.52 6.45 7.95 7.44-5.59-3.01-5.94-2.18-6.46 3.66-10.52-8.86-3.35-8.86 5.27-6-4.87-5.61-6.19-6.45-3.25-8.33 3.32-8.59 4.14-12.14-5.83 10.93-8.05 7.71 1.44.13-6.25 9.01-2.48-.35-.1 2.79-3.95 6.9.92 6.06 6.43 6.82 1.36 7.52-3.33 7.9-5.97 5.34 11.54 7.3-1.72 6.9.89 8.16-7.6 6.63 2.9 5.68 3.12 4.55-2.8 2.66-6.5 9.57-.54-10.45-3.95 3.58-8.99-5.82-4.78.76-8.37-9.85 2.49-3.31-10-5.35-5.78-9.49 2.93-8.64 1.13-6.96-2.41-4.19-8.21-4.25-8.12-8.56.89-5.28-3.56-1.38-8.85 5.85-4.7 9.14-2.21 1.72-10.72 5.61 12.27 11.14-8.26 7.19 1.94 3.81 10.69 6.32 4.18 6.62 3.46 7.1 2.25 5.89-6.66 7.62-.98 3.63-6.47-11-5-1.07-2.87-2.17-10.83-9.47 3.98-7.25-.56-1.02-13.98-8.96 2.95-6.86-1.71-6.01-4.01-6.44-2.84-6.08-3.85-5.62-5.06-10.35 7.48-5.3-5.91-7.13-1.15-8.23-5.27 9.82-2.78 7.35 1.83 7.41-.13 7.33 3.4 7.46-3.84 7.37 1.82 7.28 8.58 7.48-4.73 7.38 3.32 7.02-6.05 4.45-8.19-7.83-4.77-3.96-8.03-9.83 4.35-4.02-7.25-9.85 4.36-4-7.28-7.11-1.14-6.68-1.95-2.03-6.98 5.91-1.53 7.2-2.38 6.15 7.38 8.14-4.47-6.48-6.17 7.35-7.43-9.52-.48-2.84-8.42-8.29-.47-4.76-5.66-4.07-6.66-7.18-2.12-3.99-6.81-10.21 1.23-6.98-5.65-2.32-7.17-4.98-5.96 4.5-10.28-1.85-7.4.3-8.39-11.69-1.6-1.04-9.74-11.02 6.3-4.34-6.34-4.88-5.35-5.21-5.73-7.67 1.14-7.46 3.32-6.69-3.82-7.23 1.07-6.59-4.96-7.24.58-7.21-.58-6.35 7.11-6.93 1.58-7.73-5.79-6.25 8.23-7.99-6.51-3.35 8.63-5.27 4.56-11.53-7.23-1.07 12.54-10.63-3.53-2.9 7.83 3.79 9.96-13.55 2.05 3.97 10.04-5.78 5.6 2.08 9.21-2.38 9.02-10.86-.13-5.2 4.98-5.35 4.78-3.95 6.85-10.15-2.25-4.93 5.41-8.48.24.75 10.61-.76 3.46-3.63 5.33 7.31 4.77 4.75-.11-3.71 2.15-6.34 2.67-3.16 8.96-8.37-1.38-5.74 3.88-2.42 7.72.85 6.16-12 7.82 11.55-2.67 7.39.66 7.36-2.61 7.4.72 7.31-6.15 7.56 11.07 7.02-2-1.36 12.77-7.06 1.22-9.97-6.45-3.08 11.78-6.05 3.94-6.65 2.4-6.78 1.24-7.21-.05-6.9 1.2-8.95-2.92-1.31 12.65-12.73-3.59 11.16 7.97zM1678.46 801.81l1.72-10.72 5.6 12.27 11.14-8.26 7.19 1.94 3.81 10.69 6.33 4.18 6.62 3.46 7.1 2.25 5.89-6.66 7.62-.98 3.63-6.47-11-5-1.07-2.87-2.17-10.83-9.47 3.98-7.24-.56-1.04-13.98-8.96 2.95-6.86-1.71-6-4.01-6.45-2.84-6.07-3.85-5.62-5.06-10.35 7.48-5.3-5.91-7.13-1.15-8.24-5.27 9.83-2.78 7.35 1.83 7.4-.13 7.34 3.4 7.45-3.84 7.38 1.82 7.28 8.58 7.47-4.73 7.39 3.32 7.02-6.05 4.45-8.19-7.83-4.77-3.97-8.03-9.82 4.35-4.02-7.25-9.85 4.36-4.01-7.28-7.1-1.14-6.68-1.95-2.04-6.98 5.92-1.53 7.2-2.38 6.14 7.38 8.14-4.47-6.47-6.17 7.35-7.43-9.52-.48-2.85-8.42-8.28-.47-4.76-5.66-4.07-6.66-7.18-2.12-3.99-6.81-10.21 1.23-6.98-5.65-2.32-7.17-4.98-5.96 4.5-10.28-1.85-7.4.3-8.39-11.69-1.6-1.05-9.74-11.01 6.3-4.35-6.34-4.88-5.35-5.2-5.73-7.67 1.14-7.46 3.32-6.69-3.82-7.23 1.07-6.6-4.96-7.23.58-7.21-.58-6.35 7.11-6.93 1.58-7.73-5.79-6.25 8.23-8-6.51-3.34 8.63-5.27 4.56-11.53-7.23-1.07 12.54-10.64-3.53-2.89 7.83 3.79 9.96-13.55 2.05 3.97 10.04-5.79 5.6 2.09 9.21-2.38 9.02-10.86-.13-5.2 4.98-5.35 4.78-3.95 6.85-10.15-2.25-4.93 5.41-8.49.24.76 10.61-.76 3.46-3.63 5.33 7.3 4.77 4.76-.11-3.71 2.15-6.34 2.67-3.16 8.96-8.37-1.38-5.74 3.88-2.42 7.72.85 6.16-12.01 7.82 11.57-2.67 7.38.66 7.36-2.61 7.4.72 7.31-6.15 7.56 11.07 7.01-2-1.35 12.77-7.07 1.22-9.97-6.45-3.07 11.78-6.05 3.94-6.65 2.4-6.78 1.24-7.21-.05-6.91 1.2-8.94-2.92-1.31 12.65-12.73-3.59 11.15 7.97-.52 7.3-.96 5.57 4.87-3.24 6.84-2.81 7.51-1.11 4.86-8.01 11.87 10.14 5.37-6.69 4.07-10.06 7.52 7.39 9.67-2.22 5.21 5.19-.57 9.59 8.07 6.4-11.68-1.3-5.77 4.83-7.31 1.67-4.01 8.55-6.14 4.14-10.34-4.68-7.05 2.2-2.32 12.16-7.91.46-8.17 1.32 2.19 9.07-3.52 5.8-8.88 3.39 4.24 6.87 3.08 2.38 5.55 3.22 2.34 5.34 6.87 5.28 7.26 1.54 5.78-8.36 6.49-3.6 7.86 5.64 6.59-2.97 6.03-6.84 7.5 3.12 7.75 4.92 5.04-13.75 8.18 7.65 5.98-1.58 1.17 4.98-7.25 9.22 12.44-3.07 4.3 6.33 11.26 1.88-10.79 3.3-9.25-6.58-6.7 2.33-3.1 15.04-9.47-7.36-6.63 2.68-6.92 1.7-3.27 6.68-10.11 2.05 4.82 8.29.69 2.88 3.05-.96 7.79 7 6.77-4.11 6.48-7.2 7.34 1.95 7.09-.57 8.09 10.06 6.18-10.52 7.67 5.51 7.43 3.03 5.8-14.55 7.9 7.94 6.3-9.12 7.2.37 7.88 7.71 5.46-7.78 5.55-.96v37.95h-130.3v45.1h17.27l35.97 205.48h188.43l35.97-205.48h18.05v-45.1h-135.32v-40.5l7.51 4.38 7.22 5.46 7.28 1.77 7.03 2.89 7.49-2.87 6.59 6.52 7.27-1 7.65-5.3 6.85 3.19 7.09.79 7.86-7.71 6.54 6.73 6.81 3.86 7.04 1.34 7.58-4.52 6.46 7.95 7.44-5.59-3.01-5.94-2.19-6.46 3.67-10.52-8.86-3.35-8.87 5.27-5.99-4.87-5.62-6.19-6.44-3.25-8.33 3.32-8.59 4.14-12.14-5.83 10.94-8.05 7.7 1.44.13-6.25 9-2.48-.34-.1 2.79-3.95 6.89.92 6.07 6.43 6.82 1.36 7.52-3.33 7.9-5.97 5.34 11.54 7.29-1.72 6.91.89 8.16-7.6 6.63 2.9 5.69 3.12 4.54-2.8 2.66-6.5 9.57-.54-10.45-3.95 3.58-8.99-5.82-4.78.76-8.37-9.85 2.49-3.31-10-5.35-5.78-9.49 2.93-8.64 1.13-6.96-2.41-4.19-8.21-4.25-8.12-8.56.89-5.28-3.56-1.38-8.85 5.85-4.7zM684.12 625.52H547.75v516.65c0 34.23 28.43 61.96 62.64 61.96 34.22 0 62.65-27.73 62.65-61.96V690.68h25.06v451.49c0 34.23 25.93 61.96 60.14 61.96 34.22 0 60.14-27.73 60.14-61.96V625.52H684.13zM684.12 376.28c45.66 0 76.95-81.53 86.35-106.59H597.76c9.4 25.06 40.68 106.59 86.35 106.59zM818.38 520.47V390.28c25.06 46.6 43.01 140.47 32.71 316.57-1.3 22.1 15.9 41.07 38.01 42.36.8.05 1.75.07 2.54.07 21.07 0 38.82-16.44 40.07-37.75 12.38-211.73-14.06-349.87-78.67-410.58-19.73-18.54-39.77-26.28-54.49-29.39-5.59 38.13-20.25 166.3 19.84 248.9zM684.12 240.98c57.13 0 104.29-42.48 111.71-97.57-10.16-.52-20.89-1.62-31.92-3.33-57.74-8.97-102.24-31.6-100.96-50.97 7.64 17.34 52.33 30.67 106.48 30.67 40.87 0 76.41-7.58 94.68-18.76 8.34-5.1 13.08-10.94 13.08-17.16 0-19.84-48.25-35.92-107.75-35.92-2.04 0-4.02.06-6.03.1-20.37-20.14-48.36-32.59-79.27-32.59-62.27 0-112.76 50.49-112.76 112.77 0 62.28 50.49 112.76 112.76 112.76z"/><path d="m30.11 887.97 233.29 122.39 1.03 4.3-6.94 2.6c-5.83 2.18-8.79 8.68-6.61 14.52 2.18 5.83 8.68 8.79 14.51 6.6l239.39-89.56c5.83-2.18 8.79-8.68 6.6-14.51-2.18-5.83-8.68-8.79-14.51-6.61l-6.94 2.6-17.05-32.72c-4.39-31.66 9.93-65.4 22.7-95.42 11.44-26.91 23.11-54.42 17.3-76.16 2.68-5.79 3.61-12.32 3.21-19.14-10.3-176.1 11.59-269.98 31.64-316.57v130.18c40.09-82.61 26.46-210.76 20.87-248.89-14.72 3.1-33.92 10.84-53.65 29.38-62.87 59.07-89.52 191.47-79.51 393.63-21.85 8.68-37.17 28.81-45.83 43.28l-9.56-18.4 4.98-1.86c5.83-2.18 8.8-8.68 6.61-14.51-2.18-5.84-8.68-8.8-14.51-6.61L196 764.26c-5.83 2.18-8.79 8.68-6.61 14.51 2.18 5.83 8.68 8.79 14.52 6.6l4.97-1.85 39.09 162.76-207.43-81.22 5.68-12.47-16.61-17.92-29.65 64.97 24.42.81 5.69-12.47zm406.91-171.9c3.3 19.06 19.89 33.22 39.44 33.22.79 0 1.59-.02 2.38-.07 5.43-.32 10.54-1.71 15.14-3.95-1.68 11.92-7.73 27.63-16.84 49.03-8.97 21.12-18.63 43.93-22.9 67.46l-53.33-102.37c3.51-7.5 16.24-32.05 36.11-43.33zM1362.48 459.58c42.82 32.37 96.12 51.58 153.94 51.58 141.16 0 255.58-114.43 255.58-255.58C1772 114.42 1657.57 0 1516.42 0c-141.16 0-255.58 114.43-255.58 255.58 0 63.06 22.89 120.75 60.75 165.32l-67.41 121.34 108.31-82.66zm-73.22-194.23c0-120.4 97.6-218.01 218-218.01s218 97.6 218 218.01c0 120.4-97.6 218-218 218s-218.01-97.6-218-218z"/><path d="m1338.51 322.71 13.12 3.78-4.81 5.37 23.97 3.61-11.79 5.03 33.03 1.08-10.37 8.07 23.46-.26-6.79 6.49 28.42-5.09-12.05 10.27 26.85-8.67 47.82-11.68 10.28-6.33s-33.92-4.27-41.93-12.36c-3.3-3.33-10.3-8.59-10.3-8.59l-.32 7.55-20.51-13.77 2.16 9.73-17.93-12.77 3.45 8.22-18.99-12.47-.96 8.88-18.39-10.34 3.68 7-22.74-7.41 3.01 6.62-43.78-6.67 31.03 20.58-8.6 4.13zM1468.07 351.81l-15.04 3.14 8.47 1.61-14.83 5.26 4.97 1.24-11.17 6.21 7.08 1.03-15.33 9.42 6.94-.8-10.37 8.18 3.73 1.24-5.19 5.33 5.19-.36-9.13 18.11 18.91-14.98.37 3.95 8.76-9.64.14 4.31 5.92-9.86 2.85 3.95 5.62-11.03.59 4.82 5.04-10.88 1.61 5.19 5.99-12.05 2.19 3.49s1.89-4.38 2.55-6.85c1.61-5.99 16.5-17.17 16.5-17.17l-6.57-.22-25.78 7.38zM1581.01 409.13l-4.11-6.2 3.89-.53-8.68-9.96 6.67 2.07-13.33-12.1 7.15.31-9.83-8.17 5.11-.3-13.6-7.91 8.62-.01-14.2-5.87-23.97-12.02-6.49-1s12.57 13.73 13.04 19.92c.2 2.55 1.24 7.2 1.24 7.2l2.8-3.03 3.65 12.95 2.54-4.8 2.94 11.63 1.46-4.63 3.49 11.88 3.52-3.35 3.99 10.78.94-4.21 6.82 11.09 1.09-3.81 15.82 18.22-5.62-19.49 5.03 1.32zM1634.58 312.91l3.46-6.21-17.97 8.81-1.19-8.03-18.51 10.72 3.2-7.31-17.44 11.02 1.87-8.71-19.97 11.85-.53-6.82s-6.8 4.55-9.99 7.46c-7.72 7.07-41.26 9.99-41.26 9.99l10.38 5.99 47.77 11.85 26.87 8.56-12.23-9.59 28.34 5.38-6.92-6.05 23.29.88-10.51-7.56 32.74-.06-11.84-4.86 23.69-2.6-4.92-4.97 12.91-3.05-8.65-3.96 30.22-17.69-43.25 4.81 2.8-5.89-22.36 6.05zM1408.23 241.72l-11.94-4.66 22.85 23.87-13.06-1.48 16.95 16.22-9.4-.11 23.88 16.24-15.79-1.09 25.25 12.58 42.35 25.1 11.77 2.67s-21.25-26.77-21.32-38.16c-.02-4.69-1.35-13.35-1.35-13.35l-5.51 5.17-5.03-24.19-5.26 8.46-3.89-21.67-3.28 8.29-4.85-22.2-6.89 5.68-5.92-20.26-2.27 7.58-11.08-21.2-2.49 6.83-26.62-35.39 7.78 36.41-9.04-3.06 6.73 11.88-7.19.47 14.6 19.35zM1540.56 279.45c.84 14.56-24.17 50.55-24.17 50.55l14.85-4.38 52.13-35.55 31.29-18.15-20.11 2.68 29.23-22.71-12.01.9 20.37-22.13-16.58 2.96 27.29-32.39-14.91 6.92 17.12-25.95-9.24-.02 7.64-15.74-11.31 4.65 6.99-47.21-31.18 47.44-3.73-8.54-12.44 28.02-3.51-9.52-5.92 26.4-9.28-6.7-4.4 28.8-4.87-10.33-3.2 28.04-7.43-10.39-4.46 31.35-7.47-6.17s-.99 11.19-.64 17.19z"/><path d="m1487.22 265.83-11.6-6.09 17.69 34.27-12.17-3.31 25.43 38.69 22.11-44.22-6.63 1.1 13.27-25.42-10.51 2.76 13.82-22.11-4.98 1.66 8.3-20.45-6.63-2.77 11.05-20.45-11.05-.55 7.18-21.01-9.95 2.77 4.42-24.88-8.84.56 2.21-18.25-5.53-1.65 2.21-16.58-9.95 2.76.56-22.67-7.19 2.21-8.29-39.79-4.43 42.01-3.86-8.85-2.77 24.33-2.76-3.88-1.66 30.41-5.53-9.95.55 33.71-6.07-5.52 3.31 37.58-5.52-7.73 5.52 34.82-6.63-3.31zM1512.43 345.78l-7.12.3s-6.65 57.2-.57 96.15l14.59 3.23c-9.73-67.61-6.9-99.68-6.9-99.68z"/></g></svg>