<svg xmlns="http://www.w3.org/2000/svg" xml:space="preserve" viewBox="0 0 381.34 511.76" shape-rendering="geometricPrecision" text-rendering="geometricPrecision" image-rendering="optimizeQuality" fill-rule="evenodd" clip-rule="evenodd"><g fill="currentColor"><path d="M182.87 132.25c16.6-8.7 23.01-29.22 14.3-45.82-8.7-16.6-29.22-23-45.82-14.3s-23 29.22-14.3 45.82 29.21 23 45.81 14.3z"/><path d="M115.08 172.27c6.97 2.69 13.44 3.76 18.43 4.17 8.56 32.52 22.85 63.47 42.26 91.44 1.62 5.27 5.52 9.78 11.03 11.98l.01.01c1.99.81 60.64 25.21 136.43 96.87 3.65 3.44 8.3 5.15 12.95 5.15 5.01 0 10-1.98 13.71-5.9 7.15-7.57 6.82-19.5-.75-26.66-41.82-39.53-78.97-65.68-105.65-81.94.26-.22.53-.43.77-.67.5-.45 4.67-4.1 11.43-7.5 7.05-3.56 16.72-6.85 28.51-6.85 8.26.01 17.67 1.56 28.55 6.16 10.87 4.6 23.24 12.32 36.91 24.93 3.63 3.35 8.21 5 12.78 5 5.08 0 10.15-2.04 13.86-6.07 7.07-7.65 6.59-19.59-1.06-26.65-16.36-15.1-32.4-25.43-47.79-31.94-15.38-6.52-30.08-9.16-43.25-9.14-20.19 0-36.49 6.04-47.67 12.02-1.3.7-2.53 1.4-3.7 2.09-12.34-18.07-21.9-37.75-28.34-58.4 9.6-.09 23.26-2.24 37.62-10.65 14.75-8.6 29.86-23.69 42.08-48.21 2.98-5.96.57-13.21-5.39-16.19-5.96-2.98-13.21-.57-16.19 5.4-10.57 21.06-22.3 32.06-32.69 38.17-10.4 6.07-19.83 7.34-26.2 7.35-2.59 0-4.65-.22-5.96-.42-.66-.1-1.12-.19-1.38-.25-.09-.02-.15-.03-.19-.04-.01 0-.02 0-.02-.01-2.26-.59-4.54-.49-6.63.16-.46 0-.92.02-1.38.08-15.24 2.23-30.49 4.45-45.73 6.68-.5-.02-1-.01-1.51.03-.14.01-.81.06-1.88.06-4.13.06-13.77-.88-21-5.68-3.67-2.4-6.9-5.58-9.48-10.55-2.56-4.98-4.49-11.99-4.5-22.21-.01-11.1 2.37-25.93 8.71-45.1 2.09-6.33-1.35-13.15-7.68-15.24s-13.15 1.34-15.24 7.67c-6.91 20.95-9.92 38.17-9.92 52.67-.01 13.29 2.59 24.35 7.17 33.25 6.86 13.44 18.02 21.14 27.95 24.93zM45.26 282.45h45.25l.01 39.23h45.25v39.22h45.26l.01 39.22h45.25v39.23h45.26v39.22h45.26v33.2h12.07v-45.26h-45.26v-39.23h-45.26v-39.22H193.1v-39.23h-45.26l.01-39.22h-45.27v-39.23H57.32l.01-39.22H12.07v-33.19H0v45.26h45.26zM255.91 4.57 233.54 0l-6.89 56.69 14.74 3.52zM229.92 81.78c5.12 1.77 10.37.02 11.74-3.91 1.36-3.94-1.68-8.57-6.79-10.34-5.12-1.78-10.37-.02-11.74 3.91-1.36 3.94 1.68 8.57 6.79 10.34z"/></g></svg>