<svg xmlns="http://www.w3.org/2000/svg" xml:space="preserve" viewBox="0 0 8535.57 3610.4" shape-rendering="geometricPrecision" text-rendering="geometricPrecision" image-rendering="optimizeQuality" fill-rule="evenodd" clip-rule="evenodd"><g fill="currentColor"><path d="M3908.19 1657.87 3284.91 544.94l-885.28 495.79 389.29 695.1h980.04zM1036.58 1159l-850.64 950.53 756.12 676.64 850.62-950.53zM7283.77 2392.68c-292.33 0-529.22 236.92-529.22 529.21.01 292.26 236.89 529.19 529.22 529.19 292.29 0 529.19-236.93 529.19-529.19 0-292.29-236.91-529.22-529.19-529.21zm0 745.71c-119.56 0-216.5-96.96-216.5-216.5 0-119.56 96.93-216.48 216.5-216.48 119.56 0 216.48 96.93 216.48 216.48 0 119.54-96.93 216.5-216.48 216.5zM4041.25 2921.89c0-292.29-236.89-529.22-529.19-529.22-292.27.01-529.18 236.93-529.18 529.22 0 292.26 236.91 529.19 529.18 529.19 292.3 0 529.19-236.93 529.19-529.19zm-745.69 0c0-119.56 96.94-216.48 216.5-216.48 119.6 0 216.5 96.93 216.5 216.48 0 119.54-96.91 216.5-216.5 216.5-119.54 0-216.5-96.96-216.5-216.5z"/><path d="M4653.93 562.72 4483.28 1824.8H2391.89v1111.04h413.28c-.07-4.66-.35-9.27-.35-13.95 0-390.58 316.64-707.21 707.23-707.21 390.61 0 707.21 316.63 707.21 707.21 0 4.69-.27 9.29-.36 13.95H6576.93c-.09-4.66-.36-9.27-.36-13.95 0-390.58 316.63-707.21 707.2-707.21 390.58 0 707.18 316.63 707.18 707.21 0 4.69-.26 9.29-.35 13.95h380.47v-149.83h164.48v-296.05h-164.48v-712.69l-1392.46-194.9h-146.6c-159.39-342.53-372.08-736.99-551.5-854-336.23-219.3-1626.61-165.65-1626.6-165.65zm1051.29 245.69c-83.59 36.44-146.51 114.51-158.64 211.57-18.3 146.35 85.51 279.85 231.87 298.16 146.38 18.3 279.85-85.51 298.16-231.87 11.42-91.29-24.69-177.56-88.98-234.01 85.9 19.22 142.82 40.01 173.08 59.76 104.99 68.47 269.74 342.93 428.92 670.34l-258.87.01 39.54-60.59-77.76-50.76-45.33 69.44c-17.46-6.32-36.79-8.15-56.32-4.12-311.9 64.85-550.2-186.55-553.75-190.35-12.53-13.64-27.92-23.09-44.38-28.41-1.89-.84-3.63-1.9-5.57-2.65-97.42-37.66-250.02-1.27-330.89 163.79-17.49 36.24-32.94 70.45-46.87 103.65l-336.2.01V776.9c36.34-.45 76.25-.71 118.94-.71 296.11.01 531.76 12.81 713.05 32.23zM3326.26 450.81c-39.73-13.84-77.49 5.08-79.09 5.88-6.36 3.26-8.87 11.03-5.64 17.41 3.23 6.37 11 8.94 17.42 5.71.29-.13 29.82-14.7 59-4.41 18.69 6.58 33.76 22.11 44.78 46.22 2.18 4.77 6.88 7.59 11.8 7.59 1.82 0 3.65-.39 5.39-1.18 6.52-2.97 9.39-10.67 6.4-17.19-14.12-30.88-34.32-51.08-60.07-60.02z"/><path d="M3430.01 496.05c1.64 0 3.32-.32 4.92-.98 6.63-2.73 9.79-10.31 7.07-16.95-19.33-46.99-48.14-78.41-85.61-93.41-57.07-22.84-112.69 1.41-115.03 2.47-6.55 2.91-9.49 10.57-6.58 17.13 2.93 6.53 10.6 9.5 17.15 6.56.46-.2 47.84-20.85 94.81-2.06 30.72 12.29 54.7 38.92 71.26 79.19 2.08 5.02 6.91 8.05 12.01 8.05zM5876.76 281.48c.4-19.27 4.9-44.98 13.51-77.17 8.21-30.95 16.46-64.83 24.76-101.62 8.29-36.79 12.45-58.06 12.45-63.8 0-7.17-3.74-13.77-11.22-19.83-7.48-6.03-15.33-9.07-23.52-9.07-7.59.01-16.82 3.89-27.68 11.68-10.86 7.8-17.36 19.12-19.53 33.98-2.13 14.87-3.22 23.42-3.22 25.67 0 22.76-5.03 56.99-15.07 102.7-9.03 42.23-11.9 83.31-8.61 123.29 11.28 8.42 27.16 12.6 47.66 12.6 6.55-11.06 10.02-23.87 10.46-38.43zM5802.66 391.25c-9.23 12.3-13.84 23.18-13.84 32.59 0 25.02 11.28 37.51 33.82 37.51 7.59.01 17.12-3.63 28.6-10.92 11.48-7.25 18.13-17.67 19.99-31.21l3.07-19.05c0-4.72-5.24-10.46-15.68-17.23-10.46-6.75-19.18-10.14-26.15-10.14-10.64 0-20.59 6.16-29.81 18.45zM6051.23 51.66c-11.98 14.05-17.98 26.49-17.98 37.35 0 18.04 9.42 27.06 28.28 27.06 28.92 0 44.68-9.11 47.35-27.36 1.04-5.32 5.48-10.76 13.38-16.3 7.89-5.54 22.9-8.31 45.04-8.31 7.59 0 15.17 1.24 22.76 3.69 7.59 2.47 12.71 5.18 15.37 8.15 2.67 2.99 5.58 10.41 8.75 22.3 3.19 11.88 4.77 21.32 4.77 28.3 0 9.84-2.47 19.77-7.38 29.81-4.92 10.05-10.97 16.6-18.14 19.69l-41.51 16.3c-26.23 10.25-44.02 17.83-53.35 22.74-9.32 4.92-19.63 12.1-30.89 21.53-12.5 25.41-20.25 42.27-23.22 50.58-2.97 8.29-4.46 17.26-4.46 26.9 0 9.03 1.64 17.68 4.92 25.99 3.29 8.29 7.79 12.45 13.53 12.45 17.62 0 30.13-2.57 37.51-7.69 7.38-5.12 12.09-13.01 14.15-23.67 4.1-20.09 8.91-37.31 14.45-51.66 51.44-17.83 85.36-30.59 101.77-38.28 16.4-7.69 30.75-21.21 43.03-40.6 12.3-19.37 18.45-44.32 18.45-74.86v-.3c-.4-27.68-3.69-47.97-9.84-60.87-6.14-12.92-20.39-26.85-42.73-41.82-13.53-9.42-31.77-13.63-54.73-12.6-11.9.4-23.78.72-35.66.92-17.02.42-33.21 5.34-48.59 14.75l.32.01c-18.24 9.84-33.37 21.78-45.36 35.81zM6025.88 410.01c-16.41 11.28-24.6 21.62-24.6 31.05 0 11.48 4.4 21.01 13.21 28.6s19.69 11.38 32.59 11.38c12.3 0 25.57-4.57 39.82-13.69 14.25-9.11 21.37-20.03 21.37-32.75 0-16.18-9.33-24.89-27.98-26.13-10.04-6.97-18.34-10.46-24.91-10.46-9.43 0-16.82 2.16-22.14 6.46-1.85 1.64-4.31 3.49-7.37 5.54zM3990.18 1695.61c1.31.4 2.62.61 3.92.61 5.51 0 10.61-3.53 12.36-9.07 10.27-32.35 8.84-60.89-4.24-84.79-20.2-36.93-60.87-48.26-62.59-48.72-6.84-1.85-14.05 2.22-15.91 9.16-1.86 6.92 2.25 14.05 9.16 15.91.33.07 31.63 8.77 46.57 36.1 9.56 17.45 10.31 39.14 2.28 64.51-2.16 6.84 1.63 14.12 8.45 16.3z"/><path d="M4053.09 1708.1c1.46.52 2.93.75 4.4.75 5.32.01 10.3-3.29 12.2-8.58 17.21-47.81 16.93-90.45-.79-126.71-26.97-55.19-84.48-74.56-86.92-75.37-6.85-2.26-14.15 1.5-16.37 8.29-2.24 6.82 1.49 14.13 8.28 16.37.5.16 49.48 16.64 71.7 62.11 14.51 29.71 14.41 65.56-.32 106.52-2.42 6.75 1.07 14.18 7.82 16.61zM2296.39 1688.73c6.36-3.3 8.84-11.13 5.55-17.49-3.32-6.35-11.12-8.81-17.51-5.54-30.14 15.65-49.31 36.83-56.97 62.99-11.83 40.4 8.94 77.14 9.82 78.69 2.41 4.17 6.76 6.5 11.26 6.5 2.21 0 4.43-.56 6.46-1.73 6.22-3.58 8.35-11.51 4.77-17.72-.17-.27-16.15-28.57-7.41-58.47 5.6-19.07 20.41-34.97 44.02-47.23z"/><path d="M2260.06 1635.21c6.48-3.06 9.26-10.79 6.2-17.26-3.06-6.5-10.79-9.29-17.26-6.22-45.96 21.66-75.92 51.99-89.03 90.15-19.96 58.13 7.01 112.48 8.18 114.77 2.28 4.53 6.84 7.11 11.58 7.11 1.98.01 3.98-.43 5.86-1.4 6.39-3.23 8.94-11.05 5.71-17.44-.23-.45-23.22-46.76-6.78-94.61 10.74-31.3 36.16-56.56 75.54-75.11zM968.43 1097.26c-4.86 5.28-4.51 13.48.75 18.33 5.28 4.86 13.48 4.5 18.33-.74.23-.25 22.44-23.98 53.58-24.57 19.66-.22 39.47 9 58.24 27.86 2.54 2.55 5.87 3.82 9.2 3.82 3.32.01 6.62-1.25 9.16-3.78 5.08-5.05 5.11-13.25.04-18.34-23.94-24.07-49.67-36-77.14-35.49-42.08.79-70.94 31.61-72.15 32.91z"/><path d="M1139.53 1067.45c2.55 2.78 6.04 4.18 9.55 4.18 3.14 0 6.29-1.14 8.78-3.43 5.26-4.85 5.61-13.07.75-18.34-34.41-37.35-72.33-56.86-112.68-57.95-61.42-1.24-105.21 40.35-107.05 42.15-5.12 4.99-5.22 13.18-.23 18.3 4.98 5.13 13.18 5.26 18.33.3.37-.36 38.51-36.11 88.52-34.81 32.98.97 64.61 17.65 94.03 49.6zM1092.56 2820.06c-.07.32-7.99 31.84-34.93 47.46-17.19 9.98-38.88 11.31-64.44 3.88-6.89-1.96-14.09 1.96-16.07 8.85-1.99 6.88 1.98 14.08 8.84 16.08 13.33 3.85 25.94 5.78 37.83 5.78 17.23 0 32.91-4.07 46.86-12.16 36.41-21.1 46.71-62.06 47.13-63.8 1.69-6.95-2.58-13.97-9.55-15.65-6.94-1.67-13.97 2.58-15.68 9.55z"/><path d="M1165.61 2850.98c-6.86-2.06-14.09 1.8-16.17 8.64-.16.5-15.79 50.25-60.54 73.39-29.3 15.11-65.06 15.86-106.26 2.22-6.85-2.24-14.15 1.43-16.4 8.23-2.26 6.81 1.43 14.15 8.22 16.4 22.28 7.4 43.34 11.08 63.1 11.08 23.03 0 44.27-5.02 63.54-15.04 54.51-28.34 72.44-86.33 73.19-88.79 2.05-6.84-1.83-14.05-8.68-16.12zM109.58 2192.44c2.41 1.98 5.32 2.96 8.22 2.96 3.72 0 7.43-1.6 9.99-4.72 4.57-5.49 3.79-13.67-1.69-18.24-.26-.2-25.37-21.53-27.56-52.37-1.41-19.77 6.85-39.78 24.57-59.48 4.79-5.34 4.36-13.54-.97-18.33-5.34-4.77-13.54-4.37-18.33.97-22.7 25.25-33.18 51.83-31.14 79 3.14 41.98 35.52 69.07 36.89 70.21z"/><path d="M70 2004.93c-5.15-5-13.35-4.87-18.34.27-35.41 36.44-52.77 75.38-51.6 115.73 1.79 61.41 46.18 102.78 48.07 104.53 2.48 2.28 5.61 3.4 8.74 3.4 3.5.01 6.99-1.41 9.55-4.2 4.86-5.25 4.51-13.46-.74-18.32-.37-.35-38.35-36.08-39.67-86.44-.88-32.97 14.02-65.49 44.26-96.64 5-5.13 4.87-13.37-.26-18.34zM2042.93 3600.14c128.54-38.52 201.54-173.93 163.04-302.47-.78-2.62-1.85-5.08-2.71-7.66l317.75-38.29-2.47-36.33-263.53 18.08-215.19 14.77 7.01 60.63 112.99-13.63c20.03 100.97-39.57 202.47-140.15 232.59-102.71 30.75-210.49-24.26-247.15-123.46 2.42-.65 4.85-1.07 7.27-1.79 49.9-14.93 91.56-44.14 122.02-81.8-19.89 15.59-42.82 27.92-68.47 35.61-110.08 32.97-226-29.52-259-139.59-32.94-110.07 29.58-226.02 139.62-258.99 52.22-15.62 105.65-9.58 151.02 12.65-21.72-17.54-46.32-31.14-72.57-40.58 23.48-50.55 67.46-91.29 125.05-108.54 106.84-32 219.41 28.68 251.41 135.52 11.12 37.12 10.83 74.88 1.53 109.76l-113.24-22.67-11.7 59.92 207.23 30.53 267.51 39.43 5.29-36.08-295.1-59.11c16.87-48.79 19.38-103.04 3.45-156.27-40.42-134.94-182.61-211.61-317.58-171.19-83.82 25.09-145.08 89.47-169.84 166.97-35.52-5.52-72.76-3.69-109.5 7.31-131.76 39.47-206.59 178.24-167.13 309.98 34.93 116.69 147.72 188.52 264.57 176.12 1.59 8.51 3.58 17.02 6.11 25.5 38.51 128.56 173.88 201.53 302.45 163.07zM4187.82 472.33h793.35v-46.5h-793.35zM3696.67 600.22h793.37v-46.51h-793.37zM4442.82 677.74h-519.47v46.49h519.47z"/></g></svg>