<svg xmlns="http://www.w3.org/2000/svg" xml:space="preserve" viewBox="0 0 397.79 421.98" shape-rendering="geometricPrecision" text-rendering="geometricPrecision" image-rendering="optimizeQuality" fill-rule="evenodd" clip-rule="evenodd"><g fill="currentColor"><path d="M131.02 325.27v-86.95h8.15v53.54h23.03V258.45h20.45V139.21c4.34 3.66 9.1 7.16 14.41 10.02 6.33 3.38 13.59 6 21.82 6.03.17 0 .34.01.51.01 9.59 0 19.8-4.61 27.04-12.81 7.5-8.32 12.91-19.63 17.23-34.95 2.09-7.49-2.29-15.24-9.77-17.33-.67-.19-1.35-.31-2.02-.39v-5.4h5.27c9.67 0 14.8-7.41 11.41-16.46l-14.02-37.41c-3.4-9.05-8.95-9.05-12.35 0l-14.02 37.4c-3.4 9.05 1.74 16.46 11.41 16.46h5.27v6.32c-3.9 1.58-7.05 4.88-8.27 9.25-3.53 12.74-7.76 20.16-10.93 23.57-3.31 3.37-4.56 3.45-6.75 3.62-1.88.03-4.89-.72-8.51-2.69-5.43-2.88-11.77-8.24-17.12-13.75-5.41-5.52-9.86-11.02-12.71-14.48-1.92-2.34-4.45-3.88-7.17-4.62-1.36-.45-2.8-.71-4.31-.71h-67.93c-2.1 0-4.09.49-5.86 1.34-3.09 1.31-5.74 3.72-7.26 7.01 0 0-.05.1-.2.42-1.12 2.36-7.02 14.33-14.49 24.96-3.69 5.31-7.83 10.25-11.35 13.29-1.74 1.53-3.31 2.57-4.34 3.06-.44.22-.78.34-1 .41-.49-.39-1.62-1.49-3.05-3.97-1.88-3.21-4.1-8.57-6.13-16.23-.15-.55-.33-1.08-.54-1.6l-24.76 15.23c2.94 9.26 6.39 16.59 11.02 22.54 2.83 3.59 6.22 6.69 10.23 8.89 3.95 2.18 8.51 3.34 12.83 3.34h.14c5.48-.01 10.33-1.61 14.43-3.74 6.74-3.56 11.99-8.5 16.75-13.83v173.26h43.48z"/><path d="M95.53 39.56c0 21.85 17.71 39.56 39.56 39.56s39.56-17.71 39.56-39.56S156.94 0 135.09 0 95.53 17.71 95.53 39.56zM98.9 395.6H46.15v26.38H98.9zM128.79 388.57v-26.38H76.04v26.38zM158.68 395.6h-52.75v26.38h52.75zM165.71 395.6v26.38h52.75V395.6zM278.24 395.6h-52.75v26.38h52.75zM285.27 421.98h52.75V395.6h-52.75zM345.05 421.98h52.75V395.6h-52.75zM98.9 328.79H46.15v26.37H98.9zM105.93 328.79v26.37h52.75v-26.37zM165.71 328.79v26.37h52.75v-26.37zM225.49 355.16h52.75v-26.37h-52.75zM285.27 355.16h52.75v-26.37h-52.75zM345.05 355.16h52.75v-26.37h-52.75zM165.71 288.35h52.75v-26.37h-52.75zM225.49 288.35h52.75v-26.37h-52.75zM285.27 288.35h52.75v-26.37h-52.75zM345.05 288.35h52.75v-26.37h-52.75zM188.57 388.57v-26.38h-52.75v26.38zM248.35 362.19H195.6v26.38h52.75zM308.13 362.19h-52.75v26.38h52.75zM367.91 362.19h-52.75v26.38h52.75zM397.8 362.19h-22.86v26.38h22.86zM188.57 321.76v-26.38h-52.75v26.38zM248.35 295.38H195.6v26.38h52.75zM308.13 295.38h-52.75v26.38h52.75zM367.91 295.38h-52.75v26.38h52.75zM397.8 295.38h-22.86v26.38h22.86zM248.35 228.57H195.6v26.37h52.75zM308.13 228.57h-52.75v26.37h52.75zM367.91 228.57h-52.75v26.37h52.75zM397.8 228.57h-22.86v26.37h22.86zM69.01 362.19H46.15v26.38h22.86zM58.75 108.18 44.92 85.72 0 113.36l13.82 22.46z"/></g></svg>