<svg xmlns="http://www.w3.org/2000/svg" xml:space="preserve" viewBox="0 0 701.83 752.36" shape-rendering="geometricPrecision" text-rendering="geometricPrecision" image-rendering="optimizeQuality" fill-rule="evenodd" clip-rule="evenodd"><g fill="currentColor"><path d="M111.24 338.25c-24.52 0-45.62-14.87-54.79-36.06-.85.37-1.71.76-2.59 1.2-8.65 4.32-18.01 12.1-26.01 24.25C11.84 352.1.1 392.79 0 466.3c0 14.26.46 29.77 1.44 46.66.6 10.36 9.19 18.35 19.43 18.35.39 0 .77-.01 1.15-.03 10.75-.63 18.94-9.85 18.32-20.59-.95-16.21-1.38-30.96-1.38-44.39-.02-48.73 5.75-79.95 12.62-98.98 1.44-3.96 2.89-7.35 4.33-10.31v365.23c0 16.64 13.48 30.11 30.12 30.11 16.63 0 30.11-13.48 30.11-30.11V502.37h11.29v219.87c0 16.64 13.48 30.11 30.12 30.11 16.63 0 30.11-13.48 30.11-30.11V356.89c8.45 17.29 17.05 50.42 16.96 109.41 0 13.43-.43 28.18-1.39 44.38-.63 10.74 7.57 19.96 18.32 20.59.39.02.78.03 1.16.03 10.24 0 18.82-7.99 19.42-18.34.99-16.89 1.46-32.4 1.46-46.66-.03-55.19-6.75-91.74-16.75-117.02-9.89-25.18-24.01-39.39-37.11-45.89-8.13-4.11-15.3-5.1-19.72-5.19-.39-.03-.78-.06-1.18-.06h-1.25c-8.12 23.32-30.31 40.11-56.36 40.11z"/><path d="M111.24 333.38c30.26 0 54.8-24.53 54.8-54.8 0-30.26-24.54-54.8-54.8-54.8-30.26 0-54.8 24.54-54.8 54.8 0 30.27 24.54 54.8 54.8 54.8zM212.26 555.97h489.57v-9.74H212.26zM302.18 512.36c0 8.95 7.26 16.2 16.2 16.2 8.95 0 16.2-7.25 16.2-16.2V394.1h6.07v118.26c0 8.95 7.25 16.2 16.19 16.2 8.95 0 16.2-7.25 16.2-16.2V315.91c.77 1.59 1.56 3.42 2.33 5.55 3.69 10.24 6.8 27.03 6.78 53.24 0 7.22-.23 15.16-.73 23.87-.34 5.78 4.07 10.74 9.85 11.07.21.01.41.02.62.02 5.51 0 10.13-4.3 10.45-9.87.53-9.08.77-17.42.77-25.09-.05-39.54-6.37-61.43-14.98-74.58-4.3-6.53-9.34-10.72-13.99-13.04-4.48-2.26-8.41-2.77-10.78-2.8-.15-.01-.31-.02-.46-.02h-46.64l-71.58-57.01c-4.53-3.6-11.12-2.86-14.73 1.67-3.6 4.53-2.85 11.12 1.67 14.73l70.54 56.18v212.54z"/><path d="M337.61 276.79c16.28 0 29.48-13.2 29.48-29.48s-13.2-29.47-29.48-29.47-29.47 13.2-29.47 29.47c0 16.28 13.2 29.48 29.47 29.48zM417.11 399.79c.33 5.57 4.94 9.87 10.45 9.87.21 0 .42-.01.63-.02 5.78-.34 10.19-5.3 9.85-11.07-.51-8.72-.75-16.65-.74-23.87-.05-31.73 4.58-49.55 9.12-58.85v196.51c0 8.95 7.26 16.2 16.2 16.2s16.2-7.25 16.2-16.2V394.1h6.07v118.26c0 8.95 7.25 16.2 16.19 16.2 8.95 0 16.2-7.25 16.2-16.2V315.91c.78 1.59 1.56 3.42 2.33 5.55 3.69 10.23 6.8 27.03 6.78 53.24 0 7.22-.23 15.16-.74 23.87-.33 5.78 4.08 10.74 9.86 11.07.21.01.41.02.62.02 5.51 0 10.13-4.3 10.45-9.87.53-9.08.77-17.42.77-25.09-.05-39.54-6.37-61.42-14.98-74.58-4.3-6.53-9.34-10.72-13.99-13.04-4.45-2.25-8.36-2.76-10.73-2.79-.17-.01-.34-.03-.5-.03h-50.61c-.17 0-.34.02-.51.03-2.36.03-6.28.55-10.73 2.79-7.05 3.49-14.64 11.14-19.96 24.68-5.38 13.6-8.99 33.26-9.01 62.94 0 7.68.25 16.01.78 25.1zM452.38 247.31c0 16.28 13.2 29.48 29.47 29.48 16.28 0 29.48-13.2 29.48-29.48s-13.2-29.47-29.48-29.47c-16.27 0-29.47 13.2-29.47 29.47zM568.23 311.76c-5.38 13.6-8.99 33.26-9.01 62.94 0 7.68.25 16.01.78 25.1.33 5.57 4.94 9.87 10.45 9.87.21 0 .42-.01.62-.02 5.78-.34 10.19-5.3 9.85-11.07-.51-8.72-.75-16.65-.74-23.87-.05-31.73 4.58-49.55 9.12-58.85v196.51c0 8.95 7.25 16.2 16.2 16.2 8.94 0 16.2-7.25 16.2-16.2V394.11h6.07v118.26c0 8.95 7.25 16.2 16.2 16.2s16.2-7.25 16.2-16.2V315.92c.78 1.59 1.56 3.42 2.33 5.55 3.69 10.23 6.8 27.03 6.79 53.24 0 7.22-.23 15.16-.74 23.87-.33 5.78 4.08 10.74 9.86 11.07.21.01.41.02.62.02 5.51 0 10.13-4.3 10.46-9.87.53-9.08.77-17.42.77-25.09-.05-39.54-6.37-61.42-14.98-74.58-4.3-6.53-9.34-10.72-13.99-13.04-4.45-2.25-8.36-2.76-10.73-2.79-.17-.01-.34-.03-.51-.03h-50.61c-.17 0-.34.02-.51.03-2.37.03-6.28.55-10.73 2.79-7.05 3.49-14.64 11.14-19.96 24.68zM624.74 276.79c16.28 0 29.47-13.2 29.47-29.48s-13.2-29.47-29.48-29.47-29.47 13.2-29.47 29.47c0 16.28 13.2 29.48 29.48 29.48zM536.42 205.28c2.46-.37.05-2.4-1.44-2.18-20.13 3.01-17.36-32.54 1.9-24.35.62.26 2.76.58 2.56-.67-1.74-11.17 4.5-20.21 16.5-17.6 4.17.9 8.14 3.34 10.25 7.11 2.63 4.72-.48 9.77-3.8 13.12-1.07 1.09 2.14 1.99 2.84 1.72 7.57-2.92 14.94-1.39 15.66 7.66.54 6.76-4.62 12.13-11.37 9.99-1.75-.56-2.87.94-.97 1.83 5.9 2.76 7.34 8.4 3.45 13.54-5.16 6.8-13.68 4.79-18.97-.54-.45-.46-1.56-.66-2.37-.55a30.13 30.13 0 0 0 3.08-3.5c.47-.62-2.05-3.16-2.01-3.21-4.74 6.38-12.08 10.64-19.77 12.72 4.58-4.81 9.43-10.83 9.34-16.6-.01-1.04-2.05-2.68-2.05-3.03.11 7.6-8.7 15.83-13.69 20.88-.31.31 1.53 3.27 2.01 3.21 7.93-.91 16.13-4.13 22.19-9.61.06.14.16.29.33.46 6.04 6.08 16.12 9.33 23.37 3.12 6.05-5.18 5.36-11.7.49-16.01 6.54-.21 11.18-5.44 10.57-13.05-.71-8.95-8.74-11.65-16.23-10.69 5.72-8.81-.83-17.47-11.18-20.41-5.11-1.45-11.03-1.2-15.65 1.56-5.58 3.33-6.55 9.96-5.91 15.9-9.02-2.52-17.44 1.51-18.34 12.09-.96 11.31 8.49 18.67 19.21 17.07z"/><path d="M542.45 196.65c5.69-3.65 13.63-1.48 16.01 5.17.51 1.43 2.39 2.84 1.51.39-2.79-7.82-11.17-14.09-19.17-8.98-.83.53.99 3.84 1.66 3.42zM384.22 245.98zM372.9 165.33a2.615 2.615 0 0 0-2.05-2.26c-1.1-.23-2.22.27-2.78 1.25l-13.18 22.84-11.62-16.02a2.6 2.6 0 0 0-2.79-.98c-1.05.29-1.8 1.19-1.9 2.27l-1.55 16.78-19-12.22a2.6 2.6 0 0 0-3.82 3.15l8.89 22.44a2.608 2.608 0 0 0 3.38 1.46 2.608 2.608 0 0 0 1.46-3.38l-5.91-14.92 15.8 10.16a2.604 2.604 0 0 0 4-1.95l1.31-14.16 9.91 13.67c.51.71 1.36 1.12 2.24 1.07.87-.05 1.68-.53 2.12-1.3l11.2-19.43 2.35 21.54c.09.84.59 1.6 1.34 2 .75.41 1.64.42 2.41.04l17.67-8.84-8.63 19.87c-.35.81-.27 1.74.23 2.48.49.74 1.32 1.17 2.2 1.15l18.52-.32-18.74 15.03c-.62.5-.98 1.27-.97 2.07.01.8.39 1.55 1.02 2.03l10.92 8.28-13.34 1.67a2.605 2.605 0 0 0-2.26 2.9 2.605 2.605 0 0 0 2.9 2.26l19.68-2.47c.06 0 .13-.02.19-.03.96-.19 1.74-.91 2-1.88.27-1.02-.1-2.11-.94-2.74l-13.35-10.13L413.89 211c.87-.7 1.2-1.86.82-2.91a2.613 2.613 0 0 0-2.49-1.72l-22.09.39 9.87-22.73c.43-1 .2-2.17-.59-2.92-.8-.75-1.98-.92-2.96-.44l-20.72 10.37-2.81-25.73zM494.88 6.43 485.23 0l-34.84 185.34 4.63 2.66zM216.36 256.95 75.78 98.1l-11.31 3.54 146.86 157.3zM656.07 196.15c7.33 1.75 15.54 2.18 20.74-4.19 2.19-2.68 3.45-6.45 3.55-9.91.04-1.21-2.84-4.31-2.89-2.61-.08 2.72-1.03 5.38-2.35 7.73-4.11 7.3-13.3 7.01-20.38 5.32-1.74-.42.15 3.38 1.33 3.66zM696.22 211.92c2.34.95.94-2.92-.4-3.46-6.21-2.52-12.05-6.4-9.68-13.8.82-2.57 2.41-5.18 4.29-7.12 1.16-1.21-1.47-4.66-2.46-3.63-2.8 2.9-4.87 6.69-5.45 10.7-1.26 8.63 6.7 14.48 13.71 17.32zM693.1 216.45c-3.27-1.48-6.98-1.88-10.51-1.5-7.61.81-11.78 7.73-13.83 14.37-.59 1.92.89 4.34 1.77 1.5 3.09-10.01 12.23-14.39 21.8-10.06 1.14.52 2.22-3.66.78-4.31zM650.36 204.66c5.45 2.09 12.37 5.71 10.74 12.62-.56 2.34-1.96 4.64-3.63 6.38-1.47 1.54 1.56 4.62 3.23 2.88 2.52-2.62 4.12-6.22 4.44-9.82.75-8.47-7.98-13.4-14.67-15.97-2.55-.98-2.11 3.15-.1 3.91z"/></g></svg>