<svg xmlns="http://www.w3.org/2000/svg" xml:space="preserve" viewBox="0 0 1155.61 1195.7" shape-rendering="geometricPrecision" text-rendering="geometricPrecision" image-rendering="optimizeQuality" fill-rule="evenodd" clip-rule="evenodd"><g fill="currentColor" fill-rule="nonzero"><path d="M305.37 771.01c-1.55 0-3.07-.11-4.57-.28-.31 3.95-1.2 7.87-2.69 11.66-6.1 15.52-20.82 25.54-37.49 25.54-5.04 0-10-.93-14.73-2.79l-57.31-22.54v44.01c0 3.84.82 10.66 2.27 18.63l.82 11.92 9.65 140.16-35.14 139.48c-6.19 24.57 8.71 49.5 33.27 55.69 3.76.95 7.53 1.4 11.24 1.4 20.52 0 39.21-13.87 44.45-34.68l36.92-146.54c1.14-4.56 1.6-9.66 1.27-14.36l-9.97-144.89 8.96-.37 9.94 144.65c.39 5.6-.16 11.69-1.53 17.14l-5.47 21.72 30.9 122.64c5.24 20.81 23.92 34.68 44.43 34.68 3.71 0 7.48-.45 11.25-1.4 24.55-6.19 39.45-31.12 33.26-55.68l-35.13-139.48 10.47-152.14c1.45-7.95 2.26-14.75 2.26-18.58v-57.22L306.13 771c-.07.01-.41.01-.77.01z"/><path d="M130.17 723.41c-2.4 14.55 5.72 28.84 19.45 34.24l99.56 39.16c3.76 1.48 7.64 2.17 11.45 2.17 12.49 0 24.3-7.53 29.15-19.86 6.33-16.1-1.58-34.28-17.68-40.61l-75.49-29.7c3.58-17.78 9.06-42.43 15.69-64.57 1.91-6.47 3.96-12.7 6.04-18.43l8.82 1.9c-2.12 5.79-4.26 12.27-6.28 19.07-5.77 19.27-10.6 40.28-13.99 56.45l58.51 23.02c.96-8.8 4.74-16.99 10.98-23.47 7.47-7.74 17.5-12.12 28.24-12.33l71.59-1.33c-3.83-16.91-10.08-42.04-17.31-61.7-.66-1.91-1.36-3.73-2.05-5.46l8.54-2.73c.65 1.64 1.29 3.33 1.91 5.08 7.65 20.78 14.62 48.64 19.38 70.76.2.94.4 1.87.61 2.79l-82.49 1.54c-16.74.32-30.14 13.71-30.68 30.27l1.26.49c10.01 3.93 17.88 11.55 22.19 21.4 1.41 3.26 2.34 6.64 2.86 10.06 1.62.26 3.26.43 4.95.43h.6l119.69-2.24c9.06-.18 17.69-4.32 23.49-11.29 5.8-6.95 8.3-16.19 6.83-25.13-.11-.58-6.65-40.45-17.71-81.62-3.84-14.17-8.14-28.39-13.18-41.69-2.32-6.12-4.79-12.07-7.46-17.7-4.35-8.98-9.01-17.27-16-25.19-3.54-3.92-7.76-7.84-13.53-11.21-3.47-2.03-7.72-3.73-12.37-4.8-18.42 27.38-49.68 45.42-85.09 45.42-35.08 0-66.09-17.72-84.59-44.68-1.94.73-3.8 1.65-5.5 2.79-.84.42-1.73.82-2.5 1.27-10.74 6.45-16.44 14.15-21.53 21.85-8.42 13.29-14.36 28.37-19.86 44.63-.1.3-.22.59-.32.91-16.29 49.32-25.98 109.21-26.18 110.02z"/><path d="M290.64 577.68c51.68 0 93.57-41.9 93.57-93.58 0-51.67-41.89-93.57-93.57-93.57-51.67 0-93.56 41.9-93.56 93.57 0 51.68 41.89 93.58 93.56 93.58zM161.05 533.99a29.83 29.83 0 0 1 5.03-1.62c1.3-.29 1.91-.32 1.91-.33 2.46-.25 4.26-2.44 4.01-4.9a4.474 4.474 0 0 0-2.38-3.54c-.74-.38-1.61-.57-2.52-.48-.42.15-16.86 1.42-24.91 16.32-2.94 5.6-4.3 12.94-2.99 22.02.35 2.43 2.62 4.14 5.06 3.78a4.456 4.456 0 0 0 3.79-5.06c-1.07-7.61.09-12.81 2.07-16.62 2.61-5 6.97-7.9 10.93-9.58z"/><path d="M124.18 565.86a4.448 4.448 0 0 0 3.59-5.19c-2.35-13.03-.49-22.16 2.99-28.86 4.18-8.01 10.96-12.81 16.89-15.65 2.96-1.42 5.65-2.3 7.59-2.84 1.93-.53 2.94-.65 2.93-.68 2.46-.36 4.12-2.65 3.76-5.1a4.499 4.499 0 0 0-2.35-3.31 4.73 4.73 0 0 0-2.74-.45l-.01.02c-.44.16-23.03 3.31-34 23.87-4.51 8.59-6.53 20.03-3.86 34.6.45 2.43 2.79 4.04 5.21 3.59zM492.79 746.25c1.16-6.21.3-13.63-3.63-21.92a4.48 4.48 0 0 0-5.94-2.14 4.451 4.451 0 0 0-2.14 5.95c3.26 6.97 3.68 12.28 2.9 16.49-1.03 5.56-4.35 9.6-7.63 12.37a29.623 29.623 0 0 1-4.35 3.02c-1.15.66-1.73.87-1.73.89-2.27.95-3.35 3.58-2.39 5.85a4.48 4.48 0 0 0 3.32 2.69c.82.16 1.7.08 2.54-.27.35-.27 15.71-6.29 19.04-22.91z"/><path d="M502.24 715.7c-2.19 1.12-3.05 3.83-1.91 6.02 6.07 11.76 6.98 21.04 5.61 28.46-1.64 8.89-6.71 15.47-11.55 19.91a45.186 45.186 0 0 1-6.41 4.95c-1.69 1.06-2.62 1.47-2.61 1.5a4.491 4.491 0 0 0-2.09 5.99c.64 1.34 1.86 2.2 3.22 2.46.9.17 1.86.05 2.74-.37v-.01c.38-.29 21.05-9.94 25.51-32.81 1.78-9.53.36-21.07-6.48-34.21-1.14-2.18-3.85-3.05-6.04-1.9zM421.56 1013.79c-2.24-1.03-4.9-.07-5.94 2.17a4.452 4.452 0 0 0 2.15 5.94c6.96 3.26 10.67 7.08 12.78 10.81 2.77 4.93 2.8 10.16 2.04 14.39-.37 2.09-.95 3.88-1.39 5.1-.48 1.24-.78 1.78-.78 1.78-1.13 2.2-.28 4.9 1.91 6.04 1.39.72 2.98.65 4.27-.06.73-.41 1.36-1.03 1.78-1.84.11-.43 8.05-14.88-.02-29.79-3.08-5.52-8.48-10.67-16.8-14.54z"/><path d="M458.8 1018.56c-4.72-8.46-13.19-16.41-26.85-22.15-2.28-.95-4.92.12-5.86 2.4-.96 2.26.11 4.89 2.39 5.84 12.19 5.15 18.82 11.71 22.52 18.29 4.43 7.88 4.73 16.18 3.86 22.7-.44 3.25-1.16 5.99-1.78 7.91-.61 1.9-1.06 2.82-1.04 2.82-1.03 2.25-.03 4.9 2.22 5.94 1.34.61 2.84.51 4.05-.18.79-.44 1.47-1.15 1.88-2.03l-.01-.01c.11-.46 9.83-21.09-1.38-41.53zM343.41 375.96c7.65-.68 12.8.74 16.49 2.91 4.87 2.87 7.53 7.37 9.01 11.4.74 1.99 1.13 3.81 1.36 5.11.22 1.31.23 1.92.23 1.93.12 2.46 2.22 4.38 4.69 4.25 1.57-.08 2.92-.93 3.65-2.2.43-.72.66-1.57.61-2.48-.13-.43-.54-16.91-15.02-25.72-5.45-3.22-12.7-4.95-21.84-4.11-2.45.24-4.26 2.41-4.04 4.86a4.458 4.458 0 0 0 4.85 4.05z"/><path d="M343.96 355.68c13.14-1.68 22.16.64 28.67 4.46 7.79 4.59 12.23 11.61 14.76 17.67 1.26 3.03 2.01 5.78 2.46 7.73.43 1.96.5 2.98.53 2.97.24 2.47 2.44 4.25 4.9 4.01 1.47-.15 2.72-1 3.41-2.19.47-.78.69-1.73.6-2.7l-.01-.01c-.14-.45-2.14-23.17-22.11-35.18-8.35-4.93-19.67-7.54-34.36-5.62-2.45.33-4.18 2.59-3.85 5.03.3 2.45 2.56 4.17 5 3.85zM173.83 967.53c.96-.92 1.46-1.28 1.47-1.28 1.96-1.49 2.36-4.3.87-6.27a4.459 4.459 0 0 0-3.89-1.78 4.4 4.4 0 0 0-2.4.89c-.27.35-13.65 9.99-12.75 26.92.41 6.31 3.08 13.27 8.93 20.34 1.56 1.9 4.38 2.16 6.29.59a4.463 4.463 0 0 0 .6-6.29c-4.88-5.94-6.61-10.98-6.9-15.26-.38-5.63 1.83-10.38 4.33-13.86a30.09 30.09 0 0 1 3.45-4.02z"/><path d="M155.89 1011.65c-8.8-9.89-11.97-18.65-12.49-26.19-.62-9.01 2.68-16.65 6.26-22.16 1.79-2.75 3.62-4.9 4.99-6.38 1.37-1.45 2.17-2.08 2.15-2.11a4.444 4.444 0 0 0 .54-6.3 4.47 4.47 0 0 0-3.73-1.59c-.91.06-1.82.43-2.57 1.03v.01c-.3.37-17.92 14.85-16.58 38.1.64 9.68 4.88 20.49 14.75 31.54 1.65 1.83 4.49 1.99 6.32.34 1.84-1.62 2.01-4.47.36-6.3zM871.6 1079.66c1.31-1.09 3.32-.87 4.5-2.17 1.15-1.3 1.86-3.05 2.87-4.54 1-1.48 3.83-1.54 4.66-3.19.82-1.64 4.53-2.17 5.14-3.95.6-1.76 1.59-4.29 1.99-6.17.4-1.82-4.41-5.29-4.23-7.21.27-2.82.43-2.79.74-5.61.31-2.81-.32-2.9-.05-5.71.27-2.82-1.42-3.05-1.16-5.85.27-2.81-1.77-3.08-1.49-5.89.18-1.93 7.16-3.39 7.13-5.29-.04-1.94-.68-4.2-.95-6.07-.26-1.91-2.59-3.39-3.08-5.19-.48-1.83 1.78-5.39 1.09-7.09-.71-1.73-6.93.47-7.82-1.09-.9-1.59 2.33-7.13 1.26-8.54-1.07-1.4-3.23-1.89-4.44-3.09-1.22-1.21-1.69-4.42-3.03-5.41-1.34-.98-3.89-.02-5.35-.77-1.44-.72-3.1-1.54-4.65-2.01-1.5-.48-3.96 6.61-5.55 6.41-2.41-.32-1.29-12.16-3.7-12.49-2.41-.31-2.69 2.66-5.09 2.35-2.41-.32-2.39-.5-4.8-.82-2.39-.31-2.53 1.24-4.93.92-2.4-.31-2.57 1.39-4.98 1.08-2.4-.32-2.04-4.15-4.43-4.46-2.39-.32-3.28 8.97-5.67 8.66-2.41-.31-1.73-7.38-4.14-7.7-2.39-.32-2.12-3.14-4.51-3.46-2.4-.32-3.47 11-5.86 10.69-2.4-.32-1.39-10.95-3.8-11.27-2.38-.32-2.78 3.85-5.17 3.54-2.39-.32-2.75 3.5-5.14 3.19-2.4-.32-2.13-3.21-4.54-3.52-2.39-.32-2.76 3.6-5.15 3.29-1.6-.22-2.56.68-4.1.74-1.6.06-3.14-4.72-4.69-4.39-1.56.34-1.57 5.98-3.05 6.58-1.5.61-3.16-1.26-4.56-.4-1.42.85-2.92.57-4.22 1.65-1.31 1.09-2.65 1.54-3.81 2.84-1.16 1.3-5.65-1.08-6.65.42-1 1.47-1.28 4.08-2.09 5.73-.82 1.63-4.42 2.22-5.04 4-.61 1.75 6.69 6.86 6.29 8.75-.39 1.83-3.26 2.77-3.44 4.7-.27 2.82 1.86 3.1 1.59 5.92-.26 2.81-5.6 2.1-5.89 4.93-.26 2.81.27 2.87 0 5.69-.27 2.81 4.51 3.44 4.24 6.24-.19 1.94 2.2 3.25 2.23 5.14.04 1.94-8.94 4.88-8.67 6.74.27 1.91.17 4.65.66 6.46.48 1.83 1.12 4.44 1.81 6.15.7 1.73 1.74 4.15 2.62 5.72.88 1.55 9.05-3.95 10.29-2.77l-.14 2.27c-1.07 3.53-4.27 9.86-3.33 10.79.41.4 1.47-.31 2.74-1.36l-.64 10.23-3.29 52.98c-1.91 30.5 21.28 56.75 51.77 58.65 30.5 1.9 56.75-21.27 58.65-51.77l3.12-50.07.84-13.68c.39-.04.75-.14 1.07-.4zM1052.04 1075.09c.93-.92-2.24-7.2-3.31-10.75l-.14-2.32c1.27-1.16 9.41 4.33 10.29 2.77.88-1.57 1.92-3.99 2.61-5.72.69-1.7 1.34-4.32 1.81-6.15.49-1.81.4-4.55.66-6.46.27-1.86-8.72-4.81-8.68-6.74.04-1.89 2.43-3.21 2.24-5.14-.26-2.8 4.51-3.43 4.24-6.24-.27-2.82.25-2.88-.01-5.69-.28-2.82-5.61-2.12-5.89-4.93-.26-2.82 1.86-3.11 1.6-5.92-.18-1.94-3.05-2.87-3.44-4.7-.4-1.88 6.9-7 6.3-8.75-.63-1.78-4.23-2.37-5.05-4-.82-1.65-1.09-4.26-2.09-5.73-1-1.49-5.49.88-6.66-.42-1.15-1.3-2.49-1.75-3.8-2.84-1.29-1.08-2.79-.8-4.21-1.65-1.41-.85-3.06 1.01-4.57.4-1.49-.6-1.49-6.24-3.06-6.58-1.54-.32-3.08 4.45-4.67 4.39-1.55-.06-2.51-.97-4.1-.74-2.4.31-2.77-3.6-5.16-3.29-2.4.31-2.12 3.2-4.53 3.52-2.38.31-2.75-3.52-5.14-3.19-2.39.31-2.79-3.86-5.18-3.54-2.4.32-1.39 10.94-3.79 11.27-2.4.31-3.46-11.01-5.86-10.69-2.39.32-2.12 3.13-4.51 3.46-2.4.32-1.73 7.39-4.13 7.7-2.4.31-3.29-8.98-5.67-8.66-2.4.31-2.05 4.15-4.44 4.46-2.4.32-2.57-1.39-4.97-1.08-2.4.32-2.55-1.23-4.95-.92-2.4.32-2.38.5-4.8.82-2.4.31-2.69-2.66-5.09-2.35-2.4.33-1.29 12.17-3.69 12.49-1.59.21-4.06-6.88-5.56-6.41-1.54.47-3.2 1.29-4.64 2.01-1.46.74-4-.22-5.35.77-1.34.99-1.81 4.2-3.03 5.41-1.22 1.2-3.38 1.69-4.45 3.09-1.05 1.41 2.17 6.95 1.28 8.54-.89 1.56-7.13-.64-7.82 1.09-.7 1.7 1.57 5.26 1.08 7.09-.49 1.81-2.81 3.29-3.08 5.19-.27 1.87-.9 4.14-.94 6.07-.04 1.89 6.93 3.36 7.12 5.29.27 2.81-1.75 3.08-1.49 5.89.27 2.8-1.42 3.03-1.15 5.85.26 2.81-.38 2.9-.06 5.71.32 2.82.48 2.79.74 5.61.19 1.93-4.63 5.39-4.23 7.21.4 1.88 1.39 4.41 1.99 6.17.62 1.78 4.34 2.31 5.14 3.95.82 1.65 3.66 1.71 4.66 3.19 1.01 1.49 1.72 3.24 2.88 4.54 1.16 1.3 3.19 1.08 4.49 2.17.32.26.68.37 1.07.4l.85 13.68 3.11 50.07c1.9 30.5 28.16 53.67 58.65 51.77 30.5-1.89 53.68-28.15 51.78-58.65l-3.29-52.98-.64-10.21c1.26 1.04 2.32 1.75 2.73 1.35zM708.3 803.92c.66 0 1.31-.01 1.98-.06 18.32-.99 32.64-15.59 33.76-33.47h-71.41c1.19 18.91 16.9 33.53 35.67 33.53zM1097.89 803.86c.65.04 1.31.06 1.96.06 18.77.01 34.48-14.62 35.68-33.53h-71.42c1.1 17.89 15.45 32.49 33.78 33.47z"/><path d="m1155.14 755.84.43-49.42c.03-4.2.04-8.31.04-12.39-.25-141.87-23.98-223.02-59.19-274.05-3.08-4.41-6.28-8.48-9.54-12.38-.09-4.26-2.16-13.18-.85-13.84 1.78-.91 11.75 10.8 13.27 9.69 1.6-1.16-9.64-17.04-8.33-18.43 1.33-1.4 10.2 3.91 11.22 2.26.97-1.62 3.63-3.01 4.29-4.89.62-1.75 8.89-2.91 9.21-4.9.3-1.82-20.97-5.7-20.94-7.73.04-1.84 4.92-3.03 4.73-5.06-.18-1.83 2.03-3.7 1.67-5.7-.36-1.96 6.9-5.61 6.43-7.5-.49-1.92 5.63-6.36 5.01-8.2-.62-1.88-16.52 1.63-17.26-.18-.74-1.83 1.37-4.72.51-6.47-.87-1.76 8.12-9.16 7.14-10.85-1-1.7-7.15-.73-8.24-2.35-1.1-1.63 2.66-7.37 1.46-8.92-1.2-1.56-3.05-3.41-4.35-4.9-1.29-1.47-17.9 11.19-19.27 9.78-1.36-1.4 3.72-9.03 2.27-10.36-1.45-1.33-7.5 2.98-9.01 1.72-1.52-1.24-2.27-2.85-3.84-4.04-1.55-1.17 5.24-13.94 3.63-15.06-1.61-1.11-12.85 12.54-14.52 11.49-1.65-1.04-1.08-5.13-2.79-6.12-1.69-.98 2.74-12.94 1-13.88-1.73-.92-8.04 7.06-9.8 6.18-1.76-.87.67-10.61-1.12-11.42-1.79-.81-7.37 6.98-9.19 6.23-1.8-.75-6.25 5.53-8.08 4.82s-.67-8.88-2.51-9.54c-1.84-.67-5.32 3.78-7.18 3.16-1.86-.63-1.05-9.19-2.92-9.77-1.88-.58-3.2-3.08-5.08-3.62-1.88-.55-3.9-.77-5.79-1.28-1.91-.51-3.62-1.86-5.52-2.33-1.92-.47-3.27-3.55-5.19-3.99-1.91-.43-4.78 3.24-6.69 2.85-1.93-.41-4.92 4.67-6.84 4.3-1.61-.3-2.99-1.55-4.51-2.18-.09 7.83-.99 15.76-2.83 23.7-11.62 49.91-55.48 84.76-106.66 84.76-8.36 0-16.74-.96-24.95-2.87-42.07-9.8-72.81-42.74-81.94-82.23-2.15-1.37-4.46-2.98-5.39-2.39-1.67 1.05-3.99 1.67-5.6 2.78-1.62 1.12 3.14 11.29 1.57 12.48-1.57 1.19-3.9 1.26-5.41 2.51-1.51 1.26-6.72-1.59-8.15-.27-1.45 1.34-1.75 4.11-3.12 5.51-1.37 1.4-7.45-1.1-8.73.38-1.29 1.49 1.62 6.87.42 8.43-1.2 1.56-8.37-.67-9.46.96-1.1 1.62 15.65 14.38 14.66 16.08-.97 1.7-2.02 2.55-2.88 4.32-.87 1.75-1.6 2.79-2.35 4.62-.73 1.81-6.4 1.26-7.02 3.13-.61 1.85 2.98 4.46 2.49 6.38-.48 1.88-.84 3.22-1.19 5.16-.37 2.01-19.25 1.4-19.42 3.25-.19 2.03 1.72 5.08 1.75 6.92.04 2.04 15.96 2.54 16.26 4.37.33 1.99-4.12 4.15-3.49 5.9.67 1.88-6.34 7.73-5.34 9.35 1.01 1.65 13.23-5.58 14.56-4.17 1.32 1.39-9.42 17.01-7.83 18.16 1.53 1.1 8.04-3.83 9.82-2.94 1.68.86 6.46-5.56 8.33-4.88 1.77.64 4.25-2.96 6.18-2.47.26.07.48.3.69.58-17.38 16.7-33.7 39.85-46.26 70.29-21.41 51.24-35.02 123.07-35.11 229.64-.01 4.14.02 8.36.07 12.65l.64 49.21h107.41l-.66-50.59c-.05-3.78-.07-7.52-.07-11.27-.17-88.89 10.95-145.1 23.17-178.91v189.52l-16.9 271.29c.26-.06.53-.13.72-.17.82-.43 1.71-.75 2.64-.95 1.13-2.46 3.16-5.07 7-5.94l.97-.22 1.16-.01c2.98 0 5.19 1.26 6.79 2.71 1.6-1.25 3.81-2.34 6.69-2.34h.59l.85.07c1.48.2 2.74.64 3.81 1.2.38-.18.79-.35 1.23-.48 1.62-1.83 4.31-4.01 8.41-4.01h.57l.87.09c1.63.21 2.97.72 4.08 1.44 1.21-.59 2.62-.95 4.3-.95h.57l.71.08c3.73.5 6.05 2.56 7.38 4.12 1.48-1.02 3.31-1.7 5.62-1.7h.6l.71.08c3 .4 5.08 1.81 6.52 3.32.36-.04.72-.05 1.13-.05h.22c1.05-.41 2.61-.91 4.67-.91.56 0 1.18.04 1.86.13.87.09 1.49.22 2 .31 1.52-1.03 3.59-1.95 6.29-1.95h.61l.98.11c4.15.57 6.42 3.08 7.71 5.98h1.51l1.46.43c1.64.51 3.23 1.21 4.67 1.91l.61-.01c.69 0 2.3.06 4.16.64l14.22-228.45h27.25l14.23 228.45c1.85-.58 3.47-.64 4.15-.64l.62.01c1.43-.69 3.02-1.39 4.66-1.91l1.46-.43h1.5c1.3-2.9 3.57-5.41 7.72-5.98l.98-.11h.61c2.71 0 4.78.92 6.29 1.95.52-.09 1.13-.22 2.01-.31.69-.09 1.29-.13 1.86-.13 2.06 0 3.62.5 4.67.91h.24c.4 0 .76.01 1.13.05 1.42-1.52 3.51-2.92 6.5-3.32l.71-.08h.6c2.33 0 4.15.69 5.63 1.7 1.33-1.55 3.65-3.62 7.39-4.12l.69-.08h.58c1.68 0 3.08.35 4.3.95 1.1-.71 2.46-1.23 4.08-1.44l.86-.09h.58c4.09 0 6.78 2.17 8.4 4.01.43.13.85.3 1.23.48 1.07-.56 2.33-1 3.8-1.2l.87-.07h.58c2.9 0 5.1 1.09 6.7 2.34 1.6-1.45 3.81-2.71 6.8-2.71l1.16.01.95.22c3.86.87 5.88 3.47 7 5.94.94.2 1.83.53 2.64.95.19.04.47.12.73.17l-18.13-290.97v-169.7c.5 1.34.99 2.67 1.48 4.09 11.7 34.06 21.7 89.61 21.64 174.72 0 3.75 0 7.58-.05 11.44l-.43 50.38h107.41zM904.08 433.37c-9.89 0-17.9-8.02-17.9-17.9 0-9.88 8.02-17.9 17.9-17.9 9.88 0 17.9 8.02 17.9 17.9 0 9.89-8.02 17.9-17.9 17.9zm17.9 67.37c0 9.89-8.02 17.9-17.9 17.9-9.89 0-17.9-8.02-17.9-17.9 0-9.89 8.02-17.9 17.9-17.9 9.88 0 17.9 8.01 17.9 17.9zm-35.8 85.27c0-9.89 8.02-17.9 17.9-17.9 9.88 0 17.9 8.01 17.9 17.9 0 9.89-8.02 17.9-17.9 17.9-9.89 0-17.9-8.02-17.9-17.9zm17.9 103.17c-9.89 0-17.9-8.02-17.9-17.9 0-9.89 8.02-17.9 17.9-17.9 9.88 0 17.9 8.02 17.9 17.9 0 9.88-8.02 17.9-17.9 17.9z"/><path d="M836.51 363.43c54.14 12.6 108.26-21.07 120.86-75.21 12.61-54.15-21.07-108.25-75.21-120.86-54.14-12.6-108.26 21.06-120.87 75.21-12.6 54.15 21.07 108.25 75.21 120.87zM1007.4 134.03c-3.19.64-5.81 3.08-7.84 7.34-2.01 4.25-2.74 7.78-2.17 10.62 1.51 7.5 5.64 10.57 12.41 9.21 2.26-.45 4.93-2.12 7.92-5 3-2.88 4.38-6.4 4.12-10.58l-.25-5.9c-.28-1.41-2.2-2.82-5.74-4.22-3.55-1.4-6.36-1.88-8.46-1.46zM1011.16 22.81c-2.61-1.36-5.14-1.81-7.6-1.31-2.27.47-4.81 2.2-7.6 5.19s-4.06 6.78-3.8 11.38c.26 4.57.44 7.21.58 7.89 1.36 6.83 1.93 17.4 1.68 31.72-.15 13.21 1.46 25.74 4.86 37.52 3.89 1.84 8.9 2.13 15.06.9 1.31-3.72 1.56-7.78.82-12.16-1.04-5.81-1.24-13.81-.6-23.98.58-9.79 1.01-20.43 1.28-31.98s.23-18.18-.12-19.9c-.43-2.14-1.96-3.92-4.57-5.27zM1083.93 129.74c-3.42-1.48-6.15-2.02-8.11-1.63-2.82.57-4.9 1.66-6.24 3.27-.46.62-1.09 1.31-1.89 2.12-4.23 4.36-6.07 7.97-5.51 10.8.69 3.44 2.61 6.05 5.71 7.79 3.1 1.74 6.59 2.23 10.46 1.44 3.69-.74 7.39-2.92 11.11-6.53 3.73-3.57 5.21-7.3 4.43-11.09-.97-4.87-4.3-6.93-9.97-6.17zM1053.64 24.42c-2.74 4.95-3.78 9.05-3.13 12.31 1.08 5.42 4.46 7.54 10.12 6.41 8.69-1.74 12.85-5.43 12.54-11.07-.01-1.67 1-3.56 3.03-5.7 2.03-2.15 6.37-3.88 13.02-5.22 2.27-.45 4.63-.56 7.04-.27 2.43.28 4.14.78 5.1 1.52.99.74 2.33 2.78 3.99 6.16 1.68 3.38 2.71 6.11 3.13 8.2.6 2.95.47 6.09-.39 9.4-.87 3.32-2.3 5.65-4.27 7l-11.48 7.4c-7.25 4.67-12.13 8.01-14.65 10.06-2.49 2.03-5.14 4.82-7.96 8.33-2.21 8.38-3.51 13.91-3.91 16.57-.38 2.66-.3 5.46.29 8.35.54 2.71 1.57 5.2 3.05 7.5 1.49 2.29 3.08 3.27 4.81 2.91 5.28-1.05 8.88-2.59 10.8-4.57 1.89-1.97 2.83-4.63 2.8-7.95.01-6.27.44-11.74 1.21-16.37 14.36-8.46 23.77-14.34 28.24-17.64 4.43-3.3 7.94-8.22 10.46-14.78 2.52-6.56 2.86-14.43 1-23.58l-.01-.09c-1.8-8.28-4.01-14.18-6.63-17.68-2.64-3.52-7.76-6.82-15.35-9.97-4.64-2.01-10.37-2.17-17.19-.48-3.55.84-7.09 1.66-10.65 2.43-5.08 1.16-9.63 3.61-13.68 7.37l.09-.01c-4.87 4.07-8.69 8.56-11.43 13.48zM612.99 209.51l2.12-7.93-26.75-7.15 19.56-11.29-4.1-7.11-19.56 11.29 7.17-26.75-7.92-2.12-9.29 34.66-35.28 20.38v-40.73l25.38-25.4-5.8-5.79-19.58 19.58v-22.57h-8.21v22.57l-19.57-19.58-5.81 5.79 25.38 25.4v40.73l-35.28-20.36-9.28-34.67-7.93 2.11 7.17 26.75-19.55-11.29-4.1 7.11 19.54 11.29-26.74 7.17 2.12 7.91 34.67-9.29 35.29 20.38-35.3 20.36-34.66-9.28-2.12 7.91 26.74 7.18-19.55 11.28 4.1 7.11 19.56-11.3-7.17 26.76 7.92 2.12 9.29-34.67 35.28-20.37v40.73l-25.38 25.38 5.81 5.81 19.57-19.58v22.57h8.21v-22.57l19.58 19.58 5.8-5.81-25.38-25.38V227.7l35.28 20.37 9.29 34.67 7.92-2.12-7.16-26.76 19.55 11.3 4.1-7.11-19.56-11.29 26.75-7.17-2.12-7.91-34.67 9.28-35.28-20.36 35.28-20.38zM84.38 319.82l35.29 20.36 9.29 34.67 7.91-2.11-7.15-26.75 19.55 11.29 4.1-7.11-19.56-11.29 26.75-7.17-2.13-7.92-34.67 9.29-35.27-20.36 35.27-20.38 34.67 9.3 2.13-7.93-26.75-7.17 19.56-11.27-4.1-7.12-19.56 11.29 7.16-26.74-7.91-2.13-9.29 34.67-35.29 20.36v-40.73l25.38-25.38-5.8-5.81-19.58 19.59V230.7h-8.2v22.57L56.6 233.68l-5.8 5.81 25.38 25.38v40.73L40.9 285.24l-9.28-34.67-7.93 2.13 7.17 26.75-19.55-11.3-4.1 7.12 19.54 11.27L0 293.71l2.13 7.93 34.67-9.3 35.28 20.38-35.29 20.37-34.66-9.3L0 331.71l26.75 7.17L7.2 350.17l4.09 7.11 19.57-11.29-7.17 26.75 7.92 2.11 9.29-34.67 35.28-20.36v40.74L50.8 385.94l5.8 5.8 19.58-19.58v22.57h8.2v-22.57l19.58 19.58 5.8-5.8-25.38-25.38zM502.33 572.71c13.19-32.14-56.11-35.9-56.11-35.9s47.07 57.95 56.11 35.9zM531.99 420.2c-29.84-39.57-84.87 42.71-84.87 42.71s105.33-15.57 84.87-42.71zM489.7 499.45s96.02 65.37 99.67 28.47c5.31-53.79-99.67-28.47-99.67-28.47z"/></g></svg>