<svg xmlns="http://www.w3.org/2000/svg" xml:space="preserve" viewBox="0 0 363.56 430.74" shape-rendering="geometricPrecision" text-rendering="geometricPrecision" image-rendering="optimizeQuality" fill-rule="evenodd" clip-rule="evenodd"><g fill="currentColor"><path d="M21.17 339.14c.43.27.85.53 1.26.78 3.21 2.82 7.25 4.69 11.67 5.23.51.08 1 .12 1.5.13.88.05 1.76.06 2.66 0l43.99-3-30.56 52.98c-6 10.41-2.43 23.71 7.98 29.71 3.42 1.97 7.16 2.91 10.85 2.91 7.52 0 14.84-3.91 18.86-10.89l29.9-51.84-3.15-9.11 10.51-3.63.02-.04-38.9-28.06a17.913 17.913 0 0 1-7.37-12.99l-1.08-12.45-6.98.48c2.07-2.62 4.2-5.19 6.36-7.71L74.31 241c-.41-4.77 1.05-9.42 4.14-13.08a17.76 17.76 0 0 1 12.17-6.32c.53-.05 1.06-.07 1.59-.07 9.35 0 17.01 7.04 17.81 16.38l1.63 18.81c.93-.94 1.82-1.91 2.66-2.93l58.59 71.92-.17-6.75 25.99-5.65-78.79-96.72c-.33-.4-.68-.78-1.04-1.13-.2-.23-.36-.48-.57-.7-10.49-11.15-32.97-16.01-54.12.69-28.95 23.13-43.45 40.97-60.57 75.93-10.57 26.52 4.03 39.32 17.55 47.77z"/><path d="M139.94 306.3A21.723 21.723 0 0 0 120 296.11l-4.92.33.31 3.61 27.7 19.99c.49-4.73-.56-9.57-3.16-13.75zM316.49 430.74h33.94c3.85 0 6.96-3.12 6.96-6.96v-66.13h-20.04c1.97-5.73 2.36-13.25-1.96-22.3l-4.71 2.25c4.05 8.48 3.22 15.23 1.15 20.05h-22.3v66.13c0 3.85 3.12 6.96 6.96 6.96zM326.43 319.54c-6.68-5.43-20.69-5.77-20.69-5.77s3.21 13.64 9.89 19.07c6.69 5.43 11.33 4.26 14.31.59 2.98-3.68 3.17-8.46-3.51-13.89zM343.07 313.85c1.53-6.8-3.29-17.09-3.29-17.09s-8.74 7.26-10.26 14.06c-1.53 6.81 1 9.76 4.74 10.6 3.74.84 7.28-.76 8.81-7.57zM342.76 322.55c-6.79 5.3-6.69 10.09-3.78 13.82 2.91 3.73 7.54 4.99 14.32-.31 6.79-5.29 10.26-18.87 10.26-18.87s-14.01.07-20.8 5.37zM250.29 374.21c-6.68-5.43-20.69-5.77-20.69-5.77s3.21 13.64 9.89 19.07c6.69 5.43 11.33 4.26 14.31.59 2.98-3.67 3.17-8.46-3.51-13.89zM254.32 365.85c-1.44 6.44.95 9.23 4.48 10.02 3.54.79 6.89-.72 8.33-7.16 1.45-6.43-3.11-16.16-3.11-16.16s-8.26 6.86-9.7 13.3zM262.83 391.04c2.91 3.73 7.54 4.99 14.32-.31 6.79-5.29 10.26-18.88 10.26-18.88s-14.01.07-20.8 5.37c-6.79 5.3-6.69 10.09-3.78 13.82zM226.11 426.9c0 3.52 22.61 4.17 31.04 1.97 8.43 2.21 31.04 1.55 31.04-1.97 0-4.07-6.78-7.42-15.45-7.79-2.27-2.3-6.87-4-12.43-4.47 2.68-5.96 3.87-14.3-1.05-24.61l-4.71 2.25c4.73 9.92 2.79 17.47 0 22.33-5.77.41-10.57 2.14-12.91 4.5-8.7.36-15.53 3.71-15.53 7.79zM121.22 358.53l2.62 7.55 14.73-5.1-7.91-5.71zM177.25 339.15l-5.45 1.89c2.01 1.99 3.46 4.38 4.33 6.95l3.74-1.29c3.69 4.95 10.16 13.62 10.16 13.62l35.06-17.02s18.83-11.19 15.18-21.72c-3.64-10.53-25.36-7.69-25.36-7.69l-38.08 8.28.43 16.99z"/><path d="m167.31 342.44-55.74-40.21-5.54-63.97c-.66-7.66-7.35-13.35-15.07-12.67-7.66.66-13.33 7.41-12.67 15.07l6.09 70.32c.35 4.04 2.44 7.72 5.72 10.09l60.91 43.94c2.46 1.78 5.31 2.63 8.13 2.63 4.32 0 8.58-2 11.3-5.78 4.5-6.24 3.09-14.94-3.15-19.44zM177.58 212.88c-2.45-2.53-4.91-5.35-7.29-8.39-12.53-15.96-18.47-32.25-13.55-36.86-2.17 6.21 6.02 20.18 19.76 33.02 10.37 9.68 21.2 16.18 28.48 17.67 3.32.68 5.91.32 7.39-1.26 4.7-5.04-3.74-20.55-18.84-34.65-.52-.48-1.04-.94-1.56-1.41-.4-9.94-4.55-19.73-12.4-27.05-15.81-14.76-40.59-13.9-55.35 1.91-14.76 15.81-13.9 40.59 1.91 55.35 14.5 13.54 36.52 13.9 51.46 1.68zM274.53 53.42c2.78-4.74 11.47-16.3 22.07-14-11.28-12.7-23.95 6.69-23.95 6.69s-20.47-10.83-24.2 5.74c8.16-7.14 21.36-1.23 26.09 1.58zM323.28 74.38c2.78-4.75 11.47-16.3 22.06-14-11.28-12.7-23.95 6.69-23.95 6.69s-20.47-10.83-24.2 5.74c8.16-7.14 21.36-1.23 26.09 1.58zM331.09 18.32c2.78-4.75 11.46-16.31 22.07-14C341.88-8.38 329.2 11 329.2 11S308.73.17 305 16.74c8.16-7.14 21.36-1.23 26.09 1.58z"/></g></svg>