<svg xmlns="http://www.w3.org/2000/svg" xml:space="preserve" viewBox="0 0 246.96 280.11" shape-rendering="geometricPrecision" text-rendering="geometricPrecision" image-rendering="optimizeQuality" fill-rule="evenodd" clip-rule="evenodd"><g fill="currentColor"><path d="M121.76 161.73c.17-17.65-.65-41.61-4.91-63.28 3.84 8.7 7.77 19.63 11.54 33.32.9-.74 1.82-1.39 2.73-1.99 3.65-2.32 7.65-3.97 11.31-5.09.61-.18 1.21-.34 1.81-.49-9.39-32.95-19.94-51.55-29.63-62.39-5.25-5.94-10.38-9.43-14.68-11.45-.05.05-.1.1-.16.15a30.227 30.227 0 0 1-20.06 7.61c-8.68 0-16.96-3.73-22.7-10.23-.6-.68-1.16-1.38-1.69-2.1-9.52 2.14-17.57 5.86-23.98 10.88-10.49 8.15-16.26 19.93-16.21 31.98 0 7.27 2.04 14.52 5.9 21.15 1.82 3.13 4.04 6.12 6.64 8.9 8.14 8.73 19.92 15.57 34.94 19.35a8.667 8.667 0 0 0 10.51-6.29c1.17-4.64-1.65-9.34-6.28-10.51-12.32-3.11-21.01-8.46-26.5-14.36-4.61-4.97-7.02-10.27-7.69-15.34-.13-.98-.2-1.95-.2-2.92.05-6.67 2.89-13.03 9.58-18.35.1-.08.21-.16.31-.23-2.98 6.45-5.33 13.76-7.18 21.52.7 4.74 3.07 9.41 6.99 13.64 4.04 4.33 11.7 10.23 25.29 13.65 2.88.72 5.31 2.53 6.84 5.08 1.53 2.55 1.97 5.55 1.24 8.43A11.133 11.133 0 0 1 62 140.45c-12.65-3.19-23.55-8.67-31.9-15.98-1.18 13.46-1.44 26.52-1.34 37.25h92.99zM33.89 191.99c2.66 1.23 6.49 2.24 11.07 3.03v72.72c0 6.83 5.54 12.37 12.37 12.37 6.83 0 12.37-5.54 12.37-12.37v-70.6c3.7.08 7.44.09 11.13 0v70.6c0 6.83 5.54 12.37 12.37 12.37 6.83 0 12.37-5.54 12.37-12.37v-72.72c4.58-.79 8.41-1.8 11.07-3.03H33.9z"/><path d="M98.15 48.67c11.51-10.18 12.59-27.77 2.41-39.28C90.38-2.12 72.79-3.2 61.28 6.98c-11.51 10.18-12.59 27.77-2.4 39.28 10.18 11.51 27.77 12.59 39.28 2.41zM181.29 203.57c-.2-.32-.39-.54-1.01-.9-1.1-.69-3.64-1.1-4.92-1.1h-.59a12.284 12.284 0 0 1-8.01-2.16 12.23 12.23 0 0 1-7.03 2.2c-.33 0-.67-.01-1-.04h-.44c-.87 0-2.64.16-3.93.62-1.53.55-1.9 1.01-2.15 1.43-.16.29-.65 1.15-.66 3.62-.01.68.04 1.68.23 3.04h9.47v26.02c.14 1.07.14 2.14 0 3.19v22.92c-15.67.73-27.72 5.13-27.72 10.45 0 5.84 64.72 5.84 64.72 0 0-5.32-12.05-9.72-27.72-10.45v-52.13h11.22c.2-1.36.24-2.36.23-3.03-.01-2.49-.5-3.35-.69-3.68zM158.37 158.65h3.7l-.76-.51-1.09-1.56a8.65 8.65 0 0 1-1.85 2.06z"/><path d="M150.36 125.96c-.21-.02-.41-.06-.62-.06-2.28.03-4.27.5-6.62 1.18-3.45 1.05-7.26 2.63-10.66 4.8-1.7 1.1-3.31 2.34-4.73 4-1.35 1.61-2.71 3.87-2.78 6.89 0 .05-.01.09-.01.14-.03 2.54 1.15 5.05 2.73 6.71 2.39 2.53 5.34 3.94 9.22 5.26 3.9 1.28 8.82 2.32 15.22 3.19.28.04.56.06.83.06 3.05 0 5.7-2.25 6.12-5.36.46-3.39-1.92-6.5-5.3-6.95-7.4-.98-12.28-2.27-14.85-3.36l-.43-.25.9-.04c1.28-.79 2.92-1.64 4.55-2.27.59-.23 1.17-.44 1.73-.63l.19 2.55c-.07.03-.14.05-.22.08 1.39.31 3.04.64 5 .96l-5.5-7.88 2.79-1.95 7.4 10.6a8.601 8.601 0 0 1 6.24 8.94l2.54 3.63.53 2.45h9.71a8.615 8.615 0 0 1-3.14-5.56c-.31-2.29.29-4.57 1.69-6.41a8.603 8.603 0 0 1 5.73-3.33c3.54-.47 6.31-.98 8.45-1.47l.6.02.18-2.37c.31.11.62.23.93.35 1.63.63 3.27 1.47 4.55 2.27.16.1.33.19.47.29-2.57 1.09-7.46 2.38-14.85 3.36-3.38.46-5.76 3.57-5.3 6.95a6.18 6.18 0 0 0 6.12 5.36c.28 0 .55-.02.83-.06 6.41-.87 11.33-1.91 15.22-3.19 3.88-1.32 6.83-2.73 9.22-5.26 1.57-1.65 2.76-4.17 2.73-6.71 0-.05-.01-.09-.01-.14-.07-3.02-1.43-5.28-2.78-6.89-1.42-1.66-3.03-2.9-4.73-4-3.4-2.17-7.21-3.75-10.67-4.8-2.34-.68-4.34-1.15-6.61-1.18-.07 0-.14.02-.21.02-.18-.01-.35-.05-.53-.05h-30.92c-.32 0-.63.05-.94.09zM133.23 191.99c-.07.12-.15.22-.22.34-2.45 4.14-3.75 9.27-3.74 14.89.05 9.57 3.37 20.7 10.96 35.26a9.909 9.909 0 0 0 8.77 5.31c1.55 0 3.12-.36 4.58-1.13 4.84-2.54 6.71-8.51 4.17-13.35-6.78-12.87-8.75-21.47-8.7-26.08.01-2.75.55-4.07 1.01-4.87.67-1.13 1.66-1.85 3.46-2.5 1.72-.61 3.89-.77 4.88-.76.24 0 .41.01.49.01h.01a9.9 9.9 0 0 0 7.84-2.92 9.888 9.888 0 0 0 7.84 2.92c.07 0 .23-.01.5-.01 1.34-.06 4.7.36 6.43 1.44.9.53 1.43 1.02 1.91 1.81.46.8.99 2.12 1.01 4.87.05 4.61-1.92 13.2-8.7 26.08-2.54 4.84-.67 10.82 4.17 13.35a9.89 9.89 0 0 0 13.36-4.18c7.58-14.56 10.9-25.69 10.95-35.26.02-5.62-1.29-10.74-3.73-14.89-.07-.12-.15-.22-.22-.34h-67.05z"/><path d="M27.02 278.31v-88.8h192.92v88.8h18.48V172.13h8.53v-7.92H186.74v-3.09h-43.69v3.09H0v7.92h8.54l-.01 106.18zM144.7 101.13c0 11.95 9.69 21.64 21.64 21.64 11.95 0 21.64-9.69 21.64-21.64 0-11.96-9.69-21.64-21.64-21.64-11.95 0-21.64 9.69-21.64 21.64z"/></g></svg>