<svg xmlns="http://www.w3.org/2000/svg" xml:space="preserve" viewBox="0 0 821.99 810.13" shape-rendering="geometricPrecision" text-rendering="geometricPrecision" image-rendering="optimizeQuality" fill-rule="evenodd" clip-rule="evenodd"><g fill="currentColor"><path d="M743.22 244.72c34.35-8 55.71-42.32 47.71-76.67-8-34.34-42.33-55.7-76.68-47.7-34.35 7.99-55.71 42.32-47.71 76.66 8 34.35 42.32 55.71 76.67 47.71z"/><path d="M802.49 319.72c-14.13-41.08-48.6-54.4-72.8-48.87-11.99-.48-30.88-3.16-48.48-12.55-20.04-10.91-39.37-28.94-50.18-67.61-3.3-12.1-15.79-19.23-27.89-15.93-12.1 3.29-19.23 15.78-15.93 27.88 12.23 45.78 38.22 75.15 65.38 91.61 15.39 5.21 30.9 6.44 42.07 6.44h.45c21.93 0 38.58-4.5 38.74-4.55 2.59-.73 5.19-1.09 7.79-1.09 12.62 0 23.85 8.5 27.3 20.66 2.07 7.29 1.17 14.96-2.53 21.58-3.7 6.62-9.76 11.4-17.05 13.46l-.04.01-.24.07c-4.96 1.34-21.23 5.29-43.35 6.36 5.79 28.5 12.46 62.63 13.03 95.63l-10.92 38.67c-2.09 4.15-16.6 35.32-20.61 108.96l-.18 3.38 3.25.95c.55.16 1.08.29 1.63.44-.73 9.71-1.15 19.89-1.17 30.53-.01 43.21 6.88 93.76 27.03 148.11 5.3 14.32 18.86 23.17 33.28 23.17 4.1 0 8.26-.72 12.32-2.22 18.38-6.81 27.76-27.22 20.95-45.6-16.98-45.87-22.59-87.71-22.6-123.46 0-9.66.42-18.86 1.14-27.56 4-1.14 6.18-2.13 6.37-2.22l2.36-1.12.08-2.6c0-.03.28-9.81 2.23-23.73 1.89-13.5 5.36-30.79 11.54-46.23 33.35-18.31 36.28-58.33 36.35-73.83 0-4.1-.23-6.59-.24-6.7l-.32-3.43c2.92-46.72-2.6-80.69-18.75-128.6zm-22.35 205.75-1.4.71-.6 1.45c-11.71 28.44-14.31 61.73-14.85 71.52-4.1 1.41-13.57 3.98-27.99 3.98-10.53 0-23.71-1.37-39.37-5.61 2.22-36.93 7.1-62.48 11.44-78.82 2.24-8.42 4.33-14.4 5.84-18.23.76-1.92 1.36-3.3 1.78-4.18.41-.88.59-1.18.58-1.18l.23-.43 11.07-39.19 86.4.87c.01.63.02 1.33.02 2.1.07 14.93-3.5 52.21-33.13 67.02z"/><path d="M763.48 317.28c-3.41-12.07-15.96-19.08-28.02-15.67-1 .3-18.37 4.81-40.57 4.78-17.3.02-37.29-2.73-55.12-11.19-17.86-8.57-33.97-22.08-46.18-46.95-5.49-11.28-19.07-15.99-30.35-10.5-11.28 5.48-15.99 19.07-10.5 30.35 16.4 34.06 41.58 56.01 67.64 68.17 26.09 12.27 52.65 15.51 74.51 15.53 30.01-.04 51.62-6.15 52.93-6.49 12.07-3.42 19.08-15.97 15.66-28.03zM463.75 0c-62.71 0-113.54 50.84-113.54 113.54 0 62.71 50.84 113.54 113.54 113.54 62.71 0 113.54-50.84 113.54-113.54C577.29 50.83 526.46 0 463.75 0zm99.84 110.24c-21.42-24.09-71.19-39.08-89.49-43.95-.79-5.67-3.36-10.78-7.17-14.77 5.94-5.91 22.78-22.28 35.05-30.29 35.22 14.64 60.3 48.86 61.6 89zM432.41 18.69l3.41 26.39c-9.34 3.92-16 12.74-16.68 23.14l-44.6.41c11.85-23.43 32.63-41.58 57.87-49.94zm-46.98 156.78c4.85-43.44 37.96-75.49 46.19-82.85 4.34 2.77 9.52 4.4 15.09 4.4 4.01 0 7.81-.85 11.25-2.35 6.27 23.22 22.44 78.24 42.88 111.62a99.299 99.299 0 0 1-37.09 7.17c-31.72 0-60.01-14.87-78.33-37.99zM213.81 168.72c-32.8 2.88-57.12 31.99-54.33 65.02 2.79 33.01 31.64 57.45 64.44 54.58 32.8-2.89 57.13-31.99 54.34-65.01-2.8-33.03-31.64-57.47-64.46-54.59z"/><path d="M254.4 378.85c.05.2.1.4.14.61 1.04 4.6 2.07 10.78 2.06 16.93.02 6.81-1.3 13.42-4.62 17.95-3.33 4.47-8.48 7.66-18.68 7.74-.84 0-1.71-.02-2.6-.07-2.9-1.83-12.15-7.58-22.81-13.42-11.11-6-23.18-12.18-32.52-14.28 1.74-12.6 2.54-25.33 2.88-32.04l20.12 3.24c-3.3-5.24-4.59-11.73-3.11-18.21 2.53-11.03 12.2-18.74 23.5-18.74 1.81 0 3.64.2 5.41.61l.81.16c.84.15 2.16.38 3.92.6 3.33.44 8.65.97 15.27.97h.36c13.59 0 33.82-2.27 53.09-13.01 9.98-6.89 19.6-15.7 27.57-27.08 12.04-17.08 19.78-39.74 19.71-67.27-.01-4.53-.21-9.18-.61-13.93-.85-10.15-9.78-17.69-19.93-16.83-10.15.85-17.69 9.78-16.83 19.93.32 3.81.48 7.42.47 10.83-.06 20.91-5.42 35.12-13.03 46.1-11.35 16.35-29.56 25.93-45.76 31.06a131.94 131.94 0 0 1-20.42 4.75c-14.14-4.27-44.43-.3-57.1 36.37-12.59 36.46 11.55 56.18-38.96 143.56l-5.83 4.37c-.4.35-9.81 8.79-11.95 23.73-.32 2.24-.47 4.54-.43 6.84.04 2.2-2.83 40.88 35.21 53.09-1.21 10.82-4.76 24.08-12.97 34.5-5.51 7.08-12.98 13.59-25.18 18.92-12.19 5.28-29.42 9.22-53.7 9.22-8.09 0-16.96-.44-26.64-1.4-15.6-1.56-29.51 9.84-31.06 25.44-1.56 15.6 9.83 29.5 25.43 31.05 11.38 1.13 22.11 1.68 32.26 1.69 30.36 0 55.55-4.93 76.25-13.89 12.5-5.33 23.14-12.23 32.06-20-.41 3.28-.84 6.59-1.33 9.99-4.32 30.03-11.92 64.85-24.63 104.07-4.83 14.93 3.34 30.92 18.25 35.76 14.92 4.83 30.92-3.34 35.76-18.25 13.71-42.29 22.04-80.29 26.82-113.5 9.46-65.75 4.92-112.6.76-136.76h.23l-1.75-14.95c-.91-21.47-.84-52.94 10.44-94.78.88.04 1.77.1 2.6.1h.34c11.89 0 20.4-4.47 25.24-11.26 4.89-6.8 6.22-15.16 6.24-22.95-.01-6.83-1.06-13.33-2.16-18.29-2.83.31-5.68.58-8.56.75zm-37.72 155.62c-21.58 9.67-39.45 33.27-60.59 31.64-19.74-1.51-37.65-23.85-35.92-45.9 1.31-16.72 10.46-26.22 10.46-26.22s53.6 29.64 84.87 29.35c0 0 2.02 8.37 1.19 11.12z"/><path d="M376.34 244.99c-9.6-3.44-20.16 1.55-23.59 11.15-13.22 36.51-32.48 55.44-52.22 66.6-19.75 11.07-40.84 13.85-56.27 13.83-6.73.01-12.32-.51-16.1-1.01-1.9-.25-3.33-.49-4.24-.66-.45-.08-.77-.15-.95-.18-.03-.01-.06-.01-.09-.02-9.93-2.28-19.84 3.93-22.11 13.86-2.28 9.93 3.93 19.83 13.86 22.11l-.01-.01c.99.22 12.43 2.8 29.62 2.8 19.61-.02 47.05-3.35 74.26-18.52 27.23-15.06 53.37-42.46 68.96-86.38 3.44-9.6-1.56-20.16-11.14-23.59z"/></g></svg>