<svg xmlns="http://www.w3.org/2000/svg" xml:space="preserve" viewBox="0 0 919.88 858.88" shape-rendering="geometricPrecision" text-rendering="geometricPrecision" image-rendering="optimizeQuality" fill-rule="evenodd" clip-rule="evenodd"><g fill="currentColor"><path d="M294.79 287.36c-10.1-10.68-25.21-27.99-37.71-47.99-9.62-1.04-18.19-1.65-24.97-1.65-5.2-.03-9.36.42-11.73 1.07-7.92 33.68 6.38 70 37.72 88.57.35.21.69.39 1.04.58 1.99-16.68 21.46-38.49 35.65-40.59zM369.53 298.88c7.09-11.97 10.76-25.01 11.3-38-11.37-2.4-30.88-6.43-52.7-10.47-20.22-3.75-42.41-7.48-61.68-9.92 12.19 18.39 26.29 34.36 35.32 43.74 2.67 2.79 4.86 4.99 6.44 6.54 15.14 8.01 32.84 26.84 38.39 32.98a81.053 81.053 0 0 0 22.92-24.87zM251.28 613.39 130.12 507.38c10.92-33.99 27.84-67.4 43.85-96.84l-46.54-47.17c-6.78-6.87-10.48-15.98-10.42-25.64.06-9.66 3.88-18.71 10.75-25.48 6.8-6.72 15.82-10.42 25.39-10.42 9.75 0 18.89 3.82 25.74 10.75l29.1 29.48c5.8-25.35.3-51.51-18.93-63.31-27.11-16.64-74.82-14.15-108.13 30.83C35.48 371.7 16.12 415.36.82 494.75c-6.77 58.91 29.47 76.63 61.18 86.22 7.81 2.36 14.61 4.2 20.62 4.91l76.81 67.21L54.72 785.67c-15.47 19.58-12.14 48 7.45 63.47 8.3 6.55 18.18 9.73 27.98 9.73 13.35 0 26.58-5.89 35.5-17.18L257 675.39c14.96-18.95 12.45-46.13-5.7-62.01zM232.12 230.49c40.53.05 136.2 20.29 156.76 24.73.11-1.52.17-3.05.17-4.58.08-25.87-16.07-53.41-24.22-65.33-1.71-2.53-3.04-4.35-3.79-5.34l-69.27-21.91-47.97 17.37c-1.97 3.19-8.09 13.2-14.2 24.33-7.2 12.86-14.3 28.17-14.51 33.31.26-.09.57-.21.9-.37 3.95-1.74 9.22-2.17 16.13-2.22zM447.43 457.22l7.74-10L404.43 408c-.52 4.47-1.87 8.82-4.04 12.86l47.05 36.36z"/><path d="M132.84 317.4c-11.37 11.21-11.49 29.53-.26 40.89h-.01l93.72 94.96a28.84 28.84 0 0 0 27.3 7.81l121.68-29.1c15.54-3.71 25.12-19.32 21.4-34.85-3.72-15.53-19.32-25.12-34.85-21.39L256 401.02l-82.25-83.35c-11.22-11.37-29.54-11.49-40.9-.26zM448.86 511.98l7.99 16.33c28.57-10.63 88.54-15.43 88.54-15.43l34.33-18.72c-10.16-17.39-22.18-32.54-30.28-41.68l.86-16.01 1.61-2.74 10.55-17.87.8-69.79s-5.47-7.03-10.6-7.41c-5.12-.4-10.81 3.9-17.01 9.51-6.19 5.61-26.16 36.61-29.08 48.12-2.36 9.31-.72 44.93-.01 58.23-11.29 4.52-23.25 9.86-29.51 14.42-13.97 10.16-28.2 43.04-28.2 43.04zm76.66-120.31c6.3-23.76 16.21-41.75 22.12-40.18 1.39.37 2.41 1.81 3.11 4.05-.09-.04-.19-.12-.29-.15-5.91-1.57-15.82 16.42-22.12 40.18-3.77 14.19-3.74 22.4-1.85 27.06-4.16-3.18-6.16-11.4-.97-30.97zm-35.26 90.73c3.67 0 6.63 2.98 6.63 6.63 0 3.66-2.96 6.62-6.63 6.62-3.66 0-6.62-2.96-6.62-6.62 0-3.65 2.96-6.63 6.62-6.63z"/><path d="M609.6 526.58c10.69.89 21.85 1.48 33.13 1.83 4.88-72.52 36.5-113.69 54.75-131.62-80.72-9.14-124.05 18.71-144.07 38.53 4.91 5.21 16.04 17.54 27.41 33.79 11.29 16.22 23 36.25 28.78 57.47z"/><path d="M687.89 431.36c-13.7 20.93-27.55 52.45-30.69 97.38 6.41.09 12.8.12 19.11.09.42-.19.79-.41 1.25-.57 13.89-4.96 38.67-5.33 34.65-8.09-6.26-4.32-37.55-25.04-19.81-47.49 5.95-7.53 13.96-7.85 21.99-4.99-4.8.5-8.98 2.35-12.06 6.18-17.74 22.09 13.56 42.48 19.82 46.74 4.01 2.72-32.29 9.31-46.17 14.2-3.03 1.06-5.08 2.72-6.37 4.53-2.02 2.84-2.14 6.09-1 8.13 5.22 9.35 109.74 3.77 112.19-3.23 1.04-2.95.08-12.29-1.37-22.09 39.42-74.79-16.83-111.38-63.63-122.3-1.61 1.26-3.87 3.15-6.63 5.75-5.74 5.43-13.5 13.87-21.28 25.76zM582.13 498.46l-32.23 17.58s-105.06 8.4-103.33 27.59c.08.94.53 1.8 1.28 2.6 12.59 13.44 114.29 8 148.97-11.31-2.75-12.27-8.22-24.77-14.68-36.46zM788.71 418.26c-.52 1.93.63 3.91 2.56 4.42 0 0 .71.17 2 .74 4.04 1.82 11.36 6.12 11.33 15.91 0 2.25-.38 4.88-1.34 7.93-.59 1.91.47 3.94 2.38 4.53.36.11.72.17 1.08.17 1.54 0 2.96-.99 3.45-2.54 1.13-3.66 1.66-7.01 1.66-10.09.04-9.24-4.83-15.48-9.42-18.91-4.61-3.49-9.01-4.65-9.27-4.73-1.93-.51-3.92.64-4.42 2.57z"/><path d="M821.31 454.86c.4.14.81.21 1.21.21 1.49 0 2.89-.93 3.42-2.41 2.17-6.13 3.12-11.67 3.12-16.65.03-12.91-6.48-21.72-12.76-26.89-6.28-5.22-12.38-7.19-12.64-7.29-1.9-.61-3.94.43-4.56 2.34-.61 1.9.43 3.94 2.33 4.55l-.01-.01c.01 0 1.14.36 3.1 1.33 5.98 3.02 17.34 10.52 17.3 25.97 0 4.06-.77 8.77-2.71 14.22-.67 1.89.31 3.95 2.19 4.62zM552.63 319.19c3.46.01 7.61 1.14 12.68 4.94 1.59 1.21 3.85.89 5.06-.7 1.2-1.6.89-3.86-.7-5.07-6.03-4.56-11.87-6.41-17.03-6.39-13.2.19-20.2 10.89-20.47 11.14a3.616 3.616 0 0 0 .93 5.03 3.62 3.62 0 0 0 5.04-.93h-.01c0-.01.26-.39.93-1.17 2.05-2.37 7.08-6.91 13.57-6.84z"/><path d="M578.51 309.66a3.628 3.628 0 0 0-.52-5.09c-9.43-7.71-18.49-10.63-26.38-10.62-18.11.16-28.69 14.33-28.96 14.58a3.62 3.62 0 0 0 .66 5.08c.66.5 1.43.74 2.2.74 1.09 0 2.16-.49 2.88-1.41h-.01s.48-.63 1.56-1.74c3.27-3.39 11.25-10.06 21.67-10.01 6.13.01 13.37 2.14 21.8 8.99 1.54 1.26 3.83 1.02 5.09-.52zM431.05 483.67c1.58-1.22 1.86-3.5.63-5.07a3.614 3.614 0 0 0-5.07-.64c-8.39 6.44-11.43 14.08-11.36 20.57.09 9.86 6.01 16.55 6.21 16.87.71.84 1.73 1.27 2.75 1.27.83 0 1.66-.28 2.34-.86 1.52-1.3 1.69-3.58.4-5.1 0-.01-.2-.23-.62-.84-1.29-1.81-3.89-6.34-3.86-11.34.07-4.4 1.63-9.38 8.58-14.87z"/><path d="M419.69 472.21a3.617 3.617 0 1 0-4.23-5.87c-13.78 9.81-18.3 21.5-18.23 31.3.07 13.33 7.49 22.85 7.68 23.17.71.93 1.78 1.42 2.87 1.42a3.617 3.617 0 0 0 2.88-5.81h-.01s-.32-.4-.89-1.33c-1.76-2.78-5.32-9.58-5.3-17.44.08-7.7 3.03-16.58 15.23-25.44zM838.87 92.04c16.32-17.13 36.76-33.73 62.37-47.39L877.42 0c-38.19 20.36-66.92 46.23-88.33 71.85-73.9-21.43-143.41-6.16-161.01 36.12 29.31-30.19 94.48-37.4 161.14-14.58 80.12 27.43 131.99 87.84 115.87 134.92-.38 1.1-.82 2.17-1.26 3.23 5.92-6.1 10.41-13.1 13.12-21.01 13.41-39.17-20.26-87.54-78.08-118.5z"/><path d="M780.34 108.21c-69.19-23.69-136.79-15.01-164.33 18.13-4.34 5.23-7.73 11.04-9.93 17.46-16.12 47.09 35.75 107.49 115.87 134.92 78.58 26.91 155.09 12.08 173.21-32.93.36-.88.73-1.75 1.04-2.66 16.12-47.08-35.75-107.49-115.87-134.92zm63.07 156.42c-11.13 5.58-30.4 2.2-43.05-7.55-12.64-9.75-13.85-22.18-2.72-27.75 11.13-5.59 30.4-2.21 43.04 7.55 12.65 9.75 13.86 22.18 2.72 27.76zm24.26-70.84c5.37 11.23-3.21 20.3-19.17 20.26-15.96-.04-33.26-9.19-38.64-20.41-5.38-11.24 3.2-20.31 19.16-20.26 15.97.04 33.26 9.18 38.65 20.42zm-128.18-63.83c3.32-9.71 19.4-12.99 35.91-7.33 16.52 5.66 27.21 18.11 23.89 27.81-3.33 9.7-19.41 12.99-35.93 7.33-16.5-5.65-27.2-18.11-23.88-27.81zm-80.6-7.65c11.14-5.58 30.4-2.21 43.04 7.55 12.65 9.75 13.86 22.18 2.73 27.76-11.13 5.58-30.4 2.19-43.04-7.56s-13.86-22.18-2.73-27.75zm-24.26 70.84c-5.37-11.24 3.2-20.3 19.16-20.26 15.97.04 33.27 9.18 38.64 20.42 5.38 11.23-3.2 20.3-19.16 20.26-15.97-.04-33.27-9.19-38.64-20.42zM703 236.5c3.32-9.7 19.41-12.98 35.92-7.33 16.52 5.65 27.21 18.1 23.89 27.81-3.32 9.71-19.4 12.99-35.92 7.33-16.52-5.66-27.21-18.1-23.89-27.81zM880.87 792.61c-3.36 0-6.6.54-9.64 1.53V593.87h32.35v-22.89H330.6v22.89h30.9v232.48h.12c1.24 16.18 14.72 28.92 31.21 28.92 17.3 0 31.33-14.03 31.33-31.33 0-17.3-14.03-31.33-31.33-31.33-3.37 0-6.6.54-9.65 1.53V593.87h466.35v232.48h.12c1.24 16.18 14.72 28.92 31.21 28.92 17.31 0 31.33-14.03 31.33-31.33 0-17.3-14.03-31.33-31.33-31.33zm-488.04 16.87c7.98 0 14.46 6.48 14.46 14.46s-6.48 14.46-14.46 14.46-14.46-6.48-14.46-14.46 6.48-14.46 14.46-14.46zm488.04 28.92c-7.97 0-14.46-6.48-14.46-14.46s6.48-14.46 14.46-14.46 14.46 6.48 14.46 14.46-6.48 14.46-14.46 14.46z"/></g></svg>