<svg xmlns="http://www.w3.org/2000/svg" xml:space="preserve" viewBox="0 0 1534.89 3757.89" shape-rendering="geometricPrecision" text-rendering="geometricPrecision" image-rendering="optimizeQuality" fill-rule="evenodd" clip-rule="evenodd"><g fill="currentColor"><path d="M131.55 2368.32c2.43 0 4.87-.07 7.32-.22 4.33-.25 8.6-.74 12.8-1.42 27.13-345.9 77.85-689.69 122.96-952.26l32.95-24.59c1.73-6.04 3.49-11.92 5.24-17.67-.93 5.26-1.84 10.5-2.79 15.85-19.1 109.35-39.45 234.22-58.73 368.46-26.94 187.53-51.78 393.29-68.26 600.51-12.62 158.54-20.36 317.93-20.36 470.63 0 0 66.14 52.47 189.75 98.9 94.27 35.41 222.05 67.2 379.5 69.64 6.4.1 12.75.28 19.26.28l-5.79-88.27-13.46-204.88-43.09-656.02-.49-7.49-3.54-53.94-.91-13.78-22.74-346.17-.45-7.04a110.767 110.767 0 0 1-4.81-32.3c0-5.97.6-11.82 1.52-17.59l-8.45-128.62-10.11-153.89-9-137 10.85-8.06c-4.15-9.05-8.51-17.94-13.13-26.64-10.43-19.74-22.03-38.56-35.03-55.97-9.98-13.38-20.74-25.92-32.37-37.41-17.47-17.7-33.11-37.05-47.51-57.34-14.52-20.46-27.49-42.07-39.17-64.47-.61-1.19-1.25-2.32-1.86-3.5h-.58c-13.06 0-25.59 2.18-37.33 6.09-26.04 3.72-58.69 12.17-94.33 30.17-82.55 40.91-171.55 130.45-233.81 289.13C42.57 1380.72.23 1611.03.03 1958.76c0 89.86 2.89 187.58 9.14 294 3.83 65.22 57.92 115.58 122.42 115.58zm453.25 190.34L352.43 2481l-19.24-6.43 10.24-43.43 9 2.21 250.75 61.39-18.37 63.92zM627.91 953.06c5.88 5.97 11.52 12.32 17.12 18.69l19.19-75.71h-82.09c13.64 21.06 28.83 40.32 45.78 57.02zM889.92 971.73c5.53-6.27 11.07-12.53 16.86-18.39 17.04-16.82 32.3-36.15 46-57.31h-82.01l19.16 75.7zM1022.35 964.01c-14.35 20.2-29.92 39.46-47.32 57.09-11.73 11.56-22.57 24.23-32.62 37.7-12.98 17.41-24.59 36.26-35.02 55.99a537.27 537.27 0 0 0-13.09 26.59l10.81 8.05-8.99 136.98-10.11 153.86-8.45 128.69c.93 5.75 1.52 11.6 1.52 17.56 0 11.23-1.7 22.05-4.79 32.27l-.48 7.07-22.73 346.17-.91 13.8-3.54 53.91-.49 7.51-43.09 655.91-13.46 205-5.79 88.27c6.51 0 12.85-.17 19.26-.28 157.45-2.45 285.23-34.23 379.5-69.64 123.61-46.45 189.75-98.9 189.75-98.9 0-152.68-7.74-312.06-20.36-470.62-16.54-207.92-41.49-414.4-68.54-602.45-19.2-133.51-39.45-257.7-58.46-366.54-.91-5.24-1.83-10.38-2.73-15.55 1.74 5.68 3.47 11.43 5.2 17.4l32.94 24.57c45.11 262.58 95.83 606.37 122.97 952.29 4.18.68 8.45 1.18 12.78 1.44 2.41.13 4.84.19 7.22.19 64.56.01 118.69-50.35 122.51-115.62 6.2-106.38 9.06-204.1 9.06-293.97-.61-463.2-74.59-719.56-175.47-873.7-50.41-76.52-109.38-125.6-163.87-152.76-35.6-17.97-68.22-26.42-94.24-30.15-11.75-3.91-24.28-6.1-37.35-6.1h-.55c-.61 1.18-1.25 2.32-1.86 3.5-11.69 22.4-24.66 44.01-39.18 64.47zm160.19 1517-232.37 77.66-18.39-63.92 250.76-61.39 9-2.21 10.24 43.43-19.24 6.43zM352.43 3568.16c0 104.82 84.98 189.73 189.73 189.73 104.79 0 189.76-84.9 189.76-189.73v-541.32c-156.11-2.35-283.6-32.52-379.5-67.3v608.62zM803.04 3568.16c0 104.82 84.98 189.73 189.73 189.73 104.79 0 189.76-84.9 189.76-189.73v-608.62c-95.88 34.78-223.38 64.96-379.5 67.3v541.32zM865.76 1001.35l-26.65-105.31-1.02-3.99h-141.2l-1.02 3.99-26.68 105.35c41.3 55.39 74.17 123.75 98.27 204.65 24.11-80.97 57.02-149.36 98.29-204.69zM684.45 1512.44c9.06-10.17 19.84-18.84 32.18-25.18-2.5-47.68-11.1-147.65-40.3-248.66l-6.65 49 14.77 224.84zM858.64 1238.6c-29.22 101.05-37.8 201-40.29 248.66 12.34 6.35 23.11 15.02 32.17 25.18l14.77-224.88-6.65-48.96zM714.64 1972.03l3.7 56.16 1.23 19.05 2.29 34.87 10.05 152.92 35.55 541.24 35.57-541.36 10.05-152.82 2.28-34.86 1.25-19.04 3.7-56.18 19.77-300.93c-3.94 3.38-8.1 6.48-12.49 9.29-17.38 11.15-37.99 17.73-60.14 17.73-22.12 0-42.71-6.55-60.07-17.7-4.39-2.83-8.58-5.93-12.52-9.31L714.63 1972z"/><path d="M426.33 411.01c-1.21-.25-2.29-.77-3.57-.8-11.39-.28-20.81 8.79-21.03 20.14h-.03c0 .15-.01 2.19-.01 6 .71 40.55 2.85 278.52 101.01 459.68 1.47 2.67 2.93 5.39 4.43 8.05 12.42 22.05 26.23 43.21 41.77 62.94 9.54 12.14 19.72 23.76 30.57 34.75 6.43 6.35 12.55 13.07 18.49 19.97 9.11 10.54 17.66 21.67 25.69 33.3 14.13 20.52 26.64 42.55 37.69 65.52 8.69 18.01 16.48 36.58 23.48 55.42 47.54 128.2 58.21 268.89 60.07 329.55-27.07 7.54-48.58 28.28-57.29 54.83-2.7 8.25-4.27 17.01-4.27 26.16 0 13.06 3.06 25.39 8.38 36.41 13.59 28.22 42.36 47.74 75.75 47.74 33.43 0 62.22-19.53 75.8-47.75 5.32-11.04 8.37-23.34 8.37-36.4 0-9.15-1.55-17.89-4.26-26.13-8.71-26.56-30.21-47.3-57.31-54.85 1.84-60.68 12.53-201.4 60.08-329.59 6.99-18.85 14.8-37.4 23.48-55.41 11.05-22.96 23.56-44.99 37.69-65.52 8.02-11.62 16.57-22.73 25.65-33.26 5.95-6.91 12.07-13.64 18.5-19.98 10.86-10.99 21.03-22.61 30.6-34.75 15.53-19.75 29.35-40.91 41.75-62.96 1.51-2.66 2.96-5.34 4.42-8.03 98.18-181.17 100.31-419.12 101.04-459.68 0-3.81-.01-5.84-.01-6h-.03c-.25-11.36-9.64-20.41-21.04-20.14-1.23.03-2.29.55-3.49.78-1.39-9.16-3.15-18.26-5.29-27.23-5.37-22.6-13-44.47-22.67-65.36 64.27-22.09 110.54-82.91 110.54-154.69C1191.28 73.28 1117.99 0 1027.6 0c-79.82 0-146.22 57.15-160.7 132.76-6.94-2.08-13.96-4.04-21.12-5.69-82.74-19.26-165.41-6.96-235.53 28.96h254.01c-.12 2.56-.39 5.1-.39 7.7 0 18.84 3.34 36.85 9.21 53.69H525.22c-44.8 44.05-78.15 100.81-93.68 166.42-.09.39-.2.76-.3 1.15-2.02 8.67-3.57 17.36-4.91 26.03zm474-245.39c0-3.22.25-6.4.49-9.6.26-3.57.7-7.09 1.26-10.59 9.69-60.66 62.12-107.07 125.51-107.07 70.25 0 127.24 56.98 127.24 127.27 0 57.44-38.11 105.98-90.42 121.78-11.65 3.51-24.01 5.46-36.82 5.46-51.82-.01-96.33-31.02-116.17-75.46-7.07-15.83-11.1-33.32-11.1-51.79zM689.2 799.51c133.69 31.12 267.33-20.04 347.82-120.44 15.44-19.27 28.86-40.39 40.01-63.06-14.09 89.26-41.01 195.02-91.79 280.03-15.9 26.61-34.14 51.17-55.06 72.52-1.31 1.34-2.54 2.76-3.88 4.07-3.54 3.6-6.9 7.39-10.31 11.12-6.16 6.72-12.1 13.61-17.81 20.71-22.9 28.48-42.36 59.79-58.76 92.64-37.21 74.56-59.08 156.65-71.98 229.56-12.88-72.89-34.74-154.96-71.93-229.51-16.4-32.88-35.86-64.19-58.78-92.69-5.71-7.1-11.65-13.99-17.79-20.71-3.41-3.73-6.77-7.51-10.33-11.12-1.34-1.31-2.56-2.73-3.88-4.07-20.93-21.36-39.16-45.91-55.06-72.52-50.77-85.01-77.7-190.74-91.79-280 11.02 22.31 24.49 43.32 40.01 62.77 46.74 58.53 112.67 102.4 191.29 120.7z"/></g></svg>