<svg xmlns="http://www.w3.org/2000/svg" xml:space="preserve" viewBox="0 0 775.67 611.85" shape-rendering="geometricPrecision" text-rendering="geometricPrecision" image-rendering="optimizeQuality" fill-rule="evenodd" clip-rule="evenodd"><g fill="currentColor"><path d="M282.38 208.12v344.96h-32.82v32.85h526.11v-32.85h-24.1V201.16h24.1v-32.85H282c8.29 15.75 8.53 28.11.38 39.81zm15.09-6.96h60.59v351.92h-60.59V201.16zm151.37 120.25V201.16h60.6V315.3c1.12.52 2.22 1.07 3.3 1.66.03.02.06.04.08.05-.6-7.48.08-15.09 2.07-22.55a66.374 66.374 0 0 1 9.64-20.75v-72.55h60.59v44.13c3.82.34 7.61.98 11.34 1.97 1.27.34 2.52.72 3.75 1.13v-47.23h60.59v351.92h-60.59v-.01a41.69 41.69 0 0 1-15.09-6.85v6.86h-60.59v-63.63l-15.09 16.47v47.16h-60.6v-.55c-.96.08-1.92.18-2.95.18-3.74 0-7.74-.59-12.14-1.51v1.89h-60.59V201.17h60.59v133.17c4.63-5.05 9.69-9.39 15.09-12.92zm287.65 231.67H675.9V201.16h60.59v351.92z"/><path d="M585.12 378.04v8.13l15.09 26.48v-37.74a66.256 66.256 0 0 1-15.09 3.14zM615.44 470.37c-14.69 2.77-28.69 4.17-41.6 4.17-8.1 0-15.85-.55-23.24-1.64l31.52 55.31c5.8 10.17 16.41 15.88 27.34 15.88 5.28 0 10.63-1.33 15.54-4.13 15.08-8.6 20.34-27.79 11.75-42.88l-16.11-28.28c-1.66.69-3.39 1.23-5.19 1.57zM550.66 372.11a31.43 31.43 0 0 0-26.69 10l-9.31 10.16c2.92 6.16 7.16 12.42 13.34 17.53 10.82 8.92 26.23 13.45 45.81 13.45 6.22 0 12.97-.51 20.05-1.42l-19.4-34.05a31.415 31.415 0 0 0-23.8-15.67z"/><path d="m410.51 443.59-19.95 2.1c-2.57 10.99-4.74 22.85-6.68 36.13-2.84 41.15 22.9 52.32 45.24 57.98 9.57 2.42 16.97 3.85 22.87 1.99 7.43-.73 14.64-4.07 20.08-10.01l2.81-3.06-9.05-22.89 20.76 10.12 43.72-47.71c-13.38-4.28-25.25-10.72-35.51-19.31-37.89-31.72-37.9-80.5-37.88-82.56.14-14.01 11.64-25.41 25.65-25.41 14.31.14 25.7 11.68 25.65 25.74 0 .12.27 12.27 6.18 25.05.26-.53.53-1.07.78-1.58 13.43-22.32 12.03-53.7-7.33-64.4-19.36-10.71-52.44-7.47-74.17 24.84-18.47 27.83-30.12 50.34-38.24 76.85l15.06 16.13z"/><path d="M524.48 414.07c-21.22-17.52-21.77-46.62-21.78-47.4.04-11.05-8.86-20.08-19.93-20.19h-.19c-11.02 0-20.01 8.88-20.11 19.93-.02 1.95-.04 48.18 35.9 78.27 12.91 10.81 28.47 18 46.56 21.61l8.09-10.12 6.46 12.19c4.65.42 9.43.65 14.37.65 12.6 0 26.14-1.36 40.57-4.08 10.92-2.05 18.11-12.57 16.05-23.49-2.05-10.92-12.57-18.11-23.49-16.05-37.16 6.99-64.91 3.19-82.49-11.32zM564.68 366.32c30.2 8.06 61.2-9.89 69.26-40.08 8.06-30.19-9.88-61.2-40.08-69.26-30.19-8.06-61.2 9.89-69.26 40.08-8.06 30.2 9.89 61.2 40.08 69.26zM57.74 321.89v258.87c0 17.18 13.92 31.09 31.09 31.09s31.1-13.91 31.1-31.09V353.75h11.66v227.01c0 17.18 13.92 31.09 31.09 31.09s31.1-13.91 31.1-31.09V321.89H57.75zM1.49 364.67c.63 10.69 9.49 18.94 20.07 18.94.39 0 .8-.01 1.19-.03 11.1-.65 19.56-10.17 18.91-21.26-5.17-88.37 4.85-135.48 16.09-158.86v65.33c20.4-41.46 13.07-105.77 10.26-124.9-7.38 1.55-17.11 5.44-27.02 14.75C8.57 189.1-4.72 258.42 1.5 364.67zM169.09 142.88H82.42c4.72 13.68 20.42 53.49 43.33 53.49 22.91 0 38.62-39.81 43.33-53.49zM165.54 31.73c-10.22-10.11-24.27-16.36-39.78-16.36-31.25 0-56.58 25.34-56.58 56.58 0 31.26 25.33 56.58 56.58 56.58 28.67 0 52.33-21.31 56.06-48.96-5.1-.26-10.48-.81-16.02-1.67-28.97-4.5-51.3-15.85-50.66-25.58 3.84 8.7 26.26 15.39 53.43 15.39 20.5 0 38.34-3.81 47.51-9.42 3.92-2.4 6.19-5.13 6.47-8.02.03 0 .06.01.09.01 7.27-.02 12.47 1.25 15.58 3.35 3.08 2.11 4.48 4.81 4.54 9.22-.01 10.06 0 17.61 0 17.61h5.03V62.85c.06-5.64-2.31-10.49-6.78-13.4-4.44-2.93-10.55-4.18-18.37-4.19-.61-.01-1.2-.05-1.79-.08-2.87-3.7-9.13-6.94-17.66-9.32-2.04-3.1-3.16-6.76-3.18-10.72 0-6.67-1.68-13.06-6.21-17.77-4.53-4.72-11.61-7.39-21.45-7.38v5.03c9.01.02 14.5 2.37 17.83 5.83 3.33 3.46 4.79 8.39 4.8 14.29 0 3.24.63 6.34 1.77 9.2-8.21-1.68-17.84-2.66-28.18-2.66-1.02 0-2.02.03-3.02.05z"/><path d="M186.1 119.34c-.11 5.17 1.75 10.38 5.62 14.4 9.34 9.7 16.91 17.87 23.03 24.73-1.51-.71-2.91-1.37-4.16-1.96-12.8-6.04-20.95-9.82-27.2-11.8-2.89 20.12-9.73 83.24 10.39 124.1v-75.73c25.09 11.84 45.73 21.54 61.19 21.54 8.64 0 15.68-3.03 20.98-10.41 12.92-18 .98-39.76-53.15-96.18l8.07-2.49 24.47-7.56-2.47-8.01-28.64 8.84-9.3 2.87c-7.36-3.53-16.44-2.37-22.67 3.63a20.236 20.236 0 0 0-3.46 4.44l-9.27 2.87-.34.1.17.55 2.3 7.46 4.46-1.38zM250.3 15.09c.05-7.69-5.76-11.84-11.2-13.4C233.58-.03 227.7 0 225.15 0v5.03c2.47-.01 7.92.03 12.46 1.46 4.62 1.57 7.61 3.71 7.66 8.6.06 3.51-2.55 7.08-5.62 10.11-1.52 1.51-3.07 2.86-4.34 4.07-1.19 1.36-2.48 2-2.76 4.56-.04.89.47 1.94 1.11 2.47 1.94 1.45 3.56 1.31 6.58 1.42 7.54-.05 12.45.14 14.59 1.31 1.08.56 1.63 1.13 2.17 2.42.52 1.28.85 3.36.84 6.34v32.69h5.03V47.79c-.01-3.31-.31-5.96-1.2-8.21-1.3-3.47-4.39-5.51-7.91-6.17-3.55-.75-7.86-.71-13.53-.72-.44 0-.84 0-1.19-.02 1.24-1.18 3.04-2.83 4.77-4.55 3.1-3.23 6.44-7.49 6.49-13.04z"/></g></svg>