<svg xmlns="http://www.w3.org/2000/svg" xml:space="preserve" viewBox="0 0 540.98 493.93" shape-rendering="geometricPrecision" text-rendering="geometricPrecision" image-rendering="optimizeQuality" fill-rule="evenodd" clip-rule="evenodd"><g fill="currentColor"><path d="M390.11 112.98c1.09 5.84-.17 11.74-3.52 16.63l-36.02 52.5 9.57 4.03c2.18.92 4.45 1.36 6.7 1.36 5.76 0 11.33-2.89 14.58-8.01l42.42-66.86c1.69-2.66 2.54-5.6 2.66-8.54l-36.87 6.78c.2.69.37 1.39.5 2.11zM448.79 30.43l38.28-4.31 43.76-7.49 4.49 18.25 5.65-14.22L526.81.01l-38.84 6.64-38.23 4.31-48.3 12.88-53.66 10.73c-3.12 4.95-11.73 10.11-23.34 14.14.7 3.17 1.12 6.36 1.24 9.57l74.3-14.85 48.8-12.98zM214.63 60.02 101.89 85.69l-58.73 14.1-15.48 7.83-1.82 19.57 15.42-7.73 59.13-14.2 112.94-25.71 8.48-1.5a53.543 53.543 0 0 1-3.09-18.77l-4.11.73zM183.3 451.28c-8.22 12.42-4.82 29.14 7.59 37.36 4.58 3.03 9.75 4.48 14.86 4.48 8.74 0 17.32-4.24 22.5-12.08 30.23-45.64 39.77-87.51 39.92-122.02l-63.76-51.7c12.43 30.96 19.85 82.1-21.11 143.95z"/><path d="M237.93 155.91c-1.16-5.82.01-11.74 3.3-16.68a22.183 22.183 0 0 1 18.49-9.89c4.39 0 8.64 1.29 12.31 3.73l40 26.66 16.67-24.29-22.08-9.3-10.06 1.85c-.98-2.15-2.2-4.13-3.67-5.9l51.48-9.47 5.59-8.14c4.15-6.04 11-9.65 18.33-9.65 4.5 0 8.84 1.35 12.55 3.9 2.4 1.65 4.42 3.71 5.98 6.07l55.54-10.22 25.9-11.26 42.89-4.93 17.54-.12 4.5-22.99-7.2-29.27-38.01 6.5-38.23 4.31-48.3 12.88-75.94 15.18a53.532 53.532 0 0 1-5 18.26c-6.14 12.9-16.93 22.64-30.4 27.42a53.253 53.253 0 0 1-17.9 3.1c-20.35 0-38.77-11.63-47.76-29.51l-9.84 1.74-112.74 25.67-58.73 14.1-15.48 7.83-2.29 24.6 11.52 22.55 35.42-7.04 45.17-14.29 99.59-17.45c-1.85 2.54-3.63 5.04-5.34 7.5-20.28 29.32-30.39 54.09-39 94.6-1.4 10.48-.46 18.79 2.03 25.48 1.32 5.59 4.4 10.82 9.2 14.72l9.93 8.08 87.58 71.19 35.36 111.65c3.64 11.49 14.26 18.83 25.7 18.83 2.69 0 5.44-.41 8.15-1.26 14.19-4.5 22.05-19.65 17.56-33.84l-37.8-119.34a26.92 26.92 0 0 0-8.7-12.78l-75.7-61.54.01-.01c6.79-25.98 20.84-51.95 33.37-73.75l-32.06-21.37c-4.94-3.29-8.3-8.31-9.46-14.13zm277.9-116.65-15.95 11.82-27.48 3.56-5.06 1.68-1.15-6.19 4.18-1.1 45.46-9.77zm-59.58 13.46 3.54 6.1-15.89 5.26-6.73-6.36 19.09-5zm-349.66 69.95-12.73 8-21.74 2.67-4.02 1.17-.84-4.09 3.31-.77 36.01-6.98zm-47.2 9.59 2.72 3.99-12.61 3.66-5.24-4.13 15.13-3.52z"/><path d="M378.03 102.82c-7.85-5.39-18.6-3.39-23.99 4.46l-40.69 59.29-44.07-29.38c-7.94-5.29-18.65-3.14-23.93 4.78-5.29 7.93-3.14 18.64 4.78 23.93l58.23 38.82c2.94 1.96 6.27 2.9 9.55 2.9 5.5 0 10.9-2.62 14.24-7.49l50.33-73.33c5.39-7.86 3.39-18.6-4.46-23.99zM22.08 93.43c1.08-.5 1.55-1.79 1.04-2.87a2.153 2.153 0 0 0-2.87-1.04c-4.64 2.16-7.66 5.23-8.98 9.13-2.05 6.02.85 11.7.98 11.94.38.74 1.13 1.16 1.91 1.16a2.153 2.153 0 0 0 1.92-3.14c-.02-.04-2.18-4.35-.71-8.6.94-2.72 3.19-4.94 6.71-6.57z"/><path d="M17.01 85.25c1.1-.46 1.62-1.73 1.15-2.82a2.15 2.15 0 0 0-2.82-1.15C8.31 84.23 3.63 88.6 1.41 94.25c-3.37 8.6.34 16.94.49 17.29.36.8 1.15 1.27 1.97 1.27.3 0 .6-.06.89-.19a2.164 2.164 0 0 0 1.07-2.86c-.03-.07-3.12-7.01-.41-13.93 1.77-4.52 5.67-8.08 11.58-10.56zM295.26 15.33c-.83.29-1.62.6-2.43.91-11.16-5.23-24.31-6.25-36.84-1.8-25.25 8.97-38.45 36.72-29.48 61.97 8.97 25.26 36.72 38.46 61.97 29.48 23.17-8.23 36.17-32.25 31.25-55.66-4.2 1.25-8.7 2.36-13.43 3.25-24.71 4.68-46.01 1.91-48.28-6.13 5.6 5.93 25.64 4.9 47.6-2.9 16.57-5.89 29.89-14.08 35.69-21.24 2.64-3.27 3.73-6.32 2.83-8.84-2.7-7.61-22.41-7.63-44.94-.37-1.3.42-2.61.85-3.93 1.32z"/></g></svg>