<svg xmlns="http://www.w3.org/2000/svg" xml:space="preserve" viewBox="0 0 92.53 188.25" shape-rendering="geometricPrecision" text-rendering="geometricPrecision" image-rendering="optimizeQuality" fill-rule="evenodd" clip-rule="evenodd"><g fill="currentColor"><path d="M6.07 73.33c.59 0 1.18-.09 1.75-.26l26.15-7.9 10.64 41.54L39 178c-.41 5.16 3.45 9.67 8.61 10.08 5.16.41 9.68-3.45 10.08-8.61l5.43-68.96 3.11-.8v69.16c0 5.18 4.2 9.37 9.37 9.37 5.18 0 9.38-4.2 9.38-9.37v-60.53c-3.6-.7-6.33-3.88-6.32-7.68.05-22.49-2.68-35.41-5.64-42.8l1.48-1.02c3.14 7.67 5.95 20.92 5.9 43.83a6.065 6.065 0 0 0 6.05 6.08h.01c3.35 0 6.06-2.71 6.07-6.05.05-22.59-2.59-39.63-7.86-50.9-2.01-4.3-4.39-7.76-7.16-10.37-3.81-3.6-7.45-4.69-9.65-5-.93-.24-1.93-.26-2.92 0L36.56 51.7c-.27.07-.52.16-.77.26l-19.52 5.89 3.3-8.4c1.99-.6 1.41-5.47-.11-8.74l4.23-1.19c-.6-1.08-1.08-2.23-1.47-3.43l-7.59 2.14-1.2.33c-.07.02-.14.05-.21.07l-.21.06c-.07.02-.13.05-.2.08a6.06 6.06 0 0 0-3.43 3.43L.41 65.07A6.059 6.059 0 0 0 1.6 71.4a6.084 6.084 0 0 0 4.46 1.95z"/><path d="M44.37 46.9C53.5 44.56 59 35.27 56.66 26.14c-2.34-9.13-11.63-14.63-20.76-12.29-9.13 2.34-14.63 11.63-12.29 20.76 2.34 9.13 11.63 14.63 20.76 12.29zm-3.08-13.62c4.96-1.88 9.86-1.08 10.95 1.79 1.09 2.87-4.02 1.53-8.98 3.41-4.96 1.88-7.89 6.28-8.98 3.41-1.09-2.87 2.04-6.73 7-8.61zM76.02 9.47c-1-5.81-11.99-3.18-14.74 3.04 9.38-1.37 15.68 2.42 14.74-3.04zM59.97.51c-3.89-2.59-8.36 5.16-6.29 10.13C58 4.5 63.62 2.95 59.97.51zM60.32 22.38c6.56.27 10.36 3.66 10.42-.18.06-4.08-7.75-3.7-10.42.18zM3.97 27.02l.54.79c2.34-1.6 3.52-3.36 3.51-5.25-.03-3.1-3.31-5.29-3.45-5.38l-.52.8c.03.02 2.99 1.99 3.02 4.59.01 1.55-1.03 3.04-3.09 4.45zM11.09 20.41c.78.13 1.57.06 2.36-.23 1.13-.4 2.29-1.22 3.44-2.46l-.7-.65c-1.74 1.85-3.41 2.66-4.95 2.4-2.61-.44-4.12-3.79-4.14-3.82l-.87.39c.07.16 1.74 3.85 4.85 4.38zM14.02 24.45c-.11 3.16 3.52 5.59 3.67 5.69l.53-.8c-.03-.02-3.33-2.24-3.24-4.86.05-1.49 1.2-2.88 3.41-4.14l-.47-.83c-2.52 1.43-3.83 3.09-3.89 4.94zM5.46 29.64l.73.61c1.68-2.03 3.29-2.94 4.79-2.71 2.59.4 4.13 4.08 4.15 4.12l.88-.36c-.07-.17-1.76-4.22-4.88-4.7-1.85-.29-3.76.74-5.67 3.04z"/></g></svg>