<svg xmlns="http://www.w3.org/2000/svg" xml:space="preserve" viewBox="0 0 110.96 143.33" shape-rendering="geometricPrecision" text-rendering="geometricPrecision" image-rendering="optimizeQuality" fill-rule="evenodd" clip-rule="evenodd"><g fill="currentColor" fill-rule="nonzero"><path d="M6.54 121.16c1.87-5.07 3.17-10.22 3.87-15.39-2.93 3.06-5.85 6.45-8.64 10.18-1.9 2.54-1.37 6.13 1.16 8.03.95.71 2.05 1.08 3.16 1.13-.17-1.32-.02-2.66.45-3.94zM66.2 43.64c.87.26 1.63.71 2.25 1.29a14.004 14.004 0 0 1-1.24-9.32c-2.06-.53-4.42-.92-7.12-1.07-4.78-.26-10.53.26-17.35 2.1l23.46 7zM31.78 25.46c6.94 1.62 13.87-2.7 15.49-9.64 1.62-6.94-2.7-13.87-9.64-15.49-6.94-1.62-13.87 2.7-15.49 9.64-1.61 6.94 2.7 13.87 9.64 15.49z"/><path d="M8.15 74.04c1.24 3.09 4.04 11.35 4.03 22.58 0 7.22-1.13 15.67-4.56 24.94a7.162 7.162 0 0 0 4.23 9.21c.82.3 1.66.45 2.49.45 2.91 0 5.65-1.79 6.72-4.68 4.07-10.98 5.46-21.19 5.46-29.92-.01-14.15-3.59-24.37-5.27-28.42.01-.64-.01-1.34-.06-2.11-1.02-7.59.4-16.16 1.83-23.37L13.9 40a5.658 5.658 0 0 1-3.4-2.77 5.69 5.69 0 0 1-.45-4.37c.72-2.41 2.98-4.1 5.49-4.1.55 0 1.11.08 1.64.24l7.52 2.24c-.42-3.97-2.49-7.48-5.87-8.32-4.89-1.22-11.99 1.44-14.88 9.83C.05 44.32-.79 51.85.69 64.59c1.14 5.86 4.1 8.38 7.46 9.42z"/><path d="M16.84 30.12c-2.43-.73-4.98.66-5.71 3.08-.72 2.43.66 4.98 3.09 5.71l49.03 14.62a4.58 4.58 0 0 0 5.7-3.09c.73-2.43-.66-4.98-3.08-5.71L16.84 30.11z"/><path d="M76.8 51.96c-.19-.06-.37-.12-.56-.19-2.55-.9-4.67-2.48-6.25-4.45.36 1.08.41 2.28.06 3.45-.72 2.41-2.98 4.1-5.49 4.1-.55 0-1.1-.08-1.64-.24l-10.59-3.16c-8.8 8.84-19.7 20.36-26.22 29.28.43 2.18.8 4.56 1.08 7.14.9.43 1.89.91 2.94 1.41-.86.57-1.75 1.18-2.66 1.82.12 1.76.19 3.59.19 5.5 0 3.07-.17 6.13-.5 9.2 2.91-2.42 5.71-4.51 8.27-6.24a99.81 99.81 0 0 1 7.05-4.39c3.01 1.42 5.33 2.52 5.96 2.79-.53 1.44-1.11 3.1-1.69 4.98-2.51 8.11-5.15 20.18-4.89 34.75a5.759 5.759 0 0 0 4.04 5.38c.57.18 1.17.27 1.8.25 3.17-.06 5.69-2.67 5.63-5.83-.24-13.06 2.15-23.95 4.38-31.15.46-1.49.91-2.82 1.34-3.98 3 1.18 6.01 2.32 9.03 3.39 1.03-10.52 5.23-24.93 8.94-36.14-2.27-2.51-4.99-5.87-8.26-10.22a5.092 5.092 0 0 1-.98-3.83c.19-1.36.91-2.57 2.01-3.4a5.1 5.1 0 0 1 3.1-1.04c1.64 0 3.14.75 4.13 2.06 1.14 1.52 2.22 2.92 3.23 4.2.41 1.08.82 2.2 1.21 3.32-1.52-1.83-3.3-4.09-5.36-6.83a4.018 4.018 0 0 0-5.62-.8 4.018 4.018 0 0 0-.8 5.62c4.07 5.42 7.16 9.13 9.58 11.63 1.22 1.25 2.27 2.2 3.33 2.95 1.08.71 2.1 1.42 4.04 1.49h.02c.5 0 1.06-.09 1.61-.28.13-.04.26-.1.39-.15.01-.01.02-.01.04-.01.01 0 .01-.01.02-.01.04-.02.08-.05.13-.07.09-.04.17-.09.25-.14 1.21-.71 1.9-1.85 2.18-2.68.33-.95.37-1.71.38-2.44 0-.2-.01-.4-.03-.6-.11-1.96-.6-3.92-1.23-6.12-1.06-3.61-2.59-7.68-3.85-10.84a14.035 14.035 0 0 1-9.73.52zM110.85 20.85a.868.868 0 0 0-.9-.43l-8.54 1.53 2.39-9.4a.851.851 0 0 0-.35-.92c-.3-.2-.69-.2-.99.01l-7.36 5.3-2.69-9.75a.858.858 0 0 0-1.63-.08l-3.66 9.64-5.52-5.5a.856.856 0 0 0-.96-.17c-.33.15-.53.48-.5.84l.55 8.08a.863.863 0 0 0 1.72-.12l-.4-5.8 4.84 4.82c.2.2.5.29.79.23.28-.06.52-.26.62-.54l3.2-8.42 2.32 8.4c.07.27.28.49.54.58.27.09.56.05.79-.11l6.44-4.64-2.14 8.41c-.07.28 0 .58.2.8.2.21.49.31.78.26l7.37-1.32-6.44 7.13c-.18.2-.25.46-.21.72.05.26.21.49.44.61l4.93 2.62-5.26 1.54a.85.85 0 0 0-.58 1.07c.11.38.45.62.83.62.08 0 .16-.01.24-.03L109 34.7c.34-.1.58-.39.61-.74a.857.857 0 0 0-.45-.85l-5.82-3.1 7.39-8.17c.25-.27.29-.67.11-1z"/><path d="M76.62 50.69c6.71 2.39 14.09-1.12 16.48-7.84 2.38-6.71-1.12-14.09-7.84-16.47-6.71-2.39-14.09 1.12-16.47 7.84-2.38 6.71 1.12 14.09 7.84 16.47z"/></g></svg>