<svg xmlns="http://www.w3.org/2000/svg" xml:space="preserve" viewBox="0 0 880.47 750.77" shape-rendering="geometricPrecision" text-rendering="geometricPrecision" image-rendering="optimizeQuality" fill-rule="evenodd" clip-rule="evenodd"><g fill="currentColor"><path d="M880.47 740.83V608.98c0-53.11-43.2-96.31-96.31-96.31H503.07l-8.16 55.03h289.25c22.76 0 41.27 18.52 41.27 41.28v131.85h55.03zM155.18 512.68c.11 1.98.2 3.95.32 5.97.59 10.09-2.79 19.8-9.5 27.35-6.71 7.55-15.97 12.04-26.06 12.63-.72.04-1.48.06-2.24.06-19.99 0-36.57-15.65-37.74-35.62-.17-2.99-.32-5.94-.47-8.89C34.38 522.16 0 561.62 0 608.99v131.85h55.03V608.99c0-22.76 18.51-41.28 41.27-41.28h60.58v-55.03h-1.7zM363.57 512.68v55.03h99.44l8.15-55.03z"/><path d="M416.03 368.82c.25-58.93-1.93-102.07-27.28-127.63-13.84-13.95-33.08-21.05-58.56-21.81-1.15-.15-2.33-.26-3.53-.26H193.78c-.59 0-1.18.05-1.76.09-9.71.25-28.51 3.4-47.74 21.48-44.34 41.67-62.52 136.47-54.02 281.78.86 14.63 12.98 25.91 27.44 25.91.54 0 1.09-.01 1.63-.04 15.17-.89 26.75-13.91 25.86-29.08-7.07-120.86 6.63-185.28 22-217.26v161.59c9.63-13.07 25.08-21.6 42.52-21.6 23.72 0 43.84 15.71 50.5 37.27 6.66-21.56 26.79-37.27 50.5-37.27 17.45 0 32.9 8.53 42.53 21.61V285.39c8.33 17.66 7.97 61.02 7.61 103.12-.1 11.98 7.57 22.65 18.96 26.38l100.95 33.06 8.19-55.23-72.92-23.88zM512.52 456.89c11.57 0 22.34-7.37 26.14-18.96 4.73-14.44-3.14-29.98-17.59-34.71l-1.69-.56-8.03 54.14c.39.02.78.09 1.17.09zM317.12 120.71c0 14.22-11.58 25.79-25.8 25.79s-25.8-11.57-25.8-25.79c0-.87.05-1.73.13-2.58h-10.87c.08.85.13 1.71.13 2.58 0 14.22-11.58 25.79-25.8 25.79-14.23 0-25.8-11.57-25.8-25.79 0-.87.05-1.73.13-2.58h-20.52c-.06 1.32-.1 2.66-.1 4 0 42.74 34.65 77.39 77.39 77.39 42.75 0 77.39-34.65 77.39-77.39 0-1.34-.03-2.68-.1-4h-20.52c.09.85.13 1.71.13 2.58zM183.62 111.25h21.54c3.78-9.55 13.09-16.34 23.97-16.34 10.88 0 20.19 6.79 23.97 16.34h14.25c3.78-9.55 13.09-16.34 23.97-16.34 10.88 0 20.19 6.79 23.97 16.34h21.54a76.897 76.897 0 0 0-8.55-25.98H192.15a76.897 76.897 0 0 0-8.55 25.98zM333.01 66.78l-4.04-48.44S304.9 0 259.8 0s-69.18 18.34-69.18 18.34l-4.03 48.44h-51.91v11.61h250.23V66.78h-51.9z"/><path d="M229.13 101.23c-10.76 0-19.48 8.72-19.48 19.48s8.72 19.48 19.48 19.48 19.48-8.72 19.48-19.48-8.72-19.48-19.48-19.48zM291.33 101.23c-10.76 0-19.48 8.72-19.48 19.48s8.72 19.48 19.48 19.48 19.48-8.72 19.48-19.48-8.72-19.48-19.48-19.48zM252.25 494.81c0-23.49-19.05-42.53-42.53-42.53s-42.53 19.03-42.53 42.53v213.43c0 23.49 19.05 42.53 42.53 42.53s42.53-19.03 42.53-42.53V494.81zM310.72 452.29c-23.48 0-42.53 19.03-42.53 42.52v213.43c0 23.49 19.05 42.53 42.52 42.53 23.49 0 42.53-19.03 42.53-42.53V494.81c0-23.49-19.05-42.53-42.53-42.52zM519.84 329.16l-10.8-1.6-61.14 412.38 10.81 1.6zM547.34 221.02c2.18 4.59 4.61 9.99 7.16 15.69 15.21 33.79 36.05 80.06 57.2 80.07 4.95 0 9.59-2.45 13.79-7.28 1.41-1.62 1.16-4.12-.9-9.26-8.14-20.28-45.73-79.59-73.89-84.1-3.93-7.89-7.65-11.58-11.65-11.58-9.42 0-13.23 22.25-14.56 33.74l-2.18-.32-11.78 79.38 10.81 1.6 11.78-79.39-2.79-.41c3.78-12.01 9.47-18.15 17-18.14zm73.88 85.53c-3.09 3.41-6.2 5.06-9.5 5.06-17.82 0-38.68-46.35-52.49-77.03-1.98-4.4-3.89-8.64-5.67-12.47 28.44 9.38 67.09 75.53 67.66 84.44zm-88.89-83.02c2.02-8.25 4.55-13.82 6.74-13.82.41 0 2.4.34 5.76 6.3-4.86.64-9.03 3.15-12.49 7.51z"/></g></svg>