<svg xmlns="http://www.w3.org/2000/svg" xml:space="preserve" viewBox="0 0 225.26 262.3" shape-rendering="geometricPrecision" text-rendering="geometricPrecision" image-rendering="optimizeQuality" fill-rule="evenodd" clip-rule="evenodd"><g fill="currentColor"><path d="M44.91 76.74 6.98 68.31a5.735 5.735 0 0 0-6.85 4.36 5.74 5.74 0 0 0 4.36 6.85l30.94 6.88 6.86 28.35a77.48 77.48 0 0 1 10.78-4.27l-8.16-33.73zM184.02 242.18c0-10.83-8.78-19.61-19.61-19.61s-19.61 8.78-19.61 19.61 8.78 19.61 19.61 19.61 19.61-8.78 19.61-19.61zm-31.12 0c0-6.36 5.15-11.51 11.51-11.51 6.36 0 11.51 5.15 11.51 11.51 0 6.36-5.15 11.51-11.51 11.51-6.36 0-11.51-5.15-11.51-11.51z"/><path d="M170.18 242.18c0-3.18-2.59-5.77-5.77-5.77-3.18 0-5.77 2.59-5.77 5.77 0 3.18 2.59 5.77 5.77 5.77 3.18 0 5.77-2.59 5.77-5.77zM138.22 64.57c17.83 0 32.28-14.45 32.28-32.28 0-17.83-14.45-32.28-32.28-32.28-17.83 0-32.28 14.45-32.28 32.28 0 17.83 14.45 32.28 32.28 32.28zM124.46 122.64c-5.55-16.82-8.54-34.69-11.29-48.32-1.65-14.77-13.17-28.5-25.65-26.64-12.49 1.86-26.35 14.79-25 36.97.57 8.48 1.4 16 2.62 23.06 3.83-.57 7.75-.87 11.74-.87 17.82 0 34.29 5.88 47.57 15.81zM182.71 129.09c-3.9-8.41-13.56-12.47-22.3-9.35l-27.8 9.91a79.833 79.833 0 0 1 19.62 31.09l4.81-1.72 34.01 73.4c3.04 6.55 9.51 10.4 16.28 10.4 2.52 0 5.09-.54 7.53-1.67 8.99-4.16 12.9-14.83 8.73-23.81L182.7 129.1z"/><path d="M76.88 110.62c-41.89 0-75.84 33.96-75.84 75.84 0 41.89 33.96 75.84 75.84 75.84 41.89 0 75.84-33.96 75.84-75.84 0-41.89-33.96-75.84-75.84-75.84zm3.16 15.25c8.74.45 17 2.78 24.38 6.56l-24.38 42.24v-48.8zm47.7 27.57-42.23 24.38 24.38-42.23a61.222 61.222 0 0 1 17.85 17.85zm-62.66 36.18-42.24 24.39a60.238 60.238 0 0 1-6.56-24.39h48.8zm-48.8-6.32c.45-8.75 2.77-17 6.56-24.39l42.24 24.39h-48.8zm57.43 63.75c-8.75-.45-17-2.78-24.39-6.56l24.39-42.24v48.8zm6.32-48.8 24.39 42.24a60.238 60.238 0 0 1-24.39 6.56v-48.8zm8.63-14.95 42.24-24.39a60.238 60.238 0 0 1 6.56 24.39h-48.8zm48.8 6.32c-.45 8.75-2.78 17-6.56 24.39l-42.24-24.39h48.8zm-63.75-63.75v48.8l-24.39-42.24a60.238 60.238 0 0 1 24.39-6.56zm-29.86 9.73 24.38 42.23L26 153.45a61.222 61.222 0 0 1 17.85-17.85zM26 219.48l42.23-24.38-24.38 42.23A61.222 61.222 0 0 1 26 219.48zm83.88 17.85L85.5 195.1l42.23 24.38a61.222 61.222 0 0 1-17.85 17.85z"/></g></svg>