<svg xmlns="http://www.w3.org/2000/svg" xml:space="preserve" viewBox="0 0 120.73 216.18" shape-rendering="geometricPrecision" text-rendering="geometricPrecision" image-rendering="optimizeQuality" fill-rule="evenodd" clip-rule="evenodd"><g fill="currentColor"><path d="M25.91 44.77c-1.2.4-3.4 1.49-4.43 4.19 3.61-1.92 6.81-3.45 9.19-4.13a7.312 7.312 0 0 0-4.76-.06zM25.54 72.84c3.24 11.14 5.69 17.91 12.38 17.97h.05c1.24 0 6.83-.42 8.12-7.76 1.18-6.68 2.77-11.45 4.41-14.82v136.69c0 6.22 5.05 11.27 11.27 11.27s11.27-5.04 11.27-11.27v-82.28h4.22v82.28c0 6.22 5.05 11.27 11.27 11.27s11.27-5.04 11.27-11.27V68.24c3.8 7.77 7.79 24 5.83 57.52a7.278 7.278 0 0 0 6.85 7.7c.15.01.29.01.43.01 3.83 0 7.04-2.99 7.27-6.87 2.25-38.51-2.56-63.63-14.31-74.67-5.11-4.8-10.1-5.63-12.67-5.69-.15-.01-.3-.02-.45-.02H57.54c-.11 0-.22.01-.33.02-3.71.05-12.89 1.66-19.65 15.26-1.02-4.03-1.83-7.63-2.07-9.35.03-.44.01-.89-.04-1.34-5.95 1.09-10.06 4.26-13.6 7.52.9 4.19 2.31 9.8 3.68 14.52zm8.41-16.63zm-1.52 1.44zM75.15 41.02c11.33 0 20.51-9.18 20.51-20.51C95.66 9.18 86.48 0 75.15 0 63.82 0 54.64 9.18 54.64 20.51c0 11.33 9.18 20.51 20.51 20.51zm0-16.21c3.4 0 6.15 2.76 6.15 6.15 0 3.4-2.75 6.15-6.15 6.15-3.4 0-6.15-2.76-6.15-6.15 0-3.4 2.76-6.15 6.15-6.15z"/><path d="M39.93 48.39v-1.93h-7.04c-4.24 0-19.3 9.45-21.11 10.14-1.35.52-2.59-6.28-2.59-6.28H.98S-.68 58.6.29 61.08c.97 2.48 2.65 4.28 6.9 4.28 10.21 0 14.25-16.97 32.73-16.97zM10.39 36.49c1.13-.76 3.01-1.22 5.64-1.21 2.94 0 5.45-.98 7.23-2.64 1.78-1.65 2.8-3.95 2.8-6.48 0-2.14.53-3.92 1.74-5.18 1.21-1.25 3.2-2.11 6.46-2.11v-1.82c-3.57 0-6.13.96-7.78 2.67-1.64 1.71-2.25 4.02-2.25 6.44-.03 4.04-3.15 7.26-8.2 7.29-2.83 0-5.05.46-6.66 1.52-1.62 1.06-2.48 2.82-2.46 4.86v6.38h1.82v-6.38c.02-1.6.53-2.58 1.65-3.34z"/><path d="M3.28 34.37c0-1.08.12-1.83.31-2.3.2-.47.4-.67.79-.88.78-.42 2.56-.49 5.29-.47 1.1-.04 1.68.01 2.39-.51.23-.19.42-.57.4-.9-.1-.93-.57-1.16-1-1.65-.46-.44-1.02-.93-1.57-1.48-1.11-1.1-2.06-2.39-2.04-3.66.02-1.77 1.1-2.55 2.78-3.12 1.64-.52 3.62-.53 4.51-.53v-1.82c-.93 0-3.06-.01-5.06.61-1.97.57-4.08 2.07-4.06 4.86.02 2.01 1.22 3.55 2.35 4.72.63.63 1.28 1.22 1.73 1.65-.13.01-.27.01-.43.01-2.05 0-3.62-.01-4.9.26-1.27.24-2.39.98-2.87 2.23-.32.82-.43 1.77-.43 2.98v11.85h1.82V34.37z"/></g></svg>