<svg xmlns="http://www.w3.org/2000/svg" xml:space="preserve" viewBox="0 0 909.92 963.54" shape-rendering="geometricPrecision" text-rendering="geometricPrecision" image-rendering="optimizeQuality" fill-rule="evenodd" clip-rule="evenodd"><g fill="currentColor"><path d="M369.77 683.7v229.42c0 5.15-.69 10.13-1.87 14.92 6.36 20.56 25.51 35.5 48.16 35.5 27.84 0 50.41-22.57 50.41-50.41V683.71c0-27.84-22.57-50.41-50.41-50.41h-71.83c15.46 11.44 25.54 29.75 25.54 50.41zM448.62 437.43l29.88-15.22c-15.08-5.78-30-11.01-44.53-15.69l5.63-13.29 24.65-58.24 6.1 2.58 20.44-48.3-21.86-9.26-20.44 48.31 6.1 2.58-24.64 58.22-6.02 14.22c-77.35-24.02-142.06-33.3-160.57-35.62-2.41-.58-4.93-.93-7.52-.93h-35.23a101.514 101.514 0 0 1-36.04 6.59c-12.68 0-24.82-2.34-36.03-6.59H96.86c-3.48 0-6.83.58-9.97 1.61-11.3 2.86-27.11 10.99-41.91 33.03-9.94 14.81-18.48 34.65-25.61 59.25C11.04 489.45 4.64 524.74.29 566.44c-1.54 14.76 3.49 28.8 14.17 39.56 21.31 21.48 68.1 27.22 112.08 27.22 22.4 0 44.06-1.49 61.25-3.15 18.1-1.75 31.35-17.84 29.6-35.94-1.75-18.1-17.89-31.38-35.94-29.6-44.81 4.34-94.39 2.83-114.37-2.91 4.87-41.38 11.3-69.89 17.52-89.45l9.4 1.66c-5.64 17.44-11.68 43.1-16.48 80.43 12.11 2.11 30.36 3.32 51.09 3.32 17.36 0 35.31-.85 51.92-2.46 1.38-.14 2.77-.21 4.15-.21 21.9 0 40.01 16.47 42.12 38.31a42.164 42.164 0 0 1-7.05 27.74h67.9V438.12c32.39 5.72 82.97 16.47 137.91 35.03.19-3.71.82-7.42 2-11.05 3.5-10.76 10.99-19.53 21.08-24.67zm-31.31-4.02c-9.2-2.94-15.33-9.48-13.69-14.63 1.64-5.14 10.43-6.93 19.63-4 9.21 2.94 15.33 9.48 13.69 14.63-1.64 5.14-10.43 6.93-19.63 4zM504.1 504.61c4.55 2.15 9.34 3.17 14.06 3.17 12.33 0 24.16-6.96 29.78-18.85 1.28-2.7 2.12-5.49 2.62-8.3l-46.77 23.83c.1.05.21.09.31.14z"/><path d="M277.16 271.31c0-51.14-41.45-92.59-92.59-92.59s-92.59 41.45-92.59 92.59 41.46 92.59 92.59 92.59c51.14 0 92.59-41.46 92.59-92.59zM256.61 734.12v179.01c0 27.84 22.57 50.41 50.41 50.41 27.84 0 50.41-22.57 50.41-50.41V683.71c0-27.84-22.57-50.41-50.41-50.41H206.86c-5.35 3.32-11.5 5.54-18.18 6.18-21.94 2.12-42.85 3.2-62.16 3.2-23.57 0-44.06-1.64-61.48-4.84v42.2c0 .51.05 1 .08 1.5-.03.72-.11 1.44-.11 2.17 0 27.84 22.57 50.41 50.41 50.41h141.2z"/><path d="M32.33 944.33h193.42V750.92H32.33zM906.55 436.06c-27.43-87.85-54.89-134.79-114.22-199.26-43.42-46.64-97.7-43.37-126.25-21.09a44.843 44.843 0 0 0-5.11 4.7 32.864 32.864 0 0 0-7.62 9.61l-48.25 92.29-111.17-16.21-18.57 43.89-6.1-2.58-7.73 18.24c3.45 1.94 7.28 3.32 11.43 3.93l84.63 12.35 29.58-15.07L690.36 254.2a42.468 42.468 0 0 1 31.26-13.76 42.25 42.25 0 0 1 28.62 11.13c8.35 7.65 13.22 18.09 13.72 29.39.5 11.32-3.44 22.14-11.09 30.49l-50.41 55.04c27.72 39.86 57.31 86.52 72.31 133.97l-115.42 154.9a51.46 51.46 0 0 0-9.07 41.43l46.64 219.48c5.14 24.18 26.49 40.76 50.26 40.76 3.55 0 7.14-.37 10.75-1.14 27.79-5.9 45.53-33.22 39.62-61.01l-41.8-196.71 141.44-189.84c4.66-6.25 7.63-13.22 9.1-20.39 4.39-13.72 5.13-30.65.24-51.88z"/><path d="M743.86 258.54c-13.4-12.28-34.23-11.37-46.51 2.04L593.01 374.5l-140.09 71.37c-16.2 8.25-22.64 28.08-14.39 44.28 5.81 11.41 17.37 17.98 29.36 17.98 5.03 0 10.13-1.16 14.92-3.6l145.41-74.07c3.51-1.79 6.67-4.19 9.33-7.1l108.36-118.31c12.28-13.4 11.36-34.23-2.04-46.51zM632.09 96.53c-38.69.38-90.45 4.01-132.01 7.97-1.1 14.76 1.32 30 7.77 44.47a92.202 92.202 0 0 0 22.64 31.13c7.02-6.15 29.42-25 47.61-32.11 8.65-6.74 32.88-26.49 53.99-51.47zM593.93 145.82c15.74 4.29 34.84 31.47 34.89 50.57.42-.18.84-.33 1.26-.52 37.88-16.87 58.83-56.05 54.31-95.17-6.55-2.8-21.69-4.03-41.51-4.18-16.72 20.91-36.08 38.52-48.95 49.3zM690.15 94.38c.42.26.77.44 1.05.58.84-8.28-11.74-41-24.93-68.99L614.31.01l-81.19 15.64c-5.87 6.2-39.85 43.71-41.39 81.4 31.85-3.13 175.65-16.4 198.43-2.67z"/></g></svg>