<svg xmlns="http://www.w3.org/2000/svg" xml:space="preserve" viewBox="0 0 599.24 668.18" shape-rendering="geometricPrecision" text-rendering="geometricPrecision" image-rendering="optimizeQuality" fill-rule="evenodd" clip-rule="evenodd"><g fill="currentColor"><path d="M.8 386.78c-.29 4.86-.55 9.84-.78 14.93-.53 11.91 8.68 22 20.6 22.53.33.01.66.02.99.02 3.59 0 7-.89 9.99-2.46.8-9.55 1.65-18.95 2.51-28.18L.8 386.78z"/><path d="M48 270.3h5.41c-10.17 77.3-24.7 208.57-24.7 327.84 0 39.12 77.55 47.22 122.08 47.22 44.52 0 122.08-8.1 122.08-47.22 0-84.08-7.22-174.12-15.04-247.02l-.11.27c-68.63-28.69-112.31-77.1-138.79-118.12l-7.37 5.77c-.14-.11-13.93-10.84-24.24-16.64-10.07-5.67-24.26-9.58-24.4-9.61l-4.37-1.2.41-4.51c.12-1.29 1-10.66 2.5-24.56-11.6 10.5-23.29 26.97-33.14 52.11-12.19 31.01-22.19 75.55-26.8 141.29l33.64 6.91c4.19-43.1 8.86-81.96 12.86-112.52zM269.97 421.81c3 1.57 6.4 2.46 9.99 2.46.33 0 .65-.01.99-.02 11.91-.54 21.13-10.62 20.6-22.53-.23-5.1-.51-10.05-.8-14.93l-33.3 6.84c.87 9.24 1.71 18.64 2.51 28.19z"/><path d="m243.05 211.57-4.38 1.19c-.15.04-14.35 3.95-24.41 9.61-10.31 5.8-24.1 16.53-24.24 16.64l-8.25-6.45c9.26-20.8 13.51-44.29 14.89-67.17h-19.4c-2.96 5.87-13.68 12.48-26.48 12.48s-23.52-6.61-26.48-12.48h-19.4c.72 11.98 2.24 24.12 4.85 35.96 4.54 8.76 10.02 18.36 16.55 28.42 25.39 39.05 66.67 84.57 130.53 112.36-2.96-26.94-5.97-51.3-8.68-71.85h5.41c4 30.56 8.67 69.42 12.86 112.52l33.62-6.9c-6.38-90.4-22.75-140.79-41.41-170.83-5.95-9.52-12.25-16.89-18.52-22.55 1.5 13.88 2.38 23.24 2.5 24.53l.42 4.51zM215.16 668.09c17.14-1.23 30.31-15.2 30.94-31.99-18.94 7.97-43.05 11.66-63.3 13.33 5.8 11.88 18.37 19.66 32.36 18.66zM86.41 668.09c13.99 1 26.56-6.78 32.36-18.66-20.24-1.67-44.36-5.35-63.3-13.33.63 16.79 13.8 30.76 30.94 31.99z"/><path d="M73.27 129.94c-5.51 40.71-8.95 77.63-8.95 77.63s14.84 4.05 25.63 10.12c10.79 6.07 24.91 17.09 24.91 17.09-29.65-66.65-6.55-158.31-1.53-176.29h2.36c-2.19 7.19-9.68 38.91-11.08 77.14 10.49 11.02 27.24 18.2 46.17 18.2 18.93 0 35.68-7.18 46.17-18.2-1.39-38.23-8.89-69.96-11.08-77.14h2.36c5.01 17.98 28.11 109.64-1.53 176.29 0 0 14.12-11.02 24.91-17.09 10.79-6.07 25.63-10.12 25.63-10.12s-3.44-36.92-8.95-77.63c-.54-4.01 1.25-8.69 3.58-13.53 3.75-7.79 8.87-15.98 7.84-22.4-1.38-8.61-8.98-15.33-15.19-21.92-3.83-4.06-7.13-8.07-8.12-12.44-.2-.87-.4-1.71-.59-2.56a8.964 8.964 0 0 0 4.07-6.15c.08-.48.15-.95.15-1.45 0-2.16-.79-4.12-2.06-5.67-1.62-1.97-4.03-3.26-6.77-3.3C195.52-2.43 150.78.03 150.78.03s-44.74-2.47-60.42 40.49c-2.74.05-5.15 1.33-6.77 3.3-1.27 1.55-2.07 3.51-2.07 5.67 0 .49.07.97.15 1.45.42 2.59 1.93 4.8 4.07 6.15-.2.85-.4 1.69-.59 2.56-.99 4.37-4.29 8.38-8.12 12.44-6.21 6.59-13.81 13.31-15.19 21.92-1.03 6.41 4.1 14.61 7.84 22.4 2.33 4.84 4.13 9.52 3.58 13.53zm44.81-1.2c10.88.32 14.45-6.03 17.82-9.95 3.36-3.93 10.62-3.24 10.62-3.24 4.05 1.36 2.27 7.73 2.27 7.73s-6.16 0-12.89 5.6c-6.73 5.61-24.54-.33-17.82-.14zm65.42 0c6.73-.2-11.09 5.75-17.81.14-6.73-5.6-12.89-5.6-12.89-5.6s-1.77-6.36 2.27-7.73c0 0 7.25-.69 10.62 3.24 3.36 3.92 6.94 10.26 17.81 9.95zM438.92 667.77c10.89 0 20.25-6.46 24.51-15.75-20.31-.39-37.5-2.43-50.67-4.7 2.92 11.74 13.51 20.45 26.16 20.45zM501.88 667.77c12.64 0 23.23-8.71 26.15-20.45-13.17 2.27-30.35 4.31-50.67 4.7 4.26 9.29 13.62 15.75 24.51 15.75zM470.4 614.32c-40.34 0-69.87-9.86-90.06-20.55l3.05 40.33s33.72 11.7 87.01 11.7c53.29 0 87.02-11.7 87.02-11.7l3.05-40.33c-20.19 10.69-49.72 20.55-90.06 20.55zM470.4 152.02c20.12 0 36.43-19.18 36.43-42.83s-16.31-26.42-36.43-26.42-36.43 2.77-36.43 26.42c0 23.65 16.31 42.84 36.43 42.83z"/><path d="M345.71 566.05c12.36 11.5 52.7 42.87 124.69 42.87 72 0 112.33-31.37 124.69-42.87 2.77-2.58 4.15-4.17 4.15-4.17s-10.92-323.94-18.89-348.79c-5.83-18.16-24.97-31.09-34.87-36.75.08-2.14.13-4.29.13-6.45 0-62.77-13.49-145.59-75.21-145.59-61.72 0-75.21 82.82-75.21 145.59 0 2.16.05 4.32.13 6.45-9.9 5.66-29.04 18.59-34.87 36.75-7.97 24.85-18.89 348.79-18.89 348.79s1.38 1.59 4.15 4.17zM470.4 77.37c14.61 0 41.83 0 41.83 31.81 0 26.6-18.77 48.23-41.83 48.23s-41.82-21.64-41.82-48.23c0-31.81 27.2-31.81 41.82-31.81z"/></g></svg>