<svg xmlns="http://www.w3.org/2000/svg" xml:space="preserve" viewBox="0 0 178.18 301.22" shape-rendering="geometricPrecision" text-rendering="geometricPrecision" image-rendering="optimizeQuality" fill-rule="evenodd" clip-rule="evenodd"><g fill="currentColor"><path d="M128.32 159.19c1.5 1.72 3.67 2.7 5.94 2.7.14 0 .29 0 .43-.01a7.907 7.907 0 0 0 6.05-3.36l20.91-29.95a7.89 7.89 0 0 0-1.95-10.99 7.89 7.89 0 0 0-10.99 1.95l-15.35 21.98c-12.37-12.14-22.39-16.5-29.28-17.85.96 4.91 2.6 11.47 5.36 18.98 4.89 2.83 11.25 7.81 18.89 16.55zM35.8 171.83l-25.23-9.06c-4.1-1.47-8.62.66-10.1 4.76-1.47 4.11.66 8.63 4.77 10.1l34.38 12.34c.87.31 1.77.46 2.67.46 1.47 0 2.93-.41 4.21-1.22a7.843 7.843 0 0 0 3.64-5.88c1.07-10.54 3.09-17.91 5.22-23.02-1.79-8.26-4.1-15.02-6.06-19.92-4.82 5.1-10.44 14.45-13.49 31.43zM74.2 123.76c4.57-1.36 8.37-4.06 11.11-7.55 1.97-2.51 3.39-5.42 4.14-8.53-3.22 2.18-7.1 3.45-11.27 3.45-11.13 0-20.18-9.05-20.18-20.18 0-3.37.84-6.55 2.31-9.35-10.99 3.97-17.1 15.87-13.73 27.21 2.14 7.18 7.59 12.47 14.19 14.7a22.1 22.1 0 0 0 13.43.25zM55.49 223.73c-3.3 2.62-5 6.77-4.49 10.95l6.91 55.92c.76 6.12 5.97 10.61 11.98 10.61.49 0 .99-.03 1.5-.09 6.63-.82 11.33-6.85 10.52-13.48l-6.08-49.19 2.93-2.32-19.86-15.11-3.4 2.7z"/><path d="m138.1 196.92-15.17-2.91c-.04-.16-.07-.32-.12-.47l-11.6-39c-6.06-12.83-8.92-24.05-10.26-31.33-2.8-.23-4.84.04-6.04.31-.27.05-.55.11-.82.19l-6.41 1.91c-.84 4.77-4.51 9-9.77 10.57-5.26 1.57-10.64.02-13.96-3.51l-6.41 1.91c-.69.21-1.33.51-1.91.88-1.08.56-2.46 1.43-4 2.73 2.84 6.84 6.5 17.7 8.42 31.57l11.61 39c.17.58.41 1.11.69 1.61l-10.25 8.13 19.87 15.11 16.36-12.97c2-1.59 3.36-3.69 4.05-5.97.12.03.24.07.37.09l21.9 4.2-.02-.01 13.48-22.03zm-50.09-50.48c5.04-1.5 7.67 1.38 8.65 4.68 1.29 4.33-.37 8.6-2.11 12.48l-.9 2.04.02.07 7.06-2.1 1.21 4.08-12.63 3.76-.93-3.12 1.43-3.63c1.85-4.68 3.36-8.56 2.38-11.86-.55-1.84-1.97-2.85-3.88-2.28-1.45.43-2.43 1.42-3.13 2.2l-1.89-3.37c.86-.99 2.63-2.33 4.72-2.95zm-17.24 12.39-1.87-3.42 4.47-4.3 4.08-1.21 6.86 23.05-4.61 1.37-5.56-18.69-.07.02-3.3 3.18zM154.77 207.21a12.07 12.07 0 0 0-9.44-8.9l-3.09-.59-13.49 22.03 4.47.86 11.97 47.17c1.39 5.47 6.31 9.12 11.71 9.12.98 0 1.98-.12 2.98-.37 6.47-1.64 10.39-8.22 8.74-14.69l-13.86-54.62zM60.16 90.95c0 9.95 8.06 18.01 18.01 18.01 9.95 0 18.01-8.06 18.01-18.01 0-9.95-8.06-18.01-18.01-18.01-9.95 0-18.01 8.06-18.01 18.01zM48.44 66.69c.46-.02.88-.25 1.14-.62l4.55-6.34 1.15 7.57a1.482 1.482 0 1 0 2.93-.45l-1.7-11.16a1.48 1.48 0 0 0-2.67-.64l-5.56 7.75-10.41-12.3c-.41-.48-1.08-.65-1.67-.42-.59.23-.97.81-.94 1.44l.55 12.57-13.09-5.28c-.58-.23-1.24-.08-1.66.38-.41.46-.5 1.14-.2 1.69l6.22 11.64-14.6 1.99c-.63.09-1.14.57-1.26 1.2-.11.63.19 1.26.75 1.57l13.2 7.16-8.94 6.85c-.49.37-.69 1.01-.52 1.6.18.59.7 1.01 1.32 1.05l9.58.63-6.67 11c-.33.55-.27 1.25.15 1.74.29.33.7.51 1.12.51.2 0 .39-.04.58-.12l12.64-5.4c.75-.32 1.1-1.19.78-1.94a1.48 1.48 0 0 0-1.94-.78l-8.4 3.59 5.55-9.15c.27-.44.29-.99.05-1.45-.24-.46-.7-.76-1.22-.79l-8.08-.53 7.63-5.85c.4-.3.61-.79.58-1.29-.04-.5-.33-.95-.77-1.19l-11.23-6.09 12.23-1.66c.48-.06.9-.36 1.12-.79.22-.43.21-.94-.01-1.37l-5.3-9.92 11.44 4.61c.47.19 1 .13 1.41-.16.41-.29.65-.77.62-1.27l-.46-10.54 8.84 10.44c.29.35.73.55 1.19.52zM59.24 32.5c.42-1.6.85-3.35 1.28-5.25.43-1.9.64-3 .64-3.3 0-.37-.19-.71-.58-1.02-.39-.31-.79-.47-1.22-.47-.39 0-.87.2-1.43.6-.56.4-.9.99-1.01 1.76-.11.77-.17 1.21-.17 1.33 0 1.18-.26 2.94-.78 5.31-.47 2.18-.61 4.31-.44 6.37.58.43 1.4.65 2.46.65.34-.57.52-1.23.54-1.98.02-1 .25-2.33.7-3.99zM58.41 42.62c0-.24-.27-.54-.81-.89s-.99-.52-1.35-.52c-.55 0-1.06.32-1.54.95-.48.64-.72 1.2-.72 1.68 0 1.29.58 1.94 1.75 1.94.39 0 .88-.19 1.48-.56.59-.38.94-.91 1.03-1.61l.16-.98zM71.34 35.87c2.66-.92 4.41-1.58 5.26-1.98.85-.4 1.59-1.1 2.22-2.1.64-1 .95-2.29.95-3.87v-.02c-.02-1.43-.19-2.48-.51-3.14-.32-.67-1.05-1.39-2.21-2.16-.7-.49-1.64-.7-2.83-.65-.61.02-1.23.04-1.84.05-.88.02-1.72.28-2.51.76h.02c-.94.51-1.72 1.12-2.34 1.85-.62.73-.93 1.37-.93 1.93 0 .93.49 1.4 1.46 1.4 1.49 0 2.31-.47 2.45-1.41.05-.28.28-.56.69-.84.41-.29 1.18-.43 2.33-.43.39 0 .78.06 1.18.19.39.13.66.27.79.42.14.15.29.54.45 1.15.16.61.25 1.1.25 1.46 0 .51-.13 1.02-.38 1.54s-.57.86-.94 1.02l-2.14.84c-1.36.53-2.28.92-2.76 1.18-.48.25-1.01.63-1.6 1.11-.65 1.31-1.05 2.18-1.2 2.61-.15.43-.23.89-.23 1.39 0 .47.08.91.25 1.34.17.43.4.64.7.64.91 0 1.56-.13 1.94-.4.38-.26.63-.67.73-1.22.21-1.04.46-1.93.75-2.67zM67.34 46.8c.64 0 1.32-.24 2.06-.71s1.1-1.04 1.1-1.69c0-.84-.48-1.29-1.45-1.35-.52-.36-.95-.54-1.29-.54-.49 0-.87.11-1.14.33-.1.09-.22.18-.38.29-.85.58-1.27 1.12-1.27 1.6 0 .59.23 1.09.68 1.48.46.39 1.02.59 1.69.59zM47.88 123.41c.52 0 .95-.4.98-.93a.999.999 0 0 0-.92-1.05c-.02 0-2.21-.18-3.53-1.73-.86-1.01-1.2-2.42-1.01-4.19a.98.98 0 0 0-.88-1.08.97.97 0 0 0-1.08.88c-.24 2.33.25 4.24 1.47 5.68 1.88 2.22 4.79 2.42 4.91 2.43h.06z"/><path d="M38.16 114.45a.993.993 0 0 0-1.12.84c-.49 3.45.11 6.32 1.81 8.52 2.58 3.35 6.72 3.86 6.9 3.88.04 0 .08.01.11.01a.988.988 0 0 0 .11-1.97c-.04 0-3.48-.43-5.56-3.12-1.36-1.76-1.84-4.13-1.42-7.03a.991.991 0 0 0-.84-1.12zM98.48 107.1c.19.26.49.39.79.39.21 0 .42-.06.59-.2 1.87-1.41 2.93-3.08 3.14-4.95.34-2.89-1.51-5.15-1.58-5.25a.985.985 0 0 0-1.39-.13c-.42.35-.48.97-.13 1.39.01.02 1.38 1.73 1.14 3.76-.15 1.32-.95 2.53-2.37 3.6-.43.33-.52.95-.19 1.38z"/><path d="M102.29 110.69c.19 0 .39-.06.56-.18 2.86-2 4.54-4.4 4.99-7.14.68-4.17-1.78-7.55-1.88-7.69a.988.988 0 0 0-1.38-.21c-.44.32-.53.94-.21 1.38.02.03 2.07 2.88 1.52 6.22-.36 2.19-1.76 4.14-4.17 5.82-.45.31-.56.93-.25 1.37.19.28.5.42.81.42zM128.23 2.63 125.59 0 74.77 64.85l2.96.99zM176.95 51.19l-73.9 36.43 2.24 2.17 72.89-35.09zM99.78 70.62c.78.74 1.81 1.16 3.09 1.26 1.29.1 2.29-.22 3.01-.98 1.11-1.17 1.81-2.31 2.1-3.4.29-1.1.41-2.34.35-3.72-.06-1.38-.33-2.64-.79-3.78-.47-1.14-.99-1.98-1.56-2.52-.65-.61-1.22-1.03-1.72-1.24-.5-.21-1.12-.28-1.86-.2-.74.08-1.43.28-2.07.6-.64.32-1.32.85-2.03 1.6-.92.97-1.43 2.23-1.55 3.81-.12 1.57.13 3.18.73 4.82.61 1.64 1.37 2.9 2.28 3.77zm-.14-11.13c.46-.48.97-.84 1.56-1.09.58-.24 1.1-.32 1.55-.23.45.09.9.35 1.36.79 1.3 1.23 2.02 2.92 2.18 5.07.16 2.15-.34 3.83-1.48 5.03-.4.43-.95.63-1.62.61-.68-.02-1.29-.29-1.85-.82-1.21-1.15-2-2.78-2.37-4.89-.37-2.12-.15-3.61.68-4.47zM118.92 56.84c.19-.21.33-.49.4-.86.07-.36.03-.62-.13-.78-.11-.11-.27-.13-.47-.07-.6.18-1.49-.29-2.66-1.39-1-.94-1.77-1.93-2.31-2.94-.16-.29-.27-.48-.35-.55-.52-.49-1-.51-1.44-.04-.27.29-.36.62-.28 1 .09.38.42 1.04 1 1.97.59.95.95 2.11 1.07 3.48.12 1.38-.01 2.26-.38 2.65-.23.25-.65.09-1.25-.48-.18-.17-.52-.63-1.02-1.39-.5-.76-.86-1.37-1.08-1.83-.38-.78-.72-1.32-1.04-1.63-.17-.17-.42-.25-.74-.26-.32-.01-.6.12-.85.38-.36.38-.44.84-.23 1.38.46.44 1.03 1.2 1.69 2.27.82 1.29 1.5 2.19 2.03 2.7.75.72 1.48 1.07 2.18 1.06.7-.01 1.21-.18 1.54-.53.55-.58.87-1.38.95-2.38.08-1.01-.07-2.1-.45-3.27.84.8 1.61 1.34 2.29 1.63.68.28 1.19.25 1.53-.11zM123.28 52.38c.83-.87 1.34-1.96 1.53-3.28.2-1.32.12-2.14-.22-2.47-.25-.23-.49-.23-.72.02-.19.2-.33.59-.41 1.17-.19 1.22-.62 2.19-1.31 2.92-.62.65-1.23.7-1.84.12-.75-.71-1.35-1.83-1.8-3.35-.45-1.52-.51-2.45-.18-2.8.16-.17.48-.07.97.3.67.5 1.21.53 1.62.1.14-.15.21-.37.21-.68 0-.3-.21-.66-.64-1.07-.46-.43-1.04-.7-1.75-.8-.71-.1-1.27.06-1.67.49-.84.88-1.04 2.41-.6 4.58.44 2.17 1.23 3.79 2.36 4.86.72.68 1.46 1.02 2.23 1.02s1.51-.37 2.21-1.12zM127.87 37.71c.34.16 1.01.65 2.02 1.47.82.67 1.6 1.06 2.33 1.16.73.1 1.28-.05 1.66-.44.19-.2.29-.44.31-.73.01-.28-.06-.5-.22-.65-.16-.15-.39-.25-.7-.28a3.55 3.55 0 0 1-1.09-.26c-.34-.14-.71-.33-1.1-.56-.4-.23-.88-.57-1.45-1.02-1.21-.93-2.07-1.39-2.58-1.39-.5.01-.94.2-1.3.58-.52.55-.79 1.34-.8 2.36-.01 1.02.33 2.56 1.02 4.63-.43-.58-.98-1.37-1.65-2.4-1.12-1.69-1.95-2.91-2.49-3.66-.54-.74-1.06-1.35-1.56-1.83-.33-.31-.67-.47-1.02-.47s-.64.12-.86.36c-.16.17-.21.48-.16.92.06.44.38 1.01.96 1.7 2.44 2.87 4.65 5.68 6.63 8.42.52.73.84 1.15.97 1.26.25.23.52.33.82.29.3-.04.57-.2.83-.48.16-.17.22-.37.19-.62-.03-.24-.19-.69-.46-1.35-.31-.92-.63-2.25-.95-3.99-.33-1.74-.36-2.74-.12-3 .18-.19.44-.21.78-.04zM134.51 37.47c.45.43.79.63 1.01.6.23-.03.47-.18.72-.45.15-.16.25-.46.3-.91.05-.45.04-.78-.02-.99-.06-.21-.22-.43-.47-.67-.15-.14-.36-.21-.63-.18-.26.02-.53.17-.79.44-.35.37-.58.69-.69.95-.11.27-.11.48 0 .62.11.15.29.34.54.58zM138.69 31.43c-.26.02-.53.17-.79.44-.35.37-.58.69-.69.95-.11.27-.11.48 0 .62.11.15.29.34.54.58.45.43.79.62 1.01.6.23-.03.47-.18.72-.45.15-.16.25-.46.3-.91.05-.45.04-.78-.02-.99-.06-.21-.22-.43-.47-.67-.15-.14-.36-.21-.63-.18zM141.95 28c-.26.02-.53.17-.79.44-.35.37-.58.69-.69.95-.11.27-.11.48 0 .62.11.15.29.34.54.58.45.43.79.62 1.01.6.23-.03.47-.18.72-.45.15-.16.25-.46.3-.91.05-.45.04-.78-.02-.99-.06-.21-.22-.43-.47-.67-.15-.14-.36-.21-.63-.18z"/></g></svg>