<svg xmlns="http://www.w3.org/2000/svg" xml:space="preserve" viewBox="0 0 621.68 611.86" shape-rendering="geometricPrecision" text-rendering="geometricPrecision" image-rendering="optimizeQuality" fill-rule="evenodd" clip-rule="evenodd"><g fill="currentColor"><path d="M592.19 86.06c-.46.71-.94 1.39-1.44 2.07.15.52.29 1.03.41 1.56 1.42 6.6.18 13.35-3.47 19.02-3.66 5.67-9.31 9.58-15.91 11l-.25.05c-11.17 2.39-69.03 14.68-110.4 21.29-5.82.91-10.67 1.63-14.87 2.2v35.45c28.15-6.91 42.48-16.26 49.74-24.2l4.01 2.38c-8.08 9.24-23.74 19.35-53.71 26.55-7.4 1.77-11.97 9.21-10.2 16.61 1.52 6.33 7.17 10.58 13.4 10.58 1.06 0 2.14-.12 3.22-.38 39.29-9.39 62.36-24.81 74.25-43.47.02-.03.04-.05.06-.08l1.44 2.37c2.04-3.02 5.16-5.33 8.98-6.24 23.72-5.69 35.69-13.5 41.73-20.1l3.29 1.96c-6.64 7.6-19.51 15.91-44.14 21.82-6.09 1.45-9.84 7.57-8.38 13.65 1.25 5.2 5.89 8.7 11.01 8.7.87 0 1.76-.1 2.64-.32 32.34-7.73 51.31-20.43 61.07-35.79.54-.85.9-1.75 1.19-2.66.08-.24.14-.48.19-.72a53.262 53.262 0 0 0 5.51-23.66c-.11-11.19-3.12-20.27-5.74-26.15-1.89-4.23-3.58-6.82-3.83-7.31-2.28-3.54-5.92-5.68-9.79-6.19z"/><path d="M600.91 182.71v-19.05c-12.1 12.89-31.01 22.48-56.45 28.55-1.15.28-2.34.42-3.53.42-5.14 0-9.74-2.58-12.48-6.64v16.59l14.16 73.77 10.22-53.23h21.03l13.94 72.63c1.78 9.26 10.74 15.34 20 13.56 9.27-1.78 15.34-10.74 13.56-20L600.9 182.72zM542.76 74.17c10.98-2.27 18.04-3.8 18.33-3.86 1.79-.39 3.59-.58 5.37-.58 9.93 0 18.82 5.93 22.89 14.67 3.5-5.39 5.55-11.8 5.55-18.7 0-19.02-15.41-34.43-34.43-34.43s-34.43 15.41-34.43 34.43c0 4.03.73 7.88 2 11.48 5.73-1.16 10.77-2.2 14.72-3.02zM406.17 332.83c-1.94 10.09 3.79 19.86 13.1 23.35l-11.57-31.34-1.53 7.99zM522.45 203.15v-23.18c-14.72 15.69-37.73 27.35-68.67 34.74-1.4.33-2.84.51-4.29.51-1.1 0-2.18-.1-3.24-.29v23.63l13.38 36.26 4.32-22.52h25.59l16.96 88.37c2.17 11.27 13.06 18.66 24.33 16.49 11.28-2.17 18.66-13.06 16.5-24.33l-24.89-129.68zM476.04 87.23c11.43-2.06 23.23-4.32 34.05-6.45a41.733 41.733 0 0 0 5.05-19.96c0-23.14-18.75-41.89-41.89-41.89-13.35 0-25.22 6.27-32.89 16 .99 4.21 1.53 8.6 1.53 13.11 0 10.3-2.75 19.95-7.53 28.31a41.95 41.95 0 0 0 11.31 15.95c8.35-1.24 18.53-2.93 30.37-5.07z"/><path d="M332.28 234.28h104.78v-23.89a18.36 18.36 0 0 1-5.43-9.26c-1.6-6.7.7-13.43 5.43-17.8v-48.19c6.6-.73 14.14-1.83 22.61-3.16 44.76-7.16 110.01-21.22 110.16-21.24 8.68-1.87 14.2-10.43 12.33-19.1-1.87-8.69-10.42-14.2-19.1-12.34-.02 0-7.18 1.55-18.43 3.88-16.87 3.5-42.84 8.75-66.96 13.1-12.05 2.18-23.65 4.13-33.32 5.51-9.58 1.39-17.59 2.18-20.94 2.15-.58 0-1.16.04-1.72.09h-74.01c-.57-.06-1.14-.09-1.73-.09-4.58.05-16.95-1.39-31.2-3.7-21.61-3.45-48.82-8.7-70.53-13.07-21.72-4.37-37.9-7.86-37.93-7.87-8.68-1.87-17.24 3.65-19.11 12.34-1.87 8.68 3.65 17.23 12.33 19.1.07.01 29.16 6.28 61.74 12.56 16.3 3.14 33.47 6.29 48.42 8.68 8.47 1.33 16.01 2.43 22.61 3.16v99.14zM439.12 245.76H329.97l-50.83 137.66c-4.56 12.35 1.76 26.06 14.11 30.61 12.34 4.56 26.05-1.76 30.61-14.1l41.02-111.11h39.33l41.02 111.11c4.56 12.34 18.27 18.66 30.61 14.1 12.35-4.56 18.66-18.27 14.11-30.61l-50.83-137.66z"/><path d="M432.7 48.03C432.7 21.5 411.2 0 384.67 0s-48.03 21.5-48.03 48.03 21.5 48.03 48.03 48.03 48.03-21.51 48.03-48.03zM35.32 437.95c-.7 4.2-1.32 9.24-1.29 14.11a23.4 23.4 0 0 0 1.62 11.62l25.14 61.11L8.1 570.55c-9.82 8.52-10.87 23.39-2.34 33.22 4.65 5.36 11.2 8.1 17.79 8.1 5.47 0 10.97-1.9 15.43-5.77l65.46-56.85c7.62-6.62 10.18-17.4 6.34-26.74L90.25 472.6c1.59.54 3.26.93 5 1.12l39.97 4.38 20.28 74.13c2.86 10.46 12.35 17.34 22.7 17.34 2.06 0 4.15-.27 6.22-.84 12.54-3.43 19.93-16.38 16.5-28.92l-24.5-89.59c-2.55-9.32-10.54-16.13-20.15-17.19l-12.25-1.34.1-.43-108.8 6.69zM123.46 286.96c25.86 5.93 51.62-10.23 57.55-36.08 5.93-25.86-10.22-51.62-36.08-57.55s-51.62 10.22-57.55 36.08 10.21 51.63 36.07 57.56z"/><path d="M165.58 340.6c7.24 1.01 16.42 1.92 26.67 1.92 13.44-.01 28.76-1.54 44.01-6.87 15.18-5.29 30.42-14.72 41.92-29.97 5.36-7.08 3.96-17.16-3.12-22.52-7.08-5.36-17.17-3.96-22.52 3.12-7.19 9.46-16.34 15.27-26.94 19.02-10.55 3.72-22.43 5.07-33.35 5.05-9.48 0-18.19-.98-24.67-1.97-3.25-.5-5.92-.99-7.95-1.39-1.03-.2-1.87-.36-2.67-.51-.4-.07-.79-.14-1.3-.22-.39-.05-.69-.12-1.41-.17l-67.18-15.41a15.1 15.1 0 0 0-1.66-.48c-10.64-2.36-24.99-4.97-35.37-10.17-5.17-2.55-9.04-5.52-11.37-8.6-2.3-3.14-3.68-6.28-3.76-12.11-.07-7.68 3.31-20.55 14.49-38.83 4.62-7.59 2.22-17.48-5.37-22.1-7.59-4.62-17.48-2.22-22.09 5.37-12.93 21.3-19.12 39.17-19.2 55.56-.08 12.23 3.95 23.38 10.37 31.64 9.69 12.49 22.93 18.75 34.86 22.92 5.07 1.73 10.02 3.07 14.59 4.18l-1.92 8.38-22.9 99.83 109.04-6.7 18.14-79.08.65.09z"/></g></svg>