<svg xmlns="http://www.w3.org/2000/svg" xml:space="preserve" viewBox="0 0 18968.19 9146.26" shape-rendering="geometricPrecision" text-rendering="geometricPrecision" image-rendering="optimizeQuality" fill-rule="evenodd" clip-rule="evenodd"><g fill="currentColor"><path d="M3100.87 8212.05c56.81-214.02 85.68-430.73 85.68-643.95 0-46.85-1.54-93.76-4.33-140.56L-.03 9111.44l7.12 34.82 1744.15-11.84 1341.81-875.55c1.28-15.54 3.68-31.21 7.82-46.82zM3704.64 7286.57c9.19 93.5 13.88 187.93 13.93 281.46.07 97.03-4.81 194.55-14.48 292.16l1457.2-950.83-1.88-20.31-972.03 6.62-75.28 39.82c-2.74 120.11-7.65 206.29-9.77 239.33-3.44 54.04-38.11 106.95-397.69 111.76zM5800.16 8128.56c96.96-231.94 146.26-472.23 146.43-714.18.1-140.44-16.99-265.34-38.57-367.88l-2463.4 2041.55 4.64 34.84 1744.1-11.84 613.94-721.13c-38.09-79.4-43.77-173.93-7.15-261.37zM6584.3 7477.27l494.58-580.91-1.08-20.33-552.08 3.75c34.36 152.4 59.02 331.79 59.4 534.52 0 21-.26 41.98-.82 62.97zM8538.69 8165.37V6866.15l-514.53 3.49L6889.29 9064.7l2.09 34.84 1744.12-11.84 96.7-590.41c-115.39-65.83-193.54-189.81-193.52-331.91zM16190.16 8348.66c-2.31 8.59-5.08 16.89-8.16 25.05l1035.43 655.76 1744.12-11.84 6.64-34.91-2675.35-1369.53c-3.71 244.62-37.97 491.77-102.69 735.47zM15761.55 7568.1c.05-77.69-3.9-155.6-11.55-232.81l-165.34-84.64c-516.19-55.96-511.42-136.85-508.85-178.02 1.06-16.82 2.91-43.89 5.82-79.47l-330.49-169.19-972.03 6.62-1.61 20.31 1930.88 1222.86c35.1-168.73 53.15-338.26 53.17-505.65zM13616.63 8375.25c-45.86 109.57-147.54 183.31-264.18 194.36l422.86 483.22 1744.43-11.86 4.16-34.89-1720.09-1386.49c-21.73 256.75-84.35 510.08-187.19 755.66zM13027.71 8128.56c96.94-231.94 146.26-472.23 146.41-714.18.12-122.13-12.82-232.59-30.36-326.86l-310.81-250.54-972.22 6.62-.84 20.28 1151.59 1316.04c3.99-17.3 9.14-34.48 16.24-51.37zM11490.41 8444.66v53.22h-372.42V7230.63L10914.58 6850l-830.41 5.66v819.63l249 1400.88 1744.48-11.84 1.64-34.86-588.88-1101.93zM5464.54 6518.74l-.22-2.21c-53.8-475.43-15.59-771.2 157.35-1217.01 52.6-133.27 132.11-229.34 220.82-295.8-311.22 54.11-968.21 195.49-1062.93 437.8-124.8 319.25-78.46 1008.77 41.6 1117.38 91.21 82.55 485.2 67.83 669.43 55.99-10.25-29.28-18.91-60.44-25.6-93.86l-.46-2.29z"/><path d="M6531.9 7414.4c-.72-402.5-100.81-710.64-167.7-872.35-3.87-31.52-6.11-63.59-7.65-95.88-122.03-111.88-219.04-241.01-286.03-382.22-79.4-166.62-119.7-348.05-119.7-539.26.12-150.16 25.38-255.86 33.18-284.68 27.33-98.21 116.86-166.23 217.89-166.23 20.5 0 40.97 2.77 60.85 8.37 120.06 33.4 190.58 158.34 157.16 278.45l-.96 4.35c-1.59 7.12-3.83 17.92-6.09 32.31-4.45 27.65-9.74 72.04-9.74 127.42 0 60.7 7.05 143.86 33.68 234.06 24.64-110.27 50.69-213.99 71.96-305.56 71.55-214.23-13.5-468.26-215.43-510.92-202.01-42.61-497.47 60.94-622.03 376.45-168.57 434.72-207.86 716.61-154.06 1191.84 53.75 269.04 225.44 346.97 401.85 365.45 40.47 130.84 80.91 317.31 80.72 538.39-.17 215.7-37.49 464.24-150.57 734.7-56.78 135.53 7.05 291.39 142.6 348.2 33.56 14.05 68.38 20.72 102.64 20.72 104.06 0 202.85-61.4 245.53-163.32 142.56-340.21 191.98-662.52 191.88-940.3zM6126.03 4263.12c0 311.41 252.42 563.9 563.87 563.9 311.46-.02 563.9-252.49 563.9-563.9 0-311.46-252.44-563.9-563.9-563.9s-563.9 252.44-563.87 563.9z"/><path d="M6349.89 5524.7c0-56.76 5.27-104.01 10.42-135.75 2.5-15.88 4.93-27.89 6.59-35.2.79-3.71 1.42-6.21 1.76-7.46h-.02c25.58-92.01-28.22-187.31-120.16-212.91-92.01-25.67-187.38 28.13-213.03 120.11-2.91 10.8-31.28 114.86-31.4 271.21 0 140.58 23.36 325.17 114.6 516.45 90.71 191.28 251.48 386 507.12 538.73 27.84 16.72 58.51 24.69 88.76 24.69 58.75 0 116.07-29.95 148.52-83.99 49.13-81.9 22.57-188.13-59.33-237.26-200.76-121.09-308.86-258.24-372.96-391.17-63.52-132.86-80.87-264.85-80.87-367.45zM12692.07 6518.74l-.19-2.21c-53.82-475.43-15.59-771.2 157.33-1217.01 52.62-133.27 132.11-229.34 220.85-295.8-311.24 54.11-968.21 195.49-1062.93 437.8-124.82 319.25-78.46 1008.77 41.58 1117.38 91.21 82.55 485.2 67.83 669.43 55.99-10.23-29.28-18.91-60.44-25.6-93.86l-.46-2.29z"/><path d="M13567.58 8354.7c142.53-340.21 191.95-662.52 191.86-940.3-.72-402.5-100.81-710.64-167.68-872.35-3.87-31.52-6.11-63.59-7.68-95.86-122.03-111.88-219.04-241.01-286.03-382.24-79.37-166.47-119.72-347.96-119.72-539.26.14-142.82 22.95-245.73 32.75-283.33 27.84-99.56 117.39-167.58 218.39-167.58 20.5 0 41 2.77 60.85 8.37 120.06 33.44 190.51 158.39 157.11 278.5l-.58 2.41-.67 2.82c-1.25 5.92-3.54 16.96-5.87 31.54-4.38 27.84-9.67 72.76-9.67 127.28-.02 60.73 7 143.88 33.66 234.15 24.64-110.32 50.74-214.06 72.01-305.66 71.55-214.23-13.52-468.26-215.43-510.92-202.03-42.61-497.49 60.94-622.05 376.45-168.54 434.72-207.83 716.61-154.06 1191.84 53.77 269.04 225.47 346.97 401.88 365.45 40.45 130.84 80.89 317.31 80.7 538.39-.17 215.7-37.46 464.24-150.57 734.7-56.78 135.53 7.05 291.39 142.63 348.2 33.54 14.05 68.38 20.72 102.62 20.72 104.08 0 202.85-61.4 245.56-163.32zM13917.46 4827c311.46 0 563.87-252.46 563.87-563.87 0-311.46-252.44-563.9-563.9-563.9-311.43 0-563.87 252.44-563.87 563.9 0 311.41 252.42 563.9 563.9 563.87z"/><path d="M13577.42 5524.7c0-56.76 5.34-104.01 10.37-135.75 2.53-15.88 4.98-27.89 6.62-35.2.79-3.63 1.42-6.16 1.76-7.41h-.02c25.65-91.93-28.13-187.26-120.08-212.96-92.01-25.67-187.4 28.08-213.03 120.11l-.05-.07c-2.84 10.88-31.3 114.94-31.4 271.28 0 140.58 23.36 325.17 114.57 516.45 90.73 191.28 251.5 386 507.14 538.73 27.84 16.72 58.49 24.69 88.76 24.69 58.75 0 116.02-29.95 148.5-83.99 49.15-81.9 22.59-188.13-59.31-237.26-200.76-121.09-308.86-258.24-372.96-391.17-63.54-132.86-80.94-264.85-80.87-367.45zM3139.32 5074.87c-329.07 61.02-911.47 199.46-1000.23 426.51-124.8 319.23-78.46 1008.77 41.6 1117.38 52.23 47.28 203.93 62.63 358.59 64.91 64.24-501.17 224.14-1319.39 600.04-1608.81zM3730.75 3918.41c-284.7 0-515.59 230.79-515.59 515.56 0 284.73 230.88 515.56 515.59 515.56 284.73 0 515.54-230.83 515.54-515.56 0-284.78-230.81-515.56-515.54-515.56z"/><path d="M3665.4 7568.08c-.1-119.34-7.68-230.95-19.92-334.39 227.61.19 400.94-18.07 403.73-62.24 8.16-127.78 13.16-281.89 12.05-448.14-7.8-1.66-15.62-3.13-23.24-5.58-183.29-58.88-340.84-156.49-468.09-289.88-103.29-108.08-186.25-238.97-246.54-389.05-95.64-239.54-110.89-464.48-111.47-577.23 0-15.57.34-25.74.46-30.12 5.75-123.45 104.88-218.2 225.92-218.2 3.58 0 7.12.14 10.75.29 60.32 2.82 115.92 28.99 156.58 73.7 40.66 44.68 61.45 102.54 58.59 162.84l-.05 11.21c-.12 22.42 1.35 140.63 36.38 277.85 26.92 106.47 82.79 258 196.21 376.08 42.25 43.91 89.41 80.55 141.93 110.89-53.53-609.42-213.77-1203.66-603-1203.66-609.78 0-837.7 1363.08-881.78 2053.58-3.85 60.51 315.48 113.44 659.99 139.86 15.76 106.01 25.94 223.98 25.82 352.19 0 196.55-23.63 417.4-87.43 657.64-30.12 113.59 37.49 230.21 151.12 260.36 18.29 4.86 36.69 7.19 54.78 7.19 94.17 0 180.28-62.99 205.55-158.24 73.77-277.77 101.7-536.23 101.65-766.94z"/><path d="M3858.36 6152.04c-111.33-115.9-175.28-265.07-209.35-399.78-34.26-134.18-38.18-251.04-38.09-290.98.02-5.58.07-9.65.12-12.01.05-.72.07-1.3.07-1.71 4.5-95.4-69.2-176.41-164.6-180.91-95.4-4.48-176.41 69.25-180.84 164.64l-.05-.05c-.12 2.5-.51 12.92-.51 30.03.38 79.88 7.72 307.44 107.62 557.69 50.17 124.87 124.58 255.93 235.69 372.16 110.82 116.16 259.18 215.94 445.88 275.95a172.09 172.09 0 0 0 53.2 8.42c73.02.02 140.87-46.58 164.52-119.8 29.35-90.9-20.55-188.37-111.4-217.72-132.67-43.09-227.68-108.42-302.29-185.94zM15714.34 5074.87c-329.07 61.02-911.5 199.46-1000.25 426.51-124.8 319.23-78.46 1008.77 41.6 1117.38 52.23 47.28 203.91 62.63 358.59 64.91 64.22-501.17 224.17-1319.39 600.06-1608.81zM16821.28 4433.98c0-284.78-230.79-515.56-515.54-515.56-284.7 0-515.59 230.79-515.59 515.56.02 284.73 230.88 515.56 515.59 515.56 284.75 0 515.54-230.83 515.54-515.56z"/><path d="M16240.4 7568.08c-.1-119.34-7.68-230.95-19.92-334.39 227.61.19 400.91-18.07 403.73-62.24 8.18-127.78 13.16-281.86 12.03-448.12-7.8-1.64-15.62-3.1-23.24-5.58-183.27-58.88-340.79-156.42-468.04-289.92-103.24-107.89-186.3-238.82-246.64-389-95.49-239.42-110.8-464.39-111.49-577.23.02-19.63.58-31.42.77-34.33 6.06-119.68 105.22-213.99 225.68-213.99 3.83 0 7.63.07 11.5.29 124.13 6.33 220.34 112.39 214.42 236.49l.02 2.96-.05 7.72c-.07 22.95 1.23 140.51 36.4 278.42 26.95 106.47 82.79 258.05 196.11 376.01 42.25 43.91 89.46 80.55 142.03 110.92-53.58-609.42-213.82-1203.63-603.02-1203.63-609.76 0-837.7 1363.08-881.78 2053.58-3.85 60.51 315.48 113.44 659.97 139.86 15.78 106.01 25.96 223.98 25.84 352.19 0 196.55-23.63 417.4-87.43 657.64-30.12 113.59 37.49 230.21 151.12 260.36 18.29 4.86 36.69 7.19 54.78 7.19 94.2 0 180.28-62.99 205.55-158.24 73.77-277.77 101.7-536.23 101.65-766.94z"/><path d="M16433.31 6152.02c-111.33-115.9-175.23-265.02-209.32-399.74-34.24-134.18-38.21-251.04-38.06-290.98-.02-5.49.07-9.48.12-11.69 0-1.15.07-1.83.07-2.07h-.05c4.52-95.13-68.84-176.02-163.97-180.86-95.4-4.74-176.6 68.62-181.44 164.02-.14 2.62-.6 13.26-.6 30.6.46 79.88 7.8 307.39 107.62 557.64 50.24 124.92 124.58 255.93 235.77 372.16 110.82 116.21 259.13 216.01 445.88 276.02 17.66 5.7 35.58 8.45 53.17 8.45 73.02-.02 140.87-46.63 164.55-119.84 29.35-90.9-20.48-188.42-111.37-217.77-132.69-43.12-227.75-108.42-302.36-185.94zM8683.51 2329.55l-266.66 256.63h268.54c-18.84 84.74-19.44 174.89 1.56 265.07 74.92 321.9 396.73 522.11 718.58 447.13 321.83-74.92 522.01-396.54 447.23-718.32v-250.51H8683.51zM9852.76 2276.33v-196.11l-1364.98-138.68 202.75 334.79z"/><path d="M9825.33 3533.02h-861.96l1067.57 1689.34V4013.14c16.89 3.92 34.65 8.11 53.22 12.56 226.72 54.38 577.28 150.21 1033.82 309.94 17.64 6.18 35.22 12.32 53.17 18.67v4090.37h266.06V4425.43c18.38-2.36 36.16-7.29 53.2-14.22 53.56-21.75 98.33-64.55 119.89-123.02 39.84-108.15-13.81-227.75-119.89-270.65-2.09-.84-4.07-1.88-6.21-2.65-15.88-5.85-31.33-11.43-46.99-17.15V2226.62c17.88-2.14 35.61-4.64 53.2-7.6 528.41-88.69 931.15-548.02 931.15-1101.64C12421.56 500.26 11921.28 0 11304.18 0c-617.12 0-1117.4 500.26-1117.4 1117.38.02 553.67 402.74 1012.98 931.2 1101.64 17.59 2.96 35.32 5.49 53.17 7.6v1677.02c-17.8-6.11-35.73-12.25-53.17-18.17-515.68-174.32-888.64-265.94-1091.56-309.53-46.97-10.03-84.57-17.52-112.99-22.88-26.75-12.73-56.52-20.04-88.11-20.04zm1478.86-3266.96c186.8 0 359.63 60.61 500.14 163.01l-1188.45 1188.5c-102.42-140.54-163.06-313.34-163.06-500.16 0-469.44 381.96-851.34 851.37-851.34zm-500.21 1539.63 1188.5-1188.5c102.42 140.54 163.06 313.38 163.06 500.21 0 469.46-381.91 851.32-851.34 851.32-186.8 0-359.65-60.63-500.21-163.03z"/><path d="M8591.86 4067.78v4097.61c0 181.7 147.32 328.93 328.93 328.93 181.65 0 328.95-147.22 328.95-328.93V5763.78h123.31v2401.61c0 181.7 147.32 328.93 328.93 328.93 181.65 0 328.97-147.22 328.97-328.93V5745.3l-1378.7-2181.68c-2.79 1.44-5.65 2.69-8.4 4.28 0 0-.53.29-3.1 1.76-7.99 4.55-30.89 17.23-63.83 34.21-46.22 23.87-112.39 56.25-186.15 86.95-124.75 53.53-277.39 97.52-358.23 95.49-20.6.07-35.32-2.33-42.63-4.38-.26-1.01-.55-2.17-.87-3.56-1.68-7.53-3.44-20.26-3.44-38.52-1.95-83.22 43.67-274.69 184.73-563.44 51.08-105.84 6.69-233.09-99.15-284.2-105.82-51.08-233.05-6.74-284.2 99.13-152.81 319.64-225.06 548.69-227.03 748.51.02 68.86 9.74 135.6 33.83 198.74 34.72 95.09 109.55 176.6 192.91 218.47 83.42 43.09 167.7 54.64 245.85 54.91 183.77-2.12 358.3-61.88 506.13-122.03 15.45-6.28 30.65-12.58 45.47-18.79 2.62-1.13 5.12-2.26 7.72-3.37z"/></g></svg>