<svg xmlns="http://www.w3.org/2000/svg" xml:space="preserve" viewBox="0 0 201.76 138.41" shape-rendering="geometricPrecision" text-rendering="geometricPrecision" image-rendering="optimizeQuality" fill-rule="evenodd" clip-rule="evenodd"><g fill="currentColor" fill-rule="nonzero"><path d="M16.87 138.37c1.44 0 2.61-1.17 2.61-2.61V76.45c0-1.36.55-2.59 1.44-3.49.8 1.19 2.12 2 3.66 2.07h.22c1.41 0 2.69-.64 3.55-1.65a4.91 4.91 0 0 1 1.07 3.07c0 1.44 1.17 2.61 2.61 2.61s2.61-1.17 2.61-2.61c0-3.71-1.99-6.95-4.96-8.73.51-4.34 1.68-7.64 3.11-10.2 2.4-4.25 5.63-6.65 8.53-8.08-2.98 14.95-9.56 50.68-5.48 55.49.86 1.02 2.55 1.95 4.78 2.76-.36 6.7-.6 14.66-.6 24.03a6.7 6.7 0 0 0 13.4 0c0-8.22.19-15.29.48-21.31 1.08.11 2.18.19 3.27.25 1.1-.06 2.19-.15 3.27-.25.29 6.03.48 13.09.48 21.31a6.7 6.7 0 0 0 13.4 0c0-9.37-.24-17.33-.6-24.03 2.23-.81 3.92-1.75 4.78-2.76 3.64-4.3-1.23-33.32-4.43-50.1 3.79 4.79 7.83 11.52 9.66 19.77a4.662 4.662 0 0 0 4.54 3.65c.33 0 .68-.04 1.01-.11a4.671 4.671 0 0 0 3.54-5.56c-2.36-10.59-7.57-18.82-12.16-24.42-4.6-5.6-8.6-8.62-8.81-8.79a4.664 4.664 0 0 0-3.96-.78l-.31-.03a13.684 13.684 0 0 1-10.39 4.75c-1.05 0-2.1-.12-3.13-.36-2.99-.7-5.6-2.34-7.51-4.68h-.07c-.46.06-6.41.55-12.83 4.88a28.88 28.88 0 0 0-8.97 9.8c-2.14 3.8-3.68 8.5-4.29 14.15-3.6 1.57-6.12 5.16-6.12 9.34v59.31c0 1.44 1.17 2.61 2.61 2.61zM60.28 16.16c1.38.32 2.66.84 3.82 1.52-.27-3.6-3.27-6.44-6.94-6.44-3.67 0-6.66 2.83-6.94 6.43a13.791 13.791 0 0 1 10.06-1.51z"/><path d="M54.31 41.81c6.77 1.58 13.53-2.63 15.11-9.4 1.58-6.77-2.63-13.54-9.4-15.11-6.77-1.58-13.54 2.63-15.11 9.4-1.58 6.77 2.63 13.54 9.4 15.11zM170.29 81.74c-1.14.18-1.71-.09-2-.61a5.829 5.829 0 0 1-4.17 5.01c1.22.92 2.85 1.55 4.11 1.74 7.28 1.12 10.6 8.98 10.6 15.81 0 5.41-1.48 9-3.8 11.39 11.28-4.69 16.94-10.3 12.05-22.13-2.46-5.94-10.6-12.16-16.79-11.2zM117.72 89.21c-.74-.44-1.73-1.08-2.78-1.83-.46 1.22-.77 2.32-.54 2.74.03.05.16.08.27.1 3.51.54 6.09 2.65 7.83 5.45-.77-2.66-2.31-4.96-4.78-6.45zM98.53 90.47c2.39-.58 6.71-4.69 10.21-8.05-.17-.49-.27-1-.3-1.54-.12-2.01-.21-3.98-.27-5.9-7.99.39-1.62 8.57-6.76 7.77-6.19-.96-14.33 5.26-16.79 11.2-3.4 8.22-1.7 13.44 3.44 17.43-.3-1.41-.47-2.99-.47-4.79 0-6.1 4.88-14.65 10.93-16.13z"/><path d="M141.17 104.27c0-6.1 4.88-14.65 10.93-16.13 1.2-.29 1.38-.93 1.72-2.73.09-.45.18-.94.31-1.44V43.52c1.28 2.64 2.59 6.8 3.36 13.13.13 1.07.24 2.18.34 3.37.23 2.84.36 6.04.36 9.64 0 3.21-.1 6.74-.33 10.61a4.655 4.655 0 0 0 4.38 4.92 4.664 4.664 0 0 0 4.93-4.38c.23-4.04.34-7.74.35-11.16 0-3.82-.14-7.26-.39-10.38v-.01c-.1-1.24-.23-2.41-.36-3.55-1.26-10.59-3.93-16.95-7.2-20.95-1.8-2.2-3.8-3.59-5.59-4.36-1.79-.78-3.33-.94-4.25-.94-.37 0-.65.02-.83.05H127.88c-.17-.02-.45-.05-.82-.05-1.03 0-2.85.2-4.91 1.25-3.13 1.55-6.51 4.95-8.87 10.97-2.29 5.8-3.86 14.08-3.99 26.39-.01.52-.01 1.04-.01 1.58 0 3.41.11 7.12.35 11.15.14 2.48 2.2 4.39 4.65 4.39.09 0 .18 0 .28-.01a4.655 4.655 0 0 0 4.38-4.92c-.23-3.87-.33-7.4-.33-10.61 0-2.5.06-4.8.17-6.93.54-9.86 2.22-15.83 3.88-19.23v52.38c1.78 2.97 2.62 6.68 2.62 10.13 0 4.43-.99 7.64-2.62 9.97v14.92c0 3.98 3.22 7.2 7.2 7.2s7.2-3.22 7.2-7.2V78.33h2.7v52.56c0 3.98 3.23 7.2 7.2 7.2 3.98 0 7.2-3.22 7.2-7.2v-11.63c-7.25-.94-12.96-4.31-12.96-15.01zM138.38 0c-7.23 0-13.1 5.87-13.1 13.1 0 7.24 5.87 13.1 13.1 13.1 7.24 0 13.1-5.86 13.1-13.1 0-7.24-5.86-13.1-13.1-13.1z"/><path d="M177.66 103.69c0-6.71-3.3-13.68-9.61-14.65-1.73-.27-4.01-1.2-5.45-2.67h-.09c-.11 0-.22 0-.34-.01a5.786 5.786 0 0 1-4.02-1.94c-.8-.9-1.29-2-1.43-3.18-2.73 3.31-.79 7.17-4.34 8.04-5.44 1.32-10.04 9.25-10.04 14.99 0 11.5 6.65 14.17 17.66 14.17s17.66-3.25 17.66-14.75zm-2.52-.58s1.84 7.18-4.08 10.68c2.23-4.42 4.56-9.32 4.08-10.68zm-17.47-13s-8.73 5.24-11.84 14.17c-.78-10.67 11.84-14.17 11.84-14.17zM114.48 91.36c-1.93-.3-1.44-2.46-.41-5a5.816 5.816 0 0 1-4.81-2.82c-3.68 3.51-7.83 7.42-10.46 8.06-5.44 1.32-10.04 9.25-10.04 14.99 0 11.5 6.65 14.17 17.66 14.17s17.66-3.25 17.66-14.75c0-6.71-3.3-13.68-9.61-14.65zm-10.77 1.46s-8.73 5.24-11.84 14.17c-.78-10.68 11.84-14.17 11.84-14.17zm-9.95 21.8s8.46 4.57 15.81 2.93c-6.09 5.54-15.81-2.93-15.81-2.93zm23.93-.06c2.23-4.42 4.56-9.32 4.08-10.68 0 0 1.84 7.18-4.08 10.68zM0 116.85h10.58v-4.37H0zM22.85 116.85h12.91v-4.37H22.85zM188.86 116.85h12.9v-4.37h-12.9z"/></g></svg>