<svg xmlns="http://www.w3.org/2000/svg" xml:space="preserve" viewBox="0 0 255.46 270.38" shape-rendering="geometricPrecision" text-rendering="geometricPrecision" image-rendering="optimizeQuality" fill-rule="evenodd" clip-rule="evenodd"><g fill="currentColor"><path d="M246.65 270.38V160.76h8.81v-8.17H108.67v8.17h8.82l-.01 109.62h19.09v-91.67h91v91.67zM122.93 5.65c-12.74-9.45-30.74-6.78-40.18 5.96-9.45 12.74-6.78 30.73 5.96 40.18s30.73 6.78 40.18-5.96 6.78-30.73-5.96-40.18zM83.11 167.79l-39.88-35.53c4.06-11.95 10.84-23.71 17.63-34.22L46.51 75.99c-3.95-6.08-2.23-14.24 3.85-18.19 2.14-1.39 4.62-2.13 7.16-2.13 4.47 0 8.6 2.23 11.03 5.98l20.14 30.96 5.1-.58-14.46-38.79c-.56-1.51-1.45-2.8-2.55-3.84-.77-1.02-1.67-1.95-2.73-2.74-8.99-6.73-25.85-7.39-39.02 7.35C17.04 74.39 8.82 89.12.87 116.54c-1.28 6.13-1.08 11.08.1 15.14.37 3.86 2.13 7.6 5.25 10.38l47.71 42.51-22.07 64c-2.87 8.33 1.55 17.42 9.89 20.29 1.72.6 3.48.88 5.2.88 6.62 0 12.81-4.15 15.09-10.76l25.53-74.05c2.1-6.09.33-12.84-4.47-17.12z"/><path d="M122.4 138.81c1.62.94 3.38 1.39 5.13 1.39 3.52 0 6.94-1.82 8.84-5.08 2.84-4.88 1.19-11.13-3.69-13.96l-10.21-5.94-33.97 3.87 33.9 19.73zM146.89 93.21l3.24-4.08-7.44-5.91-3.57 4.49c3.21.8 5.97 2.79 7.77 5.51zM157.63 91.14s20.7-22.6 20.12-52.13l-33.19 41.72 13.07 10.4zM66.09 63.24c-3.08-4.73-9.4-6.07-14.13-2.99s-6.07 9.4-2.99 14.13l24.58 37.77c1.9 2.92 5.13 4.64 8.56 4.64.38 0 .77-.02 1.16-.07l53.8-6.13c5.61-.64 9.63-5.7 8.99-11.3-.64-5.6-5.7-9.64-11.3-8.99l-47.53 5.41L66.1 63.23zM126.09 148.77h85.75v-2.97h-85.75zM196.52 143.61c3.28 0 5.96-2.68 5.96-5.96s-2.68-5.96-5.96-5.96h-31.28c-2.28 0-4.12 2.67-4.12 5.96s1.84 5.96 4.12 5.96h31.28zm-33.87-5.96c0-2.61 1.36-4.43 2.59-4.43 1.22 0 2.59 1.82 2.59 4.43 0 2.61-1.36 4.43-2.59 4.43-1.22 0-2.59-1.82-2.59-4.43zM135.34 141.51c-.05 1.16 2.71 2.22 6.16 2.38 3.27.15 5.97-.58 6.29-1.64.28.11.55.23.85.33 3.26 1.15 6.22 1.19 6.61.09.12-.34-.05-.76-.41-1.2 2.32 1.56 4.46 2.19 5.08 1.41.72-.91-.9-3.39-3.61-5.53-2.72-2.14-5.5-3.14-6.22-2.23-.63.8.54 2.81 2.68 4.74-.79-.45-1.7-.88-2.73-1.24-3.26-1.15-6.22-1.19-6.61-.1-.14.4.09.91.6 1.43-.72-.13-1.5-.22-2.34-.26-3.46-.15-6.3.66-6.35 1.82z"/></g></svg>