<svg xmlns="http://www.w3.org/2000/svg" xml:space="preserve" viewBox="0 0 5375.85 5901.99" shape-rendering="geometricPrecision" text-rendering="geometricPrecision" image-rendering="optimizeQuality" fill-rule="evenodd" clip-rule="evenodd"><g fill="currentColor"><path d="M2096.48 2098.93c-96.97 90.13-226.45 144.87-367.89 144.87-20.32 0-40.91-1.17-61.23-3.47-229.45-25.82-409.46-192.35-463.91-403.7l-24.43-6.45L430.76 774.31 2413.89 71.77 2388.46.01 384.89 709.8c-56.01-76.65-163.31-94.45-241.03-39.37-50.34 35.69-75.84 93.23-73.03 150.63L0 846.14l25.43 71.76 65.83-23.33c3.37 6.28 7.03 12.48 11.26 18.44l782.51 1104.24-339.97 1286.64c-32.36 72.69-32.83 158.81 6.42 235.07l495.42 963.01-634.96 638.52c-105.86 106.49-105.39 278.64 1.07 384.5 53.05 52.76 122.39 79.11 191.71 79.11 69.83 0 139.66-26.75 192.79-80.16l774.42-778.77c83.12-83.61 102.9-211.25 48.97-316.11l-194.81-378.64 461.05 490.51-138.49 868.73c-23.64 148.29 77.4 287.63 225.69 311.27 14.48 2.32 28.92 3.44 43.13 3.44 131.29 0 246.82-95.33 268.16-229.11l159.5-1000.53c13.24-83.09-12.75-167.68-70.39-229.01l-676.7-719.96 292.42-1106.73c357.07 223.98 619.35 756.69 698.53 970.44 25.92 70.34 92.47 113.89 163.28 113.89 19.98 0 40.3-3.47 60.13-10.77 90.18-33.22 136.34-133.26 103.12-223.44-14.39-39.03-331.6-883.6-919.05-1190.24z"/><path d="M1673.22 2188.47c268.6 30.24 510.83-162.96 541.07-431.54 30.26-268.58-162.94-510.83-431.54-541.09-268.55-30.21-510.83 162.96-541.07 431.54-30.26 268.6 162.96 510.83 431.54 541.09zm-229.16-328.81c30.56-82.85 171.29-107.25 314.38-54.54 143.08 52.76 234.31 162.65 203.78 245.5-30.51 82.85-116-42.77-259.05-95.5-143.08-52.73-289.58-12.63-259.1-95.45z"/><path d="M2798.85 1348.27c-2.1-13.78-12.73-24.72-26.45-27.21l-272.76-49.44 177.18-255.56c7.82-11.28 7.74-26.23-.17-37.44-7.94-11.21-22.06-16.24-35.25-12.6l-280.47 76.77 28.46-323.51a32.62 32.62 0 0 0-19.66-32.88c-12.99-5.57-28.06-2.12-37.37 8.48L2114.22 943.7l-103.68-225.64c-5.67-12.36-18.34-19.98-31.95-18.93-13.56.95-25.08 10.21-28.97 23.25l-60.21 202.75-203.9-197.04c-10.19-9.87-25.55-11.99-38.05-5.3-12.51 6.69-19.25 20.69-16.71 34.61l54.47 298.04c3.22 17.73 20.37 29.38 37.96 26.23 17.71-3.25 29.46-20.25 26.23-37.96l-36.2-198.14 169.49 163.82c8.18 7.94 19.96 10.92 30.97 8.11a32.676 32.676 0 0 0 22.98-22.28l50.83-171.1 88.47 192.52c4.59 10.04 14 17.07 24.94 18.66a32.63 32.63 0 0 0 29.24-10.75l185.53-211.64-23.84 270.87a32.726 32.726 0 0 0 11.58 27.92c8.21 6.81 19.25 9.26 29.53 6.4l239.15-65.46-154.93 223.47a32.583 32.583 0 0 0-3.35 31.07 32.646 32.646 0 0 0 24.33 19.59l228.69 41.47-267.53 139.03c-8.92 4.62-15.19 13.12-17.05 22.98-1.81 9.89 1 20.05 7.67 27.6l114.07 128.72-168.31-12.14c-17.78-1.32-33.58 12.24-34.88 30.21-1.29 17.98 12.21 33.58 30.19 34.88l248.18 17.88c.78.05 1.56.07 2.34.07 12.36 0 23.74-6.99 29.24-18.17a32.629 32.629 0 0 0-4.81-36.1l-139.42-157.35 315.13-163.75a32.666 32.666 0 0 0 17.22-33.85zM3221.51 2322.1c31.04 8.55 64.31 10.75 98.12 4.74 121.2-21.52 202-137.22 180.48-258.39-19.05-107.32-111.96-182.8-217.09-183.77-.54-7.74-1.44-15.51-2.83-23.3-21.01-118.24-133.85-197.06-252.12-176.08-118.22 21.03-197.06 133.9-176.06 252.14.44 2.42 1.12 4.71 1.64 7.08l-286.43 1.37-1.54 32.56 236.14 11.02 192.81 9.01.02-54.64-101.85.49c-7.43-91.79 55.98-175.91 148.5-192.35 94.48-16.78 184.63 43.21 207.03 135.17-2.22.34-4.42.44-6.64.83-45.89 8.16-85.95 29.85-116.9 60.18 19.27-11.8 40.94-20.42 64.53-24.6 101.27-18 197.89 49.49 215.89 150.73 17.98 101.24-49.53 197.89-150.75 215.87-48.02 8.55-94.89-2.34-132.95-26.77 17.49 17.83 37.98 32.44 60.33 43.55-26.06 42.52-69.37 74.2-122.35 83.63-98.26 17.46-192.1-48.07-209.57-146.33-6.06-34.15-1.93-67.68 9.94-97.75l98.31 31.83 16.58-52.07-181.09-48.46-233.77-62.58-8.43 31.53 256.27 82.9c-20 41.64-27.82 89.62-19.12 138.59 22.06 124.13 140.57 206.91 264.74 184.85 77.09-13.68 138.17-64.63 168.14-130.97zM1184.25 664.8l-30.95 1.07c.05 1.17 3.27 116.73-65.14 166.04-40.72 29.36-99.9 29.87-175.93 1.54l-10.8 29.04c86.29 32.14 155.22 30.31 204.83-5.45 81.7-58.89 78.18-186.83 77.99-192.25zM1405.4 971.34c-81.78-11.38-134.39-40.4-156.42-86.2-37.18-77.31 23.13-180.36 23.74-181.38l-26.6-15.85c-2.83 4.79-69.39 118.12-25.08 210.54 11.04 23.06 27.87 42.52 50.34 58.35 31.95 22.5 75.33 37.61 129.75 45.19l4.27-30.65zM1185.96 1077.49c40.47-26.6 98.9-22.3 173.61 12.82l13.19-28.02c-85.19-40.03-153.78-43.62-203.9-10.65-85.76 56.47-82.09 197.97-81.9 203.97l30.95-1c-.05-1.29-3.25-130.31 68.05-177.13zM1024.85 1232.93c3.25-5.06 78.89-125.64 33.05-217.51-27.11-54.37-90.03-85.73-186.95-93.26l-2.39 30.87c85.29 6.62 139.64 32.19 161.62 76.16 38.05 76.13-30.75 186-31.46 187.1l26.13 16.63zM4860.48 4538.24c54.54-123.08 11.99-276.79-126.5-456.8-4.23-5.5-9.01-10.33-14-14.85 7.99 33.76 12.65 68.78 12.65 104.95 0 94.01-28.6 181.45-77.5 254.17 0 8.06-1.15 14.68-3.35 19.76-5.32 12.29-19.49 22.32-36.15 30.24-83.68 93.4-204.8 152.58-339.78 152.58-93.69 0-180.84-28.43-253.41-77.01-80.75-116.92-142.52-250.31-119.56-296.01 6.81-13.56 51.9-37.22 173.81-30.09 63.19 3.88 117.02-44.33 120.71-107.3 3.69-62.94-44.33-116.97-107.28-120.68-201.75-11.87-333.45 40.47-391.29 155.51-82.46 164.06 39.37 388.95 131.9 523.14 33.71 48.85 63.55 85.81 78.21 103.25 2.54 3.03 5.25 5.86 8.04 8.55v455.04l-489.5 196.11c-83.66 33.51-124.28 128.48-90.76 212.08 25.52 63.75 86.76 102.51 151.46 102.51 20.2 0 40.74-3.79 60.62-11.75l507.48-203.29h105.54l-103.83 58.21c-78.58 44.09-106.54 143.5-62.48 222.07 29.9 53.34 85.32 83.36 142.42 83.36 27.01 0 54.42-6.72 79.65-20.86l581.81-326.25c55.47-31.09 87.78-91.57 82.85-154.95-4.93-63.38-46.24-118.12-105.83-140.25l-141.67-52.61v-496.64c70.81-18.1 177.25-62.82 225.74-172.2z"/><path d="M4092.8 3951.62c42.62 2.49 81.75 21.45 110.08 53.34 28.38 31.92 42.65 72.98 40.13 115.6-2.08 35.2-15.56 67.1-36.54 92.47 24.72-.9 50.93.73 77.84 5.62 119.59 21.62 206.37 95.26 193.86 164.48-12.51 69.25-96.94-17.51-216.5-39.13-119.59-21.62-229.01 30.09-216.53-39.13 2.3-12.65 7.82-24.25 15.9-34.68-9.43-.39-18.54-.66-26.97-.66-51.1 0-79.43 7.01-91.18 11.82-.64 14.09 6.62 39.72 20.2 72.03 62.75 107.67 179.16 180.23 312.76 180.23 199.97 0 362.1-162.11 362.1-362.08 0-199.97-162.13-362.1-362.1-362.1-117.05.02-220.8 55.79-287 141.93 15.27-.88 30.82-1.51 47.02-1.51 18.29.02 37.44.59 56.91 1.76z"/><path d="M4452.22 3729.45c12.92 6.86 29.02 1.93 35.93-11.02l94.87-178.94c5.06-9.55 3.83-21.2-3.1-29.48-6.91-8.28-18.17-11.55-28.46-8.28l-162.99 52.15-18.42-288.53c-.71-11.33-8.57-20.96-19.52-23.94-10.72-2.88-22.62 1.34-28.97 10.75l-126.47 186.9-132.07-215.94c-5.84-9.55-17-14.39-27.94-12.19a26.515 26.515 0 0 0-20.98 22.1l-34.98 234.12-231.6-127.55c-10.11-5.52-22.57-3.98-30.95 3.86-8.38 7.84-10.8 20.2-5.96 30.6l113.6 244.23-202.12 3.05c-11.04.17-20.86 7.16-24.57 17.59-3.76 10.41-.64 22.03 7.79 29.21l131.19 111.48-213.74 87.08a26.51 26.51 0 0 0-16.46 26.6c.85 11.5 9.09 21.13 20.3 23.81l239.85 57.4c.24.07.51.12.76.17 14.02 2.93 27.89-5.81 31.24-19.83 3.42-14.24-5.37-28.58-19.64-32l-159.47-38.15 177.72-72.37c8.6-3.52 14.75-11.26 16.19-20.42a26.494 26.494 0 0 0-9.01-24.43l-110.72-94.11 172.44-2.59c9.01-.12 17.32-4.81 22.1-12.43a26.56 26.56 0 0 0 1.59-25.3l-96.63-207.74 193.91 106.79c7.6 4.2 16.78 4.37 24.57.54a26.572 26.572 0 0 0 14.48-19.88l29.82-199.6 115.51 188.81c4.69 7.72 13.04 12.48 22.03 12.7 9.04.2 17.54-4.2 22.59-11.68l106.03-156.69 15.63 244.94c.54 8.16 4.76 15.63 11.53 20.22a26.486 26.486 0 0 0 23.06 3.37l133.36-42.62-64.36 121.37c-6.86 12.95-1.93 29.02 11.02 35.88zM4750.37 3027.47c-40.69 29.36-99.87 29.87-175.91 1.54l-10.82 29.04c86.32 32.14 155.22 30.31 204.83-5.47 81.73-58.86 78.21-186.8 78.01-192.23l-30.95 1.07c.05 1.15 3.27 116.73-65.17 166.04zM5067.61 3166.89c-81.75-11.38-134.36-40.4-156.39-86.2-37.18-77.33 23.13-180.36 23.74-181.38l-26.6-15.85c-2.86 4.76-69.42 118.12-25.11 210.52 11.06 23.08 27.87 42.52 50.36 58.38 31.95 22.5 75.33 37.61 129.75 45.19l4.25-30.65zM5035 3257.85c-85.19-40.06-153.81-43.62-203.9-10.65-85.76 56.45-82.12 197.97-81.92 203.97l30.95-1c-.05-1.32-3.22-130.31 68.07-177.16 40.47-26.6 98.9-22.28 173.61 12.82l13.19-27.99zM4687.06 3428.48c3.25-5.08 78.92-125.64 33.07-217.51-27.11-54.37-90.06-85.73-186.95-93.26l-2.39 30.87c85.27 6.62 139.64 32.19 161.6 76.13 38.08 76.16-30.73 186.02-31.44 187.12l26.11 16.63zM3204.7 4742.07l7.86 29.95c89.08-23.4 144.35-64.58 164.33-122.37 32.9-95.18-43.62-197.77-46.92-202.12l-24.67 18.71c.71.93 69.88 93.55 42.33 173.27-16.39 47.46-64.48 81.95-142.94 102.56zM3509.77 4590.44c-74.91-41.82-84.93-160.77-85.02-161.99l-30.87 2.37c.42 5.54 11.26 136.54 100.68 186.58 22.32 12.48 47.29 18.73 74.79 18.73 39.06 0 83.24-12.6 132.12-37.76l-14.19-27.53c-73.4 37.79-133.12 44.36-177.5 19.59zM3718.34 4694.51l-5.37-30.51c-92.69 16.32-150.85 52.88-172.83 108.69-37.61 95.53 46.85 209.13 50.46 213.94l24.72-18.64c-.78-1.05-77.65-104.69-46.33-184.04 17.78-45.04 68.05-75.16 149.36-89.44zM3413.81 4834.2c74.96 40.3 81.95 169.78 82.02 171.07l30.92-1.42c-.27-6.03-7.82-148.19-98.19-196.89-53.49-28.82-123.01-18.25-206.56 31.39l15.83 26.62c73.52-43.7 132.7-54.05 175.98-30.78zM4945.29 3911.59c271.75-4.59 437.14 126.64 430.42-32.41-7.13-169-329.37-134.51-430.42 32.41zM4952.03 3565.46c-101.02-88.05-256.93 115.92-216.11 265.04 145.55-158.69 311.18-182.16 216.11-265.04zM4881.66 4188.82c185.61 31.75 281.35 142.33 297.21 33.17 16.83-115.97-207-133.85-297.21-33.17z"/></g></svg>