<svg xmlns="http://www.w3.org/2000/svg" xml:space="preserve" viewBox="0 0 168.2 289.84" shape-rendering="geometricPrecision" text-rendering="geometricPrecision" image-rendering="optimizeQuality" fill-rule="evenodd" clip-rule="evenodd"><g fill="currentColor" fill-rule="nonzero"><path d="M56.96 63.98c14.6 0 26.44-11.84 26.44-26.44 0-14.6-11.84-26.44-26.44-26.44-14.6 0-26.44 11.84-26.44 26.44 0 14.61 11.84 26.44 26.44 26.44z"/><path d="M16.21 128.91c2.3-7.47 4.66-14.48 6.22-18-1.66-1.07-2.46-2.02-2.92-2.79-.48-.84-.68-1.59-.69-2.68-.13-2.49 1.89-7.1 5.45-10.56.3-.31.61-.59.92-.87v13.58c2.08-1.07 5.1-1.33 7.55-1.33 5.48 0 15.08 1.54 16.44 7.32 5.11.22 9.38 3.7 10.77 8.41.7.74 1.14 1.73 1.14 2.83 0 .93-.32 1.78-.84 2.46-.9 5.27-5.32 9.35-10.74 9.73-.38 20.54-1.59 47.4-2.66 50.73-1.51 4.65-12.95 5.17-17.85 5.17h-.04c-.91 0-2.22-.02-3.77-.12v82.53c0 8.03 6.51 14.53 14.53 14.53 8.03 0 14.53-6.5 14.53-14.53V169.23h5.45v106.09c0 8.03 6.51 14.53 14.53 14.53s14.53-6.5 14.53-14.53V93.29c.06.02.11.04.17.06 6.62 2.38 15.23 4.92 24.39 4.96 3.54 0 7.19-.4 10.84-1.52 5.45-1.62 10.96-5.24 14.54-10.85 3.61-5.59 5.26-12.57 5.26-20.73 0-1.41-.05-2.87-.14-4.37a9.32 9.32 0 0 0-1.62-4.68h22.5a3.53 3.53 0 1 0 0-7.06h-.13c-.14-.32-.59-.71-1.07-.87-.66-.22-2.96-.34-5.02-3.71-2.18-3.57-.85-13.35-.07-15.73.69-2.13 2.26-3.12 5.97-8.59 3.4-5.02.04-16.91-.67-19.26a.972.972 0 0 0-.97-.94h-12.72c-.53 0-.95.42-.97.94-.71 2.34-4.08 14.23-.67 19.26 3.71 5.47 5.27 6.46 5.97 8.59.78 2.38 2.11 12.16-.07 15.73-2.06 3.37-4.37 3.49-5.02 3.71-.48.16-.93.56-1.07.87h-7.02c-.14-.32-.58-.71-1.07-.87-.66-.22-2.96-.34-5.02-3.71-2.18-3.57-.85-13.35-.07-15.73.7-2.13 2.26-3.12 5.97-8.59 3.4-5.02.04-16.91-.67-19.26a.972.972 0 0 0-.97-.94h-12.72c-.53 0-.95.42-.97.94-.71 2.34-4.08 14.23-.68 19.26 3.71 5.47 5.27 6.46 5.97 8.59.78 2.38 2.11 12.16-.07 15.73-2.06 3.37-4.37 3.49-5.02 3.71-.48.16-.93.56-1.07.87h-7.01c-.14-.32-.58-.71-1.07-.87-.66-.22-2.96-.34-5.02-3.71-2.18-3.57-.85-13.35-.07-15.73.7-2.13 2.26-3.12 5.97-8.59 3.4-5.02.04-16.91-.68-19.26a.972.972 0 0 0-.97-.94h-12.72c-.53 0-.95.42-.97.94-.71 2.34-4.08 14.23-.68 19.26 3.71 5.47 5.27 6.46 5.97 8.59.78 2.38 2.11 12.16-.07 15.73-2.06 3.37-4.37 3.49-5.02 3.71-.49.16-.93.56-1.07.87h-.13a3.53 3.53 0 1 0 0 7.06h25.44a9.366 9.366 0 0 0-1.62 5.9c.07 1.12.11 2.16.11 3.15 0 3.78-.52 6.49-1.18 8.32-1.06 2.74-2.06 3.64-3.55 4.54-1.5.85-3.94 1.45-7.1 1.44-5.44.04-12.53-1.81-17.95-3.82-2.72-.99-5.06-2-6.68-2.73-.81-.37-1.44-.67-1.85-.88-.21-.1-.36-.18-.45-.22l-.09-.05a9.373 9.373 0 0 0-5.37-1.02c-.41-.06-.83-.1-1.25-.1h-5.61L62.74 89.6l-3.57-10.7 4.5-8.2H50.33l4.5 8.2-3.57 10.7L39.9 70.69h-5.61c-.45 0-.89.04-1.33.11-8.75.55-16.1 5.04-21.98 10.81C4.93 87.77.16 95.82.03 105.45c-.02 4.06 1.01 8.38 3.3 12.22 2.81 4.78 7.29 8.54 12.91 11.24zm40.76 21.07a4.11 4.11 0 1 1 0-8.22 4.11 4.11 0 0 1 0 8.22zm0-50.34a4.11 4.11 0 1 1 0 8.22 4.11 4.11 0 0 1 0-8.22z"/><path d="M49.53 134.65c4.79-.44 8.54-4.46 8.54-9.36 0-4.93-3.81-8.97-8.64-9.36.22 3.64.23 10.56.1 18.72zM44.6 187.01c1.49-4.61 3.66-66.89 2.29-72.88-1.36-5.98-18.97-6.88-21.53-3.82-2.56 3.07-21.38 63.34-17.91 72.99 3.47 9.66 35.66 8.31 37.15 3.7z"/></g></svg>