<svg xmlns="http://www.w3.org/2000/svg" xml:space="preserve" viewBox="0 0 2845.94 1763.7" shape-rendering="geometricPrecision" text-rendering="geometricPrecision" image-rendering="optimizeQuality" fill-rule="evenodd" clip-rule="evenodd"><g fill="currentColor"><path d="M1495.33 385.33c71.39 0 129.25-57.87 129.25-129.26 0-67.68-52.04-123.18-118.28-128.76V-.01h-21.95v127.32c-66.24 5.57-118.28 61.07-118.28 128.76 0 71.39 57.87 129.26 129.26 129.26zM313.56 674.31c-10.42 59.71 29.52 116.56 89.23 126.99 59.71 10.43 116.57-29.52 127-89.23 10.42-59.71-29.52-116.56-89.23-126.99-59.71-10.43-116.56 29.52-127 89.23z"/><path d="M190.47 1280.56c-21.45 39.19-36.15 87.23-36.07 141.47-.05 61.94 18.9 130.45 61.5 203.58 16.92 29.11 54.24 38.99 83.35 22.07 29.12-16.92 38.99-54.24 22.07-83.35-34.04-58.71-44.92-105.17-44.98-142.29.09-32.63 8.29-59.24 21.22-83.16 19.26-35.68 50.78-64.47 78.06-83.43 1.86-1.3 3.69-2.55 5.5-3.76l281.65 386.52c11.93 16.38 30.5 25.07 49.32 25.07 12.45 0 25.02-3.8 35.85-11.7 27.22-19.83 33.2-57.98 13.38-85.19h-.01l-266.98-366.4c-3.56-9.62-8.13-19.62-9.94-27.15-40.83-114.98-23.24-174.05 17.5-243.52 8.61 3.95 17.71 8.62 26.36 13.95 13.87 8.42 26.35 18.49 34.05 28.17 7.81 9.93 10.83 17.87 10.91 26.75-.07 8.02-2.57 19.25-14.1 35.89-11.45 16.49-32 37.37-64.67 61.06-17.44 12.65-21.31 37.05-8.65 54.49 7.63 10.52 19.53 16.1 31.61 16.1 7.95 0 15.97-2.42 22.91-7.45 37.47-27.27 64.35-53.2 82.79-79.51 18.38-26.16 28.21-53.72 28.16-80.58.08-32.15-14.02-59.59-31.36-79.54-26.29-30.2-60.1-48.58-87.51-61.22-16.34-7.4-30.51-12.48-39.6-15.46-2.89-1.63-5.79-2.88-8.61-3.54-59.82-13.3-119.63-26.61-179.47-39.91-1.82-.42-3.92-.56-6.14-.57-5.75-7.22-13.01-17.6-19.71-30.91-10.95-21.82-20.53-51.06-20.55-88.36.11-56.26 21.6-133.36 103.75-232.68 13.76-16.59 11.46-41.19-5.13-54.95-16.59-13.76-41.18-11.46-54.94 5.12-90.69 109.08-121.85 205.14-121.73 282.5-.03 60.18 18.64 107.38 37.41 139.04 5.3 8.95 10.58 16.66 15.51 23.24-26.96 133.48-5.44 212.47 26.41 345.24.43 1.78.95 3.51 1.53 5.19-25.16 23.2-50.64 52.46-70.65 89.17zM0 1690.54v73.16h2845.94v-73.16zM1366.52 917.46c46.18 11.55 92.25 15.6 134.78 15.62 65.22-.06 122.21-9.54 158.73-17.52 12.7 123.9 7.7 250.09-15.72 374.67 29.29-1.22 58.62-3.02 88-5.26v329.53c0 26.94 21.83 48.77 48.77 48.77 26.93 0 48.77-21.83 48.77-48.77v-338.87c7.89-.9 15.78-1.88 23.66-2.87.56 2.99 1.36 5.96 2.5 8.9l136.42 349.92c9.78 25.1 38.06 37.51 63.16 27.73 25.08-9.79 37.51-38.06 27.72-63.16l-131.57-337.52c26.87-4.39 53.73-9.1 80.58-14.35-36.94-157.4-96.17-301.12-171.35-427.42 10.28-12.39 22.03-28.49 33.74-48.56 31.42-53.75 62.08-136.24 62-249.96 0-25.84-1.57-53.28-5.02-82.35-2.06-17.39-17.85-29.81-35.22-27.74-17.39 2.06-29.81 17.83-27.73 35.22 3.16 26.66 4.57 51.59 4.57 74.87-.05 102.37-27.09 172.84-53.37 218.02-13.14 22.56-26.17 38.73-35.63 49.05-4.08 4.44-7.43 7.73-9.9 10.04-16.42 8.82-35.6 18.67-52.79 26.23-29.3 12.89-62.86 23.38-79.32 28.26-30.63 7.5-91.51 19.77-161.01 19.72-38.46.01-79.51-3.73-119.42-13.71-17-4.24-34.2 6.09-38.45 23.08-4.24 16.98 6.09 34.2 23.09 38.43z"/><path d="M1561.92 693.54c2.49 60.56 53.6 107.62 114.15 105.11 60.54-2.5 107.59-53.6 105.11-114.15-2.5-60.54-53.62-107.6-114.15-105.11-60.54 2.49-107.6 53.61-105.11 114.14zM886.2 824.26c5.43 0 10.75 1.06 15.78 3.14 21.12 8.7 31.22 32.99 22.53 54.13-.99 2.41-1.93 4.72-2.89 7.08 9.4 2.17 19.22 3.16 29.32 2.74 60.54-2.49 107.59-53.6 105.11-114.14-2.5-60.54-53.62-107.6-114.15-105.11-60.54 2.49-107.6 53.61-105.12 114.15.82 19.87 6.9 38.27 16.8 53.95 7.73-9.91 19.61-15.94 32.62-15.94z"/><path d="M815.96 1036.1c2.54 4.87 6.49 9.93 11.74 13.82 4.26 3.19 9.21 5.36 13.96 6.57.66.18 1.34.32 2.01.46.38.07.77.19 1.14.26.03 0 .05 0 .08.01.04 0 .07.01.11.02 2.3.37 4.62.57 7.01.57 12.29-.26 20.14-4.07 27.35-7.8 12.36-6.82 23.01-15.78 33.95-25.79 13.06-12.11 25.99-25.88 36.84-38.04 40.38 117.71 59.69 237.45 59.76 353.59 23.43-5.84 46.86-11.67 70.28-17.51v292.23c0 26.94 21.83 48.77 48.77 48.77 26.93 0 48.77-21.84 48.77-48.77v-316.53c5.42-1.35 10.84-2.7 16.25-4.05v320.58c0 26.94 21.84 48.77 48.77 48.77 26.93 0 48.77-21.84 48.77-48.77V1269.6c34.59-8.61 69.18-17.23 103.76-25.85-67.67-150.07-158.57-282.8-265.61-394.57l129.73-268.83c7.61-15.77.99-34.73-14.78-42.33-15.78-7.62-34.72-.99-42.33 14.77l-129.55 268.46c-4.71 1.48-9.97 3.35-15.83 5.77-16.97 41.23-56.41 71.23-103.6 73.96-.42.45-.83.91-1.24 1.36-9.06.22-17.96 4.3-24.04 11.94l-.01-.01c0 .01-.98 1.24-2.93 3.64-4.69 5.73-14.59 17.63-26.28 30.51-2.77 8.02-5.24 15.54-7.31 22.37l-9.34-2.83c6.63-21.89 17.41-51.61 33.32-90.15 6.66-16.18-1.04-34.71-17.22-41.39-16.18-6.67-34.71 1.03-41.39 17.22-16.43 39.81-27.88 71.1-35.41 95.96 0 .01 0 .02-.01.03-7.44 24.97-11.31 42.95-11.45 59.44.1 8.48.88 17.13 5.95 27.03zM2315.42 852.16c20.49 14.07 38.93 24.12 52.97 30.92 51.76 82.27 79.75 140.86 33.82 270.23-.14.59-.35 1.24-.52 1.86l-207.97 409.75c-15.23 30.03-3.25 66.73 26.78 81.97 8.85 4.49 18.26 6.61 27.54 6.61 22.23 0 43.67-12.2 54.42-33.39l212.25-418.2c10.63-1.68 21.22-2.89 31.69-3.07a496.64 496.64 0 0 1 17.67 38.24c19.17 46.43 37.57 110.63 37.5 183.97-.01 49.25-8.1 102.68-29.91 159.29-12.12 31.42 3.53 66.71 34.94 78.83a60.84 60.84 0 0 0 21.92 4.1c24.48 0 47.58-14.84 56.91-39.04 27.56-71.4 38.11-140.44 38.08-203.17-.04-96.71-24.62-178.23-49-235.92-11.96-28.23-23.89-50.79-33.22-66.85-3.35.71-6.8 1.11-10.32 1.11-12.9 0-25.05-4.98-34.22-14.03-9.27-9.13-14.44-21.33-14.55-34.37-.09-13.02 4.88-25.31 14.03-34.58 36.46-36.78 57.28-65.26 69.18-85.59.79-25.94-.4-52.75-4.12-81.92 9.5 4.25 17.43 9.42 22.15 14.49 3.62 4.11 5.9 7.39 7.18 11.9.74 2.6 1.14 5.61 1.26 9.44 0 3.44-.42 7.66-1.58 12.81h-.01c-4.97 23.63-28.51 66.59-87.11 125.7-15.13 15.35-14.95 40.06.42 55.18 7.6 7.49 17.48 11.22 27.37 11.22 10.09 0 20.17-3.89 27.81-11.63 62.8-64.12 95.63-114.59 107.2-161.58.14-.53.3-1.04.43-1.57 2.31-10.2 3.52-20.25 3.52-30.12.01-1.35-.03-2.68-.07-4.01-.81-29.7-14.17-55.88-31.67-72.96-27.56-27.09-61.19-37.71-87.7-44.09-26.62-6.09-46.99-6.81-48.6-6.89-4.39-.16-8.64.45-12.63 1.66-2.69-.08-5.21.08-7.36.57-56.89 12.64-113.76 25.31-170.65 37.95-17.42-7.7-56.03-27.3-92.88-62.52-47.95-46.22-93.61-115.9-93.94-227.48 0-11.51.49-23.45 1.56-35.85 1.86-21.48-14.05-40.38-35.52-42.24-21.48-1.85-40.37 14.05-42.23 35.53-1.27 14.63-1.87 28.81-1.86 42.56-.05 69.19 15.31 127.88 38.69 175.87 35.1 72.13 87.33 119.76 130.33 149.32z"/><path d="M2434.35 770.18c60.62 0 109.75-49.13 109.75-109.75 0-60.61-49.13-109.75-109.75-109.75-60.61 0-109.75 49.13-109.75 109.75 0 60.61 49.14 109.75 109.75 109.75z"/></g></svg>