<svg xmlns="http://www.w3.org/2000/svg" xml:space="preserve" viewBox="0 0 1543.61 1499" shape-rendering="geometricPrecision" text-rendering="geometricPrecision" image-rendering="optimizeQuality" fill-rule="evenodd" clip-rule="evenodd"><g fill="currentColor"><path d="M214.86 650.95v181.57l40.99-198.46h.37l-14.75-104.18c-3.8.94-7.35 2.48-10.54 4.55-37 15.77-120.91 78.19-133.05 320.85h72.6c5.54-105.5 24.94-167.8 44.37-204.33zM336.22 634.06h61.12l15.7-110.83c-4.41-.35-8.92-.58-13.61-.58-.4 0-.78.05-1.17.06l6.08-23.67-57 18.66v38.38h-18.13v-37.87l-58.6-19.18 7.65 29.78h-15.57l14.9 105.24h58.63zM417.84 640.11l42.23 204.48V617.97c6.73 5.26 13.18 11.04 19.74 16.92 21.14 18.99 44.97 40.39 78.88 40.39 1.61 0 3.25-.05 4.91-.15 14.48-.87 28.72-5.56 43.45-14.43l-12.45 49.02 23.44 5.96 20.14-79.25c7.29-6.89 14.77-14.69 22.56-23.58 13.2-15.07 11.68-37.98-3.38-51.18-.05-.04-.1-.08-.16-.12l30.61-120.48 39.91 10.14 30.68-120.83-103.25-26.23-30.7 120.83 39.91 10.14-29.87 117.59c-10.43-.3-20.91 3.89-28.32 12.35-30.68 35.03-44.46 37.53-46.91 37.67-6.38.18-19.42-11.41-30.99-21.8-22.04-19.79-50.65-45.43-94.3-54.71l-16.13 113.9zm317.96-292.1-18.98 74.69-13.18-3.34 18.98-74.69 13.18 3.34zm-28.01-7.11-18.98 74.69-13.17-3.34 18.98-74.7 13.18 3.36zm-60.17 64.22 18.98-74.69 13.17 3.35-18.97 74.69-13.18-3.35z"/><path d="M246.63 354.1c-7.13 13.92-11.17 29.68-11.17 46.4 0 56.34 45.67 102 102 102 56.34 0 102-45.66 102-102 0-16.71-4.05-32.48-11.17-46.4-15.16-5.22-56.29-18.17-90.82-18.17-34.54 0-75.68 12.96-90.83 18.17z"/><path d="M232.44 263.47c11.11 5.56 13.03 25.94 12.24 44.63-.76 18.06-4.05 34.53-4.05 34.53s.81-.3 2.28-.83c10.63-3.81 56.59-19.48 94.56-19.48 37.96 0 83.93 15.67 94.55 19.48 1.47.53 2.28.83 2.28.83s-3.29-16.48-4.05-34.53c-.79-18.69 1.13-39.08 12.24-44.63 13.77-6.89 47.09-22.99 52.73-46.28 3.07-12.69-2.13-27.52-23.19-44.15-5.22 5.33-15.66 13.74-33.22 18.85 4.88-4.88 14.89-17.89 21.88-27.19-20.38-14.5-36.58-25.15-50.4-32.92-4.29 6.49-11.72 15.12-24.18 22.98 3.06-5.49 8.35-18.65 12.43-29.17-22.75-11.12-39.52-13.78-61.06-13.78s-38.31 2.66-61.06 13.78c4.07 10.52 9.36 23.68 12.42 29.17-12.46-7.85-19.89-16.48-24.18-22.98-13.83 7.77-30.03 18.42-50.41 32.92 6.99 9.31 17 22.31 21.88 27.19-17.55-5.12-28-13.53-33.21-18.85-21.06 16.63-26.26 31.45-23.19 44.15 5.63 23.28 38.94 39.39 52.72 46.28zM92.18 1387.18H460.1c54.75-123.37 126.07-147.32 151.49-151.89 3.19-.79 8.46-2.02 15.17-3.34-33.99-21.24-56.66-58.98-56.66-101.93 0-66.24 53.89-120.13 120.13-120.13s120.13 53.89 120.13 120.13c0 42.95-22.67 80.69-56.66 101.93 6.71 1.33 11.99 2.56 15.18 3.34 12.67 2.3 41.29 10.49 73.78 39.29 32.49-28.8 61.11-36.99 73.78-39.29 3.19-.79 8.47-2.02 15.18-3.34-33.99-21.24-56.66-58.98-56.66-101.93 0-66.24 53.89-120.13 120.13-120.13s120.13 53.89 120.13 120.13c0 42.95-22.67 80.69-56.66 101.93 6.72 1.33 11.99 2.56 15.18 3.34 12.67 2.3 41.29 10.49 73.78 39.29 32.49-28.8 61.11-36.99 73.78-39.29 3.19-.79 8.47-2.02 15.18-3.34-33.99-21.24-56.66-58.98-56.66-101.93 0-66.24 53.89-120.13 120.13-120.13 16.74 0 32.69 3.45 47.18 9.67v-96.27h92.17v-49.86H-.01v49.86h92.18v463.9zM509.23 852.26h194.93v-15.87H509.23zM1075.06 836.39H738.92v15.87h336.14zM544.37 823.54h107.29v-9.06H544.37zM554.57 806.92h107.29v-9.07H554.57zM548.15 790.3h107.29v-9.07H548.15zM1270.99 858.3V850.49c12.59-5.71 21.36-18.37 21.36-33.1h-72.72c0 14.73 8.77 27.38 21.36 33.1V858.3h29.99zM1355.99 858.3V850.49c12.59-5.71 21.36-18.37 21.36-33.1h-72.72c0 14.73 8.77 27.38 21.36 33.1V858.3h29.99zM284.84 822.6c-6.65 0-12.09 5.44-12.09 12.09 0 6.65 5.44 12.09 12.09 12.09H416.3c6.65 0 12.09-5.44 12.09-12.09 0-6.65-5.44-12.09-12.09-12.09H284.84zM1109.45 850.75h45.47l-4.23-62.72h-37.02zM1188.75 123.15h-178.21V0H782.36v123.15H604.15v31.74h584.6zM821.58 804.84c0 7.48 6.12 13.6 13.6 13.6h146.2c7.48 0 13.6-6.12 13.6-13.6v-75.93H821.59v9.44H687.86v16.06h133.73v50.43zM874.95 565.29c4.39-4.21.17-14-4.26-9.74-11.06 10.63-19.42 25.76-21.22 43.99-1.94 19.64 12.55 32.24 14.18 50.68 1.1 12.41-4.7 26.01-11.34 34.27-4 4.97 2 12.93 5.97 7.97 11.13-13.84 15.99-33.87 12.32-53.51-3.65-19.56-17.6-28.97-10.06-51.28 2.93-8.68 8.63-16.82 14.41-22.38zM924.51 565.29c4.38-4.21.17-14-4.27-9.74-11.06 10.63-19.42 25.76-21.22 43.99-1.94 19.64 12.56 32.24 14.19 50.68 1.1 12.41-4.7 26.01-11.34 34.27-4 4.97 2 12.93 5.98 7.97 11.13-13.84 15.99-33.87 12.31-53.51-3.65-19.56-17.6-28.97-10.06-51.28 2.94-8.68 8.63-16.82 14.42-22.38zM974.07 565.29c4.38-4.21.17-14-4.27-9.74-11.06 10.63-19.42 25.76-21.22 43.99-1.94 19.64 12.55 32.24 14.18 50.68 1.11 12.41-4.7 26.01-11.34 34.27-4 4.97 2 12.93 5.98 7.97 11.13-13.84 15.99-33.87 12.32-53.51-3.65-19.56-17.61-28.97-10.06-51.28 2.93-8.68 8.63-16.82 14.41-22.38z"/><path d="M1319.03 1248.62c-6.21 1-12.58 1.53-19.07 1.53s-12.86-.54-19.07-1.53c-26.01 1.99-48.61 7.29-54.88 8.86-10.71 1.82-42.86 10.33-78.48 48.82-35.62-38.48-67.76-46.99-78.48-48.82-7.77-1.94-40.61-9.62-73.95-9.62s-66.18 7.68-73.95 9.62c-10.71 1.82-42.86 10.33-78.48 48.82-35.62-38.48-67.76-46.99-78.48-48.82-7.77-1.94-40.61-9.62-73.95-9.62s-66.18 7.68-73.95 9.62c-20.32 3.46-117.73 30.94-169.7 241.53h60.88c18.95-70.3 42.81-113.89 64.19-140.8l-28.65 140.8h904.19l-28.61-140.64c21.31 26.95 45.16 70.54 64.11 140.64h60.92c-51.97-210.6-149.38-238.07-169.7-241.53-6.27-1.56-28.87-6.87-54.88-8.85zM787.7 1130.01c0-53.83-43.64-97.47-97.47-97.47s-97.47 43.64-97.47 97.47 43.64 97.46 97.47 97.46 97.46-43.64 97.47-97.46zM1092.56 1130.01c0-53.83-43.64-97.47-97.47-97.47-53.82 0-97.46 43.64-97.46 97.47s43.64 97.46 97.46 97.46c53.83 0 97.47-43.64 97.47-97.46zM1299.95 1032.55c-53.83 0-97.47 43.64-97.47 97.46 0 53.83 43.64 97.46 97.47 97.46s97.46-43.64 97.46-97.46c0-53.83-43.64-97.47-97.46-97.46z"/></g></svg>