<svg xmlns="http://www.w3.org/2000/svg" xml:space="preserve" viewBox="0 0 72.21 169.08" shape-rendering="geometricPrecision" text-rendering="geometricPrecision" image-rendering="optimizeQuality" fill-rule="evenodd" clip-rule="evenodd"><g fill="currentColor"><path d="M5.68 107.24c3.14 0 5.68-2.54 5.68-5.68-.03-26.33 3.37-40.3 6.57-47.06v105.81c0 4.85 3.93 8.78 8.78 8.78s8.78-3.93 8.78-8.78V96.23h3.29v64.08c0 4.85 3.93 8.78 8.78 8.78s8.78-3.93 8.78-8.78V74.9c-3.29.61-7.1.95-11.63 1.06h-.16c-3.2 0-5.94-2.18-6.81-5.13h-4.15c-1.57 0-2.84-1.27-2.84-2.84V50.24c0-1.57 1.27-2.84 2.84-2.84h7.1c1.57 0 2.84 1.27 2.84 2.84v11.6c.29-.04.58-.07.88-.08 4.9-.1 9.11-.61 11.93-1.44V52.4c.84.81 1.64 1.67 2.31 2.53 1.4 1.71 2.08 3.38 2.2 4.1.02.12.02.21.01.27-.02.24 0 .16-.09.32-.11.2-.97 1.12-3.63 1.94-2.62.83-6.81 1.49-12.71 1.61a5.684 5.684 0 0 0-5.56 5.8 5.69 5.69 0 0 0 5.68 5.56h.12c8.81-.21 14.98-1.32 19.68-3.65 2.34-1.18 4.35-2.76 5.77-4.81 1.43-2.04 2.11-4.51 2.09-6.76v-.04c-.04-3.43-1.3-6.29-2.82-8.78-2.34-3.73-5.5-6.8-8.54-9.18-1.53-1.18-3.02-2.18-4.49-2.96-.74-.39-1.47-.73-2.27-1.01-.58-.2-1.19-.38-1.96-.49-.41-.1-.84-.16-1.28-.16H23.42c-.32 0-.63.03-.94.09-1.47.08-3.72.56-6.1 2.06-4.09 2.57-8.17 7.69-11.19 17.2C2.15 65.59.01 79.77.01 101.55c0 3.14 2.54 5.68 5.68 5.68zM37.13 31.94c8.82 0 15.97-7.15 15.97-15.97S45.95 0 37.13 0 21.16 7.15 21.16 15.97s7.15 15.97 15.97 15.97z"/><path d="M33.64 49.3a1.24 1.24 0 1 0 0 2.48 1.24 1.24 0 0 0 0-2.48z"/></g></svg>