<svg xmlns="http://www.w3.org/2000/svg" xml:space="preserve" viewBox="0 0 333.77 608.27" shape-rendering="geometricPrecision" text-rendering="geometricPrecision" image-rendering="optimizeQuality" fill-rule="evenodd" clip-rule="evenodd"><g fill="currentColor"><path d="M18.79 412.84c.39 0 .79-.01 1.19-.04 9.51-.65 16.7-8.89 16.05-18.4-1.03-15.14-1.5-28.85-1.49-41.25-.05-50 7.64-78.4 15.31-93.78v322.21c0 14.74 11.95 26.69 26.68 26.69 14.74 0 26.69-11.94 26.69-26.68V386.75h10v194.83c0 14.74 11.95 26.69 26.68 26.69 14.74 0 26.69-11.94 26.69-26.68V255.43c11.6 6.86 27.13 13.09 45.81 13.12h.14c13.11 0 27.5-3.27 41.9-10.98 14.48-7.73 28.97-19.74 43.3-37 4.38-5.28 5.07-12.38 2.4-18.23h33.63V80.26c-.19-18.94-23.98-31.54-27.21-33.25v-5.48h-20.95V30.41c7.42-1.05 13.12-7.42 13.12-15.13 0-8.44-6.84-15.28-15.28-15.28s-15.29 6.84-15.29 15.28h4.31c.01-6.06 4.91-10.96 10.97-10.97 6.05.01 10.95 4.91 10.96 10.97-.01 6.05-4.91 10.95-10.96 10.96h-2.16v15.28h-21.29V47c-3.22 1.7-27.02 14.31-27.21 33.25v122.08h35.1c-10.82 12.28-20.84 20.03-29.7 24.76-9.78 5.19-18.16 6.89-25.79 6.92-12.63.04-23.93-5.16-32.26-10.86a76.94 76.94 0 0 1-9.62-7.76 55.192 55.192 0 0 1-2.38-2.4c-.24-.26-.41-.45-.49-.54-3.51-4.17-8.56-6.26-13.61-6.15-1.32-.34-2.7-.53-4.13-.53H66.52c-1.54 0-3.02.23-4.44.62-2.74.45-6.27 1.35-10.34 3.15-11.07 4.78-24.88 16.37-34.77 38.57C6.97 270.35.02 303.06-.01 353.15c0 13.26.49 27.75 1.58 43.6.63 9.11 8.21 16.09 17.21 16.09zM316.57 83.07h-15.82v-2.81c0-15.45-4.68-27-6.68-31.23h9.54c1.02 1.06 3.61 3.94 6.24 8.32 3.37 5.6 6.73 13.54 6.72 22.91v2.81zm15.05 42.15h-12.89V91.83h12.89v33.39zm-47.26 62.88v-25.34h14.23v25.34h-14.23zm0-34.1v-25.3c2.58.55 4.48.85 4.93 1.48.48.67 4.91 5.31 9.29 9.85V154h-14.23zm14.23-70.93h-14.23V49.03h7.31c.62 1.23 1.92 4.01 3.25 8.1a75.338 75.338 0 0 1 3.66 23.14v2.81zm-1 42.15c-1.35-2.4-2.57-4.91-3.49-7.52-2.09-5.9-5.72-10.04-9.74-12.9V91.84h14.23v33.39h-1zm-15.38-76.2v34.04h-14.22v-2.81c0-9.49 1.83-17.5 3.67-23.13 1.33-4.09 2.64-6.87 3.26-8.1h7.3zm0 42.81v11.56c-5.27-3.09-10.81-4.16-14.22-4.13v-7.44h14.22zm-15.27 10.15c1.24 0 2.25 1.01 2.25 2.25s-1.01 2.25-2.25 2.25-2.25-1.01-2.25-2.25 1-2.25 2.25-2.25zm7.57 23.24h-6.53v-6.19c1.79 2.81 4.09 4.77 6.53 6.19zm26.23 17.04c3.67 3.8 6.81 7.02 6.81 7.02l8.62-2.46s-8.53-6.71-15.43-16.6v-2h15.82v25.77h-15.82v-11.74zm17.98-14.03h12.89V154h-12.89v-25.77zm-2.16-3.01h-15.82V91.83h15.82v33.39zm-44.06-76.2c-2 4.23-6.68 15.79-6.68 31.23v2.81H250v-2.81c0-9.37 3.35-17.31 6.73-22.91 2.64-4.39 5.24-7.26 6.25-8.32h9.53zm-6.68 42.81v7.65c-4.8 1.11-9.23 4.29-9.23 4.29 3.6 1.8 8.21 6.08 8.21 6.08.22 1.65.57 3.13 1.02 4.49v10.87H250V91.82h15.82zm-17.98 33.39h-12.77v3.01h12.77V154h-12.89V91.83h12.89v33.39zm2.16 3.01h15.82V154H250v-25.77zm17.98 0h14.22V154h-14.22v-25.77zm14.22 34.53v25.34h-14.22v-25.34h14.22zm18.54 25.34v-25.34h15.82v25.34h-15.82zm17.98 0v-25.34h12.89v25.34h-12.89zm12.89-107.84v2.81h-12.89v-2.81c-.02-14.59-7.61-25.66-11.64-30.53 2.43 1.35 6.91 4.07 11.42 7.89 6.66 5.62 13.14 13.55 13.11 22.64zm-83.55-22.64c4.5-3.81 8.98-6.52 11.41-7.88-4.03 4.87-11.61 15.94-11.63 30.52v2.81h-12.89v-2.81c-.03-9.1 6.45-17.02 13.11-22.65zm-13.11 130.49v-25.34h12.89v25.34h-12.89zm15.05 0v-25.34h15.82v25.34H250zm17.99 14.24z"/><path d="M108.22 193.48c26.82 0 48.56-21.74 48.56-48.56 0-26.82-21.74-48.56-48.56-48.56-26.82 0-48.56 21.74-48.56 48.56 0 26.82 21.74 48.56 48.56 48.56z"/></g></svg>