<svg xmlns="http://www.w3.org/2000/svg" xml:space="preserve" viewBox="0 0 1559.76 788.66" shape-rendering="geometricPrecision" text-rendering="geometricPrecision" image-rendering="optimizeQuality" fill-rule="evenodd" clip-rule="evenodd"><g fill="currentColor"><path d="M367.75 150.24V278.6h8.85V150.24zM407.14 150.24V278.6h8.85V150.24zM396.3 81.27h-8.85v218.08c3.01.78 5.94 1.72 8.85 2.72V81.27zM224.63 433.09c-35.4-14-92.32-4.31-124.74 49.19C55.8 556.09 39.93 606.13 35 694.18c1.86 64.66 48.42 78.51 88.16 84.21 12.58 1.81 23.02 2.92 31.63 1.88 14.82 1.23 30.04-3.99 41.09-15.58l82.86-86.91 24.42 75.62c6.96 21.55 26.94 35.27 48.43 35.27 5.18 0 10.45-.8 15.65-2.48 26.75-8.64 41.44-37.33 32.8-64.08l-12.85-39.78c-3.29.82-6.7 1.29-10.21 1.29-1.23 0-2.47-.05-3.71-.16l-143.91-12.27c-16.56-1.41-31.01-12.4-36.8-27.98l-47.65-128.22c-4.02-10.81-3.58-22.54 1.22-33.02 4.8-10.48 13.4-18.47 24.21-22.49 4.84-1.8 9.9-2.71 15.03-2.71 17.96 0 34.22 11.31 40.48 28.15l19.79 53.25c.78-1.84 1.58-3.73 2.34-5.52 10.48-19.6 13.12-42.61 8-61.97-3.53-6.21-6.5-12.75-8.86-19.54-5.51-7.91-12.96-14.27-22.5-18.05z"/><path d="m359.2 595.6-9.85-30.49a50.873 50.873 0 0 0-37.1-33.98c-17.49-4.01-35.8 1.51-48.18 14.5l-11.26 11.81 11.17 30.05 95.22 8.12z"/><path d="M174.28 470.06c-16.51 6.14-24.92 24.49-18.79 41l47.65 128.23a31.89 31.89 0 0 0 27.19 20.66l143.92 12.27c.92.08 1.83.11 2.74.11 16.38 0 30.32-12.56 31.74-29.19 1.49-17.54-11.52-32.99-29.07-34.48l-123.77-10.55-40.6-109.27c-6.13-16.51-24.5-24.93-41-18.79zM375.19 311.71c-55.85-9.51-108.83 28.05-118.34 83.92-9.51 55.85 28.06 108.84 83.91 118.35 55.87 9.51 108.84-28.07 118.35-83.92 9.51-55.86-28.05-108.84-83.92-118.35zM0 474.24h8.85V345.87H0zM39.39 345.87v128.37h8.86V345.87zM19.7 543.2h8.85V276.91H19.7zM175.4 172.52v128.37h8.85V172.52zM214.79 172.52v128.37h8.85V172.52zM195.09 103.56v266.29h8.85V103.56zM477.94 647.59h8.85V519.22h-8.85zM517.33 647.59h8.85V519.22h-8.85zM497.63 716.55h8.86V450.26h-8.86zM858.78 434.11c.62-12.48 1.08-24.33 1.45-35.69H693.39c.36 11.36.83 23.21 1.44 35.69.91 18.41-9.93 34.7-25.91 41.67v261.98c0 28.1 22.79 50.9 50.91 50.9 28.1 0 50.89-22.8 50.89-50.9V495.32h20.18v242.44c0 28.1 22.79 50.9 50.91 50.9 28.1 0 50.9-22.8 50.9-50.9V478.37c-20.24-4.4-35-22.91-33.94-44.27z"/><path d="M619.86 437.81c.84 17.05 14.93 30.32 31.82 30.32.53 0 1.06-.01 1.6-.04 17.59-.87 31.15-15.83 30.28-33.42-5.06-102.52-1.04-169.58 5.4-211.66l11.31.45c-5.1 32.19-9.11 82.71-7.29 160.24h167.64c1.83-77.53-2.18-128.05-7.29-160.25l11.31-.44c6.45 42.08 10.46 109.14 5.4 211.66-.87 17.59 12.69 32.56 30.28 33.42.53.03 1.07.04 1.6.04 16.89 0 30.99-13.26 31.83-30.32 4.48-90.65 2.79-163.19-4.97-217.33-7.33-51.18-20.1-85.91-38.27-103.75-.67-.66-1.36-1.27-2.04-1.89-5.15-8.54-14.49-14.26-25.19-14.26h-4.94c0 61.68-50.18 111.85-111.86 111.85-45.65 0-84.97-27.5-102.34-66.79-8.43 18.82-14.87 43.81-19.32 74.83-7.76 54.14-9.44 126.68-4.96 217.33z"/><path d="M746.48 201.15c55.55 0 100.58-45.03 100.58-100.58 0-55.54-45.03-100.58-100.58-100.58-55.54 0-100.57 45.03-100.57 100.58s45.03 100.58 100.57 100.58zM921.96 498.79h196.25v-9.81H921.96zM1213.05 498.79h196.25v-9.81h-196.25zM1507.42 498.79h52.34v-9.81h-52.34z"/><path d="m1201.22 398.43-57.64-40.34c-.55-26.81 6.67-55.7 12.11-78.38l66.73 54.53c3.19 2.6 7.03 3.87 10.86 3.87 4.98 0 9.91-2.15 13.3-6.31 6.01-7.35 4.91-18.17-2.43-24.16l-93.83-76.65a17.035 17.035 0 0 0-8.94-3.74c-1.07-.39-2.18-.72-3.33-.96-18.19-3.84-44.79 5.49-56 33.89-15.17 39.14-18.7 64.51-13.87 107.3.11.54.26 1.01.38 1.54.09.52.08 1.03.2 1.55l12.36 52.83-56.8-1.89c-13.72-.47-25.21 10.28-25.67 24-.46 13.72 10.29 25.21 24.01 25.67l89.21 3c.28.01.55.02.83.02 7.42 0 14.49-3.34 19.22-9.09 4.9-5.96 6.75-13.92 4.99-21.43l-8.28-35.36 30.43 21.3-15.52 69.38c-3 13.39 5.43 26.69 18.82 29.68 1.83.42 3.66.61 5.45.61 11.38 0 21.64-7.86 24.23-19.43l19.16-85.63c2.2-9.82-1.77-20.03-10-25.79zM1135.86 184.62c0 27.66 22.41 50.08 50.07 50.08s50.08-22.42 50.08-50.08c0-27.66-22.42-50.08-50.08-50.08-27.66 0-50.07 22.42-50.07 50.08zM1493.01 398.43l-57.64-40.34c-.38-18.27 2.86-37.51 6.69-55.1l12.41 24.1c2.14 4.15 5.89 7.2 10.39 8.46 1.49.42 3.01.62 4.53.62 3.06 0 6.08-.84 8.74-2.47l55.49-33.93c7.9-4.83 10.39-15.15 5.55-23.05-4.83-7.9-15.15-10.39-23.05-5.55l-40.1 24.52-29.06-56.41c-.71-1.37-1.62-2.55-2.62-3.63-3.59-4.66-8.44-8.08-14.5-9.36-2.26-.48-4.66-.75-7.14-.81-1.13-.11-2.29-.11-3.47.02l-81.24 8.99c-6.43.7-11.84 5-13.97 11.12l-20.96 59.88c-3.06 8.74 1.54 18.29 10.28 21.37 1.83.64 3.7.94 5.54.94 6.93 0 13.41-4.33 15.83-11.24l17.47-49.91 20.06-2.22c-13.79 36.76-16.93 61.85-12.27 103.06.11.54.26 1.01.38 1.54.09.52.08 1.03.2 1.55l12.37 52.83-56.8-1.89c-13.72-.47-25.21 10.28-25.67 24-.46 13.72 10.29 25.21 24.01 25.67l89.21 3c.28.01.55.02.83.02 7.42 0 14.49-3.34 19.22-9.09 4.9-5.96 6.75-13.92 4.99-21.43l-8.28-35.36 30.43 21.3-15.52 69.38c-3 13.39 5.43 26.69 18.82 29.68 1.83.42 3.66.61 5.45.61 11.39 0 21.65-7.86 24.23-19.43l19.16-85.63c2.21-9.82-1.76-20.03-10-25.79zM1477.73 234.71c27.66 0 50.08-22.42 50.08-50.08 0-27.66-22.42-50.08-50.08-50.08-27.66 0-50.07 22.42-50.07 50.08 0 27.66 22.41 50.08 50.07 50.08z"/></g></svg>