<svg xmlns="http://www.w3.org/2000/svg" xml:space="preserve" viewBox="0 0 203.69 261.49" shape-rendering="geometricPrecision" text-rendering="geometricPrecision" image-rendering="optimizeQuality" fill-rule="evenodd" clip-rule="evenodd"><g fill="currentColor"><path d="M200.26 204.03h-15.02c-5.05 1.42-11.26 2.87-18.35 3.94l-28.65 7.68-1.13 3.97.97 41.15h3.7l.99-41.8h48.54l.99 41.8h3.7l.99-41.8h2.71v-8.08h.57c1.89 0 3.43-1.54 3.43-3.43 0-1.89-1.54-3.43-3.43-3.43zM119.96 166.06c-.49-.06-.97-.19-1.44-.34-1.08 1.84-2.14 3.7-3.21 5.57l5.45.23c.09 0 .17.01.26.01 2.04 0 3.94-1.03 5.06-2.75l4.55-7.03-5.53 3.27a8.007 8.007 0 0 1-5.13 1.04zM82.52 163.86c-.08 1.96.78 3.74 2.19 4.9 2.22-3.63 4.42-7.14 6.58-10.55l-2.5-.11c-3.33-.16-6.13 2.44-6.27 5.76zM69.49 194.79 54.67 55.62c-1.04-.35-2.08-.64-3.12-.88l15.4 144.64c.85-1.55 1.69-3.08 2.54-4.6zM82.28 172.75 71.01 66.93c-1.19-1.51-2.35-2.88-3.46-4.05l12.16 114.17c.86-1.45 1.72-2.88 2.57-4.3zM93.69 139.48c.07.01.13.03.2.04l-5.24-49.18c-1.18-1.36-2.34-2.78-3.48-4.22l5.7 53.5c.9-.2 1.86-.25 2.82-.13zM92.7 155.99l-.09-.03.02.16c.03-.04.05-.08.08-.12zM108.3 132.64l-.49-4.57a21.64 21.64 0 0 1-3.35-2.99l1.21 11.36c.88-1.29 1.76-2.55 2.62-3.8zM134.46 93.9c-.16.15-.32.31-.48.46.2.17.39.35.59.52l-.11-.98zM95.18 156.92a742.553 742.553 0 0 0-36.02 62.68l1.25 11.75h25.78c6.66-23.56 17.91-46.05 29.86-66.54l-20.87-7.88z"/><path d="M35.66 231.35h22.16L35.38 21.21l2.57-.27 3.37 31.52c7.38-2.34 15.14.52 23.29 4.74 9.91 5.13 22.12 32.84 37.8 41.77a21.43 21.43 0 0 1 3.03-3.66c4.1-3.95 9.49-6.08 15.18-5.97.82.01 1.64.08 2.45.18 3.25.43 6.24 1.59 8.83 3.29 7.77-7.18 12.96-15.99 17.74-15.44 2.97.34-2.21 7.03-12.44 20.39 2.83 3.72 4.48 8.36 4.39 13.36a21.28 21.28 0 0 1-6.53 15.03c-4.1 3.95-9.49 6.07-15.17 5.97-.82-.01-1.64-.08-2.45-.18-1.62-.21-3.16-.63-4.64-1.18-2.77 3.94-5.64 8.1-8.6 12.49l16.06 6.06 8.24-4.87c.49-.78.98-1.55 1.47-2.32-.34-6.66 1.62-12.25 10.63-16.83.07-.04.14-.07.21-.1 20-31.18 33.43-53.62 17.26-61.71-21.37-10.69-27.86 17.23-42.37 17.23-14.51 0-27.93-43.12-42.92-54.02-7.19-5.23-17.38-7-26.04-7.44.66-.65 1.05-1.55 1.02-2.53 0-.09.01-.17 0-.26-.2-1.88-1.9-3.25-3.77-3.05l-6.76.72-27.05 2.89-7.1.76c-1.88.2-3.24 1.9-3.05 3.77.2 1.88 1.9 3.25 3.77 3.05l7.1-.76 2.57-.27 22.19 207.8zM96.41 233.28H29.96c-1.55 0-2.85 1.05-3.27 2.46-.09.31-.16.63-.16.97 0 1.89 1.54 3.43 3.43 3.43h.57v.01h24.02v2.69H30.53v10.36h-.57c-1.89 0-3.43 1.54-3.43 3.43 0 1.89 1.54 3.43 3.43 3.43h66.45c1.89 0 3.43-1.54 3.43-3.43 0-1.89-1.54-3.43-3.43-3.43h-.57v-3.68h9.38v-3.16h-9.38v-6.23h.57c1.89 0 3.43-1.54 3.43-3.43 0-.34-.06-.66-.16-.97a3.417 3.417 0 0 0-3.27-2.46zM136.64 214.02l17.55-4.7c-2.94.19-5.97.29-9.08.29-7.71 0-15.94-.64-24.47-2.21l-12.23 43.15a8.595 8.595 0 0 0 7.15 10.87c4.17.55 8.22-2.02 9.4-6.18l11.69-41.22z"/><path d="M100.88 110.36c-.18 10.72 8.34 19.56 19.02 19.76 10.69.2 19.5-8.34 19.69-19.06.18-10.72-8.34-19.56-19.02-19.76-10.69-.19-19.5 8.34-19.69 19.06zM121.52 204.94c38.28 6.92 70.15-5.36 76.06-7.85-2.13-8.06-16.61-59.77-39.12-70.07-5.54-2.54-11-2.36-16.69.54-7.74 3.94-9.53 8.51-9.22 14.46l11.96-7.08a8 8 0 0 1 5.13-1.05c2.45.33 4.58 1.73 5.84 3.86a7.939 7.939 0 0 1 .86 6.06 7.958 7.958 0 0 1-3.68 4.9l-17.4 10.3c1.59 11.87.96 26.94-13.72 45.93z"/><path d="M151.64 147.01a6.029 6.029 0 0 0 2.12-8.25 6.029 6.029 0 0 0-8.25-2.12l-25.07 14.83-25.67-9.69c-3.11-1.17-6.59.39-7.76 3.51a6.01 6.01 0 0 0 3.51 7.76l28.38 10.72a5.967 5.967 0 0 0 5.19-.45l27.56-16.3zM137.98 21.31c1.38-.78 2.22-2.08 2.26-3.29V0l-17.46 4.8v16.88c-1.01-.34-2.31-.2-3.49.46-1.91 1.08-2.79 3.14-1.96 4.6.83 1.46 3.04 1.77 4.95.69 1.51-.85 2.37-2.32 2.26-3.61V11.81l13.92-3.83v7.58c-1.01-.34-2.31-.21-3.49.46-1.91 1.08-2.79 3.14-1.96 4.6.83 1.46 3.04 1.77 4.95.69zM124.56 9.98V6.15l13.92-3.83v3.83l-13.92 3.83zM126.92 35.68l-3.22 17.04c-.93-.52-2.23-.63-3.51-.19-2.08.71-3.32 2.57-2.78 4.16.54 1.59 2.66 2.3 4.74 1.6 1.64-.56 2.76-1.84 2.89-3.13l2.88-15.27 5.98 2.32.64-1.65-.04-.02.51-1.08-8.09-3.78zM106.94 14.24l-.04.01-.07-1.19-8.92.54 5.32 16.51c-1.07-.01-2.26.52-3.18 1.51-1.49 1.61-1.69 3.84-.45 4.98 1.24 1.14 3.44.75 4.93-.86 1.17-1.27 1.54-2.93 1.04-4.13l-4.76-14.79 6.37-.82-.22-1.75z"/></g></svg>