<svg xmlns="http://www.w3.org/2000/svg" xml:space="preserve" viewBox="0 0 309.26 355.71" shape-rendering="geometricPrecision" text-rendering="geometricPrecision" image-rendering="optimizeQuality" fill-rule="evenodd" clip-rule="evenodd"><g fill="currentColor"><path d="M11.4 234.93c.21 0 .42-.01.63-.02 5.86-.35 10.34-5.37 9.99-11.24-.52-8.84-.76-16.89-.76-24.22-.05-31.68 4.5-49.7 9.04-59.26v199.09c0 9.08 7.36 16.44 16.44 16.44 9.08 0 16.44-7.36 16.44-16.44v-120h6.16v120c0 9.08 7.36 16.44 16.44 16.44 9.08 0 16.44-7.36 16.44-16.44V149.59c.64.65 1.27 1.31 1.95 1.94 1.96 1.8 4.12 3.52 6.53 5.01 2.47 1.53 5.23 2.78 8.34 3.58l.23.06c.28.07.54.15.82.22.3.06.61.1.91.14 1.3.22 2.63.36 3.99.36h.24c6.64 0 13.33-3.22 18.33-8.39 5.17-5.25 9.33-12.34 13.19-21.94 2.18-5.45-.47-11.64-5.92-13.82-5.45-2.18-11.64.47-13.82 5.92-3.16 7.95-6.33 12.68-8.55 14.86-2.32 2.21-2.95 2.03-3.47 2.1-.17 0-.36-.02-.59-.07h-.02c-.85-.14-2.6-.98-4.61-2.64-.38-.31-.76-.64-1.15-1-3.78-3.45-7.75-9.08-10.48-13.73a100.728 100.728 0 0 1-4.07-7.58c-.09-.19-.16-.33-.2-.42l-.04-.09c-1.9-4.22-6.21-6.57-10.57-6.21-.43-.05-.86-.09-1.3-.09H42.51c-.4-.05-1.04-.1-1.88-.1-2.36-.01-6.5.46-11.21 2.84-7.15 3.54-14.86 11.3-20.25 25.04-5.46 13.8-9.13 33.75-9.14 63.87 0 7.79.25 16.25.79 25.47.33 5.65 5.02 10.01 10.61 10.01z"/><path d="M146.86 113.32c1.69 0 3.36.32 4.94.96 2 .8 3.72 2.04 5.09 3.62l9.98-33.27-29.73-8.92-13.33 44.41 10.1 3.03c.2-.47.4-.95.6-1.46 2.03-5.08 6.88-8.36 12.34-8.36zM185.78 164.72c.86-25.76 5.01-40.93 9.1-49.3v49.3h62.54c-34.77-30.71-54.78-66.03-61.62-79.43-.67.27-1.35.57-2.05.92-7.15 3.54-14.86 11.3-20.25 25.04-4.8 12.14-8.22 29.06-8.98 53.46h21.27zM204.75 85.21c2.96 5.52 7.45 13.32 13.49 22.33 10.96 16.33 27.08 36.64 48.54 54.72v-46.78c.79 1.62 1.58 3.47 2.37 5.63 3.23 8.96 6.02 22.89 6.71 43.61h21.27c-1.06-33.64-7.08-53.12-15.03-65.27-4.37-6.63-9.47-10.88-14.2-13.23-4.43-2.24-8.34-2.78-10.75-2.83-.21-.01-.43-.03-.65-.03h-51.36c-.23 0-.45.02-.67.03-.22 0-.44.01-.68.03.3.57.61 1.16.95 1.79zM66.26 40.41c-16.52 0-29.91 13.39-29.91 29.91s13.39 29.91 29.91 29.91 29.91-13.39 29.91-29.91-13.39-29.91-29.91-29.91zM201.62 34.65c.11.81.53 1.59 1.25 2.33a29.71 29.71 0 0 0-1.95 10.62c0 16.52 13.39 29.91 29.91 29.91s29.91-13.39 29.91-29.91c0-3.74-.69-7.32-1.95-10.62.71-.74 1.14-1.52 1.25-2.33 3.48.12 6.16-.44 7.34-2.3C271.35 26.1 261.18 0 230.83 0c-30.35 0-40.52 26.1-36.55 32.35 1.18 1.86 3.86 2.43 7.34 2.3zm29.21-14.14c16.15 0 29.25 4.17 29.25 9.31 0 .76-.3 1.5-.84 2.22-3.12-4.07-14.65-7.09-28.4-7.09-13.75 0-25.28 3.02-28.4 7.09-.55-.71-.84-1.45-.84-2.22 0-5.14 13.09-9.31 29.24-9.31zM111.19 167.38v17.95h198.07v-17.95z"/></g></svg>