<svg xmlns="http://www.w3.org/2000/svg" xml:space="preserve" viewBox="0 0 2181.99 1416.7" shape-rendering="geometricPrecision" text-rendering="geometricPrecision" image-rendering="optimizeQuality" fill-rule="evenodd" clip-rule="evenodd"><g fill="currentColor"><path d="M1308.07 532.06c-5.23-20.59-26.16-33.04-46.76-27.8l-256.35 65.17c-37.32-13.85-92.15-4.25-130.5 50.33-58.36 84.12-82.64 142.83-100.34 248.89-4.56 50.97 14.37 78.26 39.83 94.35 4.64 4.32 10 7.99 16.1 10.76v-.01c3.08 1.37 36.51 18.02 66.38 45.8 15.45 14.24 29.83 31.19 39.77 49.51 9.97 18.46 15.84 37.75 15.9 60.34-.04 18.62-4.04 40.14-15.87 66.36-11.83 26.15-31.74 56.84-63.32 91.49-22.36 24.55-20.57 62.57 3.98 84.92 11.52 10.49 26.01 15.67 40.45 15.67 16.33 0 32.6-6.62 44.47-19.64 38.29-42.08 65.8-82.85 83.92-122.82 18.13-39.91 26.63-79.19 26.59-115.97.03-16.77-1.75-32.85-4.89-48.18-.82.05-1.65.16-2.48.16-17.93 0-34.25-9.85-42.6-25.71-26.12-49.62-45.63-95.94-60.2-138.23-7.19-5.95-14.24-11.36-20.96-16.27 2.12-8.92 4.61-17.85 7.37-26.76-22.9-79.88-27.64-141.95-27.61-179.63 0-29.3 2.81-46.1 3.14-47.92 3.99-23.08 23.89-39.86 47.31-39.86 2.76 0 5.53.24 8.26.71 26.11 4.53 43.68 29.45 39.17 55.57v.07l-.09.66c-.15 1.11-.37 2.98-.6 5.58-.47 5.05-1.02 13.49-1.01 25.19.01 7.16.23 15.38.78 24.55 3.75-7.18 7.39-14.15 10.8-20.77 11.52-18.3 17.76-39.98 18.14-60.4l233.41-59.34c20.6-5.24 33.04-26.17 27.8-46.76zM361.54 501.3c59.65-3.49 105.17-54.68 101.69-114.33-3.49-59.65-54.68-105.17-114.33-101.68-59.65 3.49-105.18 54.67-101.69 114.32 3.49 59.65 54.67 105.18 114.33 101.69zm10.87-61.53c32.61-8.25 54.28-33.81 59.05-14.93 4.77 18.88-17.79 40.87-50.41 49.12-32.61 8.25-62.92-.37-67.69-19.26-4.77-18.88 26.44-6.68 59.05-14.93zM267.14 1371.62c111.31-138.93 153.79-299.85 166.66-439 9.84 1.42 19.76 2.72 29.52 3.86.75 22.75 1.18 45.92 1.17 69.25.25 119.57-11.83 243.73-44.11 329.97-11.53 31.13 4.37 65.71 35.5 77.24a59.655 59.655 0 0 0 20.86 3.76c24.43.01 47.4-15 56.38-39.25 40.51-110.42 51.34-244.42 51.59-371.72-.02-45.46-1.52-90.03-3.88-132.05 6.28-1.48 12.29-4.52 17.36-9.23 36.65-34.15 62.96-66.03 80.65-96.91 17.63-30.8 26.63-61.09 26.63-90.05.14-32.89-12.07-62.42-29.84-84.91-26.82-33.96-64.1-54.79-100.35-68.65-36.57-13.66-72.04-20.1-100.52-20.24-6.48.02-12.63.35-18.87 1.27-36.36.87-85.47 8.89-128.43 23.3-15.86 3.9-31.73 10.59-48.4 19.47-29.66 16.03-60.84 39.17-86.33 68.75-25.16 29.43-45.78 66.5-46.01 110.32-.24 33.64 13.72 68.72 41.1 98.21 27.36 29.77 67.13 55.59 122.48 78.8 1.71.72 3.44 1.25 5.18 1.71-9.66 127.12-46.3 272.16-142.04 390.76-20.8 25.86-16.69 63.7 9.18 84.5 11.11 8.93 24.41 13.27 37.63 13.27 17.59 0 35.01-7.67 46.88-22.44zm347.85-731.7c8.98 11.79 13.38 22.93 13.52 37.57-.01 12.92-3.9 29.83-16.47 51.85-8.43 14.8-20.95 31.74-38.1 50.46-8.66-96.46-19.8-166.92-22.34-182.54 8.05 3.15 15.94 6.73 23.26 10.78 16.95 9.11 31.15 20.29 40.13 31.89zM244.55 773.07c-16.61-18.56-20.65-32.51-20.9-46.27-.01-11.94 3.97-25.18 12.28-39.25 12.27-21.06 34.26-42.52 57.09-58.23 1.86-1.32 3.74-2.59 5.63-3.83 6.03 29.28 19.12 103.74 19.64 197.66-36.09-17.22-59.75-34.7-73.74-50.08zM80.15 301.9c-5.33-12.26-9.27-22.51-11.87-30.77-2.33-7.36-4.17-12.31-5.53-14.85-.94-1.77-2.35-2.91-4.23-3.44-1.87-.53-3.74-.29-5.6.71-1.64.87-2.8 2.36-3.5 4.46-.72 2.1-.81 3.63-.3 4.57 3.44 6.41 6.31 12.66 8.62 18.73 2.32 6.07 3.46 9.88 3.44 11.42-.03 1.54-4.2 5.02-12.52 10.43s-14.85 9.39-19.6 11.94c-2.17 1.16-3.49 1.65-3.93 1.45-1.55-2.88-3.4-7.78-5.58-14.7-1.91-6-3.54-10.26-4.88-12.77-2.98-5.56-6.71-7.15-11.19-4.75-1.32.71-2.3 1.92-2.93 3.64-.63 1.71-.73 3.19-.28 4.44 12.48 29.76 20 49.68 22.55 59.74 1.13 4.46 2.28 7.81 3.49 10.05 1.36 2.55 3.12 4.1 5.28 4.67 2.16.57 4.31.28 6.45-.87 1.9-1.02 2.56-3.47 1.99-7.35-.57-3.88-2.07-8.3-4.5-13.24-4.03-8.49-6.09-13.89-6.19-16.2.12-.42 2.74-2.23 7.85-5.45 5.11-3.21 8.29-5.16 9.55-5.83 1.73-.92 4.86-2.86 9.4-5.82 4.51-2.9 7.57-4.77 9.17-5.63.64-.34 1.4.29 2.28 1.93 1.34 2.51 3.35 7.37 6.03 14.57 2.71 7.24 4.36 11.44 4.98 12.6.95 1.76 2.41 2.83 4.4 3.2 1.99.38 3.73.16 5.22-.63 1.4-.75 2.49-2.49 3.29-5.23.81-2.74.71-5.03-.28-6.86-2.06-3.87-5.76-11.93-11.07-24.18zM155.41 301.28c1.89-1.02 3.41-2.57 4.54-4.66 1.13-2.09 1.23-4 .3-5.73-.62-1.15-1.78-1.69-3.48-1.6-1.69.11-2.81-.02-3.37-.43-.56-.39-1.61-1.31-3.15-2.76-1.54-1.45-3.47-4.34-5.8-8.68-2.23-4.17-4.54-10.11-6.92-17.83-1.26-4.13-2.25-6.91-3.02-8.33-1.6-2.99-4.36-3.44-8.25-1.35-3.53-3.48-7.36-4.12-11.49-1.9-8.14 4.36-13.49 13.77-16.06 28.21-2.57 14.44-1.45 26.16 3.37 35.15 1.99 3.73 4.75 6.21 8.24 7.44 3.49 1.23 6.76 1.02 9.82-.61 8.31-4.45 13.78-14.95 16.39-31.5 6.21 13.14 12.5 18 18.87 14.58zM126.25 287c-2.04 10.24-5.08 16.43-9.08 18.58-1.16.62-2.47-.47-3.96-3.25-2.83-5.29-3.54-13.2-2.13-23.71 1.42-10.52 3.84-16.69 7.27-18.53.96-.51 2.08-.47 3.38.13 1.3.58 2.41 1.74 3.31 3.43 2.85 5.32 3.25 13.11 1.21 23.35zM186.79 233.81c1.46-.78 3.02-.35 4.71 1.28 1.68 1.63 4.68 5.85 9.03 12.65 3.54 5.57 7.37 9.36 11.47 11.4 4.11 2.04 7.66 2.25 10.68.63 1.52-.82 2.6-2.04 3.23-3.69.63-1.65.62-3.08-.04-4.3-.65-1.22-1.84-2.22-3.57-3-2.21-.96-4.18-2.19-5.9-3.69-1.72-1.5-3.52-3.32-5.41-5.45-1.88-2.13-4.08-5.09-6.57-8.85-5.35-7.88-9.52-12.29-12.5-13.25-2.98-.96-5.91-.67-8.79.88-4.17 2.23-7.28 6.36-9.33 12.36-2.04 6.01-3.06 15.79-3.03 29.36-1.4-4.23-3.08-10.03-5.06-17.4-3.29-12.2-5.82-21.02-7.55-26.46-1.74-5.44-3.62-10.07-5.65-13.87-1.32-2.47-3.03-4.05-5.1-4.74-2.06-.68-3.99-.54-5.8.42-1.29.69-2.19 2.39-2.73 5.1-.54 2.71.25 6.69 2.36 11.93 8.79 21.73 16.35 42.64 22.64 62.71 1.67 5.31 2.74 8.42 3.24 9.34 1 1.87 2.42 2.96 4.24 3.29 1.84.33 3.79-.06 5.86-1.17 1.26-.68 2.03-1.77 2.31-3.27.29-1.51.25-4.46-.09-8.86-.01-6.06.72-14.54 2.19-25.43 1.48-10.9 3.2-16.87 5.17-17.93zM236.31 251.35c3.49 1.23 6.77 1.02 9.82-.61 8.31-4.45 13.78-14.95 16.39-31.49 6.2 13.13 12.5 17.99 18.87 14.58 1.9-1.02 3.41-2.57 4.54-4.66 1.13-2.09 1.24-4 .31-5.73-.62-1.16-1.77-1.69-3.48-1.61-1.69.12-2.81-.02-3.37-.42-.57-.4-1.61-1.32-3.15-2.77-1.54-1.45-3.47-4.34-5.8-8.68-2.23-4.17-4.54-10.12-6.93-17.83-1.25-4.13-2.26-6.91-3.02-8.34-1.6-2.99-4.36-3.43-8.25-1.35-3.52-3.48-7.35-4.12-11.49-1.9-8.14 4.36-13.5 13.77-16.06 28.21-2.57 14.45-1.44 26.17 3.37 35.16 1.99 3.73 4.75 6.21 8.24 7.44zm.78-40.19c1.42-10.51 3.84-16.69 7.26-18.52.96-.51 2.08-.47 3.38.13 1.3.59 2.4 1.74 3.31 3.43 2.85 5.33 3.25 13.11 1.2 23.35-2.04 10.24-5.07 16.43-9.07 18.58-1.15.62-2.47-.47-3.96-3.25-2.84-5.29-3.54-13.19-2.12-23.71zM296.95 219.51c1.39.28 3.1-.12 5.14-1.21 1.19-.64 2.37-2.24 3.54-4.81 1.18-2.57 1.79-4.52 1.84-5.86.05-1.34-.44-2.95-1.45-4.85-.62-1.15-1.73-1.92-3.33-2.31-1.6-.39-3.44-.03-5.51 1.08-2.78 1.49-4.75 2.91-5.92 4.28-1.16 1.37-1.57 2.59-1.2 3.69.37 1.09 1.06 2.59 2.08 4.49 1.82 3.39 3.42 5.23 4.82 5.51zM322.9 205.62c1.4.28 3.11-.12 5.14-1.21 1.19-.64 2.37-2.24 3.54-4.81 1.18-2.57 1.79-4.52 1.84-5.86.05-1.34-.43-2.95-1.45-4.85-.62-1.16-1.74-1.93-3.34-2.31-1.6-.39-3.44-.03-5.5 1.08-2.78 1.49-4.75 2.92-5.93 4.29-1.16 1.36-1.56 2.59-1.2 3.69.37 1.09 1.07 2.59 2.08 4.49 1.82 3.39 3.43 5.23 4.82 5.51zM348.85 191.72c1.4.28 3.11-.12 5.14-1.21 1.19-.63 2.37-2.23 3.54-4.81 1.19-2.57 1.8-4.52 1.84-5.86.05-1.34-.44-2.95-1.46-4.85-.62-1.15-1.72-1.92-3.33-2.31-1.6-.39-3.44-.02-5.51 1.08-2.78 1.49-4.75 2.91-5.92 4.28-1.17 1.36-1.57 2.6-1.2 3.69.37 1.09 1.06 2.58 2.08 4.48 1.82 3.4 3.42 5.23 4.81 5.51zM651.61 85.74l-18.3-11.97L473.09 229.2l8.29 5.97zM490.62 0l-56.69 215.91 10.18.82L512.48.78zM731.13 223.18l-10.92-18.96-213.16 66.27 4.7 9.06z"/><path d="M932.57 531.45c52.14 29.16 118.04 10.53 147.2-41.6 29.17-52.13 10.53-118.04-41.6-147.19-52.13-29.16-118.05-10.54-147.2 41.58-29.16 52.14-10.53 118.05 41.6 147.2zm66.56-54.21c41.68 7.41 64.92 2.6 64.92 2.6-70.52 88.16-129.17-14.03-64.92-2.6zM1008.57 668.73c.25-2.8.49-4.82.65-6.01l.15-1.07c3.62-20.94-10.41-40.84-31.34-44.46-20.94-3.62-40.84 10.42-44.46 31.34-.34 1.96-2.98 18.1-2.98 46.27-.05 64.52 13.97 192.43 100.3 356.4 6.89 13.08 20.26 20.56 34.08 20.56 6.04 0 12.17-1.42 17.87-4.42 18.8-9.9 26.02-33.16 16.13-51.95-80.15-152.44-91.41-266.96-91.45-320.58-.01-11.68.53-20.46 1.05-26.07zM715.42 399.2c-3.08 1.67-6.81 2.71-11.18 3.12-.82.1-1.64.36-2.46.8-1.31.72-2.05 2.06-2.21 4.03-.15 1.97.23 3.8 1.14 5.49 1.16 2.13 3.18 3.35 6.06 3.67 2.89.31 6.07-.47 9.56-2.37 10.71-5.82 19.57-14.15 26.56-24.97 6.99-10.83 8.72-19.5 5.17-26.03-2.13-3.92-5.91-6.21-11.33-6.89-5.42-.67-12.79.02-22.1 2.06-8.89 1.94-14.67 2.66-17.32 2.16-2.66-.51-4.57-1.83-5.73-3.96-1.82-3.35-1.04-7.74 2.33-13.18 3.37-5.45 7.91-9.72 13.63-12.82 3.35-1.82 6.24-2.55 8.67-2.18 2.43.36 4.56 2.22 6.38 5.57 6.53-3.54 8.17-8.29 4.93-14.24-1.58-2.91-4.63-4.6-9.16-5.07-4.52-.48-9.65.84-15.36 3.94-9.94 5.4-17.12 12.83-21.53 22.27-4.41 9.45-4.9 17.33-1.47 23.66 1.93 3.55 4.53 6.06 7.82 7.54 3.27 1.48 7.19 1.99 11.74 1.54 4.55-.46 11.14-1.48 19.78-3.06 5.94-1.08 10.02-1.51 12.26-1.31 2.24.21 3.68.91 4.33 2.09 1.54 2.84-.17 7.52-5.14 14.06-4.97 6.53-10.09 11.23-15.36 14.1zM787.21 372.34c6.32-3.43 11.18-9.59 14.56-18.46 3.4-8.87 4.08-17.88 2.04-27.02l-.03-.05c-.76-2.78-1.85-5.46-3.25-8.03-3.21-5.92-7.78-10.04-13.68-12.37-5.91-2.33-11.76-1.92-17.53 1.22-8.49 4.61-13.41 12.76-14.77 24.45-1.35 11.69.34 21.89 5.08 30.62 2.91 5.34 6.97 8.97 12.21 10.87 5.24 1.9 10.36 1.5 15.37-1.22zm-10.52-11.56c-2.03-1.27-3.8-3.3-5.33-6.11-2.52-4.63-3.89-9.87-4.12-15.69-.23-5.83.26-10.43 1.5-13.82l.05-.03c1.05-2.81 2.84-4.9 5.34-6.26 2.64-1.43 5.3-1.42 8 .03 2.69 1.45 4.98 3.92 6.87 7.4 3.36 6.19 4.13 13 2.3 20.43s-4.84 12.28-9.03 14.56c-1.69.92-3.54.74-5.57-.52zM846.93 269.04c.42 1.46.27 3.02-.44 4.68-1.49 3.48-1.75 6.1-.79 7.86.74 1.35 2.67 2.13 5.81 2.36.56.05.89.17 1 .38 1.88 3.45 4.22 8.98 7.05 16.6 3.89 10.63 6.55 17.24 7.96 19.84 3.2 5.88 7.11 7.57 11.74 5.05 1.49-.81 2.68-2 3.57-3.58.9-1.58 1.19-3.06.88-4.42-2.31-3.12-4.17-5.97-5.56-8.54-1.55-2.84-2.97-5.79-4.28-8.84l-4.07-9.55-.03-.05c-1.71-4.02-3.51-8.75-5.42-14.2.67-.63 2.23-1.76 4.71-3.42 3.86-2.09 7.24-4.62 10.17-7.59 2.92-2.96 3.77-5.56 2.56-7.79-1.25-2.3-3.3-2.63-6.16-1-2.86 1.65-7.78 4.36-14.78 8.16-.64.35-1.11.27-1.38-.24-2.62-4.84-4.61-11.34-5.97-19.52-1.36-8.18-.66-13 2.08-14.49 2.2-1.2 4.73.84 7.59 6.12l2.1 4.58c.55 1.01 1.33 1.65 2.34 1.91 1.02.25 2.02.12 3-.41 2.24-1.22 3.17-3.79 2.8-7.73-.37-3.94-1.36-7.4-2.98-10.38-1.8-3.31-4.51-5.44-8.1-6.4-3.6-.95-7.13-.49-10.58 1.38-5.92 3.21-9.56 8.14-10.92 14.77-1.37 6.63-.03 15.83 4 27.61.99 3.1 1.69 5.39 2.11 6.84zM907.91 299.74c3.51 1.2 6.78.98 9.82-.67 8.28-4.5 13.68-15.03 16.2-31.59 6.28 13.09 12.6 17.91 18.96 14.46 1.89-1.03 3.4-2.59 4.51-4.69 1.12-2.1 1.21-4 .27-5.73-.63-1.15-1.79-1.68-3.49-1.58-1.68.13-2.81 0-3.37-.4-.57-.39-1.63-1.31-3.16-2.75-1.55-1.44-3.5-4.32-5.86-8.65-2.25-4.16-4.6-10.09-7.04-17.79-1.28-4.12-2.3-6.9-3.07-8.32-1.61-2.97-4.37-3.4-8.25-1.29-3.55-3.46-7.38-4.07-11.51-1.83-8.1 4.4-13.4 13.84-15.89 28.3-2.47 14.46-1.28 26.18 3.59 35.13 2.02 3.72 4.79 6.18 8.29 7.39zm.53-40.2c1.36-10.52 3.74-16.71 7.15-18.56.95-.52 2.07-.48 3.38.1s2.42 1.72 3.33 3.41c2.88 5.31 3.33 13.09 1.35 23.34s-4.97 16.46-8.95 18.63c-1.16.63-2.48-.44-3.99-3.22-2.86-5.28-3.62-13.18-2.27-23.7zM944.48 229.88c2.16.15 4.01-.21 5.57-1.05l1.06-.58c.85-.46 2.29-1.39 4.32-2.8 4.01 15.51 7.26 25.55 9.74 30.11 2.68 4.94 5.91 8.09 9.7 9.45 3.78 1.36 7.91.83 12.37-1.6 5.34-2.9 9.39-7.54 12.13-13.92 2.76-6.39 3.33-11.06 1.71-14.03-.4-.74-1.06-1.24-1.94-1.47-.9-.24-1.84-.09-2.82.44-1.21.66-2.31 2.2-3.28 4.61-1.59 3.84-3.08 6.57-4.46 8.17a17.3 17.3 0 0 1-4.91 3.95c-1.35.73-2.62.71-3.81-.07s-2.53-2.55-4.04-5.32c-.86-1.59-2.54-6.59-5.03-15s-3.59-12.7-3.28-12.87l15.9-12.45c4.66-3.58 6.18-6.88 4.55-9.89-.81-1.49-1.65-2.33-2.5-2.55-.86-.21-2.18.17-3.98 1.15-1.05.57-6.69 4.25-16.93 11.04-2.51-11.47-3.91-17.47-4.21-18.01-.76-1.39-1.96-2.36-3.63-2.92-1.66-.57-3.42-.34-5.29.67-3.34 1.82-4.37 5.05-3.08 9.69 2.02 7.49 3.42 13.67 4.22 18.53l-10.63 6.3c-3.21 1.75-4.05 4.04-2.51 6.88 1.21 2.23 2.9 3.42 5.05 3.56zM1016.83 241.18c1.4.27 3.11-.14 5.14-1.24 1.19-.64 2.36-2.26 3.51-4.83 1.17-2.58 1.77-4.54 1.8-5.87.05-1.34-.45-2.95-1.48-4.84-.63-1.15-1.75-1.91-3.35-2.29-1.6-.38-3.44 0-5.5 1.12-2.77 1.5-4.74 2.95-5.9 4.32-1.16 1.37-1.55 2.6-1.18 3.69.38 1.09 1.08 2.58 2.11 4.47 1.84 3.38 3.45 5.2 4.85 5.47zM1042.7 227.12c1.4.27 3.11-.14 5.14-1.25 1.18-.64 2.36-2.25 3.52-4.83 1.16-2.58 1.76-4.54 1.8-5.87.05-1.33-.45-2.95-1.48-4.84-.63-1.15-1.75-1.92-3.35-2.29-1.6-.38-3.44 0-5.5 1.12-2.77 1.5-4.74 2.95-5.89 4.32-1.16 1.37-1.55 2.61-1.18 3.69.38 1.09 1.07 2.58 2.1 4.47 1.84 3.38 3.45 5.2 4.85 5.48zM1068.57 213.07c1.4.27 3.11-.15 5.14-1.25 1.19-.64 2.36-2.25 3.52-4.83 1.16-2.58 1.76-4.54 1.8-5.87.04-1.34-.45-2.96-1.48-4.85-.63-1.15-1.74-1.91-3.35-2.28-1.6-.38-3.44-.01-5.5 1.12-2.77 1.5-4.74 2.94-5.9 4.32-1.16 1.38-1.55 2.61-1.18 3.7.38 1.09 1.08 2.58 2.11 4.47 1.84 3.38 3.45 5.2 4.85 5.48zM1127.74 340.57l6.82 7.6 198.32-109.43-15.32-15.62zM1092.34 319.19l9.77 2.98 113.09-196.25-21.17-5.46zM1152.05 388.18l2.64 9.86 226.37-8-6.6-20.86zM2007.55 469.43c-4.93-3.11-9.74-5.79-14.42-8.19-15.74 57.52-68.43 99.93-130.87 99.93s-115.16-42.43-130.88-99.97c-29.22 15.02-63.61 43.02-90.92 91.34-34.6 60.79-58.99 151.49-59.04 289.33.01 24.12.76 49.72 2.36 76.87 1.37 23.31 20.7 41.29 43.75 41.29.87 0 1.74-.03 2.61-.08 24.2-1.42 42.65-22.18 41.23-46.36-1.5-25.56-2.19-49.44-2.19-71.73 0-12.93.26-25.27.7-37.15-4.64-15.79-7.17-32.4-7.17-49.57 0-20.15 3.46-39.54 9.77-57.73-1.65 10.34-2.55 20.94-2.55 31.75 0 108.28 86.11 196.05 192.34 196.05 106.22 0 192.34-87.77 192.34-196.05 0-10.78-.89-21.35-2.53-31.66 6.3 18.15 9.74 37.52 9.74 57.64 0 17.18-2.53 33.81-7.18 49.62.45 11.88.73 24.17.72 37.11 0 22.29-.69 46.17-2.18 71.73-1.41 24.19 17.04 44.94 41.24 46.35.87.05 1.73.08 2.59.08 23.06 0 42.4-17.99 43.76-41.31 1.59-27.15 2.33-52.73 2.33-76.84-.02-91.97-10.89-162.77-28.36-217.93-25.92-82.64-68.36-130.32-107.18-154.53z"/><path d="M1862.26 941.89c-82.94 0-154.06-47.38-184.18-114.78l27.34 502.02c0 40.35 32.71 73.04 73.03 73.04 40.34 0 73.05-32.69 73.05-73.04v-322.62h21.53v322.61c0 40.35 32.71 73.04 73.04 73.04 40.32 0 73.04-32.69 73.04-73.04l27.34-502.05c-30.09 67.42-101.22 114.81-184.19 114.81zM1862.26 551.58c69.63 0 126.09-56.44 126.09-126.09 0-69.64-56.45-126.09-126.09-126.09-69.63 0-126.1 56.45-126.1 126.09s56.46 126.09 126.1 126.09zM2095.05 459.46s12.42 39.38 28.5 57.01c16.07 17.63 29.48 25.72 39 17.05 9.52-8.67 11.54-30.84-4.52-48.48-16.07-17.62-62.98-25.58-62.98-25.58zM2055.39 321.33c23.32-5 37.07-12.52 34.36-25.11-2.69-12.59-20.83-25.5-44.16-20.51-23.32 5.01-53.81 41.53-53.81 41.53s40.27 9.1 63.61 4.09zM2148.1 368.68c-26.07-7.7-76.5 12.27-76.5 12.27s35.38 31.03 61.46 38.73c26.09 7.68 43.95 7.65 48.09-6.44 4.16-14.09-6.97-36.87-33.05-44.56z"/></g></svg>