<svg xmlns="http://www.w3.org/2000/svg" xml:space="preserve" viewBox="0 0 87.83 208.05" shape-rendering="geometricPrecision" text-rendering="geometricPrecision" image-rendering="optimizeQuality" fill-rule="evenodd" clip-rule="evenodd"><g fill="currentColor"><path d="M69.71 57.18c-1.9-.96-3.65-1.41-5.04-1.61-.63-.21-1.29-.33-1.99-.33H31.02c-.3 0-.6.03-.89.07-.3-.01-.61-.01-.92.02h-.01c-.14.01-.67.05-1.45.05-2.28.04-6.7-.42-9.65-2.06-1.5-.81-2.63-1.78-3.47-3.13-.83-1.35-1.5-3.21-1.51-6.34-.02-4.06 1.31-10.25 5.24-18.77.22-.48.45-.97.69-1.47 5.79 2.55 16.08 4.25 27.82 4.25 18.1 0 32.78-4.04 32.78-9.01 0-3.32-6.54-6.22-16.27-7.79A9.965 9.965 0 0 0 53.47 0H40.28a9.965 9.965 0 0 0-9.91 11.06c-4.78.77-8.79 1.86-11.63 3.17-.43-.43-.92-.8-1.48-1.11-.08-.04-.15-.09-.22-.13a6.55 6.55 0 0 0-8.8 2.91C2.54 27.28.04 36.25.02 43.84c-.01 5.15 1.25 9.69 3.5 13.27 3.39 5.43 8.55 8.27 13.03 9.69 3.02.96 5.85 1.37 8.17 1.55v129.56c0 5.6 4.54 10.13 10.13 10.13 5.6 0 10.13-4.53 10.13-10.13v-73.97h3.8v73.97c0 5.6 4.54 10.13 10.13 10.13 5.6 0 10.13-4.53 10.13-10.13V75.2c.49 1 .98 2.14 1.46 3.47 2.31 6.4 4.25 16.9 4.24 33.3 0 4.52-.14 9.48-.46 14.93-.21 3.61 2.55 6.72 6.16 6.93.13.01.26.01.39.01 3.44 0 6.33-2.69 6.54-6.17.33-5.68.48-10.9.48-15.7-.03-24.73-3.98-38.42-9.37-46.65-2.69-4.09-5.84-6.7-8.75-8.16z"/><path d="M28.88 28.05c-.3 1.32-.46 2.68-.46 4.09 0 10.18 8.25 18.44 18.44 18.44 10.18 0 18.44-8.25 18.44-18.44 0-1.41-.16-2.77-.46-4.09-5.45.96-11.73 1.45-17.98 1.45s-12.53-.49-17.98-1.45z"/></g></svg>