<svg xmlns="http://www.w3.org/2000/svg" xml:space="preserve" viewBox="0 0 543.92 500.7" shape-rendering="geometricPrecision" text-rendering="geometricPrecision" image-rendering="optimizeQuality" fill-rule="evenodd" clip-rule="evenodd"><g fill="currentColor"><path d="M379.06 447.55c8.33 6.77 14.13 5.31 17.85.73 3.72-4.58 3.95-10.55-4.38-17.32s-25.8-7.19-25.8-7.19 4 17 12.33 23.77zM403.13 433.04c4.41.99 8.59-.89 10.38-8.92 1.8-8.02-3.87-20.15-3.87-20.15s-10.3 8.55-12.1 16.58c-1.8 8.03 1.18 11.5 5.59 12.49zM408.16 451.96c3.63 4.65 9.4 6.22 17.86-.39 8.46-6.6 12.79-23.53 12.79-23.53s-17.47.09-25.93 6.69c-8.46 6.61-8.34 12.58-4.72 17.23zM420.51 486.94c-2.83-2.86-8.57-4.99-15.5-5.57 3.34-7.43 4.83-17.83-1.31-30.68l-5.88 2.8c5.89 12.36 3.48 21.78 0 27.84-7.19.51-13.18 2.67-16.09 5.61-10.85.45-19.36 4.62-19.36 9.72 0 4.39 28.19 5.2 38.7 2.45 10.51 2.75 38.69 1.94 38.69-2.45 0-5.08-8.46-9.25-19.26-9.72zM483.22 447.55c8.34 6.77 14.13 5.31 17.85.73 3.72-4.58 3.95-10.55-4.38-17.32s-25.8-7.19-25.8-7.19 4 17 12.33 23.77zM507.29 433.04c4.41.99 8.59-.89 10.38-8.92 1.8-8.02-3.87-20.15-3.87-20.15s-10.3 8.55-12.1 16.58c-1.8 8.03 1.18 11.5 5.59 12.49zM512.31 451.96c3.63 4.65 9.4 6.22 17.86-.39 8.46-6.6 12.79-23.53 12.79-23.53s-17.47.09-25.93 6.69c-8.46 6.61-8.34 12.58-4.72 17.23zM524.66 486.94c-2.83-2.86-8.57-4.99-15.5-5.57 3.34-7.43 4.83-17.83-1.3-30.68l-5.88 2.8c5.9 12.36 3.48 21.78.01 27.84-7.19.51-13.18 2.67-16.09 5.61-10.85.45-19.36 4.62-19.36 9.72 0 4.39 28.19 5.2 38.7 2.45 10.51 2.75 38.69 1.94 38.69-2.45 0-5.08-8.46-9.25-19.26-9.72zM69.1 218.4l.14-83.12c.02-12.3 10.05-22.31 22.35-22.31 6.01.01 11.62 2.34 15.83 6.57 4.22 4.23 6.53 9.85 6.52 15.81l-.05 27.36c1.71-2.94 3.37-5.81 4.92-8.53 12.8-18.47 13.34-45.56-2.73-55.86-16.08-10.29-44.74-9.35-65.24 17.27C22.86 152.35 10.74 178.33.66 225.8c-.85 6.35-.84 11.91-.16 16.81-.2 6.5 1.88 13.09 6.43 18.43l81.71 95.93-23.19 106.94c-3.18 14.64 6.12 29.08 20.76 32.25 1.94.42 3.87.62 5.78.62 12.49 0 23.73-8.68 26.48-21.38l26.04-120.06c1.79-8.27-.37-16.9-5.86-23.34l-65.96-77.44c1.26-6.16 2.97-12.35 5.03-18.5a22.286 22.286 0 0 1-8.61-17.66zM241.82 60.6c3.05-8.03-13.99-21.96-38.08-31.12-.82-.31-1.64-.59-2.46-.89-5.14-11.29-14.56-20.63-27.07-25.39-25.2-9.58-53.4 3.08-62.99 28.27-9.59 25.2 3.07 53.4 28.27 62.99 23.12 8.79 48.74-1.14 60.23-22.29-4.03-1.77-8.21-3.87-12.41-6.26-21.98-12.52-36.51-28.52-33.01-36.17.42 8.19 16.46 20.46 38.37 28.8 16.54 6.29 32.09 8.69 41.2 6.98 4.16-.78 6.98-2.42 7.93-4.93zM333.31 299.27l2.08 4.56-75.82 29.69 14.29-59.5 1.82.68c2.13.8 4.51-.28 5.3-2.42.8-2.13-.28-4.51-2.42-5.3l-66.21-24.77c-2.13-.8-4.51.28-5.3 2.42-.8 2.13.28 4.51 2.42 5.3l1.82.68-3.14 6.03c-3.32-5.46-9.13-12.9-17.37-15.96a22.097 22.097 0 0 1 2.7 11.62c5.64 4.83 9.11 12.09 9.8 13.65l-18.59 35.69c-1.65-8.36-5.07-16.45-8.26-23.95-.64-1.5-1.22-2.89-1.77-4.24-1.15.18-2.32.28-3.5.28-2.07 0-4.11-.3-6.09-.86 1.04 2.73 2.21 5.48 3.38 8.22 4.92 11.57 10.47 24.65 7.87 36.63l-5.19 9.95-2.53-.95c-2.13-.8-4.51.28-5.31 2.42-.8 2.13.28 4.51 2.42 5.3l87.51 32.74c2.13.8 4.51-.29 5.3-2.42.8-2.13-.28-4.51-2.42-5.31l-2.53-.95.38-1.57 85.28-44.74 2.08 4.56 8.93-.3-10.84-23.75-6.07 6.55z"/><path d="M171.14 268.76c6.82 0 13.28-4.04 16.05-10.73 3.66-8.86-.55-19.01-9.41-22.67l-68.96-28.51.12-71.5c.02-9.59-7.74-17.37-17.33-17.39h-.03c-9.57 0-17.34 7.75-17.36 17.33l-.14 83.13a17.359 17.359 0 0 0 10.73 16.07l79.7 32.96c2.17.9 4.41 1.32 6.63 1.32zM347.3 289.57l1.2 3.03c.03-.01 1.06-.42 2.97-1.05l-1.02-3.09c-2.05.68-3.15 1.11-3.15 1.11zM481.54 314.45c1.7 1.38 3.37 2.81 4.98 4.26l2.17-2.42c-1.65-1.48-3.37-2.94-5.1-4.36l-2.06 2.52zM422.79 286.99c2.13.4 4.28.86 6.41 1.37l.76-3.17c-2.18-.52-4.39-.99-6.57-1.4l-.6 3.2zM471 306.65c1.8 1.2 3.6 2.47 5.36 3.77l1.94-2.61c-1.8-1.33-3.65-2.63-5.49-3.86l-1.81 2.71zM516.05 353.79c1.17 1.82 2.33 3.68 3.48 5.59l2.79-1.68c-1.16-1.94-2.34-3.83-3.53-5.67l-2.73 1.76zM370 283.66l.56 3.21c2.05-.36 4.22-.69 6.49-.99l-.42-3.23c-2.32.31-4.53.64-6.63 1.01zM500.32 332.74c1.42 1.63 2.82 3.31 4.21 5.04l2.54-2.04c-1.42-1.77-2.85-3.48-4.29-5.14l-2.46 2.14zM528.97 376.73c.95 1.95 1.9 3.93 2.84 5.95l2.96-1.36c-.94-2.05-1.9-4.06-2.87-6.03l-2.92 1.44zM383.29 281.92l.28 3.24c2.2-.19 4.4-.34 6.55-.43l-.14-3.25c-2.2.1-4.45.24-6.7.44zM491.32 323.18c1.54 1.51 3.08 3.07 4.6 4.68l2.37-2.23c-1.55-1.65-3.12-3.24-4.7-4.78l-2.27 2.33zM364.11 288.13l-.7-3.18c-2.2.48-4.39 1.01-6.52 1.59l.84 3.15c2.08-.56 4.23-1.08 6.37-1.55zM515.07 346.46c-1.29-1.86-2.59-3.67-3.9-5.43l-2.61 1.95c1.29 1.73 2.57 3.51 3.84 5.34l2.67-1.85zM459.76 299.93c1.9 1.01 3.82 2.1 5.71 3.22l1.67-2.79c-1.93-1.16-3.9-2.27-5.85-3.3l-1.53 2.87zM447.9 294.37c2.01.82 4.03 1.7 6 2.63l1.38-2.95c-2.02-.95-4.09-1.86-6.15-2.7l-1.23 3.01zM435.53 290.05c2.07.61 4.17 1.28 6.24 2l1.07-3.07c-2.12-.74-4.27-1.43-6.4-2.06l-.92 3.12zM525.68 363.47l-2.84 1.59c1.06 1.89 2.11 3.82 3.14 5.79l2.88-1.51c-1.05-2-2.11-3.95-3.19-5.87zM396.69 281.34l.01 3.26c2.19 0 4.39.05 6.55.15l.15-3.25c-2.2-.1-4.46-.15-6.7-.15h-.01zM409.8 285.18c2.19.2 4.39.45 6.52.75l.45-3.22c-2.18-.31-4.43-.56-6.67-.77l-.3 3.24zM538.81 390.54c-.42-1.01-.85-2.02-1.28-3.01l-2.99 1.29c.42.98.85 1.98 1.27 2.98l3-1.26zM354.57 316.64c.03.01 1.12.21 3.05.71l.81-3.15c-2.1-.54-3.27-.75-3.27-.75l-.59 3.2zM440.93 378.6l-2.85 1.57c.98 1.78 1.93 3.6 2.85 5.47l2.92-1.44c-.93-1.9-1.91-3.78-2.92-5.6zM415.84 350.77c1.46 1.44 2.91 2.93 4.29 4.43l2.39-2.2a117.58 117.58 0 0 0-4.4-4.55l-2.28 2.32zM424.19 359.83c1.32 1.58 2.61 3.21 3.83 4.83l2.6-1.96a129.06 129.06 0 0 0-3.93-4.95l-2.5 2.08zM376.35 320.44l-1.29 2.99c1.8.78 3.67 1.63 5.61 2.58l1.43-2.92c-1.87-.91-3.8-1.8-5.75-2.64zM406.65 342.54c1.59 1.3 3.17 2.64 4.69 4l2.17-2.43a134.95 134.95 0 0 0-4.81-4.1l-2.06 2.53zM391.52 331.9l1.68-2.78c-1.86-1.12-3.69-2.17-5.48-3.15l-1.55 2.86c1.75.95 3.54 1.98 5.35 3.07zM451.05 401.7l-3.09 1.04a140 140 0 0 1 1.85 5.89l3.12-.92c-.6-2.05-1.23-4.05-1.89-6.01zM363.51 319.07c1.9.61 3.86 1.3 5.82 2.04l1.16-3.04c-2.02-.77-4.03-1.47-5.98-2.1l-1 3.1zM446.51 389.93l-2.98 1.3a141.6 141.6 0 0 1 2.34 5.71l3.04-1.17c-.77-1.99-1.57-3.94-2.4-5.84zM403.71 336.15c-1.67-1.24-3.41-2.46-5.17-3.64l-1.81 2.71c1.72 1.15 3.42 2.34 5.05 3.55l1.93-2.62zM434.97 374.84l2.77-1.7c-1.1-1.79-2.26-3.58-3.44-5.31l-2.69 1.84c1.15 1.68 2.27 3.42 3.35 5.17zM454.59 413.81l-3.16.79c.49 1.97.95 3.98 1.39 6.03l3.18-.67c-.44-2.08-.91-4.13-1.41-6.14zM453.99 426.75c.18 1.05.35 2.11.52 3.18l3.22-.49c-.17-1.09-.34-2.17-.53-3.25l-3.21.56zM356.9 303.9c-2.15-.09-3.34-.06-3.34-.06l.07 3.26c.03 0 1.14-.02 3.15.06l.13-3.25zM437.39 338l2.09-2.5c-1.63-1.37-3.33-2.71-5.03-3.99l-1.96 2.6a122.9 122.9 0 0 1 4.9 3.89zM411.11 321.09c1.87.91 3.75 1.87 5.58 2.87l1.56-2.86c-1.87-1.02-3.8-2.01-5.71-2.93l-1.42 2.93zM394.68 310.97c-2.09-.68-4.15-1.31-6.15-1.87l-.88 3.14c1.96.55 3.96 1.15 6.01 1.82l1.01-3.09zM427.39 330.47l1.82-2.7c-1.77-1.2-3.59-2.37-5.4-3.47l-1.69 2.78c1.76 1.08 3.54 2.22 5.27 3.39zM399.59 316.15c1.92.72 3.86 1.5 5.82 2.34l1.28-2.99c-2.01-.86-4-1.66-5.96-2.4l-1.15 3.05zM474.2 381.1l-2.95 1.39c.87 1.86 1.72 3.77 2.55 5.73l3-1.26c-.84-2-1.71-3.95-2.6-5.86zM458.62 360.88c1.22 1.7 2.41 3.44 3.53 5.17l2.73-1.77c-1.15-1.78-2.37-3.56-3.62-5.3l-2.65 1.9zM363 307.59c2.04.2 4.13.45 6.23.76l.47-3.22c-2.15-.31-4.3-.57-6.39-.78l-.31 3.24zM471.34 375.36c-1.01-1.92-2.04-3.79-3.11-5.61l-2.81 1.64c1.03 1.78 2.05 3.6 3.03 5.48l2.88-1.51zM442.09 342.14c1.52 1.41 3.03 2.88 4.48 4.37l2.33-2.27a129.72 129.72 0 0 0-4.6-4.48l-2.21 2.39zM450.82 351.09c1.37 1.56 2.72 3.17 4.02 4.8l2.55-2.03c-1.33-1.67-2.72-3.33-4.13-4.92l-2.44 2.15zM476.11 394.04c.72 1.93 1.42 3.91 2.08 5.92l3.09-1.02c-.68-2.06-1.39-4.07-2.13-6.04l-3.05 1.14zM375.43 309.38c1.96.37 4.01.8 6.15 1.3l.74-3.17c-2.18-.51-4.28-.95-6.28-1.33l-.61 3.2zM480.95 409.14l3.14-.85c-.29-1.07-.58-2.12-.89-3.17l-3.12.91c.3 1.02.58 2.06.87 3.11zM355.01 295.83c-2.14.24-3.3.43-3.3.43l.53 3.21c.03-.01 1.13-.19 3.13-.41l-.36-3.24zM465.71 331c1.54 1.34 3.07 2.75 4.57 4.19l2.26-2.34a144.27 144.27 0 0 0-4.68-4.3l-2.14 2.45zM455.97 323.35c1.69 1.19 3.36 2.44 4.97 3.71l2.01-2.56c-1.65-1.3-3.37-2.58-5.1-3.8l-1.88 2.66zM410.95 303.05c1.98.49 3.98 1.04 6 1.63l.92-3.12c-2.06-.61-4.11-1.16-6.13-1.67l-.79 3.16zM474.62 339.61c1.41 1.5 2.79 3.06 4.12 4.63l2.48-2.1c-1.36-1.61-2.79-3.21-4.23-4.75l-2.37 2.23zM445.5 316.7c1.8 1.02 3.59 2.1 5.32 3.19l1.74-2.75c-1.77-1.12-3.61-2.22-5.45-3.27l-1.61 2.83zM373.97 298.29c1.97.03 4.05.1 6.23.22l.18-3.25c-2.21-.12-4.33-.19-6.35-.22l-.05 3.26zM386.42 298.95c2.01.18 4.08.4 6.19.67l.41-3.23c-2.16-.27-4.26-.5-6.31-.69l-.29 3.24zM398.77 300.53c2 .33 4.05.71 6.12 1.14l.66-3.19c-2.11-.44-4.19-.82-6.24-1.16l-.53 3.21zM440.03 313.77l1.47-2.91c-1.89-.95-3.82-1.87-5.74-2.73l-1.32 2.97c1.87.84 3.76 1.73 5.6 2.66zM367.68 295.05c-2.34.05-4.46.14-6.34.26l.2 3.25c1.84-.11 3.92-.2 6.21-.25l-.07-3.26zM422.87 306.57c1.93.66 3.88 1.37 5.83 2.14l1.19-3.03c-1.93-.76-3.94-1.5-5.97-2.2l-1.05 3.08zM492.9 364.57l2.83-1.61c-1.04-1.83-2.13-3.66-3.26-5.45l-2.75 1.73c1.09 1.73 2.15 3.5 3.19 5.32zM482.63 349.06c1.26 1.65 2.49 3.33 3.66 5.01l2.67-1.85c-1.19-1.72-2.46-3.45-3.75-5.13l-2.58 1.98zM495.86 370.03c.94 1.81 1.85 3.67 2.73 5.58l2.96-1.37c-.91-1.95-1.83-3.85-2.79-5.7l-2.89 1.49zM505.37 383.16c-.41-1.03-.82-2.04-1.24-3.05l-3.01 1.26c.41.98.82 1.98 1.21 2.98l3.03-1.19z"/></g></svg>