<svg xmlns="http://www.w3.org/2000/svg" xml:space="preserve" viewBox="0 0 50.16 116.78" shape-rendering="geometricPrecision" text-rendering="geometricPrecision" image-rendering="optimizeQuality" fill-rule="evenodd" clip-rule="evenodd"><g fill="currentColor" fill-rule="nonzero"><path d="M27.94 75.36h3.26l7.64 36.86a5.723 5.723 0 0 0 6.76 4.44 5.723 5.723 0 0 0 4.44-6.76l-7.96-38.41V44.12c1.18-.07 2.59-.29 4.11-1.05.96-.49 1.97-1.28 2.7-2.42.74-1.14 1.12-2.55 1.11-3.95-.01-2-.64-3.99-1.77-6.24-1.15-2.26-2.85-4.81-5.29-7.86a3.69 3.69 0 0 0-4.6-.96c-2.31-3.6-6.71-5.54-11.12-4.51-2.75.64-4.98 2.32-6.4 4.52-.28-.15-.58-.26-.89-.33-1.34-.31-2.8.14-3.72 1.28-2.45 3.05-4.15 5.6-5.29 7.86-1.13 2.26-1.76 4.24-1.77 6.25-.01 1.39.37 2.82 1.11 3.95 1.12 1.73 2.77 2.59 4.12 3 .98.3 1.89.42 2.7.47V71.5l-7.96 38.41a5.723 5.723 0 0 0 4.44 6.76c3.09.64 6.12-1.35 6.76-4.44l7.64-36.86zm-11.4-38.79c.03-.4.24-1.35.97-2.78.36-.72.85-1.56 1.48-2.5.2-.31.42-.63.65-.96a10.4 10.4 0 0 0 5.32 6.25c2.09 1.04 4.53 1.38 6.98.81a10.393 10.393 0 0 0 7.58-7.05c.23.33.45.65.65.96.62.95 1.11 1.78 1.47 2.5.73 1.43.94 2.38.97 2.78-.3.1-.91.18-1.44.17-.34 0-.65-.02-.86-.04-.1-.01-.18-.02-.23-.03-.02 0-.03-.01-.03-.01-.3-.05-.6-.06-.89-.03-.21-.04-.42-.06-.64-.06h-2.5a11.19 11.19 0 0 1-3.87 1.71c-3.24.75-6.47.04-9-1.71h-2.5c-.22 0-.43.02-.64.06a3.82 3.82 0 0 0-.89.04h-.01c-.1.01-.56.07-1.1.07-.54.02-1.14-.08-1.45-.18zM2.64 12.15l6.56 2.04a.692.692 0 0 0 .89-.75L9.1 5.59l5.32 4.94c.17.15.4.22.62.17.22-.05.41-.2.49-.41l3.05-7.36 1.95 8c.06.23.22.41.45.49.22.08.47.04.65-.11l4.95-3.84-1.02 5.26c-.07.38.17.74.55.81.38.07.74-.17.81-.55l1.37-7.07a.679.679 0 0 0-.32-.72.71.71 0 0 0-.79.04l-5.57 4.31-2.2-9.02a.704.704 0 0 0-.62-.53c-.3-.02-.58.15-.69.43l-3.48 8.4-5.99-5.56a.698.698 0 0 0-.79-.11c-.26.13-.41.41-.37.7l1.09 8.68-7.47-2.32a.693.693 0 0 0-.78 1.06l5.67 8.1-5.56 2.13c-.26.1-.44.35-.45.63-.01.28.16.54.42.65l6.2 2.68c.09.04.18.06.28.06.27 0 .52-.16.64-.42a.694.694 0 0 0-.36-.91l-4.64-2.01 4.8-1.84c.2-.08.35-.24.42-.45.06-.2.03-.43-.1-.6l-5.02-7.17z"/></g></svg>