<svg xmlns="http://www.w3.org/2000/svg" xml:space="preserve" viewBox="0 0 389.02 389.05" shape-rendering="geometricPrecision" text-rendering="geometricPrecision" image-rendering="optimizeQuality" fill-rule="evenodd" clip-rule="evenodd"><g fill="currentColor"><path d="M342.28 268.61c.17.01.33-.01.5 0 4.72.97 10.24-.95 17.38-3.92 16.09-6.7 34.1-17.89 27.44-48.35-12.21-40.72-24.65-62.55-51.71-92.64-19.81-21.77-44.91-20.55-58.21-10.4-4.47 3.41-7.12 8.35-8.26 13.97l27.63-3.73c.85-.11 1.71-.17 2.56-.17 9.47 0 17.56 7.08 18.82 16.48 1.4 10.38-5.91 19.97-16.3 21.38l-21.56 2.91c10.63 15.42 24.71 34.82 35.25 55.59l-66.56-3.32c-11.75-.59-22.14 7.5-24.47 19.03L202.3 346.65c-2.6 12.86 5.71 25.4 18.58 28 1.59.32 3.18.48 4.74.48 11.08 0 20.99-7.78 23.27-19.06l18.44-91.17 74.95 3.73zM329.39 90.08c19-14.03 23.04-40.81 9.01-59.81s-40.8-23.03-59.8-9c-19 14.03-23.04 40.8-9.01 59.8s40.8 23.03 59.8 9.01zM259.9 90.73l1.74-6.09-6.75-1.94c1.34 2.24 2.2 4.72 2.54 7.32l2.47.71zM229.98 75.57l-24.38-6.99-1.75 6.09 20.1 5.76c1.65-2 3.7-3.66 6.03-4.86z"/><path d="M314.67 140.34c-1.12-8.32-8.79-14.17-17.1-13.04l-44.65 6.03.88-40.52c.18-8.4-6.48-15.35-14.88-15.53-8.4-.19-15.35 6.48-15.53 14.88l-1.27 58.3a15.19 15.19 0 0 0 5.08 11.67 15.178 15.178 0 0 0 12.17 3.73l62.27-8.4c8.32-1.13 14.16-8.78 13.04-17.1zM161.34 19.01c-.01 5.26 2.13 10.08 5.84 13.51 3.7 3.44 8.95 5.5 15.08 5.5 5.5-.01 9.43.95 11.78 2.53 2.32 1.6 3.39 3.63 3.43 6.97v13.31h3.8V47.52c.05-4.26-1.74-7.93-5.12-10.13-3.36-2.22-7.98-3.16-13.89-3.17-10.55-.08-17.06-6.78-17.11-15.21 0-5.05-1.27-9.88-4.69-13.44C157.04 2 151.68-.01 144.24 0v3.8c6.81.01 10.96 1.79 13.48 4.41 2.52 2.62 3.62 6.34 3.63 10.8z"/><path d="M199.36 11.41c.04 2.65-1.93 5.35-4.25 7.64-1.15 1.14-2.32 2.16-3.28 3.08-.9 1.02-1.88 1.51-2.09 3.45-.03.68.36 1.47.84 1.87 1.47 1.09 2.69.99 4.98 1.07 5.7-.04 9.41.1 11.03.99.81.43 1.23.86 1.64 1.83.39.97.64 2.54.64 4.79v24.71h3.8V36.13c0-2.51-.23-4.5-.91-6.2-.98-2.62-3.32-4.17-5.98-4.66-2.68-.57-5.94-.54-10.22-.55-.33 0-.63 0-.9-.02.94-.89 2.3-2.14 3.61-3.44 2.34-2.44 4.87-5.66 4.9-9.85.04-5.81-4.35-8.95-8.46-10.13C190.54-.02 186.1.01 184.16 0v3.8c1.87-.01 5.98.02 9.42 1.1 3.49 1.19 5.75 2.81 5.79 6.5zM70.03 160.7c-.01 5.26 2.13 10.07 5.84 13.51 3.7 3.45 8.95 5.5 15.08 5.5 5.5-.01 9.43.95 11.78 2.53 2.33 1.6 3.39 3.63 3.43 6.97v13.31h3.8v-13.31c.05-4.26-1.74-7.93-5.12-10.13-3.36-2.22-7.98-3.16-13.89-3.17-10.55-.07-17.06-6.78-17.11-15.21.01-5.05-1.27-9.88-4.69-13.44-3.42-3.56-8.78-5.58-16.22-5.57v3.8c6.81.01 10.96 1.79 13.48 4.41 2.52 2.62 3.62 6.34 3.63 10.8z"/><path d="M108.05 153.09c.04 2.65-1.93 5.35-4.25 7.64-1.15 1.14-2.32 2.16-3.28 3.08-.9 1.02-1.87 1.51-2.09 3.45-.03.68.36 1.47.84 1.87 1.47 1.1 2.69.99 4.98 1.07 5.7-.04 9.41.1 11.03.98.81.43 1.23.86 1.64 1.83.39.97.64 2.54.63 4.79v24.71h3.8V177.8c0-2.51-.23-4.5-.91-6.2-.98-2.62-3.32-4.17-5.98-4.66-2.68-.57-5.94-.54-10.22-.54-.33 0-.63 0-.9-.02.94-.89 2.3-2.14 3.61-3.44 2.34-2.45 4.87-5.66 4.9-9.86.04-5.81-4.35-8.95-8.46-10.13-4.17-1.3-8.61-1.27-10.55-1.28v3.8c1.87-.01 5.98.02 9.42 1.1 3.49 1.19 5.75 2.81 5.79 6.5zM381.18 285.12h-92.52c-3.15 0-5.7 2.56-5.7 5.7v92.52c0 3.15 2.55 5.7 5.7 5.7h92.52c3.15 0 5.7-2.55 5.7-5.7v-92.52c0-3.15-2.55-5.7-5.7-5.7zM193.92 281.95v-22.81c0-3.15-2.55-5.7-5.7-5.7H5.71c-3.15 0-5.7 2.55-5.7 5.7v22.81c0 3.15 2.55 5.7 5.7 5.7h182.51c3.15 0 5.7-2.55 5.7-5.7zM36.76 389.05v-92.52H16.48v92.52zM177.44 389.05v-92.52h-20.28v92.52zM126.07 216.33l-7.12 1.12 1.22 7.79h-5.63l1.85-5.1-6.77-2.47-2.75 7.57h-4.43l-1.39-8.9-7.12 1.12 1.22 7.79h-8.63v12.35c0 3.15 2.55 5.7 5.7 5.7h1.59v4.12h10.46v-4.12h26.3v4.12h10.46v-4.12h1.59c3.15 0 5.7-2.55 5.7-5.7v-12.35h-8.73l1.86-5.1-6.77-2.47-2.75 7.57h-4.43l-1.39-8.9z"/></g></svg>