<svg xmlns="http://www.w3.org/2000/svg" xml:space="preserve" viewBox="0 0 387.27 495.14" shape-rendering="geometricPrecision" text-rendering="geometricPrecision" image-rendering="optimizeQuality" fill-rule="evenodd" clip-rule="evenodd"><g fill="currentColor"><path d="m198.21 465.46-.56 1.74 18.96 3.44 25.56-2.13-.38-1.78-25.08 2.08zM310.46 494.09l67.53-3.45-2.07-2.76-64.43 3.29zM8.93 444.48c-6.56 9.9-3.85 23.25 6.06 29.8 3.66 2.42 7.78 3.58 11.85 3.58 6.97 0 13.81-3.38 17.95-9.63 24.11-36.41 31.72-69.81 31.84-97.34l-50.95-41.31c9.89 24.68 15.9 65.6-16.75 114.9z"/><path d="m9.48 311.19 7.92 6.44 69.86 56.79 28.21 89.06c2.9 9.16 11.37 15.02 20.5 15.02 2.15 0 4.34-.33 6.5-1.01 11.32-3.59 17.59-15.67 14.01-27l-30.15-95.2c-1.27-4-3.68-7.55-6.94-10.19L59 296.01h.01c6.12-23.42 19.64-46.84 30.44-65.44l-18.86-6.66c-4.47-1.58-8.05-4.8-10.09-9.07-2.04-4.27-2.3-9.08-.72-13.54 2.5-7.07 9.22-11.82 16.72-11.82 2 0 3.99.34 5.89 1.01l56.31 19.87 55.49-46.18c3.18-2.64 7.2-4.1 11.33-4.1 2.27 0 4.47.45 6.52 1.26a13.62 13.62 0 0 0-2.3-4.64c-2.36-3.09-5.77-4.9-9.35-5.32-3-7.18-6.17-14.49-9.39-21.46-8.64-18.72-26.55-54.31-40.27-81.31-5.07 2.09-10.07 4.47-14.04 6.45 13.37 24.99 30.73 58.13 41.44 81.3a277.04 277.04 0 0 1 8.53 20.61l-28.4 21.62a42.85 42.85 0 0 1-11.93 9.08l-9.77 7.44-7.11-2.82c-.83.05-1.66.11-2.51.11-2.75 0-5.52-.27-8.23-.8-9.07-1.77-16.91-6.33-22.81-12.6l-8.11-3.21c-.44-.19-.89-.36-1.34-.53l-.58-.23c-.68-.27-1.38-.47-2.07-.62-12.91-3.52-30.31.22-43.47 17.3C18.14 220.85 8.54 241.46.54 279.1c-1.12 8.36-.37 14.99 1.62 20.33 1.05 4.46 3.51 8.63 7.34 11.74z"/><path d="M119.46 187.74c20.98 4.11 41.31-9.58 45.42-30.56 4.1-20.98-9.57-41.32-30.56-45.42-20.98-4.1-41.32 9.58-45.42 30.56-4.11 20.98 9.58 41.32 30.56 45.42zM200.33 211.8l19.81-9.15s-1.44-4.1-3.88-10.72l-16.69 13.89c.58 3.85.76 5.98.76 5.98zM152.94 35.7c.69-3.65 4.79-5.07 4.79-5.07s27.43 4.95 34.84 6.27C194.31 11.82 180.76 0 180.76 0l-39.75 15.03-6.03 2.79c-1.52-2.95-2.37-4.62-2.37-4.62l-14.91 6.88s.91 1.64 2.5 4.56l-2.72 1.26s5.71 15.46 6.8 17.8c1.08 2.35 5.25 5.19 5.25 5.19s1.48-.68 3.07-1.42c.53.99 1.09 2.02 1.63 3.04 4.21-2.1 9.57-4.65 15.07-6.88 1.57-2.04 3.16-5.36 3.64-7.94z"/><path d="m196.71 167.23-57.22 47.62-58.43-20.62c-7.16-2.53-15.03 1.23-17.56 8.4-2.53 7.17 1.23 15.03 8.4 17.56l65.81 23.23a13.82 13.82 0 0 0 13.39-2.4l63.23-52.62c5.84-4.86 6.64-13.54 1.78-19.38-4.86-5.84-13.54-6.63-19.38-1.78zM309.6 462.11l-.86-4.51 1.94-1.29-2.15-11.83 2.58-1.08 1.5 13.98.79 12.05h6.98l.19-10.33.43-19.57-3.65-10.53 1.29-.86 4.73 10.75-.43 10.75 4.51-3.44-1.22 9.03-2 4.59 2.63 9.61h10.62v-10.71l-1.61-21.87 1.61-9.02-3.9-25.39 3.9-17.43v-11.93h-11.82l-.36 18.07-3.22 12.9h-2.15l2.86-12.9-.68-18.07h-72.72v9.79l3.21 9.48-3.21 30.59 3.21 14.83-3.21 18.5v13.16h58.54zM262.51 356.27l3.22 11.94h59.07v-9.72l1.08-19.82 1.72-13.98-3.44-17.63 2.15-14.84-1.51-11.47h-10.86l2.3 8.51-2.31 14.42 1.67 9.46-3.39.6-1.77-10.04 2.28-14.25-2.35-8.7h-44.64v8.88l-2.65 11.41 2.65 24.97-1.07 13.46zM220.12 491.92l-.48 2.27 18.76.95 25.1-9.11-.4-2.12-24.64 8.95z"/><path d="m262.52 476.06-22.91 1.06-2.28.5.91 1.54-5.28.62-2.49-.66-8.86 1.92-1.88 8.87.37.02 18.39.94 24.7-8.97.4-.14-1.08-5.68zm-16.89 7.9-2.69-.72 2.15-2.78 2.96.63 1.44 2.42-3.86.45zm6.62-1.88-1.24-.33 1-1.29 1.37.29.66 1.12-1.78.21zM238.75 458.02l-2.69-.72.9-1.17-17.25-1.33-19.15.51-.56 1.71 2.32.49 1.43 2.42-3.86.45-.9-.24-1.23 3.84.42.07 18.53 3.36 2.11-.17 1.56-2.58 3.01.28 1.37 1.8 17.22-1.43.3-.02-1.63-7.5zM353.33 469.14l-17.42 4.98-1.48.42.65 1.09-3.86.45-1.75-.47-2.41 1.11-2.69-.72 1.45-1.88-9.77-.98-5.38 6.45-.22 9.46.77-.04 65.2-3.32 1.55-.08-4.79-6.39-5.06.32-4.99-.72 3.99-2.78 4.01.46-4.78-6.37-13.05-1zm8.24 3.26 1.37.29.66 1.12-1.79.21-1.24-.33 1-1.29zm-41.8 9.68-1.24-.33 1-1.29 1.37.29.66 1.12-1.78.21zm6.36 2.53-2.69-.72 2.15-2.78 2.96.63 1.44 2.42-3.86.45zm31.6-7.26-1.25-.33 1-1.29 1.37.29.66 1.12-1.78.21zm7.57 3.76 2.96.63 1.44 2.42-3.86.45-2.69-.72 2.15-2.78zM280.22 479.03l-6.06-1.29-4.41 5.7 5.51 1.47 7.91-.92zM200.28 483.44l5.52 1.47 7.9-.92-2.94-4.96-6.07-1.29zM194.38 472.15l-4.05-.86-2.95 3.81 3.68.98 5.29-.61zM345.23 462.77l3.69.98 5.28-.61-1.97-3.32-4.05-.86zM365.76 465.02l-1.44-2.42-2.96-.63-2.15 2.78 2.69.72zM244.09 447.94l-1.97-3.32-4.05-.86-2.95 3.81 3.69.98zM230.71 449.82l-1.44-2.42-2.96-.63-2.16 2.79 2.7.71zM346.4 453.14l-2.96-.63-2.15 2.78 2.69.72 3.86-.45zM387.27 469.27l-3.37-5.68-6.95-1.48-5.05 6.53 6.31 1.69zM296.12 475.16l-3 3.88 3.75 1 5.37-.63-2-3.37zM308.35 484.52l-1.7-2.88-3.52-.74-2.56 3.3 3.2.85zM104.54 18.05c-1.63 4.8.68 9.33.78 9.52a1.73 1.73 0 0 0 2.32.74c.84-.44 1.17-1.48.73-2.32-.02-.03-1.72-3.46-.57-6.83.74-2.19 2.55-3.96 5.36-5.27.86-.4 1.24-1.42.83-2.29-.4-.86-1.42-1.24-2.29-.83-3.7 1.72-6.11 4.18-7.17 7.29z"/><path d="M98.63 29.32a1.708 1.708 0 0 0 1.56-2.43c-.02-.05-2.49-5.59-.32-11.11 1.41-3.61 4.52-6.44 9.24-8.42.88-.37 1.29-1.38.92-2.25a1.712 1.712 0 0 0-2.25-.92c-5.61 2.36-9.34 5.84-11.11 10.34-2.69 6.86.27 13.51.39 13.79.29.63.91 1.01 1.57 1.01zM332.46 273.41c.03.02 3.34 1.96 4.21 5.45.56 2.23.01 4.69-1.63 7.31a1.718 1.718 0 0 0 1.46 2.63c.57 0 1.13-.29 1.46-.81 2.16-3.46 2.85-6.83 2.04-10.01-1.25-4.92-5.66-7.46-5.84-7.56-.82-.46-1.87-.18-2.34.65-.47.82-.18 1.87.64 2.35z"/><path d="M338.82 268.19c.05.03 5.16 3.4 6.33 9.18.77 3.79-.3 7.85-3.16 12.07-.53.78-.33 1.86.46 2.39.3.2.63.3.97.3.55 0 1.09-.26 1.42-.75 3.42-5.03 4.66-9.98 3.68-14.73-1.48-7.22-7.59-11.18-7.84-11.35-.8-.51-1.86-.28-2.37.52s-.28 1.86.52 2.38z"/></g></svg>