<svg xmlns="http://www.w3.org/2000/svg" xml:space="preserve" viewBox="0 0 529.52 637.13" shape-rendering="geometricPrecision" text-rendering="geometricPrecision" image-rendering="optimizeQuality" fill-rule="evenodd" clip-rule="evenodd"><g fill="currentColor"><path d="M82.2 501.5c-5.65 0-10.97-1.38-15.7-3.77v129.75c0 5.33 4.32 9.64 9.65 9.64H205.6c5.33 0 9.64-4.32 9.64-9.64V501.5H82.2zM234.77 356.48v-50.14h122.14v77.15h-87.86c-.6 4.25-2.3 8.28-5.05 11.71a23.896 23.896 0 0 1-8.66 6.77h118.45v-11.25h-7.24V296.7H225.12v59.25c2.94.34 6.17.54 9.38.54h.27zM260.65 431.59c9.2 0 18.21 3.73 24.72 10.24.11.1.2.22.3.33h99.78v-27.72H187.29v17.16h73.37zM179.95 208.42c0-29.96-24.29-54.24-54.25-54.24-29.95 0-54.24 24.29-54.24 54.25 0 16.63 7.49 31.51 19.28 41.46h69.92c11.79-9.95 19.28-24.83 19.28-41.46z"/><path d="m39.51 338.2-.01-.01c-.5-1.32-.73-2.61-.84-4.01-.03-.37-.1-.72-.1-1.12-.02-3.34 1.11-7.76 3.68-12.6 2.32-4.48 5.86-9.15 9.81-13.29v159.39c0 16.65 13.49 30.13 30.13 30.13h148.31v104.88c0 16.64 13.49 30.13 30.14 30.13s30.13-13.5 30.13-30.13V466.56c0-7.93-3.21-15.7-8.83-21.31-5.61-5.61-13.38-8.83-21.31-8.83h-78.19v-53.06c8.15 8.13 17.82 11.6 26.35 13.75 9.72 2.32 18.84 2.76 25.87 2.79 7.17 0 12.1-.54 12.61-.6 10.6-1.16 18.23-10.68 17.07-21.27-1.16-10.59-10.7-18.23-21.29-17.06-.43.04-3.82.36-8.39.36-5.07.01-11.67-.44-16.83-1.71-5.3-1.17-8.3-3.38-8.31-3.67-3.4-4.15-5.98-10.61-7.44-19.02-2.28-12.6-1.7-28.13-2.29-42.22-.44-7.17-.79-13.98-3.99-22.03-1.66-3.97-4.4-8.58-9.21-12.3-4.76-3.77-11.3-5.67-16.77-5.57-.93 0-1.85.09-2.75.22-1.06-.19-2.15-.3-3.27-.3H70.65c-1.46 0-2.87.19-4.24.5-7.42 1.02-13.39 3.84-19.56 7.24-10.97 6.37-21.77 15.68-30.71 27.42C7.36 301.59.09 316-.04 333.08c0 .95.07 1.92.12 2.88.27 5.17 1.29 10.48 3.23 15.64.08.2.13.41.2.61v.01s0 .01.01.01c4.83 12.51 14.7 23.28 28.16 31.4 4.68 2.84 9.86 5.4 15.51 7.76v-43.84c-4.73-3.66-6.73-6.82-7.72-9.31zM283.96 281.41l63.71-47.32c17.24 9.07 36.86 14.22 57.69 14.22 68.57 0 124.16-55.59 124.16-124.16S473.93-.01 405.36-.01 281.2 55.58 281.2 124.15c0 32.17 12.23 61.47 32.3 83.53l-29.54 73.72zm121.4-266.95c60.49 0 109.7 49.2 109.7 109.69 0 60.48-49.21 109.69-109.7 109.69-60.48 0-109.69-49.21-109.69-109.69s49.2-109.69 109.69-109.69z"/><path d="M347.91 201.55c5.63-18.08 12.32-30.08 18.42-37.92.3-.39.59-.72.89-1.09l-8.89 45.75c13.93 7.82 29.96 12.3 47.03 12.3 17.08 0 33.11-4.48 47.04-12.29l-8.9-45.79c6.35 7.83 13.42 20.07 19.32 39.04 5.64-4.2 10.79-9.01 15.39-14.32-6.72-18.5-14.73-31.23-22.57-39.99-14.01-15.72-27.35-18.01-29.12-18.14-.4-.05-.8-.02-1.2-.02-.01.49-.02.97-.04 1.45-.35 6.23-1.81 11.93-4.06 16.63-3.66 7.66-9.39 12.61-15.86 12.61-6.47 0-12.21-4.96-15.86-12.61-2.24-4.7-3.71-10.4-4.06-16.63-.03-.48-.03-.97-.04-1.45-.4 0-.79-.02-1.2.02-1.77.14-15.1 2.43-29.12 18.15-7.85 8.76-15.86 21.49-22.57 39.99 4.6 5.3 9.76 10.12 15.4 14.32zM387.02 114.78c7.14 5.09 16.32 7.22 25.53 5.07 4.15-.96 7.91-2.71 11.18-5.04 10.15-7.23 15.48-20.1 12.48-32.98-3.97-17.03-20.99-27.63-38.02-23.66-17.03 3.97-27.63 20.99-23.66 38.02 1.83 7.83 6.42 14.27 12.49 18.58zM216.93 129.04c47.94-89.32-5.53-93.44-20.66-85.23-15.13 8.22-13.46 22.38-13.46 22.38s-10.98-9.11-26.1-.9c-15.14 8.22-40.8 55.31 60.23 63.75z"/></g></svg>