<svg xmlns="http://www.w3.org/2000/svg" xml:space="preserve" viewBox="0 0 3499.42 4058.36" shape-rendering="geometricPrecision" text-rendering="geometricPrecision" image-rendering="optimizeQuality" fill-rule="evenodd" clip-rule="evenodd"><g fill="currentColor"><path d="M1196.03 1683.38h-1.31c-50.92-.62-87.43-14.26-117.73-27.07-29.85-13.19-54.96-27.41-77.09-40l-8.98-5.11c-41.68-23.78-84.74-48.41-131.91-66.94-20.19-7.94-37.91-19.42-53.1-33.2-7.57-.35-15.19-.88-22.74-.88-129.43.62-214.69 49-304.93 100.21-15.03 8.54-30.03 16.99-45.1 25.26l-13.01 6.52c-34.51 17.44-77.53 39.1-146.24 41.14h-2.5c-.15 0-.29-.02-.42-.02v354.37L124.95 3828.12c-9.5 116.54 77.26 218.65 193.74 228.13 116.5 9.5 218.67-77.18 228.17-193.74L674.03 2303.3h119.86l127.19 1559.23c9.5 116.54 111.67 203.22 228.15 193.72 116.5-9.48 203.25-111.61 193.76-228.13l-146.02-1790.46v-354.32c-.23 0-.46.04-.69.04h-.23zM733.97 770.34c212.75 0 385.17-172.44 385.17-385.17C1119.14 172.46 946.72 0 733.97 0 521.26 0 348.8 172.46 348.8 385.17c0 212.73 172.46 385.17 385.17 385.17z"/><path d="M42.7 1476.47c29.09 59.27 76.53 115.07 143.97 149.06 27.59 14.05 58.4 20.17 84.72 20.17.48 0 .94 0 1.42-.04 67.59-1.98 105.64-25.07 142.31-43.08 106.02-57.73 205.81-129.32 368.1-130.05 25.68 0 52.96 1.9 82.37 6.31 74.8 11.25 144.54-40.27 155.77-115.07 11.25-74.84-40.27-144.53-115.09-155.77-42.75-6.42-83.82-9.38-123.05-9.38-166.67-.31-297.78 53.94-389.23 102.35-43.48 22.91-79.07 44.48-103.85 57.84-.63-1.13-1.27-2.36-1.9-3.59-4.15-8.25-7.79-18.74-10.34-30.57l34.55-21.65c18.32-10.46 40.12-22.82 64-35.39 135.64-71.78 268.29-106.65 405.37-106.65 43.6 0 86.93 3.29 130.11 9.78 44.95 6.77 83.2 30.34 109.71 63.23 43.87 19.36 82.36 39.95 117.52 59.79 5.67 3.21 11.07 6.32 16.32 9.32l34.55 21.61c-2.58 11.78-6.23 22.28-10.4 30.53-.63 1.23-1.23 2.42-1.86 3.56-15.05-8.19-34.72-19.4-57.08-32.2-20.28-11.46-43.27-24.09-68.76-36.83 8.11 24.93 10.9 51.98 6.75 79.61-12.46 82.61-83.24 145.28-166.09 148.41 44.91 19.53 85.7 42.87 125.9 65.82 23.2 13.13 46.27 26.16 73.22 38.04 26.95 11.42 58.79 23.59 103.46 24.11h1.11c26.49 0 57.36-6.13 84.97-20.15 67.53-34.12 114.88-89.89 143.99-149.1 29.3-59.73 42.56-124.38 42.72-189.76-.29-96.22-29.16-197.06-98.77-280.15-64.55-78.38-169.46-132.53-289.4-137.74-4.98-.56-10-.92-15.13-.92H403.3c-5.11 0-10.11.35-15.07.92-119.94 5.25-224.84 59.4-289.38 137.72C29.2 1089.65.29 1190.57.02 1286.73c.13 64.03 13 127.47 41.1 186.2.56 1.17 1.02 2.38 1.6 3.56zM1897.36 2514.26l453.88 318.23v1097.49c0 70.9 57.48 128.38 128.4 128.38 70.9.02 128.38-57.48 128.38-128.38v-410.83h51.37v410.83c0 70.9 57.48 128.38 128.4 128.38 70.9.02 128.38-57.48 128.38-128.38V3021.88c28.53 77.2 53.63 190.78 59.25 356.22 1.65 48.58 41.54 86.83 89.78 86.83 1.02 0 2.06-.02 3.1-.06 49.6-1.67 88.45-43.25 86.78-92.85-18.51-546.42-240.45-656.61-265.69-667.38-.12-.06-.25-.06-.37-.12-1.63-1.25-3.27-2.5-5.02-3.59-64.78 62.98-153 101.94-250.28 101.94-150.91 0-280.15-93.56-333.38-225.63l-299.76-210.17c-40.62-28.51-96.68-18.65-125.21 21.99-28.49 40.64-18.65 96.68 22.01 125.19z"/><path d="M2633.69 2728.37c157.39 0 284.99-127.59 284.99-284.98 0-157.41-127.61-284.99-284.99-284.99-157.39 0-284.98 127.59-284.98 284.99 0 157.39 127.59 284.98 284.98 284.98zm-181.59-180.03c9.86-54.48 94.14-84.85 188.24-67.86 94.12 17.01 162.44 74.97 152.58 129.45-9.84 54.5-76.3-13.78-170.4-30.8-94.12-17.01-180.24 23.68-170.42-30.8z"/><path d="m2043.98 2243.14 188.78 45.18c.19.06.4.1.6.13 11.03 2.31 21.95-4.58 24.59-15.61 2.69-11.21-4.23-22.49-15.46-25.18L2117 2217.63l139.85-56.98a20.846 20.846 0 0 0 12.75-16.05c1.17-7.21-1.54-14.49-7.09-19.22l-87.14-74.05 135.72-2.06a20.91 20.91 0 0 0 17.4-9.78c3.77-6 4.23-13.51 1.25-19.94l-76.05-163.48 152.62 84.05c5.98 3.31 13.21 3.44 19.36.42a20.914 20.914 0 0 0 11.38-15.65l23.47-157.1 90.91 148.6c3.69 6.07 10.27 9.82 17.34 10 7.11.15 13.8-3.31 17.78-9.19l83.47-123.32 12.28 192.78c.42 6.42 3.77 12.3 9.07 15.92a20.848 20.848 0 0 0 18.15 2.65l104.96-33.55-50.65 95.5c-5.4 10.21-1.52 22.86 8.67 28.26 10.17 5.4 22.84 1.52 28.28-8.67l74.67-140.83c3.98-7.52 3.02-16.69-2.44-23.2-5.44-6.54-14.3-9.07-22.4-6.5l-128.28 41-14.49-227.07c-.56-8.92-6.73-16.47-15.36-18.84-8.44-2.27-17.8 1.06-22.8 8.46l-99.54 147.1-103.94-169.98c-4.59-7.52-13.38-11.3-21.99-9.57-8.61 1.75-15.23 8.71-16.51 17.4L2400.17 1889l-182.28-100.39a20.915 20.915 0 0 0-24.36 3.04c-6.59 6.17-8.5 15.9-4.69 24.09l89.41 192.22-159.08 2.4c-8.69.13-16.42 5.63-19.36 13.84-2.94 8.19-.48 17.34 6.15 22.99l103.25 87.74-168.23 68.53a20.87 20.87 0 0 0-12.96 20.93c.67 9.05 7.15 16.63 15.98 18.74zM3021.4 1562.73c64.32-46.35 61.55-147.04 61.4-151.31l-24.36.85c.02.92 2.58 91.87-51.27 130.68-32.05 23.11-78.63 23.51-138.47 1.21l-8.52 22.84c67.94 25.32 122.17 23.88 161.21-4.27zM3151.37 1641.24c25.14 17.71 59.27 29.6 102.12 35.56l3.34-24.13c-64.34-8.96-105.75-31.8-123.09-67.84-29.26-60.86 18.21-141.95 18.69-142.76l-20.93-12.48c-2.23 3.75-54.63 92.97-19.76 165.69 8.71 18.15 21.93 33.47 39.64 45.95zM3084.15 1736.21c31.85-20.93 77.84-17.53 136.64 10.11l10.38-22.05c-67.05-31.51-121.05-34.33-160.48-8.38-67.5 44.43-64.61 155.81-64.48 160.54l24.38-.79c-.06-1.02-2.56-102.56 53.56-139.43zM2961.54 1698.22c29.97 59.9-24.2 146.39-24.76 147.26l20.55 13.09c2.56-4 62.11-98.89 26.03-171.19-21.34-42.79-70.88-67.48-147.14-73.4l-1.88 24.3c67.11 5.21 109.9 25.34 127.2 59.94zM1699.32 3056.49l6.19 23.57c70.11-18.42 113.63-50.83 129.36-96.33 25.89-74.92-34.35-155.64-36.93-159.06l-19.42 14.73c.54.73 55 73.63 33.32 136.37-12.9 37.33-50.75 64.5-112.52 80.72zM1927.47 2958.37c17.57 9.82 37.22 14.73 58.86 14.73 30.74 0 65.52-9.9 103.96-29.7l-11.15-21.67c-57.77 29.74-104.77 34.89-139.7 15.42-58.96-32.93-66.84-126.53-66.92-127.49l-24.3 1.85c.33 4.36 8.86 107.48 79.24 146.87zM1963.34 3080.59c-29.6 75.18 36.87 164.6 39.72 168.38l19.45-14.67c-.62-.83-61.13-82.39-36.47-144.85 14-35.45 53.54-59.15 117.53-70.42l-4.21-23.99c-72.95 12.84-118.73 41.62-136.03 85.55zM1875.52 3107.56c-42.1-22.7-96.81-14.36-162.58 24.7l12.46 20.95c57.86-34.39 104.44-42.54 138.49-24.24 59 31.74 64.52 133.64 64.55 134.66l24.36-1.13c-.21-4.73-6.15-116.61-77.28-154.94zM3160.56 2238.8c213.89-3.63 344.05 99.68 338.76-25.51-5.61-133.01-259.23-105.87-338.76 25.51zM2995.78 2174.99c114.56-124.92 244.91-143.39 170.09-208.62-79.51-69.32-202.24 91.24-170.09 208.62zM3344.4 2483.09c13.25-91.28-162.9-105.35-233.92-26.11 146.08 24.99 221.44 112.02 233.92 26.11z"/></g></svg>