<svg xmlns="http://www.w3.org/2000/svg" xml:space="preserve" viewBox="0 0 490.54 669.43" shape-rendering="geometricPrecision" text-rendering="geometricPrecision" image-rendering="optimizeQuality" fill-rule="evenodd" clip-rule="evenodd"><g fill="currentColor" fill-rule="nonzero"><path d="M488.76 260.24c2.96-3.97 2.14-9.6-1.84-12.56l-124.46-92.67c.7-8.07-4.21-15.84-12.25-18.4-4.06-1.3-8.24-1.06-11.92.4l-16.93-12.61c-15.51-11.54-37.42-8.34-48.97 7.17-11.54 15.51-8.34 37.42 7.17 48.97 3.97 2.96 9.59 2.14 12.55-1.83 2.96-3.98 2.14-9.6-1.83-12.56-7.54-5.64-9.1-16.29-3.5-23.86 5.64-7.54 16.3-9.1 23.86-3.49l16.33 12.16c-11.67 35.23-26.12 56.03-40.07 67.85-14.39 12.08-28.48 15.81-42.88 15.92-5.57.02-11.15-.66-16.57-1.77-10.5 21.79-32.51 36.12-57.58 36.12-4.88 0-9.78-.56-14.57-1.68-16.67-3.88-30.83-14.02-39.88-28.55a64.637 64.637 0 0 1-4.41-8.39c-27.35 18.8-68.28 52.77-98.1 103.63-.08.12-.13.25-.19.37-.15.27-.3.56-.44.84-.12.25-.23.5-.35.75-.12.27-.22.56-.33.84-.1.27-.2.54-.28.8-.08.28-.16.55-.23.83-.08.29-.15.58-.21.86-.06.27-.1.54-.14.82-.06.31-.1.61-.13.92-.03.26-.05.53-.06.79-.02.33-.03.65-.04.97 0 .25 0 .51.02.76.01.33.03.67.06 1.01.01.13.01.25.02.39.02.14.04.27.07.42.04.27.08.53.13.8.06.31.12.62.19.92.06.23.11.44.18.66.09.34.19.66.31.99.07.2.14.39.21.58.13.33.27.66.42.98.08.19.17.37.26.56.16.31.32.6.49.89.11.21.23.41.35.6.16.26.33.5.51.75.15.22.3.44.46.65.16.2.33.4.49.6.2.23.39.47.6.69.14.16.31.31.47.47.44.43.89.84 1.38 1.23.19.16.38.32.58.47.19.14.4.27.6.4.28.19.56.38.84.55.05.03.1.07.15.1.1.06.2.09.3.14.51.29 1.03.55 1.57.78.16.06.3.14.45.2.63.25 1.27.47 1.93.65.15.04.31.08.47.11.51.13 1.04.23 1.57.31.21.03.41.06.62.08.62.08 1.24.12 1.87.12.05 0 .1.01.14.01.14 0 .27-.02.41-.02.54-.01 1.07-.03 1.62-.1l.22-.02c.02 0 .02 0 .04-.01l42.21-4.84 44.8-5.13c9.72-1.11 16.71-9.9 15.59-19.63-1.11-9.72-9.9-16.7-19.63-15.59l-41.47 4.75-7.18.82c1.81-2.26 3.63-4.46 5.46-6.61l-6.12-12.15c-1.97-3.89-2.3-8.33-.93-12.48 1.37-4.16 4.26-7.53 8.17-9.49l32.47-16.37c2.28-1.15 4.82-1.76 7.35-1.76 6.22 0 11.82 3.45 14.62 9l35.19 69.81c4.06 8.06.81 17.92-7.24 21.98l-32.47 16.37a16.403 16.403 0 0 1-7.36 1.75c-6.23 0-11.82-3.45-14.62-9l-6.59-13.08-17.01 1.95-24.08 148.8s.56.34 1.62.9c8.22 4.4 48.14 23.64 116.55 23.64 68.42 0 108.33-19.24 116.56-23.64 1.06-.56 1.62-.9 1.62-.9l-38.39-237.14s-.51-.9-1.4-2.45c20.08-.74 42.14-7.62 61.63-24.29 18.41-15.65 34.36-39.16 46.91-72.69l119.44 88.94c3.97 2.96 9.6 2.14 12.56-1.84zM.11 62.85C-1.09 77.8 8.04 88.08 20.89 88.5c-9.58 8.47-10.92 21.29.97 31.47 14.25 12.21 34.08 5.83 45.95-6.13.33-.34.53-.63.64-.9 11.91 10.76 28.04 17.11 43.62 18.89.96.1 4.57-5.7 3.95-6.32-9.8-9.91-27.13-26.11-26.91-41.05-.01.7-4 3.93-4.03 5.96-.18 11.35 9.37 23.19 18.36 32.64-15.11-4.1-29.55-12.47-38.87-25.01.08.1-4.87 5.09-3.95 6.32 1.83 2.46 3.87 4.74 6.05 6.88-1.59-.21-3.77.18-4.66 1.08-10.4 10.48-27.16 14.44-37.3 1.07-7.67-10.11-4.82-21.18 6.77-26.61 3.75-1.75 1.55-4.7-1.9-3.61-13.26 4.2-23.41-6.36-22.35-19.65 1.42-17.81 15.9-20.81 30.79-15.07 1.38.53 7.7-1.25 5.59-3.38-6.52-6.59-12.64-16.52-7.46-25.8C40.3 11.86 48.09 7.08 56.3 5.3 79.9.17 92.16 17.95 88.74 39.9c-.38 2.45 3.84 1.84 5.05 1.32 37.87-16.1 43.3 53.81 3.73 47.88-2.93-.43-7.67 3.56-2.84 4.28 21.08 3.15 39.64-11.32 37.77-33.56-1.76-20.81-18.32-28.73-36.06-23.78 1.25-11.68-.66-24.73-11.62-31.26-9.1-5.42-20.72-5.91-30.78-3.06-20.35 5.77-33.22 22.8-21.97 40.12C17.29 39.95 1.52 45.27.11 62.86z"/><path d="M48.39 87.34c-1.73 4.83 1.97 2.04 2.97-.76 4.67-13.08 20.28-17.33 31.48-10.17 1.32.83 4.89-5.67 3.26-6.72-15.74-10.06-32.21 2.29-37.71 17.65zM85.41 596.18c0 14.47.34 30.21 1.15 47.27.68 14.6 12.74 25.98 27.22 25.98.43 0 .87-.01 1.3-.03 15.05-.71 26.67-13.48 25.96-28.53-.76-16.2-1.08-31.08-1.08-44.7 0-20.15.7-37.49 1.76-52.15-21.9-1.78-39.94-5.47-53.97-9.4-1.39 17.16-2.33 37.61-2.33 61.55zM199.7 596.18c0 13.61-.32 28.5-1.07 44.71-.7 15.04 10.92 27.81 25.97 28.51.43.02.86.03 1.29.03 14.48 0 26.53-11.39 27.21-26 .8-17.04 1.14-32.78 1.14-47.25 0-23.94-.94-44.39-2.33-61.55-14.04 3.93-32.08 7.62-53.99 9.4 1.06 14.67 1.77 31.96 1.77 52.14zM118.88 374.42l32.47-16.37c5.38-2.71 7.54-9.27 4.84-14.65L121 273.59c-2.72-5.38-9.27-7.54-14.65-4.83l-32.47 16.37c-5.37 2.71-7.54 9.27-4.82 14.65l7.27 14.41 36.56-4.19c.9-.1 1.78-.15 2.66-.15 11.78 0 21.68 8.83 23.01 20.55.7 6.15-1.03 12.21-4.88 17.06a22.998 22.998 0 0 1-15.52 8.61l-19.6 2.24 5.69 11.29c2.71 5.38 9.27 7.54 14.65 4.83zm-8.6-89.57c-2.51 0-4.55-2.04-4.55-4.55s2.03-4.55 4.55-4.55c2.51 0 4.55 2.04 4.55 4.55s-2.04 4.55-4.55 4.55zM184.37 142.6a64.122 64.122 0 0 1 15.32 5.7c.09-.96.15-1.94.15-2.92 0-16.57-13.43-30-30-30-16.58 0-30 13.43-30 30 0 .97.05 1.93.14 2.88a63.93 63.93 0 0 1 29.81-7.35c4.87 0 9.78.57 14.57 1.69z"/><path d="M156.55 262.09c31.53 7.34 63.04-12.27 70.38-43.8 7.34-31.53-12.27-63.04-43.79-70.39-31.53-7.34-63.04 12.27-70.39 43.8-7.34 31.53 12.27 63.05 43.8 70.39zm13.74-7.47c-14.31 0-25.91-7.84-25.91-17.49 0-9.66 11.59-17.49 25.91-17.49 14.31 0 25.91 7.83 25.91 17.49 0 9.66-11.6 17.49-25.91 17.49z"/></g></svg>