<svg xmlns="http://www.w3.org/2000/svg" xml:space="preserve" viewBox="0 0 650.55 687.37" shape-rendering="geometricPrecision" text-rendering="geometricPrecision" image-rendering="optimizeQuality" fill-rule="evenodd" clip-rule="evenodd"><g fill="currentColor"><path d="M206.55 294.81c-.02.74-.1 1.47-.17 2.19l11.69 16.22 24.79-105.61h190.9c13.94 0 25.25-11.31 25.25-25.25s-11.31-25.24-25.25-25.24h-213.3c-.63 0-1.25.05-1.87.09-.54-.03-1.07-.09-1.61-.09H105.6l76.98 106.85c14.01 3.2 24.32 15.93 23.96 30.83zM228.74 620.17c-17.21 16.12-32.23 32.33-33.63 37.93 5.42 8.34 10.09 10.27 10.14 10.29 2.23.74 14.1 5.09 14.1 12.96 0 1.92-.77 3.6-2.08 5.04 2.72.62 5.53.99 8.41.99 2.12 0 4.26-.18 6.42-.55 11.7-2 21.22-9.18 26.62-18.78l-25.76-29.94c-4.36-5.08-5.87-12.16-4.22-17.94zM197.55 517c2.58-4.21 5.02-8.19 7.3-11.62 4.79-7.18 15.82-15.07 30.83-22.4l-21.48-125.7c3.89 4.37 7.92 8.77 12.12 13.17 31.51 33.01 71.82 66.3 119.05 85.58 9.99-.7 19.29-1.42 27.95-2.18-55.21-15.7-102.73-53.21-138.88-91.15-7.97-8.36-15.34-16.71-22.15-24.85l.69-2.92-14.54-20.18c-5.67 6.21-13.78 10.15-22.72 10.15l-.79-.01c-44.84-1.12-80.16-5.82-107.92-14.34l7.37 31.42c-.4 1.38-.75 2.78-.99 4.23L22.66 643.1c-3.52 20.62 10.33 40.18 30.95 43.71 2.16.37 4.31.55 6.42.55 18.12 0 34.12-13.04 37.28-31.5l43.57-254.96h3.95l26.06 152.51c10.37-9.82 19.19-24.2 26.67-36.42z"/><path d="m188.35 588.27 1.12-4.84c-2.68 1.55-6.94 3.71-12.51 5.6l3.42 20.01.89-1.71c2.58-4.93 5.82-13.66 7.07-19.06zM204.66 40.91H81.39v26.4c-7.89 33.94 13.22 67.85 47.15 75.75 33.94 7.91 67.86-13.2 75.76-47.14 2.21-9.51 2.15-19.01.17-27.95h28.32l-28.13-27.06zM203.93 35.3 225.31 0 81.39 14.62V35.3z"/><path d="M490.79 431.15c-11.93 6.03-22.28 10.11-28.34 12.71-19.68 8.43-58.36 13.9-122.94 18.21-62.23 4.15-118.76 29.57-130 46.43-11.24 16.86-26.72 48.3-48.25 58.63-16.22 7.79-61.06 9.93-28.42 18.08 33.73 8.43 56.59-8.38 56.59-8.38 4.86-3.57 7.72-1.69 6.36 4.19l-1.97 8.53c-1.36 5.88-4.77 15.06-7.57 20.39l-34.54 65.91c-2.8 5.34-.16 9.71 5.87 9.71h45.18c6.03 0 10.96-1.89 10.96-4.21 0-2.32-4.68-5.78-10.4-7.68 0 0-6.45-2.15-13.49-13.4-5.88-9.41 50.71-58.26 50.71-58.26 4.57-3.94-2 12.81-5.02 16.83-3.01 4.02-2.25 11.05 1.68 15.62l36.82 42.79c3.93 4.57 12.08 8.31 18.12 8.31h16.76c6.03 0 9.63-2.34 7.99-5.21-1.63-2.87-5.67-7.22-8.98-9.67-3.31-2.45-9.58-7.88-13.93-12.06l-18.72-17.97c-4.35-4.17-7.91-7.59 32.16-61.49 5.04-6.77 6.13-8.72 6.13-8.72 2.95-5.26 10.16-8.45 16.04-7.08l80.3 21.93c6.02-.33 15.27 1.77 20.55 4.68l2.72 1.49c5.28 2.91 11.47 9.86 13.75 15.44l27.91 68.51c2.27 5.58 9.07 10.15 15.1 10.15h24.47c6.03 0 7.34-3.34 2.9-7.43l-15.87-14.64c-4.43-4.08-10.55-11.69-13.59-16.9 0 0-23.98-41.12 5.53-77.65 16.38-20.29 38.4-47.06 54.75-66.87-16.32-13.39-44.76-39.86-57.32-70.9zM644.84 433.58l-26.41-12.99c-5.41-2.67-13.18-8.47-17.27-12.91l-17.47-18.99c-4.08-4.43-7-12.98-6.48-18.99 0 0 6.08-70.58-12.19-14.37-11.49 35.35-41.31 57.91-66.77 71.89 11.29 28.83 39.2 55.25 55.2 68.36 10.24-12.4 17.21-20.8 17.21-20.8 3.86-4.65 11.74-7.04 17.52-5.33l22.67 9.69c5.78 1.71 14.87-.28 16.41-2.99 1.54-2.7-10.05-11.28-14.96-14.79l-1.82-1.31c-4.9-3.51-3.99-6.19 2.03-5.96l19.97.76c6.02.23 13.48-3.38 16.57-8.01 3.09-4.64 1.19-10.61-4.22-13.27zm-62.24-10.33c-4.33 0-7.84-3.51-7.84-7.83a7.836 7.836 0 0 1 15.67 0c0 4.32-3.51 7.83-7.83 7.83zM0 233.51c-.09 11.72 3.61 24.62 11.47 35.5 11.88 16.49 30.82 27.98 56.91 36.1 26.25 8.1 60.58 13.03 106.71 14.18.21 0 .42.01.63.01 13.66 0 24.89-10.9 25.22-24.63.34-13.94-10.68-25.52-24.62-25.86-57.4-1.29-92.1-9.58-109.23-18.25-8.63-4.28-12.69-8.28-14.5-10.85-1.77-2.64-2.02-3.94-2.1-6.21-.02-2.07.6-5.06 2.18-8.5 2.23-5.01 6.58-10.64 10.52-14.25l6.41 1.92c-.59.44-1.41 1.09-2.32 1.93-3.8 3.4-7.67 8.59-9.48 12.68-1.27 2.76-1.7 4.98-1.69 6.16.05 1.25.06 1.5 1.15 3.13.87 1.22 3.99 4.81 12.34 8.94 8.75 4.44 34.35 14.37 91.31 17.12L84.87 157.1H68.73c-1.46 0-2.89.17-4.3.4-.66-.05-1.32-.1-1.99-.1-6.58.1-10.69 1.67-14.4 3.19-6.33 2.8-11.35 6.37-16.48 10.7a99.306 99.306 0 0 0-20.14 23.9c-.23.38-.47.75-.7 1.14C4.81 206.55.05 218.99 0 233.47z"/></g></svg>