<svg xmlns="http://www.w3.org/2000/svg" xml:space="preserve" viewBox="0 0 73894.49 94984.42" shape-rendering="geometricPrecision" text-rendering="geometricPrecision" image-rendering="optimizeQuality" fill-rule="evenodd" clip-rule="evenodd"><g fill="currentColor"><path d="M50428.64 79796.81c-19.33-32.66-33.73-55.19-49.46-73.59h-2705.06c-21.06 22.66-41.86 52.66-69.86 112.25-45.59 98.65-122.92 334.88-122.65 801.21-1.6 255.3 24.13 662.57 135.05 1261.81h2819.05c110.78-598.84 136.51-1005.85 134.78-1260.35.27-527.65-99.19-764.02-141.85-841.34z"/><path d="M56839.69 44429.53c179.71 63.72 215.17 625.77 400.87 679.63 184.37 53.46 1324.2-2289.79 1514.18-2246.33 188.37 42.93 129.45 655.5 323.02 687.9 191.3 32.26 278.36 405.41 474.33 427.27 193.44 21.33 435.4-724.43 632.97-713.63 194.9 10.8 310.62 2544.16 508.72 2544.16 196.9 0 339.02-2208.21 532.72-2218.87 196.1-10.67 558.05 1292.74 750.69 1271.41 194.77-21.46 645.1 729.76 835.61 697.9 192.37-32.13-230.5-2222.74-43.19-2265.13 189.04-42.79-8-814.81 175.31-867.74 184.77-53.06 1006.25 1338.47 1185.16 1275.54 179.57-63.06 839.08 616.71 1012.12 543.92 173.84-72.92-688.43-1636.29-521.92-1718.54 167.04-82.39 902.53 583.11 1061.84 491.79 159.71-91.32 211.3-296.49 362.61-396.21 151.58-99.85-505.39-892.53-362.61-1000.38 143.05-107.98 1492.71 792.15 1626.03 676.7 133.45-115.58-673.5-884.54-550.05-1007.32 123.45-122.52 1919.85 763.89 2032.9 634.57 112.78-128.91-1917.45-1401.13-1815.73-1536.31 101.45-134.78 1977.04 551.92 2067.16 411.27 89.99-139.98-1791.33-1024.38-1713.21-1169.83 77.72-144.51 3055.41 624.31 3121.27 474.86 65.19-148.51-2647.74-1029.58-2594.95-1182.22 52.39-151.71 487.93-175.17 527.92-331.02 39.33-153.98 944.13-172.64 970.66-330.35 26.4-155.58-696.7-362.21-683.5-520.99 12.93-156.78 768.82-283.16 768.82-442.47 0-163.71-1532.04-249.96-1545.64-410.87-14-163.04 2875.57-576.85 2847.84-736.82-28-161.71-784.68-288.62-826.28-446.6-42.13-159.84-311.15-316.49-366.21-471.8-55.86-156.91 256.23-460.73 187.44-612.84-69.19-152.91 410.34-570.85 328.62-718.56-82.52-148.78-2683.07 687.1-2777.72 544.32-94.92-143.58 657.5-645.5 550.85-782.68-107.32-137.58 125.45-467.13 6.93-597.91-118.78-131.18-469.66-124.11-599.11-248.1-129.85-123.98-711.89 108.12-851.87-8.27-140.11-116.38 1053.04-1388.99 903.07-1497.38-149.58-108.12-1469.25 882.54-1627.89 783.08-158.51-99.59-99.59-417.54-266.76-508.06-166.38-89.99-890.67-94.92-1065.44-175.71 98.39-127.85 979.32-326.88 1067.04-460.46 86.79-133.05 18.66-335.02 94.39-473.4 75.32-137.58 631.77-137.18 695.23-279.43 63.46-141.45 871.07-144.25 922.4-289.96 51.19-144.51-1299.54-605.38-1261.01-753.75 38.39-146.91 1426.85-135.58 1452.85-286.09 25.33-148.51-923.2-422.34-910.53-573.91 12.8-149.58 1145.3-315.02 1145.3-467.13 0-155.98-1394.06-310.75-1407.52-464.06-13.46-155.44-339.68-274.23-366.35-426.34-27.2-154.24-1237.42-82.92-1277.54-233.43-40.66-152.11 1928.38-687.23 1874.92-835.08-53.86-149.18-1202.62-2.93-1268.74-147.44-67.06-145.58 179.84-369.01 100.92-509.39-79.59-141.18-1248.61 215.7-1340.07 80.12-91.72-136.25 1087.84-830.01 984.65-959.99-103.32-130.51-1605.89 588.31-1720.14 464.46-114.52-124.25 349.15-517.26 224.23-634.31-124.91-117.18 1716.01-1727.88 1581.23-1837.59-134.91-109.58-369.41-265.03-513.79-366.75-143.98-101.58-408.61-222.63-561.52-315.95-152.24-93.19-538.45-54.26-698.96-138.65-160.11-84.12-907.2 542.72-1074.91 467.8-167.04-74.66-168.51-468.73-342.48-533.92-108.78-40.66-208.24-144.11-311.69-228.9 109.58-48.93 175.17-86.25 176.91-106.78 2.67-34.39-183.97-73.86-469.8-115.85-101.05-188.64-158.64-551.25-300.76-585.51-57.59-14-320.35 186.77-658.17 466.33-943.19-107.05-2005.84-217.43-2005.84-300.89 0-159.44 38.39-229.03 26-385.81-12.66-159.04 59.86-235.43 34.79-391.54-25.46-157.71 184.64-264.63 146.78-419.14-38.13-155.98 3167-936.79 3116.74-1089.04-50.79-153.44-981.99-174.24-1044.78-323.42-62.92-150.38-1765.47 188.51-1840.13 42.66-74.92-146.51-309.15-189.04-395.54-330.48-86.79-142.25 1536.84-1032.11 1439.12-1168.89-97.99-137.18-884 29.46-992.52-101.72-108.78-131.85 538.72-753.75 419.54-879.2-119.05-125.71-2565.09 1310.47-2694 1191.56-128.78-119.05 590.05-795.08 451.93-906.93-138.25-111.98-789.48-339.68-936.26-444.33 41.99-162.64 1705.48-500.33 1734.01-666.7 28-164.51 256.23-356.48 270.49-524.19 14-165.44 378.74-381.14 378.74-549.39 0-159.58 737.76-420.87 725.23-577.91-12.53-159.18-1669.89-249.56-1694.95-405.81-25.46-158.11 1397.66-565.52 1359.8-720.16-38.26-156.11-380.48-346.88-430.87-499.26-50.79-153.71-1250.21-78.52-1312.87-227.97-63.19-150.51 659.37-586.18 584.58-732.16-75.19-146.91-1220.62 61.46-1307.14-80.25-86.92-142.38-1264.88 221.03-1362.73 84.12-98.25-137.45 2490.83-1656.95 2382.05-1788.4-108.92-131.71-2995.42 1329-3114.6 1203.55-119.32-125.85 450.47-645.37 321.42-764.42-129.31-119.05 1260.88-1429.52 1122.63-1541.5-138.51-111.98-2199.94 1421.26-2346.98 1316.6-147.18-104.52 463.53-904 308.09-1000.65-154.91-96.52-597.38 157.84-760.29 69.72-162.38-88.12-530.99 169.84-700.56 90.39-169.17-79.32-258.63-167.84-434.47-238.23-175.17-69.99-638.57 554.58-819.74 493.66-180.24-60.66 895.6-2809.45 709.76-2860.38-184.77-50.79-1059.44 1632.96-1249.15 1591.9-188.37-40.79-336.48-99.45-529.52-130.51-191.04-30.53-438.2 487.13-633.37 466.46-193.04-20.4-266.63-588.05-463.13-598.31-193.97-10-357.81 334.75-555.25 334.75-197.7 0-463.66-1569.1-658.04-1558.3-197.04 10.8-1025.98 1700.95-1219.42 1721.48-47.06-151.58 511.52-1123.7 452.6-1271.28-59.46-148.38-784.95-75.99-856.01-219.97-71.46-144.91-273.69-190.9-356.35-330.75-83.32-140.78 2054.89-1233.55 1960.78-1368.86-94.65-135.71-868.27-11.07-973.32-141.18-105.18-130.38-740.16 7.47-855.34-116.78-115.72-124.38-406.47-140.38-531.92-258.09-125.31-118.12 272.36-650.7 137.71-761.62-134.65-111.05 441.4-924.13 297.96-1027.71-143.31-103.32-410.47-239.03-562.05-334.75-151.58-95.72-1771.6 1388.06-1930.91 1300.47-158.64-87.19-145.31-345.42-311.42-424.2-165.71-78.52-462.06 96.79-634.17 27.06-171.44-69.59 557.78-1779.87 380.08-1840.13-176.51-60.12-719.09 484.86-901.33 434.07-181.17-50.39-952.26 1514.97-1138.5 1474.18-184.77-40.53-146.24-612.44-335.82-642.97-187.31-30.53-57.19-1743.47-248.76-1763.87-189.44-20.26-649.1 2116.35-842.14 2106.09-190.64-10.13-302.49 210.77-496.06 210.77-198.64-.13-373.54-951.59-568.85-940.93-197.97 10.67-220.77 927.6-414.87 948.79-196.24 21.6-271.56 119.98-463.53 151.98-193.97 32.26-468.73-495.26-657.77-452.87-190.51 42.93-138.11 498.19-323.29 551.12-186.37 53.19-1478.71-2163.68-1658.95-2100.62-181.44 63.32-39.73 827.61-214.5 900.4-175.44 73.19 822.28 1790.27 653.9 1872.66-168.77 82.65-2103.95-2029.97-2264.86-1938.51-161.71 91.72 80.65 727.36-72.52 827.48-153.31 100.25 1212.75 1595.9 1068.24 1704.15-144.65 108.38-2449.1-1543.24-2584.28-1427.25-135.31 115.98 1559.24 1566.03 1433.79 1689.22-125.18 122.92 572.05 665.5 457.27 795.22-114.52 129.45-1435.92-460.86-1539.77-325.02-103.45 135.31 305.42 471.13 213.17 612.58-91.85 140.65-811.21 4.13-891.33 150.24-79.72 145.31-931.73 54.93-999.45 205.17-67.06 149.31-609.24 227.83-664.03 381.54-54.53 152.51 2349.65 802.15 2307.92 958.79-41.33 155.04-192.5 222.63-221.03 381.28-28.26 156.78 93.72 256.9 78.65 416.87-15.06 157.98-2478.3-498.06-2480.43-337.55-151.31-10 821.34 217.7 668.7 212.1-151.31-5.73-331.68 2070.36-484.86 2070.36-193.44 0-292.49-117.45-483.53-109.58-193.17 8.13-450.47-1227.68-640.84-1211.55-192.24 15.86-482.33-549.25-671.5-525.26-190.77 24.26-272.49 559.12-460.06 591.25-188.91 32.13-409.41-61.46-594.45-21.46-186.51 40.26-198.5 513.92-380.88 561.78-183.44 48.13 123.05 1063.31-56.12 1118.9-179.97 55.73-830.28-938.53-1005.72-875.34-175.97 63.32-1122.37-1142.1-1293.41-1071.57-171.57 70.79-299.16 312.62-465.53 390.21-166.78 77.86-794.95-335.95-956.12-251.16-161.44 84.79 127.71 805.21-27.86 896.53-155.71 91.45 959.72 1520.04 810.41 1617.76-149.84 97.99 173.44 551.38 30.4 655.37-143.18 103.85-146.24 216.77-282.62 326.62-135.98 109.85-1466.18-760.02-1595.1-644.7-129.18 115.32-1116.63-344.22-1238.35-223.43-121.45 120.52 1705.88 1445.52 1592.3 1571.23-113.45 125.45-2611.48-1087.44-2716.93-957.19-105.45 129.98 2392.84 1558.17 2295.79 1692.82-96.65 134.38-2497.76-768.55-2585.88-629.91-87.85 138.11 25.33-179.71-53.86-37.59-196.77 9.87 250.76 493.39 57.19 512.86-195.57 19.86-506.59-332.75-698.3-303.29-193.57 29.73 76.52 1715.75-112.65 1754.94-190.64 39.46-398.61-158.38-584.45-109.58-187.04 49.33-684.7-657.37-866.54-599.11-182.64 58.66-719.49-477.13-896.53-409.67-177.84 67.72-813.35-437-984.79-360.61-171.84 76.66 360.21 1219.15 194.9 1304.07-165.58 85.32-604.44-107.45-762.82-14.13-158.64 93.32 1042.38 1575.37 891.6 1676.55-151.18 101.18-2377.91-1692.15-2520.69-1583.63-143.05 108.65 957.46 1281.28 823.34 1396.86-134.38 115.58 301.69 607.11 176.51 729.49-124.91 122.12-2514.83-1142.1-2630.14-1013.85-115.32 128.25 2407.11 1736.01 2301.66 1870.12-105.18 133.71-539.79 51.46-634.57 190.64-94.52 138.65-1143.56-129.45-1227.42 14.4-83.45 143.18 492.86 516.32 420.6 664.17-72.12 147.04 261.16 380.34 200.37 531.79-60.26 150.24-2577.35-250.36-2626.14-95.99-48.53 153.18 97.45 428.47 60.66 585.11-36.26 155.18-82.52 389.01-106.92 547.39-24.26 156.51 1604.43 474.86 1592.16 634.31-12.13 157.18 1601.9 309.82 1601.9 469.66 0 163.18-995.32 287.02-982.65 447.67 12.66 162.78-950.13 387.14-924.8 546.99 25.6 161.58 2206.07-4 2243.93 154.38 38.53 159.71-2720.4 808.28-2669.87 964.39 51.06 157.31 257.16 323.69 320.09 476.86 63.46 154.11-349.01 508.72-273.69 658.3 75.46 150.51-434.2 606.18-347.28 751.62 53.46 89.72 698.43-107.98 1211.69-241.56 456.2 633.91 1201.15 1561.77 1101.57 1629.89-148.78 101.72-610.18-205.04-749.62-94.92-139.45 110.12 387.41 605.11 258.09 723.09-129.18 118.12-3252.98-1767.34-3371.5-1642.16-118.52 125.05-227.57 387.41-334.62 519.39-106.65 131.58 2632.68 1668.15 2537.49 1806.13-94.52 137.45 38.66 261.03-43.73 404.34-82.12 142.51-3200.06-756.15-3269.51-608.31-68.79 146.78 2861.04 1115.17 2805.18 1266.88-55.46 150.38-2005.84-131.71-2047.83 23.06-41.59 153.18-17.6 338.35-45.86 495.26-27.6 154.91-560.85 301.16-574.85 459.67-13.6 155.98 638.44 361.95 638.44 520.86 0 164.64-1153.16 407.81-1138.5 569.38 15.2 163.84 350.88 370.61 380.74 530.99 30.26 162.24 1936.38 41.19 1981.17 199.44 45.19 159.71-585.25 433.14-525.79 588.31 59.99 156.38-425.4 475.66-351.68 626.97 74.26 152.11-991.85 780.28-904 926.66 88.12 147.18 1307.81-465 1408.72-324.22-193.17 20.93 324.22 1352.73 135.85 1384.59-190.64 32.26-372.88-222.5-558.32-179.71-186.77 43.19-383.41-122.78-564.45-69.32-182.51 54.13-504.33-263.43-680.43-199.3-177.04 64.26-520.72-165.71-690.96-91.59-170.77 74.66 379.41 1071.44 216.1 1155.3-163.44 84.25-1028.91-722.96-1184.36-629.64-155.71 93.59-1059.04-516.19-1205.95-413.94-146.91 102.12-224.9 357.28-362.35 467.66-137.58 110.12-750.42-39.06-877.87 78.92-127.45 117.98-543.25 173.31-660.04 298.49-116.65 124.91 2831.85 1986.5 2726.4 2118.35-105.18 131.31-3069.41-1136.76-3163.26-999.32-93.05 136.91 648.7 679.23 567.65 821.88-80.79 141.98 87.32 391.14 19.06 538.32-67.86 146.11 547.12 469.53 492.19 620.71-54.66 149.58-777.62 153.04-819.08 307.02-40.93 152.38 1999.57 559.12 1971.97 715.23-27.33 154.11 103.58 209.04 89.72 366.48C3494.2 39705.09.05 39746.01.05 39904.12c0 157.18 2877.44 232.9 2890.9 387.28 13.6 156.64-144.65 250.23-117.58 403.54 27.2 155.31 286.49 195.84 327.15 347.42 40.93 153.04 333.02 156.38 386.88 305.42 54.39 150.24 147.98 178.51 215.17 324.22 67.46 146.51-2268.2 1064.38-2188.21 1205.82 80.39 142.25 886.4 12.13 978.65 148.64 92.65 137.05-1380.86 1086.77-1276.74 1217.69 104.52 131.18 2141.15-778.15 2256.6-653.64 115.72 124.91-738.42 893.2-612.18 1010.92 126.11 117.85 437 149.04 573.11 259.43 136.11 110.25 864.27-281.82 1009.72-179.44 145.58 101.98 271.96 198.24 426.34 291.69 153.98 93.59 16.8 524.86 179.04 609.38 161.71 84.25 607.24-220.63 776.68-145.85 168.64 74.79 989.99-1046.91 1165.83-981.72 174.51 64.52-415.94 1472.85-234.77 1527.51 179.84 54.26-10.27 1116.23 175.44 1160.23 184.11 43.59 592.45-409.67 781.75-376.61 187.17 32.93 666.57-1346.6 858.41-1324.47 189.57 21.86 224.1 873.47 417.54 884.67 190.77 10.8 373.54 1657.75 567.78 1657.75 190.77 0 328.88-2129.42 516.59-2139.82 190.37-10.8 535.65 1180.76 722.16 1159.69 188.51-21.6 167.18-1047.31 351.41-1079.17 186.24-32.13 384.08 71.59 565.12 29.2 182.77-42.53-64.66-981.99 112.38-1034.38 178.51-53.06 720.29 758.55 892.67 696.03 173.17-63.19 768.15 554.18 934.66 482.06 167.31-72.79 6.53-628.31 166.24-709.89 160.51-81.99-597.11-1168.76-444.73-1259.28 152.91-90.79 1046.24 668.3 1190.62 569.38 144.78-99.05 469.8-445.93 605.38-552.85 151.71 93.05-285.96 1428.19-125.18 1511.51 160.24 82.79 1691.08-1761.87 1859.72-1689.62 167.98 72.12-94.39 693.23 81.19 754.42 174.51 60.66-326.88 1591.36-145.45 1640.69 179.84 48.93 682.7-630.31 868.67-592.85 183.71 36.79 485.79-411.81 674.97-386.88 186.77 24.66 297.69 527.92 488.99 540.45 188.51 12 397.41 944.53 589.65 944.53 190.64 0 378.88-1122.23 565.52-1134.1 189.84-12.4 434.6 259.16 619.77 235.17 187.71-24.53 146.64-900.13 329.02-936.39 184.37-36.53 1172.36 2028.1 1350.87 1979.97 179.97-48.39 504.33-157.44 677.63-217.03 174.37-59.99-890.8-2314.46-723.89-2385.38 167.58-71.06-92.52-572.31 66.79-653.64 160.11-81.85 1129.17 885.74 1280.08 794.02 151.04-91.59 189.31-277.43 330.75-378.61 141.71-101.32 1663.62 897.47 1794.67 787.35 131.18-109.98-156.91-640.17-36.93-758.42 119.72-118.12 934.53 72.26 1042.38-53.59 107.58-125.18-2149.01-1502.71-2053.69-1635.09 94.79-131.71-425.14-431.27-343.28-569.52 81.45-137.45 1317-66.52 1384.86-209.7 158.91 16.53 562.72 1100.5 724.56 1109.44 159.58 8.8 380.61-601.11 543.12-601.11 201.3 0 412.61 12.66 610.04 0 200.64-13.2 328.08-447.53 523.66-473.26 198.37-25.86 584.45 669.23 777.35 630.71 194.77-38.93 528.85 146.11 717.36 94.92 190.11-51.59-363.68-1652.02-180.77-1715.35 183.97-63.99 1010.25 1023.05 1186.22 947.86 177.04-75.72 537.65 35.33 705.76-51.19 168.77-86.92-253.7-880.94-94.79-978.12 159.44-97.45-595.78-990.65-447-1097.84 149.04-107.58 238.9-110.25 376.88-227.03s1142.63 473.4 1268.48 348.08c125.85-125.45 555.25 618.84 668.43 485.53 113.32 133.31 235.57-408.87 361.41-283.69 126.11 125.31 761.35-142.91 899.2-26.13 137.85 116.78 179.17 253.83 328.22 361.41 148.91 107.45-1181.02 1734.41-1021.58 1831.73 158.91 97.32 622.44 25.6 791.08 112.52 168.11 86.52 2059.56-2262.46 2236.73-2186.88 175.97 75.32-451.8 1336.6-267.83 1400.59 182.77 63.32 209.17 439.53 399.41 490.99 188.24 51.06 227.83 622.31 422.6 661.1 192.77 38.53 402.21 315.55 600.58 341.55 195.7 25.6 612.31-1300.07 812.81-1287.14 197.44 12.8 347.55 897.6 548.99 897.6 195.84-.13 448.73 231.03 640.44 219.03 195.04-12.26 607.11 786.28 797.61 762.29 192.77-24.66 102.25-1496.18 289.82-1532.44 189.84-36.93 67.59-847.34 251.3-895.47 185.44-48.79 1199.82 1689.88 1378.46 1629.89 179.71-60.26 578.45 35.99 750.69-35.06 173.31-71.59 258.23-458.47 423.27-540.45 165.71-82.52 477.13-137.98 633.91-230.23 157.04-92.52-1408.59-1951.31-1261.28-2053.3 147.58-102.12 1199.02 468.6 1336.33 357.55 139.45 111.18 840.41-132.78 989.99-30.66 149.44 101.98-180.64 652.44-21.6 744.96 158.64 92.39 755.49-413.54 922.8-331.28 167.04 81.99-434.87 1261.15-259.96 1332.6 173.97 71.19 86.12 759.75 267.69 820.01 179.97 59.99 1422.59-2258.73 1609.49-2210.21 185.31 48.26 120.52 483.26 311.82 520.06 189.17 36.39-80.79 1980.37 113.72 2004.9 191.97 24.26 463.93 235.3 660.3 247.43 193.57 12.13 500.73-7.2 698.03-7.2 195.7 0 496.33-28.8 688.43-40.66 195.3-12.13 403.94-520.32 594.58-544.19 193.17-24.26 56.26-1398.86 244.23-1434.59 189.97-36.13 1067.71 1857.72 1251.68 1810 185.84-47.86-675.63-2442.04-496.33-2501.1 180.37-59.46 1654.82 2179.81 1828.13 2109.69 173.97-70.66-516.46-889.6-350.35-970.66 112.78 130.78-28.66 57.32 94.39 181.31 123.18 123.98 86.39 405.01 219.97 521.79 133.45 116.92 1154.9-467.26 1297.81-358.21 143.05 109.18-806.55 1252.08-654.84 1353.27 151.98 100.92 293.69 328.35 453.93 420.87 159.71 92.25 205.97 477.13 373.94 560.58 6.13 3.07 12.13 7.07 18.13 10.93l-32.66 718.96-1121.03 24704.06-13.73 300.89c-37.73 45.59-71.59 95.72-99.99 150.51l-1215.82 2344.85-867.2-1677.48c-144.11-278.76-422.34-442.33-715.09-454.07-66.92-17.86-137.05-28.4-209.84-28.4H46992.8c-72.79 0-143.18 10.53-210.24 28.4-292.36 12-570.45 175.57-714.43 454.07h-.27l-867.34 1677.62-1215.55-2345.12c-82.79-159.58-209.7-281.02-357.81-358.35l-14.4-235.7-1285.54-21164.06c1153.83-604.84 2478.03-1262.61 3904.22-1906.25 2463.37-1116.9 5240.55-2182.08 7940.42-2865.57-4.93-4.4-10.53-9.6-14.13-12.13-250.1-166.78-252.1-372.88-130.91-640.57l-22.13 9.33-131.98 1.6c-289.16 0-453-114.12-863.34-627.24 10 39.99 18.93 78.52 27.2 115.58 67.19 299.96 169.04 753.22-328.75 881.47l-76.79 20.13-87.99.8c-373.28 0-547.25-216.63-908-832.68-49.99 203.7-145.85 347.15-341.15 415.27-27.46 32.13-61.46 77.06-86.92 110.38-153.31 201.04-344.35 451.53-707.89 473.8-55.99 3.47-120.92 8.4-189.97 13.46-176.77 13.46-377.54 28.66-538.32 28.66-66.26 0-145.98 2.4-229.03 4.67-104.38 3.07-213.57 6.27-312.62 6.27-70.79 0-137.71-1.47-195.97-5.47-226.63-13.73-413.41-105.58-578.45-187.04-45.73-22.53-113.18-55.86-145.71-67.59-2.27-.27-4.27-1.07-6.53-1.47-3626.66 1420.72-6896.31 3128.2-9018.53 4321.09 860.01-1660.29 1861.59-3267.65 2919.57-4775.29-198.1-138.65-394.34-412.07-727.09-880.54-24 37.86-52.13 73.46-86.12 105.05-21.2 125.98-36.53 356.48-47.06 519.26-45.86 685.36-73.06 1098.77-585.78 1164.49l-40.66 5.2-49.33.67c-383.94 0-591.38-267.69-831.74-577.51-46.13-59.72-113.45-146.38-164.24-204.9-29.2-6.13-56.79-14.26-84.25-22.53-1325.27 2017.3-2534.96 4193.78-3452.69 6464.77 306.22-2345.12 774.15-4458.94 1348.6-6357.32-107.45-55.46-197.84-123.71-277.16-184.51-31.33-23.6-76.66-58.12-103.72-75.59-347.42-92.12-458.47-389.28-540.85-608.44-13.6-36.26-31.6-84.25-47.73-121.32-198.37-112.25-286.76-292.76-349.95-421-9.33-18.66-20.93-42.93-31.46-63.32-124.11-69.06-189.44-163.44-215.3-278.09-45.86 50.26-88.52 97.05-130.65 143.05-171.31 513.66-334.88 1042.65-490.33 1586.83-48.93-311.29-98.39-616.58-148.24-916.8-289.42 275.16-438.33 338.88-652.57 338.88h-151.44l-93.19-45.86c-42.53-4.13-118.12-6.8-171.04-8.67-228.5-7.2-487.53-15.33-699.63-145.31-393.27-240.5-154.91-640.7-40.26-833.08 106.78-179.31 260.49-405.01 409.01-623.37 127.58-187.44 303.15-445.93 399.41-610.04-13.2-16.4-25.46-32.53-37.06-47.73-18 3.47-35.99 6.67-51.59 9.73-120.25 23.2-244.23 47.19-368.75 54.39-95.85 131.85-250.36 273.29-526.32 273.29-28.53 0-56.79-2.13-84.65-5.2-325.15-5.07-507.92-210.24-701.1-427-15.6-17.46-34.93-38.53-54.39-60.26-170.37-14.26-349.55-76.39-587.91-172.11 160.38 814.55 319.15 1683.35 474.33 2608.81-105.58-100.52-211.97-200.5-319.82-299.16-92.92-84.79-189.04-167.18-283.56-250.63-168.24 78.39-341.15 88.39-459.13 88.39-61.46 0-125.85-3.07-190.64-6.53-40.93-2.27-81.45-5.2-119.32-5.2h-1.6c-65.72 21.2-136.51 32.13-207.3 32.13-177.17 0-322.22-57.32-473.53-166.38 93.05 503.26 68.52 795.35-347.15 908-76.66 20.66-156.91 30.93-240.76 30.93-69.32 0-135.58-8-199.44-18.53 441.67 354.35 866.8 719.49 1268.61 1095.17 831.48 775.35 1560.03 1592.03 2149.68 2438.84 410.47 3085.14 770.69 6662.61 1032.78 10791.6-554.85-1050.38-1212.62-2199.94-1979.97-3392.7-1938.78-3007.15-4574.25-6301.46-8012.28-8899.08-70.26 24.53-145.58 38.66-224.5 38.66-260.63 0-468.46-128.91-779.48-367.28 68.92 221.57 212.77 594.84 316.62 863.87 111.85 290.89 227.7 591.25 304.09 822.14 91.85 278.49 227.3 693.76-191.3 868.8 2841.44 2310.19 5107.77 5152.43 6816.59 7811.91 1402.06 2177.94 2428.97 4221.64 3101.94 5714.35 336.48 746.16 584.58 1354.73 747.49 1773.34 81.59 209.57 141.58 371.28 180.77 479.4 1.2 3.07 1.87 5.07 2.93 8.13 105.05 2895.97 163.44 6017.77 163.18 9381.01 0 1848.79-17.86 3771.17-55.06 5768.08-438.07 4186.44-1497.51 9413.27-4011.67 12957.41-688.43 88.12-1371.53 192.5-2082.36 313.02-4282.43 725.89-6665.68 876.94-10770.4 2139.95-416.6 1192.89 4261.9 1473.51 17155.59 1473.51 5208.69 0 20278.05-105.05 20207.8-947.33-56.26-675.9-6712.2-2397.91-13770.75-3051.01-2756.92-3905.42-3567.47-9855.07-3759.31-14190.03 22.26-1531.64 33.06-3019.55 33.06-4463.6-.13-248.9-.53-496.06-1.07-742.29l18.13-277.96s-7.47 89.32-18.26 256.63c-16.53-6094.56-223.3-11406.84-552.32-16022.55 201.97-1526.97 621.24-3067.81 1197.82-4590.12l51.06 80.52v-.4c.13 0 44.39-28 137.85-86.12 413.94-257.03 1736.68-1063.18 3611.2-2068.63l1262.75 20788.91 13.2 216.63c-27.86 10.8-55.59 23.2-82.79 37.33-412.87 213.7-574.05 722.16-359.95 1135.03l582.18 1122.77 31.46 517.66 426.6 7023.36h-889.33c-232.5 0-421 188.51-421 421v1333.27c0 232.5 188.51 421 421 421h1972.11c-62.92-449.67-95.85-868.94-97.32-1260.75.27-325.02 22.66-628.84 66.52-914.53h-359.95l-334.75-5511.18-31.6-518.19 598.58 1154.36c144.51 279.03 433.54 454.73 748.02 454.6 314.22 0 602.98-176.37 747.62-455.53l229.43-443.93v2995.82c-383.68 263.03-734.42 628.17-975.72 1080.24-334.35 617.51-477.13 1340.2-477.4 2157.28 5.33 1382.33 389.14 3099.14 1244.35 5470.12 239.3 660.57 968.79 1001.72 1629.36 762.42 660.84-239.16 1002.12-968.79 762.69-1629.49-806.68-2214.07-1097.17-3721.05-1091.7-4603.05-.53-465.8 74.39-743.62 142.51-890.67 52.66-111.98 95.72-160.24 149.04-207.84 77.59-66.92 216.9-141.58 473.53-195.44 96.65-20.53 207.57-36.66 329.42-48.39h1319c87.19 8.53 169.17 18.93 243.83 32 182.77 30.93 322.22 75.19 416.74 120.78 142.65 74.66 189.04 114.92 267.83 247.96 73.99 133.98 168.37 416.2 168.11 941.59 5.33 882-285.02 2389.38-1091.7 4603.05-239.3 660.7 102.12 1390.33 762.69 1629.49 143.18 51.86 289.56 76.52 433.54 76.52 520.46 0 1008.52-321.55 1196.09-838.94v-.13c855.07-2370.58 1238.62-4087.26 1243.95-5469.99-.4-727.63-112.52-1376.33-372.88-1948.24-193.84-427.4-477-801.35-809.75-1084.24-87.99-74.92-178.77-141.31-270.63-203.7v-2997.29l229.57 444.07c144.11 279.29 433.27 455.27 747.36 455.27h.8c314.22 0 602.58-175.57 747.22-454.33l389.94-752.15-22.66 500.86-232.63 5126.31h-262.89c43.86 285.29 66.92 588.18 67.19 913.33-1.47 392.48-34.26 812.01-97.19 1261.95h2042.1c232.5 0 421-188.51 421-421v-1333.27c0-232.5-188.51-421-421-421h-1056.38l299.02-6590.09 22.66-501.13 815.48-1572.7c213.83-412.74 52.66-920.8-359.68-1134.76-105.58-54.79-217.3-84.65-328.75-92.52l9.47-208.9 1102.77-24301.72 21.33-468.2c280.23-144.65 699.23-471 832.54-423.67zM10808.13 24532.09c66.39-5.87 111.58-1.47 125.45 18.26-28.93 14.53-72.92 5.2-125.45-18.26zm47642.66-2232.87c-113.05 82.25-191.97 129.05-221.3 123.85 3.47-22.66 85.59-66.12 221.3-123.85z"/><path d="M49586.5 69952.28c1330.07-309.55 2157.01-1638.69 1847.46-2968.36-309.82-1329.94-1638.96-2156.88-2968.76-1847.19-1329.54 309.55-2156.61 1638.56-1847.06 2968.36 309.69 1329.8 1638.82 2156.88 2968.36 1847.19zM73447.22 13892.87c247.16 0 447.4-94.25 447.4-210.5s-200.24-210.5-447.4-210.5c-247.03 0-447.27 94.25-447.27 210.5.13 116.25 200.24 210.5 447.27 210.5z"/></g></svg>