<svg xmlns="http://www.w3.org/2000/svg" xml:space="preserve" viewBox="0 0 103.41 205.33" shape-rendering="geometricPrecision" text-rendering="geometricPrecision" image-rendering="optimizeQuality" fill-rule="evenodd" clip-rule="evenodd"><g fill="currentColor"><path d="M19.16 157.5c-2.1 12.95-3.49 25.89-4.14 38.55-.25 4.87 3.49 9.02 8.36 9.27.15.01.31.01.46.01 4.66 0 8.56-3.66 8.8-8.37.62-12 1.94-24.28 3.93-36.59-1.02.17-2.19.27-3.55.27-3.8 0-9.76-.88-13.87-3.14zM61 160.64c-1.36 0-2.53-.1-3.55-.27 1.99 12.31 3.31 24.59 3.93 36.59.24 4.71 4.14 8.37 8.8 8.37.15 0 .31 0 .46-.01 4.87-.25 8.61-4.4 8.36-9.27-.65-12.65-2.05-25.59-4.14-38.55-4.11 2.26-10.06 3.14-13.87 3.14z"/><path d="M21.83 60.27c1.39.36 2.78.67 4.12.96-1.43 13.07-1.86 35.11-1.96 42.11 2.62 1.3 11.72 5.37 23.02 5.37 11.3 0 20.39-4.07 23.02-5.37-.1-6.86-.52-28.14-1.87-41.29 3.36 2.72 10.9 13.16 16.88 52.95-3.28 2.12-5.47 5.81-5.47 10.01 0 1.69 1.37 3.05 3.06 3.05s3.06-1.37 3.06-3.05c0-1.49.57-2.85 1.5-3.88 1.01.94 2.34 1.51 3.79 1.51.26 0 .53-.02.8-.06 1.43-.21 2.65-.94 3.5-1.98a5.83 5.83 0 0 1 2.03 4.4v76.58a3.06 3.06 0 1 0 6.12 0V125c0-4.93-2.99-9.15-7.25-10.97-6.01-40.48-14.61-60.77-27.04-63.77-2.6-.63-5.03-.4-7.2.29-3.59 5.35-8.92 9.3-14.91 9.3-5.77 0-10.94-3.67-14.51-8.73-2.17-.39-4.6-.87-7.06-1.47-11.51-2.82-13.89-5.67-14.25-6.22.25-.68 2.24-4.54 16.62-11.1 1.18-6.01 5.13-11.03 10.46-13.7a5.55 5.55 0 0 0-5.18-.6C8.73 27.54-1.13 35.58.13 44.91c.93 6.91 7.84 11.78 21.73 15.32z"/><path d="M47.01 111.51c-10.63 0-19.23-3.32-23.04-5.07.02 1.16.07 2.99.17 5.13.11 2.26.29 4.88.56 7.43-1.73 6.11-4.63 17.29-7.25 31.92-1.13 6.31 21.85 9.71 22.86 4.09 1.82-10.18 3.78-18.55 5.32-24.45h2.77c1.53 5.9 3.5 14.27 5.32 24.45 1 5.62 23.99 2.22 22.86-4.09-2.62-14.62-5.52-25.8-7.25-31.92.27-2.55.45-5.17.56-7.43.11-2.14.15-3.97.17-5.13-3.81 1.76-12.41 5.07-23.04 5.07zM29.48 36.16c0 9.68 7.85 21.69 17.53 21.69 9.68 0 17.53-12 17.53-21.69 0-9.68-7.85-17.53-17.53-17.53-9.68 0-17.53 7.85-17.53 17.53zm22.82-2.83c1.88 0 3.41 1.52 3.41 3.41 0 1.88-1.53 3.41-3.41 3.41-1.88 0-3.41-1.52-3.41-3.41 0-1.88 1.52-3.41 3.41-3.41zm-6.81 3.91a4.22 4.22 0 1 1-8.442-.002 4.22 4.22 0 0 1 8.442.002zM69.61 21.84c.36 0 .81-.17 1.35-.52.54-.34.86-.84.95-1.48l.15-.9c0-.22-.25-.5-.74-.81-.5-.32-.91-.48-1.24-.48-.5 0-.98.29-1.41.87-.44.58-.66 1.1-.66 1.54 0 1.18.53 1.78 1.6 1.78zM71.67 15.15c.31-.52.47-1.13.49-1.82.02-.91.23-2.13.64-3.65.39-1.47.78-3.07 1.17-4.81.39-1.74.59-2.75.59-3.02 0-.34-.18-.65-.53-.94-.35-.29-.73-.43-1.11-.43-.36 0-.8.18-1.31.55-.51.37-.82.91-.92 1.61-.1.7-.15 1.11-.15 1.22 0 1.08-.24 2.7-.71 4.86-.43 2-.56 3.94-.41 5.84.53.4 1.29.6 2.26.6zM80.92 5.49c1.37 0 2.12-.43 2.24-1.3.05-.25.26-.51.63-.77s1.08-.39 2.13-.39c.36 0 .72.06 1.08.17.36.12.6.25.73.39s.26.49.41 1.05c.15.56.23 1.01.23 1.34 0 .47-.12.94-.35 1.41-.23.48-.52.79-.86.93l-1.97.77c-1.24.49-2.08.84-2.53 1.08-.44.23-.93.57-1.46 1.02-.59 1.2-.96 2-1.1 2.39-.14.39-.21.82-.21 1.27 0 .43.08.84.23 1.23.16.39.37.59.64.59.83 0 1.43-.12 1.78-.36.35-.24.57-.62.67-1.12.19-.95.42-1.77.68-2.45 2.44-.84 4.04-1.45 4.82-1.81.78-.36 1.46-1 2.04-1.92.58-.92.87-2.1.87-3.54v-.01c-.02-1.31-.17-2.27-.47-2.88-.29-.61-.97-1.27-2.02-1.98-.64-.45-1.5-.65-2.59-.6-.56.02-1.13.03-1.69.04-.81.02-1.57.25-2.3.7h.01c-.86.47-1.58 1.03-2.15 1.7-.57.67-.85 1.25-.85 1.77 0 .85.45 1.28 1.34 1.28zM80.23 22.77c.58 0 1.21-.22 1.88-.65.67-.43 1.01-.95 1.01-1.55 0-.77-.44-1.18-1.33-1.24-.48-.33-.87-.5-1.18-.5-.45 0-.8.1-1.05.31-.09.08-.2.16-.35.26-.78.53-1.17 1.02-1.17 1.47 0 .54.21 1 .63 1.35.42.36.93.54 1.54.54zM38.32 11.25c-2.73.18-4.52 2.26-4.59 2.35-.33.39-.28.97.11 1.31.17.15.39.22.6.22.26 0 .52-.11.71-.33.01-.02 1.37-1.58 3.31-1.7 1.24-.08 2.49.46 3.72 1.59.38.35.97.32 1.31-.06.35-.38.32-.97-.06-1.31-1.62-1.49-3.34-2.19-5.11-2.07z"/><path d="M33.01 10.91c.02-.02 2.31-2.4 5.5-2.45 2.07-.04 4.13.93 6.09 2.87.18.18.42.27.65.27a.9.9 0 0 0 .66-.28.92.92 0 0 0-.01-1.31c-2.33-2.31-4.83-3.46-7.45-3.41-3.98.07-6.69 2.92-6.8 3.04a.93.93 0 0 0 .04 1.31c.37.35.96.33 1.31-.04z"/></g></svg>