<svg xmlns="http://www.w3.org/2000/svg" xml:space="preserve" viewBox="0 0 1683.69 1595.51" shape-rendering="geometricPrecision" text-rendering="geometricPrecision" image-rendering="optimizeQuality" fill-rule="evenodd" clip-rule="evenodd"><g fill="currentColor"><path d="M514.21 495.74c71.03 0 128.61-57.57 128.61-128.61.01-71.03-57.59-128.62-128.61-128.62-71.03 0-128.62 57.59-128.62 128.62.01 71.04 57.59 128.61 128.62 128.61z"/><path d="M1597.94 105.88V11.43c0-6.31-5.12-11.43-11.43-11.43h-59.07c-6.31 0-11.43 5.12-11.43 11.43v94.45c-49.87 17.04-85.75 64.27-85.76 119.91.02 56.12 36.52 103.7 87.08 120.34.74 8.94 1.12 17.54 1.12 25.73-.07 47.28-11.38 82.6-27.76 110.77-24.51 42.06-62.39 68.76-95.14 84.82-16.29 7.99-31.08 13.24-41.52 16.4-1.51.46-2.9.86-4.22 1.24-19.43-6.28-56.06-14.97-110.23-14.97-68.01 0-108.44 13.71-121.75 19.12-1.29.24-2.57.55-3.86.94-1.52.52-29.78 8.96-60.45 26.49-15.35 8.87-31.51 19.94-45.43 35.35-13.7 15.12-25.98 36.57-25.99 62.78-.05 14.79 4.11 29.92 11.6 43.68.05.09.09.19.14.28 11.48 20.86 29.58 39.15 54.9 57.33 25.43 18.14 58.49 36.2 101.74 54.99 4.81 2.09 9.84 3.09 14.78 3.09 14.35 0 28.01-8.37 34.1-22.37 8.18-18.82-.46-40.7-19.28-48.87-53.22-23.03-86.64-44.09-104.5-60.33-8.99-8.07-14-14.79-16.46-19.35-.5-.94-.84-1.71-1.18-2.46-1.31-3-1.5-4.74-1.54-5.98-.01-2.29.9-6.22 6.98-13.13 4.99-5.78 13.26-12.02 22.42-17.7a5119.49 5119.49 0 0 1-12.29 40.08c2.2 2.7 5.3 6.07 9.7 10.03 11.37 10.33 39.58 31.6 101.41 58.35 11.91 5.17 21.08 14.66 25.85 26.74 4.77 12.07 4.54 25.27-.63 37.18a48.6 48.6 0 0 1-44.58 29.24c-6.69 0-13.2-1.35-19.35-4.03-43.2-18.78-77.17-37.14-103.81-56.16-.53-.38-1-.76-1.52-1.13-10.03 28.55-19.92 54.53-28.78 74.15-19.25 42.62-52.59 65.81-82.03 78.43.59-11.99-3.49-24.19-12.39-33.61C857.35 879.9 795.2 782.1 749.6 701.12a2510.68 2510.68 0 0 1-55.08-103.16c-6.59-13.1-11.74-23.64-15.23-30.86-3.49-7.22-5.21-10.93-5.22-10.94-7.25-15.56-22.12-25.09-38.09-26.29-3.62-.96-7.42-1.53-11.35-1.53H403.78c-3.16 0-6.24.35-9.21.98-18.23-1.34-58.54-6.75-98.11-27.11-25.8-13.18-51.3-32.09-72.62-60.28-18.68-24.84-34.57-57.12-43.74-101.2 43.3-20.15 73.32-64.01 73.33-114.91-.01-55.65-35.87-102.87-85.74-119.91V11.45c0-6.31-5.12-11.43-11.43-11.43H97.19c-6.31 0-11.43 5.12-11.43 11.43v94.45C35.89 122.94.01 170.17 0 225.82c.02 56.56 37.09 104.45 88.25 120.75 10.95 62.02 33.5 112.05 62.62 150.49 46.35 61.33 106.95 92.4 156.08 107.83a367.33 367.33 0 0 0 52.64 12.35V1523.65c0 39.04 31.65 70.67 70.67 70.67 39.03 0 70.68-31.63 70.68-70.67l.01-516.02h26.49v516.02c0 39.04 31.65 70.67 70.67 70.67 39.03 0 70.68-31.63 70.68-70.67l.01-560.19V744.03c.39.69.76 1.37 1.15 2.06 47.76 84.32 111.37 186.11 180.91 259.96 9 9.52 21.11 14.33 33.26 14.33 10.08 0 20.17-3.34 28.51-10.01l193.93 86c4.97 22.37 8.87 50.86 8.88 85.54-.07 78-19.53 187.81-94.14 329.67-14.71 27.94-3.99 62.52 23.95 77.22 8.49 4.47 17.6 6.59 26.57 6.59 20.55 0 40.4-11.1 50.65-30.55 82.27-156.12 107.37-285.46 107.3-382.94.01-10.85-.33-21.26-.89-31.29l29.09 12.9c6.05 31.3 10.44 69.91 10.47 116.19 0 65.5-8.83 146.5-34.61 244.05-8.07 30.52 10.13 61.8 40.65 69.87 4.9 1.3 9.82 1.92 14.65 1.92 25.32-.01 48.45-16.94 55.23-42.57 28.14-106.45 38.4-197.46 38.4-273.27.02-21.93-.85-42.53-2.38-61.89l97.35 43.17-100.94-606.35c22.71-6.95 58.25-20.59 94.87-45.86 29.73-20.62 60.17-49.3 83.15-88.58 23.02-39.2 38-88.83 37.94-148.29-.01-7.93-.28-16.04-.82-24.31 52.97-15.18 91.73-63.93 91.74-121.77-.01-55.64-35.89-102.86-85.75-119.91zM28.6 225.79c.07-39.97 23.96-74.24 58.23-89.55 1.82 3.93 5.76 6.67 10.37 6.67l59.07-.01c4.61 0 8.55-2.74 10.36-6.66 34.26 15.31 58.15 49.59 58.23 89.55-.07 37.06-20.61 69.26-50.92 85.96-7.68-19.31-27.85-31.53-49.28-28.27-18.12 2.74-32.09 15.78-36.97 32.27-34.72-15.12-59-49.65-59.07-89.95zm1560.03 92.77c-4.89-17.31-21.75-28.99-40.17-26.77-14.3 1.72-25.7 11.38-30.37 24.03-34.82-15.08-59.18-49.66-59.24-90.03.06-39.98 23.97-74.24 58.24-89.55 1.81 3.93 5.75 6.67 10.36 6.67l59.07-.01c4.6 0 8.55-2.74 10.36-6.65 34.26 15.3 58.15 49.58 58.23 89.54-.08 43.1-27.87 79.55-66.47 92.77z"/><path d="m884.86 298.8 108.13 38.31-59.97 63.03a8.545 8.545 0 0 0-1.51 9.64c1.43 2.99 4.45 4.84 7.72 4.84.26 0 .51-.01.77-.04l88.64-8.07c4.71-.43 8.19-4.6 7.75-9.31-.43-4.72-4.6-8.19-9.31-7.76h-.01l-65.95 5.99 53.39-56.09a8.627 8.627 0 0 0 2.13-7.91 8.67 8.67 0 0 0-5.49-6.09l-95.87-33.96 94.34-28.32a8.552 8.552 0 0 0 5.68-5.54c.88-2.68.39-5.6-1.3-7.84l-54.07-71.61 95.28 21.97a8.57 8.57 0 0 0 7.91-2.2c2.09-2.05 3-4.99 2.42-7.85l-16.89-83.27 81.85 70.68c1.99 1.71 4.69 2.44 7.27 1.92 2.6-.51 4.8-2.2 5.99-4.55l28.59-56.77 18.89 59.52c1.43 4.52 6.25 7.02 10.76 5.59 4.52-1.43 7.02-6.26 5.59-10.77l-25.26-79.58a8.55 8.55 0 0 0-7.49-5.95 8.57 8.57 0 0 0-8.35 4.69l-33.1 65.74-92.53-79.89a8.552 8.552 0 0 0-9.93-.91 8.55 8.55 0 0 0-4.08 9.11l19.22 94.79-105.27-24.28c-3.52-.81-7.17.66-9.12 3.68a8.578 8.578 0 0 0 .35 9.83l60.85 80.6-107.65 32.3a8.564 8.564 0 0 0-6.11 8.01 8.586 8.586 0 0 0 5.71 8.29zM1210.77 537.38c66.09 15.39 132.13-25.7 147.52-91.8 15.39-66.09-25.72-132.15-91.8-147.53-66.09-15.39-132.15 25.71-147.54 91.8-15.39 66.09 25.71 132.15 91.81 147.53z"/></g></svg>