<svg xmlns="http://www.w3.org/2000/svg" xml:space="preserve" viewBox="0 0 55339.65 25104.58" shape-rendering="geometricPrecision" text-rendering="geometricPrecision" image-rendering="optimizeQuality" fill-rule="evenodd" clip-rule="evenodd"><g fill="currentColor"><path d="m48159.75 1879.27-353.09 1380.16 978.92 497.41 1251.74-328.95 312.87-1396.07-1275.78-698.13zM29836.14 56.57c-79.54-5.81-148.79 53.98-154.6 133.51-5.81 79.45 53.89 148.7 133.42 154.51 158 11.62 316.71 25.02 476.5 40.39 4.65.36 9.29.63 13.94.63 73.46 0 136.46-56.03 143.7-130.65 7.51-79.45-50.76-150.04-130.03-157.55-161.93-15.46-322.79-29.13-482.93-40.84zM28383.41.09c-79.89-.45-144.77 63.99-144.95 143.79-.45 79.71 63.9 144.59 143.61 144.95 158.36.8 317.69 3.49 478.11 7.86h4.02c77.93 0 142.18-62.11 144.33-140.39 2.23-79.89-60.77-146.2-140.39-148.35-162.56-4.47-324.13-7.06-484.72-7.86zM31281.45 211.8c-78.91-11.17-152.19 43.79-163.36 122.79-11.17 78.91 43.7 152.01 122.79 163.18 156.84 22.43 314.39 46.56 472.57 72.56 7.95 1.25 15.82 1.88 23.68 1.88 69.35 0 130.65-50.22 142.45-120.91 12.96-78.73-40.3-152.99-119.03-166.04-160.5-26.36-320.11-50.85-479.09-73.46zM35865.45 1680.88c16.53 6.26 33.6 9.12 50.4 9.2 58.53 0 113.58-36.01 135.3-94.1 27.79-74.89-10.37-157.91-85.08-185.7-152.37-56.75-304.2-111.44-455.59-164.34-75.42-26.18-157.73 13.58-183.91 88.83-26.36 75.25 13.4 157.82 88.65 184 149.69 52.1 299.64 106.26 450.22 162.11zM26948.73 331.01h-.18c158.18-10.01 317.25-18.32 477.48-24.75 79.62-3.4 141.73-70.51 138.34-150.13-3.13-79.71-70.42-141.82-150.13-138.43-162.38 6.61-323.77 14.92-483.91 25.2-79.62 4.92-140.04 73.64-135.03 153.08 4.83 76.59 68.54 135.39 144.24 135.39 3.04-.09 6.08-.18 9.2-.36zM37253.21 2233.78c55.5 0 108.4-32.17 132.17-86.15 32.26-72.92-.71-158.18-73.64-190.35-148.79-65.68-296.96-129.4-444.95-191.15-73.73-30.92-158.18 3.84-189.01 77.48-30.74 73.55 4.02 158.18 77.57 189.01 146.2 61.04 292.76 123.95 439.77 188.92a143.756 143.756 0 0 0 58.09 12.24zM32712.99 464.08c-78.11-16.35-154.78 33.51-171.14 111.62-16.35 78.11 33.51 154.51 111.62 171.14 154.78 32.53 310.55 67.11 466.67 103.66 11.17 2.59 22.25 3.84 33.15 3.84 65.5 0 124.84-44.86 140.39-111.53 18.23-77.66-30.12-155.32-107.77-173.46-158.18-37-316-72.12-472.92-105.27zM34505.76 1222.34c13.94 4.2 27.97 6.17 41.73 6.17 62.02 0 119.3-40.21 138.43-102.59 22.97-76.32-20.2-157.02-96.43-180.16-155.59-46.92-310.63-92.31-465.15-135.39-76.85-21.63-156.57 23.15-177.93 100.09-21.63 76.85 23.32 156.48 100 178.11 152.64 42.54 305.81 87.22 459.34 133.78zM40515.77 3778.29c22.07 12.24 46.02 18.05 69.71 18.05 50.94-.09 100.27-26.81 126.72-74.44 53.89-96.96 135.66-237.44 244.41-404.2 43.52-66.67 24.66-156.3-42.09-199.91-66.85-43.52-156.39-24.75-199.91 42.18-113.05 173.37-198.3 319.48-255.05 421.98-38.7 69.71-13.58 157.55 56.21 196.34zM41412.65 2611.35c40.84 0 81.32-17.07 110.01-50.49 98.48-115.1 204.92-231.73 318.95-346.92 56.03-57.02 55.5-148.26-1.25-204.29-56.66-56.12-148.17-55.76-204.11.98-119.39 120.82-230.47 242.45-333.15 362.47-51.83 60.5-44.86 151.74 15.82 203.75 27.17 23.15 60.59 34.58 93.74 34.5zM42469.84 1630.39c29.04 0 58.27-8.67 83.65-26.81 125.29-89.45 256.21-173.73 393.03-251.21 69.35-39.5 93.48-127.61 54.16-197.14-39.32-69.26-127.61-93.66-196.87-54.07-145.84 82.84-285.17 172.48-418.05 267.2-64.88 46.29-79.98 136.55-33.78 201.52 28.24 39.5 72.74 60.5 117.87 60.5zM39337.04 3288.21h-.27c138.61 76.85 277.48 155.59 416.62 236.01 22.79 13.14 47.72 19.39 72.21 19.39 49.96 0 98.3-25.74 125.11-71.85 39.95-69.17 16.44-157.64-52.73-197.32-140.39-81.59-280.79-161.04-420.82-238.7-69.71-38.96-157.55-13.85-196.25 55.94-38.96 69.62-13.76 157.73 56.12 196.51zM15001.54 4750.5c.36-.27 127.26-105.9 377.03-288.38 64.34-47.19 78.46-137.62 31.37-201.97-47.1-64.34-137.35-78.46-201.88-31.37-255.05 186.6-389.01 297.86-391.24 299.55-61.3 50.94-69.71 142.09-18.59 203.4 28.51 34.41 69.71 52.19 111.08 52.19 32.53 0 65.24-10.99 92.23-33.42zM44208.98 609.65c-168.1 24.31-331.19 59.43-489.01 104.2-76.59 21.54-121.18 101.52-99.55 178.37 18.05 63.63 75.87 105.09 138.96 105.09 12.96 0 26.27-1.79 39.32-5.45h.18c145.67-41.29 296.16-73.91 451.12-96.25 78.91-11.44 133.96-84.63 122.43-163.54-11.35-79.18-84.63-133.87-163.45-122.43zM46628.47 1021.27c-72.3-33.96-158.18-2.86-192.14 69.44-33.69 72.3-2.77 158.18 69.53 192.14h.18c136.37 63.63 275.42 135.84 416.71 216.53 22.61 12.78 47.27 18.86 71.49 18.86 50.13 0 98.84-26.09 125.56-72.83 39.5-69.44 15.28-157.55-53.98-197.05-147.81-84.27-293.57-159.79-437.36-227.08zM45205.95 599.46c-79.27-9.65-151.21 46.74-160.59 126.01-9.56 79.09 46.74 151.21 126.01 160.77h.18c148.44 17.78 300.63 45.13 456.39 83.11 11.35 2.68 22.88 4.11 34.14 4.11 65.06-.09 124.22-44.33 140.21-110.37 18.77-77.48-28.6-155.59-106.08-174.53-166.67-40.57-330.3-69.97-490.26-89.1zM38189.85 2364.7c-71.67-34.94-158.18-5.18-193.12 66.49-34.94 71.67-5.18 158.18 66.67 193.21 142.45 69.44 285.17 140.48 428.42 213.41 21.09 10.72 43.43 15.91 65.5 15.91 52.55-.09 103.22-28.87 128.78-78.73 36.19-71.14 8.04-158.27-63.09-194.37-144.77-73.91-289.19-145.84-433.16-215.91zM20432.73 1766.13c74.44-28.51 111.8-112.06 83.2-186.51-28.33-74.71-111.8-111.8-186.42-83.47-152.99 58.53-303.22 117.78-450.85 177.57-73.91 29.94-109.38 114.21-79.45 188.11 22.7 56.03 76.85 90.08 133.87 90.08 18.14 0 36.46-3.4 54.24-10.63v.27a22728.405 22728.405 0 0 1 445.4-175.42zM16571.69 3664.79c67.92-41.73 89.01-130.74 47.1-198.66-41.64-67.92-130.56-89.1-198.48-47.19-146.38 90.08-283.2 176.77-410.63 259.25-66.85 43.34-85.79 132.8-42.54 199.73 27.7 42.63 74.08 65.86 121.36 65.86 26.9 0 54.07-7.51 78.37-23.32v.18c125.47-81.5 260.41-166.93 404.83-255.85zM17327.54 3199.38c23.77 0 47.9-5.9 70.15-18.23 135.21-75.34 275.34-151.56 420.82-228.69 70.51-37.35 97.23-124.84 59.87-195.35-37.35-70.42-124.84-97.23-195.26-59.87-147.01 78.02-289.19 155.41-426.01 231.46-69.71 38.78-94.73 126.81-55.76 196.51 26.45 47.45 75.51 74.17 126.18 74.17zM21702.62 1019.66c-155.67 48.7-309.29 98.66-460.68 149.33-75.69 25.38-116.44 107.24-91.06 183.02 20.2 60.23 76.59 98.39 136.91 98.39 15.28-.09 30.74-2.41 46.02-7.6 149.42-50.04 301.16-99.2 455.14-147.36 76.14-23.95 118.68-104.83 94.82-180.97-23.86-76.32-104.83-118.59-181.14-94.82zM25964.73 125.92c-161.84 17.52-322.16 36.82-481.14 57.73-79.27 10.1-134.76 82.93-124.4 162.02 9.56 72.56 71.58 125.65 142.98 125.65 6.26 0 12.6-.45 19.03-1.25 156.93-20.55 315.1-39.77 474.71-57.19 79.27-8.49 136.55-79.62 127.97-158.89-8.58-79.54-79.89-136.64-159.16-128.06zM23103.06 630.03c-158.18 38.7-314.75 78.73-469.35 120.02-77.03 20.55-122.97 99.64-102.23 176.77 17.07 64.52 75.51 107.15 139.32 107.15 12.42 0 24.93-1.61 37.44-4.92 152.55-40.75 307.15-80.25 463.45-118.5 77.57-18.95 124.84-96.96 105.9-174.44-18.77-77.57-97.05-125.11-174.53-106.08zM24525.59 331.01c-160.32 28.15-319.12 58.18-476.32 89.28-78.02 15.55-129.04 91.69-113.4 169.97 13.67 68.63 74.17 116.18 141.64 116.18 9.29 0 18.68-.89 28.06-2.77h.27c155.14-30.92 311.71-60.23 470.06-88.2 78.55-14.12 130.83-88.92 117.07-167.38-13.85-78.46-88.92-131.01-167.38-117.07zM18611.28 2535.75c20.91 0 42.18-4.65 62.38-14.3 141.02-67.47 285.61-134.76 433.78-202.06 72.65-32.98 104.83-118.68 71.85-191.33-32.89-72.48-118.59-104.65-191.06-71.67-149.96 67.92-296.6 136.19-439.41 204.65-71.85 34.32-102.23 120.64-67.92 192.58 24.75 51.74 76.5 82.13 130.38 82.13zM11482.59 12944.16v289.54c0 106.61 86.42 193.03 192.94 193.03h5210.91c106.52 0 192.94-86.42 192.94-193.03v-289.54c0-106.61-86.42-192.94-192.94-192.94h-236.91l1624.31-4752.55c34.32-100.89-19.39-210.46-120.2-245.04l-273.99-93.48c-100.8-34.58-210.63 19.3-245.04 120.11l-1685.17 4930.84c-4.56 13.32-7.42 26.81-9.03 40.13h-4264.88c-106.52 0-192.94 86.33-192.94 192.94zM7363.01 20093.14c159.16 0 288.2-129.04 288.2-288.47v-1071.76c0-159.25-129.04-288.38-288.29-288.38 0 0-1153.53 247.72-3388.56 247.72-1080.61 0-1783.38-57.91-2221.81-117.78-89.99-396.78-174.08-850.31-217.34-1300.27-120.11-1249.69 555.23-4741.2 555.23-4741.2 0-159.16-129.13-288.38-288.29-288.38H533.07c-159.34 0-288.38 129.22-288.38 288.38v7271.68c0 159.34 129.04 288.47 288.29 288.47h2882.04l157.19 1800.98c-2295.89 107.33-2950.23 1068.28-2989.28 1148.88l-40.48 67.92v431.81C227.88 23643.63 0 23938.27 0 24286.44c0 431.46 349.78 781.06 781.23 781.06 431.37 0 781.06-349.6 781.06-781.06 0-309.74-180.79-576.59-442-702.95v-294.82c155.67-172.92 766.94-736.1 2502.24-816.89l94.19 1079.27c-302.59 107.69-519.57 395.8-519.57 735.39 0 431.46 349.69 781.06 781.06 781.06 431.46 0 781.14-349.6 781.14-781.06 0-302.06-171.76-563.63-422.61-693.57l97.77-1121.45c1017.61 46.38 1650.67 262.65 2028.87 465.15 213.49 114.03 347.01 224.31 425.02 300.89 19.48 19.12 35.48 36.19 48.35 50.67v281.95c-276.41 120.29-469.88 395.62-469.88 716.35 0 431.46 349.6 781.06 781.14 781.06 431.46 0 781.06-349.6 781.06-781.06 0-337.71-214.57-624.49-514.48-733.51v-442l-40.48-67.92c-39.23-80.61-693.48-1041.56-2989.28-1148.88l157.1-1800.98h2721.09zM5670.34 5544.87c-271.22 1164.97 453.35 2329.4 1618.32 2600.63 1164.97 271.31 2329.4-453.08 2600.72-1618.14 271.31-1165.06-453.26-2329.49-1618.32-2600.72-1164.97-271.4-2329.4 453.26-2600.72 1618.23zM13308.06 21678.67c224.4 185.52 496.07 275.87 766.13 275.96 346.56 0 690.35-148.97 928.42-436.91 423.32-512.33 351.3-1271.05-161.04-1694.37l-3817.16-3155.14c-72.92 722.61-174.89 1734.68-280.88 2890.71l2564.52 2119.75z"/><path d="M9584.01 15810.03c-7.86-.27-15.55-1.07-23.41-1.16l-2645.13-19.84c29.22-1331.82 324.13-2644.6 866.31-3860.59 10.28 686.86-40.39 1373.28-154.51 2050.49 124.31 341.82 233.07 696.87 324.04 1063.81 212.33-316.35 411.44-646.92 595.89-991.42 10.28-807.95-141.29-2161.75-354.25-3202.77-34.85 10.63-70.6 21.98-104.38 31.9-127.97 37.62-248.08 69.71-360.05 97.5-521.45 129.13-860.05 159.52-920.47 164.08-23.68 2.06-47.01 2.77-70.06 2.77-502.32 0-923.95-392.76-959.88-893.92-37.53-529.04 361.75-990.71 890.35-1029.4l14.21-1.16c11.44-1.16 38.16-4.29 74.8-9.65 73.73-10.28 194.01-29.67 357.02-65.5 102.14-22.61 226.45-53.53 366.76-93.39-49.42-49.06-101.52-96.25-157.19-140.48-826.81-663.72-2297.95-187.49-2956.3 1220.11-824.58 1763.18-1269.17 3681.06-1304.29 5627.26-27.7 1515.46 1029.13 2574.62 2040.93 2410.73 55.5 8.31 111.89 14.12 169.79 14.66l-.27-.18 3840.67 28.6 172.56 142.72c73.1-808.58 139.41-1519.22 189.63-2015.37 17.78-182.84 53.98-359.7 107.24-529.76z"/><path d="M6697.86 9412.16c-7.51.63-12.69 1.25-15.46 1.52-423.68 31.01-742.45 399.2-712.07 823.33 28.87 405.45 367.2 715.28 767.74 715.28 18.32 0 36.82-.63 55.5-1.97v-.27c37.53-2.86 376.59-30.12 912.87-164.7 121.18-30.47 252.55-66.67 392.85-109.12 17.87-5.45 35.57-10.72 53.71-16.35 290.8-89.99 617.07-206.61 971.31-359.96 1317.43-569.71 3006.35-1645.31 4505.01-3622.43 257.1-338.96 190.8-821.98-148.17-1079.09-338.87-257.02-822.07-190.71-1079.09 148.17-1325.83 1745.85-2775.43 2655.32-3890.44 3139.86-330.3 143.07-629.76 247.45-887.67 324.31-177.12 52.82-335.3 93.03-468.01 122.34-162.91 35.92-289.19 56.75-370.51 68.1-40.84 5.9-70.24 9.2-87.58 10.99zM20493.14 15430.76h388.29c187.4 0 339.41-151.83 339.41-339.23v-1074.98c0-187.49-152.01-339.41-339.41-339.41H9567.3c-187.22 0-339.23 151.92-339.23 339.41l.09 1074.98c0 187.4 151.83 339.23 339.14 339.23h388.56c-69.71 124.22-128.6 258.27-175.78 400.18-54.87 165.51-93.57 341.91-111.53 528.06-52.82 521.54-123.68 1281.95-201.43 2144.86-213.05 2365.33-477.66 5500.72-563.63 6600.72l1191.69-.09c52.37-669.62 156.93-2000.45 275.51-3470.16 62.38-773.64 128.6-1526.19 193.03-2224.04 108.49-1174.71 211.62-2192.05 282.22-2889.64 1.43-13.76 2.95-28.87 4.29-42.27 30.92-282.66 117.61-461.57 241.64-613.41 151.83-186.33 395.35-332.53 688.47-434.23h6888.12c293.39 101.7 536.73 247.99 688.74 434.23 123.95 151.83 210.55 330.83 241.47 613.41 111.8 1105.36 310.28 3054.43 479.63 5155.95 118.59 1469.71 223.15 2800.54 275.34 3470.25l1191.78-.09c-117.25-1501.16-567.38-6794.29-764.97-8745.5-33.6-345.93-136.46-659.25-287.31-928.24zM45276.9 12992.42v241.29c0 106.61 86.33 193.03 192.94 193.03h5210.91c106.43 0 192.94-86.42 192.94-193.03v-289.54c0-106.61-86.51-192.94-193.03-192.94h-236.91l1624.22-4752.55c34.67-100.89-19.3-210.46-120.2-245.04l-273.91-93.48c-100.8-34.58-210.46 19.3-245.04 120.11l-1685.17 4930.84c-4.56 13.32-7.33 26.81-9.03 40.13h-3681.15c-54.69 30.29-112.96 55.5-173.82 74.98-202.59 64.88-403.4 119.66-602.77 166.22zM41157.24 20093.14c159.25 0 288.38-129.04 288.38-288.47v-1071.76c0-159.25-129.13-288.38-288.47-288.38.09 0-1153.53 247.72-3388.48 247.72-1080.61 0-1783.38-57.91-2221.9-117.78-89.9-396.78-173.99-850.31-217.25-1300.27-120.2-1249.69 555.14-4741.2 555.14-4741.2 0-159.16-129.04-288.38-288.29-288.38h-1268.99c-159.25 0-288.38 129.22-288.38 288.38l-.09 7271.68c0 159.34 129.13 288.47 288.38 288.47h2882.13l157.1 1800.98c-2295.98 107.24-2950.23 1068.28-2989.19 1148.88l-40.48 67.92v431.73c-314.66 100.89-542.54 395.62-542.54 743.79 0 431.46 349.69 781.06 781.14 781.06 431.46 0 781.14-349.6 781.14-781.06 0-309.74-180.7-576.59-442.09-702.95l-.09-294.64c155.5-172.65 766.4-736.28 2502.5-817.07l94.1 1079.27c-302.59 107.69-519.66 395.8-519.66 735.39 0 431.46 349.78 781.06 781.14 781.06 431.46 0 781.06-349.6 781.06-781.06 0-302.06-171.76-563.63-422.52-693.57l97.77-1121.45c1017.52 46.38 1650.49 262.65 2028.69 465.15 213.58 114.03 347.1 224.31 425.02 300.89 19.57 19.12 35.66 36.19 48.53 50.76V23570c-276.59 120.38-469.97 395.71-469.97 716.44 0 431.46 349.69 781.06 781.23 781.06 431.37 0 780.97-349.6 780.97-781.06 0-337.71-214.66-624.58-514.57-733.6v-441.91l-40.48-67.92c-39.05-80.61-693.3-1041.56-2989.1-1148.88l157.02-1800.98h2721.09zM41756.88 8787.32c1165.06 271.31 2329.49-452.99 2600.81-1618.05 271.22-1165.15-453.44-2329.58-1618.41-2600.81-1164.97-271.4-2329.31 453.26-2600.63 1618.23-271.31 1164.97 453.35 2329.49 1618.23 2600.63zM44131.68 24481.53c78.02 16 158.09 25.2 239.86 25.2 64.43 0 129.67-5.18 195.26-15.91 656.12-106.97 1100.98-725.65 994.01-1381.77l-859.61-5265.06c-104.74 1063.09-230.83 2398.57-344.33 3805.99-88.03 1092.23-168.36 2107.15-225.2 2831.55z"/><path d="M43378.33 15810.12c-7.86-.27-15.64-1.16-23.5-1.25l-2645.13-19.84c24.49-1113.41 234.5-2213.41 619.48-3254.78-348.7-194.01-620.64-399.2-810.99-563.54-615.19-527.88-933.96-1042.81-1042.45-1239.68-124.22-233.87-149.15-494.37-74.08-740.39 75.25-245.93 241.82-447.63 468.99-568.28 138.78-73.73 294.82-112.6 451.21-112.6 357.1 0 683.02 195.71 850.4 510.9.45 0 6.61 10.72 16.26 25.74 30.92 49.51 66.4 101.43 105.36 153.98 12.69 17.07 26.81 35.48 41.91 54.69 96.43 123.06 241.2 287.76 434.41 452.64 41.2 34.67 82.75 67.83 124.84 100 27.44 21.09 55.05 41.56 82.93 61.57-64.16-317.52-134.5-597.95-208.31-815.55-.27-.89-.54-1.79-.8-2.68-40.39-118.5-81.5-219.12-123.5-295.35-1.88-3.49-4.65-4.83-7.06-7.15-125.65-241.82-297.23-460.05-520.02-637.27-826.72-663.72-2297.86-187.49-2956.3 1220.11-824.58 1763.18-1269.17 3681.06-1304.29 5627.26-27.7 1515.46 1029.13 2574.62 2040.84 2410.82 55.5 8.22 111.89 14.03 169.71 14.57v-.18l3253.44 24.31 502.15 3076.5c161.22-1871.58 340.57-3890.08 447.27-4945.05 17.69-182.75 53.89-359.61 107.24-529.49z"/><path d="M41394.33 13972.49c118.5 343.97 221 700.81 305.72 1069.17 217.69-312.69 422.52-639.77 612.78-981.06 9.2-309.38-4.02-699.29-34.67-1121.36-263.18-81.77-503.4-179.18-718.23-284.45-29.49 441.91-84.45 881.95-165.59 1317.7zM41645.17 10654.17c-51.3-43.79-99.11-87.67-144.24-131.01-157.55-151.39-278.37-296.34-361.57-408.13-53.44-71.85-91.33-129.94-114.12-166.4-11.35-18.23-18.95-31.19-22.79-37.8l-.18.09c-199.55-375.42-665.68-518.23-1041.29-318.5-375.51 199.55-518.41 665.86-318.86 1041.38 30.74 55.5 331.81 616.18 1001.88 1191.15 210.9 182.04 462.74 364.7 754.07 529.31 55.94 31.55 113.23 62.56 172.03 92.76 211.71 108.4 442.99 205.63 691.96 286.95 454.51 148.61 969.53 242.9 1545.4 242.99h11.08c495.09 0 1030.74-68.72 1603.49-219.04 3.84-.98 7.69-1.97 11.62-3.04 127.44-33.6 256.03-69.97 387.22-111.98 405.09-129.76 628.51-563.27 498.66-968.37-129.76-405.27-563.36-628.51-968.46-498.66-588.38 188.2-1094.91 260.23-1532.53 260.41-775.51-2.41-1352.73-222.7-1789.55-499.64-49.33-31.28-96.34-63.36-142.18-95.8-86.06-61.13-166.93-123.68-241.64-186.68zM54574.86 16359c-33.6-345.93-136.46-659.25-287.4-928.24h388.38c187.22 0 339.41-151.83 339.41-339.23v-1074.98c0-187.49-152.19-339.41-339.5-339.41H43361.8c-187.49 0-339.5 151.92-339.5 339.41v1074.98c0 187.4 152.01 339.23 339.5 339.23h388.29c-69.62 124.22-128.51 258.18-175.6 400.18-54.96 165.51-93.74 341.91-111.71 528.06-120.91 1194.01-336.37 3639.5-512.33 5701.61-111.53 1307.69-207.24 2461.49-252.73 3043.97l1191.69-.09c14.21-180.79 32.26-410.99 53.26-677.84 56.84-721.72 135.75-1719.39 222.25-2792.32 140.84-1747.19 301.7-3387.22 416.09-4526.46 23.15-231.01 44.68-443.16 63.45-629.49 30.92-282.66 117.52-461.57 241.64-613.41 151.92-186.33 395.35-332.53 688.47-434.23h6888.39c293.12 101.7 536.55 247.99 688.65 434.23 123.86 151.83 210.37 330.83 241.2 613.41 112.06 1105.36 310.37 3054.43 479.8 5155.95 118.41 1469.71 222.97 2800.54 275.25 3470.25l1191.78-.09c-117.16-1501.16-567.38-6794.29-764.79-8745.5z"/></g></svg>