<svg xmlns="http://www.w3.org/2000/svg" xml:space="preserve" viewBox="0 0 362.61 358.29" shape-rendering="geometricPrecision" text-rendering="geometricPrecision" image-rendering="optimizeQuality" fill-rule="evenodd" clip-rule="evenodd"><g fill="currentColor"><path d="M213.04 223.16h26.25c-1.46-1.05-2.83-2.1-4.09-3.13-11.17-9.09-16.86-18.1-18.33-20.64-1.87-3.33-2.32-7.09-1.32-10.68a13.84 13.84 0 0 1 6.6-8.39c2.08-1.17 4.45-1.79 6.83-1.79 5.02 0 9.67 2.71 12.15 7.08.1.17.23.37.41.64.4.61 1.08 1.59 2.06 2.84 1.81 2.3 4.87 5.78 9.19 9.29 2.84 2.28 5.78 4.27 8.84 5.97-3.63-6.19-6.92-12.11-9.9-17.28-6.1-13.09-20.96-22.18-31.88-16.6-10.93 5.58-19.69 21.79-11.57 41.8 1.59 3.87 3.18 7.47 4.77 10.89zM341.57 321.19c0 8.41-4.17 15.99-10.7 20.58 3.2 4.59 8.5 7.49 14.3 7.49.88 0 1.76-.07 2.66-.2 9.52-1.46 16.05-10.35 14.6-19.87l-12.09-79.02a17.383 17.383 0 0 0-11.86-13.94c1.98 3.59 3.11 7.71 3.11 12.09v72.88z"/><path d="M159.03 276.16c28.85-22.01 54.46-41.54 88.42-47.78-1.42-.8-2.76-1.61-4.05-2.44h-38.74l-19.49-97.44c-2.42-12.11-12.84-20.23-23.28-18.15l-26.45 5.3c-10.44 2.08-16.93 13.6-14.51 25.71l27.77 138.82v3.83c3.5-2.64 6.94-5.26 10.33-7.85z"/><path d="M321.98 236.04c-10.05 2.54-19.9 3.83-29.29 3.83h-.2c-11.61 0-21.7-1.97-30.33-4.91-38.83 2.7-66.49 23.78-98.18 47.95-4.95 3.78-10.03 7.64-15.27 11.54v26.74c0 10.95 7.87 20.04 18.26 21.97v8.76h35.78v-8.37h81.99v8.37h35.78v-8.76c10.39-1.93 18.26-11.02 18.26-21.97v-72.88c0-7.26-3.47-13.68-8.83-17.77a13.858 13.858 0 0 1-7.97 5.51zM233.57 162.68c16.59-4.98 26.01-22.47 21.03-39.06-4.98-16.6-22.47-26.01-39.06-21.03-16.59 4.98-26.01 22.47-21.03 39.06 4.98 16.59 22.47 26.01 39.06 21.03z"/><path d="M16.04 38.81h23.48v126.91H5.01v76h34.51v81.87c-24.69 1.1-32.11 11.54-32.68 12.71l-.58.99v5.48a8.27 8.27 0 0 0-4.32 7.26c0 4.56 3.7 8.26 8.26 8.26s8.26-3.7 8.26-8.26c0-2.93-1.54-5.51-3.84-6.97v-3.13c1.84-1.93 8.16-7.03 24.89-7.92v11.65c-1.83 1.52-3 3.81-3 6.37 0 4.56 3.7 8.26 8.26 8.26s8.26-3.7 8.26-8.26c0-2.9-1.5-5.45-3.76-6.92v-11.1c10.16.56 16.45 2.75 20.19 4.75 2.16 1.16 3.49 2.26 4.24 3l.17.17v3.33a8.262 8.262 0 0 0 4.72 15.04c4.56 0 8.26-3.7 8.26-8.26 0-3.25-1.88-6.05-4.61-7.4v-5.34l-.58-.99c-.57-1.17-7.92-11.53-32.38-12.7v-81.88h18.55c.52 13.66 3.99 29.39 10.58 42.21 7.13 13.88 18.14 24.53 33.15 24.54 8.31 0 17.65-3.27 28.02-10.77 41.52-30.04 71.46-59.77 116.66-65.01-1.63-.7-3.22-1.41-4.73-2.16-43.86 6.74-73.64 36.08-113.57 64.91-10.05 7.26-18.83 10.24-26.38 10.24-13.53.01-23.72-9.58-30.66-23.03-6.35-12.31-9.76-27.69-10.27-40.94H83.8v-76H70.71c1.56-10.76 2.1-20.53 2.1-28.81 0-11.73-1.06-20.48-1.73-24.88h2.5c1.6 0 2.91-1.3 2.91-2.91 0-1.02-.54-1.92-1.34-2.44a2.9 2.9 0 0 0-1.57-.47h-1.05v-2.32h12.52c3.08 0 5.58-2.5 5.58-5.58V53.68c0-3.08-2.5-5.58-5.58-5.58H75.6c.18-.88.3-1.82.39-2.79.08-.85.13-1.72.14-2.62 0-1.47-.13-2.87-.34-4.19 7.41-1.42 13-7.92 13-15.74 0-1.16-.93-2.09-2.09-2.09-1.16 0-2.09.94-2.09 2.09-.01 5.87-4.28 10.72-9.88 11.67-.07-.19-.13-.4-.21-.58-.52-1.2-1.16-2.25-2.01-3.09-.83-.83-2.01-1.49-3.36-1.49-1.36 0-2.53.66-3.37 1.49-.98 1.02-1.74 2.33-2.31 3.86h-14.2V4.87c0-2.7-2.19-4.88-4.88-4.88-2.7 0-4.88 2.18-4.88 4.88v29.75H16.03c-6.55-.01-11.84-5.31-11.86-11.85 0-1.16-.93-2.09-2.09-2.09-1.16 0-2.09.94-2.09 2.09 0 8.86 7.18 16.03 16.04 16.03zm-1.86 165.14H41.6v3.55H14.18v-3.55zm0 6.65H41.6v3.55H14.18v-3.55zm0 10.2v-3.55H41.6v3.55H14.18zm59.85-45.32v22.31H14.41v-22.31h59.62zM85.42 60.43v11.39c0 1.54-1.25 2.79-2.79 2.79H55.67c-1.54 0-2.79-1.25-2.79-2.79V60.43c0-1.54 1.25-2.79 2.79-2.79h26.96c1.54 0 2.79 1.25 2.79 2.79zM71.28 48.11h-4.25c-.23-.84-.41-1.78-.53-2.79-.1-.84-.16-1.71-.15-2.62 0-1.39.12-2.71.33-3.89h4.91c.22 1.19.36 2.5.34 3.89 0 .91-.06 1.78-.15 2.62-.11 1.01-.29 1.95-.51 2.79zm-2.57-14.35c.33-.31.44-.29.44-.29s.1-.02.43.29c.21.18.43.49.64.87h-2.15c.23-.39.45-.69.64-.87zm-6.25 5.05c-.17 1.23-.27 2.53-.29 3.89 0 .9.05 1.77.13 2.62.09.97.25 1.9.44 2.79h-9.48c-3.08 0-5.58 2.5-5.58 5.58v44.63c0 3.08 2.5 5.58 5.58 5.58h12.52v2.32h-1.04c-.58 0-1.12.17-1.57.47-.8.52-1.34 1.41-1.34 2.44 0 1.6 1.3 2.91 2.9 2.91h3.51c.19 1.2.42 2.78.65 4.75.56 4.76 1.12 11.66 1.12 20.14 0 8.26-.55 18.04-2.13 28.81H49.27v-60.05c-2.61-1.42-4.39-4.18-4.39-7.36V53.7c0-3.18 1.78-5.94 4.39-7.36v-7.52h13.18z"/><path d="M251.02 200.54c-4.39-3.56-7.59-7.13-9.63-9.73-1.02-1.3-1.75-2.35-2.2-3.03-.22-.34-.38-.58-.46-.72a.922.922 0 0 1-.05-.08c-3.03-5.35-9.82-7.25-15.18-4.23-5.37 3.02-7.28 9.82-4.26 15.19.47.81 5.87 10.29 17.71 19.93 11.75 9.6 30.34 19.22 55.53 19.22h.17c8.8 0 18.35-1.15 28.63-3.75 5.97-1.51 9.59-7.57 8.08-13.55-1.51-5.97-7.58-9.59-13.55-8.08-8.62 2.18-16.31 3.07-23.17 3.07-19.59-.04-32.79-7.12-41.64-14.24z"/></g></svg>