<svg xmlns="http://www.w3.org/2000/svg" xml:space="preserve" viewBox="0 0 419.99 396.56" shape-rendering="geometricPrecision" text-rendering="geometricPrecision" image-rendering="optimizeQuality" fill-rule="evenodd" clip-rule="evenodd"><g fill="currentColor"><path d="M84.44 252.82H54.81c-4.07 0-7.31-1.26-10.52-3.55v126.97c0 10.97 8.78 19.86 19.75 19.86 8.48 0 15.98-5.33 18.82-12.82.83-2.19 1.58-4.55 1.58-7.03V252.83zM131.01 249.27c-3.21 2.29-6.75 3.55-10.81 3.55H90.86v123.42c0 10.97 9.11 19.86 20.07 19.86 10.97 0 20.08-8.89 20.08-19.86V249.27zM33.03 236.75c-.08-1.31-.15-2.6-.21-3.88-.05-.85-.09-1.69-.12-2.52-6.96 2.69-18.39 3.01-25.68.8.11 2.33.23 4.69.37 7.1.4 6.83 6.06 12.1 12.81 12.1.26 0 .51-.01.77-.02 3.6-.21 6.77-1.89 8.96-4.42 2.12-2.44 3.32-5.68 3.12-9.16z"/><path d="M38.61 219.93c.06-.31.09-.64.09-.97-.09-3.38-.13-6.61-.15-9.76 0-.57-.34-1.15-.34-1.71-.04-18.54 1.26-32.99 2.86-44.13v73.16c0 6.85 6.51 13.1 13.74 13.1h65.38c7.23 0 12.42-6.24 12.42-13.1v-75.1c1.61 4.12 3.11 8.6 4.33 13.53 1.5 2.91 2.69 6.09 3.16 9.46 3.09 5.86 10.89 14.8 38.48 34.95 3.14 2.3 28.76-22.78 20.88-28.53-18.71-13.66-25.35-20.2-27.47-22.54-13.86-58.38-44.75-76.22-49.4-78.61.47-1.57.94-3.14 1.38-4.7 2.86-10.06 4.99-19.6 5.16-26.08C130.19 17.47 106.65.02 87.51.02 68.37.02 44.83 17.48 45.89 58.9c.19 7.64 3.11 19.49 6.73 31.46-3.59.33-8.37 1.36-13.57 3.98-10.24 5.05-20.65 15.95-27.55 33.62C4.48 145.73.03 170.57 0 207.49c0 .96.01 1.96.02 2.93.02 3.11.06 6.28.15 9.56.26 10.14 36.43 9.66 38.44-.05zM87.5 31.54c14.45 0 28.91 9.81 28.91 19.78 0 16.37-8.71 37.43-20.65 44.48l3.18 66.05-3.21.16-3.12-64.72c-1.66.6-3.37.94-5.11.94-1.75 0-3.45-.34-5.11-.94l-3.12 64.72-3.21-.16 3.18-66.05C67.3 88.75 58.59 67.69 58.59 51.32c0-9.98 14.45-19.78 28.91-19.78zM217.18 248.12l7.85-22.21-13.65-4.83c.07-.09.14-.17.21-.27 4.01-5.85 2.52-13.85-3.33-17.86-.03-.02-1.54-1.06-3.97-2.77-2.86 6.26-10 14.79-16.44 19.85 3.47 2.47 5.73 4.02 5.87 4.11.95.66 1.97 1.13 3.01 1.5l-4.79 13.55 25.23 8.93z"/><path d="M113.2 51.32c0-8.05-13.21-16.57-25.7-16.57-12.49 0-25.69 8.52-25.69 16.57 0 18.16 11.53 32.93 25.69 32.93 14.17 0 25.7-14.77 25.7-32.93zM78.56 73.6l-3.52-3.28c.41-.43 10.16-10.64 28.44-8.24l-.63 4.78c-15.86-2.09-24.21 6.66-24.29 6.75zM303.55 51.78c0 19.96 16.18 36.14 36.13 36.14 19.96 0 36.13-16.18 36.13-36.14s-16.18-36.13-36.13-36.13c-19.96 0-36.13 16.18-36.13 36.13zm58.95 9.35-2.75 3.95c-.57-.39-14.15-9.25-35.32 9.33l-3.18-3.62c24.17-21.21 40.56-10.14 41.25-9.66zM191.35 172.61l13.21 9.93c.93 5.28 5.12 9.62 10.72 10.47 1.08.16 2.41.35 3.94.55l24.65 18.54 13.22-17.59c8.39-.99 16.17-3.11 21.44-7.14 4.79-3.66 7.76-8.59 8.41-14.27 2.06-17.81 6.27-29.63 9.48-37.31v240.92c0 10.97 9.11 19.86 20.08 19.86 10.96 0 20.07-8.89 20.07-19.86V231.95h6.42v144.76c0 10.97 9.11 19.86 20.08 19.86 10.96 0 20.07-8.89 20.07-19.86V135.86c6.42 13.69 13.71 42.29 10.25 101.35-.41 7.08 4.98 13.16 12.07 13.58.26.01.5.02.76.02 6.75 0 12.41-5.27 12.81-12.1 3.97-67.85-4.52-112.12-25.22-131.57-9.03-8.48-17.85-9.94-22.36-10.04-.25-.02-.5-.05-.75-.05h-62.05c-.24 0-.48.04-.72.05-4.01.09-11.53 1.27-19.55 7.58-13.85 10.92-22.85 32.09-26.75 62.94-3.15 1.24-9.48 1.88-17.14 1.89l-32.47-24.41-20.68 27.51zm23.56-10.98 6.98 5.25c4.37-2.26 9.82-1.99 14.01 1.16 4.19 3.15 5.96 8.31 5.01 13.14l6.98 5.24-1.23 1.63-6.35-4.77a13.024 13.024 0 0 1-4.43 5.88l6.35 4.77-1.23 1.63-6.98-5.24c-4.37 2.26-9.82 1.99-14.01-1.16-4.19-3.15-5.96-8.31-5.01-13.13l-6.98-5.24 1.23-1.63 6.35 4.77a13.024 13.024 0 0 1 4.43-5.88l-6.35-4.77 1.23-1.63z"/><path d="M236.45 174.69c-.33.13-.55.16-.84-.06-.34-.26-.69-.86-1.3-1.59l1.73-1.69-.89-.86-1.73 1.69c-.15-.15-.3-.27-.47-.39-3.06-2.3-5.94-1.59-7.5.49-1.71 2.28-.98 4.21 1.07 6.63l-4.11 4.04c-1.22-1.53-.88-3.12-.15-5.25l-.86-.64-3.24 4.77.61.46c.43-.21.64-.4.96-.16.47.35.82 1 1.64 1.85l-1.73 1.69.91.88 1.75-1.71c.15.15.33.28.52.43 3.23 2.43 6.34 1.97 8.15-.43 2.03-2.69.41-4.98-1.36-7.16l3.71-3.65c.8 1.02.93 2.27.22 4.35l.78.59 2.67-3.86-.54-.4zm-7.98 9.49c-1.07 1.42-2.84 1.43-4.85-.08l-.32-.24 4.03-3.98c1.62 1.98 2.15 2.96 1.14 4.3zm.32-7.47c-1.21-1.56-1.69-2.54-.77-3.76.94-1.25 2.56-1.22 4.06-.09l.37.28-3.65 3.58z"/></g></svg>