<svg xmlns="http://www.w3.org/2000/svg" xml:space="preserve" viewBox="0 0 237.14 242.83" shape-rendering="geometricPrecision" text-rendering="geometricPrecision" image-rendering="optimizeQuality" fill-rule="evenodd" clip-rule="evenodd"><g fill="currentColor"><path d="M81.21 165.69c-.82-.24-1.63-.55-2.43-.92-.8.38-1.61.68-2.43.92l-26.26 7.68-5.86 55.61h69.1l-5.86-55.61-26.26-7.68zM115.43 27.5c0-15.19-12.31-27.5-27.5-27.5s-27.5 12.31-27.5 27.5S72.74 55 87.93 55s27.5-12.31 27.5-27.5z"/><path d="M106.17 146.4c-4.29 1.82-7.97 2.8-11.6 3.08-7.99.63-15.2-2.21-25.69-7.68-1.9-.99-3.7-1.4-5.49-1.26-3.28.26-6.58 2.34-10.39 4.75-5.18 3.27-11.62 7.33-20.46 8.03-2.67.21-5.47.11-8.32-.31-1.02-.15-1.99-.33-2.94-.54a14.55 14.55 0 0 0-1.94 5.88l-7.19 68.28c-.85 8.06 4.99 15.27 13.05 16.12.52.06 1.04.08 1.55.08 7.41 0 13.78-5.6 14.57-13.13l6.16-58.5 28.07-8.21a15.2 15.2 0 0 0 3.22-1.39c1 .57 2.06 1.05 3.22 1.39l28.07 8.21 6.16 58.5c.79 7.53 7.16 13.13 14.57 13.13.51 0 1.03-.03 1.55-.08 8.06-.85 13.9-8.07 13.05-16.12l-7.19-68.28a14.659 14.659 0 0 0-10.47-12.54l-14.89-4.35c-1.83 2.09-4.03 3.83-6.68 4.95zM190.63 128.13l7.73.59 1.03-11.11-12.23-1.34c3.17 3.09 4.44 7.62 3.47 11.86z"/><path d="M119.19 108.81c0-7.27-1.31-18.34-8.7-23.24-11.48-7.63-19.37-6.8-35.13-2.02-9.06 2.75-13.79-3.67-20.8-9.8l-8.2 2.41 31.6 20.91a12.3 12.3 0 0 1 3.16 3.02c1.02-.16 2.07-.22 3.14-.12 6.87.64 11.91 6.72 11.28 13.59-.64 6.87-6.72 11.92-13.59 11.28a12.46 12.46 0 0 1-8.77-4.88c-.71.12-1.43.21-2.17.21-2.47 0-4.87-.72-6.94-2.09L34.59 98.57l-2.45 26.29-4.65-.43 2.68-28.78L9.88 82.22c-1.3-.86-2.38-1.96-3.26-3.2C2.2 87.71 1.33 98.26.73 104.74c-1.19 12.78-4.31 41.33 23.89 45.49 24.1 3.56 30.94-18.52 45.55-10.91 14.61 7.61 22.21 9.88 34.9 4.5 8.16-3.46 11.49-14.1 12.83-21.24l45.05 3.44 4.82-7.52a12.57 12.57 0 0 1 4.01-3.91l-52.6-5.77zM227.51 119.11l.29-3.06 1.42.13.17-1.86-4.49-.42-.17 1.86 1.42.13-.29 3.14-7.03-.35.28-2.98 1.42.13.17-1.86-4.49-.42-.17 1.86 1.42.13-.28 3.05-7.03-.35.27-2.89 1.42.13.17-1.86-4.49-.42-.17 1.86 1.42.13-.28 2.96-6.28-.31-.32-.02-1.03 11.11.32.04 6.23.85-.28 2.96-1.42-.13-.17 1.86 4.49.42.17-1.86-1.42-.13.27-2.89 6.98.95-.28 3.05-1.42-.13-.17 1.86 4.49.42.17-1.86-1.42-.13.28-2.97 6.98.95-.29 3.14-1.42-.13-.17 1.86 4.49.42.17-1.86-1.42-.13.28-3.07 7.12.98 3.75-6.68-2.45-7.26-7.18-.36zm-19 7.18c.06-.6.59-1.04 1.19-.99l15.47 1.44c.6.06 1.04.59.99 1.19-.06.6-.59 1.04-1.19.99l-15.47-1.44c-.6-.06-1.04-.59-.99-1.19zm16.86-1.78-15.47-1.44c-.6-.06-1.04-.59-.99-1.19.06-.6.59-1.04 1.19-.99l15.47 1.44c.6.06 1.04.59.99 1.19-.06.6-.59 1.04-1.19.99z"/><path d="M7.16 70.25a9.783 9.783 0 0 0 4.28 9.61l54.19 35.86a9.71 9.71 0 0 0 5.39 1.62c3.17 0 6.28-1.54 8.16-4.39 2.98-4.5 1.74-10.57-2.76-13.55L39.78 75.15l17.4-5.11c1.36-.4 2.56-1.07 3.57-1.93l1.76 2.2a12.357 12.357 0 0 1-4.54 2.43l-.23.07c.63.57 1.24 1.14 1.84 1.69 4.35 4.03 7.78 7.22 12.41 6.86.81-.06 1.67-.23 2.56-.5 5.47-1.66 11.25-3.25 16.47-3.67 7.48-.59 13.77 1.21 21.03 6.03 7.45 4.95 9.57 14.82 9.9 23.06l28.06 3.08-17.2-9.4-19.64-44.43a9.735 9.735 0 0 0-5.39-5.15c-5.32 4.63-12.26 7.44-19.85 7.44-7.33 0-14.06-2.62-19.31-6.97H55.17c-.34 0-.67.02-1 .05-.83.02-1.67.14-2.5.38l-3.58 1.05-34.01 9.99a9.77 9.77 0 0 0-6.91 7.93zM186.61 130.56a9.788 9.788 0 0 0-2.95-13.51 9.782 9.782 0 0 0-13.51 2.96l-5.09 7.94c-.21.32-.39.66-.55 1l-22.59-1.73 26.69 14.59c.12.07.25.11.37.17.18.09.35.17.53.25.24.1.48.18.72.26.17.06.35.12.52.17.27.07.55.13.83.18.15.03.29.06.44.08.42.06.85.09 1.27.09h.02c.41 0 .83-.03 1.24-.08.13-.02.26-.05.39-.07.28-.05.56-.1.84-.17.15-.04.29-.09.44-.14.25-.08.51-.16.75-.26.15-.06.29-.13.44-.2.23-.11.46-.22.69-.34.15-.08.29-.18.43-.27.21-.13.42-.27.62-.42.15-.11.28-.22.42-.34a8.062 8.062 0 0 0 .94-.9c.16-.17.32-.36.47-.55.12-.15.24-.31.35-.47.07-.1.15-.2.22-.3l.25-.39 4.84-7.56zM156.48 40.66c-2.23 1.26-3.26 3.67-2.29 5.38.97 1.71 3.56 2.07 5.79.81 1.62-.91 2.59-2.43 2.65-3.84V21.95l-20.39 5.61v19.72c-1.18-.39-2.7-.24-4.07.54-2.23 1.26-3.26 3.67-2.29 5.38.97 1.71 3.56 2.07 5.79.81 1.76-1 2.77-2.71 2.64-4.22V35.76l16.27-4.47v8.85c-1.19-.4-2.7-.24-4.08.54zM144.3 33.6v-4.48l16.27-4.47v4.48L144.3 33.6zM202.72 44.19c-1.63-.56-3.31 0-3.73 1.26-.43 1.25.55 2.72 2.19 3.27 1.18.4 2.38.22 3.12-.39l.02-.02c.03-.03.07-.06.1-.09l10.48-9.33-11.96-7.75-9.93 8.83c-.33-.77-1.09-1.46-2.1-1.81-1.63-.56-3.31 0-3.73 1.26-.43 1.25.55 2.72 2.19 3.28 1.29.44 2.6.18 3.31-.56l7.07-6.29 9.54 6.19-4.46 3.97c-.33-.78-1.09-1.47-2.1-1.81zm-1.91-9.3 2.25-2.01 9.54 6.19-2.25 2.01-9.54-6.19zM154.65 61.96l-3.76 19.91c-1.09-.61-2.61-.73-4.1-.22-2.42.83-3.88 3-3.25 4.86.63 1.86 3.11 2.69 5.54 1.86 1.92-.65 3.22-2.15 3.37-3.66l3.37-17.84 6.99 2.72.75-1.92-.05-.02.59-1.26-9.45-4.42zM194.83 7.58l-12.25 16.13c-.71-1.03-2.01-1.82-3.57-2.03-2.54-.34-4.81.95-5.07 2.9-.26 1.95 1.58 3.8 4.12 4.14 2.01.27 3.84-.48 4.65-1.77l10.98-14.46 5.04 5.55 1.53-1.39-.03-.04 1.09-.87-6.48-8.18z"/></g></svg>