<svg xmlns="http://www.w3.org/2000/svg" xml:space="preserve" viewBox="0 0 458.77 378.97" shape-rendering="geometricPrecision" text-rendering="geometricPrecision" image-rendering="optimizeQuality" fill-rule="evenodd" clip-rule="evenodd"><g fill="currentColor" fill-rule="nonzero"><path d="M93.33 225.36v8.27h21.23c-1.37-.94-2.63-1.89-3.8-2.86a68.755 68.755 0 0 1-17.43-5.4zM204.93 222.77h-14.7l2.25 10.86h19.29c-2.25-3.99-4.52-7.6-6.84-10.86zM369.95 227.87c3.19 0 6.2-.19 9.04-.54v-4.56h-17.25c.38 1.55.74 3.16 1.08 4.81 2.45.18 4.86.29 7.13.29zM329.05 233.63h12.83c-.71-3.83-1.59-7.45-2.64-10.86h-10.19v10.86zM245.52 222.77h-3.24l2.53 10.86h10.88c-4.01-3.78-7.39-7.39-10.17-10.86zM189.97 207.02h-3.02l2.25 10.86h12.01c-3.64-4.46-7.38-8.06-11.25-10.86zM329.05 217.88h8.52c-1.51-3.95-3.27-7.58-5.31-10.86h-3.21v10.86zM183.15 155.59a26.576 26.576 0 0 1-8.21 13.85c4.06 7.87 12.26 13.24 21.72 13.24 6.31 0 12.07-2.4 16.4-6.32l-9.7-41.61c-2.13-.61-4.38-.94-6.7-.94-5.66 0-10.88 1.93-15.02 5.17 2.2 5.06 2.86 10.84 1.51 16.61zM237.27 61.38c.27 1.18.51 1.88.7 2.08.19.21.56.25 1.11.12.51-.12.81-.33.88-.62.07-.3-.01-.96-.25-1.99l-2.48-10.64c-.26-1.1-.47-1.76-.66-2-.19-.24-.56-.29-1.11-.16-.51.12-.81.33-.89.64-.08.31.01 1 .26 2.08l2.44 10.48zM187.92 46.23c-.51-2.21-.96-3.57-1.32-4.07-.37-.5-.99-.65-1.87-.44-.86.2-1.35.63-1.49 1.28-.14.65.04 2.05.54 4.19l4.73 20.3c.56 2.42 1.03 3.84 1.4 4.28.37.44.99.56 1.85.35.86-.2 1.35-.62 1.48-1.27.13-.64-.04-1.98-.52-4.02l-4.8-20.61zM211.08 46.27c.28 1.2.51 1.9.7 2.11.19.21.57.25 1.14.11.5-.11.78-.33.86-.63.08-.31 0-.97-.23-1.98l-2.49-10.66c-.26-1.1-.48-1.76-.66-1.99-.18-.23-.55-.28-1.11-.15-.51.12-.81.34-.9.64-.09.31-.01 1 .24 2.06l2.44 10.48z"/><path d="M267.73 81.2 248.8 0 120.46 29.92l18.92 81.19 128.34-29.92zm-27.74-36.84c1.51.37 2.6.98 3.28 1.84.67.85 1.24 2.27 1.7 4.24l1.67 7.17c.43 1.85.56 3.29.39 4.33-.17 1.03-.82 2.05-1.95 3.04-1.13 1-2.75 1.74-4.86 2.23-2.42.56-4.35.66-5.79.29-1.44-.37-2.5-.96-3.16-1.78-.66-.82-1.19-2.09-1.59-3.8l-1.75-7.5c-.48-2.04-.59-3.6-.36-4.7.24-1.09.95-2.11 2.14-3.05 1.19-.94 2.76-1.63 4.73-2.09 2.19-.51 4.05-.58 5.56-.21zm-9.56-20.04-8.03 47.41-4.4 1.03 8.09-47.43 4.34-1.01zM201.4 34.6c.24-1.09.95-2.11 2.14-3.03 1.19-.93 2.77-1.62 4.73-2.08 2.17-.51 4.01-.58 5.53-.22 1.51.36 2.61.97 3.29 1.82.68.85 1.25 2.27 1.72 4.26l1.67 7.14c.43 1.87.56 3.31.39 4.34-.18 1.03-.82 2.03-1.95 3.03-1.13.99-2.75 1.74-4.86 2.23-2.44.57-4.37.67-5.8.31-1.43-.36-2.48-.95-3.14-1.77-.66-.82-1.2-2.1-1.6-3.83l-1.74-7.48c-.48-2.06-.6-3.63-.36-4.72zM158 85.91l.26-36.04-11.42 2.66-1.74-7.48 22.07-5.14 2.11 9.06.21 34.26L158 85.91zm28.8-6.78c-1.96-.15-3.63-.7-5-1.67-1.37-.96-2.44-2.06-3.21-3.3-.77-1.24-1.5-3.32-2.18-6.25l-3.38-14.52c-.89-3.82-1.19-6.76-.9-8.84.29-2.07 1.39-3.94 3.31-5.59 1.91-1.66 4.43-2.85 7.53-3.57 2.53-.59 4.9-.72 7.08-.39 2.19.33 3.91.95 5.17 1.87 1.26.92 2.23 2.05 2.92 3.41.69 1.36 1.4 3.61 2.13 6.76l3.23 13.88c.74 3.15 1.08 5.49 1.04 7.02-.05 1.53-.53 3.06-1.43 4.59-.91 1.53-2.15 2.77-3.72 3.71-1.57.94-3.4 1.66-5.5 2.15-2.76.64-5.13.89-7.09.74zM106.92 124.89c-2.16-7.67-5.77-15.75-11.16-24.12-2.59-4.04-7.97-5.21-12.01-2.61-4.04 2.59-5.21 7.97-2.62 12 4.49 7.02 7.32 13.38 8.98 19.16 4.3-2.88 9.43-4.52 14.79-4.52.68 0 1.35.04 2.01.09zM51.12 186.11c-11.69 19.95-16.14 33.6-18.29 57.79-.17 13.41 6.24 19.1 13.58 21.9.04.09.07.18.12.27.55 1.11 8.72 18.87 8.7 45.23 0 13.68-2.15 29.69-8.65 47.24-2.6 7.03.98 14.84 8.02 17.45 1.55.58 3.15.85 4.71.85 5.52 0 10.71-3.39 12.74-8.87 7.7-20.8 10.34-40.14 10.33-56.67-.03-34.08-10.98-56.16-11.57-57.39-.12-.24-.26-.47-.4-.7 1.09-12.01 5.42-24.55 9.92-35.69a74.24 74.24 0 0 1-3.48-2.83c-8.92-7.74-13.46-15.38-14.64-17.54-1.4-2.64-1.68-5.58-.82-8.35.85-2.77 2.74-5.05 5.3-6.4a10.865 10.865 0 0 1 14.66 4.48c.1.17.22.38.39.66.34.55.92 1.44 1.73 2.54 1.21 1.64 3.1 3.95 5.65 6.4.85-2.85 1.24-5.8 1.14-8.63 1.82-1.85 3.81-4.08 5.81-6.7.91-1.19 1.83-2.48 2.74-3.83a26.64 26.64 0 0 1-5.11-1.76 26.43 26.43 0 0 1-9.59-7.52c-.6.89-1.22 1.74-1.83 2.55-.59.78-1.19 1.51-1.78 2.2-8.68-2.95-21.44-.08-29.39 13.32zM256.57 101.59c-13.5 0-24.44 10.94-24.44 24.44 0 13.5 10.94 24.44 24.44 24.44 5.46 0 10.51-1.8 14.58-4.83-.17-1.21-.26-2.45-.26-3.7 0-8.25 3.77-15.63 9.68-20.52-2.16-11.3-12.08-19.83-24-19.83zM354.33 111.73c-13.5 0-24.44 10.94-24.44 24.44 0 13.5 10.94 24.44 24.44 24.44 3.54 0 6.9-.76 9.93-2.11-.14-10.09 5.51-19.45 14.44-24.04-.88-12.7-11.45-22.72-24.37-22.72zM118.92 212.08c0 .07.04 1.16 2.63 3.61.94.89 2.16 1.84 3.58 2.81l1.31-6.3c-1.03.05-2.05.08-3.04.08-1.55 0-3.03-.08-4.48-.2z"/><path d="M81.74 191.36c-.84-1.15-1.45-2.09-1.83-2.69-.19-.31-.32-.53-.39-.66-.02-.03-.03-.06-.05-.08l-.02-.04c-2.25-4.22-7.49-5.82-11.72-3.59-4.24 2.24-5.87 7.5-3.62 11.74.34.62 4.65 8.72 14.19 17 6.85 5.98 16.68 12 29.36 14.87-4.71-4.82-7.2-10.26-7.19-15.82 0-1.67.23-3.24.61-4.71-4.52-2.16-8.28-4.81-11.4-7.48-3.6-3.11-6.23-6.25-7.93-8.54zM365.8 309.69h.54v-16.57h-.54zM354.91 270.2c-.68 0-1.36-.06-2.03-.19l-3.48 11.35h10.78l-3.47-11.31c-.6.1-1.2.15-1.81.15zM380.04 321.13l-.08-2.09c-.01-.17-.18-4.74-.2-12.12l-2.74 12.9-.37 1.72h-39.99l4.39 37.92c.24 2.06.05 4.06-.47 5.95h64.65v-44.29h-25.2zM298.8 265.81h-2.59l-11.26 97.25c-.09.81-.26 1.59-.47 2.35h26.06c-.21-.76-.38-1.55-.47-2.35l-11.26-97.25zM110.17 303.42h-2.67l.54-2.62 12.75-61.38H89.17v125.99h42.36v-61.99zM253.95 359.47l12.02-103.78c-.01-.14-.02-.29-.02-.44v-14.69c-1.17-.19-2.29-.58-3.33-1.13h-18.69L210.72 96.95l-13.22 3.08 28.15 120.74c1.94 3.22 3.84 6.64 5.7 10.28 2.32 4.53.53 10.1-4 12.43a9.21 9.21 0 0 1-4.21 1.02c-3.48 0-6.64-1.92-8.22-5.02-.01-.02-.02-.03-.03-.05h-21.2l12.75 61.38.54 2.61h-24.03v61.99h71.48c-.52-1.88-.71-3.89-.47-5.95zM354.53 309.69h.54v-16.57h-.54zM343.26 309.69h.54v-16.57h-.54zM369.56 281.35h10.69c.44-10.45 1.25-22.12 2.67-33.73-4.09.58-8.4.88-12.93.88h-.04c-1.48 0-2.98-.04-4.49-.1.21 3.49.32 7.12.31 10.93 0 1.84-.46 3.64-1.35 5.24l5.14 16.78zM329.05 255.24c0 .15-.01.29-.02.43l2.97 25.68h8.03l5.22-17.05c-.79-1.53-1.21-3.23-1.21-4.97-.01-7.11-.43-13.75-1.24-19.91h-13.75v15.82zM94.63 173.59c12.25 5.67 26.77.33 32.43-11.92 5.67-12.25.33-26.77-11.92-32.43-12.25-5.67-26.77-.33-32.43 11.91-5.66 12.25-.33 26.77 11.92 32.43zM151.7 173.35c13.14 3.06 26.28-5.11 29.34-18.25 3.06-13.14-5.12-26.28-18.25-29.34-13.14-3.06-26.28 5.11-29.34 18.26-3.06 13.14 5.11 26.28 18.26 29.34z"/><path d="M102.63 212.1c0 5.8 3.06 11.13 7.8 15.5 3.36 3.12 7.7 6.03 13.18 8.88l-13.45 64.77h23.53v64.66c0 6 4.86 10.86 10.86 10.86 6 0 10.86-4.86 10.86-10.86v-64.66h3.62v64.66c0 6 4.86 10.86 10.86 10.86 6 0 10.86-4.86 10.86-10.86v-64.66h23.53l-20.89-100.56c1.19.54 2.37 1.13 3.55 1.8 9.38 5.32 19.38 15.54 29.88 35.99a7.053 7.053 0 0 0 6.29 3.84 7.063 7.063 0 0 0 6.28-10.29c-11.23-21.91-22.94-34.71-35.47-41.82-12.52-7.12-25.16-8.06-36.7-8.06-10.77.03-23.24 2.54-33.77 7-5.26 2.26-10.04 4.99-13.89 8.58-3.78 3.52-6.94 8.39-6.95 14.36zm16.61-4.06c2.36-2.27 6.61-4.7 11.67-6.67l-4.29 20.64c-2.88-1.71-5.05-3.32-6.57-4.75-3.03-2.86-3.3-4.48-3.31-5.16-.01-.71.37-2.04 2.49-4.06zM367.06 163.65c3.06 13.14 16.19 21.31 29.34 18.25 13.15-3.06 21.32-16.19 18.26-29.34-3.06-13.14-16.2-21.31-29.34-18.26-13.14 3.06-21.31 16.2-18.25 29.34zM392.4 211.36c-1.37 4.34-2.56 8.98-3.6 13.79 1.34-.45 2.64-.94 3.85-1.51 4.46-2.09 7.96-4.84 10.67-8.42 4.56-5.97 5.04-12.5 5.05-12.57.23-5.59 4.75-9.93 10.3-9.93.11 0 .23 0 .34.01 5.68.18 10.16 4.95 9.98 10.64-.11 2.21-.67 7.92-3.73 14.93-2.56 5.92-8.96 16.87-23.12 23.68-5.07 2.46-10.77 4.21-17.01 5.28-1.46 11.73-2.29 23.54-2.74 34.1h2.78l-.55 2.62-2.66 12.51c-.19 13.44.16 22.47.16 22.47h25.61v46.98c0 7.2 5.84 13.03 13.03 13.03 7.2 0 13.03-5.84 13.03-13.03v-46.98h24.74s5.48-138.93-38.21-138.93c-3.38 0-6.46.83-9.28 2.37-.79.28-1.54.69-2.24 1.23l-.02.02c-.53.41-7.48 5.64-18.15 10.67-9.54 4.52-22.02 8.8-35.42 9.65 2.12 4.55 4.09 9.81 5.74 15.84 11.85-1.33 22.55-4.7 31.43-8.44z"/><path d="M365.32 246.23c1.58.06 3.12.1 4.62.1h.04c12.87 0 23.15-2.4 31.21-6.31 12.15-5.85 18.83-15.08 22.07-22.59 3.29-7.55 3.52-13.45 3.55-14.13.14-4.5-3.38-8.26-7.88-8.4-4.47-.14-8.21 3.35-8.4 7.8 0 0 0 .02-.01.08-.05.8-.79 7.6-5.48 13.76-2.49 3.28-6 6.51-11.49 9.08-5.49 2.55-13.05 4.43-23.61 4.43-2.11 0-4.35-.08-6.7-.24.93 5.03 1.65 10.49 2.08 16.43z"/><path d="M261.95 236.38a8.666 8.666 0 0 0 5.7 2.14c.16 0 .31-.02.47-.02v16.75c0 .16.02.33.02.49L256.1 359.73c-.85 7.37 4.43 14.03 11.79 14.88 7.37.85 14.03-4.42 14.89-11.79l11.49-99.17h6.46l11.49 99.17c.85 7.37 7.52 12.65 14.88 11.79 7.37-.85 12.65-7.51 11.79-14.88l-5.25-45.34 1.06 4.99h40.19l7.6-35.84h-14.54l-5.9-19.25a8.67 8.67 0 0 0 1.55-4.94c.04-34.97-9.28-56.63-19.45-69.37-10.14-12.77-20.65-16.3-21.82-16.64-.32-.1-.63-.17-.95-.23-.9-.33-1.88-.52-2.9-.52H278.5c-.33-.03-.66-.04-.99-.03-.05 0-.25.01-.55.03h-.44c-.45 0-.9.05-1.33.12-3.17.25-9.19.92-15.64 2.84-4.61 1.41-9.52 3.4-13.9 7.01-2.17 1.81-4.2 4.09-5.69 6.93-1.49 2.82-2.36 6.18-2.35 9.64.02 5.87 2.24 11.68 6.2 17.66 3.99 6 9.85 12.38 18.15 19.62zm84.02 75.48h-4.89v-20.91h4.89v20.91zm11.27 0h-4.89v-20.91h4.89v20.91zm6.38-20.91h4.89v20.91h-4.89v-20.91zm-.5-7.42h-16.66l4.97-16.23c1.06.47 2.24.73 3.47.73 1.16 0 2.26-.23 3.27-.64l4.94 16.15zm-30.52-79.98c6.76 9.85 13.59 26.71 13.61 55.78 0 1.74.51 3.35 1.39 4.71l-5.97 19.49h-11.57l-3.22-27.8c.01-.16.02-.32.02-.48v-58.56c1.84 1.81 3.79 4.06 5.73 6.87zm-77.27-6.02c.37-.76 1.53-2 3.71-3.17 2.41-1.34 5.83-2.41 9.08-3.13v27.24c-4.6-4.44-7.8-8.24-9.83-11.33-2.77-4.17-3.33-6.84-3.31-8.05.01-.75.13-1.11.36-1.57zM297.5 166.37c13.5 0 24.44-10.94 24.44-24.44 0-13.5-10.94-24.44-24.44-24.44-13.5 0-24.44 10.94-24.44 24.44 0 13.5 10.94 24.44 24.44 24.44zM312.88 78.83c2.47-.35.07-2.4-1.43-2.19-20.2 2.86-17.15-32.76 2.09-24.4.61.27 2.76.6 2.57-.65-1.65-11.21 4.67-20.22 16.68-17.51 4.18.94 8.13 3.41 10.21 7.21 2.6 4.75-.56 9.79-3.91 13.12-1.08 1.08 2.13 2.01 2.84 1.75 7.61-2.87 14.98-1.28 15.64 7.8.49 6.78-4.73 12.12-11.47 9.93-1.76-.57-2.89.92-.98 1.83 5.89 2.82 7.29 8.47 3.35 13.59-5.22 6.77-13.75 4.69-19.01-.7-.45-.46-1.56-.67-2.37-.57 1.12-1.08 2.17-2.24 3.12-3.48.47-.62-2.03-3.18-1.99-3.24-4.81 6.36-12.2 10.56-19.92 12.6 4.62-4.79 9.53-10.78 9.49-16.57-.01-1.04-2.03-2.7-2.03-3.05.05 7.62-8.85 15.8-13.88 20.81-.31.31 1.5 3.29 1.99 3.24 7.95-.85 16.2-4.02 22.31-9.46.06.14.15.29.32.46 6 6.14 16.09 9.48 23.4 3.31 6.1-5.15 5.47-11.69.62-16.04 6.56-.16 11.25-5.36 10.7-13-.65-8.97-8.67-11.74-16.19-10.84 5.8-8.78-.69-17.51-11.04-20.54-5.12-1.49-11.04-1.29-15.7 1.44-5.62 3.29-6.64 9.93-6.05 15.89-9.02-2.59-17.49 1.37-18.47 11.98-1.04 11.32 8.36 18.78 19.12 17.26z"/><path d="M318.99 70.22c5.74-3.6 13.68-1.38 16.01 5.31.5 1.43 2.37 2.87 1.51.4-2.74-7.85-11.08-14.21-19.15-9.15-.84.53.96 3.86 1.63 3.43zM10.74 130c-4.85 4.35-5.48 10.89.62 16.04 7.31 6.17 17.4 2.83 23.4-3.31.17-.17.27-.33.32-.46 6.12 5.44 14.36 8.61 22.31 9.46.49.05 2.3-2.93 1.99-3.24-5.03-5.01-13.93-13.2-13.88-20.81 0 .35-2.03 2.02-2.03 3.05-.04 5.79 4.87 11.78 9.49 16.57-7.72-2.03-15.11-6.24-19.92-12.6.04.05-2.46 2.62-1.99 3.24.94 1.25 1.99 2.4 3.12 3.48-.82-.1-1.92.1-2.37.57-5.26 5.39-13.79 7.47-19.01.7-3.94-5.12-2.54-10.78 3.35-13.59 1.91-.91.77-2.41-.98-1.83-6.74 2.2-11.96-3.15-11.47-9.93.65-9.08 8.02-10.67 15.64-7.81.71.27 3.92-.66 2.84-1.74-3.35-3.34-6.51-8.37-3.91-13.12 2.08-3.8 6.04-6.27 10.21-7.21 12.01-2.71 18.33 6.3 16.68 17.51-.18 1.25 1.96.92 2.57.65 19.24-8.36 22.29 27.26 2.09 24.4-1.5-.21-3.89 1.84-1.43 2.19 10.75 1.52 20.16-5.93 19.12-17.25-.98-10.61-9.45-14.58-18.48-11.98.59-5.96-.43-12.6-6.05-15.89-4.66-2.73-10.59-2.93-15.7-1.44-10.36 3.02-16.84 11.75-11.04 20.54-7.51-.9-15.54 1.87-16.18 10.84-.55 7.63 4.14 12.83 10.7 13z"/><path d="M24.75 129.3c-.86 2.47 1.01 1.03 1.51-.4 2.33-6.69 10.27-8.91 16.01-5.31.67.42 2.47-2.91 1.63-3.43-8.06-5.07-16.41 1.29-19.15 9.15zM405.77 107c1.93-.27.05-1.88-1.11-1.71-15.78 2.23-13.4-25.59 1.63-19.06.48.21 2.16.47 2.01-.51-1.29-8.76 3.64-15.8 13.03-13.68 3.26.74 6.35 2.66 7.98 5.63 2.03 3.71-.43 7.65-3.05 10.25-.85.84 1.66 1.57 2.21 1.36 5.95-2.24 11.71-1 12.22 6.1.38 5.3-3.69 9.47-8.96 7.76-1.37-.45-2.26.72-.77 1.43 4.6 2.2 5.7 6.62 2.62 10.62-4.08 5.29-10.74 3.66-14.85-.55-.35-.36-1.22-.52-1.85-.44.88-.84 1.7-1.75 2.43-2.72.37-.48-1.59-2.49-1.55-2.53-3.75 4.97-9.53 8.25-15.56 9.84 3.61-3.74 7.45-8.42 7.41-12.94 0-.81-1.59-2.11-1.59-2.38.04 5.95-6.91 12.34-10.84 16.26-.24.24 1.17 2.57 1.55 2.53 6.21-.66 12.65-3.14 17.43-7.39.04.11.12.23.25.36 4.69 4.8 12.57 7.41 18.28 2.59 4.77-4.02 4.27-9.13.48-12.53 5.12-.13 8.79-4.19 8.36-10.15-.51-7.01-6.77-9.17-12.64-8.47 4.53-6.86-.54-13.68-8.63-16.04-4-1.17-8.63-1.01-12.27 1.12-4.39 2.57-5.18 7.75-4.73 12.41-7.05-2.03-13.67 1.07-14.43 9.36-.82 8.85 6.53 14.67 14.93 13.48z"/><path d="M410.55 100.27c4.48-2.82 10.68-1.08 12.5 4.15.39 1.12 1.85 2.24 1.18.31-2.14-6.14-8.66-11.1-14.96-7.14-.66.41.75 3.01 1.27 2.68z"/></g></svg>