<svg xmlns="http://www.w3.org/2000/svg" xml:space="preserve" viewBox="0 0 1007.99 562.87" shape-rendering="geometricPrecision" text-rendering="geometricPrecision" image-rendering="optimizeQuality" fill-rule="evenodd" clip-rule="evenodd"><g fill="currentColor"><path d="M335.43 489c4.04 2.42 12.53-20.54 13.91-28.74 5.49-32.7 37.09-55.16 70.63-76.68-44.14.28-48.16 25.97-59.56 19.54-11.4-6.43-11.21-28.81-37.89-44 8.4 14.32 17.15 32.36 22.8 44.47 10.27 5.1 15.81 16.96 12.55 28.37-2.29 8-8.53 14.12-16.21 16.5-1.4 4.53-2.52 8.22-2.99 9.83-1.76 6.07-7.27 28.29-3.23 30.72z"/><path d="M966.77 448.58c-41.23 15.76-35.97 41.23-48.91 39.21-12.93-2.02-20.61-23.04-50.93-27.89 21.42 17.38 47.39 44.06 47.39 44.06v34.67H800.91c-2.16-38.59 17.15-59.79 39.75-90.04-41.23 15.76-35.97 41.23-48.91 39.21-12.93-2.02-20.61-23.04-50.93-27.89 21.42 17.38 47.39 44.06 47.39 44.06v34.67H668.74c-2.16-38.59 17.15-59.79 39.75-90.04-41.23 15.76-35.97 41.23-48.91 39.21-12.93-2.02-20.61-23.04-50.93-27.89 21.42 17.38 47.39 44.06 47.39 44.06v34.67H542.63c-2.16-38.59 17.15-59.79 39.75-90.04-41.23 15.76-35.97 41.23-48.91 39.21-12.93-2.02-20.61-23.04-50.93-27.89 21.42 17.38 47.39 44.06 47.39 44.06v34.67H-.02v24.25h1007.99v-24.25h-80.98c-2.16-38.59 17.15-59.79 39.75-90.04zM213.09 173.43c-.34.61-.68 1.22-.99 1.85-13.61 26.88-2.84 59.7 24.04 73.31s59.7 2.84 73.31-24.04a54.369 54.369 0 0 0 5.3-16.74c-17.81-4.54-34.98-9.7-48.56-14.22-15.1-5.03-34.22-12.1-53.1-20.15zM339.87 406.64c-10.28-2.94-19.56-6.85-27.93-11.43l-10.7 38.1c8.63 4.16 17.93 7.77 27.97 10.63 1.78.51 3.58.75 5.34.76 8.44 0 16.21-5.56 18.64-14.07 2.94-10.3-3.02-21.04-13.32-23.98zM242.42 310.47c-1.58-4.27-2.65-7.72-3.31-10.02-.33-1.15-.56-2.01-.7-2.54-.07-.26-.11-.45-.14-.54v-.02c-2.35-10.45-12.74-17.02-23.18-14.67-10.45 2.36-17.02 12.74-14.67 23.19.34 1.34 6.23 27.44 25.03 57.81 1.29 2.09 2.67 4.22 4.1 6.35l31.5-19.49c.52-.32 1.05-.61 1.59-.91-1.47-2.14-2.89-4.29-4.22-6.41-7.71-12.41-12.85-24.2-15.99-32.73z"/><path d="M217.24 490.25c-4.53 16.12 4.87 32.86 20.99 37.38 2.74.77 5.5 1.14 8.21 1.14 13.24 0 25.41-8.75 29.17-22.12l33.14-118.03a30.235 30.235 0 0 0-10.96-32.42 30.205 30.205 0 0 0-34.18-1.54L183 404.58l-1.36-4.91 43.78-27.09c-1.44-2.15-2.82-4.28-4.1-6.35-17.29-27.94-23.95-52.25-25.57-59.04l-.01-.03-.05-.22c-1.42-6.32-.3-12.82 3.17-18.3 3.46-5.47 8.85-9.27 15.17-10.69 1.76-.4 3.56-.59 5.34-.59 11.34 0 21 7.7 23.59 18.73l-.02-.09.07.28c-.01-.07-.04-.13-.05-.19l.09.37.07.26c.13.5.34 1.32.66 2.41.6 2.08 1.65 5.47 3.2 9.68 2.82 7.63 7.8 19.35 15.57 31.85 1.48 2.37 3.01 4.66 4.57 6.9 3.97-1.51 8.19-2.31 12.47-2.31 7.67 0 14.97 2.45 21.13 7.08.5.38.97.78 1.44 1.17 15.11-4.2 31.45-12.88 50.02-26.62 8.6-6.39 10.39-18.55 4-27.14-6.4-8.6-18.55-10.39-27.15-3.99-23.53 17.58-39.34 22.1-47.39 21.95-5.57-.11-8.2-1.42-11.14-3.67-4.3-3.3-8.33-10.7-10.43-17.75-.33-1.06-.61-2.08-.87-3.07-.43-13.2-5.69-25.08-16.24-30.62-18.88-9.93-50.71-6.13-71 25.46-27.65 43.61-38.65 73.7-45.36 127.52-1.9 39.73 16.83 47.15 38.48 52.16 3.93.91 7.43 1.7 10.57 2.2 7.58 1.8 15.84.71 22.98-3.72l1.21-.75 29.5-18.27-12.09 43.05zM298 98.1c-18.71-6.23-37.06-1.86-41.52 9.73-59.88-11.39-110.42-.58-114.33 11.16-4.66 13.99 51.56 45.33 125.58 69.99 74.02 24.66 137.8 33.31 142.46 19.32 3.91-11.74-30.05-50.7-84.79-77.51 3.37-11.95-8.68-26.45-27.39-32.69zM782.4 131.39c-54.22-10.65-56.38-20.81-10.32-51.14-53.87 11.87-59.52 3.56-28.16-41.76-45.32 31.36-53.64 25.71-41.76-28.16-30.34 46.06-40.49 43.9-51.14-10.33-10.65 54.22-20.8 56.38-51.14 10.33 11.87 53.87 3.56 59.52-41.76 28.16 31.36 45.32 25.71 53.64-28.16 41.76 46.06 30.34 43.9 40.49-10.33 51.14 54.22 10.65 56.38 20.8 10.33 51.14 53.87-11.87 59.52-3.56 28.16 41.76 45.32-31.36 53.64-25.71 41.76 28.16 30.34-46.06 40.49-43.9 51.14 10.32 10.65-54.22 20.81-56.38 51.14-10.32-11.87-53.87-3.56-59.52 41.76-28.16-31.36-45.32-25.71-53.64 28.16-41.76-46.06-30.34-43.9-40.49 10.32-51.14zm-131.38 43.65c-24.11 0-43.65-19.54-43.65-43.65s19.55-43.65 43.65-43.65c24.11 0 43.65 19.54 43.65 43.65s-19.55 43.65-43.65 43.65z"/></g></svg>