<svg xmlns="http://www.w3.org/2000/svg" xml:space="preserve" viewBox="0 0 1087.27 724.56" shape-rendering="geometricPrecision" text-rendering="geometricPrecision" image-rendering="optimizeQuality" fill-rule="evenodd" clip-rule="evenodd"><g fill="currentColor"><path d="m484.17 445.27 1.48-4.54H296.8v16.42h186.14a28.54 28.54 0 0 1 1.24-11.88zM818.88 440.73l-27.9 16.42H931.2l-31.24-16.42zM974.7 455.2c-.36.68-.78 1.31-1.2 1.95h113.77v-16.42H976.79c.94 4.76.34 9.85-2.09 14.47zM637.53 457.15l12.44-16.42H634.8c-5.2 4.51-11.84 7-18.73 7h-.01c-6.91 0-13.54-2.53-18.71-7h-51.1l-5.34 16.42h96.62zM239.51 106.06c2.89.7 5.68 1.75 8.42 2.95 5.65-10.44 8.86-22.4 8.86-35.1 0-40.82-33.09-73.9-73.9-73.9s-73.9 33.09-73.9 73.9a73.54 73.54 0 0 0 6.71 30.76h114.22c3.26 0 6.48.47 9.6 1.4zM285.09 110.85c-1.81 0-3.29-1.48-3.29-3.28V20.04c0-1.81 1.47-3.28 3.28-3.28h46.58c1.81 0 3.28 1.48 3.28 3.28v43.81c3 .03 5.9.47 8.68 1.24V12.92c0-5.42-4.44-9.85-9.86-9.85h-50.8c-5.42 0-9.85 4.44-9.85 9.85V114.7c0 5.42 4.44 9.85 9.85 9.85h16.69c.22-4.09.37-8.64.43-13.69h-15.01z"/><path d="M26.63 394.74c.28 0 .57 0 .86-.01 14.5-.46 25.89-12.6 25.42-27.1-2.73-85.31 10.35-135.74 24.73-165.15v146.97L46.91 680.2c-2.08 22.34 14.35 42.11 36.67 44.19 22.33 2.08 42.12-14.34 44.2-36.67l27.82-299.43h20.55l27.82 299.43c2.07 22.34 21.87 38.75 44.2 36.67 22.32-2.07 38.75-21.85 36.67-44.19L255.3 362.3V190.11c15.22 12.1 32.91 23.46 51.29 23.46 6.13 0 12.35-1.26 18.56-4.19 25.96-12.2 36.63-45.52 35.69-111.44-.21-14.38-11.93-25.9-26.27-25.9h-.38c-14.51.21-26.11 12.14-25.9 26.65.54 37.31-3.26 53.81-5.73 60.55-7.65-4.12-19.65-14.37-26.69-20.38-14-11.95-25.58-21.81-38.52-24.88-2.35-.72-4.85-1.11-7.45-1.11H103c-2.95 0-5.76.53-8.39 1.45l-.28-.93C83.97 116.51-6.64 150.17.37 369.31c.46 14.22 12.12 25.43 26.25 25.43zM499.56 109.96l57.1 91.77-15.68 99.39-47.86 147.07c-3.32 10.19 2.26 21.14 12.44 24.45 10.19 3.32 21.14-2.25 24.45-12.44l43.54-133.79c.3.89.65 1.78 1.1 2.64 3.41 6.62 10.13 10.42 17.1 10.42 2.96 0 5.97-.69 8.79-2.14l69.8-35.96 78.37 31.96c9.82 4.01 21.04-.71 25.05-10.54 4.01-9.83-.71-21.05-10.54-25.06l-86.56-35.3a19.23 19.23 0 0 0-16.06.71l-30.16 15.54 9.16-58.08 105.26-3.4c6.93-.22 12.36-6.02 12.14-12.95-.22-6.93-6.09-12.37-12.95-12.14l-114.2 3.69-52.48-8.28-56.08-90.12 138.17-79.84-5.49-9.51-138.48 80.02c-3.69-5.79-11.36-7.55-17.21-3.91-5.61 3.49-7.5 10.68-4.49 16.45l-6.92 4 5.5 9.51 7.19-4.16z"/><path d="M616.07 438.31c4.53 0 9.08-1.59 12.74-4.84l52.22-46.27 48.29 24.33 4.22 7.18-41.41-3.35a19.225 19.225 0 0 0-16.87 7.55l-52.3 69.04c-6.41 8.46-4.75 20.52 3.71 26.93 3.48 2.63 7.55 3.9 11.59 3.9 5.81 0 11.55-2.63 15.33-7.62l45.94-60.64 60.62 4.9c.65.05 1.29.07 1.93.06 2.87.62 5.97.22 8.7-1.39l86.06-50.65 92.54 48.64c1.86.98 3.86 1.45 5.83 1.45 4.52 0 8.88-2.44 11.12-6.72 3.23-6.13.86-13.72-5.27-16.95l-95.49-50.2-10.16-17.25c-1.32-1.65-2.55-3.4-3.64-5.24-1.06-1.8-1.94-3.67-2.73-5.57l-10.75-18.26-12.88-106.23c-.83-6.88-7.1-11.78-13.97-10.95-6.88.84-11.79 7.09-10.95 13.97l12.23 100.78-69.19 40.73-56.87-28.65a19.23 19.23 0 0 0-21.4 2.78l-61.98 54.92c-7.94 7.04-8.68 19.19-1.64 27.14 3.8 4.29 9.08 6.48 14.4 6.47zM895.74 287.56a2.353 2.353 0 0 0 2.74 1.89 2.346 2.346 0 0 0 1.89-2.74l-2.61-14.29 12.23 11.82c.59.57 1.44.79 2.23.58.79-.21 1.43-.82 1.66-1.61l3.67-12.34 6.38 13.89a2.39 2.39 0 0 0 1.8 1.35c.79.12 1.59-.18 2.11-.78l13.39-15.26-1.72 19.54a2.345 2.345 0 0 0 2.96 2.47l17.25-4.72-11.18 16.12c-.46.66-.55 1.5-.24 2.24.31.74.97 1.27 1.75 1.42l16.5 2.99-19.3 10.03c-.64.33-1.1.94-1.23 1.66-.13.71.07 1.45.55 1.99l8.23 9.29-12.14-.87c-1.25-.08-2.42.88-2.52 2.18-.09 1.3.88 2.42 2.18 2.51l17.9 1.29c.06.01.11.01.17.01.89 0 1.71-.5 2.11-1.31.42-.86.29-1.89-.35-2.6l-10.06-11.35 22.74-11.82a2.358 2.358 0 0 0-.67-4.41l-19.68-3.57 12.79-18.43c.56-.81.56-1.89-.02-2.7a2.35 2.35 0 0 0-2.54-.91l-20.23 5.54 2.05-23.34a2.353 2.353 0 0 0-4.11-1.76l-15.74 17.95-7.48-16.28a2.337 2.337 0 0 0-2.31-1.36c-.98.07-1.81.74-2.09 1.67l-4.34 14.63-14.71-14.21c-.74-.71-1.85-.86-2.75-.38-.9.48-1.39 1.49-1.21 2.5l3.93 21.5zM614.07 105.84c1.05-.76 1.28-2.24.52-3.29l-8.55-11.75 16.14 5.35c.78.26 1.64.09 2.26-.44.63-.53.93-1.35.8-2.17l-2.04-12.72 11.77 9.75c.62.51 1.45.67 2.21.43a2.35 2.35 0 0 0 1.56-1.62l5.45-19.56 6.92 18.36c.27.72.88 1.27 1.63 1.45.74.19 1.54 0 2.12-.5l13.5-11.73-3.09 19.37c-.13.79.16 1.59.75 2.12.6.53 1.42.73 2.19.51l16.16-4.45-13.05 17.4c-.43.58-.58 1.33-.39 2.03.19.7.69 1.27 1.36 1.55l11.44 4.8-11.32 4.47a2.37 2.37 0 0 0-1.33 3.06c.37.92 1.25 1.49 2.19 1.49.29 0 .58-.05.86-.17l16.7-6.59c.89-.35 1.48-1.21 1.49-2.16.01-.96-.56-1.83-1.44-2.19l-13.98-5.87 15.37-20.5a2.352 2.352 0 0 0-2.51-3.68l-19.28 5.31 3.53-22.16a2.354 2.354 0 0 0-3.87-2.15l-15.83 13.76-8.26-21.93a2.326 2.326 0 0 0-2.31-1.52c-1.02.05-1.89.74-2.16 1.72l-6.41 23-13.79-11.43a2.34 2.34 0 0 0-2.67-.23 2.35 2.35 0 0 0-1.15 2.42l2.42 15.06L600.56 84a2.36 2.36 0 0 0-2.64.84c-.6.82-.61 1.95 0 2.77l12.86 17.68a2.361 2.361 0 0 0 3.29.52z"/><path d="M663.96 157.26c3.04-19.26-10.11-37.34-29.37-40.37-19.26-3.04-37.34 10.11-40.37 29.37-3.03 19.26 10.11 37.34 29.37 40.38 19.26 3.04 37.34-10.11 40.37-29.37zM859.92 356.4c9.89 16.8 31.53 22.4 48.33 12.52 16.81-9.89 22.41-31.53 12.52-48.33-9.89-16.8-31.53-22.41-48.33-12.52-16.8 9.89-22.41 31.53-12.52 48.34z"/></g></svg>