<svg xmlns="http://www.w3.org/2000/svg" xml:space="preserve" viewBox="0 0 567.53 386.8" shape-rendering="geometricPrecision" text-rendering="geometricPrecision" image-rendering="optimizeQuality" fill-rule="evenodd" clip-rule="evenodd"><g fill="currentColor" fill-rule="nonzero"><path d="M362.27 202.9c6.31 1.47 12.6-.65 16.78-5.01-.14-.23-.28-.45-.42-.68h-25.74c2.36 2.75 5.58 4.81 9.38 5.69zM373.35 184.42c-.95-3.81.14-7.62 2.58-10.3l-2.05-4.43c-1.12-.53-2.31-.96-3.57-1.25-9.52-2.22-19.03 3.7-21.25 13.22-.22.93-.33 1.85-.4 2.77h24.69v-.01zM284.86 147.2l-16.46-16.46-1.63 1.63c.26.43.51.85.74 1.3l15.44 15.44 1.91-1.91zM293.92 138.13l-16.46-16.46-1.91 1.91 16.46 16.46zM258.72 112l-1.91 1.91 46.16 46.16 1.91-1.91zM158.12 31.28c.38-.36.58-.85.6-1.47-.06-.62-.28-1.09-.63-1.42-.36-.33-.77-.48-1.22-.46h-8.77v3.86h8.77c.45.02.87-.15 1.25-.51zM158.75 40.13c.53-.45.8-1.04.8-1.76.02-.8-.25-1.45-.82-1.95-.56-.49-1.19-.73-1.87-.71h-8.77v5.06h8.77a2.7 2.7 0 0 0 1.88-.65zM390.68 41.08c1.89 0 3.51-.67 4.86-2.01 1.35-1.34 2.02-2.94 2.02-4.82 0-1.81-.67-3.37-2.02-4.66-1.35-1.3-2.97-1.95-4.86-1.95-1.9 0-3.52.64-4.86 1.91-1.35 1.28-2.02 2.84-2.02 4.69 0 1.87.67 3.48 2.02 4.82 1.35 1.34 2.97 2.01 4.86 2.01zM381.71 77.18c.53-.45.8-1.04.8-1.76.02-.8-.25-1.45-.82-1.94-.56-.5-1.19-.73-1.87-.71h-8.77v5.06h8.77a2.7 2.7 0 0 0 1.88-.65zM401.4 64.7c-1.9 0-3.52.64-4.86 1.91-1.35 1.28-2.02 2.84-2.02 4.69 0 1.87.67 3.48 2.02 4.82 1.35 1.34 2.97 2.01 4.86 2.01 1.89 0 3.52-.67 4.86-2.01 1.35-1.34 2.02-2.94 2.02-4.82 0-1.81-.67-3.36-2.02-4.66-1.35-1.3-2.97-1.95-4.86-1.95zM426.57 78.13c1.9 0 3.52-.67 4.86-2.01 1.35-1.34 2.02-2.94 2.02-4.82 0-1.81-.67-3.36-2.02-4.66-1.35-1.3-2.97-1.95-4.86-1.95-1.89 0-3.52.64-4.86 1.91-1.35 1.28-2.02 2.84-2.02 4.69 0 1.87.67 3.48 2.02 4.82 1.35 1.34 2.97 2.01 4.86 2.01z"/><path d="M104.78 92.79c0 3.94-.64 7.74-1.81 11.29h6.05c3.49-13.19 15.52-22.95 29.79-22.95 1.49 0 2.95.11 4.39.32v-20.4h3.92v20.69h-2.21c11.51 2.32 20.72 11.08 23.7 22.34h21.05c2.47-.77 5.1-1.19 7.82-1.19 2.72 0 5.35.41 7.82 1.19h103.86v80.34h7.3v-80.34h251.07V0H49.86v61.66a36.007 36.007 0 0 1 18.63-5.17c20.01 0 36.3 16.28 36.3 36.29zm57.63-10.67c-2.95 0-5.45-1.05-7.54-3.13-2.08-2.09-3.12-4.61-3.12-7.55 0-3.01 1.04-5.54 3.13-7.61 2.09-2.07 4.64-3.1 7.67-3.1 3.66.08 6.55 1.6 8.65 4.57l-3.21 2.22c-1.52-1.88-3.39-2.81-5.59-2.81-1.87 0-3.47.65-4.77 1.95-1.31 1.3-1.96 2.87-1.96 4.72 0 1.9.65 3.5 1.96 4.8 1.3 1.31 2.9 1.96 4.77 1.96 2.08 0 3.94-.95 5.59-2.84l3.27 2.13c-2.28 3.13-5.24 4.69-8.86 4.69zm27.32-.37-6.33-10.59-4.63 4.79v5.8h-3.92V61.06h3.92v9.14l8.65-9.14h5.28l-6.51 7.13 8.03 13.55h-4.48zm25.56 0h-16.76V61.06h16.46v3.92h-12.54v3.77h7.25v4.01h-7.25v5.06h12.84v3.92zm193.72-2.81c-2.13 2.12-4.67 3.18-7.61 3.18-2.94 0-5.48-1.06-7.61-3.18s-3.2-4.64-3.2-7.56c0-3 1.04-5.53 3.12-7.58s4.64-3.07 7.69-3.07c2.88 0 5.4 1.05 7.56 3.15 2.16 2.1 3.24 4.58 3.24 7.44 0 2.96-1.07 5.51-3.2 7.63zm59.95 2.81h-3.92V61.06h3.92v20.69zm25.22 0h-3.92l-11.61-14.3v14.3h-3.92V61.06h3.86l11.61 14.45V61.06h3.98v20.69zm20.69-19.45c.95.64 1.93 1.64 2.96 2.99l-3.24 2.22c-1.36-1.88-3.13-2.81-5.31-2.81-1.99 0-3.58.61-4.75 1.84-1.17 1.22-1.76 2.89-1.76 4.99 0 1.96.55 3.55 1.65 4.77 1.1 1.22 2.56 1.84 4.37 1.84s3.23-.64 4.26-1.91c.41-.47.75-1.07 1.02-1.79h-4.63v-4.01h8.77v2.35c0 2.57-.91 4.77-2.73 6.61-1.82 1.83-4.05 2.75-6.69 2.75-2.96 0-5.41-1.07-7.35-3.21-1.73-1.91-2.59-4.4-2.59-7.47 0-3.19.97-5.77 2.92-7.75 1.95-1.98 4.48-2.96 7.61-2.96 2.1 0 3.93.52 5.5 1.58zm-27.31-38.29h16.46v3.92h-12.54v3.77h7.25v4.01h-7.25v5.06h12.84v3.92h-16.76V24.01zm-24.79 0h3.86l11.61 14.45V24.01h3.98v20.68h-3.92L466.69 30.4v14.29h-3.92V24.01zm-2.45 57.74h-4.48l-6.33-10.59-4.63 4.79v5.8h-3.92V61.06h3.92v9.14l8.65-9.14h5.28l-6.51 7.13 8.03 13.55zm-7.24-57.74H457v20.68h-3.92V24.01zm-22.17 0h3.92v16.77h12.84v3.92H430.9V24.02zm3.23 39.86c2.16 2.1 3.24 4.58 3.24 7.44 0 2.96-1.07 5.51-3.2 7.63s-4.67 3.18-7.61 3.18c-2.94 0-5.48-1.06-7.61-3.18s-3.19-4.64-3.19-7.56c0-3 1.04-5.53 3.12-7.58s4.64-3.07 7.69-3.07c2.88 0 5.4 1.05 7.56 3.15zm-28.02-39.86h3.86l11.61 14.45V24.01h3.98v20.68h-3.92L410.04 30.4v14.29h-3.92V24.01zM383 26.74c2.08-2.05 4.64-3.07 7.69-3.07 2.88 0 5.4 1.05 7.56 3.15 2.16 2.1 3.24 4.58 3.24 7.44 0 2.96-1.06 5.51-3.19 7.63s-4.67 3.18-7.61 3.18c-2.94 0-5.48-1.06-7.61-3.18s-3.2-4.64-3.2-7.56c0-3 1.04-5.53 3.12-7.58zm-15.85 34.32h12.69c1.65 0 3.02.53 4.11 1.57 1.09 1.05 1.64 2.37 1.64 3.95 0 2.04-.73 3.45-2.19 4.23 2.14.97 3.21 2.51 3.21 4.63 0 1.98-.64 3.52-1.9 4.63-1.27 1.11-2.89 1.67-4.86 1.67h-12.69V61.05zM309.17 8.22h7.3v87.65h-7.3V8.22zm-89.38 52.84h17.78v3.92h-6.94v16.77h-3.92V64.98h-6.92v-3.92zm-22.92-37.05 6.76 8.49 6.73-8.49h5l-9.79 12.35v8.33h-3.92v-8.33l-9.79-12.35h5zm-28.1 0h3.92v10.9c0 1.28.27 2.39.8 3.33.5.86 1.19 1.55 2.1 2.07.91.51 1.87.77 2.9.77 1.01 0 1.96-.26 2.85-.77.9-.52 1.59-1.21 2.09-2.07.54-.95.8-2.06.8-3.33v-10.9h3.89v10.9c0 2.18-.42 3.98-1.25 5.4-.83 1.42-2.01 2.57-3.53 3.44-1.53.88-3.14 1.31-4.85 1.31-1.71 0-3.34-.44-4.88-1.31-1.54-.87-2.73-2.03-3.55-3.47-.87-1.54-1.3-3.34-1.3-5.37v-10.9zm-24.58 0h12.69c1.65 0 3.02.52 4.11 1.57 1.09 1.05 1.64 2.37 1.64 3.95 0 2.04-.73 3.45-2.19 4.23 2.14.97 3.21 2.51 3.21 4.63 0 1.98-.63 3.52-1.9 4.63-1.26 1.11-2.88 1.67-4.86 1.67H144.2V24.01zm-23.67 37.05h17.79v3.92h-6.95v16.77h-3.92V64.98h-6.92v-3.92z"/><path d="M381.07 68.33c.38-.36.59-.85.6-1.47-.06-.62-.28-1.09-.63-1.42-.36-.33-.77-.48-1.22-.46h-8.77v3.86h8.77c.45.02.87-.15 1.25-.51zM402.53 216.84H293.15c.14 3.08.23 6.28.23 9.64 0 5.13-.17 10.66-.51 16.45-.31 5.37-4.77 9.58-10.15 9.58-.19 0-.39-.01-.58-.02-2.73-.16-5.22-1.37-7.03-3.4-.46-.52-.86-1.07-1.2-1.65v65.72h128.82c-.12-.76-.2-1.52-.2-2.31v-94.01zM457.6 310.85c0 .79-.08 1.55-.2 2.31h110.12v-96.32H458.37c-.26.1-.52.18-.77.27v93.75zM472.27 194.47h94.34v-7.31H472.1c.15 1.62.25 3.27.25 4.98 0 .76-.05 1.55-.08 2.32zM377.15 194.47c-.45-.89-.86-1.78-1.24-2.63-.76-1.78-1.33-3.38-1.76-4.67h-85.9c.78 2.27 1.47 4.71 2.07 7.31h86.82z"/><path d="M251.15 225.87c0 6.01-.2 12.49-.6 19.28-.09 1.47-.45 2.87-1.01 4.15v66.31c0 5.79 4.7 10.48 10.48 10.48 5.79 0 10.49-4.69 10.49-10.48V188.44c.5 1.03 1.01 2.21 1.51 3.6 2.39 6.62 4.4 17.49 4.39 34.46 0 4.68-.15 9.81-.48 15.45a6.782 6.782 0 0 0 6.38 7.17c.14.01.27.01.4.01 3.57 0 6.56-2.78 6.77-6.39.34-5.88.5-11.28.5-16.25-.03-25.6-4.12-39.76-9.7-48.28-2.78-4.23-6.04-6.94-9.05-8.44-2.84-1.43-5.35-1.78-6.88-1.81-.13-.01-.26-.02-.39-.02h-24.32c7.7 12.33 11.48 31.29 11.52 57.93z"/><path d="M245.61 254.11a11.862 11.862 0 0 1-6.96 2.26c-.22 0-.45-.01-.68-.02-3.2-.19-6.12-1.6-8.24-3.98-.54-.6-1.01-1.26-1.41-1.94v73.14c1.83 1.56 4.2 2.51 6.79 2.51 5.79 0 10.49-4.69 10.49-10.48v-61.48zM247.58 163.1c10.54 0 19.08-8.54 19.08-19.08s-8.55-19.08-19.08-19.08c-10.54 0-19.08 8.55-19.08 19.08 0 10.54 8.54 19.08 19.08 19.08z"/><path d="M201.62 225.03c0 7.03-.24 14.62-.7 22.55-.1 1.69-.5 3.28-1.14 4.75v77.98c0 6.79 5.51 12.29 12.29 12.29 6.79 0 12.29-5.5 12.29-12.29V181.28c.59 1.21 1.18 2.59 1.77 4.21 2.8 7.76 5.16 20.5 5.15 40.39 0 5.48-.18 11.5-.56 18.11-.26 4.38 3.09 8.14 7.47 8.4.16.01.31.01.47.01 4.18 0 7.69-3.26 7.93-7.49.4-6.89.59-13.22.59-19.04-.04-30-4.83-46.6-11.37-56.58-3.26-4.95-7.08-8.13-10.61-9.89-3.33-1.68-6.26-2.08-8.06-2.12-.15-.01-.3-.02-.46-.02h-28.52c9.01 14.43 13.42 36.6 13.46 67.77z"/><path d="M195.18 258.05c-2.31 1.67-5.13 2.67-8.18 2.67a13.887 13.887 0 0 1-10.42-4.68 14.43 14.43 0 0 1-1.65-2.27v85.88c2.14 1.83 4.92 2.94 7.96 2.94 6.79 0 12.29-5.5 12.29-12.29v-72.26zM197.48 151.6c12.35 0 22.36-10.01 22.36-22.36s-10.01-22.36-22.36-22.36-22.36 10.01-22.36 22.36 10.01 22.36 22.36 22.36z"/><path d="M142.45 225.95c0 8.29-.28 17.22-.82 26.56-.02.39-.07.77-.12 1.15v93.57c0 7.94 6.44 14.38 14.38 14.38s14.38-6.43 14.38-14.38V172.85c.69 1.41 1.39 3.04 2.07 4.93 3.28 9.08 6.03 23.99 6.03 47.26 0 6.41-.21 13.46-.66 21.19-.3 5.13 3.62 9.53 8.75 9.83.18.01.36.02.55.02 4.89 0 8.99-3.82 9.28-8.76.47-8.06.69-15.47.69-22.28-.05-35.1-5.65-54.52-13.3-66.21-3.82-5.8-8.29-9.52-12.42-11.58-3.9-1.96-7.33-2.44-9.44-2.48-.18-.01-.35-.03-.54-.03h-35.55c.05.08.11.16.16.24 11.1 16.95 16.51 43.44 16.56 80.97z"/><path d="M136.12 263.84c-2.91 2.58-6.72 4.16-10.89 4.16-.31 0-.62-.01-.94-.03-4.41-.26-8.43-2.21-11.35-5.48-.74-.83-1.39-1.73-1.94-2.67v96.96c2.63 2.96 6.46 4.84 10.73 4.84 7.94 0 14.38-6.43 14.38-14.38v-83.4zM164.98 111.95c0-14.45-11.72-26.17-26.16-26.17-14.45 0-26.17 11.72-26.17 26.17 0 14.45 11.71 26.17 26.17 26.17 14.45 0 26.16-11.71 26.16-26.17z"/><path d="M11.75 262.52c.22 0 .43-.01.65-.02 6.04-.36 10.65-5.54 10.3-11.58-.54-9.11-.78-17.4-.78-24.95-.05-33.16 4.79-51.79 9.54-61.51v205.42c0 9.36 7.58 16.93 16.93 16.93s16.93-7.58 16.93-16.93V246.25h6.35v123.63c0 9.36 7.58 16.93 16.93 16.93s16.94-7.58 16.94-16.93V164.51c.81 1.67 1.63 3.58 2.44 5.81 3.86 10.7 7.11 28.26 7.09 55.66 0 7.55-.24 15.85-.77 24.96-.36 6.04 4.26 11.22 10.3 11.58.22.01.43.02.65.02 5.76 0 10.59-4.5 10.93-10.32.55-9.49.81-18.21.81-26.23-.05-41.34-6.66-64.21-15.66-77.97-4.5-6.83-9.76-11.21-14.62-13.63-4.59-2.32-8.63-2.87-11.12-2.92-.21-.01-.41-.03-.63-.03H42.05c-.21 0-.42.02-.62.03-2.48.05-6.53.6-11.12 2.92-7.37 3.65-15.31 11.64-20.87 25.8-5.62 14.22-9.4 34.77-9.42 65.8 0 8.02.26 16.74.82 26.24.34 5.82 5.17 10.32 10.93 10.32zM99.3 92.79c0-17.02-13.79-30.81-30.81-30.81s-30.81 13.8-30.81 30.81c0 17.02 13.8 30.81 30.81 30.81 17.02 0 30.81-13.79 30.81-30.81zM413.29 159.08h29.25c2.93-3.39 4.71-7.79 4.71-12.62 0-10.68-8.65-19.33-19.33-19.33-10.68 0-19.33 8.66-19.33 19.33 0 4.83 1.78 9.23 4.71 12.62z"/><path d="M379.84 190.1c1.62 3.66 3.86 8.2 8.22 11.78v.01c.01.01.03.02.04.03 2.37 1.91 5.7 3.5 9.52 3.5h.05c.13 0 .27 0 .44-.01 1.72-.04 3.5-.53 4.96-1.36 1.47-.82 2.61-1.9 3.48-2.98.09-.12.17-.24.26-.35v110.14c0 5.87 4.76 10.62 10.63 10.62 5.87 0 10.62-4.75 10.62-10.62v-77.57h3.98v77.57c0 5.87 4.76 10.62 10.63 10.62 5.86 0 10.62-4.75 10.62-10.62v-96.99c2.88-.66 6.49-1.8 9.76-4.86 2.21-2.07 4.04-5.26 4.46-8.88.36-2.81.53-5.47.53-7.98 0-9.58-2.51-17.2-6.74-22.57-3.33-4.24-7.73-6.95-12.34-7.9-.72-.27-1.5-.44-2.31-.44h-33.2c-.4 0-.79.05-1.17.12-1.64.2-3.27.73-4.62 1.56-1.76 1.05-3.05 2.43-4.02 3.81-1.92 2.78-2.81 5.62-3.59 8.46-.07.29-.14.58-.21.86l-9.49-20.47c-.4-.86-1.42-1.24-2.28-.84l-11.95 5.54c-.86.4-1.23 1.42-.84 2.28l11.33 24.43c.4.86 1.42 1.24 2.28.84l9.41-4.36c-.51 2.69-.98 5.1-1.56 6.84-.08.27-.16.51-.24.73-.79-.65-1.8-2.02-2.7-3.6l-4.2 1.95c-.46.21-.94.32-1.44.32-1.33 0-2.56-.78-3.12-1.99l-5.26-11.36c-1.98 1.64-2.97 4.3-2.31 6.95.06.23.78 3.12 2.35 6.79zm-1.16-25 11.44-5.3 8.31 17.93-11.43 5.3-8.31-17.93zm14.09 18.21a1.18 1.18 0 1 1 2.14-.99c.28.59.02 1.29-.58 1.57-.59.28-1.29.02-1.57-.57zM493.39 157.78l1.91-1.91-16.46-16.46-1.91 1.91zM487.9 130.35l-1.9 1.9 16.46 16.47 1.91-1.91zM515.33 166.83l-46.16-46.16-1.91 1.91 46.16 46.16z"/></g></svg>