<svg xmlns="http://www.w3.org/2000/svg" xml:space="preserve" viewBox="0 0 439.76 329.65" shape-rendering="geometricPrecision" text-rendering="geometricPrecision" image-rendering="optimizeQuality" fill-rule="evenodd" clip-rule="evenodd"><g fill="currentColor"><path d="M58.45 64.73c17.64 4.11 35.27-6.86 39.38-24.5 4.11-17.64-6.86-35.27-24.5-39.37-17.64-4.11-35.27 6.86-39.37 24.5-4.11 17.64 6.86 35.27 24.5 39.37zM37.2 127.75c-9.58-15.07-12.71-29.45-13.61-34.93l-.03-.2c-1.15-8.09 4.4-15.48 12.36-16.61.68-.1 1.38-.15 2.07-.15 7.2 0 13.4 5.39 14.42 12.53l.13.75c.13.64.35 1.71.71 3.11.65 2.53 1.83 6.49 3.8 10.94.84 1.9 1.85 3.98 3.08 6.12.51-2.52 1.01-4.97 1.46-7.28 4.19-14.51-1.29-31.87-13.73-34.98-12.44-3.1-30.48 3.66-37.82 25-9.92 29.41-12.05 48.55-8.28 80.93 3.06 15.74 11.3 22 20.43 24.37 2.84 10.14 5.5 24.25 5.49 41.54-.01 18.33-2.95 40.27-11.94 65.24-3.41 9.47 1.5 19.91 10.97 23.32 2.04.73 4.13 1.08 6.18 1.08 7.46 0 14.47-4.62 17.14-12.05 10.46-29.02 14.1-55.33 14.1-77.6-.02-27.6-5.52-48.88-10.24-62.07v-.08c-1.3-9.67-1.03-19.96 0-30.12-6.37-5.22-11.96-11.53-16.67-18.9zM439.76 290.45v-2.93l-18.51 18.51c-4.04 4.02-9.24 6-14.54 6.01-.14 0-.24 0-.31.01h-86.89c-11.35-.02-20.52-9.2-20.54-20.55v-29.35c.02-11.34 9.2-20.53 20.54-20.55h66.53l53.71-53.71v-24.91l-61 61.01h-59.23c-21.08 0-38.15 17.08-38.16 38.16v29.35c.01 21.08 17.08 38.16 38.16 38.16h87.2l.28-.01c9.64-.06 19.34-3.81 26.69-11.16l6.06-6.06v-21.97zM171.76 66.22c-6 17.09 3 35.8 20.08 41.8 17.09 6 35.81-3 41.8-20.09 6-17.09-3-35.8-20.09-41.8s-35.8 2.99-41.8 20.09zM250.5 251.41c-5.44-9.52-11.73-17.09-18.59-22.84a14.28 14.28 0 0 1-3.03 5.21c-2.76 3.04-6.7 4.79-10.8 4.79-3.63 0-7.1-1.34-9.79-3.78-8.34-7.51-15.06-15.06-20.51-22.41-.05 0-.1-.01-.16-.01.01-.06.01-.12.01-.18-19.96-27.07-22.39-51.53-22.3-62.37 0-6.73.84-10.99 1.1-12.14 1.52-6.69 7.36-11.36 14.21-11.36 1.08 0 2.17.12 3.24.36 7.76 1.76 12.7 9.51 11.02 17.3-.04.23-.09.56-.15 1.03-.12 1.01-.26 2.67-.26 4.84.08 6.22 1.1 12.45 2.99 18.63 1.9-6.13 3.79-11.9 5.4-17.08 5.73-13.97 2.18-31.83-9.86-36.26-12.03-4.43-30.7.33-40.31 20.75-13.05 28.16-17.25 46.96-17.01 79.56 1.99 23.83 17.72 27.97 31.02 29.24 1.67.16 3.23.29 4.68.35.75.14 1.51.26 2.29.3 6.54.32 12.5.29 17.98 1.07 4.1.57 7.84 1.53 11.4 3.17 5.29 2.52 10.6 6.44 16.39 15.31 5.73 8.85 11.55 22.83 15.97 44.13 1.65 7.91 8.62 13.36 16.4 13.36 1.13 0 2.28-.11 3.43-.36 9.06-1.88 14.89-10.76 13-19.82-4.46-21.41-10.4-37.88-17.78-50.8z"/><path d="M191.88 144.66c.07-.55.13-.93.17-1.13.01-.09.03-.14.03-.16 1.35-6.25-2.58-12.42-8.82-13.84-6.28-1.43-12.53 2.51-13.95 8.79-.16.7-1.03 4.84-1.03 11.53-.11 12.53 3.29 34.32 19.88 58.02 1.12 1.6 2.3 3.2 3.54 4.81 5.07 6.6 11.18 13.29 18.56 19.95a11.66 11.66 0 0 0 7.83 3.02c3.18 0 6.34-1.29 8.64-3.83 1.4-1.54 2.3-3.35 2.72-5.24.9-3.97-.3-8.3-3.53-11.23-16.88-15.39-25.51-30-29.9-42.01-3.64-9.96-4.36-18.14-4.43-23.49 0-2.32.16-4.09.29-5.19zM194.13 284.15c-11.69 11.68-26.94 17.49-42.26 17.5-15.33-.01-30.57-5.82-42.26-17.5-11.69-11.7-17.5-26.94-17.5-42.26 0-14.58 5.28-29.08 15.85-40.52 10.02-2.67 17.15-8.85 20.87-15.66 4.14-7.41 4.92-14.97 4.94-20.53-.01-5.22-.75-8.81-.84-9.23a8.726 8.726 0 0 0-8.56-6.94h-1.97c.16 7.98-6.17 14.64-14.16 14.86-1.07.03-2.15.05-3.26.05h-.15c-10.49 0-20.5-1.73-29.58-5.05a8.733 8.733 0 0 0 8.67 7.64h32.33c-.13 3.49-.89 7.54-2.66 10.61-2.08 3.44-4.76 6.21-11.88 7.76-.06.01-.11.04-.18.05-.45.1-.89.23-1.32.4-.03.01-.07.02-.11.04-.5.21-.98.46-1.45.76-.02.01-.04.03-.06.04-.45.3-.86.64-1.24 1.01-.04.03-.08.06-.11.09-.04.04-.08.08-.11.12-14.99 15.05-22.53 34.82-22.52 54.51-.01 19.74 7.56 39.57 22.63 54.63 15.06 15.07 34.89 22.64 54.63 22.63h.04c19.73 0 39.54-7.57 54.6-22.63a8.758 8.758 0 0 0 0-12.37 8.74 8.74 0 0 0-12.37 0z"/><path d="M104.97 161c1.08 0 2.14-.02 3.18-.05 6.43-.18 11.48-5.52 11.33-11.94v-.04c-.18-6.44-5.55-11.51-11.98-11.33-.89.02-1.73.04-2.52.04-12.72-.03-21.89-3.09-29.13-7.49-7.22-4.39-12.61-10.43-16.57-16.64a67.82 67.82 0 0 1-4.89-9.17 75.212 75.212 0 0 1-3.96-11.39 55.58 55.58 0 0 1-.75-3.29c-.07-.36-.11-.63-.14-.78-.01-.04-.01-.08-.01-.1-.91-6.38-6.81-10.81-13.19-9.91-6.38.9-10.81 6.81-9.91 13.18.18.93 2.39 17.03 13.23 34.09 3.71 5.79 8.51 11.69 14.6 16.97 2.85 2.47 5.96 4.82 9.42 6.93 3.57 2.2 7.49 4.12 11.71 5.74 8.54 3.25 18.37 5.18 29.44 5.18h.15z"/></g></svg>