<svg xmlns="http://www.w3.org/2000/svg" xml:space="preserve" viewBox="0 0 74965.57 61499.23" shape-rendering="geometricPrecision" text-rendering="geometricPrecision" image-rendering="optimizeQuality" fill-rule="evenodd" clip-rule="evenodd"><g fill="currentColor"><path d="M26150.34 1049.8h44722.1v30024.87h-44722.1V20413.55c-358.58 137.71-708.64 256.48-1049.61 357.45v13032.93h46821.51V0H25100.73v16521.22c350.63-150.97 700.5-323.54 1049.61-517.7V1049.81z"/><path d="M48476.53 30234.57h3499.28v-839.92h-3499.28zM56664.88 29394.65h-3499.09v839.92h3499.09zM7816.5 33639.51l2034.82-3368.76-417.88-252.51-2035.01 3368.95zM9015.38 29765.73l-418.07-252.5-2035.01 3368.95 417.88 252.51z"/><path d="M3922.08 34981.78c650.68 0 1214.6-467.13 1335.46-1116.48l1560.12 942.4-1138.83 5861.05s1660.89 860.94 4549.08 1391.72v10477.18c0 1159.86 939.93 2099.79 2099.79 2099.79 1159.29 0 2099.6-939.93 2099.6-2099.6V42464.13c116.12 1.7 232.05 3.6 350.06 3.6 118.2 0 233.75-1.89 349.87-3.41v10073.33c0 1159.86 939.75 2099.79 2099.6 2099.79 1158.91 0 2099.6-939.93 2099.6-2099.6V42060.47c2888.19-530.77 4549.27-1391.72 4549.27-1391.72l-3905.41-20100.81c83.73 11.56 169.35 21.97 256.29 31.82 388.14 44.14 807.71 72.17 1259.69 72.55 94.71 0 188.67-1.14 282.06-3.22.95 0 2.08-.19 3.03-.19 2857.5-58.15 6786.96-1285.07 10756.59-5503.79 419.96-444.02 483.23-1095.83 200.03-1602.55l1701.43-1741.97-600.67-586.84-1716.77 1757.5c-517.89-241.14-1153.04-139.23-1567.32 298.92-3572.21 3757.84-6673.69 4582.99-8841.86 4650.23h-.19c-75.58 1.7-147.37 2.46-216.33 2.46-414.09 0-789.91-30.88-1127.66-76.91-433.41-59.1-802.03-144.15-1089.58-228.45-254.97-74.44-447.43-147.56-567.71-197.57-60.05-25.38-101.91-44.52-124.83-55.31-11.56-5.49-18-8.71-20.08-9.66h-.38l-126.35-67.06-149.84-39.59c-23.3-4.55-272.96-71.41-672.09-153.44-42.05 2009.63-1291.7 3622.97-2830.41 3622.97-1538.9 0-2788.36-1613.16-2830.22-3622.97-261.6 53.61-460.69 101.34-571.69 128.62-456.9 73.31-2159.27 523.39-3929.09 2595.33-1032.56 1203.43-2085.78 2926.26-2989.53 5402.26l-854.12-516L.18 30689.37l2725.09 1646.31c-54.93 359.72-107.97 725.88-157.6 1102.84-98.88 747.29 426.78 1432.82 1174.07 1531.51 60.62 7.77 121.04 11.74 180.33 11.74zm11830.45-12092.99h3044.65v1049.8h-3044.65v-1049.8zm-9110.47 4407.96 4884.36 2949.75-2951.64 4886.64-3217.6-1943.71c338.51-2356.66 785.55-4297.14 1284.88-5892.68zM2832.5 31664.36 864.93 30475.9l2951.46-4885.88 427.35 258c-547.82 1619.22-1031.81 3539.06-1411.23 5816.34zm6506.23-9832.57-1105.68 5690-1389.82-839.35c793.51-2331.84 1694.42-3860.51 2495.51-4850.65zM17224.18 15135.94c949.6-612.79 1672.07-1579.63 1948.44-2767.33 565.44-2427.88-944.29-4853.87-3371.6-5419.3-2427.69-565.25-4853.68 944.86-5419.3 3372.17-444.02 1906.58 392.49 3812.21 1948.06 4816.36 424.88 274.1 903.19 481.52 1424.11 602.76 1239.99 288.5 2478.84 35.04 3470.29-604.65zM36653.1 14127.81c272.77 140.93 582.11 211.21 930.27 211.21 585.9 0 1094.51-160.82 1526.02-483.04 431.7-322.03 647.46-640.64 647.46-955.47 0-385.86-116.5-663.18-348.92-833.1-232.43-169.92-585.9-287.36-1061.17-351.95-452.35-60.62-705.24-107.4-757.33-140.74 198.33-302.14 358.96-513.91 481.9-634.77 139.61-42.05 365.78-62.7 678.72-62.7 116.69 0 307.63 5.49 572.07 15.91 262.73 10.23 407.27 15.34 431.51 15.34 233.56 0 425.45-11.93 575.48-35.61 150.03-24.06 269.74-91.87 359.72-203.44 89.6-111.57 134.11-198.52 134.11-261.6 0-85.05-62.89-158.55-189.24-219.92-125.78-61.75-243.41-92.44-351.58-92.44-64.78 0-166.32 21.03-306.49 62.7-197.95 56.26-425.07 84.11-681.56 84.11-243.98-.19-534.37 8.15-870.98 23.87-336.8 15.34-556.54 45.46-659.96 88.84-103.24 43.95-316.15 305.36-639.31 784.98-118.96 173.14-206.66 299.1-262.73 378.47-87.33 104.37-131.46 198.14-131.46 281.3 0 73.31 66.87 164.04 200.22 273.91 133.36 109.11 364.84 173.33 694.25 192.46 569.04 35.42 936.52 109.11 1102.27 221.82 165.75 112.33 248.53 264.82 248.53 456.71 0 156.09-155.14 312.36-465.61 469.02-310.85 156.28-591.01 234.51-841.43 234.51-227.31-.19-445.15-61.56-653.52-184.5-108.54-83.54-204.39-125.4-288.12-125.4-320.51 0-481.33 126.35-481.33 378.66 0 133.36 136.2 270.5 408.21 410.87zM40846.81 13998.25c200.98 231.48 473.38 347.03 817.57 347.03 863.22 0 1651.61-279.4 2365.56-839.54 713.95-559.76 1071.21-1114.59 1071.21-1665.06 0-344.57-55.88-627.38-167.45-850.53-111.57-223.14-334.34-434.17-667.35-633.44-333.77-198.9-645.57-298.73-935.2-298.73-387.76-.19-825.71 163.48-1313.48 489.67-487.77 325.81-855.26 733.08-1102.46 1221.04-247.01 487.77-370.33 936.15-370.33 1344.36 0 358.77 100.4 653.9 301.95 885.19zm767.37-1926.47c166.7-283.38 362.18-532.48 586.46-747.48 224.09-214.62 405.56-359.91 543.84-435.87 138.85-76.53 315.58-114.03 530.2-114.03 22.92-.19 70.85 21.59 144.15 65.54 70.85 45.84 118.77 68.57 143.59 68.57 98.12 0 175.03-17.43 231.48-53.23 50.2 39.97 124.83 111.19 223.52 214.24 99.07 103.24 162.72 177.3 190.56 222.01 28.41 45.08 59.48 139.04 94.15 283.19 34.29 143.77 51.52 263.68 51.52 359.91 0 170.48-140.37 397.04-420.15 678.34-281.11 281.3-610.33 527.36-988.62 738.2-378.66 210.64-681.18 315.58-908.49 315.58-114.6-.19-219.92-16.86-317.1-51.52-97.18-34.67-165.56-67.63-205.34-100.21-39.4-32.2-74.63-102.29-104.56-211.21-30.31-108.35-45.27-223.52-45.27-346.65 0-306.87 82.97-601.81 250.04-885.38zM47815.62 14528.45c85.24 63.65 218.79 100.59 399.88 111.19 75.39-81.83 146.62-200.6 213.1-356.69 156.28-375.25 419.96-737.25 790.67-1085.41 559 744.45 992.6 1116.67 1301.17 1116.67 123.13 0 227.12-40.16 312.93-120.66 85.24-80.32 128.05-173.33 128.05-279.59 0-46.03-8.15-88.65-25.19-128.62-41.67-37.32-85.24-69.52-131.27-96.61-373.17-206.66-724.56-511.64-1053.78-916.07 969.49-875.91 1454.04-1427.33 1454.04-1654.45 0-108.35-38.45-200.22-115.74-275.43-76.91-74.82-168.78-112.52-275.05-112.52-95.85-.19-168.59 20.08-217.27 59.48-49.06 39.59-111.38 127.11-185.83 262.73-114.79 214.43-303.65 460.69-566.39 738.2-31.07 31.07-64.78 65.73-100.02 102.67-122.94 133.74-238.68 249.66-347.22 347.41-220.87-339.83-337.75-668.11-349.87-984.83-14.78-308.58-127.48-462.58-338.13-462.58-302.14-.19-453.49 171.62-453.49 515.62 0 327.14 199.28 782.9 597.83 1366.52-46.41 46.03-102.67 100.02-169.16 162.91-441.74 405.94-718.68 704.86-830.26 895.8-111.38 190.37-167.26 350.44-167.26 479.82 0 146.05 42.62 250.99 128.24 314.45zM54254.23 14583c152.49 0 275.62-54.18 369.19-162.53 79.56-89.98 163.29-156.28 251.94-200.22 88.27-43.76 230.15-83.92 425.45-120.29 194.54-36.37 406.7-54.93 636.66-54.93 481.14 0 869.85 41.67 1166.11 125.21 85.81 24.81 237.35 37.32 456.52 37.32 171.05 0 346.46-41.11 526.8-125.02 180.33-83.16 270.31-209.32 270.31-378.1.19-54.37-33.15-117.44-100.02-189.43-66.49-72.17-135.25-107.59-206.29-107.59-97.93 0-190.56 19.51-278.46 59.29-89.79 39.4-169.73 59.48-240.57 59.48-75.01 0-229.59-14.78-462.77-44.14-233.37-28.98-398.17-43.38-494.21-43.38-520.92 0-904.89 30.12-1150.77 90.55 637.8-308.58 1161.56-690.84 1571.67-1147.55 409.73-456.9 614.31-863.22 614.31-1219.72 0-266.71-128.05-522.63-384.54-767.94-256.67-244.74-525.47-367.3-806.96-367.3-314.83 0-569.8 43-764.15 128.24-195.3 85.24-466.94 252.88-815.1 503.31-70.85 50.2-132.41 92.06-184.5 125.02-162.34 106.27-243.79 204.58-243.79 294.37 0 78.8 31.82 169.73 95.28 272.02 63.65 101.91 135.06 152.87 214.24 152.87 204.2 0 354.23-55.12 450.08-165.56 141.88-164.61 324.68-313.31 549.15-445.53 223.9-132.6 376.77-198.71 458.03-198.71 181.66 0 330.55 54.93 448.94 164.04 117.63 109.68 176.36 240.38 176.36 392.87 0 131.46-83.54 319.37-250.42 564.3-166.51 245.12-382.07 476.41-647.08 694.44-265.01 217.27-633.63 463.15-1107.01 736.11-358.58 208.56-598.02 390.6-717.55 545.93-119.91 154.95-180.14 320.32-180.14 495.54 0 197.95 118.01 297.02 353.28 297.02zM64111.61 12575.46c-271.26-66.68-537.78-87.52-800.71-62.7-279.21 27.09-444.21 39.78-494.21 37.7-310.47-10.61-549.53-15.34-716.22-15.34-114.41 0-256.48 19.51-425.26 59.29-168.59 39.21-253.26 112.71-253.26 218.98 0 68.19 42.43 152.49 126.92 251.37 84.67 99.26 157.79 148.51 220.3 148.51l1885.55-24.81c75.2 0 175.22 10.61 300.24 31.26 137.9 24.63 243.03 37.32 315.96 37.32 56.07 0 112.33-35.42 168.97-107.59s84.48-149.65 84.48-233.18v-3.03c-4.17-158.55-141.88-271.26-412.76-337.75zM61756.66 11781.2l1160.43-87.89 569.04 37.89c45.65 0 97.93-6.25 156.28-18.94 56.45-10.42 93.77-15.15 112.71-15.15 25 0 71.98 12.12 140.55 36.75 91.68 39.97 170.11 59.48 234.32 59.48 232.24 0 347.6-115.17 347.6-346.65v-3.41c-6.44-146.24-76.34-254.4-209.7-325.06-133.55-71.03-262.55-106.27-387.57-106.27h-156.66c-60.24 0-97.74 2.84-112.52 9.09-164.42 29.36-354.04 46.79-567.52 53.23-213.86 6.06-340.4 8.33-379.8 6.25l-394.58-24.81c-602.19 0-903.56 137.33-903.56 412.76 0 227.12 130.33 331.31 390.98 312.74zM27042.54 51391.24h7138.35c1389.44 0 2519.94 1130.12 2519.94 2519.56v5082.5c388.14-136.77 742.74-308.39 1064.2-525.28 451.59-308.01 824.95-718.31 1062.49-1186 240.57-466.75 340.78-971.95 339.64-1443.43-3.6-762.44-233.56-1444.76-544.98-2062.29-473.95-924.21-1151.15-1723.97-1885.55-2352.49-369.19-312.74-752.97-581.54-1164.03-791.23-413.14-204.58-849.58-371.28-1408.01-378.1-55.31 0-109.11 4.36-162.72 10.61h-6780.15c-53.23-6.44-107.4-10.61-162.34-10.61-741.79 16.1-1279.77 286.41-1810.54 607.11-781.95 496.11-1513.14 1200.02-2110.78 2033.68-584.19 837.08-1066.85 1799.55-1081.63 2943.31-.95 471.29 98.69 976.68 339.45 1443.43 358.4 708.27 1013.81 1256.85 1795.57 1585.69 107.59 45.46 218.41 87.52 331.5 126.92l.19-5083.83c0-1389.44 1130.12-2519.56 2519.37-2519.56zM36735.5 45095.08c0-2425.04-1965.3-4390.34-4390.34-4390.34-2424.66 0-4390.15 1965.3-4390.15 4390.53 0 2424.28 1965.49 4390.15 4390.15 4390.15 2425.04-.19 4390.34-1965.87 4390.34-4390.34z"/><path d="M36280.87 60629.57V53910.8c0-1159.48-940.12-2099.79-2099.6-2099.79h-7138.73c-1159.67 0-2099.6 940.5-2099.6 2099.79v6718.77c0 1159.67 11337.94 1159.67 11337.94 0zM69963 50254.68c-54.37 0-108.16 4.17-161.39 10.42H63021.27c-53.8-6.44-107.97-10.61-163.29-10.61-741.98 15.91-1279.77 286.6-1810.54 606.92-782.33 496.3-1512.76 1200.21-2110.78 2033.87-584.38 836.89-1066.85 1799.36-1081.25 2943.5-1.14 471.1 98.69 976.87 338.69 1443.62 358.77 707.89 1014.38 1256.28 1796.14 1585.12 107.4 45.65 218.22 87.7 331.31 127.11V53910.8c0-1389.44 1130.31-2519.56 2519.56-2519.56h7138.35c1389.44 0 2519.94 1130.12 2519.94 2519.56v5082.5c388.14-136.77 742.74-308.58 1064.39-525.47 451.21-307.82 824.38-718.12 1062.3-1185.62 240.76-466.75 340.78-971.95 339.45-1443.24-3.79-762.82-233.18-1445.14-544.41-2062.67-474.51-924.4-1151.33-1723.97-1885.55-2352.3-369.76-312.93-753.54-581.54-1164.41-791.42-413.14-204.39-849.58-371.09-1408.2-377.91zM64835.98 49485.23c2425.04 0 4390.34-1965.68 4390.34-4389.96 0-2425.23-1965.3-4390.53-4390.34-4390.53-2424.47 0-4390.15 1965.3-4390.15 4390.53 0 2424.28 1965.49 4390.15 4390.15 4389.96z"/><path d="M72079.65 53910.8c0-1159.48-940.31-2099.79-2099.79-2099.79h-7138.73c-1159.67 0-2099.6 940.5-2099.6 2099.79v6718.77c0 1159.67 11337.94 1159.67 11337.94 0l.19-6718.77zM44941.83 51391.24h7138.35c694.82 0 1324.66 282.44 1780.8 738.57 143.77-144.15 276.75-297.4 407.84-458.41 576.61-725.5 1087.5-1650.66 1583.04-2721.11 737.82-1602.55 1411.42-3518.79 1912.83-5387.1 498.76-1874.38 830.45-3670.71 834.8-5141.23 0-148.7-3.98-293.04-11.18-433.41-39.21-752.59-681.18-1330.91-1433.96-1291.51-752.59 39.4-1330.91 681.56-1291.51 1434.15 4.93 90.92 7.39 188.29 7.39 290.77 2.46 847.87-180.9 2115.89-501.22 3476.74-477.35 2046.56-1256.85 4339.19-2058.5 6043.65-397.04 849.96-807.53 1556.52-1133.53 1973.82-131.46 171.81-248.72 290.77-317.1 348.92h-6738.85c-53.23-6.44-107.4-10.61-162.34-10.61-741.79 16.1-1279.96 286.41-1810.54 607.11-781.95 496.11-1513.14 1200.02-2110.78 2033.68-584.19 837.08-1066.85 1799.55-1081.63 2943.31-.95 471.29 98.69 976.68 339.45 1443.43 358.77 708.27 1014 1256.85 1795.57 1585.69 107.59 45.65 218.41 87.52 331.5 127.11l.19-5084.02c0-1389.44 1130.12-2519.56 2519.37-2519.56z"/><path d="M48511.39 49485.23c2425.04 0 4390.34-1965.68 4390.34-4389.96 0-2425.23-1965.3-4390.53-4390.34-4390.53-2424.66 0-4390.15 1965.3-4390.15 4390.53 0 2424.28 1965.49 4390.15 4390.15 4389.96zM54180.17 60629.57V53910.8c0-1159.48-940.12-2099.79-2099.6-2099.79h-7138.73c-1159.67 0-2099.6 940.5-2099.6 2099.79v6718.77c0 1159.67 11337.94 1159.67 11337.94 0zM39281.77 42231.14c46.41-18 85.24-55.88 116.12-113.47 31.26-57.4 24.44-127.11-20.27-209.13a3112.494 3112.494 0 0 1-163.1-353.66c-28.41-72.55-65.73-213.86-112.33-424.5-24.63-118.96-42.43-191.7-53.04-218.6-13.83-52.09-27.09-124.45-39.4-217.08l-64.97-463.91c-24.44-63.08-59.29-111-104.75-143.77-45.27-32.39-94.71-38.45-148.89-17.43-21.22 8.33-47.55 33.91-79.18 76.53-31.44 42.62-50.77 78.99-57.78 108.92-7.2 30.12 3.6 98.12 31.82 203.63 19.13 71.41 36.56 150.4 51.9 236.21l135.25 574.72c84.11 345.7 143.21 562.41 177.11 649.54 54.93 141.12 107.4 234.7 157.6 281.11 50.01 46.22 107.78 56.45 173.89 30.88zM41317.16 40746.79c10.23-3.98 100.02 41.86 269.74 137.14 211.97 118.58 362.37 189.24 451.4 211.97 89.03 22.54 167.26 20.46 234.89-5.87 115.36-44.7 186.77-101.34 214.81-169.73 27.85-68.76 34.1-122.18 19.32-160.25-10.42-26.9-24.81-44.14-43.57-52.47-18.56-8.33-39.21-8.15-61.56.57l-60.62 25.19c-62.13 24.06-134.68 24.06-217.65-.38-82.78-24.44-200.41-72.55-353.47-143.77-152.87-71.6-232.43-115.93-239.06-132.6-5.68-14.78.38-44.14 18.94-87.52 21.22-52.09 57.4-120.29 108.16-204.01 44.33-73.12 89.41-142.45 135.63-208.37 24.81-35.42 58.34-78.42 100.59-129l1.7-3.79-1.52.57c78.8-80.89 99.07-170.48 60.81-269.18-30.88-78.99-95.47-99.07-193.78-60.62-102.1 39.59-221.44 207.23-357.64 502.93l-277.13 553.5c-15.15-42.05-54.74-205.15-118.2-489.67l-1.52.57-37.32-195.49c-82.02-441.74-134.87-692.54-158.36-753.16-18.94-48.49-47.17-84.48-84.86-108.73-37.7-24.44-77.1-28.6-118.01-12.88-42.81 16.67-76.91 47.36-102.29 92.06-25.38 44.52-37.13 95.66-35.04 153.06 2.08 57.59 23.68 172.19 64.78 343.81 41.11 171.62 103.05 408.59 186.59 710.92 111 375.82 186.96 682.5 228.07 920.04 20.65 122.18 37.7 200.03 50.77 233.56 12.12 31.63 39.59 56.83 82.4 76.15 43 19.32 91.68 18.18 146.24-3.22 52.85-20.65 90.17-57.59 111.76-110.63 21.59-53.42 20.27-111-3.98-173.14-48.3-124.83-79.75-228.45-93.77-311.61l-.57-1.52c3.41-21.59 14.59-55.31 34.1-101.53s32.58-70.47 39.21-72.93zM44111.96 40229.28c92.82-36.18 159.5-92.82 200.03-170.11 40.35-77.29 51.52-139.23 33.34-186.77-20.46-52.09-52.85-69.52-97.55-52.09-19.51 7.58-43.57 23.49-72.74 47.55-24.25 20.08-47.17 34.48-68.38 42.81-48.3 18.75-158.17-137.33-329.79-468.45-168.97-324.68-361.43-444.96-576.8-361.24-247.96 96.61-380.75 419.96-398.74 970.05-45.84-274.29-85.81-455.19-119.91-543.65-45.27-116.12-87.52-181.85-126.73-197.57-39.4-15.91-86-13.26-139.8 7.77-42.81 16.48-73.5 57.02-92.25 121.8-18.56 64.41-19.7 118.39-2.65 162.15 112.71 289.82 189.99 541.76 231.67 756.76 32.39 165.75 57.21 270.69 74.26 314.26 50.01 128.81 145.86 166.13 287.17 111.19 22.16-8.71 40.16-29.17 53.8-61 13.83-32.2 17.81-67.44 12.5-106.08-7.77-132.79 22.35-354.61 90.74-666.02 68-311.61 135.44-480.39 202.31-506.34 70.66-27.47 162.15 73.88 275.43 303.46 109.11 220.68 202.31 363.89 279.4 430.19l-1.33.38c82.78 75.96 178.06 92.82 286.03 50.96zM44689.9 39979.62c128.24 65.92 261.22 72.36 398.55 18.94 173.89-67.63 318.62-209.7 434.92-426.4 116.31-216.89 163.1-446.1 140.93-687.62l-.38-1.33c-10.99-73.88-29.93-146.05-57.21-216.7-63.27-162.53-166.88-283.76-311.23-362.75-143.96-79.18-295.51-87.89-454.24-26.14-233.18 90.55-386.43 284.14-459.55 579.83-73.12 295.51-63.08 563.17 30.12 802.79 57.02 146.81 149.65 253.45 278.08 319.37zm78.42-1253.44 1.52-.76c36.56-68.57 89.03-116.5 157.6-143.21 72.55-28.22 141.12-19.13 205.34 27.09 64.59 46.03 115.36 116.69 152.49 212.35 66.11 170.11 63.46 347.6-7.77 532.67-71.6 184.69-164.8 299.48-279.78 344.38-46.6 18-93.77 7.58-141.5-31.44-47.74-39.21-86.76-97.37-116.69-174.27-49.44-127.29-67.63-266.14-54.55-416.74 13.07-150.59 40.92-267.09 83.35-350.06zM46631.71 38905.95c-16.67 6.44-77.29-63.84-181.47-211.02-104.37-146.81-175.41-269.55-213.86-368.25-21.59-55.5-41.48-111.95-59.29-169.16l-59.1-188.86c-13.26-34.48-44.33-63.65-92.82-88.08-48.68-24.63-94.71-28.22-138.28-11.37-69.71 27.09-113.85 72.74-132.22 136.39-18.37 64.03-12.12 136.01 19.13 215.76 85.62 221.06 243.6 477.92 473 771.16 229.4 293.04 410.87 413.52 544.79 361.43 85.24-33.34 144.91-239.81 179.01-619.61.76-3.79 2.08-19.51 3.79-48.3 23.49-329.98 36.94-503.87 40.54-522.25 31.07 55.12 93.39 140.93 186.96 257.43 93.39 116.88 182.61 208.56 268.42 275.81 85.43 67.25 161.96 106.27 229.77 116.88 67.63 10.23 144.53-1.33 231.1-34.85 25.76-10.23 44.89-54.74 56.83-134.11 11.93-79.75 8.52-284.14-9.28-613.93-17.24-318.62 3.22-580.78 61-787.26 8.15-28.6 4.36-62.51-10.8-101.53-12.5-32.77-37.51-57.4-74.63-74.44-36.94-17.24-73.69-18.75-110.06-4.55-57.4 22.35-101.53 61.75-132.22 117.26-30.88 55.69-51.15 176.73-61 362.94-10.04 186.02-1.52 397.23 24.63 632.68 14.4 127.29 21.78 203.44 22.54 228.45.95 25.57-6.06 35.23-20.27 28.98-242.09-163.66-417.69-385.67-526.8-666.21-5.11-12.88-8.71-28.04-11.18-45.46-3.03-15.72-10.61-39.59-22.92-71.03-15.53-40.16-47.36-67.44-95.85-83.16-48.11-15.34-103.43-14.59-166.51 2.46-50.2 82.59-87.52 230.15-111.76 442.69l1.52-.76c-22.92 136.58-46.03 333.39-68.57 591.39-17.43 197-32.2 297.97-44.14 302.51zM48766.36 37998.78c-48.3 18.75-82.4 64.41-102.67 136.2-19.89 71.98-21.78 129.38-5.3 172.19 44.14 113.28 117.26 150.03 219.55 110.25 34.29-13.26 71.03-46.6 110.25-99.83 39.21-53.23 50.96-111.95 35.42-176.55l-19.7-91.87c-8.15-21.22-42.05-38.07-101.34-50.2-59.29-12.5-104.37-12.31-136.2-.19zM48731.31 37133.48c-17.43-154.57-39.59-322.59-66.87-503.69-27.28-181.66-46.03-285.28-56.07-311.04-12.69-32.77-41.11-56.07-85.81-70.09-44.52-14.59-85.43-14.21-122.37.19-34.48 13.26-69.33 47.36-104.94 101.72-35.61 54.37-45.08 117.26-28.6 188.29 16.67 71.22 26.71 111.95 30.69 121.99 39.97 103.24 77.48 267.09 112.52 491.94 33.53 207.23 93.01 398.36 178.25 573.77 66.11 18 145.29 9.28 238.3-26.9 10.23-61.75 3.41-125.78-20.27-192.65-32.2-87.89-57.21-212.35-74.82-373.55zM49685.83 37641.33c-48.3 18.75-82.59 64.22-102.67 136.2-20.08 71.98-21.97 129.38-5.3 172 44.14 113.28 117.07 150.22 219.36 110.44 34.29-13.45 71.22-46.79 110.44-100.02 39.02-53.23 50.96-111.76 35.42-176.55l-19.51-91.87c-8.52-21.22-42.24-38.07-101.53-50.2-59.29-12.31-104.56-12.31-136.2 0zM49650.6 36776.03c-17.24-154.76-39.4-322.78-66.87-503.87-26.9-181.66-45.84-285.09-55.88-311.04-12.69-32.58-41.29-56.07-85.62-70.09-44.7-14.59-85.62-14.21-122.75.19-34.29 13.45-69.33 47.36-104.75 101.72-35.61 54.37-45.08 117.44-28.41 188.29 16.29 71.22 26.52 111.95 30.5 121.99 39.97 103.24 77.48 267.09 112.71 491.94 33.53 207.42 92.63 398.36 178.06 573.77 65.92 18.18 145.48 9.47 238.3-26.71 10.23-61.94 3.41-125.97-20.46-192.65-32.2-87.89-57.02-212.54-74.82-373.55zM50570.27 36418.4c-17.43-154.57-39.78-322.78-66.87-503.87-27.28-181.47-46.22-285.09-56.07-311.04-12.5-32.58-41.29-55.88-85.81-69.9-44.7-14.78-85.24-14.4-122.37.19-34.48 13.26-69.52 47.17-104.94 101.53-35.8 54.37-45.08 117.44-28.6 188.48 16.48 71.03 26.71 111.95 30.5 121.99 40.16 103.05 77.85 266.9 112.9 491.94 33.34 207.23 92.82 398.17 178.06 573.58 66.11 18.18 145.48 9.47 238.11-26.71 10.23-61.94 3.41-125.97-20.08-192.65-32.39-87.89-57.02-212.54-74.82-373.55zM50605.31 37283.7c-48.3 18.75-82.59 64.22-102.67 136.2-20.08 71.98-21.78 129.38-5.11 172 43.76 113.28 117.07 150.22 219.17 110.44 34.48-13.45 71.03-46.79 110.44-99.83 39.02-53.23 50.96-111.95 35.23-176.73l-19.32-91.68c-8.52-21.41-42.24-38.07-101.34-50.39-59.29-12.31-104.75-12.31-136.39 0z"/></g></svg>