<svg xmlns="http://www.w3.org/2000/svg" xml:space="preserve" viewBox="0 0 211.88 298.33" shape-rendering="geometricPrecision" text-rendering="geometricPrecision" image-rendering="optimizeQuality" fill-rule="evenodd" clip-rule="evenodd"><g fill="currentColor"><path d="M156.3 63.48c-2.7-8.45.62-17.25 4.55-24.71 4.23-8.01 10.92-16.65 19.55-20.11 2.8-1.12.33-3.67-1.99-2.74-9.34 3.75-16.05 12.51-21.03 20.9-5.22 8.81-8.29 19.09-5.09 29.12 1.73 5.4 5.11 9.32 9.43 12.11l2.84-3.37c-3.76-2.65-6.71-6.3-8.27-11.2z"/><path d="M182.96 36.29c-7.98-2.13-15.71 2.22-16.53 10.78-.54 5.62 4.75 14.2 11.33 11.75 3.99-1.48 6.15-6.52 5.26-10.57-.44-2.04-2.49-2.95-4.42-2.46-2.99.77-5.02 3.64-6.67 6.05a10.12 10.12 0 0 1-1.05-3.75c-.43-5.66 3.84-10.25 9.55-8.73 1.99.53 5.21-2.36 2.52-3.08zm-7.39 17.08c.85-1.25 1.81-2.87 3.06-3.89.04.17.06.35.08.49.26 1.68-.51 4.84-2.09 5.76-.78.46-2.09-.8-2.63-1.25-.07-.06-.13-.13-.2-.19.7-.07 1.39-.36 1.78-.93zM205.79 34.67c1.11.08 5.12-1.9 2.79-2.05-7.41-.5-13.75 4.82-15.28 11.97-1.79 8.31 6.71 10.55 13.07 8.14 4.71-1.78 7.22-7.55 4.21-11.89-1.4-2.03-4.36-1.8-6.39-1.08-2.98 1.05-4.97 3.41-6.62 5.99-.04-.42-.05-.82-.01-1.2.39-3.84 3.71-10.18 8.22-9.88zM201 46.62c1.08-1.85 2.39-4.08 4.28-5.27-.24.2.24.18.68.55.53.44.82 1.07 1.07 1.69 1.06 2.61.23 6.34-2.3 7.78-3.28 1.87-5.75-.72-6.73-3.62 1.14-.07 2.6-.47 2.99-1.14zM186.92 71.41c5.06-4.79 11.18-5.88 17.92-5.93 1.83-.02 4.62-2.82 1.64-2.79-8.69.07-16.67 1.62-23.16 7.76-1.93 1.83 2.4 2.09 3.6.96zM201.15 1.61c2.9-1.14.19-2.07-1.62-1.36-6.56 2.58-11.91 7.41-11.29 14.97.09 1.1 4.53.23 4.41-1.18-.49-5.98 3.1-10.3 8.5-12.43zM159.85 91.86l12.29-14.58-3.96-3.34-12.45 14.77c1.59.72 3 1.78 4.12 3.15zM91.18 97.05c13.82 3.18 27.6-5.45 30.77-19.27 3.17-13.82-5.46-27.6-19.27-30.77-13.82-3.17-27.59 5.45-30.77 19.27-3.18 13.82 5.45 27.6 19.27 30.77z"/><path d="M152.87 90.17c-4.94-1.02-9.77 2.16-10.78 7.1-3.05 14.95-7.06 24-10.5 28.55-1.71 2.29-3.19 3.46-4.34 4.1-1.16.62-2.05.81-3.16.83-1.6.02-3.84-.61-6.35-2.01-3.76-2.06-7.79-5.73-10.65-8.86a67.222 67.222 0 0 1-4.27-5.14c-.09-.13-.16-.22-.2-.28l-.03-.04c-.51-.72-1.1-1.34-1.76-1.87-.54-.75-1.2-1.42-1.99-1.98L63.41 85.88c-.34-.24-.7-.44-1.08-.6a9.128 9.128 0 0 0-7.88-.18l-.07.03c-.56.24-3.96 1.7-8.49 3.03-4.53 1.35-10.23 2.54-15 2.52-4.18.02-7.32-.9-8.98-2.19-.87-.66-1.55-1.4-2.21-2.69-.64-1.29-1.24-3.19-1.46-6.03-.39-5.03-4.79-8.78-9.82-8.38-5.03.39-8.78 4.79-8.38 9.81.37 4.73 1.46 9.03 3.35 12.79 2.79 5.67 7.5 9.8 12.49 12.01 5 2.26 10.15 2.93 15.03 2.94 3.08-.01 6.07-.29 8.93-.72a248.96 248.96 0 0 0-25.3 77.21c-.11.74-.17 1.47-.17 2.19-1.88 13.37-4.85 42.92-4.85 96.46 0 7.88 6.39 14.27 14.27 14.27s14.27-6.39 14.27-14.27c0-37.43 1.49-62.55 2.94-78.14.2-2.19.41-4.18.61-6 3.14.33 6.27.67 9.41 1 3.89 20.25 13.16 50.03 34.37 89.84 2.57 4.82 7.5 7.56 12.61 7.56 2.26 0 4.56-.54 6.69-1.68 6.95-3.71 9.59-12.34 5.88-19.3-27.67-51.96-32.76-83.63-33.52-96.98 3.82-16.35 9.82-32.11 17.82-46.89.91.95 1.89 1.93 2.95 2.93 3.08 2.88 6.75 5.86 11.08 8.27 4.31 2.39 9.4 4.29 15.22 4.31h.08c3.91 0 8.07-.98 11.87-3.08 5.78-3.18 10.5-8.55 14.36-15.84 3.87-7.34 7.03-16.78 9.58-29.13 1.02-4.94-2.16-9.77-7.1-10.78z"/></g></svg>