<svg xmlns="http://www.w3.org/2000/svg" xml:space="preserve" viewBox="0 0 1483.63 1142.82" shape-rendering="geometricPrecision" text-rendering="geometricPrecision" image-rendering="optimizeQuality" fill-rule="evenodd" clip-rule="evenodd"><g fill="currentColor"><path d="M162.02 533.79c8.14-12.5 15.96-22.45 23.13-30.35v47.34a159.1 159.1 0 0 0 5.44 3.45l5.35 3.23-.91 6.18c-.22 1.5-.57 3.03-1 4.59l2.11.77c13.68 5 27.39 7.42 41.9 7.42 18.23 0 35.08-3.8 51.39-7.47 4.22-.96 8.38-1.89 12.48-2.75 7.11-2.99 54.09-23.4 95.17-56.67v-2.87c.33.67.66 1.38.99 2.08 16.82-13.74 32.59-29.63 44.12-47.39.2-.3.43-.56.64-.85-27.53-42.54-60.37-48.08-74.62-48.27-.47-.02-.93-.07-1.4-.07H215.43c-4.7 0-9.14 1.1-13.11 3.01-15.71 5.47-49.27 22.41-85.19 73.17.79 2.6 1.46 5.3 1.87 8.19 8.47 7.87 25.48 23.3 43.02 37.25zM413.13 555.7c2.13 9.72 4.04 20.55 5.66 32.58-1.27 1.9-3.19 4.02-5.7 6.33-19.63 18.11-74.79 47.75-131.04 69.48-16.15 6.24-24.19 24.38-17.95 40.53 4.8 12.44 16.66 20.07 29.24 20.07 3.75 0 7.57-.68 11.28-2.11 1.73-.67 42.76-16.56 83.83-38.11 18.18-9.54 33.49-18.64 46.14-27.46 35.67-24.89 50.05-47.7 46.94-72.53v-.05c-3.86-30.56-9.61-55.72-16.55-76.44-13.98 16.59-31.33 32.53-51.85 47.71z"/><path d="M386.47 792.77c-12.18 0-23.14-7.71-27.27-19.18l-20.14-55.98c-16.84 7.37-29.01 12.13-31.33 13.02a39.707 39.707 0 0 1-14.39 2.69c-16.39 0-31.37-10.28-37.28-25.58-.18-.48-.31-.97-.48-1.45-17.13 7.16-31.74 12.19-42.22 12.19-1.53 0-2.99-.1-4.35-.32-7.84-1.21-16.56-4.63-23.86-8.06v384.29c0 26.76 21.69 48.44 48.44 48.44 26.75 0 48.45-21.68 48.45-48.44V740.7h18.16v353.69c0 26.76 21.69 48.44 48.44 48.44 26.75 0 48.45-21.68 48.45-48.44V790.74c-1.51.6-3.07 1.08-4.7 1.42-1.94.41-3.93.61-5.91.61zM291.11 389.84c48.69 0 88.16-39.47 88.16-88.16s-39.46-88.16-88.16-88.16c-48.68 0-88.16 39.47-88.16 88.16s39.47 88.16 88.16 88.16zm54.99-54.34c-11.4 18.46-31.75 30.83-54.99 30.83-23.24 0-43.6-12.37-54.99-30.83H346.1z"/><path d="m133.75 777.13 45.12-80.82c10.51 5.87 22.52 11.16 31.59 12.56 8.82 1.36 24.7-4.18 43.12-11.95-1.55-17.3 8.38-34.29 25.38-40.86 48.34-18.68 92.82-41.99 116.36-58.36l-.91-13.96c-.53-8.27-6.15-14.98-13.59-17.36 32.16-20.15 68.75-48.75 92.27-84.95 4.13-6.35 2.32-14.85-4.02-18.97-6.35-4.12-14.85-2.32-18.97 4.03-42.53 65.46-137.81 105.64-145.38 108.75-32.11 6.61-67.71 18.7-111.79 2.61-8.24 17.93-25.87 37.81-43.14 54.54a40.04 40.04 0 0 1 11.32 17.86c6.48 21.06-5.38 43.47-26.44 49.95-6.89 2.12-13.3 3.88-19.31 5.33l-14.14 58.89c-2.05 8.56 2.53 17.33 10.73 20.54 2.1.82 4.27 1.21 6.41 1.21 6.23 0 12.2-3.32 15.4-9.04zM368.05 770.4c2.84 7.9 10.31 12.96 18.42 12.96 1.32 0 2.66-.13 4-.41 9.56-1.98 16.19-10.71 15.55-20.45l-4.88-75.04a813.01 813.01 0 0 1-8.68 4.66c-15.71 8.24-31.3 15.61-44.78 21.67l20.37 56.62zM185.74 562.29c-26.58-16.04-63.32-49.65-75.71-61.25-2.57-34.39-37.79-42.68-37.79-42.68s4.98 15.44 6.52 33.96c-20.19-13.78-44.48-4.96-44.48-4.96s13.69 11.07 25.47 26.72c-3.63 2.96-6.8 6.26-8.62 9.75-6.6 12.69-7.82 31.25-25.52 33.66-17.71 2.4-20.15 2.42-24.93 8.07-4.79 5.64 16.71 44.73 36.64 49.79 19.93 5.07 43.56-24.69 50.92-21.53 4.99 2.14 11.75 14.38 18.15 31.39 1.64-.46 3.24-.93 4.76-1.39 3.82-1.18 7.78-1.78 11.76-1.78 5.92 0 11.57 1.3 16.68 3.64 22.01-21.11 43.6-45.98 46.15-63.37zM68.3 534.15c4.81-.65 9.25 2.72 9.9 7.54.65 4.82-2.72 9.25-7.53 9.9-4.82.66-9.25-2.72-9.91-7.53a8.81 8.81 0 0 1 7.54-9.91z"/><path d="M132.12 691.96c16.54-5.09 25.83-22.63 20.74-39.18-5.09-16.54-22.65-25.84-39.18-20.74-4.26 1.31-8.97 2.58-13.5 3.66-5.95-17.35-11.41-27.58-14.46-31.66-2.09 1.29-4.96 3.35-7.25 4.99-7.5 5.38-16.36 11.72-26.02 14.65a827.262 827.262 0 0 0-9.99 32.57v.02c-.34 1.2-.59 2.41-.78 3.61-2.06 11.44 1.41 22.79 9.73 30.93 5.72 5.6 13.26 10.92 29.76 10.92 6.78 0 15.13-.94 25.44-3.09 7.43-1.55 15.83-3.71 25.52-6.69zM125.7 387.96c62.32-116.09-7.19-121.45-26.85-110.78-19.66 10.68-17.5 29.09-17.5 29.09s-14.26-11.84-33.92-1.17c-19.67 10.68-53.04 71.89 78.28 82.86zM1318.83 863.07l-17.56 12.16-1.8-14.44c-7.83-.44-15.5-.33-22.97.23l-2.32 32.82-19.63-29.84c-33.61 6.52-61.19 20.76-77.18 30.56-2.1-4.89-4.11-9.72-5.99-14.36 16.84-2.49 31.02-1.68 31.02-1.68s-12.07-22.85-36.28-26.22c13.59-12.68 27.65-20.76 27.65-20.76s-30.67-17-55.49 5.1l-4-1.28s-26.27-1.94-37.93 6.34c-9.68 6.88-17.91 19.02-30.07 19.56l2.51 15.92-18.39-19.92c-9.91-3.42-12.39-3.73-17.98-1.41-2.94 1.23-4.36 10.2-3.8 21.09.74 14.41 4.95 32.2 13.74 39.93 15.44 13.59 50.02-2.14 55.14 4.02 2.48 2.99 3.4 10.99 3 21.89-.44 11.63-2.4 26.54-5.68 42.31.58-.03 1.15-.09 1.73-.14 49.96-3.58 88.1-33.64 99.35-43.49 1.15 1.98 2.29 3.9 3.42 5.69 0 0-32.26 31.8-79.83 43.07l-67.87 120.19c-4.44 7.87-2.22 17.81 5.14 23.04 3.09 2.19 6.65 3.26 10.2 3.26 4.91 0 9.78-2.04 13.24-5.99l96.58-109.81c1.25.56 2.54 1.11 3.89 1.65l.82-.74-.18.99c9.68 3.79 21.38 6.78 31.19 6.43 20.82-.76 53.55-37.3 101.75-41.02-24.51 19.08-51.08 47.04-41.09 73.41 17.41 46.01 85.9-2.93 95.84-9.3 6.36-4.09-8.77 39.13-11.68 65.01-1.64 14.49 6.19 21.24 11.89 21.96 29.39 3.74 65.15-123.18 51.22-143.64-13.92-20.45-29.74 4.61-46.47-1.92-1.57-.61-3.04-1.4-4.44-2.26 18.13-7.75 30.14-35.63 31.42-49.69 5.53 6.18 10.9 12.85 16.1 20.09 34.33 47.75 39.15 92.48 39.19 92.89.67 7.1 6.64 12.42 13.64 12.42.43 0 .87-.02 1.31-.06 7.54-.71 13.07-7.4 12.36-14.94-.2-2.11-5.33-52.21-44.23-106.32-33.68-46.85-74.21-74.65-120.52-82.81zm-206.51 6.87c-1.61 4.58-6.64 7-11.22 5.38-4.58-1.61-7-6.63-5.38-11.22 1.61-4.58 6.64-7 11.22-5.39 4.59 1.61 7 6.64 5.39 11.22zM1359.37 828.8c-6.83-3.03-14.67-2.78-23.26.75-2 .83-2.96 3.11-2.13 5.11.82 2.01 3.12 2.97 5.11 2.14 6.51-2.68 12.25-2.97 17.04-.86 7.49 3.29 10.58 11.46 10.61 11.54a3.911 3.911 0 0 0 3.68 2.57 3.915 3.915 0 0 0 3.69-5.24c-.16-.46-4.18-11.32-14.74-16.01z"/><path d="M1334.4 819.94c10.57-4.82 20.09-5.66 28.3-2.48 12.53 4.85 18.12 17.61 18.18 17.74a3.905 3.905 0 0 0 5.12 2.07 3.908 3.908 0 0 0 2.08-5.13c-.27-.65-6.84-15.86-22.47-21.96-10.26-4-21.87-3.12-34.47 2.63-1.97.9-2.84 3.22-1.94 5.19.9 1.97 3.21 2.82 5.19 1.94zM1005.08 858.22c.16.02.31.02.46.02a3.92 3.92 0 0 0 3.89-3.45c.83-7 3.37-12.15 7.53-15.32 6.48-4.91 15.05-3.69 15.25-3.67 2.14.36 4.14-1.11 4.48-3.24.35-2.13-1.1-4.15-3.23-4.5-.49-.08-11.93-1.85-21.15 5.1-5.98 4.5-9.56 11.46-10.66 20.69a3.924 3.924 0 0 0 3.43 4.36z"/><path d="M1028.36 817.48c2.17.21 4.07-1.33 4.3-3.47a3.915 3.915 0 0 0-3.47-4.32c-.69-.08-17.19-1.73-30.11 8.97-8.49 7.03-13.36 17.6-14.46 31.4a3.915 3.915 0 0 0 3.91 4.23c2.03 0 3.74-1.56 3.91-3.6.92-11.58 4.82-20.31 11.58-25.93 10.31-8.59 24.15-7.29 24.34-7.27zM638.79 302.36c0 48.69 39.47 88.15 88.15 88.15 48.7 0 88.16-39.47 88.16-88.16s-39.46-88.16-88.16-88.16c-48.68 0-88.16 39.47-88.15 88.16zM691 334.89c3.93-13.74 26.36-19.38 50.1-12.59 23.74 6.79 39.79 23.44 35.86 37.18-3.92 13.75-19.24-5.51-42.98-12.3-23.74-6.79-46.91 1.45-42.98-12.3z"/><path d="M1095.17 992.24a5.862 5.862 0 0 0-4.66.09c-78.28 35.93-130.43-28.01-196.46-108.99-16.51-20.25-33.37-40.85-51.34-60.8l-9.79-127.13V469.68l168.74-48.19c14.59-4.17 24.1-18.19 22.57-33.3l-11.59-114.5 14.62 9.45 15.96-24.68-34.37-22.22-.28-2.81c-1.74-17.22-17.14-29.81-34.34-28.03-3.3.34-6.43 1.18-9.32 2.43L643.45 0l-15.96 24.68 319.08 206.29c-.51 2.83-.67 5.77-.37 8.77l13.03 128.67-155.72 44.48c-.29-.01-.57-.05-.87-.05H651.27c-.68 0-1.35.06-2.02.1-11.06.28-32.47 3.88-54.38 24.46-49.74 46.73-70.55 152.18-61.94 313.42-9.34 4.38-14.74 7.52-15.02 7.69a5.888 5.888 0 0 0-2.03 8.06c1.66 2.78 5.27 3.7 8.05 2.03.23-.13 3.82-2.22 10.11-5.31 3.11 14.21 15.74 24.61 30.55 24.61.61 0 1.24-.01 1.86-.05 17.28-1.01 30.47-15.84 29.46-33.12-.27-4.53-.5-8.96-.71-13.35 7.17-1.72 14.72-3.25 22.57-4.46l-27.26 353.73c-2.06 26.68 17.9 49.97 44.57 52.02 26.67 2.06 49.97-17.89 52.03-44.57l27.41-355.6a187.93 187.93 0 0 1 25.6 9.85l26.64 345.75c2.06 26.68 25.35 46.63 52.03 44.57 26.67-2.05 46.63-25.33 44.58-52.02l-19.17-248.7c14.04 16.13 27.5 32.58 40.74 48.81 53.33 65.41 100.82 123.65 162.2 123.65 15.14 0 31.14-3.55 48.27-11.41 2.95-1.35 4.24-4.84 2.89-7.79a5.62 5.62 0 0 0-1.02-1.49c-.6-.65-1.31-1.16-2.11-1.48zM594.68 729.48c-4.83-121.51 9.88-188.11 26.3-222.25v188.14l-2.28 29.57c-8.35 1.21-16.38 2.76-24.02 4.54z"/><path d="M722.64 129.46a5.865 5.865 0 0 0-6.48.99l-27.89 25.63-30.52-56.23c-1.2-2.21-3.67-3.43-6.15-2.99a5.884 5.884 0 0 0-4.82 4.85L638.76 151l-46.6-31.09a5.9 5.9 0 0 0-6.74.15 5.895 5.895 0 0 0-2.16 6.39l14.75 50.27-58.37-4.07c-2.54-.2-4.9 1.29-5.86 3.65a5.876 5.876 0 0 0 1.65 6.7l45.52 38.48-40.3 19.41a5.872 5.872 0 0 0-3.31 5.81 5.89 5.89 0 0 0 4.29 5.14l36.71 10.19-34.82 37.36a5.865 5.865 0 0 0-.83 6.87 5.873 5.873 0 0 0 5.13 3.01c.38 0 .78-.04 1.16-.11l53.5-10.77c3.18-.65 5.24-3.74 4.6-6.92-.64-3.18-3.74-5.23-6.92-4.6l-35.57 7.16 28.96-31.06c1.4-1.5 1.91-3.62 1.36-5.6a5.853 5.853 0 0 0-4.09-4.06l-30.98-8.6 34.39-16.56c1.8-.87 3.03-2.58 3.28-4.56.25-1.98-.51-3.94-2.03-5.23l-38.72-32.72 48.86 3.41c1.94.17 3.78-.68 4.99-2.18 1.2-1.5 1.6-3.5 1.06-5.34l-12.57-42.86 40.75 27.18a5.874 5.874 0 0 0 5.61.5 5.87 5.87 0 0 0 3.46-4.44l6.72-41.33 25.91 47.73a5.889 5.889 0 0 0 4.2 2.99c1.81.3 3.61-.24 4.94-1.47l22.81-20.96-1.64 30.35c-.17 3.24 2.31 6.01 5.55 6.18 3.23.12 6.01-2.31 6.19-5.55l2.41-44.76a5.87 5.87 0 0 0-3.36-5.63zM1224.79 713.37c-23.71-19.14-57.39 28.54-46.83 62.07 31.71-37.31 69.14-44.06 46.83-62.07zM1131.95 733.34c-23.93 3.18-14.89 48.54 10.13 60.77-4.14-38.57 12.39-63.76-10.13-60.77zM1247.73 780.78c-13.68-16.08-42.73 12.07-39.85 36.25 26.38-21.33 52.73-21.13 39.85-36.25z"/></g></svg>