<svg xmlns="http://www.w3.org/2000/svg" xml:space="preserve" viewBox="0 0 2435.08 1888.69" shape-rendering="geometricPrecision" text-rendering="geometricPrecision" image-rendering="optimizeQuality" fill-rule="evenodd" clip-rule="evenodd"><g fill="currentColor"><path d="M560.85 970.02c-60.56-87.42-95.16-204.59-121.74-299.5-51.26 20.64-94.25 28.25-114.52 30.91l-1.06.14c-3.34.4-5.98.55-8.6.55-37.56 0-68.91-28.19-72.95-65.57-4.32-40.12 24.78-76.38 64.89-80.84 1.24-.15 2.56-.34 4.36-.63 5.29-.86 11-1.96 16.92-3.29 13.1-2.94 33.25-8.37 55.96-17.44-27.54-32.14-64.88-51.05-101.74-42.48-20.38 4.73-40.99 15.48-59.04 31.62-23.5 15.12-64.32 45.89-105.04 98.23C58.64 698 1.09 821.22 1.4 999.2c0 42.39 3.19 87.87 10.23 136.64 4.2 29.25 29.3 50.34 58.03 50.35 2.8 0 5.62-.2 8.46-.62 32.1-4.62 54.38-34.39 49.76-66.5-6.27-43.52-9.01-83.39-9.01-119.88.22-116.01 27.27-198.08 59.9-256.4 23.17 124.47 59.33 209.32 139.74 329.8 39.62 50.56 80.2 66.72 118.47 66.04 15.99 42.11 34.39 110.07 34.34 199.98-.06 90.86-18.42 204.91-79.01 341.1-20.64 46.29.17 100.55 46.47 121.18 12.14 5.41 24.82 7.96 37.3 7.96 35.13 0 68.67-20.29 83.89-54.45 70.75-158.64 94.98-299.74 94.91-415.8-.09-159.35-44.8-269.74-70.46-320.03-4.6-13.55-12.29-29.46-23.55-48.58zM566.44 148.74c11.67-15.75 28.79-26.01 48.2-28.88 3.59-.53 7.23-.81 10.82-.81 28.61 0 54.11 16.99 66.09 41.84 43.41-27.91 91.99-59.13 91.99-59.13 5.97-3.84 7.8-11.68 4.05-17.51L737.07 5.66c-3.75-5.83-11.63-7.42-17.6-3.57 0 0-118.55 76.2-150.75 96.9-32.21 20.7-47.13 47.66-74.32 80.02-11.31 13.47-39.48 35.46-61.21 51.62-33.18-69.15-111.36-107.9-188.72-88.64-88.5 22.02-142.4 111.62-120.4 200.12 22.02 88.5 111.64 142.41 200.14 120.37 85.04-21.15 138.08-104.69 122.59-189.71 23.93-13.44 62.87-34.37 82.32-39.74 9.32-2.59 18.09-4.7 26.51-6.67-.79-7.63-1.7-15.32-2.85-23.12-2.88-19.4 1.96-38.75 13.66-54.5z"/><path d="M313.52 569.58c-1.98.31-3.42.51-4.26.62a9.8 9.8 0 0 1-.63.08l-.15.01.01.01c-32.16 3.56-55.4 32.47-51.92 64.67 3.25 30.11 28.73 52.44 58.34 52.44 2.1 0 4.22-.11 6.35-.34v-.01c4.82-.77 91.15-9.63 182.78-65.39 45.63-27.95 92.73-68.44 128.2-126.03 35.54-57.48 58.33-131.56 58.2-221.21 0-28.57-2.24-58.72-6.95-90.56-4.75-32.08-34.63-54.24-66.71-49.49-32.1 4.75-54.25 34.62-49.51 66.71 3.94 26.55 5.69 50.95 5.69 73.34-.13 70.4-16.92 120.65-40.77 159.6-35.62 58.07-90.82 92.71-139.35 112.64-24.07 9.9-46.03 15.96-61.52 19.44-7.73 1.74-13.87 2.83-17.82 3.47zM1678.11 291.58c3.6 0 7.24.27 10.84.8 40.02 5.96 67.77 43.36 61.85 83.39-1.29 8.69-2.28 17.24-3.12 25.7a516.2 516.2 0 0 1 15.75 4.1c22.53 6.23 71.11 33.27 92.37 45.45-12.17 83.01 40.42 163.32 123.54 184.01 88.52 22.03 178.12-31.87 200.15-120.37 22.01-88.5-31.89-178.11-120.4-200.13-79.59-19.81-160.03 21.8-191.47 94.73-22.2-16.24-56.64-42.45-69.48-57.72-27.18-32.36-42.1-59.32-74.32-80.02-32.2-20.7-150.75-96.9-150.75-96.9-5.97-3.84-13.85-2.26-17.6 3.58l-50.51 78.59c-3.75 5.84-1.93 13.67 4.04 17.51 0 0 55.28 35.54 100.61 64.67 10.67-27.83 37.77-47.38 68.49-47.38z"/><path d="M1988.65 859.94c29.6 0 55.08-22.34 58.33-52.44 3.47-32.24-19.86-61.2-52.09-64.68l.01-.01c-4.36-.3-75.93-10.75-140.27-52.69-32.33-20.9-62.82-48.92-85.53-87.23-22.63-38.44-38.43-87.72-38.53-155.92 0-22.39 1.75-46.79 5.69-73.34 4.75-32.07-17.4-61.95-49.47-66.71-32.09-4.77-61.96 17.39-66.72 49.46-4.73 31.86-6.98 62.03-6.98 90.58-.15 89.66 22.65 163.72 58.22 221.19 53.47 86.56 131.87 133.86 194.72 159.7 63.2 25.88 112.61 31.29 116.26 31.74 2.14.23 4.26.34 6.35.34z"/><path d="M2134.01 1637.9c-93.16-54.74-143.96-109.84-172.73-158.4-28.59-48.69-36.55-92.47-36.71-130.79-.03-20.1 2.42-38.51 5.71-54.07 18.26-10.42 36.63-26.32 54.78-49.51 91.15-136.56 125.48-227.29 148.42-381.91 16.02-112.53-49.37-184.2-112.28-198.82-36.87-8.57-74.19 10.33-101.73 42.45 41.89 16.61 76.11 21.28 76.58 21.32 40.64 4.38 69.84 40.65 65.54 80.9-4.06 37.38-35.38 65.55-72.93 65.55-2.65 0-5.29-.14-7.97-.44-13.5-1.62-59.41-8.43-116.23-31.16-25.64 91.55-58.85 203.7-115.5 289.99-28.32 8.31-66.26 21.91-106.32 43.57-39.09 21.45-80.98 51.11-115.29 95.16-34.35 43.58-59.08 103.84-58.67 171.64 0 49.68 12.32 102.01 36.69 156.21 24.43 54.3 60.84 111 111.31 172.2 18.14 21.99 44.39 33.38 70.84 33.38 20.56 0 41.23-6.88 58.33-20.98 39.1-32.25 44.64-90.09 12.4-129.19-42.53-51.52-69.64-95.34-85.45-130.62-15.88-35.41-20.56-61.74-20.56-81 .4-26.12 7.21-41.76 20.18-59.21 14.65-19.68 41.22-38.31 69.04-52.17-.21 5.49-.4 11.02-.42 16.71-.17 65.67 15.37 145.13 62.22 224.15 46.67 79.14 123.24 156.24 237.91 223.36 14.57 8.55 30.56 12.62 46.33 12.63 31.49 0 62.15-16.23 79.24-45.37 25.66-43.71 11-99.94-32.72-125.58zM851.46 667.35s-.13-7.67-.13-9.51c0 0 .13-11.79-6.4-11.79H818.4c-6.53 0-6.38 11.79-6.38 11.79-.02 1.84-.15 9.51-.15 9.51l-.14 7.63s-3.25 85.55-12.31 114.69c-12.58 40.54-27.27 67.78-27.27 106.24v179.99c0 7.14 5.63 12.93 12.6 12.93h93.83c6.97 0 12.58-5.79 12.58-12.93V895.91c0-38.46-14.67-65.7-27.24-106.24-9.03-29.14-12.29-114.69-12.29-114.69l-.15-7.63zM1032.55 667.35s-.12-7.67-.12-9.51c0 0 .12-11.79-6.4-11.79h-26.54c-6.52 0-6.38 11.79-6.38 11.79-.02 1.84-.14 9.51-.14 9.51l-.15 7.63s-3.25 85.55-12.31 114.69c-12.58 40.54-27.27 67.78-27.27 106.24v179.99c0 7.14 5.64 12.93 12.6 12.93h93.83c6.96 0 12.57-5.79 12.57-12.93V895.91c0-38.46-14.67-65.7-27.24-106.24-9.03-29.14-12.3-114.69-12.3-114.69l-.15-7.63zM1238.12 667.35s-.13-7.67-.13-9.51c0 0 .12-11.79-6.4-11.79h-26.53c-6.53 0-6.38 11.79-6.38 11.79-.02 1.84-.15 9.51-.15 9.51l-.14 7.63s-3.25 85.55-12.31 114.69c-12.58 40.54-27.27 67.78-27.27 106.24.01 38.44 0 179.99 0 179.99.01 7.14 5.64 12.93 12.6 12.93h93.83c6.97 0 12.58-5.79 12.58-12.93V895.91c0-38.46-14.67-65.7-27.24-106.24-9.03-29.14-12.29-114.69-12.29-114.69l-.15-7.63zM1352.51 1088.84h93.83c6.97 0 12.58-5.79 12.58-12.93V895.92c0-38.46-14.67-65.7-27.24-106.24-9.03-29.14-12.29-114.69-12.29-114.69l-.15-7.63s-.13-7.67-.13-9.51c.01 0 .13-11.79-6.4-11.79h-26.54c-6.52 0-6.38 11.79-6.38 11.79-.02 1.84-.14 9.51-.14 9.51l-.15 7.63s-3.25 85.55-12.31 114.69c-12.58 40.54-27.27 67.78-27.27 106.24v179.99c0 7.14 5.63 12.93 12.6 12.93zM1446.35 1769.69h-179.98c-38.46 0-65.7 14.67-106.25 27.24-29.14 9.03-114.69 12.29-114.69 12.29l-7.63.15s-7.68.13-9.51.13c0 0-11.79-.13-11.79 6.4v26.53c0 6.53 11.79 6.38 11.79 6.38 1.83.02 9.5.15 9.5.15l7.63.14s85.55 3.25 114.69 12.31c40.54 12.58 67.79 27.27 106.25 27.27h179.98c7.14 0 12.93-5.64 12.93-12.6v-93.83c0-6.97-5.79-12.58-12.93-12.58zM1510.04 1141.98H704.93v34.26h805.11zM408.81 1369.57H-.01v34.26h408.82z"/><path d="M2038.64 1403.83h396.44v-34.26h-396.44zM1385.23 1369.57H709.81v34.26h675.42z"/></g></svg>