<svg xmlns="http://www.w3.org/2000/svg" xml:space="preserve" viewBox="0 0 1578.63 1647.8" shape-rendering="geometricPrecision" text-rendering="geometricPrecision" image-rendering="optimizeQuality" fill-rule="evenodd" clip-rule="evenodd"><g fill="currentColor"><path d="M1411.13 1008.44c54.64-.8 108.23-6.22 126.69-22.93 42.41-38.37 58.79-282 14.7-394.79-31.36-80.22-237.14-129.13-353.41-150.7 132.82 102.26 189.32 391.35 212.02 568.41zM990.17 395.74c100.58 0 182.16-81.56 182.16-182.16 0-100.62-81.57-182.16-182.16-182.16-100.63-.01-182.16 81.54-182.16 182.16.01 100.6 81.53 182.16 182.16 182.16z"/><path d="M931.5 807.58c22.27-23.27 40.55-52.38 54.28-86.53 27.66-68.3 27.93-136.73 27.87-144.32l-.04-4.09c-.94-21.64 6.49-42.05 20.91-57.8 14.42-15.73 34.11-24.9 55.44-25.83 1.16-.06 2.36-.08 3.53-.08 42.86 0 77.9 33.57 79.77 76.42.03.81.19 4.72.2 11.16-.04 25.39-2.42 76.92-17.81 137.61-20.86 81.59-57.43 150.21-108.74 203.96-44.96 47.12-100.6 81.58-165.34 102.4-2.69.86-5.45 1.38-8.19 1.96-.4 58.74 1.37 113.19 4.25 158.33 1 15.61 62.24 22.06 142.65 21.99-4.34 36.55-7 75.98-7.04 118.15-.02 81.51 9.84 172.83 35.91 270.97 8.94 33.66 39.37 55.91 72.63 55.91 6.38-.01 12.89-.82 19.36-2.54 40.15-10.65 64.05-51.86 53.39-91.99-22.54-84.88-30.89-162.91-30.89-232.35-.04-45.3 3.56-86.98 9.13-124.44 121.72-9.33 234.54-28.03 233.17-49.41-15.57-243.97-96.1-725.57-311.54-725.57-137.51 0-194.13 209.95-213.06 425.27 18.55-10.72 35.21-23.67 50.16-39.19z"/><path d="M875.82 1002.6c65.96-21.21 118.36-56.46 157.5-97.5 58.94-61.75 88.53-134.55 104.12-195.59 15.52-61.24 17.19-111.75 17.22-132.94-.02-5.98-.14-9.61-.19-10.41-1.46-33.71-30-59.85-63.7-58.38-33.71 1.46-59.85 29.98-58.38 63.71l.02.71c.03.86.04 2.35.04 4.37.14 18.84-2.69 85.95-29.23 151.49-13.21 32.86-31.95 65.15-58.19 92.54-26.36 27.4-59.92 50.47-106.78 65.69-32.1 10.37-49.74 44.81-39.36 76.93 8.36 25.86 32.34 42.33 58.15 42.33a61.2 61.2 0 0 0 18.78-2.97zM411.35 417.36c113.73 26.49 227.39-44.25 253.89-157.98C691.73 145.65 620.99 31.98 507.26 5.5 393.53-21 279.84 49.75 253.36 163.47c-26.48 113.72 44.26 227.42 158 253.89zM230.54 1287.59c19.14-.24 35.9-.89 50.33-3.18l23.05-.01-175.11 144.34c-50.1 41.27-57.22 115.32-15.95 165.41 23.23 28.18 56.85 42.77 90.75 42.77 26.3 0 52.77-8.78 74.66-26.83l427.69-352.49a117.385 117.385 0 0 0 35.86-130.38 117.349 117.349 0 0 0-110.6-77.79H341.76c.71-99.04 18.68-201.65 36.44-291.1-78.17-18.74-135.55-49.36-162.21-65.59l-1.61-1-.45-.24-.62-.4c-43.43-28.31-55.76-86.65-27.44-130.07 17.41-26.74 46.88-42.69 78.83-42.69 18.17 0 35.89 5.26 51.19 15.21l1.06.63c2.49 1.48 5.84 3.41 10.35 5.84 8.67 4.61 22.86 11.61 41.07 18.73 10.18 3.99 22.36 8.18 35.83 12.09-7.91-63.28-41.54-118.61-95.64-132.1-80.25-20.01-196.57 23.57-243.9 161.2C.7 789.58-13.06 913 11.26 1121.83c29.4 151.34 133.13 166.87 219.27 165.78z"/><path d="M318.45 556.58c-4.85-2.6-8.45-4.68-10.62-5.97-1.11-.65-1.84-1.1-2.18-1.33l-.02.01c-34.79-22.64-81.35-12.79-104.01 21.98-22.67 34.79-12.84 81.4 21.98 104.06h-.03c6.51 3.6 120.63 79.28 284.85 80.12 1.19.01 2.41.02 3.6.02 118.03 0 261.49-46.49 384.78-183.42 27.93-30.73 25.66-78.28-5.05-106.23-30.74-27.95-78.28-25.69-106.23 5.05-99.32 107.88-193.53 133.24-277.1 134.18-57.48.07-109.67-14.24-146.88-28.81-18.59-7.26-33.37-14.49-43.1-19.66z"/></g></svg>