<svg xmlns="http://www.w3.org/2000/svg" xml:space="preserve" viewBox="0 0 287.19 320.49" shape-rendering="geometricPrecision" text-rendering="geometricPrecision" image-rendering="optimizeQuality" fill-rule="evenodd" clip-rule="evenodd"><g fill="currentColor"><path d="M149.46 137.94v-31.71h83.95v49.14h-52.57c-.13 1.41-.45 2.78-.96 4.09h57.63v-57.33h-92.14v34.49c.62.32 1.65.76 3.14 1.09.3.08.63.15.96.21zM173.38 167.22h68.99v-4.65h-64.11c-.25.36-.5.72-.78 1.07a15.222 15.222 0 0 1-4.11 3.58zM132.83 51.41l6.1-1.49-2.53 5.75-7.94 18.01c.42.27.82.56 1.21.86.77.59 1.49 1.25 2.17 1.95 6.61-6.34 10.73-15.26 10.73-25.15 0-2.66-.31-5.25-.87-7.75L77.8 33.42a34.719 34.719 0 0 0-4.95 17.91c0 1.41.09 2.8.26 4.17 6.73 1.11 13.95 2 19.66 2 14.81 0 39.82-6.05 40.07-6.11zM50.55 312.93c0 3.42 2.78 6.2 6.2 6.2h83.2c3.42 0 6.2-2.78 6.2-6.2v-80.97h-42.51c0-.13.02-.25.02-.38v-74.5c0-26.83-21.76-48.59-48.59-48.59h-6.48C21.76 108.49 0 130.24 0 157.08v74.5c0 12.66 23.08 19.34 47.45 20.06 1.03.03 2.06.05 3.1.06v61.23z"/><path d="M175.33 190.12h-50.25v-34.1c5.24 5.22 11.46 7.45 16.94 8.83 6.24 1.49 12.11 1.78 16.62 1.79 4.61 0 7.78-.35 8.1-.38 6.81-.75 11.72-6.87 10.97-13.67-.75-6.81-6.88-11.72-13.68-10.97-.28.03-2.45.23-5.39.23-3.26.01-7.5-.28-10.82-1.1-3.41-.75-5.34-2.17-5.35-2.36-2.18-2.66-3.84-6.82-4.78-12.22-1.47-8.1-1.09-18.08-1.48-27.14-.28-4.61-.51-8.99-2.56-14.16-1.07-2.55-2.83-5.52-5.92-7.9-.99-.78-2.1-1.42-3.26-1.95l9.08-20.6s-25.43 6.2-40.8 6.2c-15.36 0-40.8-6.2-40.8-6.2l8.34 18.92h-7.05c-.94 0-1.85.12-2.72.32-4.77.65-8.61 2.47-12.57 4.65-7.05 4.09-13.99 10.08-19.74 17.62-5.64 7.52-10.32 16.78-10.4 27.76 0 .52.04 1.06.07 1.59 9.47-12.09 24.19-19.89 40.7-19.89h6.48c28.5 0 51.69 23.19 51.69 51.69v71.78h49.21v67.4c0 10.69 8.67 19.37 19.37 19.37 10.7 0 19.37-8.67 19.37-19.37v-86.77c0-5.1-2.06-10.09-5.67-13.7-3.61-3.6-8.6-5.67-13.7-5.67zM167.81 44.61l.82-5.16-23.09-3.67 1.63-21.84S137.76 4.08 117.69.88C97.63-2.31 85.62 4.14 85.62 4.14L80.4 25.41l-23.09-3.67-.82 5.16 111.32 17.71z"/><path d="M132.24 182.06h121.9v138.42h10.07V182.06h22.98v-9.29H132.24z"/></g></svg>