<svg xmlns="http://www.w3.org/2000/svg" xml:space="preserve" viewBox="0 0 128.09 198.88" shape-rendering="geometricPrecision" text-rendering="geometricPrecision" image-rendering="optimizeQuality" fill-rule="evenodd" clip-rule="evenodd"><g fill="currentColor"><path d="M35.94 26.88c-1.77 2.95-2.79 6.25-3.1 9.99 4.9-3.72 7.95-9.53 8.11-15.78-2.04 1.75-3.72 3.67-5.01 5.8zM20.34 17.49c3-5.02 7.28-9.48 12.59-13.2C28.24.7 22.04-.85 15.83.6 4.82 3.16-2.03 14.17.53 25.18c1.72 7.39 7.24 12.89 14.01 14.95 0-.27-.02-.54-.02-.82-.01-8.06 1.95-15.4 5.82-21.83zM43.01 45.86a56.87 56.87 0 0 0-9.96-1.92c.02.12.04.25.05.37.86 5.78 2.92 10.64 3.42 11.56.6 1.16.93 2.38 1.02 3.61.08 1.14-.05 2.28-.41 3.39a9.083 9.083 0 0 1-4.5 5.32 9.194 9.194 0 0 1-4.17 1.01c-3.43 0-6.53-1.89-8.1-4.94l-.02-.04-.03-.07-.09-.18c-1.32-2.73-3.2-7.28-4.44-13.04-1.89 4.27-2.26 9.73-.84 14.67 2.49 12.74 6.92 31.01 4.82 46.66-.05.8-.08 1.56-.09 2.27-1 1.01-2.01 2.1-3.03 3.28C8.78 126.83.79 141.39.83 160.94c0 9.19 1.73 19.36 5.72 30.42 2.13 5.91 8.65 8.97 14.56 6.84 5.91-2.13 8.98-8.65 6.85-14.56-3.2-8.88-4.37-16.36-4.37-22.7.01-1.73.1-3.39.26-4.98.76 3.6 1.81 7.29 3.23 11.04 3.65 9.66 9.76 19.58 19.11 28.65 2.21 2.15 5.07 3.22 7.93 3.22 2.96 0 5.93-1.15 8.16-3.44 4.38-4.5 4.28-11.71-.22-16.09-7-6.82-11.15-13.72-13.7-20.41-2.53-6.68-3.41-13.21-3.41-19.1 0-6.24 1-11.71 2-15.52.5-1.91.98-3.39 1.33-4.35.13-.36.23-.64.31-.84 1.65-2.27 2.95-5.26 3.71-9.22 2.12-18.25 1.23-29.77-3.51-45.34 1.85 1.38 3.52 3.02 4.9 5.02 2.4 3.51 4.16 8.19 4.18 15.35 0 3.37-.41 7.29-1.4 11.8a7.282 7.282 0 0 0 5.56 8.67c.52.12 1.05.17 1.56.17 3.35 0 6.36-2.32 7.11-5.73 1.18-5.39 1.74-10.35 1.74-14.91.02-9.65-2.58-17.63-6.77-23.64-6.3-9.07-15.42-13.34-22.69-15.45z"/><path d="M28.48 67.38a7.27 7.27 0 0 0 7.19-8.32c-.11-.78-.35-1.55-.73-2.29-.25-.43-2.87-6.08-3.74-12.97v-.01c-.18-1.44-.29-2.94-.28-4.46 0-.39.02-.78.03-1.16.15-4.16 1.1-8.32 3.44-12.22 1.48-2.44 3.53-4.87 6.49-7.17 2.19-1.7 4.88-3.33 8.21-4.84a7.28 7.28 0 0 0 3.65-9.63A7.28 7.28 0 0 0 43.11.66c-3.23 1.45-6.14 3.08-8.75 4.86-5.5 3.76-9.63 8.18-12.46 12.93-4.2 6.98-5.56 14.38-5.55 20.88 0 .43.01.87.02 1.29.08 2.78.39 5.41.81 7.83 1.53 8.67 4.64 14.58 4.81 15a7.278 7.278 0 0 0 6.48 3.95zM123.2 58.28c-1-1.12-2.97-1.61-4.38-1.09l-6.1 2.25c-1.41.52-2.92 2.12-3.36 3.55l-1.28 4.18c-.44 1.44.22 3.29 1.47 4.12l6.38 4.25c1.25.83 3.28.82 4.52-.03l5.21-3.58c1.24-.85 2.31-2.77 2.38-4.27l.05-1.07c.07-1.5-.69-3.64-1.69-4.76l-3.18-3.56zM77.61 34.01c-.27-.01-.53-.04-.8-.06-7.03-.57-14.45-3.77-16.79-11.02-.46-2.12-.82-3.33-1.03-3.55-.25-.28-.27.93.03 3.83 1.59 8.36 10.3 13.21 18.11 14.41 2.38.46 4.66 1.2 6.8 2.18 4.42 2.02 8.23 5.09 10.96 8.98.01.02.03.03.04.05 2.67 3.63 5.22 6.44 7.09 5.82 1.95-.6 1.54-5.68-2.3-9.84-5.69-6.43-13.97-10.2-22.12-10.8z"/></g></svg>