<svg xmlns="http://www.w3.org/2000/svg" xml:space="preserve" viewBox="0 0 80.08 89.6" shape-rendering="geometricPrecision" text-rendering="geometricPrecision" image-rendering="optimizeQuality" fill-rule="evenodd" clip-rule="evenodd"><g fill="currentColor" fill-rule="nonzero"><path d="M72.88 7.16c-2-.84-4.47-1.66-7.53-2.48.52 1.16.82 2.44.82 3.79 0 .9-.13 1.77-.37 2.59 3.03.89 5.17 1.75 6.52 2.5.82.44 1.33.84 1.58 1.09-.27.27-.78.72-1.49 1.13-1.57.95-3.89 1.86-5.75 2.46-.94.31-1.76.55-2.35.71-.21.06-.38.11-.53.14H49.67c-.05 0-.1.01-.15.01-.68.01-1.81.16-3.09.8-2.03 1-4.21 3.2-5.74 7.1-1.55 3.91-2.59 9.56-2.59 18.1 0 2.21.07 4.6.22 7.22.09 1.6 1.42 2.84 3.01 2.84.06 0 .12 0 .18-.01a3.01 3.01 0 0 0 2.83-3.18c-.15-2.5-.21-4.79-.21-6.86-.01-9.12 1.32-14.24 2.62-16.92v56.5c0 2.57 2.09 4.66 4.66 4.66 2.57 0 4.66-2.08 4.66-4.66v-34h1.75v34c0 2.57 2.09 4.66 4.66 4.66 2.57 0 4.66-2.08 4.66-4.66V24.42c1.26-.38 2.91-.92 4.61-1.62 1.76-.73 3.55-1.59 5.11-2.74.78-.58 1.51-1.24 2.13-2.11.61-.86 1.11-2 1.11-3.31.01-1.41-.61-2.77-1.48-3.77-1.33-1.52-3.15-2.61-5.72-3.71z"/><path d="M65.41 8.48c0-4.68-3.79-8.47-8.47-8.47-4.68 0-8.47 3.79-8.47 8.47 0 4.68 3.79 8.47 8.47 8.47 4.68 0 8.47-3.79 8.47-8.47zM16.48 17.62a8.466 8.466 0 0 0 10.17-6.33 8.466 8.466 0 0 0-6.33-10.17 8.466 8.466 0 0 0-10.17 6.33c-1.06 4.56 1.77 9.12 6.33 10.17zM5.78 52.16c.96 3.16 2.16 8.36 2.15 14.6 0 4.98-.74 10.61-2.92 16.5-.9 2.44.34 5.15 2.78 6.05a4.72 4.72 0 0 0 6.05-2.78c2.62-7.07 3.51-13.85 3.51-19.77-.01-9.43-2.23-16.69-3.42-19.94-.15-1.12-.21-2.27-.22-3.43-1.37-1-2.57-2.19-3.54-3.53-2.27-3.17-3.44-7.08-3.46-11.65 0-1.86.21-3.14.25-3.38a3.763 3.763 0 0 1 4.37-3.05c.99.18 1.85.73 2.43 1.55.58.82.79 1.82.62 2.82l-.01.07c-.01.08-.03.22-.05.4-.04.35-.08.9-.08 1.59 0 .97.09 2.71.65 4.47.35-1.86.72-3.61 1.03-5.16 1.08-3.75-.33-8.24-3.55-9.04-3.22-.8-7.88.94-9.77 6.46C.04 32.54-.51 37.48.46 45.85c.8 4.09 2.95 5.71 5.33 6.31z"/><path d="M13.56 26.54c.02-.19.04-.34.05-.43.01-.04.01-.08.01-.09.29-1.64-.8-3.2-2.44-3.5-1.64-.29-3.2.8-3.5 2.44-.02.13-.24 1.38-.24 3.25.01 2.84.47 7.24 3.31 11.21 1.42 1.97 3.46 3.76 6.16 5 2.7 1.24 6.02 1.94 10.04 1.94.43 0 .87-.01 1.32-.02a3.024 3.024 0 0 0 2.91-3.12 3.009 3.009 0 0 0-3.12-2.9c-.38.01-.75.02-1.11.02-3.33 0-5.75-.57-7.52-1.39-2.64-1.23-3.99-2.97-4.87-4.95-.86-1.97-1.1-4.18-1.1-5.78 0-.7.04-1.28.08-1.67z"/></g></svg>