<svg xmlns="http://www.w3.org/2000/svg" xml:space="preserve" viewBox="0 0 1174.99 530.17" shape-rendering="geometricPrecision" text-rendering="geometricPrecision" image-rendering="optimizeQuality" fill-rule="evenodd" clip-rule="evenodd"><g fill="currentColor"><path d="M616.69 278.31c10.51 10.59 28.06 16.24 40.68 5.43 10.53-9.02 9.34-20.37.86-27.86 11.38-.37 19.46-9.47 18.4-22.71-1.24-15.57-15.21-20.28-28.25-18.61 9.95-15.33-1.44-30.41-19.46-35.52-8.9-2.52-19.19-2.09-27.25 2.71-9.71 5.79-11.39 17.33-10.29 27.68-15.7-4.38-30.36 2.63-31.92 21.05-1.66 19.68 14.77 32.5 33.43 29.71 4.28-.64.09-4.18-2.51-3.79-35.04 5.24-30.22-56.65 3.3-42.39 1.07.45 4.8 1 4.46-1.17-3.03-19.44 7.83-35.17 28.72-30.63 7.27 1.57 14.17 5.81 17.84 12.38 4.59 8.22-.83 17-6.6 22.84-1.87 1.89 3.72 3.47 4.95 2.99 13.18-5.08 26-2.43 27.26 13.34.94 11.76-8.05 21.11-19.79 17.4-3.06-.97-5.01 1.64-1.68 3.19 10.26 4.81 12.79 14.61 6 23.56-8.98 11.83-23.81 8.33-33.02-.95-.79-.8-2.71-1.14-4.13-.96 1.93-1.89 3.74-3.91 5.36-6.09.81-1.08-3.57-5.5-3.5-5.6-8.25 11.1-21.03 18.51-34.41 22.14 7.96-8.37 16.41-18.85 16.25-28.9-.02-1.8-3.56-4.67-3.57-5.28.2 13.22-15.14 27.56-23.82 36.34-.54.55 2.65 5.69 3.5 5.6 13.8-1.58 28.08-7.2 38.62-16.73.1.24.27.5.57.8z"/><path d="M603.39 245.17c9.91-6.34 23.73-2.57 27.87 9 .89 2.48 4.16 4.95 2.63.68-4.86-13.6-19.44-24.53-33.38-15.63-1.45.93 1.72 6.68 2.88 5.95zM539.66 399.89c10.83-1.52 26.3 5 32.9-2.28 3.28-3.62 4.86-5.71 5.67-10.23l-6.08 2.49c-1.01.41-2.16.1-2.82-.75l-4.14-5.33-6.74 5.34c-.56.44-1.29.61-1.99.47s-1.3-.59-1.64-1.22l-2.24-4.15-3.55 3.67c-.92.96-2.46.99-3.41.06-.96-.93-.99-2.46-.06-3.42l5.84-6.03c.53-.55 1.3-.82 2.06-.72.76.11 1.43.57 1.8 1.24l2.45 4.52 6.4-5.06c.5-.4 1.15-.58 1.79-.5.64.08 1.22.4 1.61.91l4.51 5.79 6.8-2.78c.03-.48.06-.96.08-1.47.45-9.91-21.23-15.64-28.95-18.7-10.95-4.34-17.28-17.11-17.85-17.64-.46-.44-7-12.2 6.47-23.16 4.71-3.82-6.08-7.31-15.79-2.98-11.54 5.15-13.68 13.3-13.21 23.4-21.32 6.56-34.16 33.39-35.53 46.66 1.98 1.53 7.79 9.98 10.62 11.89 7.72 5.23 16.02 13.78 30.17 19.75 5.76-6.3 19.33-19.04 24.82-19.8zm-13.67-37.06c2.76-3.35 14.86 6.63 12.11 9.97-2.76 3.35-7.71 3.83-11.05 1.07-3.34-2.76-3.82-7.7-1.07-11.04zM472.75 405.67c-6.57-6.66-11.3-12.55-14.63-16.84-52.23 19.08-64.43-23.8-108.01-.5-17.38-5.1-38.1-16.08-53.79-39.51-3.17-4.71-9.56-5.94-14.25-2.77-4.72 3.16-5.97 9.55-2.78 14.26 14.93 22.06 33.38 34.98 50.69 42.55-.2.42-.41.93-.63 1.41-4.43 6.68-7.91 15.47-10.17 27.19-.32 1.71-45.49 91.63-23.36 91.63 22.13 0 59.29-68.02 71.65-76.73 1.62.14 44.03 29.76 72.54 30.56l-8.59 32.85c-1.57 5.99 1.65 12.2 7.46 14.37 1.39.52 2.8.76 4.21.76 4.48 0 8.75-2.51 10.84-6.73l40.28-81.71c1.08-2.19 1.42-4.55 1.14-6.81-4.86-3.42-13.74-10.82-22.57-23.98zM171.52 133.2c-27.75-11.38-59.48 1.89-70.85 29.64-11.38 27.75 1.9 59.48 29.65 70.85 27.75 11.38 59.47-1.89 70.85-29.65 11.38-27.75-1.9-59.47-29.65-70.85zM108.36 279.15c-2.99-3.08-5.16-5.52-6.54-7.12-.69-.8-1.19-1.4-1.48-1.75-.15-.18-.25-.31-.3-.37-6.53-8.43-18.66-9.97-27.1-3.44-8.43 6.53-9.97 18.66-3.44 27.09.99 1.27 25.12 32.1 74.86 63.22l12.34-3.87c3.39-1.06 6.9-1.6 10.45-1.6 10.66 0 20.61 4.76 27.28 13.05 5.14 6.39 7.73 14.32 7.68 22.27 11.84 4.97 24.49 9.67 38.01 13.89 2.96.92 5.97 1.1 8.84.64 6.99-1.14 13.1-6.09 15.35-13.31 3.18-10.19-2.5-21.02-12.68-24.2-52.41-16.36-90.61-40.21-115.62-59.81-12.5-9.8-21.69-18.53-27.65-24.7z"/><path d="M87.45 526.21a29.99 29.99 0 0 0 14.91 3.96c10.49 0 20.69-5.48 26.25-15.24l38.59-67.72 26.19-45.95c6.13-10.76 5.06-24.22-2.72-33.87-7.77-9.65-20.69-13.58-32.52-9.87l-50.65 15.86-18.38 5.75c3.51-15.82 8.47-31.49 13.65-46.14-22.4-18.44-34.47-33.16-37.04-36.43-8.19-10.57-6.26-25.76 4.26-33.92 3.18-2.46 6.95-4.1 10.9-4.75a24.13 24.13 0 0 1 22.97 9.04l.24.3c.27.34.75.9 1.39 1.65 1.25 1.46 3.39 3.86 6.34 6.9 2.25 2.33 5.18 5.23 8.71 8.51 4.87-20.29-.79-42.39-17.16-49.4-19.53-8.36-50.81-2.08-68.45 30.88C10.94 311.23 2.39 341.96-.01 395.9c1.25 39.58 26.92 47.77 48.8 51.02 3.43.51 6.57.92 9.44 1.13 4.87 1.01 10.06.85 15.14-.74l29.57-9.27-26.78 47c-8.26 14.48-3.2 32.91 11.28 41.16zM934.33 360.31a10.25 10.25 0 0 0-2.78-14.26c-4.7-3.17-11.08-1.94-14.25 2.77-15.69 23.42-36.41 34.4-53.79 39.51-43.58-23.3-55.78 19.58-108.01.5-3.34 4.29-8.07 10.18-14.64 16.85-10.4 15.5-20.86 22.99-24.75 25.42l-45.65 74.27a12.047 12.047 0 0 0 2.48 15.53c2.26 1.91 5.03 2.87 7.8 2.87 2.83 0 5.65-.99 7.93-2.97l59.29-51.61c6.56 3.51 13.76 6.54 19.3 7.4 28.04 4.32 77.16-30.07 78.9-30.22 12.35 8.71 49.52 76.73 71.65 76.73 22.13 0-23.05-89.92-23.36-91.63-2.26-11.72-5.74-20.52-10.17-27.19-.21-.48-.42-.99-.63-1.41 17.31-7.57 35.75-20.49 50.69-42.55zM646.1 378.92c.4-.51.98-.84 1.62-.91.64-.08 1.28.1 1.79.5l6.4 5.06 2.45-4.52c.37-.68 1.03-1.14 1.8-1.24.76-.1 1.53.16 2.06.71l5.84 6.04c.92.96.9 2.49-.06 3.41-.96.92-2.48.9-3.41-.06l-3.55-3.67-2.25 4.15c-.34.63-.94 1.07-1.64 1.22-.7.14-1.42-.03-1.98-.47l-6.75-5.34-4.14 5.32c-.67.86-1.81 1.16-2.82.75l-6.08-2.49c.81 4.52 2.39 6.61 5.67 10.23 6.6 7.28 22.08.76 32.9 2.28 5.49.76 19.06 13.5 24.82 19.8 14.15-5.98 22.45-14.52 30.18-19.75 2.83-1.92 8.64-10.37 10.62-11.89-1.36-13.28-14.21-40.1-35.52-46.66.47-10.1-1.67-18.25-13.21-23.4-9.71-4.33-20.5-.84-15.79 2.98 13.48 10.96 6.94 22.72 6.48 23.16-.57.53-6.9 13.3-17.85 17.64-7.72 3.06-29.4 8.79-28.95 18.7.02.51.05.99.08 1.47l6.8 2.78 4.5-5.8zm41.53-16.08a7.83 7.83 0 0 1-1.07 11.04 7.844 7.844 0 0 1-11.05-1.07c-2.75-3.34 9.36-13.32 12.11-9.97zM1044.66 130.68c27.75-11.38 41.02-43.1 29.65-70.85-11.38-27.75-43.1-41.02-70.86-29.64-27.75 11.38-41.03 43.09-29.65 70.85 11.38 27.75 43.1 41.03 70.85 29.65zM1098.79 157.53c-9.37-5.1-21.1-1.63-26.2 7.74-1.24 2.25-39.52 69.38-134.59 116.86-9.54 4.77-13.41 16.37-8.64 25.91 3.38 6.77 10.2 10.68 17.29 10.68 2.9 0 5.85-.66 8.62-2.05 107.89-54.01 150.08-130.83 151.25-132.95 5.1-9.37 1.63-21.1-7.74-26.19z"/><path d="M1136.84 341.87c18.8-4.62 37.09-15.71 38.14-48.97-2.39-53.94-10.94-84.67-34.94-130.13-17.64-32.96-48.92-39.24-68.45-30.88-16.71 7.15-22.27 30.04-16.84 50.67 9.16-11.78 13.49-19.41 13.62-19.63 4.21-7.75 12.35-12.58 21.21-12.58 4 0 7.98 1.01 11.51 2.94 11.69 6.36 16.03 21.05 9.68 32.74-2.23 4.03-13.6 23.62-36.88 48.76 7.28 21.14 13.86 44.16 16.09 66.52l-77.72 53.57c-13.72 9.45-17.19 28.21-7.74 41.95l70.82 103.01c5.85 8.51 15.29 13.09 24.89 13.09 5.89 0 11.84-1.72 17.07-5.31 13.73-9.44 17.22-28.23 7.78-41.96l-53.75-78.18 62.11-42.81c1.23-.85 2.34-1.79 3.41-2.78zM455.95 267.05c-2.34 1.38 3.74 3.54 5.33 2.6 9.87-5.82 19.32-14.01 18.29-26.47-.43-5.24-3.03-10.7-6.57-14.59-1.24-1.37-7.65-1.72-5.92.19 2.78 3.07 4.56 6.98 5.59 10.94 3.2 12.33-7.18 21.71-16.71 27.32zM517.77 241.2c-9.46 3.79-19.94 5.72-25.15-4.89-1.81-3.68-2.82-8.21-2.82-12.33 0-2.55-6.51-3.55-6.52-1.38-.01 6.13 1.73 12.47 5.32 17.46 7.72 10.77 22.61 8.78 33.28 4.5 3.56-1.43-2.05-4.19-4.11-3.37zM526.94 258.35c1.79-.64-1.43-6.35-3.7-5.54-5.14 1.83-9.62 5.3-13.09 9.44-7.47 8.91-4.75 20.89.02 30.33 1.38 2.73 5.55 3.81 3.52-.22-7.18-14.22-1.79-28.66 13.26-34zM459.98 280.61c-3.82 1.62 1.02 5.67 4.02 4.4 8.18-3.47 19.57-6.81 25.06 2.48 1.86 3.15 2.75 7.16 2.76 10.82.01 3.24 6.57 3.41 6.57-.25-.01-5.53-2.05-11.17-5.5-15.44-8.12-10.06-22.88-6.25-32.9-2zM712.11 245.9c-3.01-.74.25 5.88 2.29 6.37 12.71 3.1 26.97 3.91 36.05-7.12 3.82-4.63 6.04-11.17 6.24-17.18.07-2.1-4.91-7.5-5.01-4.56-.16 4.73-1.82 9.34-4.14 13.41-7.2 12.65-23.16 12.06-35.44 9.07zM783.32 273.94c-10.77-4.43-20.88-11.2-16.71-24.03 1.45-4.46 4.22-8.97 7.51-12.34 2.03-2.08-2.51-8.1-4.24-6.32-4.89 5.01-8.5 11.59-9.55 18.54-2.25 14.97 11.54 25.19 23.67 30.18 4.05 1.66 1.66-5.06-.68-6.03zM760.31 285.11c-13.22 1.35-20.52 13.33-24.13 24.85-1.05 3.33 1.52 7.54 3.06 2.62 5.44-17.37 21.35-24.89 37.93-17.29 1.98.91 3.88-6.33 1.38-7.48-5.67-2.59-12.1-3.32-18.24-2.69zM704.41 267c9.46 3.68 21.44 10.01 18.55 21.99-.98 4.07-3.45 8.06-6.35 11.06-2.58 2.66 2.67 8.03 5.57 5.02 4.39-4.54 7.21-10.78 7.79-17.03 1.37-14.7-13.76-23.34-25.35-27.84-4.42-1.72-3.68 5.45-.21 6.8zM191.1 75.21c-.03 3.78.94 6.77 3.01 9.1 2.08 2.31 4.93 3.68 8.64 3.93 5.48.38 11.95-1.89 19.12-7.66-.37 1.97-.88 4.32-1.58 7.05-.77 3.06-1.22 4.76-1.25 5.17-.1 1.21.27 2.32 1.12 3.33.84 1.01 1.83 1.58 2.94 1.7.7.08 1.36-.06 1.95-.37.6-.33 1.11-.82 1.53-1.47.43-.65.69-1.53.82-2.62s.31-3.04.48-5.9c.09-1.54.46-4.01 1.07-7.44.59-3.44 1.1-6.18 1.58-8.24h-.03c.46-2.13.93-3.96 1.46-5.5.64-2.01.93-3.48.89-4.36-.12-2.26-1.55-3.29-4.27-3.12-1.19.08-2.11.37-2.78.86-.67.51-1.04 1.43-1.15 2.81-.18 2.34-.54 4.47-1.07 6.41-.54 1.94-2.22 4.08-5.09 6.34-2.86 2.28-5.59 3.83-8.14 4.79-2.55.96-4.72 1.37-6.53 1.31-3.5-.14-5.12-2.33-5.1-6.57.01-4.03 1.2-8.25 3.46-12.91 2.28-4.65 5.18-8.91 8.84-12.8 3.65-3.89 6.96-6.2 10.09-6.63.97-.13 1.74-.01 2.3.37.57.39 1.12 1.11 1.64 2.15.48.94.9 1.56 1.26 1.85.38.29.9.41 1.57.33 1.08-.11 2.05-1.17 2.88-3.15.83-1.99 1.14-3.77.9-5.32-.26-1.85-1.29-3.25-3.02-4.17-1.74-.93-3.94-1.15-6.57-.68-5.11.89-9.85 3.69-14.45 8.04-4.6 4.36-8.44 9.66-11.77 15.81v-.03c-3.13 5.91-4.69 11.63-4.75 17.6zM249.82 93.71c3.87.31 7.96-1.56 12.1-5.91 4.13-4.35 6.98-10.03 8.3-16.89v-.04c.33-2.14.46-4.32.39-6.56-.16-5.14-1.57-9.49-4.05-12.97-2.5-3.47-5.56-4.97-9.1-4.6-5.2.54-9.21 4.44-12.44 11.32-3.24 6.88-4.92 13.46-5.06 20.19-.08 4.11.75 7.61 2.57 10.59 1.81 2.97 4.21 4.64 7.28 4.88zm-.18-27.4c1.28-3.72 2.56-6.5 3.91-8.3h.03c1.13-1.46 2.47-2.29 4-2.38 1.62-.1 2.94.74 3.96 2.57 1.01 1.83 1.58 4.22 1.67 7.17.14 5.22-1.25 9.95-4.12 14.03-2.9 4.06-5.66 5.94-8.25 5.82-1.04-.05-1.85-.83-2.42-2.3-.6-1.48-.83-3.32-.81-5.55.06-3.68.73-7.33 2.01-11.06zM282.66 123.88c3.83.67 7.81-1.19 11.75-5.86 3.93-4.67 7.06-12.7 8.69-24.1 1.79-13.08 2.25-21.4 2.56-24.7.28-3.31.73-6.77 1.38-10.35.62-3.45.88-5.51.84-6.1-.07-.93-.37-2.14-.9-3.62-.54-1.47-1.08-2.47-1.64-2.99-.27-.25-.58-.56-.95-.91-1.54-1.52-3.26-2.16-5.17-1.98-3.45.35-7.1 3.01-11.08 7.72-3.99 4.71-7.08 9.94-9.38 15.72-2.3 5.79-3.57 10.88-3.72 15.5-.09 3.24.38 5.8 1.48 7.74 1.1 1.93 2.73 2.99 4.94 3.13 2.21.15 4.94-.88 8.15-3.24 3.2-2.35 6.04-5.52 8.44-9.48-1.33 13.32-3.72 22.29-5.98 27-2.3 4.73-4.82 6.83-7.36 6.48-3.37-.48-7.04-3.35-11.23-8.34-1.64-1.93-2.78-2.91-3.38-2.97-1.54-.16-2.4.86-2.67 3.07-.27 2.5 1.22 5.88 4.44 10.37 3.21 4.49 6.75 7.2 10.8 7.91zm9.18-45.19c-2.7 3.25-5.43 4.77-8.1 4.67-.8-.02-1.16-.84-1.12-2.43.08-3.03 1.19-6.79 3.25-11.47 2.05-4.67 4.19-8.48 6.55-11.41 2.36-2.93 4.25-4.51 5.79-4.6.49-.04.96.28 1.38.93.43.66.66 1.55.72 2.69.13 2.27-.54 5.68-2.07 10.09-1.55 4.41-3.68 8.27-6.4 11.52zM329.63 39.38c-5.21.53-9.09 5.41-12.2 14.19-3.13 8.79-4.76 17.34-4.93 26.05-.1 5.33.68 9.85 2.44 13.67 1.77 3.8 4.13 5.88 7.2 6.13 3.87.31 8-2.18 12.22-7.76 4.2-5.57 7.1-12.77 8.4-21.44v-.06c.33-2.7.44-5.46.35-8.28-.22-6.48-1.68-11.99-4.26-16.45-2.59-4.44-5.69-6.41-9.23-6.06zm2 41.63c-2.91 5.21-5.74 7.64-8.31 7.52-1.04-.05-1.83-1.03-2.39-2.92-.57-1.9-.81-4.28-.76-7.14.08-4.74.73-9.44 1.99-14.21 1.26-4.76 2.48-8.3 3.81-10.58h.03c1.12-1.87 2.43-2.86 3.97-2.97 1.62-.11 2.96.99 4 3.34 1.04 2.35 1.65 5.39 1.76 9.13.2 6.64-1.2 12.63-4.11 17.84zM356.57 123.81c-3.37-.47-6.95-3.91-11.02-10.06-1.59-2.37-2.72-3.56-3.31-3.63-1.54-.16-2.43 1.15-2.76 3.94-.38 3.15 1.04 7.38 4.1 12.87 3.05 5.5 6.5 8.72 10.55 9.42 3.84.66 7.93-1.8 12.05-7.7 4.09-5.89 7.52-15.9 9.31-29.96 1.99-16.16 2.41-26.41 2.71-30.49.26-4.1.69-8.33 1.31-12.75.59-4.24.81-6.77.76-7.49-.07-1.15-.4-2.64-.96-4.46-.58-1.82-1.15-3.06-1.7-3.71-.27-.31-.61-.68-.98-1.15-1.58-1.91-3.33-2.73-5.23-2.55-3.46.34-7.04 3.55-10.93 9.34-3.89 5.79-6.92 12.28-9.2 19.53-2.26 7.25-3.55 13.68-3.73 19.48-.12 4.09.31 7.31 1.4 9.71 1.07 2.41 2.69 3.7 4.9 3.85 2.22.15 4.98-1.2 8.21-4.17 3.24-2.96 6.11-6.92 8.53-11.85-1.41 16.5-4.03 27.64-6.43 33.56-2.44 5.91-5.03 8.61-7.58 8.26zm7.81-43.87c-2.71 4.05-5.46 5.97-8.13 5.88-.8-.02-1.15-1.03-1.1-3.02.08-3.79 1.23-8.52 3.27-14.34 2.04-5.83 4.14-10.56 6.46-14.17 2.31-3.61 4.2-5.52 5.73-5.62.5-.03.97.36 1.39 1.18.43.82.68 1.93.76 3.34.15 2.81-.47 7.01-1.98 12.47-1.52 5.46-3.67 10.23-6.39 14.29zM415.63 59.47c-.27-7.82-1.79-14.5-4.45-19.92-2.65-5.42-5.84-7.88-9.36-7.52-5.21.54-8.99 6.36-11.97 17.07-3.01 10.73-4.61 21.21-4.8 31.91-.13 6.54.61 12.09 2.32 16.74 1.71 4.65 4.02 7.14 7.11 7.38 3.87.3 8.06-2.79 12.34-9.61 4.26-6.81 7.21-15.52 8.5-25.99v-.07c.32-3.27.43-6.6.32-10zm-11.47 23.15c-2.93 6.32-5.79 9.33-8.36 9.22-1.04-.05-1.82-1.23-2.37-3.54-.55-2.3-.77-5.22-.72-8.71.09-5.78.74-11.55 1.97-17.36 1.23-5.81 2.41-10.12 3.71-12.86h.03c1.09-2.25 2.39-3.46 3.93-3.56 1.62-.11 2.98 1.25 4.05 4.11 1.07 2.86 1.71 6.55 1.84 11.08.25 8.04-1.15 15.31-4.09 21.65zM423.98 102.37c.72.05 1.76-.9 3.1-2.87 1.33-1.97 2.21-3.65 2.64-5.02.42-1.36.7-3.34.79-5.94.05-1.59-.24-3.03-.87-4.36-.62-1.33-1.58-2.01-2.86-2.03-1.72-.04-3.02.33-3.94 1.08-.92.74-1.44 1.8-1.59 3.12-.16 1.32-.25 3.27-.37 5.8-.19 4.53-.09 7.33.44 8.44.53 1.11 1.4 1.69 2.65 1.78zM439.84 103.44c.74.04 1.77-.94 3.11-2.98 1.34-2.05 2.23-3.79 2.66-5.21.43-1.41.71-3.48.8-6.16.06-1.64-.24-3.15-.87-4.52-.64-1.38-1.58-2.09-2.85-2.11-1.7-.03-3.02.33-3.94 1.13-.92.78-1.45 1.85-1.6 3.24-.15 1.39-.27 3.39-.38 6.01-.2 4.7-.11 7.6.42 8.75.53 1.15 1.4 1.75 2.64 1.84zM458.6 82.78c-1.7-.03-3.01.36-3.94 1.17-.93.81-1.44 1.93-1.6 3.36-.16 1.43-.26 3.51-.39 6.23-.2 4.86-.12 7.88.41 9.06.53 1.19 1.4 1.83 2.64 1.9.72.05 1.78-.98 3.12-3.09 1.35-2.12 2.24-3.92 2.67-5.4.44-1.47.71-3.6.81-6.38.06-1.68-.23-3.26-.86-4.68-.63-1.43-1.6-2.16-2.85-2.18zM731.73 55.36c-.56 8.31-.65 14.72-.46 19.17.1 2.39.71 4.28 1.82 5.62 1.11 1.35 2.25 1.98 3.39 1.91 2.26-.14 3.26-2.18 3.08-6.16-.14-2.14-.26-4.28-.37-6.42-.1-3.07-.09-6.42.02-10.05.13-3.62.27-5.66.38-6.12.12-.45.28-.77.51-.94 1.52-.64 3.86-1.29 7.03-1.9 2.76-.54 5.51-1.07 8.26-1.59 1.9-.42 3.18-.83 3.89-1.29.71-.45 1.37-1.19 1.98-2.23.62-1.05.94-1.86.95-2.48.06-3.41-1.44-5.16-4.56-5.26-1.39-.05-3.25.23-5.57.83-2.77.74-5.75 1.36-8.95 1.82-.86.14-1.72.31-2.57.49.49-8.85 1.69-16.42 3.39-22.68 1.26-.73 3.54-1.27 6.86-1.64 3.3-.38 6.23-.45 8.77-.27 1.23.08 2.1.24 2.62.43.31.16.66.24 1.07.27.7.04 1.3-.17 1.84-.65v.05c1.7-1.33 2.65-3.33 2.88-6 .07-.77-.4-1.67-1.39-2.7-.99-1.03-2.45-1.66-4.4-1.83-1.84-.17-4.66-.11-8.46.21-5.84.52-9.16.8-9.96.72-.82-.08-1.59-.27-2.33-.61-.51-.25-1.02-.4-1.51-.44-.74-.08-1.61.53-2.58 1.79-1 1.26-1.53 2.51-1.62 3.74-.07.88 0 2.06.2 3.55.15.82.18 1.83.1 2.97-3.61 24.6-4.17 37.33-4.31 37.68zM781.95.04c-1.76-.19-3.19.36-4.26 1.65-1.08 1.3-1.73 3.08-1.95 5.34-.14 1.57.2 3.18 1.02 4.83.82 1.64 1.86 2.51 3.08 2.6.97.07 2.16-.67 3.61-2.22 1.44-1.54 2.27-3.4 2.47-5.58.15-1.66-.12-3.14-.84-4.44-.72-1.3-1.76-2.04-3.13-2.18zM768.36 49.3c-1.04 7.76-1.37 14.4-1.2 19.83.23 6.4 1.77 9.51 4.48 9.36 1.02-.05 1.95-.72 2.78-1.99.83-1.26 1.23-2.26 1.2-2.99-.02-.38-.07-.85-.15-1.41-.56-3.19-.84-5.74-.9-7.66-.06-2.36-.02-5.46.19-9.3.2-3.83.89-8.79 2.16-14.8l.21-1.03c.86-3.9 1.35-6.45 1.4-7.69.06-1.25-.29-2.38-1.02-3.43-.72-1.05-1.81-1.58-3.19-1.67-1.19-.06-2.16.68-2.9 2.23-.74 1.56-1.16 3.51-1.24 5.85-.03.84-.48 4.11-1.24 9.89v-.05c-.19 1.53-.39 3.14-.6 4.86zM797.81 103.63c3.83-.42 7.04-3.21 9.75-8.24 2.7-5.03 4.04-12.6 4.42-22.77.43-11.7 1.12-18.96 1.43-21.87.33-2.9.93-5.9 1.79-8.97.85-2.95 1.31-4.67 1.32-5.2.03-.8-.15-1.87-.51-3.2s-.78-2.25-1.25-2.76c-.24-.25-.51-.55-.82-.91-1.3-1.51-2.89-2.33-4.78-2.43-3.42-.19-7.4 1.65-11.85 5.69-4.45 4.04-7.95 8.98-10.41 14.79-2.47 5.81-3.61 11.17-3.5 15.95.08 3.36.77 5.99 2.06 7.85 1.28 1.86 3.01 2.72 5.19 2.63 2.2-.09 4.75-1.45 7.68-3.98 2.94-2.54 5.48-5.66 7.7-9.38-.76 12.21-1.53 20.69-2.92 25.43-1.38 4.74-3.28 7.25-5.82 7.48-3.33.29-7.54-1.6-12.56-5.86-1.96-1.65-3.22-2.47-3.82-2.43-1.51.09-2.2 1.35-2.02 3.71.21 2.68 2.38 5.94 6.57 9.66 4.19 3.71 8.33 5.28 12.35 4.82zm2.03-44.15c-2.56 3.16-5.14 4.81-7.79 4.88-.78.01-1.19-.76-1.23-2.34-.06-3.02.94-6.82 3.04-11.35 2.11-4.53 4.47-8.06 6.99-10.63 2.54-2.56 4.57-3.8 6.09-3.75.49.01.91.34 1.26.97.35.63.51 1.45.48 2.48-.05 2.04-.93 5.04-2.57 9.03-1.64 3.98-3.74 7.57-6.28 10.72zM834.11 21.76c.84-3.99 1.42-7.53 1.71-10.61.19-2.01-.04-3.62-.72-4.84-.68-1.22-1.56-1.89-2.63-2.01-.78-.09-1.72.58-2.81 2.04-1.09 1.45-2.01 4.23-2.69 8.29-2.78 16.92-4.89 33.06-6.61 48.43-.44 4.07-.62 6.49-.59 7.26.07 1.57.51 2.76 1.33 3.58.82.82 1.86 1.2 3.11 1.12.76-.04 1.38-.51 1.84-1.41.48-.9 1.1-2.84 1.94-5.82 1.37-3.95 3.72-9.2 7.15-15.59 3.45-6.38 5.87-9.45 7.05-9.42.88.02 1.5.82 1.85 2.39.37 1.57.64 5.17 1.03 10.8.3 4.6 1.27 8.19 2.77 10.74 1.5 2.54 3.2 3.76 5.02 3.68.92-.02 1.73-.49 2.39-1.29.68-.82 1-1.7.96-2.64-.03-.95-.37-1.92-1.02-2.92a16.16 16.16 0 0 1-1.94-4.09c-.46-1.45-.86-3.14-1.23-5.04-.35-1.91-.65-4.42-.84-7.52-.45-6.53-1.11-10.61-2.21-12.22-1.09-1.61-2.51-2.47-4.25-2.55-2.52-.11-5.1 1.29-7.69 4.28-2.58 3-5.73 8.75-9.11 17.48.39-3.2 1.07-7.5 2.14-12.86 1.76-8.89 3.2-15.27 4.04-19.27zM877.88 18.1c-.57-.89-1.4-1.38-2.53-1.49-2.03-.18-3.47 1.23-4.29 4.27-1.35 4.87-2.49 8.85-3.51 11.9-2.2 0-4.4-.01-6.6-.01-1.95-.1-2.98.95-3.07 3.15-.07 1.72.37 2.99 1.33 3.8.96.81 1.9 1.22 2.85 1.25.22 0 .43.01.65.02.51.01 1.44-.06 2.75-.19-2.35 10.3-3.22 17.32-3.16 20.8.09 3.77.92 6.64 2.44 8.58 1.52 1.94 3.63 2.83 6.35 2.68 3.24-.17 6.24-1.74 9.03-4.61 2.81-2.87 4.18-5.34 4.14-7.49-.01-.53-.21-1-.57-1.4-.37-.4-.84-.59-1.45-.58-.74.02-1.64.56-2.68 1.64-1.69 1.72-3.05 2.85-4.09 3.37-1.05.52-2.13.8-3.29.83-.82.02-1.42-.37-1.81-1.18-.38-.81-.6-2.26-.64-4.34-.03-1.19.39-4.62 1.41-10.26 1.03-5.61 1.73-8.4 1.9-8.39 3.56-.63 7.13-1.23 10.69-1.81 3.12-.49 4.72-1.79 4.82-3.93.05-1.07-.08-1.8-.42-2.18-.32-.39-1.03-.63-2.12-.68-.63-.03-4.24.11-10.79.48 2.12-7.24 3.35-10.96 3.37-11.37.08-1.01-.16-1.97-.72-2.85zM891.18 61.31c-.89 1.47-1.31 2.75-1.27 3.86.1 2.94 1.31 4.35 3.57 4.25.76-.03 1.69-.51 2.8-1.4 1.11-.89 1.73-2.11 1.86-3.67l.24-2.2c-.02-.54-.56-1.18-1.62-1.94-1.07-.76-1.95-1.13-2.64-1.12-1.07.03-2.05.75-2.94 2.21zM898.5 48.54c.06-2.22.56-5.15 1.54-8.8.94-3.5 1.95-7.32 3.05-11.43 1.1-4.11 1.73-6.47 1.79-7.12.07-.82-.24-1.6-.92-2.34-.68-.74-1.43-1.17-2.25-1.25-.76-.08-1.72.28-2.89 1.08-1.16.8-1.94 2.05-2.28 3.74-.35 1.7-.53 2.67-.55 2.94-.19 2.62-.96 6.54-2.17 11.81-1.1 4.86-1.48 9.67-1.16 14.32 1.13.98 2.72 1.47 4.78 1.46.65-1.27 1.01-2.74 1.07-4.41zM918.83 48.74c.06-2.09.56-4.87 1.54-8.31.93-3.31 1.93-6.9 3.02-10.79 1.09-3.88 1.71-6.1 1.76-6.71.07-.76-.24-1.49-.93-2.22-.68-.71-1.44-1.11-2.26-1.19-.76-.07-1.71.26-2.88 1-1.16.73-1.92 1.92-2.27 3.53-.34 1.61-.53 2.53-.53 2.78-.19 2.48-.93 6.18-2.14 11.16-1.09 4.6-1.47 9.14-1.14 13.54 1.13.93 2.72 1.38 4.78 1.38.65-1.2 1.01-2.59 1.06-4.17zM911.5 60.81c-.88 1.38-1.32 2.61-1.28 3.65.1 2.78 1.3 4.1 3.56 4.01.76-.03 1.7-.48 2.8-1.32 1.12-.84 1.73-1.99 1.87-3.47.08-.69.16-1.39.25-2.07-.01-.52-.56-1.12-1.62-1.83-1.07-.71-1.95-1.07-2.64-1.06-1.07.01-2.05.72-2.94 2.1zM939.17 48.93c.06-1.96.55-4.59 1.52-7.82.93-3.11 1.91-6.49 2.99-10.14 1.07-3.65 1.68-5.72 1.73-6.31.07-.72-.25-1.41-.94-2.09-.69-.68-1.44-1.06-2.26-1.13-.75-.07-1.72.24-2.87.93-1.15.7-1.91 1.8-2.24 3.31-.33 1.5-.5 2.38-.53 2.61-.16 2.33-.9 5.82-2.1 10.51-1.07 4.34-1.46 8.6-1.13 12.76 1.13.86 2.72 1.3 4.78 1.3.65-1.14 1-2.44 1.06-3.92zM931.83 60.3c-.9 1.31-1.32 2.46-1.29 3.45.09 2.63 1.3 3.87 3.55 3.77.75-.04 1.71-.46 2.81-1.25 1.12-.8 1.74-1.89 1.88-3.27.08-.65.16-1.3.25-1.95-.02-.48-.55-1.05-1.62-1.72-1.07-.67-1.94-.99-2.64-.99-1.06.02-2.06.68-2.94 1.98z"/></g></svg>