<svg xmlns="http://www.w3.org/2000/svg" xml:space="preserve" viewBox="0 0 359.85 651" shape-rendering="geometricPrecision" text-rendering="geometricPrecision" image-rendering="optimizeQuality" fill-rule="evenodd" clip-rule="evenodd"><path d="m153.82 55.51-4.83 1.85c.48 12.51-7.05 24.37-19.08 28.98-13.1 5.02-27.83.07-35.41-11.3l-13.42.8c.61-2.12.88-4.29.84-6.42l16.15-.96c5.15 11.01 18.04 16.36 29.56 11.94 11.05-4.23 17.03-15.98 14.41-27.19l14.18-5.44c5.54 10.1 17.84 14.84 28.89 10.61 12.06-4.62 18.11-18.19 13.49-30.25-4.62-12.06-18.19-18.11-30.25-13.49-11.05 4.23-17.03 15.98-14.41 27.19l-14.19 5.43c-5.54-10.1-17.84-14.84-28.89-10.61-10.51 4.02-16.45 14.84-14.75 25.53l-15.25.9c-.7-2.2-1.73-4.3-3.09-6.19l11.78-.7c.91-11.22 8.18-21.34 19.03-25.49 12.03-4.61 25.56-.81 33.56 8.82l4.84-1.85c-.38-9.94 4.3-19.45 12.27-25.26C147.9 3.9 133.59-.81 118.31.09c-28.07 1.64-50.69 21.64-56.9 47.65-8.41-.61-16.71 3.64-20.97 11.37-.21.39-.44.76-.63 1.16-.87 1.83-1.71 3.61-2.55 5.4l-3.03.18-1.12 8.7c-2.64 5.71-5.13 11.19-7.44 16.44-29.01 65.72-32.51 95.52-15.24 112.67 6.92 6.87 14.98 9.55 23.74 9.55 15.87 0 34.01-8.8 51.77-17.41 1.02-.49 2.06-1 3.1-1.5 8.04 39.48 44.2 251.65-71.65 395.71-11.97 14.88-9.61 36.65 5.28 48.62a34.469 34.469 0 0 0 21.65 7.63c10.11 0 20.14-4.42 26.97-12.91 64.98-80.8 89.64-177.05 96.59-260.75a646.33 646.33 0 0 0 30.98 3.67c7.94 78.42 8.6 165.94-14.42 228.11-6.64 17.91 2.5 37.8 20.41 44.44 3.96 1.47 8.02 2.16 12.01 2.16 14.05 0 27.26-8.63 32.43-22.58 45-121.5 14.95-311.92-3.69-402.62 3.66 7.28 7.39 15.46 11.16 24.68 4.12 10.09 11.81 17.49 22.22 21.39 14.78 5.54 33.25 2.66 48.82-2.02 12.86-3.86 23.73-8.96 28.89-11.55 10.92-5.49-8.96-45.02-19.89-39.54-3.56 1.78-7.35 3.44-11.17 4.93l-1.5-14.2c-.91-3.3-4.36-5.25-7.66-4.34-3.3.91-5.25 4.36-4.33 7.66l1.48 14.46.22.46c-7.2 2.11-13.56 3.29-17.34 3.03-22.43-53.83-48.84-87.22-78.53-99.26-9.86-4-18.51-4.98-25.34-4.74-20.85-1.66-56.24 2.97-86.4 13.05-12.62 3.1-26.3 9.73-39.59 16.17-5.9 2.86-14.17 6.87-21.04 9.66 2.37-10.76 8.81-30.91 25.46-67.58 11.99 17 32.23 27.62 54.53 26.31 32.05-1.88 57-27.68 58.53-59.03-11.15 2.85-23.02-1.06-30.3-9.83zm16.81-34.92c8.8-3.37 18.66 1.03 22.03 9.83 3.37 8.8-1.03 18.66-9.83 22.03-8.8 3.37-18.66-1.03-22.03-9.83-3.37-8.8 1.03-18.66 9.83-22.03zm-57.48 22.02c8.8-3.37 18.66 1.03 22.03 9.83 3.37 8.8-1.03 18.66-9.83 22.03-8.8 3.37-18.66-1.03-22.03-9.83-3.37-8.8 1.03-18.66 9.83-22.03z" fill="currentColor"/></svg>