<svg xmlns="http://www.w3.org/2000/svg" xml:space="preserve" viewBox="0 0 1033.61 988.08" shape-rendering="geometricPrecision" text-rendering="geometricPrecision" image-rendering="optimizeQuality" fill-rule="evenodd" clip-rule="evenodd"><g fill="currentColor"><path d="M655.04 293.09c2.42 1.73 3.89 4.96 5.2 7.9.58 1.3 1.51 3.37 2.14 4.16 1.39-.04 3.02-.62 4.47-1.14 3.12-1.12 6.66-2.1 9.37-.93 4.87 2.12 9.53 5.7 11.87 7.65 1.18.97 2.17 2.18 3.02 3.45 1.46-.15 2.96-.28 4.49-.28l.82.02c1.91.06 3.82.3 5.68.54 1.92.24 3.75.47 5.51.51.73-.46 2.12-2.17 2.98-3.22 2.33-2.86 4.97-6.09 8.7-6.15h.02c2.34 0 4.27.29 6.14.57.06.01.11.02.17.02 1.76-.95 3.58-1.82 5.35-2.6.68-.29 1.4-.44 2.15-.44 2.71 0 5 1.9 7.43 3.91.22.19.52.43.82.67.09 0 .18.02.26.02l.48-.01h.02c1.73 0 3.23.43 4.6 1.02.2-.2.39-.41.56-.58 2.02-2.1 4.77-4.95 8.67-5.15.74-.47 2.16-2.32 3.03-3.45 2.33-3.02 4.97-6.44 8.81-6.58 3.99 0 6.5 3.64 9.05 7.69 2.76.35 4.79 2.42 6.65 5.1.54-.17 1.07-.34 1.63-.53 2.08-.7 4.43-1.5 6.94-1.64l.5-.01c2.81 0 5.31 1.24 7.52 2.33 1.06.52 2.12 1.04 3.02 1.32 2-2.35 4.3-4.7 7.45-4.84 1.8-.09 3.58-.31 5.34-.53.97-.12 1.96-.24 2.96-.34 2.42-5.21 4.56-9.67 8.77-9.8h.02c3.29 0 5.91 1.34 8.22 2.51 1.45.74 3.1 1.58 4.04 1.58 4.21 0 6.96 3.92 9.39 7.38.52.75 1.25 1.77 1.9 2.59 1.34-.94 2.78-1.67 4.36-2.01 2.4-2.34 4.88-4.75 8.12-4.75l.73.04c2.45.29 4.43 1.3 6.15 2.43 1.5-.12 3.02-.29 4.6-.49 1.9-.24 3.8-.48 5.7-.6.68-.05 2.48-1.77 3.45-2.69 2.16-2.06 4.61-4.39 7.88-4.67l.5-.02c3.95 0 6.74 3.67 9.68 7.55.99 1.31 2.58 3.41 3.48 4.14.94-.32 2.36-1.42 3.65-2.41 1.98-1.53 4.21-3.26 6.93-3.69-.82-2.41-.71-5.63-.6-8.96.07-1.88.17-4.88-.1-6.2-.73-.2-2.05-.26-2.99-.31-2.63-.12-5.91-.28-8.44-2.51-1.77-1.56-3.04-3.39-4.27-5.15-.96-1.38-1.87-2.69-2.91-3.69-1.38-1.32-2.68-2.74-3.97-4.17-1.24-1.36-2.47-2.72-3.8-3.97-.51-.36-2.67-.44-3.95-.49-2.84-.11-6.06-.23-8.44-2.23-2.78-2.33-2.89-6.43-2.99-10.4-.03-1.1-.07-2.74-.22-3.82-1.16.39-2.89 1.24-4.04 1.81-3.69 1.83-7.34 3.39-10.23 2.32-2.07-.77-3.73-2.12-5.19-3.3-1.01-.82-2.04-1.65-2.87-1.99-.43.63-.99 1.73-1.39 2.51-1.46 2.85-3.1 6.08-6.43 7.19-.53.18-1.08.27-1.64.27-3.99 0-6.29-4.1-8.95-8.85-1.11-1.97-2.62-4.67-3.55-5.46-2.17-1.86-2.7-4.53-3.17-6.88-.22-1.12-.45-2.26-.82-3.1-1.39.23-3.57.93-5.39 1.52-5.9 1.89-11.2 3.02-13.82.3-1.08-1.13-2-2.29-2.92-3.45-1.13-1.44-2.2-2.79-3.61-4.01-2.06-1.79-2.89-4.32-3.56-6.35-.4-1.23-.91-2.76-1.43-3.1-.99-.64-2.32-.84-4-1.09-1.64-.25-3.51-.53-5.46-1.32-3.42-1.4-4.36-5.74-5.45-10.75-.3-1.37-.73-3.37-1.17-4.77-.77.69-1.67 1.59-2.3 2.24-2.72 2.75-5.53 5.59-8.99 5.64-.6.01-2.12 1.83-2.85 2.7-1.62 1.94-3.47 4.13-6.26 4.75-3.42.76-6.93-1.47-10.08-3.65-.94-.66-2.44-1.69-3.26-2.05-.91.46-1.87.91-2.85 1.37-2.46 1.15-5.01 2.34-6.65 3.75-.66.56-1.25 2.32-1.77 3.88-.78 2.34-1.67 5-3.65 7-2.28 2.32-5.58 2.6-8.49 2.85-1.28.11-3.66.31-4.15.78-.72.69-1.33 1.93-1.97 3.24-.98 1.98-2.18 4.43-4.44 6.29-.31.83-.46 3.11-.54 4.51-.27 4.21-.57 8.98-4.21 11.08-2.4 1.4-5.23 1.58-7.96 1.75-1.84.12-3.73.24-4.94.75a6.3 6.3 0 0 1-2.5.49c-2.54 0-5.01-1.37-7.41-2.7-1.11-.62-2.68-1.49-3.69-1.81-.52 1.18-1.14 3.41-1.54 4.86-1.4 5.07-2.85 10.3-7.23 11.21l-1.16.12c-3.71 0-6.76-3.42-10-7.04-1.01-1.13-2.44-2.74-3.35-3.49-4.2 1.46-7.98 3.44-9.1 4.06-4.52 2.45-8.24 4.99-9.46 6.48-.73.89-.15 4.98.1 6.73.24 1.67.46 3.25.41 4.62-.13 3.63.24 6.76 1.04 8.91.43.08 1.24.16 2.74.16l3.28-.03c2.96 0 6.27.2 8.19 2.59.74.92 1.17 1.89 1.44 2.87zM855.45 420.35l-.39.01c-2.15 0-4.17-.44-6.13-.86-1.35-.3-2.62-.53-3.82-.63 0 .33-.02.63-.02.97 0 4.95-.01 13.87-.03 25.4.11-.01.2-.04.3-.05l.4-.01c2.37 0 4.45 1.35 6.65 2.78 1.79 1.16 3.81 2.47 5.82 2.92.39.09.82.11 1.27.1.25-11.14.69-19.18 1.41-22.45.26-1.17.43-2.35.52-3.52-.89-.67-1.74-1.38-2.53-2.09-1.04-.92-2.76-2.47-3.45-2.57zM807.49 446.9c0 5.64-.02 21.83-.05 42.76 2.7.61 5.27 2.52 7.49 4.25a43.5 43.5 0 0 0 2.29 1.68c0-22.2.31-38.92 1.14-42.71 3.02-13.76-10.88-27.89-10.88-5.98z"/><path d="M375.35 664.4c9.95 0 9.95-.79 19.9-.79s9.95-.01 19.9-.01 9.95-8.99 19.9-8.99 9.95 14.8 19.89 14.8c9.95 0 9.95-13.97 19.89-13.97 4.66 0 7.14 5.53 9.48 11.39v.73h.3c2.54 6.41 5.03 12.97 10.1 12.97 9.95 0 9.95-6.39 19.89-6.39 5.29 0 7.77-2.92 10.43-5.66v1.06h9.45s-.06-2.1-.14-5.7c.05 0 .09-.01.14-.01 9.94 0 9.94 2.75 19.89 2.75 9.95 0 9.95 5.91 19.89 5.91 9.95 0 9.95-13.31 19.89-13.31 3.02 0 5.11 1.96 6.85 4.66 2.09 3.25 3.68 7.57 5.7 10.97 1.84 3.11 4.03 5.45 7.34 5.45 2.93 0 4.99-2.28 6.7-5.45 4.1-7.58 6.17-20.4 13.19-20.4 5.84 0 8.25 5.5 11.26 10.04 2.12 3.19 4.52 5.92 8.62 5.92 9.94 0 9.94-3.49 19.88-3.49s9.94 1.4 19.88 1.4 9.94 7.45 19.89 7.45c8.48 0 9.74-14.22 16.09-18.42-.01 7.52-.02 12.24-.02 12.24h8.31s-.13-5.16-.32-13.26c6.01.51 7.4 2.04 15.7 2.04 9.94 0 9.94-2.86 19.88-2.86s9.93 23.06 19.87 23.06c9.94 0 9.94-19.54 19.88-19.54s9.94 12.33 19.88 12.33 9.93-17.76 19.87-17.76c9.93 0 9.93 18.24 19.87 18.24 9.94 0 9.94 7.06 19.88 7.06s9.94-.15 19.87-.15c9.93 0 9.93-24.68 19.86-24.68s9.93 18.41 19.87 18.41c9.94 0 9.93-1.12 19.87-1.12 9.94 0 9.94-13.62 19.88-13.62 9.93 0 9.93 3.45 19.86 3.45s13.69 13.99 20.07 6.37c5.88-7.02-3.07-8.88-5.64-17.67-2.56-8.79 4.27-10.79 1.71-19.58-2.56-8.79-5.14-9.04-12.6-14.36-7.94-5.66-8.82-3.04-18.57-3.04-6.25 0-8.5-.95-11.87-1.62-.2-14.11-.21-27.34.42-29.79 1.44-5.62-5.18-11.39-5.18-2.44 0 3.86-.02 17.44-.06 31.63-.85-.04-1.77-.08-2.82-.08-9.74 0-9.75 17.76-19.49 17.76-5.72 0-8.09-.27-11.03-.5-.54-23.14-1.13-57.46.03-61.99 1.77-6.91-6.38-14.01-6.38-3 0 7.17-.08 41.58-.13 64.72-.61-.01-1.26-.02-1.96-.02-9.74 0-9.74-1.45-19.49-1.45-9.74 0-9.74-26.04-19.48-26.04-2.83 0-4.83.76-6.5 1.81-.43-22.46-.69-46.77-.13-58.04l-.02-.01c-.64.1-2.08 1.1-3.36 1.98-1.37.95-2.88 1.93-4.58 2.58-.02 15.32-.08 38.99-.12 59.57-1.32.56-2.85.91-4.78.91-9.38 0-9.75-2.13-18.46-2.29-.39-16.36-.82-36.11-1.17-56.46-.63-.02-1.28-.01-1.9-.09-1.27-.07-2.97.44-4.47.89-1.96.58-3.98 1.19-6.06 1.19-1 0-1.94-.15-2.81-.43-.43-.15-.82-.37-1.23-.56-6 4.13-14.73 9.23-25.76 13.32-.07-5.62-.15-11.29-.22-16.95 4.2-2.23 8.57-4.76 13.06-7.66-.83-1.71-1.05-3.5-1.2-4.9-.07-.64-.14-1.13-.22-1.55-3.46 2.62-7.37 5.28-11.72 7.82l-.09-9.12c-1.38-.14-2.68-.43-3.72-1.1-2.24-1.44-4.31-3.12-6.32-4.76l-.03 20.27c-8.55 3.93-18.39 7.18-29.52 8.99-.49-37.84-1-82.79-1.32-125.92-.66.23-1.34.42-2.07.46l-.47.02c-2.83 0-5.29-1.38-7.48-2.62-1.42 1.3-3.07 2.24-4.64 3.03-.07 57.12-.14 116-.19 158.06-2.25.68-4.49 1.45-6.96 2.16 2.71-.92-12.48 1.64-15.49 4.37-.83-1.14-1.78-2.53-2.75-3.97-.11-17.65.04-32.18.75-35.44 2.08-9.46-7.48-19.17-7.48-4.11 0 4.32-.02 15.84-.04 30.07-9.95-9.65-21.16-11.44-33.42-10.2-.52-37.34-.63-74.25.79-80.71 3.02-13.76-10.88-27.89-10.88-5.97 0 10.43-.07 49.83-.14 88.26-1.08.22-2.17.44-3.27.67-.49.11 1 3.89 3.25 7.65-.01 6.71-.02 13.33-.04 19.69-.35-.03-.69-.06-1.07-.06-9.73 0-9.73 18.89-19.47 18.89-9.74 0-9.74-14.49-19.47-14.49-1.99 0-3.56.38-4.9.98-.28.13-.58.25-.84.4.28-.18.56-.37.83-.56 8.97-6.18 14.5-17.38 2.59-24.8-.91-.56-2.42-.98-4.25-1.31-1.4-.26-3-.45-4.67-.63-.24-3.51-.49-7.07-.73-10.67.56-.2 1.04-.39 1.34-.56 1.14-.65 2.2-1.43 3.21-2.28 8.66-7.26 12.43-21.12 2.84-29.29-1.34-1.14-2.92-2.02-4.56-2.76-1.26-.58-2.55-1.08-3.82-1.53-.42-.13-.84-.21-1.26-.33l-.21-3.81c1.71-.84 3.33-1.76 4.9-2.7.97-.58 1.93-1.16 2.8-1.73 5.76-3.82 2.15-9.32-3.37-11.77-1.63-.72-3.41-1.17-5.17-1.23-.66-15.14-1.03-28.89-.94-39.57-.88.2-1.77.39-2.71.51-2.71.33-5.48-.67-7.78-1.55-1.45-.55-2.95-1.12-3.97-1.12-.33.03-.68.13-1.04.26-.4 14.42-1.02 31.1-1.74 48.4-1.83.78-3.6 1.63-5.2 2.61-4.16 2.55-7.13 5.96-6.61 11.35.15 1.46.65 2.78 1.38 3.99 1.02 1.68 2.51 3.1 4.18 4.32.09.06.17.13.26.19 1.57 1.1 3.26 2.02 4.88 2.74-.25 5.55-.51 11.08-.76 16.54-1.68.61-3.38 1.26-5 2-6.91 3.15-12.35 7.81-8.59 17.18 1.41 3.51 4.24 6.24 7.48 8.39 1.5.99 3.07 1.85 4.64 2.59-.23 4.69-.46 9.22-.68 13.57-.47-.06-.97-.11-1.49-.11-1.21 0-2.26.17-3.21.46-6.67 2.09-7.73 10.49-16.26 10.49-6.37 0-8.59-5.61-12.08-9.5-.19-17.27-.15-32.8.52-35.84 1.63-7.4-5.84-14.99-5.84-3.22 0 4.54-.02 19.27-.06 35.66-.63-.13-1.28-.22-2.01-.22-9.73 0-9.73 20.03-19.46 20.03-8.15 0-9.49-9.22-15.43-12.23-.26-17.06-.43-34.48-.33-47.62.03-3.63.08-6.91.15-9.78 1.77-1.55 3.77-3.06 6.32-3.35 2.48-.29 4.91.04 7.16.36 1.6.22 3.04.44 4.37.34 1.12-.08 2.71-1.01 4.24-1.91 2.24-1.31 4.55-2.67 7.25-2.67 3.24.15 5.73 1.65 7.93 2.98 1.39.84 3.11 1.88 4.02 1.88 2.27-.3 4.39-.23 6.57-.15 2.41.09 4.68.08 5.94-.28.97-.28 2.26-3.09 3.03-4.76.34-.73.67-1.45 1.01-2.13l-2.88-1.31 1.95-.92c-1.07-1.13-2.03-2.29-2.87-3.3l-1.58-1.87c-2.05-2.38-4.6-5.35-6-8.87-1.29-3.23.39-6.39 1.86-9.19.55-1.04 1.47-2.77 1.49-3.39-.13-.43-1.47-1.68-2.35-2.5-1.87-1.73-3.98-3.69-4.5-6.58-.23-1.27-1.22-2.71-2.17-4.1-1.16-1.68-2.35-3.43-2.74-5.52-.13-.69-.19-1.46-.24-2.26-.18-2.61-.35-2.96-1.63-3.43l-1.84-.69c-2.54-.97-5.42-2.05-8.39-2.61-1.39-.27-2.95 0-4.53.19-2.07.25-4.32.51-6.57.24-2.44-.28-4.6-1.44-6.51-2.46-1.54-.83-3.01-1.61-4.15-1.7-1.55-.13-3.22.13-5.03.38-1.69.24-3.45.48-5.27.48l-.83-.02c-.78 0-2.41 1.05-3.6 1.81-2.13 1.38-4.55 2.93-7.39 2.93-2.58-.05-4.82-.6-6.79-1.08-1.58-.39-3.09-.76-4.29-.76-3.42 0-6.26-1.6-8.54-2.88-.85-.47-2.15-1.2-2.61-1.27-.95.03-1.19.04-1.84 3.48-.26 1.42-.54 2.91-1.21 4.27-1.17 2.4-3.45 3.82-5.66 5.19-1.71 1.06-3.64 2.26-4.1 3.49-1.32 3.52-2.78 6.75-7.16 10.66-3.17 2.83-6.72 4.45-11.04 6.28-3.71 1.57-5.51 5.16-6.77 8.46-.95 2.5-.2 6.13 1.92 9.27.37.56 2.05 1.06 3.5 1.45 0 2.18-.01 4.86-.01 7.92-.04 20.67-.13 57.52-.13 57.52h5.76s-1.04-34.26-.97-54.17c.02-3.99.07-7.38.19-9.82 1.19.48 2.34 1.08 3.33 1.94 3.63 3.15 4.16 6.5 4.51 8.7.29 1.83.37 2.32 1.66 3.14 2.51 1.61 6.2 2.58 9.78 3.43.88.21 1.79.45 2.72.7 2.6.69 5.29 1.4 7.86 1.55l.56.03c3.35.19 6.97.41 10.52.26 1.07-.04 2.53-.77 4.08-1.53 1.98-.98 4.22-2.09 6.77-2.33 2.87-.28 5.61 1.08 7.93 2.26.06.03.12.06.17.09 0 2.6-.01 5.4-.02 8.36-.02 13.63-.05 30.51-.08 46.89-5.92 2.21-7.27 8.95-15.41 8.95-9.73 0-9.73-15.03-19.46-15.03-.19 0-.37.05-.56.07-.04-12.03.1-21.57.61-23.88 1.62-7.4-5.85-14.99-5.85-3.22 0 4.01-.02 15.96-.04 29.99-4.51 5.22-6.36 15.52-13.62 15.52-9.73 0-9.73-20.83-19.46-20.83s-9.74 3.28-19.47 3.28c-9.73 0-9.73 4.19-19.46 4.19-9.72 0-9.72-7.51-19.45-7.51-9.73 0-9.73 20.47-19.45 20.47-5.71 0-8.07 1.32-11.02 2.41v35.79c3.88 2.25 6.02 5.83 12.85 5.83zm406.94-55.56c-1.44 0-2.64.22-3.72.57-.03-2.27-.06-4.64-.1-7.08.47-.08.95-.17 1.43-.23 1.24-.15.3-3.19-1.53-6.53-.08-5.52-.16-11.36-.24-17.5 7.2-.38 17.2-1.56 29.18-4.66-.02 10.21-.03 20.04-.05 29.07-1.47-.41-3.22-.68-5.51-.68-9.73 0-9.73 7.04-19.45 7.04zm62.55-49.81c-.05 24.31-.1 46.89-.14 63.21-1.15.74-2.45 1.22-4.02 1.22-9.73 0-9.73-16.84-19.47-16.84a23 23 0 0 1-2.77-.16c-.19-10.99-.39-23.34-.58-36.13 8.35-2.74 17.41-6.41 26.98-11.29zm-37.5-6.54c-.01 5.12-.02 10.23-.02 15.26-8.72 2.33-18.52 3.84-29.27 3.86-.04-3.08-.09-6.23-.13-9.43 6.61-1.34 16.93-4.1 29.42-9.7zm-67.76 49.87c6.95 6.79 14.36 6.41 22.05 4.46 0 4.04-.01 7.82-.02 11.34-8.54-.23-8.97-2.87-18.28-2.87-2.92 0-4.96-1.18-6.65-2.81-.06-4.69-.13-9.37-.17-13.94.93 1.37 1.92 2.69 3.07 3.81zm-43.05-14.01c9.5-2.06 23.75-5.08 32.23.6.32.22.6.48.91.73 0 4.76-.02 9.7-.03 14.69-1.52-1.21-3.35-2.02-5.78-2.02-9.74 0-9.74 7.69-19.47 7.69-3.43 0-5.65-1.14-7.51-2.62-.12-6.11-.24-12.53-.35-19.07zm-57.02 18.76c-.94.61-1.79 1.31-2.59 2.04-.02-.22-.03-.43-.05-.65.9-.41 1.78-.87 2.64-1.39zM879.03 412.92c1.63 0 3.32-.36 5.1-.74 1.8-.39 3.67-.78 5.61-.83 2.33-.05 4.55-.37 6.69-.67 1.38-.19 2.71-.38 4.01-.5.58-.05 2.07-2.01 2.71-2.84 1.58-2.06 3.36-4.39 6.2-5.02 3.88-.85 7.82 2.46 11.38 5.7.84.77 1.99 1.81 2.85 2.47.71-1.07 1.3-2.91 1.76-4.34.57-1.77 1.11-3.44 2.01-4.84.58-.91 1.29-1.84 2.03-2.8 1.48-1.92 3.01-3.91 3.06-5.61.07-2.32 1.25-4.54 2.49-6.88.74-1.4 1.93-3.65 2.01-4.76-.65-.56-2.31-1.42-3.36-1.97-3.13-1.64-6.68-3.49-7.79-6.91-.25-.24-1.97-1.11-3-1.63-2.81-1.42-5.99-3.03-7.21-6.31-1.44-3.88 1.71-7.88 5.05-12.1.9-1.13 2.12-2.68 2.81-3.76-.93-.55-2.39-1.13-3.38-1.52-2.28-.9-4.64-1.83-6.22-3.61-1.16-1.31-2.15-2.72-3.11-4.09-1.2-1.71-2.33-3.34-3.47-4.23-1.08-.86-2.14-1.74-3.19-2.61-1.81-1.5-3.52-2.92-5.17-4.08-.02-.01-.39-.19-1.77-.19-.66 0-1.33.04-2 .07-.79.04-1.58.08-2.32.08-1.9 0-4.65-.23-6.62-2.2-3.24-3.25-1.03-7.64.58-10.85.36-.71.85-1.7 1.2-2.53-1.14-.04-2.93.04-4.59.13-1.51.08-3.04.16-4.48.16-2.35 0-4.11-.22-5.53-.7-1.91-.65-3.49-1.86-5.01-3.02-1.56-1.2-3.04-2.33-4.58-2.63-.7.38-2.08 1.73-2.93 2.57-2.52 2.46-5.38 5.26-9.1 5.26-3.98-.13-6.41-3.61-8.76-6.96-.95-1.36-2.5-3.58-3.34-4.12-2.72-.09-5.14-1.32-7.28-2.41-1.34-.68-2.72-1.38-3.79-1.61-.84 1.13-2.11 3.85-2.91 5.57-2.42 5.2-4.7 10.12-9.07 10.32-2.05.09-4.12-.01-6.21-.13-1.89-.1-3.79-.22-5.72-.11l-.49.01c-2.79 0-5.29-1.23-7.49-2.32-1.53-.76-3.11-1.54-4.12-1.54-1.55.08-3.21.65-4.98 1.25-2.09.71-4.45 1.51-6.98 1.64h-.01c-4.38 0-6.99-4.18-9.76-8.6-.87-1.4-2.24-3.58-3.15-4.6-.6.67-1.84 2.28-2.63 3.3-2.42 3.13-4.91 6.37-8.69 6.42-.86.01-2.43 1.63-3.56 2.81-1.77 1.84-3.78 3.92-6.56 4.3-3.95.51-7.58-2.32-10.6-4.82-.76-.63-1.82-1.51-2.51-1.96-2.41 1.07-7.04 3.26-8.84 5.42-.43.52-.69 2.34-.87 3.67-.35 2.52-.79 5.64-2.75 8.16-2.11 2.7-5.53 2.89-8.27 3.04-1.68.1-3.6.21-4.4.84-.57.45-1.14 1.34-1.79 2.35-.71 1.12-1.57 2.38-2.7 3.57-.74 2.14-2.14 4.44-3.68 6.92-.37.59-.82 1.32-1.25 2.06-.34 1.2-.73 2.37-1.24 3.45.95.22 2.24.42 3.15.56 3.07.48 6.54 1.02 8.81 3.22.14.03.4.06.84.06 1.03 0 2.18-.15 3.34-.3 1.44-.18 2.92-.36 4.36-.36 2.5 0 4.42.59 5.85 1.8 2.43 2.05 3.12 5.13 3.73 7.84.26 1.16.75 3.32 1.22 3.69 2.03 1.39 3.48 3.3 4.78 4.98 1.14 1.49 2.22 2.89 3.35 3.52.3.17 2.4.18 4.27-.06 2.76-.37 5.83-.52 8.05.42 3.71 1.57 4.68 6.33 5.71 11.38.33 1.61.84 4.12 1.33 5.37 1.13-.26 2.83-1.12 4.13-1.78 2.76-1.39 5.72-2.81 8.51-2.5 4.56.52 8.85 1.01 11.19 6.04 1.17 2.52 3.36 7.21.94 13.33-.06.45.33 2.33.58 3.58.28 1.4.59 2.94.71 4.49.93-.45 1.91-.82 3.01-.88 1.12-.06 2.61-.85 4.18-1.67 2.1-1.11 4.48-2.36 7.23-2.53h.02c4.36 0 6.97 4.1 9.74 8.45.96 1.51 2.49 3.92 3.4 4.79 1.2-.17 2.62-.66 4.1-1.18 2.01-.69 4.29-1.48 6.73-1.62.51-.22 2.05-2.03 2.96-3.11 2.19-2.59 4.68-5.52 8.23-5.7 1.84-.1 3.66-.34 5.47-.57 2.01-.26 4.09-.53 6.19-.62l.69-.02c2.28 0 4.46.47 6.38.89 1.63.35 3.17.69 4.49.69l.43-.01c3.48 0 6.16 2.41 8.53 4.53.95.84 2.53 2.26 3.16 2.41.56-.06 2.4-1.66 3.38-2.53 2.25-1.96 4.8-4.19 8.04-4.19l.43 3.81v-3.8z"/><path d="M556.55 468.27h-.02l.02 3.82v-3.82zM614.21 461.36c2.74-.32 5.49.68 7.79 1.56 1.45.55 2.93 1.11 3.93 1.11 1.86-.2 3.54-.69 5.32-1.22 1.99-.58 4.04-1.18 6.25-1.44 1.99-.24 3.94-.26 5.77-.26h1.23c1.4 0 2.89-.01 4.28-.15.71-.56 1.99-2.59 2.76-3.84 2.11-3.37 4.27-6.85 8.03-7.21 2.32-.22 4.64-.02 6.95.21 1.65.16 3.29.34 4.84.23 2.5-.17 4.92.2 7.19.55 1.57.24 3.04.47 4.36.47l.46-.01c3.32 0 6.02 1.96 8.2 3.54.96.69 2.56 1.85 3.15 1.88.43-.18 2.01-1.77 2.96-2.72 2.12-2.14 4.51-4.55 7.62-4.92.85-.1 2.06-1.09 3.22-2.05 1.64-1.35 3.5-2.87 5.99-3.54.45-.12.92-.18 1.4-.18 3.35 0 6.41 2.98 9.95 6.43 1.31 1.27 3.37 3.28 4.54 4.04 1.15-.67 2.44-1.78 3.7-2.86 1.53-1.32 3.11-2.67 4.86-3.65.43-.73.84-2.94 1.1-4.28.66-3.5 1.33-7.12 4.15-9 1.79-1.2 3.36-2.63 5.02-4.15a80.31 80.31 0 0 1 3.09-2.73c1.73-1.42 3.64-2.37 5.32-3.2 1.57-.78 3.05-1.51 3.93-2.41 2.35-2.41 6.03-2.81 9.28-3.15 1.16-.12 3.02-.32 3.81-.61.22-.95-.31-3.56-.6-5.01-.58-2.86-1.14-5.57-.2-7.93 1.12-2.83.35-4.88-.76-7.28-.41-.88-.53-1.14-5.11-1.66-.77 0-2.82 1.04-4.19 1.73-3.28 1.66-6.99 3.31-10.25 2.39-4.12-1.16-5.12-6.09-6.18-11.3-.38-1.85-.98-4.82-1.56-5.94-.71-.12-2.33.04-3.68.22-3.12.41-6.59.5-8.98-.83-2.54-1.4-4.23-3.61-5.73-5.56-1.04-1.35-2.02-2.63-3.04-3.33-2.93-2.02-3.72-5.51-4.35-8.32-.25-1.11-.71-3.13-1.16-3.62 0 .03-.3-.04-.95-.04-1.06 0-2.24.15-3.41.3-1.41.17-2.88.36-4.29.36-1.01 0-4.07 0-6.17-2.22-.57-.51-3.13-.91-4.65-1.14-3.4-.53-7.25-1.13-9.34-4.02-2.76-3.82.21-8.61 3.35-13.68.97-1.57 2.52-4.06 2.96-5.32-.56-.63-1.6-1.3-2.6-1.94-2.31-1.47-5.18-3.3-5.84-6.91-.68-3.67-2.38-8.23-4.67-10.13-1.64-1.36-5.89-4.71-10.04-6.52-.76.04-2.33.61-3.73 1.11-2.89 1.04-6.49 2.13-9.41 1.3-3.46-.98-5.15-4.75-6.78-8.39-.58-1.3-1.48-3.31-2.18-4.3-.96.69-2.44 2.15-3.39 3.1-2.9 2.87-5.9 5.84-9.45 5.84l-.91-.06c-2.71-.41-4.97-1.9-6.97-3.21-1.49-.98-3.02-2-4.18-2.12-.38.2-2.15 1.92-3.2 2.96-2.61 2.55-5.31 5.19-8.81 5.19l-.53-.02c-3.97-.32-6.27-4.28-8.5-8.11-.82-1.4-2.14-3.67-2.91-4.36-2.79-.3-5.18-1.82-7.29-3.17-1.12-.72-2.36-1.51-3.3-1.84-.98 1.19-2.49 4.12-3.44 5.96-2.78 5.39-5.18 10.05-9.43 10.05-2.3-.04-4.37-.3-6.37-.56-1.91-.24-3.72-.47-5.44-.47-3.17-.01-5.82-1.6-8.15-3-1.28-.77-2.87-1.73-3.63-1.73-1.68.02-3.45.6-5.33 1.22-2.04.67-4.15 1.37-6.42 1.44-4.45 0-8.13-4.23-11.69-8.31-.81-.93-1.88-2.15-2.76-3.05-.36 1.56-.68 4.18-.87 5.78-.39 3.19-.73 5.96-1.89 7.94.09.62.65 1.95 1.04 2.85 1.08 2.55 2.42 5.71 1.51 9.02-.99 3.6-4.89 5.13-8.66 6.61-1.62.64-4.35 1.71-4.9 2.41-.69 2.44-2.03 4.63-3.32 6.74-.71 1.16-1.45 2.36-2.12 3.72-.36.72-.4 2.2-.44 3.62-.08 2.79-.19 6.26-2.54 9.14-2.28 2.81-5.96 2.94-8.93 3.06-1.57.06-3.72.14-4.4.69-.72.58-1.36 1.64-2.11 2.85-1.22 2-2.73 4.47-5.51 6.18-.42.82-.86 3.16-1.13 4.6-.82 4.34-1.74 9.27-5.75 10.97-2.89 1.23-5.27 1.04-7.29.97-.44-.02-.88-.03-1.3-.03-1.06 0-1.41.12-1.52.19-1.51 1.01-3.41 1.49-5.96 1.49-1.42 0-2.96-.15-4.47-.31-.37-.04-.73-.08-1.08-.11.73.77 1.53 1.57 2.14 2.18 3.3 3.28 6.15 6.11 5.89 9.49-.28 3.54-3.8 5.84-7.87 8.51-1.34.88-3.43 2.25-4.42 3.17 1.1 2.53 3.03 5.95 5.15 9.08.64.95 1.3 2 1.98 3.09 1.45 2.31 2.94 4.69 4.49 6.42.46.51 2.68.98 4 1.26 2.57.54 5.46 1.16 7.55 3.1 1.38 1.29 2.61 2.66 3.79 3.99 1.23 1.38 2.4 2.7 3.58 3.72 1.34-.06 3.51-.84 5.27-1.47 4.13-1.49 8.05-2.46 10.54-.66 4.88 3.56 3.57 9.22 2.7 12.98-.23.99-.6 2.56-.6 3.37.97-.09 2.27-.44 3.54-.78 1.88-.51 3.82-1.04 5.79-1.04 1.19 0 2.28.2 3.25.6 3.25 1.33 6.24 2.19 10.01 3.15 3.42.87 6.68 1.52 10.58 2.1 2.01.3 4.06.35 6.24.39 1.54.04 3.1.07 4.72.19 3.76.28 6.09 3.91 8.35 7.42.82 1.28 2.14 3.34 2.93 4.04.92-.19 2.35-1.03 3.54-1.72 2.22-1.3 4.75-2.77 7.66-2.85.63-.06 2.28-1.46 3.26-2.29 2.18-1.85 4.67-3.95 7.87-4.14 1.79-.11 3.61-.43 5.54-.78 1.84-.33 3.75-.67 5.75-.84l.48-.02c3.74 0 6.37 3.36 9.15 6.93.99 1.26 2.57 3.28 3.45 3.95.84-.25 2.14-1.09 3.41-1.92 2.06-1.34 4.39-2.86 7.2-3.17zM950.2 536.2c.97 0 2.53-.97 3.92-1.82 2.01-1.25 4.3-2.66 7.01-2.79h.01c3.93 0 6.84 2.88 9.42 5.42.89.88 2.31 2.29 3.09 2.75 1.43-.42 3.04-1.66 4.61-2.87 1.6-1.23 3.26-2.51 5.12-3.23l1.12-.43c3.34-1.28 7.12-2.73 8.57-4.23 2.13-2.2 3.46-6.96 2.6-9.26-.41-1.1-1.82-2.29-3.19-3.45-1.77-1.5-3.78-3.2-4.75-5.63-1.33-3.35-.13-6.93.84-9.8.38-1.12.95-2.82.89-3.39-.25-.52-2.82-1.57-4.2-2.14-2.75-1.12-5.59-2.29-6.87-4.97-1.32-2.76-1.75-5.46-2.1-7.62-.23-1.4-.44-2.72-.8-3.39-.63-1.16-2.53-2.04-4.36-2.9-2.43-1.14-5.19-2.42-6.37-5.19-1.29-3.05.24-5.99 1.73-8.84.95-1.81 2.12-4.07 1.91-5.38-.81-4.89-2.42-8.75-4.34-10.52-.94.17-2.69.89-4.01 1.42-3.87 1.58-8.23 3.05-11.49 1.72-.92-.37-1.82-.76-2.71-1.15-2.5-1.08-4.86-2.1-7.78-2.85-2.32-.59-4.31-1.84-6.06-2.94-1.69-1.06-3.28-2.06-4.83-2.29-1.92-.29-3.85-.1-5.82.07-2.01.17-4.09.32-6.16.2-2.7-.16-5.36-1.62-7.94-3.04-.91-.5-2.25-1.24-3.22-1.64-.07.77-.17 1.99-.22 2.82-.23 3.1-.5 6.61-2.73 9.04-.49.53-1.09 2.1-1.57 3.37-1.08 2.82-2.43 6.33-5.51 8.2-2.59 1.56-6.35.66-9.69-.52-1.56-.55-3.33-1.18-4.44-1.18-3.14.49-5.55.25-8.45-.07-1.01-.11-2.08-.23-3.24-.31-1.09.01-2.13.24-3.29.5-2.41.54-5.57 1.09-8.35.47-3.36-.75-6.11-2.54-8.32-3.97-.94-.61-2.23-1.45-2.7-1.56.03.04-.84.09-1.87 1.28-1.58 1.83-2.36 4.93-2.2 6.88.17.27 1.53 1.62 2.43 2.52 2.46 2.46 5.51 5.51 5.39 9.47-.15 4.64-3.79 9.8-7.19 14.27-2.13 2.81-5.61 2.9-8.69 2.98-1.76.04-3.57.09-4.83.6-.41.62-1.03 2.25-1.45 3.35-1.4 3.73-3.16 8.38-7.55 9.51-.47.13-.98.19-1.49.19-2.85 0-5.3-1.9-7.89-3.92-1.25-.97-3.57-2.79-4.45-2.84-5.24.78-9.77 3.39-10.53 4.34-.82 1.36-.1 7.56 2.42 10.44.6.68 2.59 1.46 4.19 2.08 2.16.84 4.61 1.79 6.67 3.36 1.13.85 2.25 1.77 3.39 2.7 1.93 1.58 3.93 3.22 5.92 4.49 0 0 .22.13.95.13 1.06 0 2.44-.26 3.78-.51 1.58-.3 3.22-.6 4.79-.6 1.62 0 2.97.32 4.12.99 4.84 2.78 5.3 7.04 5.57 9.58.25 2.24.39 2.49 1.08 2.9 1.62 1.14 2.87 2.36 4.08 3.54 1.68 1.64 3.42 3.35 4.97 3.86.03.01.14.04.39.04.96 0 2.44-.44 3.87-.87 2.33-.69 5.09-1.46 7.65-1.14 1.91.26 3.88.07 5.89-.09 1.54-.12 3.11-.24 4.68-.24h.91c2.12 0 4.29-.18 6.58-.38 1.34-.11 2.68-.23 4.04-.3.84-.05 2.28-1.05 3.56-1.93 2.03-1.4 4.33-2.99 7.2-3.29l.67-.03c3.28 0 5.89 2.33 8.42 4.58 1.04.93 2.78 2.48 3.48 2.65.86-.15 2.29-.99 3.82-1.86 1.97-1.14 4.21-2.44 6.82-2.78 2.38-.31 4.78-.06 6.98.19 1.59.18 3.18.39 4.67.22 2.97-.33 5.73.74 8.07 1.68 1.34.54 2.72 1.1 3.59 1.1.97-.06 2.52-1.27 3.76-2.25 2.11-1.66 4.51-3.53 7.53-3.53l.44 3.81v-3.8zM328.71 171.46c49.24 3.01 64.66 11.81 68.55 14.81-1.53 4.8-9.45 21.78-49.12 52.67-7.75 6.04-15.52 11.65-22.73 16.66v10.51c0 20.05-14.09 36.84-32.88 41.08 10.7 7.66 17.71 20.15 17.71 34.28v291.87c0 23.24-18.92 42.16-42.16 42.16h-25.71v265.21c0 26.17 21.22 47.38 47.38 47.38 26.17 0 47.38-21.2 47.38-47.38V321.39c13.41-8.5 33.77-22.09 53.78-38.11 53.36-42.71 74.98-79.72 66.11-113.15-13.21-49.76-82.76-59.39-146.4-60.8 11.5 15.76 18.3 35.15 18.3 56.1 0 2.03-.09 4.04-.21 6.04zM129.86 940.7c0 26.17 21.22 47.38 47.37 47.38 26.17 0 47.38-21.2 47.38-47.38V675.49h-94.76V940.7z"/><path d="M312.68 199.57a85.975 85.975 0 0 0 7.04-34.15c0-47.61-38.6-86.22-86.22-86.22s-86.22 38.61-86.22 86.22c0 7.65 1.01 15.07 2.88 22.13h133.09c11.44 0 21.83 4.6 29.43 12.03zM268.08 310.81H241.7v99.14h-21.72v-99.14H89.06v99.14H67.34v-99.14H45.82c-16.93 0-30.66 13.72-30.66 30.66v291.87c0 16.93 13.72 30.66 30.65 30.66h222.26c16.93 0 30.66-13.72 30.66-30.66V341.47c0-16.93-13.73-30.66-30.66-30.66zM30.65 296.75h252.6c16.93 0 30.66-13.72 30.66-30.66v-36.4c0-16.93-13.73-30.66-30.66-30.66H30.65c-16.93 0-30.66 13.72-30.66 30.66v36.4c0 16.93 13.73 30.66 30.66 30.66zm249.32-83.66c12.18 0 22.04 15.73 22.04 35.13 0 19.4-9.86 35.13-22.04 35.13-12.17 0-22.03-15.73-22.03-35.13 0-19.4 9.87-35.13 22.03-35.13zM638.41 153.28c42.32 0 76.64-34.31 76.64-76.64C715.05 34.32 680.74 0 638.41 0s-76.64 34.31-76.64 76.64 34.31 76.64 76.64 76.64zm0-138.68c34.2 0 62.03 27.83 62.03 62.05 0 34.2-27.83 62.01-62.03 62.01-34.22 0-62.04-27.81-62.04-62.01 0-34.22 27.82-62.05 62.04-62.05z"/></g></svg>