<svg xmlns="http://www.w3.org/2000/svg" xml:space="preserve" viewBox="0 0 371.68 359.32" shape-rendering="geometricPrecision" text-rendering="geometricPrecision" image-rendering="optimizeQuality" fill-rule="evenodd" clip-rule="evenodd"><g fill="currentColor"><path d="m112.75 271.61-14.41-36.16 40.31 18.08-8.59 49.74c-1.62 9.37 4.66 18.27 14.03 19.89.99.17 1.98.26 2.95.26 8.22 0 15.49-5.91 16.94-14.28l10.87-62.91a17.192 17.192 0 0 0-9.92-18.63l-37.36-16.75 18.59-70.36 51.96-8.43a10.99 10.99 0 0 0 8.59-7.13l18.35-50.84c2.07-5.72-.9-12.03-6.62-14.1-5.72-2.07-12.03.9-14.1 6.62l-16.15 44.75-24.01 3.9c-5.24 12.4-17.46 20.91-31.52 20.91-1.28 0-2.59-.07-3.87-.22-14.94-1.68-26.56-12.78-29.64-26.7l-6.5-1.72-31.7-35.98 19.08-43.83c2.43-5.58-.13-12.07-5.7-14.49-5.58-2.43-12.06.12-14.49 5.7L37.96 69.18a11.02 11.02 0 0 0 1.83 11.68l34.7 39.4-21.33 80.73a17.131 17.131 0 0 0-.28 13.38l24.53 61.55-38.25 56.46c-5.33 7.87-3.27 18.57 4.59 23.9 2.96 2 6.31 2.96 9.64 2.96 5.52 0 10.94-2.65 14.26-7.56l43.37-64.01c3.2-4.72 3.85-10.72 1.74-16.02z"/><path d="M129.15 132.66c17 1.91 32.33-10.31 34.25-27.31 1.92-17-10.31-32.33-27.31-34.25-17-1.91-32.33 10.31-34.25 27.31-1.91 17 10.31 32.33 27.31 34.25zm.15-19.76c3.75-5.49 10.1-7.68 14.18-4.89s4.34 9.5.59 14.99-10.11 7.68-14.19 4.9c-4.08-2.79-4.34-9.5-.59-14.99zM160.06 72.25c.4.59 1.05.9 1.71.9.4 0 .8-.12 1.16-.36l13.03-8.85c.69-.47 1.03-1.32.86-2.14-.17-.82-.83-1.46-1.65-1.6l-13.1-2.35 9.23-20.49c.36-.81.17-1.75-.47-2.36-.65-.6-1.6-.73-2.38-.32l-15.49 8.24-1.22-19.64c-.06-.87-.64-1.61-1.48-1.85-.83-.25-1.73.06-2.24.76L137.1 37.01l-11.27-17.19a2.06 2.06 0 0 0-3.78 1.03l-1.08 20.92-14-7.15c-.76-.39-1.69-.27-2.33.31-.64.58-.85 1.49-.53 2.29l4.96 12.43-17.86-1.79c-.89-.09-1.74.41-2.1 1.23-.36.82-.15 1.78.53 2.37l14.39 12.67c.86.75 2.16.67 2.91-.19.75-.86.67-2.16-.19-2.91l-9.57-8.42 14.85 1.49c.71.08 1.42-.24 1.86-.81a2.1 2.1 0 0 0 .27-2.01l-4.18-10.49 11.95 6.1c.62.32 1.37.3 1.97-.05.61-.35.99-.98 1.03-1.68l.92-17.79 9.44 14.39c.37.57.99.91 1.67.93.64.02 1.32-.3 1.72-.84l9.31-12.63 1.07 17.18c.04.7.44 1.33 1.05 1.68.61.34 1.36.35 1.98.02l12.99-6.91-7.84 17.4c-.26.58-.24 1.25.06 1.81s.84.96 1.46 1.07l10.71 1.92-8.84 6c-.94.64-1.19 1.93-.55 2.87zM203.65 26.65l-3.03-1.67-3.08 5.66c-5.32-2.39-8.05-8.47-6.14-14.11 1.95-5.75 8.03-8.92 13.81-7.36-.05.13-.11.26-.16.39-.95 2.79-.97 5.68-.23 8.32-.07-1.43.12-2.89.6-4.33 2.09-6.16 8.78-9.46 14.94-7.37 6.16 2.09 9.46 8.78 7.37 14.95-.99 2.92-3.03 5.19-5.54 6.56 1.52-.43 2.96-1.12 4.26-2.02 1.56 2.74 2 6.11.9 9.33-2.03 5.98-8.53 9.19-14.51 7.16-2.08-.7-3.81-1.96-5.12-3.53l4.76-4.48-2.38-2.51-8.21 8.56-10.6 11.06 1.49 1.43 12.42-11.68a14.37 14.37 0 0 0 7.1 5.29c7.56 2.56 15.76-1.48 18.33-9.04 1.59-4.69.63-9.63-2.13-13.32 1.42-1.46 2.56-3.24 3.26-5.3 2.5-7.38-1.45-15.39-8.82-17.89-6.53-2.22-13.55.63-16.82 6.43-.45-.21-.9-.39-1.38-.55-7.2-2.44-15.01 1.41-17.46 8.61-2.44 7.2 1.41 15.01 8.61 17.46.15.05.3.08.44.13l-8.66 15.93 1.76 1.08 7.82-12.76 6.38-10.42zM246.13 187.81l-81.42-44.04-1.86 2.26 79.09 46.44zM145.26 179.59l57.49 61.77 5.53-2.96-60.5-60.3zM170.35 167.73c-.21-.65-.77-1.34-1.67-2.06-.96-.77-2.58-.9-4.88-.4s-3.93 1.36-4.89 2.56c-.41.52-.55 1.25-.4 2.2.15.95.54 1.68 1.19 2.2.42.34 1.13.67 2.12.98.99.32 1.87.51 2.65.58.14 1.02.54 1.8 1.21 2.34.24.19.9.48 1.98.87s2.3.34 3.66-.15c1.36-.48 2.46-1.25 3.31-2.31.73-.92 1.31-2.16 1.73-3.72.42-1.56.41-3.18-.03-4.86-.44-1.68-1.3-3.03-2.58-4.06-1.94-1.55-4.33-2.34-7.17-2.37-2.85-.02-5.5.67-7.96 2.1-2.46 1.43-4.09 2.64-4.88 3.62-1.39 1.74-1.73 3.8-1.01 6.18.72 2.39 2.02 4.34 3.92 5.86 1.66 1.33 3.56 2.46 5.71 3.4s3.99 1.32 5.51 1.14c.44-.2.83-.51 1.17-.94.12-.15.15-.41.08-.76a1.39 1.39 0 0 0-.51-.85c-.28-.23-.93-.31-1.91-.24-1.26-.17-2.65-.56-4.17-1.2-1.52-.64-2.68-1.29-3.5-1.94-1.64-1.31-2.71-2.88-3.22-4.7-.51-1.82-.41-3.18.31-4.07.72-.9 2.13-1.96 4.21-3.17s4.31-1.73 6.68-1.58c2.37.15 4.13.68 5.28 1.59.36.29.74.9 1.14 1.84.4.93.52 1.84.36 2.73-.05.27-.12.65-.19 1.14-.21 1.37-.62 2.43-1.23 3.2-.54.67-1.31 1.09-2.32 1.26-1.01.17-1.75.07-2.21-.3-.2-.16-.26-.3-.16-.42.32-.4.79-.77 1.41-1.11 1.04-.54 1.63-.9 1.79-1.09.5-.62.39-1.21-.32-1.78a.716.716 0 0 0-.32-.17l.1-.12c.23-.29.24-.77.03-1.42zm-3.3 1.5c-.42.21-.72.43-.88.66l-.82 1.15c-.16.19-.66.23-1.5.1-.85-.13-1.39-.29-1.65-.49-.26-.21-.44-.39-.51-.55-.08-.15-.04-.33.12-.53.3-.37 1.15-.78 2.55-1.24 1.4-.45 2.48-.45 3.23.02.04.09.06.2.08.31 0 .11.02.2.05.29-.02-.02-.25.08-.67.28zM192.13 183.38c.28-.24.62-.47 1.02-.7 1.2-.71 1.92-1.21 2.15-1.51.22-.27.32-.58.29-.93-.02-.35-.19-.65-.5-.9-.45-.36-.96-.46-1.53-.3-.27.05-1.43.93-3.5 2.63-.81.67-1.36 1.09-1.65 1.28-1.75-1.09-2.74-1.69-2.97-1.81.13-.08.3-.18.51-.28 1.48-.7 2.42-1.29 2.8-1.76.45-.56.42-1.04-.09-1.44-.43-.34-.88-.49-1.34-.44-.46.05-1.1.33-1.92.83-1.25.74-2.17 1.13-2.78 1.19-.44-.32-1.19-.76-2.25-1.32-.41-.21-.83-.46-1.26-.73-1.62-.98-2.67-1.18-3.14-.59-.48.6-.12 1.38 1.08 2.35.41.33 1 .71 1.79 1.14.88.49 1.45.82 1.73 1.01-.31.18-.79.52-1.43 1.02-.42.36-.85.68-1.3.96-.11-.09-.48-.43-1.13-1.04-.66-.6-1.12-1.01-1.39-1.23-.4-.32-.94-.52-1.61-.6-.67-.08-1.13.03-1.36.33-.5.63-.11 1.47 1.19 2.51l1.7 1.29.32.28c-1.1.55-1.98 1.24-2.64 2.06-.18.22-.25.49-.21.79.04.31.2.57.47.78.64.51 2.21-.09 4.7-1.81l2.81 1.64c-.05.06-.14.13-.28.2-.64.34-1.24.86-1.81 1.57-.2.26-.33.64-.37 1.14-.04.51.07.87.35 1.09.36.29.78.38 1.26.27.47-.11.85-.35 1.15-.72l.45-.65c.16-.2.42-.4.77-.6.34-.21.77-.48 1.3-.81.49.39 1.08.76 1.79 1.11.69.35 1.23.68 1.6.97.08.06.21.25.39.58.19.32.33.53.44.62.34.27.72.41 1.13.42.42.01.73-.11.92-.35.24-.3.41-.7.52-1.19.11-.49-.31-1.11-1.24-1.86-.13-.11-1.29-.71-3.47-1.81.16-.12.37-.27.63-.45 1.08-.75 1.86-1.31 2.32-1.66 1.09.49 2.69 1.59 4.81 3.29.22.18.49.22.79.13.31-.09.55-.24.71-.45.3-.38.43-.73.38-1.04-.04-.31-.41-.75-1.1-1.3-.77-.62-1.92-1.37-3.45-2.26.17-.1.42-.28.74-.52.28-.17.51-.32.69-.45zm-6.97 1.79-1.91 1.25c-.52-.09-1.29-.51-2.29-1.25-.2-.14-.46-.33-.8-.56.96-.79 1.91-1.44 2.84-1.96.67.3 1.71.91 3.11 1.83-.25.22-.57.45-.96.7zM200.11 210.14c.49.23 1.06.38 1.71.44.66.06 1.27.1 1.85.09.57 0 1.09-.16 1.55-.48.46-.31.83-.65 1.13-1.01.68-.85.83-1.86.46-3.02-.37-1.16-1.08-2.17-2.14-3.01-.72-.58-1.81-.66-3.27-.24-1.45.42-2.52 1.06-3.2 1.91-.38.47-.64 1.12-.8 1.96-.15.83.27 1.65 1.26 2.44.48.38.96.69 1.45.92zm1.92-4.56c.66-.35 1.13-.41 1.42-.18.04.18.11.37.22.55.41.76.51 1.26.31 1.51-.26.33-.57.56-.92.68-1.11-.06-1.73-.15-1.87-.26l-.61-.56-.18-.13c.43-.72.97-1.26 1.63-1.61zM212 196.13c-2.88-2.67-4.66-4.38-5.35-5.11-.1-.76-.37-1.3-.79-1.64-.96-.77-2.09-1.19-3.39-1.26-1.29-.07-2.51.24-3.65.94-1.14.69-1.84 1.2-2.1 1.53-.67.83-1 1.65-.99 2.45.01.8.36 1.48 1.07 2.05.6.48 1.43.82 2.5 1.02 1.07.2 2.13.09 3.2-.31 1.06-.4 1.86-.94 2.4-1.61.2-.25.37-.53.53-.85.63.5.99.79 1.07.84.08.06.44.47 1.06 1.25-4.38 1.53-6.71 2.33-7 2.41-2.01.56-3.91 1.34-5.71 2.34-1.8 1-2.85 1.69-3.15 2.06-.59.73-.54 1.37.14 1.91.33.26.93.29 1.78.08.81-.38 1.76-.85 2.87-1.42 2.08-1.08 4.3-2 6.66-2.76 1.32-.43 2.04-.67 2.16-.73h-.02c2.03-.62 3.68-1.2 4.95-1.74.71.11 1.22-.03 1.54-.43.14-.18.22-.51.23-.99zm-9.67-3.27c-.36.45-.88.78-1.56 1-.68.22-1.16.22-1.45-.01-.24-.19-.44-.47-.61-.83-.04-.3.02-.57.2-.79.41-.51 1.07-.94 1.98-1.29.91-.35 1.62-.33 2.13.08l.21.17c-.38.84-.68 1.4-.9 1.67zM209.61 213.23c-.4-.32-.96-.39-1.68-.2-.72.18-1.22.45-1.5.81-.75.94-.71 1.75.14 2.43.29.23.75.38 1.41.45.65.07 1.22-.12 1.69-.57l.69-.62c.14-.18.12-.55-.07-1.12-.19-.57-.42-.96-.68-1.17zM216.86 208.63c1.24-.92 2.57-1.94 3.99-3.08 1.42-1.13 2.22-1.81 2.39-2.03.21-.27.28-.63.17-1.08-.1-.45-.3-.8-.61-1.05-.28-.23-.75-.36-1.39-.4-.64-.03-1.23.2-1.76.69-.53.49-.83.78-.9.87-.68.85-1.91 1.99-3.66 3.41-1.61 1.32-2.96 2.78-4.04 4.38.17.66.64 1.29 1.41 1.91.58-.22 1.1-.6 1.55-1.13.6-.71 1.54-1.55 2.84-2.5zM43.25 136.74c-.09-.13-.19-.24-.28-.36l16.44-7.64-.77-1.91-13.87 5.6L33.44 137l1.44 3.14 5.85-2.72c2.85 5.08 1.43 11.6-3.46 14.99-4.99 3.46-11.76 2.39-15.48-2.31.12-.08.24-.14.36-.22 2.43-1.68 4.16-3.99 5.14-6.55-.8 1.19-1.82 2.26-3.06 3.12-5.35 3.71-12.69 2.38-16.4-2.97-3.71-5.35-2.38-12.69 2.97-16.4 2.54-1.76 5.52-2.37 8.36-1.97-1.48-.56-3.04-.86-4.62-.91.38-3.14 2.03-6.1 4.83-8.04 5.19-3.6 12.32-2.31 15.92 2.88 1.25 1.8 1.9 3.84 2.01 5.88l-6.5.77.42 3.43 11.7-2 15.1-2.58-.35-2.04-16.93 2c.05-2.92-.77-5.89-2.56-8.48-4.55-6.56-13.55-8.19-20.11-3.64-4.07 2.82-6.24 7.37-6.21 11.98-2.01.33-3.98 1.08-5.77 2.32-6.4 4.44-7.99 13.23-3.56 19.63 3.93 5.67 11.27 7.56 17.34 4.84.23.43.49.85.78 1.26 4.33 6.25 12.9 7.8 19.15 3.47 6.25-4.33 7.8-12.91 3.47-19.15zM322.79 250.46l-.05.12c-.18-.15-.36-.29-.55-.42-5.21 5.06-12.31 8.2-20.13 8.2-7.82 0-14.92-3.14-20.13-8.2-.19.13-.38.27-.55.41l-.05-.11c-2.03.87-19.88 9.73-21.37 53.67a7.236 7.236 0 0 0 6.98 7.47h.25c3.88 0 7.09-3.08 7.22-6.98.46-13.54 2.56-22.77 4.94-28.99V349c0 5.7 4.62 10.32 10.32 10.32S300 354.7 300 349v-33.04h4.13V349c0 5.7 4.62 10.32 10.32 10.32s10.32-4.62 10.32-10.32v-73.37c2.38 6.22 4.48 15.45 4.94 28.99a7.22 7.22 0 0 0 7.22 6.98h.25c3.99-.13 7.11-3.48 6.98-7.47-1.49-43.94-19.34-52.8-21.37-53.67z"/><path d="M302.06 252.37c12.66 0 22.92-10.26 22.92-22.92 0-12.66-10.26-22.92-22.92-22.92-12.66 0-22.92 10.26-22.92 22.92 0 12.66 10.26 22.92 22.92 22.92zm-14.6-14.48c.79-4.38 7.57-6.83 15.14-5.46s13.06 6.03 12.27 10.41c-.79 4.38-6.13-1.11-13.7-2.48-7.57-1.37-14.5 1.9-13.71-2.48z"/><path d="M313.22 201.47c.82.43 1.84.12 2.27-.7l6.01-11.33c.32-.6.24-1.34-.2-1.86-.44-.53-1.15-.73-1.8-.52l-10.32 3.3-1.16-18.26c-.05-.72-.54-1.33-1.24-1.52-.68-.18-1.43.08-1.83.68l-8 11.83-8.36-13.67c-.37-.6-1.08-.91-1.77-.77s-1.22.7-1.33 1.4l-2.22 14.82-14.66-8.07c-.64-.35-1.43-.25-1.96.24a1.7 1.7 0 0 0-.38 1.94l7.19 15.46-12.79.19c-.7.01-1.32.45-1.56 1.11-.24.66-.04 1.39.49 1.85l8.3 7.06-13.53 5.51c-.68.28-1.1.96-1.04 1.69.06.73.58 1.34 1.28 1.51l15.18 3.63c.02 0 .03.01.05.01.89.19 1.77-.37 1.98-1.26.22-.9-.34-1.81-1.24-2.03l-10.09-2.41 11.25-4.58a1.684 1.684 0 0 0 .46-2.84l-7.01-5.95 10.91-.16c.57-.01 1.09-.31 1.4-.79.3-.48.34-1.09.1-1.6l-6.11-13.15 12.27 6.76c.48.27 1.06.28 1.56.03.49-.24.83-.71.92-1.26l1.89-12.63 7.31 11.95c.3.49.83.79 1.4.8.57.01 1.11-.27 1.43-.74l6.71-9.92.99 15.5c.03.52.3.99.73 1.28.43.29.96.37 1.46.21l8.44-2.7-4.07 7.68c-.43.82-.12 1.84.7 2.27zM320.96 157.13l-.68 1.84c5.46 2.04 9.82 1.92 12.96-.34 5.17-3.73 4.95-11.82 4.94-12.17l-1.96.07c0 .07.21 7.39-4.12 10.51-2.58 1.86-6.32 1.89-11.13.1zM352.17 165.86c-5.18-.72-8.51-2.56-9.9-5.45-2.35-4.89 1.46-11.42 1.5-11.48l-1.68-1c-.18.3-4.39 7.48-1.59 13.32.7 1.46 1.76 2.69 3.19 3.69 2.02 1.42 4.77 2.38 8.21 2.86l.27-1.94zM350.11 171.62c-5.39-2.54-9.73-2.76-12.91-.68-5.43 3.57-5.2 12.53-5.18 12.91l1.96-.06c0-.08-.21-8.25 4.31-11.21 2.56-1.68 6.26-1.41 10.99.81l.83-1.77zM328.09 182.42c.21-.32 4.99-7.95 2.09-13.77-1.72-3.44-5.7-5.43-11.83-5.9l-.15 1.95c5.4.42 8.84 2.04 10.23 4.82 2.41 4.82-1.95 11.77-1.99 11.84l1.65 1.05zM235.18 246.74l.5 1.9c5.64-1.48 9.14-4.09 10.4-7.75 2.08-6.02-2.76-12.52-2.97-12.79l-1.56 1.18c.04.06 4.42 5.92 2.68 10.97-1.04 3-4.08 5.19-9.05 6.49zM253.53 238.85c1.41.79 2.99 1.18 4.73 1.18 2.47 0 5.27-.8 8.36-2.39l-.9-1.74c-4.65 2.39-8.43 2.81-11.23 1.24-4.74-2.65-5.38-10.18-5.38-10.25l-1.95.15c.03.35.71 8.64 6.37 11.81zM258.24 249.39c1.13-2.85 4.31-4.76 9.45-5.66l-.34-1.93c-5.87 1.03-9.55 3.35-10.94 6.88-2.38 6.05 2.97 13.24 3.19 13.54l1.57-1.18c-.05-.06-4.92-6.62-2.93-11.65zM248.41 252.57c4.74 2.55 5.19 10.75 5.19 10.83l1.96-.09c-.02-.38-.5-9.38-6.22-12.46-3.38-1.83-7.78-1.16-13.07 1.99l1 1.69c4.65-2.77 8.4-3.42 11.14-1.95zM344.43 212.99c17.2-.29 27.67 8.01 27.24-2.05-.45-10.7-20.85-8.52-27.24 2.05zM344.86 191.09c-6.39-5.57-16.26 7.34-13.68 16.78 9.21-10.05 19.7-11.53 13.68-16.78zM340.4 230.54c11.75 2.01 17.81 9.01 18.81 2.1 1.07-7.34-13.1-8.47-18.81-2.1z"/></g></svg>