<svg xmlns="http://www.w3.org/2000/svg" xml:space="preserve" viewBox="0 0 13903.32 10454.57" shape-rendering="geometricPrecision" text-rendering="geometricPrecision" image-rendering="optimizeQuality" fill-rule="evenodd" clip-rule="evenodd"><g fill="currentColor" fill-rule="nonzero"><path d="M1129.56 3192.79V1156.32H137.42v2036.47h992.14zm-496.1-1822.1c193.4 0 350.19 156.74 350.19 350.09 0 193.4-156.79 350.19-350.19 350.19-193.35 0-350.09-156.79-350.09-350.19 0-193.35 156.74-350.09 350.09-350.09zm0 907.45c193.4 0 350.19 156.74 350.19 350.14 0 193.4-156.79 350.14-350.19 350.14-193.35 0-350.09-156.74-350.09-350.14 0-193.4 156.74-350.14 350.09-350.14z"/><path d="M633.51 1885.17c90.78 0 164.33-73.6 164.33-164.33 0-90.78-73.55-164.38-164.33-164.38-90.78 0-164.38 73.6-164.38 164.38 0 90.73 73.6 164.33 164.38 164.33zM633.51 2792.62c90.78 0 164.33-73.55 164.33-164.33 0-90.78-73.55-164.33-164.33-164.33-90.78 0-164.38 73.55-164.38 164.33 0 90.78 73.6 164.33 164.38 164.33zM13765.96 1156.33h-992.34V3192.8h992.34V1156.33zm-496.05 1822.1c-193.54 0-350.24-156.74-350.24-350.14 0-193.4 156.69-350.14 350.24-350.14 193.35 0 350.04 156.74 350.04 350.14 0 193.4-156.69 350.14-350.04 350.14zm0-907.45c-193.54 0-350.24-156.79-350.24-350.19 0-193.35 156.69-350.09 350.24-350.09 193.35 0 350.04 156.74 350.04 350.09 0 193.4-156.69 350.19-350.04 350.19z"/><path d="M13269.91 1556.45c-90.83 0-164.33 73.6-164.33 164.38 0 90.73 73.5 164.33 164.33 164.33 90.63 0 164.38-73.6 164.38-164.33 0-90.78-73.75-164.38-164.38-164.38zM13269.91 2463.95c-90.83 0-164.33 73.55-164.33 164.33 0 90.78 73.5 164.33 164.33 164.33 90.63 0 164.38-73.55 164.38-164.33 0-90.78-73.75-164.33-164.38-164.33zM8603.81 2156.91 8182.76 2921l53.73 35.2 419.55-761.5 626.97 164.78-175.97 793.95c-6.69 1.15-13.13 2.4-19.82 3.4-18.78 2.9-37.1 5.19-55.68 7.49l800.25 685.1c75.75-53.38 257.91-188.75 259.41-189.9 0-.05.25-.35.25-.35s23.27-7.44 61.87-19.27c0 2.65-.5 5.19-.5 7.84 0 17.48 1.75 34.5 3.99 51.38-2.5 1.95-4.94 3.89-7.44 5.79l.75.75c-4.94 3.45-10.14 6.74-15.08 10.59-101.27 77.9-215.37 159.54-307.69 223.76l-961.13-822.92c-120.29-103.06-301.25-88.88-404.22 31.36-102.96 120.34-88.88 301.3 31.46 404.27l1127.96 965.73c53.18 45.69 119.79 68.91 186.35 68.91 54.98 0 110.15-15.83 158.44-47.69 2.7-2 280.18-185.61 518.57-369.21v.15c21.52-16.53 39.6-35.6 54.93-56.23 1.5 3.25 3 6.49 4.24 9.74 85.14-67.61 162.09-132.87 226.2-202.63 74.75-67.61 121.79-165.08 121.79-273.74 0-204.08-165.33-369.56-369.56-369.56-62.87 0-122.04 15.83-173.97 43.59-61.92 13.78-123.79 27.51-185.66 41.3-4.49-182.31-34.15-415.2-55.73-564.36 59.42-83.34 103.71-179.56 127.73-285.62 96.77-427.84-171.77-853.23-599.51-949.9-345.05-78.1-688.34 81.49-859.17 370.56-154.45-29.76-288.37-.05-304.2 69.96-11.63 51.03 42.84 109.76 131.93 153.2zm754.46 222.36 192.1 50.48c21.27 83.09 64.86 311.89-43.54 490.15-62.87 103.61-169.08 175.82-316.38 215.47l167.83-756.1z"/><path d="m8629.08 2799.06 22.27 19.23 178.71-206.53-22.52-19.33zM8536 2718.57l178.71-206.58-22.52-19.28-178.46 206.58zM8430.79 2956.85l511.67-591.67-22.57-19.32-511.37 591.62z"/><path d="M12515.7 5873.66V0H1411.54v5873.66H12515.7zM1668.8 5616.45V257.26h10589.74v5359.19h-1397.76c145.51-642.4 215.82-1149.78 89.83-1865.54-9.14 35.05-21.27 61.57-30.46 81.39-31.41 62.37-62.37 98.07-89.58 129.48l-2 2.25-.5.6c-85.39 94.08-190.35 177.82-299.51 262.65 0 .1-.25.15-.25.25-209.87 161.44-450.26 323.62-518.82 369.46l-3.7 2.4c-58.92 39.05-127.23 59.67-197.79 59.67-85.64 0-168.53-30.56-233.39-86.19l-438.62-375.46-92.83 171.27-18.08 33.06c193.59 361.67 286.62 705.52 182.21 1214.7H1668.78z"/><path d="m7559.99 3544.28-50.23.95-347.04 6.69-44.19.8 510.78 685.3c54.73 73.35 139.87 115.4 229.5 115.35 13.58 0 26.96-.9 40.6-2.85l849.73-119.89L8263.73 3720l-276.24 39-343.8-461.24-67.56 198.84-16.13 47.69zM7078.37 3498.89l15.53-42.99 142.36-394.58-222.11-212.57-33.41-15.58c-9.44 5.44-18.68 11.38-27.61 18.03-126.98 94.68-153.05 274.29-58.47 401.22l183.71 246.48z"/><path d="M8446.67 3607.25c-138.62-118.84-163.88-321.43-65.36-469.93l-788.36-518.62-115.35-130.03-458.55-213.52-205.03-19.02-.55 1-1160.22-644.35-116.95 251.27 1160.22 644.4-43.44 93.18 402.07 187.15 264.25 253.02-158.09 438.37 346.94-6.64 143.36-422.39 317.08 254.56 938.86 987.4 72.5 41.4 100.27-184.76-633.66-542.48zM8960.49 6792.75c-56.68-113.6-173.72-191.8-309.39-191.8-135.62 0-252.72 78.2-309.64 191.8h619.03zM11226.35 6792.75c-56.68-113.6-173.77-191.8-309.39-191.8-135.67 0-252.72 78.2-309.64 191.8h619.03zM2986.41 6600.95c-135.67 0-252.77 78.2-309.54 191.8h619.03c-56.78-113.6-173.87-191.8-309.49-191.8zM5252.28 6600.95c-135.67 0-252.77 78.2-309.54 191.8h619.03c-56.78-113.6-173.87-191.8-309.49-191.8zM2335.07 7641.98h622.53c117.25 0 219.61 63.92 274.74 158.54 55.18-94.63 157.54-158.64 274.84-158.64h516.12v-636.51c0-4.94-.3-9.79-.75-14.58-7.39-84.19-78-150.25-164.08-150.25H2114.32c-86.09 0-156.59 66.06-164.03 150.25-.4 4.79-.75 9.64-.75 14.58v340.65c169.38 33.71 310.89 145.41 385.54 295.96zM6124.28 6840.53H4380.23c-86.14 0-156.69 66.06-164.08 150.25-.4 4.79-.75 9.64-.75 14.58v510.83c100.72-110.95 245.98-180.76 407.31-180.76 215.82 0 402.92 125.09 492.95 306.45h622.58c139.22 0 257.56 90.08 300.55 214.92h85.49c91.03 0 164.88-73.75 164.88-164.78v-686.64c0-4.94-.35-9.79-.75-14.58-7.39-84.19-78-150.25-164.13-150.25zM6056.27 8838.35c0 41.4-8.24 80.84-22.67 117.1h90.68c91.03 0 164.88-73.8 164.88-164.78v-508.13h192.2c91.08 0 164.83-73.75 164.83-164.83v-13.73c0-90.98-73.75-164.78-164.83-164.78h-426.14c.45 6.89 1.05 13.73 1.05 20.72v878.44zM7614.21 7692.01c0 91.03 73.75 164.78 164.83 164.78h85.44c43.04-124.79 161.39-214.82 300.45-214.82h622.53c90.13-181.46 277.23-306.55 493.1-306.55 161.39 0 306.7 69.86 407.41 180.81v-510.88c0-91.03-73.75-164.83-164.83-164.83h-1744.1c-91.08 0-164.83 73.8-164.83 164.83v686.64zM7614.21 8282.53v508.13c0 90.98 73.75 164.78 164.83 164.78h90.63c-14.38-36.3-22.52-75.75-22.52-117.15V7959.9c0-6.99.5-13.83 1-20.72h-426.29c-90.83 0-164.58 73.8-164.58 164.78v13.73c0 91.08 73.75 164.83 164.58 164.83h192.35zM10044.91 6840.53c-91.08 0-164.83 73.8-164.83 164.83v636.61h516.07c117.35 0 219.56 63.92 274.74 158.59 55.23-94.68 157.44-158.69 274.79-158.69h622.53c74.75-150.5 216.31-262.15 385.64-295.81v-340.7c0-91.03-73.75-164.83-164.88-164.83h-1744.05zM2244.19 7700.8c-70.06-152.25-223.56-258.16-402.12-258.16s-332.06 105.91-402.17 258.16h804.29z"/><path d="M2957.6 9049.17c116.45 0 210.82-94.43 210.82-210.87v-878.39c0-116.4-94.38-210.82-210.82-210.82H726.54c-116.45 0-210.82 94.43-210.82 210.82v878.39c0 116.45 94.38 210.87 210.82 210.87H2957.6zM4220.59 7700.75h804.24c-70.11-152.2-223.61-258.11-402.17-258.11s-332.01 105.91-402.07 258.11zM5738.24 7749.09H3507.18c-116.45 0-210.87 94.43-210.87 210.82v878.39c0 116.45 94.43 210.87 210.87 210.87h2231.06c116.45 0 210.87-94.43 210.87-210.87v-878.39c0-116.4-94.43-210.82-210.87-210.82zM3355.43 9154.53H210.82C94.32 9154.53 0 9248.91 0 9365.35v17.58c0 116.4 94.33 210.77 210.82 210.77h245.93v650.04c0 116.4 94.38 210.82 210.82 210.82h2231.11c116.4 0 210.82-94.43 210.82-210.82V9593.7h245.73v650.04c0 116.4 94.48 210.82 210.87 210.82h2231.11c116.45 0 210.82-94.43 210.82-210.82V9593.7h245.93c116.45 0 210.82-94.38 210.82-210.77v-17.58c0-116.45-94.38-210.82-210.82-210.82H3355.43zM9280.57 7442.64c-178.46 0-331.91 105.91-401.97 258.16h804.19c-70.06-152.25-223.51-258.16-402.22-258.16zM10607.07 8838.3v-878.39c0-116.4-94.58-210.82-210.92-210.82H8164.94c-116.3 0-210.62 94.43-210.62 210.82v878.39c0 116.45 94.33 210.87 210.62 210.87h2231.21c116.35 0 210.92-94.43 210.92-210.87zM12061.25 7442.64c-178.71 0-332.16 105.91-402.22 258.11h804.19c-70.01-152.2-223.51-258.11-401.97-258.11zM13387.5 7959.91c0-116.4-94.33-210.82-210.62-210.82h-2231.21c-116.35 0-210.92 94.43-210.92 210.82v878.39c0 116.45 94.58 210.87 210.92 210.87h2231.21c116.3 0 210.62-94.43 210.62-210.87v-878.39zM13692.45 9154.53H7649.37c-116.6 0-210.87 94.38-210.87 210.82v17.58c0 116.4 94.28 210.77 210.87 210.77h246.03v650.04c0 116.4 94.33 210.82 210.67 210.82h2231.16c116.35 0 210.92-94.43 210.92-210.82V9593.7h245.78v650.04c0 116.4 94.33 210.82 210.67 210.82h2231.16c116.35 0 210.92-94.43 210.92-210.82V9593.7h245.78c116.6 0 210.87-94.38 210.87-210.77v-17.58c0-116.45-94.28-210.82-210.87-210.82zM4110.28 800.15 3911.74 685.7 3754.9 957.79l196.59 113.35zM4029.09 1115.88l648.94 374.06 156.9-272.05-647-373zM6724.84 1381.78l-1621.72-76.2-8.98 40.3 1648.62 143.41zM6142.5 1046.87l-34.55-102.41-1008.37 148.8 3.34 40.55zM6087.63 2782.28 4951.07 1579.42l-26.06 32.06L5992.2 2835.01zM4756.48 1740.56l509.83 882.73 101.76-36.65-577.68-868.6zM1825.69 4810.01h6980.2v-123.74h-6980.2zM11157.29 4810.01h940.61v-123.74h-940.61z"/></g></svg>