<svg xmlns="http://www.w3.org/2000/svg" xml:space="preserve" viewBox="0 0 2247.06 694.39" shape-rendering="geometricPrecision" text-rendering="geometricPrecision" image-rendering="optimizeQuality" fill-rule="evenodd" clip-rule="evenodd"><g fill="currentColor"><path d="M104.92 329.5c-5.04 21.66 8.43 43.31 30.09 48.35 21.66 5.05 43.31-8.43 48.35-30.09 5.05-21.66-8.43-43.31-30.09-48.35-21.66-5.05-43.31 8.43-48.35 30.09zM124.21 575.35c1.23 1.36 2.47 2.77 3.72 4.22 19.76 22.85 41.47 55.87 52.06 97.91 2.56 10.15 11.67 16.91 21.68 16.91 1.81 0 3.65-.22 5.49-.69 11.98-3.03 19.24-15.19 16.22-27.17-13.24-52.38-40.27-92.1-63.81-118.76-11.33-12.81-21.88-22.66-29.93-29.52-3.46-30.29 4.92-65.14 9.71-89.61.07-.23.12-.47.19-.71 15.51 7.42 37.63 14.56 65.14 14.56 14.97 0 31.47-2.12 49.2-7.36 7.58-2.24 11.92-10.2 9.68-17.79-2.24-7.58-10.21-11.92-17.79-9.68-15.13 4.46-28.82 6.18-41.09 6.18-23.26 0-41.53-6.2-54.02-12.35-6.23-3.07-10.99-6.12-14.09-8.33-1.55-1.1-2.69-1.99-3.39-2.57-.35-.28-.59-.49-.73-.6-.06-.05-.1-.08-.11-.1h-.01a14.167 14.167 0 0 0-7.86-3.58c-.65-.23-1.3-.45-1.98-.62-13.05-3.26-31.1 2.33-41.71 20.34 12.08-5.66 21.4-8.3 24.77-9.16h.02l.15-.04c1.37-.33 2.78-.49 4.18-.49 8.31 0 15.46 5.65 17.4 13.73 2.3 9.6-3.65 19.28-13.24 21.58l-.33.09c-.37.1-.96.26-1.76.5-1.52.46-3.99 1.26-7.13 2.45-5.6 2.13-14.23 5.9-23.46 11.71-5.8 3.67-11.11 7.64-15.93 11.91-2.49 17.44-2.22 34.81.42 57.47 2.7 13.92 8.71 21.79 16.04 26.2.11 1.78.18 3.73.18 5.83-.01 12.25-2.28 29.37-11.91 47.71-9.7 18.33-26.73 38.44-58.88 56.81-10.74 6.11-14.49 19.77-8.38 30.52 6.11 10.74 19.78 14.49 30.52 8.38 38.7-21.95 62.72-48.82 76.36-74.88 7.57-14.39 11.98-28.36 14.41-40.99z"/><path d="M110.95 428.81c.85-.25 1.48-.43 1.87-.54.2-.05.33-.09.4-.1l.02-.01c7.69-1.84 12.43-9.57 10.59-17.26-1.85-7.69-9.57-12.43-17.26-10.59-.97.25-20.05 4.84-42.33 18.81-22.18 13.89-47.96 37.81-59.36 76.05-2.26 7.58 2.05 15.56 9.63 17.82 1.37.41 2.74.6 4.1.6 6.17 0 11.87-4.02 13.72-10.23 8.89-29.78 28.75-48.37 47.15-60 9.15-5.76 17.83-9.64 24.1-12.03 3.14-1.19 5.67-2.02 7.36-2.53zM1499.2 434.32H772.56v257.8h726.64zM1559.95 204.98c1.67-7.73-3.24-15.35-10.97-17.02-39.25-8.62-57.94-26.76-68.22-42.48-5.08-7.9-7.89-15.31-9.39-20.61-.1-.34-.17-.65-.26-.97-.07-3.31-.66-6.48-1.85-9.34a14.31 14.31 0 0 0-7.16-8.92c-12.26-9.08-34.23-10.77-53.31 7.11-27.67 26.21-40.98 45.77-55.49 83.08-8.38 27.58 6.97 39.51 21.34 47.03 3.17 5.86 15.5 31.31 15.52 76.37 0 21.5-2.82 47.53-10.96 78.19-3.18 11.94 3.94 24.2 15.88 27.37 1.92.51 3.85.75 5.75.75 9.9 0 18.96-6.62 21.62-16.64 9.1-34.27 12.46-64.25 12.46-89.68.02-58.72-17.92-92.8-22.47-100.43 5.89-12.15 13.75-23.89 21.87-34.74-.24-.51-.48-1.02-.71-1.52-10.92-23.88-12.12-43.19-12.12-50.39 0-1.18.04-1.93.05-2.2.53-9.46 8.37-16.89 17.86-16.89.33 0 .66.01 1 .03 9.8.54 17.38 8.96 16.89 18.77v.24c-.01 1.71.19 16.6 8.87 35.55 2.2 4.79 4.76 9.43 7.63 13.95 11.47 10.83 26.84 20.91 46.97 28.1l-5.36 13.6c2.8 1.91 5.68 3.79 8.67 5.6 8.43 5.11 11.14 16.14 6.02 24.59-3.27 5.39-9 8.62-15.33 8.62-3.26 0-6.46-.89-9.25-2.59-1.2-.72-2.37-1.45-3.53-2.18l-.51 1.29 64.94 25.61 25.62-64.94-32.49-12.82c.16-.49.3-.98.42-1.5zM1562.75 79.31c1.43-2.91-9.95-11.6-27.23-21.34-1.28-.72-2.59-1.45-3.93-2.18-.65-3.67-1.82-7.31-3.55-10.82-9.85-19.94-34-28.12-53.94-18.27-19.93 9.85-28.12 34-18.26 53.94 9.85 19.94 34 28.12 53.94 18.27 8.91-4.4 15.46-11.67 19.12-20.13-4.5-3.19-9.32-6.48-14.41-9.66-12.73-7.97-23.73-15.92-31.14-22.26 7.62 4.88 17.5 10.43 28.54 15.87 13.8 6.8 26.64 12.08 35.99 15 8.42 2.63 14 3.36 14.88 1.58zM717.75 133.79c10.06-7.08 18.97-14.09 25.74-20.1-6.34 7.41-15.97 16.97-27.32 26.81-4.53 3.93-8.79 7.93-12.74 11.78a40.174 40.174 0 0 0 22.01 16.93c21.22 6.64 43.81-5.18 50.46-26.4 6.65-21.23-5.18-43.82-26.4-50.46-21.22-6.64-43.82 5.18-50.46 26.4a40.005 40.005 0 0 0-1.83 11.23c-1.21.93-2.4 1.85-3.54 2.76-15.56 12.3-25.46 22.65-23.6 25.3 1.15 1.63 6.55.05 14.46-3.86 8.78-4.34 20.65-11.54 33.23-20.4zM1209.11 33.49c12.23-1.41 23.4-3.31 32.21-5.35-9.1 3.48-22.14 7.27-36.81 10.49-5.85 1.29-11.5 2.76-16.81 4.25.6 9.2 4.31 18.25 11.22 25.39 15.47 15.98 40.96 16.4 56.94.93 15.98-15.47 16.4-40.96.93-56.94-15.47-15.98-40.96-16.4-56.95-.93a40.073 40.073 0 0 0-6.95 8.99c-1.49.23-2.96.48-4.4.72-19.58 3.37-33.25 7.73-32.88 10.95.23 1.98 5.73 3.17 14.54 3.52 9.79.39 23.65-.26 38.94-2.03zM1254.43 104.21c3.64 0 7.15 1.1 10.16 3.18 8.12 5.61 10.17 16.77 4.56 24.89l-.01.02-.11.16c-1.92 2.7-11.92 16.4-29.85 34.52 6.15 18.72 11.64 39.48 11.85 58.95.01.07.01.13.02.2-6.94 14.6-18.31 45.73-18.29 92.49 0 25.43 3.36 55.42 12.47 89.68 2.66 10.02 11.71 16.63 21.61 16.64 1.9 0 3.83-.24 5.76-.75 11.94-3.18 19.05-15.43 15.88-27.37-8.14-30.66-10.96-56.69-10.96-78.19 0-27.19 4.51-47.18 8.76-60.11 1.75-5.31 3.45-9.4 4.8-12.31 11.59-4.17 21.63-13.09 22.64-34.04-1.12-40.02-7.08-62.91-24.32-96.9-12.68-24.65-35.8-29.68-50.37-23.72-12.46 5.1-16.86 21.95-13.12 37.29 9-10.12 13.63-16.68 13.75-16.85 3.38-4.9 8.89-7.79 14.78-7.79zM1057.86 416.17h115.45V300.72h-115.45zM928.98 300.72v115.45h115.45V300.72zM1057.86 288.47h115.45v-67.78c-2.73 1.78-5.49 3.56-8.34 5.32a17.881 17.881 0 0 1-9.4 2.67c-6.26 0-11.96-3.18-15.24-8.49a17.836 17.836 0 0 1-2.2-13.52c1.1-4.66 3.95-8.61 8.02-11.12 9.81-6.06 18.85-12.31 27.15-18.54v-4h-115.45v115.45z"/><path d="M1143.38 218.32c2.71 4.38 7.4 6.79 12.2 6.79 2.57 0 5.17-.69 7.51-2.14 68.1-42.14 102.37-91.71 103.11-92.72 4.5-6.51 2.86-15.43-3.65-19.92-6.51-4.5-15.43-2.86-19.92 3.65l-.03.04c-1.27 1.86-33.36 46.8-94.57 84.59-6.73 4.15-8.81 12.98-4.65 19.71zM699.7 305.06c4.4 0 8.64 1.62 11.93 4.56 3.56 3.19 5.67 7.58 5.93 12.35.12 2.16-.16 4.28-.78 6.28l15.47 6.1 9.67-24.52c-1.35-1.07-2.58-2.32-3.59-3.76-2.73-3.92-3.79-8.67-2.95-13.38.84-4.71 3.46-8.81 7.38-11.55 5.25-3.68 9.95-7.71 14.15-12.1l-4.94-1.95c7.96-6.23 14.57-12.84 20.01-19.53 1.41-2.81 2.69-5.73 3.85-8.76 5.91-15.54 6.78-30.26 6.77-37.66 0-5.36-.42-8.62-.43-8.65-1.38-9.76 5.43-18.83 15.19-20.23.85-.12 1.7-.18 2.55-.18 8.84 0 16.45 6.61 17.7 15.37.03.2.78 5.37.78 13.69-.01 9.93-1.1 24.26-5.68 40.09 8.39 8.14 16.68 16.98 23.79 26.36l-47.09 36.5c-4.92 3.82-7.99 9.4-8.57 15.6-.58 6.2 1.4 12.26 5.53 16.93l69.81 78.76c4.42 4.99 10.57 7.53 16.75 7.53 5.28 0 10.58-1.86 14.84-5.63 9.25-8.2 10.1-22.34 1.91-31.59l-53.96-60.88 36.95-28.64c2.4-1.29 4.96-3.06 7.82-5.14 13.26-9.66 27.31-23.86 14.53-50.3-20.12-34.62-36.29-51.87-67.68-73.49-21.61-14.7-43.04-9.64-53.76 1.22-3.12 2.32-5.24 5.86-5.69 9.86-.75 3.06-.86 6.34-.4 9.68-.72 6.6-2.86 17.08-8.98 28.39-6.79 12.46-18.14 26.26-38.93 37.9l-26.67-10.52-25.61 64.94 15.53 6.12c1.18-1.26 2.36-2.53 3.52-3.83a17.92 17.92 0 0 1 13.34-5.97zM1514.76 258.52c4.84 0 9.57-2.46 12.26-6.9 4.1-6.77 1.94-15.57-4.82-19.67-33.87-20.58-50.55-43.82-59.3-62.81-8.69-18.98-9.21-33.94-9.2-36.99v-.48c.39-7.87-5.65-14.58-13.51-15.01-7.9-.44-14.65 5.61-15.09 13.51-.01.25-.05.92-.05 1.98.01 6.03.93 25.12 11.8 48.91 10.83 23.77 31.84 52.02 70.5 75.39a14.27 14.27 0 0 0 7.4 2.07z"/><path d="M797.88 175.8c-7.82 1.12-13.26 8.36-12.15 16.19v.01c.06.47.46 3.85.46 9.14.01 9.09-1.21 23.73-7 38.95-5.83 15.26-15.89 31.05-34.37 44-6.49 4.53-8.07 13.46-3.54 19.94 2.79 3.99 7.23 6.12 11.75 6.12 2.83 0 5.69-.83 8.19-2.58 23.7-16.52 37.38-37.76 44.75-57.32 7.41-19.6 8.85-37.57 8.86-49.1 0-7.77-.67-12.64-.75-13.18-1.12-7.83-8.37-13.27-16.2-12.15zM569.63 278.78l-25.61 34.27c2.77 15.33 14.36 28.32 30.51 32.07 21.66 5.05 43.3-8.43 48.35-30.08 5.05-21.66-8.43-43.31-30.09-48.35-6.71-1.56-13.42-1.35-19.63.34.25 4.21-.97 8.34-3.52 11.75zM599.47 404.25c-10.45 2.01-17.82 2.27-20.73 2.27-.76 0-1.24-.01-1.42-.02-9.81-.33-17.57-8.62-17.24-18.48.32-9.71 8.18-17.31 17.88-17.31l.56.01.22-.01c1.06 0 8.08-.1 18.89-2.67-3.16-5.81-7.91-10.15-14.03-11.68-15.28-3.81-37.44 4.49-46.45 30.7-12.18 36.11-14.8 59.62-10.17 99.39 3.78 19.46 14.02 27.12 25.32 29.99 4.56 15.01 10.25 39.72 10.21 69.38 0 23.66-3.54 50.43-13.9 78.41-4.29 11.59 1.62 24.46 13.21 28.75 2.56.95 5.19 1.4 7.77 1.4 9.1 0 17.64-5.59 20.99-14.61 12.45-33.62 16.68-65.83 16.68-93.95-.05-44.84-10.58-79.33-16.27-94.77-3.85-28.8 3.52-62.11 8.5-86.8z"/><path d="M578.41 374.29c-7.89-.24-14.49 5.94-14.76 13.83-.26 7.9 5.93 14.53 13.84 14.8v-.01c.15.01.58.02 1.25.02 4.98 0 22.76-.71 46.95-9.93 24.19-9.19 54.72-26.98 84.68-60.49 5.27-5.9 4.77-14.95-1.12-20.22-5.89-5.28-14.95-4.77-20.22 1.12-26.92 30.05-53.26 45.08-73.53 52.83-20.26 7.72-34.52 8.05-36.76 8.05h-.33zM430.62 306.7c.34 17.99 12.8 34.16 31.14 38.43 4.36 1.02 8.72 1.27 12.95.87l35.71-47.78c-2.95-15.09-14.44-27.81-30.39-31.52a40.03 40.03 0 0 0-24.99 2.21c-.16 3.55-1.36 6.97-3.54 9.88l-20.86 27.92zM465.19 406.51c-3.89 0-7.6-1.24-10.71-3.57-3.82-2.85-6.31-7.04-7-11.77-.69-4.73.51-9.45 3.38-13.28l16.55-22.15c-15-1.89-34.68 7-43.05 31.33-12.18 36.11-14.8 59.62-10.17 99.39 3.78 19.46 14.02 27.12 25.32 29.99 4.56 15.01 10.25 39.72 10.21 69.38-.01 23.66-3.54 50.43-13.9 78.41-4.29 11.59 1.62 24.46 13.21 28.75 2.56.95 5.19 1.4 7.77 1.4 9.09 0 17.64-5.59 20.99-14.61 12.45-33.62 16.68-65.83 16.68-93.95-.05-44.84-10.58-79.33-16.27-94.77-4.11-30.77 4.58-66.69 9.48-91.74 1.23-4.28 1.78-8.75 1.69-13.14l-9.83 13.15c-3.36 4.5-8.73 7.19-14.35 7.19z"/><path d="M453.74 380.03c-4.74 6.33-3.44 15.31 2.89 20.04 2.57 1.93 5.58 2.85 8.56 2.85 4.37 0 8.67-1.99 11.48-5.75l90.09-120.53c4.73-6.34 3.43-15.31-2.9-20.05-6.33-4.73-15.31-3.44-20.05 2.9l-90.09 120.53zM361.88 266.69c-21.66-5.04-43.31 8.43-48.36 30.08-5.04 21.66 8.43 43.31 30.09 48.35 4.36 1.02 8.72 1.27 12.94.87l35.72-47.78c-2.95-15.09-14.45-27.81-30.39-31.52zM369.54 399.3c1.24-4.28 1.78-8.75 1.69-13.15l-9.84 13.16c-3.36 4.5-8.72 7.19-14.35 7.19-3.89 0-7.59-1.24-10.7-3.57-7.9-5.9-9.53-17.14-3.63-25.05l16.56-22.16c-15-1.89-34.68 7.01-43.04 31.33-12.18 36.11-14.8 59.62-10.17 99.39 3.78 19.46 14.01 27.12 25.32 29.99 4.56 15.01 10.24 39.73 10.21 69.38 0 23.66-3.54 50.43-13.9 78.41-4.29 11.59 1.62 24.46 13.21 28.75 2.56.95 5.19 1.4 7.77 1.4 9.09 0 17.64-5.59 20.98-14.61 12.45-33.62 16.69-65.83 16.68-93.95-.05-44.84-10.58-79.33-16.27-94.77-4.11-30.77 4.58-66.69 9.48-91.74z"/><path d="M338.48 400.07c2.57 1.93 5.58 2.85 8.56 2.85 4.36 0 8.67-1.99 11.48-5.75l90.09-120.53c4.73-6.34 3.44-15.31-2.9-20.05-6.34-4.73-15.31-3.44-20.05 2.9l-90.09 120.53c-4.73 6.33-3.44 15.31 2.9 20.04zM2112.06 377.85c21.66-5.04 35.13-26.69 30.09-48.35-5.04-21.66-26.69-35.13-48.35-30.09-21.66 5.04-35.13 26.69-30.09 48.35 5.05 21.66 26.69 35.13 48.35 30.09zM2235.74 652.33c-32.15-18.37-49.18-38.48-58.88-56.81-9.64-18.34-11.9-35.46-11.92-47.71 0-2.1.07-4.05.18-5.83 7.34-4.41 13.34-12.29 16.05-26.21 2.63-22.64 2.91-40 .42-57.42a122.19 122.19 0 0 0-14.28-10.89c-17.73-11.57-34.16-15.77-34.31-15.81-9.63-2.31-15.57-11.99-13.27-21.59 1.94-8.09 9.09-13.74 17.4-13.74 1.4 0 2.81.17 4.18.5l.03.01.17.04c3.38.86 12.7 3.52 24.75 9.16-10.61-18.02-28.66-23.61-41.71-20.35-.68.17-1.34.39-1.99.62-2.83.35-5.58 1.52-7.85 3.58-.15.14-7.08 6.24-19.51 12.19-12.45 5.95-30.31 11.77-52.84 11.77-12.27 0-25.97-1.72-41.09-6.18-7.59-2.24-15.55 2.09-17.79 9.68-2.24 7.59 2.09 15.55 9.68 17.79 17.73 5.24 34.24 7.36 49.2 7.36h.02c27.5 0 49.62-7.14 65.12-14.57.06.24.12.48.19.71 4.79 24.47 13.17 59.32 9.71 89.61-8.04 6.86-18.6 16.71-29.93 29.52-23.54 26.67-50.57 66.38-63.82 118.76-3.02 11.98 4.24 24.15 16.22 27.17 1.84.47 3.68.68 5.49.68 10.01 0 19.12-6.76 21.68-16.9 10.93-43.39 33.72-77.19 53.96-100.09.61-.69 1.21-1.37 1.82-2.04 2.44 12.62 6.84 26.6 14.41 40.98 13.64 26.07 37.66 52.93 76.36 74.88 10.74 6.11 24.4 2.36 30.52-8.38 6.11-10.74 2.36-24.41-8.38-30.52z"/><path d="M2123.23 410.9c-1.84 7.69 2.89 15.42 10.59 17.26h.02c1.11.26 17.62 4.67 35.46 16.3 17.92 11.71 36.82 30.04 45.43 58.89 1.85 6.21 7.55 10.23 13.72 10.23 1.36 0 2.73-.19 4.1-.6 7.58-2.26 11.89-10.24 9.64-17.82-11.4-38.25-37.19-62.17-59.37-76.05-22.27-13.97-41.35-18.55-42.32-18.81-7.7-1.84-15.43 2.9-17.26 10.59zM1673.91 267.03a40.154 40.154 0 0 0-19.63-.34c-21.66 5.04-35.13 26.69-30.09 48.35 5.05 21.66 26.69 35.13 48.35 30.08 16.14-3.76 27.73-16.74 30.5-32.06l-25.62-34.27a17.792 17.792 0 0 1-3.51-11.76zM1663.47 356.36c-6.13 1.53-10.88 5.88-14.04 11.68 10.81 2.57 17.83 2.67 18.89 2.67h.2l.58-.01c9.71 0 17.56 7.61 17.88 17.31a17.79 17.79 0 0 1-4.82 12.83c-3.27 3.49-7.7 5.5-12.48 5.66-.23.01-.68.02-1.36.02-2.91 0-10.28-.25-20.73-2.26 4.98 24.68 12.35 57.99 8.5 86.78-5.69 15.43-16.23 49.93-16.28 94.78 0 28.11 4.23 60.32 16.69 93.95 3.34 9.03 11.89 14.61 20.99 14.61 2.58 0 5.21-.45 7.77-1.4 11.59-4.29 17.5-17.17 13.21-28.75-10.36-27.98-13.89-54.75-13.9-78.41 0-25.29 4.08-46.98 8.13-62.14.7-2.62 1.4-5.03 2.07-7.24 11.3-2.86 21.54-10.53 25.33-29.99 4.63-39.77 2.01-63.28-10.17-99.39-9.01-26.21-31.17-34.51-46.45-30.7z"/><path d="M1669.56 402.92c7.9-.26 14.1-6.88 13.84-14.79-.26-7.9-6.86-14.08-14.75-13.84h-.33c-2.24 0-16.5-.33-36.76-8.05-20.27-7.74-46.61-22.77-73.52-52.83-5.28-5.9-14.33-6.4-20.22-1.12-5.89 5.27-6.4 14.33-1.12 20.22 29.96 33.51 60.49 51.3 84.67 60.49 24.2 9.21 41.98 9.93 46.96 9.93.67 0 1.09-.01 1.25-.02zM1785.3 345.12c18.33-4.27 30.79-20.42 31.14-38.41l-20.87-27.92a17.691 17.691 0 0 1-3.54-9.89 40.036 40.036 0 0 0-24.99-2.2c-15.95 3.71-27.45 16.43-30.39 31.52l35.71 47.77c4.23.4 8.59.15 12.95-.87zM1752.58 585.81c-.01 28.11 4.22 60.32 16.68 93.95 3.34 9.03 11.89 14.61 20.98 14.61 2.58 0 5.21-.45 7.77-1.4 11.59-4.29 17.5-17.17 13.21-28.76-10.36-27.98-13.9-54.74-13.9-78.4-.01-25.29 4.08-46.98 8.13-62.14.7-2.62 1.39-5.03 2.07-7.24 11.3-2.86 21.54-10.53 25.33-29.99 4.63-39.77 2.01-63.28-10.17-99.39-8.36-24.33-28.05-33.22-43.05-31.33l16.56 22.16c2.86 3.83 4.06 8.54 3.38 13.27-.69 4.73-3.17 8.92-7 11.78-3.11 2.33-6.8 3.56-10.68 3.56h-.02c-5.62 0-10.99-2.69-14.35-7.18l-9.83-13.15c-.09 4.39.46 8.86 1.69 13.13 4.9 25.04 13.6 60.96 9.48 91.72-5.69 15.43-16.22 49.93-16.28 94.78z"/><path d="M1781.87 402.92c2.98 0 5.99-.92 8.56-2.85 6.33-4.73 7.63-13.71 2.89-20.05l-90.09-120.53c-4.74-6.34-13.71-7.63-20.05-2.9-6.33 4.73-7.63 13.71-2.89 20.04l90.09 120.53a14.31 14.31 0 0 0 11.49 5.75zM1903.45 345.12c21.66-5.04 35.13-26.69 30.09-48.35-5.05-21.66-26.7-35.13-48.36-30.08-15.95 3.71-27.44 16.43-30.39 31.52l35.71 47.77c4.22.4 8.59.15 12.95-.87zM1917.72 391.16a17.75 17.75 0 0 1-7 11.78c-3.12 2.33-6.82 3.57-10.7 3.57-5.63 0-10.99-2.69-14.35-7.19l-9.83-13.15c-.08 4.39.46 8.87 1.69 13.14 4.9 25.04 13.6 60.96 9.48 91.73-5.69 15.43-16.22 49.93-16.28 94.78 0 28.11 4.23 60.32 16.68 93.95 3.34 9.03 11.89 14.61 20.99 14.61 2.58 0 5.21-.45 7.77-1.4 11.59-4.3 17.5-17.17 13.21-28.75-10.36-27.98-13.9-54.75-13.9-78.41-.01-25.29 4.08-46.98 8.13-62.13.7-2.62 1.4-5.03 2.07-7.24 11.3-2.86 21.54-10.53 25.32-29.99 4.63-39.77 2.01-63.28-10.17-99.39-8.36-24.33-28.04-33.22-43.05-31.33l16.55 22.15c2.86 3.83 4.06 8.55 3.38 13.28z"/><path d="M1888.53 397.17c2.81 3.76 7.12 5.75 11.48 5.75 2.98 0 5.99-.93 8.56-2.85 6.34-4.73 7.64-13.71 2.9-20.05l-90.09-120.53c-4.73-6.34-13.71-7.63-20.05-2.9s-7.63 13.71-2.9 20.05l90.09 120.53z"/></g></svg>