<svg xmlns="http://www.w3.org/2000/svg" xml:space="preserve" shape-rendering="geometricPrecision" text-rendering="geometricPrecision" image-rendering="optimizeQuality" fill-rule="evenodd" clip-rule="evenodd" viewBox="0 0 13.2 17.85">
    <g fill="currentColor">
        <path d="M6.12 1.16h.93c.4 0 .39-.03.2-.34-.31-.51-1.01-.49-1.32 0-.2.31-.17.34.2.34zM1.58 4.9c.34-.43.67-.87 1-1.3.26-.34.21-.36-.18-.36h-.73c-.47 0-.51.02-.51.49v1.03c0 .58.03.63.42.14zM.51 2.12h2.46c.49 0 .51.02.51.61 0 .36-.02.41-.26.54-.12.07-.12.11-.12.2v1.61c0 .46-.03.5-.51.52-.37.02-.83.01-1.2.01-.23 0-.23.04-.23.23v10.4c0 .42.01.49.51.49h9.87c.48 0 .51-.07.51-.49V3.74c0-.41-.03-.49-.51-.49h-1.3c-.49 0-.51-.05-.51-.56 0-.53.03-.56.51-.56h2.46c.51 0 .51.09.51.49v14.74c0 .4 0 .49-.51.49H.52c-.51 0-.51-.07-.51-.49V2.62c0-.43 0-.49.51-.49zm4.22 2.64h5.52c.44 0 .44.71 0 .71H4.73c-.44 0-.44-.71 0-.71zM2.97 7.11h7.28c.44 0 .44.71 0 .71H2.97c-.44 0-.44-.71 0-.71zm0 2.33h7.28c.44 0 .44.71 0 .71H2.97c-.44 0-.44-.71 0-.71zm0 2.33h7.28c.44 0 .44.71 0 .71H2.97c-.44 0-.44-.71 0-.71zm0 2.33h7.28c.44 0 .44.71 0 .71H2.97c-.44 0-.44-.71 0-.71zM4.92 1.15c.34 0 .39-.01.43-.17.34-1.31 2.12-1.33 2.46 0 .04.16.06.17.48.17.47 0 .51 0 .51.49v1.84c0 .44 0 .49-.51.49H4.92c-.49 0-.51-.07-.51-.49V1.64c0-.45 0-.49.51-.49z" />
    </g>
</svg>
