<svg xmlns="http://www.w3.org/2000/svg" xml:space="preserve" shape-rendering="geometricPrecision" text-rendering="geometricPrecision" image-rendering="optimizeQuality" fill-rule="evenodd" clip-rule="evenodd" viewBox="0 0 790.18 589.23">
    <g fill="currentColor">
        <path d="M790.18 589.23L658.92 451.17l-36.65 33.03-117.67-56.27c5.56-5.92 9.06-12.11 10.66-18.32 1.55-6.02 1.3-12.06-.58-17.91-1.83-5.67-5.21-11.17-10.01-16.33-4.67-5.01-10.69-9.72-17.99-13.98l59.9-31.39 48.21 16.68-8.53-50.57-112.75 8.61 40.45 14-60.69 29.02c-2.19-.61-4.42-1.18-6.66-1.71v15.88c1.52.57 3.05 1.13 4.52 1.76 8.4 3.61 15.12 7.88 20.07 12.56 5.09 4.81 8.33 10.06 9.58 15.47 1.29 5.57.47 11.31-2.65 16.87-3.2 5.73-8.83 11.25-17.02 16.14-4.17 2.5-8.8 4.7-13.79 6.61-5.04 1.93-10.43 3.55-16.08 4.86-5.68 1.32-11.61 2.31-17.67 2.97-6.08.67-12.28 1-18.49 1-6.21 0-12.41-.33-18.49-1-6.06-.66-11.99-1.65-17.67-2.97-5.65-1.31-11.05-2.93-16.09-4.86-4.99-1.91-9.62-4.12-13.79-6.61-8.19-4.9-13.81-10.41-17.02-16.14-3.11-5.56-3.94-11.3-2.65-16.87 1.25-5.41 4.5-10.66 9.58-15.46 4.96-4.68 11.68-8.95 20.07-12.56 1.47-.63 3-1.2 4.53-1.77v-15.88c-2.25.53-4.47 1.1-6.67 1.71l-60.69-29.02 40.45-14-112.75-8.61-8.53 50.57L243.55 330l59.91 31.39c-7.3 4.26-13.32 8.96-17.99 13.98-4.8 5.16-8.18 10.66-10.01 16.33-1.89 5.85-2.13 11.89-.58 17.91 1.6 6.21 5.11 12.4 10.66 18.32L167.87 484.2l-36.65-33.03L-.04 589.23l247.24-33.56-48.33-43.54 119.9-62.81c5.39 2.22 11.11 4.18 17.09 5.88 6.03 1.71 12.31 3.14 18.77 4.3 6.49 1.16 13.15 2.03 19.92 2.62 6.78.59 13.64.88 20.5.88 6.87 0 13.73-.3 20.5-.88 6.76-.59 13.43-1.46 19.92-2.62 6.46-1.16 12.74-2.59 18.77-4.3 5.98-1.7 11.71-3.66 17.1-5.88l119.9 62.81-48.33 43.54 247.24 33.56z" />
        <path d="M348.72 217.47v168.05c0 11.71 9.5 21.2 21.2 21.2 11.71 0 21.2-9.49 21.2-21.2v-154.8h7.95v154.8c0 11.71 9.5 21.2 21.2 21.2 11.71 0 21.21-9.49 21.21-21.2V128.37c1.01 2.08 2.04 4.48 3.05 7.27 4.83 13.4 8.9 35.37 8.88 69.69 0 9.46-.3 19.84-.97 31.25-.44 7.56 5.33 14.06 12.9 14.5.27.02.54.02.81.02 7.21 0 13.26-5.63 13.68-12.92.69-11.89 1.02-22.8 1.02-32.85-.07-51.76-8.34-80.41-19.61-97.63-5.63-8.55-12.22-14.03-18.31-17.07-5.7-2.88-10.72-3.58-13.84-3.65-.29-.02-.57-.04-.87-.04h-66.25c-.27 0-.54.02-.8.04-3.11.06-8.17.76-13.91 3.65-9.22 4.58-19.17 14.58-26.12 32.31-7.04 17.8-11.77 43.53-11.79 82.39 0 10.04.32 20.96 1.02 32.85.43 7.29 6.47 12.91 13.68 12.92.27 0 .54-.01.81-.03 7.56-.45 13.34-6.94 12.9-14.5-.67-11.41-.97-21.8-.97-31.25-.06-41.53 5.99-64.86 11.94-77.04v89.18zm39.86-116.5h13.04l3.26 12.86-.49.78c-2.68 2.24-5.98 3.36-9.28 3.36-3.3 0-6.59-1.12-9.27-3.36l-.5-.79 3.26-12.86zm-.39 20.89c2.22.83 4.56 1.27 6.9 1.27h.01c2.34 0 4.68-.44 6.9-1.27l9.38 69.15-16.29 20.58-16.29-20.58 9.38-69.14zM356.51 38.58c0 21.31 17.28 38.58 38.58 38.58 21.31 0 38.58-17.27 38.58-38.58S416.4 0 395.09 0s-38.58 17.28-38.58 38.58z" />
    </g>
</svg>
